<svg xmlns="http://www.w3.org/2000/svg" viewBox="0 0 705 322"><defs><style>.cls-1{fill:#f4e9c3;}.cls-2{fill:#97bdc0;}.cls-3{fill:#004098;}.cls-4{fill:#fff;}.cls-5,.cls-6{opacity:0.5;}.cls-6{fill:#7e8060;}.cls-7{fill:#807360;}.cls-8{fill:#938878;}.cls-9{fill:#274d7a;}</style></defs><title>アートボード 65-22</title><g id="frame"><rect class="cls-1" width="495" height="322"/><rect class="cls-1" x="505" width="200" height="322"/><circle class="cls-2" cx="361" cy="143" r="112"/><circle class="cls-3" cx="361" cy="177" r="78"/><path class="cls-4" d="M323.42,136h5.06c5.67,0,10.67,1.9,10.67,9.24s-5,9.24-10.67,9.24h-5.06Zm3.71,15.56h2.07a6.33,6.33,0,0,0,0-12.65h-2.07Z"/><path class="cls-4" d="M342.54,136H349c2.39,0,6,.69,6,4.74a4.13,4.13,0,0,1-3.68,4.13v0c2.51.24,4.24,1.93,4.24,4.21,0,4.66-4.19,5.35-6.52,5.35h-6.46Zm3.71,7.46h1.51c1.56,0,3.49-.34,3.49-2.25,0-2.14-1.88-2.3-3.57-2.3h-1.43Zm0,8.1H348c1.72,0,3.81-.42,3.81-2.56,0-2.41-2-2.78-3.81-2.78h-1.75Z"/><path class="cls-4" d="M372.17,154.2a18.57,18.57,0,0,1-4.21.58c-6,0-10.14-3-10.14-9.24s3.87-9.87,10.14-9.87a12.27,12.27,0,0,1,4.19.77l-.27,3.12a7.66,7.66,0,0,0-4-1c-3.81,0-6.19,2.91-6.19,6.7s2.33,6.59,6.27,6.59a10.28,10.28,0,0,0,4.05-.77Z"/><path class="cls-4" d="M374.9,136h3.71v15.56h7.17v2.92H374.9Z"/><path class="cls-4" d="M398.07,139.38a9.43,9.43,0,0,0-3.76-.8c-1.27,0-2.91.56-2.91,2.57,0,3.2,8.1,1.85,8.1,8,0,4.05-3.2,5.58-6.94,5.58a16.32,16.32,0,0,1-4.74-.71l.35-3.34a8.91,8.91,0,0,0,4.18,1.14c1.4,0,3.28-.71,3.28-2.38,0-3.52-8.1-2.07-8.1-8.18,0-4.13,3.21-5.64,6.46-5.64a13.93,13.93,0,0,1,4.42.66Z"/><rect class="cls-4" x="370.41" y="192.6" width="25.59" height="23.4" rx="4" ry="4"/><rect class="cls-4" x="327.67" y="192.6" width="38.26" height="23.4" rx="4" ry="4"/><g class="cls-5"><circle class="cls-6" cx="130" cy="142" r="111"/><circle class="cls-7" cx="130" cy="142" r="111"/></g><circle class="cls-7" cx="608" cy="177" r="78"/><circle class="cls-8" cx="608" cy="177" r="78"/><path class="cls-4" d="M82.86,72.74a13.68,13.68,0,0,0-.07-1.45,13.11,13.11,0,0,0,1.42.06h7.56c.59,0,1,0,1.42-.06a11.76,11.76,0,0,0-.07,1.43v7.7A9.7,9.7,0,0,0,93.19,82H91.82v-.68H84.16V82H82.79a11.07,11.07,0,0,0,.07-1.56Zm1.3,7.38h7.66V72.51H84.16ZM86,74.39a6.41,6.41,0,0,0-1.09.06V73.24A6.28,6.28,0,0,0,86,73.3H90a6.46,6.46,0,0,0,1.11-.06v1.21A6.68,6.68,0,0,0,90,74.39H88.51v1.25h1.24a5.34,5.34,0,0,0,1-.06v1.19a4.46,4.46,0,0,0-.77-.06,5.81,5.81,0,0,1,.76,1.16l-.65.36a6,6,0,0,0,1.17-.07v1.25a7.11,7.11,0,0,0-1.12-.07H85.83a6.58,6.58,0,0,0-1.14.07V78.16a5.94,5.94,0,0,0,1.14.07h1.44V76.71h-1a5.66,5.66,0,0,0-1,.06V75.58a5.47,5.47,0,0,0,1,.06h1V74.39Zm2.55,3.84h1.3a5.37,5.37,0,0,0-.76-1.2l.64-.32H88.51Z"/><path class="cls-4" d="M100.37,80.09a25.61,25.61,0,0,0,1.8-5.75l1.54.45a6.34,6.34,0,0,0-.4,1.15,37.36,37.36,0,0,1-1.54,4.15h2.16c.61,0,1.12,0,1.52-.07v1.44a10.5,10.5,0,0,0-1.52-.09H96.11a11,11,0,0,0-1.56.09V80c.42,0,.91.07,1.56.07Zm-1.14-8.18a5.86,5.86,0,0,0-.08-.94h1.51a4.52,4.52,0,0,0-.09.93v.81h2.89a10.62,10.62,0,0,0,1.55-.08v1.44a13.15,13.15,0,0,0-1.55-.07h-7a12.75,12.75,0,0,0-1.51.07V72.63a10,10,0,0,0,1.51.08h2.74Zm-1.55,2.54a36.29,36.29,0,0,1,1.37,4.67l-1.34.48a24.82,24.82,0,0,0-1.32-4.69Z"/><path class="cls-4" d="M109.21,79.39a2,2,0,0,0,1.37,1,5.12,5.12,0,0,0-.71-.76,6,6,0,0,0,1.92-.66h-.68a9.22,9.22,0,0,0-1,0c0-.33,0-.57,0-.94V75.83c0-.44,0-.67,0-.93.39,0,.51,0,1,0h4.58c.48,0,.72,0,1,0,0,.25,0,.51,0,.93V78.1c0,.44,0,.68,0,1-.42,0-.62,0-1,0h-.54a7.48,7.48,0,0,0,2.14.62,5.69,5.69,0,0,0-.62.82l1.08-.12a4,4,0,0,0-.36,1.34c-1.25,0-2.79.08-4.34.08-2.1,0-2.72-.09-3.46-.46a2.92,2.92,0,0,1-1-.9,13.15,13.15,0,0,1-1.73,1.44l-.58-1.37A6.77,6.77,0,0,0,108,79.31V76.72h-.62a4.23,4.23,0,0,0-.81.06v-1.3a5.2,5.2,0,0,0,1,.06h.86a7.67,7.67,0,0,0,.91,0,11.93,11.93,0,0,0-.05,1.3ZM107.58,71a13.49,13.49,0,0,1,2,2.17l-1,.94a11.67,11.67,0,0,0-1.92-2.22Zm8.31.45a9.08,9.08,0,0,0,1,0,5.2,5.2,0,0,0,0,.75v.51a5.2,5.2,0,0,0,0,.75c-.31,0-.58,0-1,0h-1.95v.34h2.53a5.82,5.82,0,0,0,1.08-.06v1a6.15,6.15,0,0,0-1.08-.06h-6.19a6.22,6.22,0,0,0-1.08.06v-1a5.82,5.82,0,0,0,1.08.06h2.45v-.34h-1.81c-.42,0-.75,0-1,0a5.06,5.06,0,0,0,0-.77v-.5a4.31,4.31,0,0,0-.05-.74,8.88,8.88,0,0,0,1,0h1.86c0-.28,0-.39,0-.58H114a2.82,2.82,0,0,0,0,.58Zm-4.79.79v.38h1.62V72.2Zm2,7.29a7.89,7.89,0,0,1-2,1,13.23,13.23,0,0,0,1.46.07c1,0,2.53,0,3.44-.08a8.43,8.43,0,0,1-2.17-1l.63-.47H112.4Zm-1.73-3.44h4.15v-.36h-4.15Zm0,1h4.15v-.35h-4.15Zm0,1.14h4.15v-.43h-4.15Zm2.61-5.66h1.71V72.2h-1.71Z"/><path class="cls-4" d="M121.12,80.6a11.43,11.43,0,0,0,.06,1.41h-1.42a11.94,11.94,0,0,0,.07-1.44V77.1c0-.59,0-.86,0-1.34a7.58,7.58,0,0,1-1,1.39,7.11,7.11,0,0,0-.66-1.39,10.29,10.29,0,0,0,2-3.07,9.15,9.15,0,0,0,.57-1.9l1.37.44a6.62,6.62,0,0,0-.26.72c-.06.19-.29.79-.39,1l-.39.93Zm2.11-4.42a9.67,9.67,0,0,0-1.48.07V74.91a11.47,11.47,0,0,0,1.45.07h4.9a11.92,11.92,0,0,0,1.47-.07v1.34a12.25,12.25,0,0,0-1.47-.07h-2.63a33.45,33.45,0,0,1-1.38,3.87c2.47-.26,2.47-.26,3.38-.39a19,19,0,0,0-1.22-2.16l1.16-.45a22.77,22.77,0,0,1,2.26,4.23l-1.21.57c-.24-.59-.31-.77-.48-1.14-1.51.29-2.1.39-4.67.69l-.57.07-.39.06a1.17,1.17,0,0,0-.43.08l-.29-1.4h.26c.18,0,.4,0,.78,0a33.83,33.83,0,0,0,1.42-4Zm-.65-4.47a13.73,13.73,0,0,0,1.45.07h3.33a14.46,14.46,0,0,0,1.47-.07v1.34a12.18,12.18,0,0,0-1.46-.07H124a9.45,9.45,0,0,0-1.46.07Z"/><path class="cls-4" d="M132.13,78.69a11.33,11.33,0,0,0-1.46.07V77.43a10.27,10.27,0,0,0,1.45.08h3.27v-.08a6.5,6.5,0,0,0,0-.66h.52a6.42,6.42,0,0,0,1.41-1H134c-.49,0-.81,0-1.2,0v-1.2a8.47,8.47,0,0,0,1.21.06h4a6.39,6.39,0,0,0,.91,0l.66.73-.43.36a16.91,16.91,0,0,1-2.4,1.75h3.13a10,10,0,0,0,1.48-.08v1.33a11.54,11.54,0,0,0-1.49-.07H136.7v2.09a1.18,1.18,0,0,1-.15.76c-.21.3-.61.4-1.69.4l-1.18,0a4.55,4.55,0,0,0-.39-1.27,11.45,11.45,0,0,0,1.48.12c.53,0,.62,0,.62-.28V78.69Zm.62-5.93a6.73,6.73,0,0,0-.9-1.35l1.21-.36a8.73,8.73,0,0,1,1.09,1.71h1.27a6.77,6.77,0,0,0-.73-1.51l1.25-.35a9.39,9.39,0,0,1,.82,1.86h1a8.08,8.08,0,0,0,1-1.8l1.29.36a10.91,10.91,0,0,1-.9,1.44h.54a13.23,13.23,0,0,0,1.48-.05,6.88,6.88,0,0,0-.05,1v1.11a6.67,6.67,0,0,0,.06.92h-1.31V73.88h-7.82v1.86h-1.3a6.31,6.31,0,0,0,.06-.93v-1.1a9.23,9.23,0,0,0,0-1,11,11,0,0,0,1.41.05Z"/><path class="cls-4" d="M143.67,72.54a7.83,7.83,0,0,0-1,.06V71.31a7.58,7.58,0,0,0,1.16.07h2.1a6.37,6.37,0,0,0,1.15-.07v1.28a10.14,10.14,0,0,0-1,0h-.61a9.76,9.76,0,0,1-.76,2.59h1.45a6.83,6.83,0,0,0,.72,0,5.71,5.71,0,0,0,0,.87V80.1c0,.49,0,.65,0,.94h-1.19v-.56h-1v1.2h-1.29a8.45,8.45,0,0,0,.07-1.22V78.27c0-.47,0-.52,0-1.17a4.76,4.76,0,0,1-.75,1.12,4.51,4.51,0,0,0-.47-1.49,6.35,6.35,0,0,0,1.52-2.57,6.61,6.61,0,0,0,.41-1.62Zm.93,6.89h1.05V76.29H144.6Zm3.8-6.92a6,6,0,0,0-1,.06V71.26a8,8,0,0,0,1.32.07h3.47a9.27,9.27,0,0,0,1.28-.07v1.31a7.19,7.19,0,0,0-1.18-.06v2.84h.1a7.32,7.32,0,0,0,1.2-.06v1.34a9,9,0,0,0-1.2-.06h-.1v3.91A12,12,0,0,0,152.4,82H151A13.8,13.8,0,0,0,151,80.5V76.57h-1.39a11.71,11.71,0,0,1-.29,2.4,6.91,6.91,0,0,1-1.47,3.11,3.15,3.15,0,0,0-1.13-.85,5.93,5.93,0,0,0,1.39-2.76,9.84,9.84,0,0,0,.23-1.9,9.26,9.26,0,0,0-1.18.06V75.29a7.46,7.46,0,0,0,1.2.06ZM151,75.35V72.51h-1.36v2.84Z"/><path class="cls-4" d="M161.42,76.83c.63,0,.89,0,1.26,0,0,.31,0,.51,0,1.08l0,2.36c0,.31.1.38.53.38.88,0,1,0,1.1-.27a9.28,9.28,0,0,0,.16-1.87,5,5,0,0,0,1.26.41c-.2,2.84-.27,2.92-2.51,2.92-1.46,0-1.82-.23-1.82-1.1V80.6l0-2.59h-1.77a4.65,4.65,0,0,1-1.38,2.4A8,8,0,0,1,155.32,82a4.2,4.2,0,0,0-.79-1.18,7.36,7.36,0,0,0,2.76-1.34,3.27,3.27,0,0,0,1-1.51H156.6a10.93,10.93,0,0,0-1.34.06V76.75a8.9,8.9,0,0,0,1.32.08h1.92c0-.32.05-.52.05-.74a5.19,5.19,0,0,0-.05-.68h1.42a6.24,6.24,0,0,0-.1,1c0,.18,0,.27,0,.45Zm-2.18-5.07a3.49,3.49,0,0,0-.07-.77h1.46a3.38,3.38,0,0,0-.06.77V72h3.37a10.85,10.85,0,0,0,1.32-.06,7,7,0,0,0,0,.89v.85a7.53,7.53,0,0,0,0,.89h-.78c-.09.67-.24.94-.59,1.1a5.92,5.92,0,0,1-2,.17c-1.25,0-1.6-.19-1.6-.89V73.2h-1a3.51,3.51,0,0,1-.64,1.55c-.55.77-1.21,1.12-3,1.57a6.41,6.41,0,0,0-.72-1.1,4.53,4.53,0,0,0,2.39-.83A1.91,1.91,0,0,0,158,73.2h-2v1.4h-1.31a5.8,5.8,0,0,0,.06-.9v-.83a5.71,5.71,0,0,0,0-.89,10.75,10.75,0,0,0,1.32.06h3.18ZM164,73.2h-2.39v1.28c0,.26.09.3.75.3s.83-.06.91-.22a2.47,2.47,0,0,0,.09-.68,4.19,4.19,0,0,0,.64.19Z"/><path class="cls-4" d="M171.61,76.72a8,8,0,0,0,0,1l-1.18,0h-2a8.33,8.33,0,0,1-1.07,4.27,3.74,3.74,0,0,0-1.06-.94c.74-1.27.94-2.5.94-5.74a14.24,14.24,0,0,0-.06-1.66c.4,0,.7,0,1.27,0h1.95c.55,0,.84,0,1.21,0a10,10,0,0,0,0,1.08Zm-4.84-5.33a8.69,8.69,0,0,0,1.29.06h2.59a8,8,0,0,0,1.31-.06v1.35a7.72,7.72,0,0,0-1.25-.06H168a8.05,8.05,0,0,0-1.22.06Zm3.61,5.12V74.74h-1.87v.86c0,.46,0,.57,0,.91Zm3.28-.68a11.39,11.39,0,0,1-.52,3.28,6.87,6.87,0,0,1-1,1.94,10.08,10.08,0,0,1-.77.9,3.77,3.77,0,0,0-1-1A5.49,5.49,0,0,0,172,78.3a16.69,16.69,0,0,0,.39-4.44c0-1.12,0-1.49,0-1.89a11.2,11.2,0,0,0,4.47-1l.69,1.22c-.22,0-.29.08-.56.16a18.59,18.59,0,0,1-3.27.73v1.5h2.72a6.16,6.16,0,0,0,1.17-.07v1.39a6.52,6.52,0,0,0-1.06-.06h-.18v4.75a7.63,7.63,0,0,0,.07,1.3H175a9.36,9.36,0,0,0,.07-1.31V75.83Z"/><path class="cls-4" d="M569.81,179.32a4.21,4.21,0,0,0-.16.92,21.3,21.3,0,0,1-.95,4.1,11.43,11.43,0,0,1-2.12,3.71,5.23,5.23,0,0,0-1.37-1,8.15,8.15,0,0,0,1.72-2.56,14.65,14.65,0,0,0,1.12-4.11,7.64,7.64,0,0,0,.11-1.17V179Zm3.4-.3a16.54,16.54,0,0,0,.5,2.76,11.64,11.64,0,0,0,2.68,5.18,4.9,4.9,0,0,0-1.32,1.1,12.73,12.73,0,0,1-2-3.53,19.34,19.34,0,0,1-1.14-4.36,5.65,5.65,0,0,0-.17-.87Zm1.26.13a6.26,6.26,0,0,1,.9,1.69l-.9.42a7.59,7.59,0,0,0-.89-1.72Zm1.32,1.51a8.59,8.59,0,0,0-.86-1.66l.84-.38a6.69,6.69,0,0,1,.88,1.61Z"/><path class="cls-4" d="M587.14,179.22a5.86,5.86,0,0,0-.44.42,20.61,20.61,0,0,1-2.83,2.47v5.12a8.74,8.74,0,0,0,.06,1.33h-1.68a6.66,6.66,0,0,0,.07-1.29v-4.22A19.19,19.19,0,0,1,578,185a4.52,4.52,0,0,0-.8-1.37,17.51,17.51,0,0,0,6.29-3.12,9.4,9.4,0,0,0,2.23-2.24Z"/><path class="cls-4" d="M595.26,183.51c0-.06,0-.67,0-.86a7.09,7.09,0,0,1-1.22,1.68,16.94,16.94,0,0,1-2.36,2.09,20.35,20.35,0,0,1-1.78,1.1,3.63,3.63,0,0,0-1-1.25,12.93,12.93,0,0,0,3.77-2.6,11.56,11.56,0,0,0,1.61-2H591a11.52,11.52,0,0,0-1.47.06v-1.46a7.33,7.33,0,0,0,1.51.08h4.15v-1a7.82,7.82,0,0,0-.06-1.1h1.58a8.82,8.82,0,0,0-.05,1v.07l0,1h1.21a7,7,0,0,0,1.41-.08v1.45a11.24,11.24,0,0,0-1.38-.05h-1.23l.06,5.57c0,.58,0,1,.07,1.38h-1.63a7.49,7.49,0,0,0,.07-1.16v-.21l0-3.59Z"/><path class="cls-4" d="M607.66,180.61l0-.54v-.38a8.54,8.54,0,0,0-.06-1.33h1.54a5.18,5.18,0,0,0,0,.8c0,.73,0,.73,0,1.45h.77a8.82,8.82,0,0,0,1.56-.08V182a11.83,11.83,0,0,0-1.54-.06h-.8a14.22,14.22,0,0,1-.08,2,4.82,4.82,0,0,1-1.73,3.44,6.66,6.66,0,0,1-2.34,1.26,3.6,3.6,0,0,0-.9-1.27,5.48,5.48,0,0,0,2.29-1.14,3.71,3.71,0,0,0,1.27-2.88c0-.27,0-.56,0-1.39h-3.1v1.8a8.91,8.91,0,0,0,0,1H603a7.25,7.25,0,0,0,.05-1v-1.78h-.73a11.74,11.74,0,0,0-1.53.06v-1.46a8.63,8.63,0,0,0,1.55.08h.71v-1.2a6.1,6.1,0,0,0-.06-1.06h1.57a7.05,7.05,0,0,0,0,1v1.23Z"/><path class="cls-4" d="M622.42,179.22a5.86,5.86,0,0,0-.44.42,20.61,20.61,0,0,1-2.83,2.47v5.12a8.74,8.74,0,0,0,.06,1.33h-1.68a6.66,6.66,0,0,0,.07-1.29v-4.22a19.19,19.19,0,0,1-4.28,1.94,4.52,4.52,0,0,0-.8-1.37,17.43,17.43,0,0,0,6.29-3.12,9.21,9.21,0,0,0,2.23-2.24Z"/><path class="cls-4" d="M630.31,185.9h2.9a8.89,8.89,0,0,0,1.56-.08v1.51a11.92,11.92,0,0,0-1.54-.06H626a12.11,12.11,0,0,0-1.54.06v-1.51a8.89,8.89,0,0,0,1.56.08h2.71V181h-1.83a12,12,0,0,0-1.54.06v-1.5a8.81,8.81,0,0,0,1.56.09h5.34a8.81,8.81,0,0,0,1.56-.09V181a11.83,11.83,0,0,0-1.54-.06h-2Z"/><path class="cls-4" d="M636.84,186.56a11.43,11.43,0,0,0,3.55-.89,8,8,0,0,0,3.56-2.93,9.66,9.66,0,0,0,1.22-2.4,5.12,5.12,0,0,0,1.28,1.17,10.46,10.46,0,0,1-3.81,4.7,12.73,12.73,0,0,1-4.57,1.8,4.21,4.21,0,0,0-.79.21Zm1-7.45a16.64,16.64,0,0,1,3.09,2.32l-1,1.31a12.45,12.45,0,0,0-3.06-2.44Z"/><path class="cls-4" d="M657.2,188.4a23.5,23.5,0,0,0-3.68-3.57A14.4,14.4,0,0,1,649,188.3a4.89,4.89,0,0,0-1-1.33,9.79,9.79,0,0,0,2.39-1.32,11.49,11.49,0,0,0,4-4.88l.14-.31-4,.07a9.27,9.27,0,0,0-1.31.09l0-1.53a5.29,5.29,0,0,0,1.06.07h.28l4.23-.06a2.5,2.5,0,0,0,1.06-.13l.79.81a2.42,2.42,0,0,0-.38.65,15.62,15.62,0,0,1-1.87,3.31,19.46,19.46,0,0,1,2.22,1.74c.3.27.3.27,1.75,1.67Z"/><path class="cls-4" d="M560,196.12a6.44,6.44,0,0,1-.84,3.22,5.68,5.68,0,0,1-3.13,2.37,3.77,3.77,0,0,0-1-1.33,4.53,4.53,0,0,0,2.84-2,5.13,5.13,0,0,0,.53-2.27h-2.92a11.48,11.48,0,0,0-1.52.06v-1.43a8.76,8.76,0,0,0,1.55.08h7a8.76,8.76,0,0,0,1.55-.08v1.43a11.48,11.48,0,0,0-1.52-.06Zm2.75-4a6.44,6.44,0,0,1,.84,1.68l-.93.39a6.38,6.38,0,0,0-.79-1.65v.64a10.85,10.85,0,0,0-1.52-.06h-3.63a11.11,11.11,0,0,0-1.53.06v-1.46a8.5,8.5,0,0,0,1.55.08h3.59a8.31,8.31,0,0,0,1.54-.08v.74Zm1.26,1.53a8.22,8.22,0,0,0-.83-1.65l.89-.34a6.36,6.36,0,0,1,.84,1.6Z"/><path class="cls-4" d="M565.69,195.57a12.2,12.2,0,0,0,1.94.08H574a12.2,12.2,0,0,0,1.94-.08v1.66a13.19,13.19,0,0,0-2-.06h-6.36a13.19,13.19,0,0,0-2,.06Z"/><path class="cls-4" d="M587.13,193.19a2.09,2.09,0,0,0-.37.81,20.6,20.6,0,0,1-1.54,3.29,11.66,11.66,0,0,1-5.47,4.59,3.78,3.78,0,0,0-1-1.24,12.09,12.09,0,0,0,2.34-1.2,8.47,8.47,0,0,0,2-1.67,13.05,13.05,0,0,0-2.45-1.71l.91-1.07a15.1,15.1,0,0,1,2.41,1.61,11.41,11.41,0,0,0,1.34-2.83l-3.73,0a12.29,12.29,0,0,1-2.8,3.23,4,4,0,0,0-1.2-1,10.3,10.3,0,0,0,3-3.42,7.66,7.66,0,0,0,.69-1.66l1.56.34c-.13.22-.13.22-.36.67a4.85,4.85,0,0,1-.29.58c.19,0,.19,0,3.12-.05a3.09,3.09,0,0,0,1.06-.14Z"/><path class="cls-4" d="M588.82,197.2a2.52,2.52,0,0,0,.43-.35c.35-.35,1.52-1.74,2.14-2.55a3.67,3.67,0,0,1,.9-.94,1.45,1.45,0,0,1,.82-.24c.59,0,.88.19,1.79,1.22a41.27,41.27,0,0,0,3.88,3.83,8.93,8.93,0,0,0,1.14.9l-.75,1.64a60.67,60.67,0,0,1-5.08-5.06c-.77-.84-.77-.84-1-.84s-.24,0-.73.7-1.31,1.66-2.15,2.67l-.41.49ZM597,193a6.21,6.21,0,0,1,1.17,1.63l-.9.51a7.35,7.35,0,0,0-1.17-1.66Zm1.56,1.38a7.5,7.5,0,0,0-1.13-1.59l.87-.47a6.22,6.22,0,0,1,1.14,1.56Z"/><path class="cls-4" d="M601,195.57a12.2,12.2,0,0,0,1.94.08h6.4a12.2,12.2,0,0,0,1.94-.08v1.66a13.19,13.19,0,0,0-2-.06h-6.36a13.19,13.19,0,0,0-2,.06Z"/><path class="cls-4" d="M621.92,201.4a23.5,23.5,0,0,0-3.68-3.57,14.4,14.4,0,0,1-4.57,3.47,4.89,4.89,0,0,0-1-1.33,9.61,9.61,0,0,0,2.39-1.32,11.49,11.49,0,0,0,4-4.88l.14-.31-4,.07a9.27,9.27,0,0,0-1.31.09l-.05-1.53a5.29,5.29,0,0,0,1.06.07h.28l4.23-.06a2.5,2.5,0,0,0,1.06-.13l.79.81a2.42,2.42,0,0,0-.38.65,15.62,15.62,0,0,1-1.87,3.31,19.46,19.46,0,0,1,2.22,1.74c.3.27.3.27,1.75,1.67Z"/><path class="cls-4" d="M634.71,194.15a3.45,3.45,0,0,0-.34.59,8.69,8.69,0,0,1-2.93,3.5,4,4,0,0,0-1.2-1,6.28,6.28,0,0,0,2-1.69c.16-.24.23-.35.45-.71a3.79,3.79,0,0,1-.45.07c-1.22.15-2.45.3-3.7.48v2.7a4.65,4.65,0,0,0,.05,1c.08.47.47.6,1.69.6a13.63,13.63,0,0,0,3.68-.46l.07,1.61-.73,0a25.44,25.44,0,0,1-3,.21,8.38,8.38,0,0,1-2.14-.21,1.56,1.56,0,0,1-1-1.1,4.52,4.52,0,0,1-.12-1.51v-2.75l-1.12.15a6.44,6.44,0,0,0-1.34.22l-.15-1.48h.29a9.11,9.11,0,0,0,1-.09l1.27-.15V192.6a6,6,0,0,0-.07-1.14h1.66a5.78,5.78,0,0,0-.08,1.12v1.51l4.37-.53a2.21,2.21,0,0,0,.92-.2Z"/><path class="cls-4" d="M636.84,199.56a11.43,11.43,0,0,0,3.55-.89,8,8,0,0,0,3.56-2.93,9.66,9.66,0,0,0,1.22-2.4,5.12,5.12,0,0,0,1.28,1.17,10.46,10.46,0,0,1-3.81,4.7,12.73,12.73,0,0,1-4.57,1.8,4.21,4.21,0,0,0-.79.21Zm1-7.45a16.64,16.64,0,0,1,3.09,2.32l-1,1.31a12.45,12.45,0,0,0-3.06-2.44Z"/><path class="cls-4" d="M657.69,193.19a2.09,2.09,0,0,0-.37.81,19.77,19.77,0,0,1-1.54,3.29,11.66,11.66,0,0,1-5.47,4.59,3.66,3.66,0,0,0-1-1.24,12.09,12.09,0,0,0,2.34-1.2,8.47,8.47,0,0,0,2-1.67,13.38,13.38,0,0,0-2.45-1.71l.91-1.07a15.57,15.57,0,0,1,2.41,1.61,11.41,11.41,0,0,0,1.34-2.83l-3.73,0a12.15,12.15,0,0,1-2.81,3.23,3.79,3.79,0,0,0-1.19-1,10.41,10.41,0,0,0,3-3.42,7.66,7.66,0,0,0,.69-1.66l1.56.34c-.13.22-.13.22-.36.67a4.85,4.85,0,0,1-.29.58c.2,0,.2,0,3.12-.05a3.12,3.12,0,0,0,1.06-.14Z"/><path class="cls-4" d="M659.77,195.57a12.2,12.2,0,0,0,1.94.08h6.4a12.2,12.2,0,0,0,1.94-.08v1.66a13.19,13.19,0,0,0-2-.06h-6.36a13.19,13.19,0,0,0-2,.06Z"/><path class="cls-4" d="M319.93,76.12a6.44,6.44,0,0,1-.84,3.22A5.68,5.68,0,0,1,316,81.71a3.77,3.77,0,0,0-1-1.33,4.53,4.53,0,0,0,2.84-2,5.13,5.13,0,0,0,.53-2.27h-2.92a11.48,11.48,0,0,0-1.52.06V74.75a8.76,8.76,0,0,0,1.55.08h7a8.76,8.76,0,0,0,1.55-.08v1.43a11.48,11.48,0,0,0-1.52-.06Zm2.75-4a6.44,6.44,0,0,1,.84,1.68l-.93.39a6.38,6.38,0,0,0-.79-1.65v.64a10.85,10.85,0,0,0-1.52-.06h-3.63a11.11,11.11,0,0,0-1.53.06V71.72a8.5,8.5,0,0,0,1.55.08h3.59a8.31,8.31,0,0,0,1.54-.08v.74Zm1.26,1.53a8.22,8.22,0,0,0-.83-1.65l.89-.34a6.36,6.36,0,0,1,.84,1.6Z"/><path class="cls-4" d="M325.85,75.57a12.2,12.2,0,0,0,1.94.08h6.4a12.2,12.2,0,0,0,1.94-.08v1.66a13.19,13.19,0,0,0-2-.06h-6.36a13.19,13.19,0,0,0-2,.06Z"/><path class="cls-4" d="M347.53,73.19a2.09,2.09,0,0,0-.37.81,19.77,19.77,0,0,1-1.54,3.29,11.66,11.66,0,0,1-5.47,4.59,3.66,3.66,0,0,0-1-1.24,12.09,12.09,0,0,0,2.34-1.2,8.47,8.47,0,0,0,2-1.67A13.38,13.38,0,0,0,341,76.06l.91-1.07a15.57,15.57,0,0,1,2.41,1.61,11.41,11.41,0,0,0,1.34-2.83l-3.73,0A12.15,12.15,0,0,1,339.13,77a3.79,3.79,0,0,0-1.19-1,10.41,10.41,0,0,0,3-3.42,7.66,7.66,0,0,0,.69-1.66l1.56.34c-.13.22-.13.22-.36.67a4.85,4.85,0,0,1-.29.58c.19,0,.19,0,3.12,0a3.12,3.12,0,0,0,1.06-.14Z"/><path class="cls-4" d="M356.54,73.61l0-.54v-.38a8.54,8.54,0,0,0-.06-1.33H358a4.88,4.88,0,0,0-.05.8c0,.73,0,.73,0,1.45h.77a8.82,8.82,0,0,0,1.56-.08V75a11.83,11.83,0,0,0-1.54-.06H358a14.22,14.22,0,0,1-.08,2,4.82,4.82,0,0,1-1.73,3.44,6.66,6.66,0,0,1-2.34,1.26,3.6,3.6,0,0,0-.9-1.27,5.48,5.48,0,0,0,2.29-1.14,3.71,3.71,0,0,0,1.27-2.88c0-.27,0-.56,0-1.39h-3.1v1.8a8.91,8.91,0,0,0,0,1h-1.56a7.25,7.25,0,0,0,0-1V74.93h-.73a11.74,11.74,0,0,0-1.53.06V73.53a8.63,8.63,0,0,0,1.55.08H352v-1.2a6.1,6.1,0,0,0-.06-1.06h1.57a7.05,7.05,0,0,0,0,1v1.23Z"/><path class="cls-4" d="M371.54,72.22a5.86,5.86,0,0,0-.44.42,20.61,20.61,0,0,1-2.83,2.47v5.12a8.74,8.74,0,0,0,.06,1.33h-1.68a6.66,6.66,0,0,0,.07-1.29V76.05A19.19,19.19,0,0,1,362.44,78a4.52,4.52,0,0,0-.8-1.37,17.43,17.43,0,0,0,6.29-3.12,9.21,9.21,0,0,0,2.23-2.24Z"/><path class="cls-4" d="M379.67,78.9h2.9a8.89,8.89,0,0,0,1.56-.08v1.51a11.92,11.92,0,0,0-1.54-.06H375.4a12.11,12.11,0,0,0-1.54.06V78.82a8.89,8.89,0,0,0,1.56.08h2.71V74H376.3a12.11,12.11,0,0,0-1.54.06v-1.5a8.81,8.81,0,0,0,1.56.09h5.34a8.81,8.81,0,0,0,1.56-.09V74a11.83,11.83,0,0,0-1.54-.06h-2Z"/><path class="cls-4" d="M386.44,79.56a11.43,11.43,0,0,0,3.55-.89,8,8,0,0,0,3.56-2.93,10,10,0,0,0,1.22-2.4,5.12,5.12,0,0,0,1.28,1.17,10.46,10.46,0,0,1-3.81,4.7,12.73,12.73,0,0,1-4.57,1.8,4.44,4.44,0,0,0-.79.21Zm1-7.45a16.64,16.64,0,0,1,3.09,2.32l-1,1.31a12.45,12.45,0,0,0-3.06-2.44Z"/><path class="cls-4" d="M407,81.4a23.5,23.5,0,0,0-3.68-3.57,14.4,14.4,0,0,1-4.57,3.47,4.89,4.89,0,0,0-1-1.33,9.61,9.61,0,0,0,2.39-1.32,11.49,11.49,0,0,0,4-4.88l.14-.31-4,.07a9.27,9.27,0,0,0-1.31.09l-.05-1.53a5.35,5.35,0,0,0,1.06.07h.28l4.23-.06a2.5,2.5,0,0,0,1.06-.13l.79.81a2.42,2.42,0,0,0-.38.65,15.62,15.62,0,0,1-1.87,3.31,19.46,19.46,0,0,1,2.22,1.74c.3.27.3.27,1.75,1.67Z"/><path class="cls-4" d="M316.3,85.34a9.37,9.37,0,0,0-.07-1.25h1.47a7.54,7.54,0,0,0-.07,1.24v.8h2.7v-.78a6.43,6.43,0,0,0-.07-1.24h1.47a8.33,8.33,0,0,0-.07,1.26v.76h1a10.26,10.26,0,0,0,1.36-.07v1.43a12.15,12.15,0,0,0-1.36-.06h-1V90h1.22a10.44,10.44,0,0,0,1.56-.09v1.47a10.76,10.76,0,0,0-1.55-.09h-7.77a10.55,10.55,0,0,0-1.53.09V89.86a10.36,10.36,0,0,0,1.53.09h1.18V87.43h-.89a11.36,11.36,0,0,0-1.32.06V86.06a10.11,10.11,0,0,0,1.32.07h.89Zm1.8,6.85a8.69,8.69,0,0,1-1.84,1.75,9.37,9.37,0,0,1-1.75,1,5.63,5.63,0,0,0-.91-1.12,8.1,8.1,0,0,0,2-1A5.21,5.21,0,0,0,317,91.48ZM320.33,90V87.43h-2.7V90Zm.65,1.52a6.38,6.38,0,0,0,1.65,1.45,10.28,10.28,0,0,0,1.85.91,5,5,0,0,0-.89,1.18,10,10,0,0,1-2.11-1.29,9.49,9.49,0,0,1-1.61-1.5Z"/><path class="cls-4" d="M326,85.53c0-.51,0-.85-.05-1.21.24,0,.81.05,1.35.05h7.47c.56,0,1.05,0,1.3-.05a11.78,11.78,0,0,0-.05,1.31v8c0,1-.38,1.22-2,1.22-.35,0-.9,0-1.34,0a4.25,4.25,0,0,0-.33-1.27,16.16,16.16,0,0,0,1.68.1c.5,0,.61,0,.61-.26V85.57h-7.34v8a8.19,8.19,0,0,0,.07,1.39h-1.49a11.92,11.92,0,0,0,.08-1.43Zm1.89.9a5.14,5.14,0,0,0,1.07.06h4.14a5.2,5.2,0,0,0,1.06-.06V87.7a9.4,9.4,0,0,0-1,0H329a9.69,9.69,0,0,0-1.06,0Zm5.6,5.47a6,6,0,0,0,0,.76,7.72,7.72,0,0,0-.79,0h-2.92v.91h-1.31a8.25,8.25,0,0,0,.05-1.07v-3.1c0-.32,0-.55,0-.78l.82,0h3.28c.48,0,.66,0,.9,0a5.57,5.57,0,0,0,0,.78Zm-3.68-.43h2.43V89.75h-2.43Z"/><path class="cls-4" d="M339.93,85.94c-.78.16-1,.19-1.75.3a4.78,4.78,0,0,0-.45-1.15,13.14,13.14,0,0,0,4.62-1.15l.78,1.1c-.86.3-1.42.47-1.94.61V87.2h1a5.56,5.56,0,0,0,1-.06v1.31a6,6,0,0,0-1-.06h-.87a7.1,7.1,0,0,0,1.91,2.24,5.53,5.53,0,0,0-.63,1.18,6.65,6.65,0,0,1-1.4-1.92c0,.4.06.9.06,1.51v2.08a10.09,10.09,0,0,0,.07,1.53h-1.43a10.67,10.67,0,0,0,.08-1.53v-2c0-.48,0-1,.06-1.44a8.39,8.39,0,0,1-.81,1.69,8.49,8.49,0,0,1-1,1.32,6,6,0,0,0-.68-1.26,7.19,7.19,0,0,0,1.31-1.6,16.71,16.71,0,0,0,.94-1.8h-.87a7,7,0,0,0-1.1.07V87.13a5.65,5.65,0,0,0,1.13.07h1.08Zm5.27-1.13a9.23,9.23,0,0,0-.07,1.45V90.8a9.48,9.48,0,0,0,.06,1.42h-1.41a10.32,10.32,0,0,0,.06-1.4V86.26a9.24,9.24,0,0,0-.08-1.45Zm2.86-.72a12.43,12.43,0,0,0-.09,1.63v7.72c0,.63-.15,1-.54,1.18a3.52,3.52,0,0,1-1.66.21c-.3,0-.48,0-.89,0a5.38,5.38,0,0,0-.41-1.33,15.7,15.7,0,0,0,1.59.11c.52,0,.61,0,.61-.36v-7.5c0-.6,0-1.1-.08-1.63Z"/><path class="cls-4" d="M351.72,91.22A8.05,8.05,0,0,1,350.5,95a7.35,7.35,0,0,0-1.16-1,5.51,5.51,0,0,0,.87-2,12.48,12.48,0,0,0,.24-1.83c.06-1,.11-2.71.11-4.13a15.83,15.83,0,0,0-.06-1.74,13,13,0,0,0,1.38,0h6.73a12.29,12.29,0,0,0,1.38,0,12.44,12.44,0,0,0-.05,1.36v7.88c0,1-.36,1.25-1.73,1.25-.37,0-1,0-1.34,0a4.88,4.88,0,0,0-.34-1.25c.6.06,1.13.1,1.51.1s.6-.05.6-.3v-2.1h-2.88v2a12.09,12.09,0,0,0,.06,1.43h-1.41a9.64,9.64,0,0,0,.07-1.41v-2Zm2.76-2.83h-2.65c0,.35,0,.58,0,.75,0,.57,0,.65,0,.89h2.67Zm0-2.75h-2.61v1.24l0,.33h2.63Zm4.16,1.57V85.64h-2.88v1.57Zm0,2.82V88.39h-2.88V90Z"/><path class="cls-4" d="M363.84,84.87a3.93,3.93,0,0,0-.06-.88h1.38a6.37,6.37,0,0,0-.06.88h3.77a5.39,5.39,0,0,0-.06-.88h1.38a5,5,0,0,0-.06.88h.79a9.36,9.36,0,0,0,1.31-.07V86a10.78,10.78,0,0,0-1.31-.06h-.79v3.37h1a10.8,10.8,0,0,0,1.33-.07v1.21a9.49,9.49,0,0,0-1.3-.07H369.9a6.68,6.68,0,0,0,2.85,1.32,5.76,5.76,0,0,0-.58,1.26A10.06,10.06,0,0,1,370,91.89v.8a10.38,10.38,0,0,0-1.09,0h-1.39v.84h2.92a9.77,9.77,0,0,0,1.33-.07v1.3a11,11,0,0,0-1.42-.07h-6.68a11.72,11.72,0,0,0-1.44.07V93.42a11.74,11.74,0,0,0,1.37.06h2.67v-.84h-1.2a10.38,10.38,0,0,0-1.09,0v-.81A8.89,8.89,0,0,1,361.85,93a4.07,4.07,0,0,0-.59-1.24,6,6,0,0,0,2.79-1.36h-1.18a9.62,9.62,0,0,0-1.29.07V89.25a9.23,9.23,0,0,0,1.29.07h1V86h-.66c-.5,0-.9,0-1.32.06V84.8a9.81,9.81,0,0,0,1.32.07Zm1.75,5.52a6.14,6.14,0,0,1-1.14,1.14h1.84a3.74,3.74,0,0,0-.06-.84h1.37a4,4,0,0,0-.06.84h2a6,6,0,0,1-1.2-1.14Zm3.28-4V86H365.1v.49Zm0,1.43v-.48H365.1v.48Zm0,1.45v-.5H365.1v.5Z"/><path class="cls-4" d="M384.09,87.78l-.1.13a1.12,1.12,0,0,0-.12.17,7.59,7.59,0,0,1-1.47,1.39,8.37,8.37,0,0,0,2.15.54A3.7,3.7,0,0,0,384,91.1a8.65,8.65,0,0,1-2.6-1,9.25,9.25,0,0,1-2.19.79,3.53,3.53,0,0,0-.67-.88.77.77,0,0,1-.26.6,1.65,1.65,0,0,1-1.06.21h-.69a3.09,3.09,0,0,0-.23-.94,8.6,8.6,0,0,0,.86.08c.12,0,.22,0,.25-.09s0,0,0-.19V88.08l-.55.07V89c0,.3,0,.54,0,.74h-1A5.06,5.06,0,0,0,376,89v-.71l-.57.05a5.62,5.62,0,0,1-1,2.94,3.81,3.81,0,0,0-.93-.82,3.49,3.49,0,0,0,.84-2l-.72.07-.12-1.15a5.83,5.83,0,0,0,.59,0h.36c0-.54,0-.81,0-1.61a9.35,9.35,0,0,0-.06-1.12,12.39,12.39,0,0,0,1.24.05h.13a3.11,3.11,0,0,0,.31-.88l1.27.18c-.25.5-.25.5-.36.7h.44c.45,0,1,0,1.16-.05,0,.2,0,.69,0,1.07V87l.44-.06v1l-.44.06v2a8.77,8.77,0,0,0,1.88-.52,6.71,6.71,0,0,1-.9-.85l1-.39h-.3c-.42,0-.66,0-1,0v-1l.35,0a2.24,2.24,0,0,0-.77-.79,1.78,1.78,0,0,0,.71-.53,2.12,2.12,0,0,0,.27-1.2,4,4,0,0,0,0-.49,5.91,5.91,0,0,0,.79,0H382a5.76,5.76,0,0,0,.81,0,4.45,4.45,0,0,0,0,.65v.91c0,.16,0,.18.26.18s.41,0,.44-.18a4.72,4.72,0,0,0,0-.78,2.58,2.58,0,0,0,1,.31c0,.82-.09,1.09-.27,1.3s-.56.3-1.24.3c-1.07,0-1.27-.11-1.27-.65v-1h-1a2.06,2.06,0,0,1-.6,1.53,1.84,1.84,0,0,1-.55.41h3a4.76,4.76,0,0,0,.81,0ZM374.78,92a9.45,9.45,0,0,0,0-1c.43,0,.81,0,1.17,0h6.23c.38,0,.68,0,1.15,0a5.92,5.92,0,0,0,0,.9v1.62h.38a5.81,5.81,0,0,0,.92,0V94.7c-.44,0-.92-.06-1.38-.06h-8.23c-.49,0-1,0-1.42.06V93.48a5.73,5.73,0,0,0,.88,0h.4Zm.75-6.39c0,.85,0,1.15,0,1.7,1-.07,1.5-.1,2-.16V85.58Zm1,1.51a3.94,3.94,0,0,0-.79-1l.69-.44a4.46,4.46,0,0,1,.81,1Zm-.5,6.44h1.24V92.15H376Zm2.33,0h1.26V92.15h-1.26Zm2.19-5.33a4,4,0,0,0,.85.74,3.49,3.49,0,0,0,.9-.74Zm.16,5.33H382V92.15h-1.29Z"/><path class="cls-4" d="M391.73,90V93.1c0,.24,0,.35.17.4a3.43,3.43,0,0,0,1.06.09c1.68,0,2,0,2.14-.17s.21-.43.24-1.3a4.85,4.85,0,0,0,1.2.37c-.1,1.11-.27,1.64-.63,1.93s-.78.35-2.71.35c-2.13,0-2.62-.22-2.62-1.15V90.28a2.56,2.56,0,0,0-.4.16l-.3-1.23.13,0a4.76,4.76,0,0,0,.57-.13v-.59c0-.18,0-.29,0-.47l-.3.39a3.75,3.75,0,0,0-.92-.94,6.17,6.17,0,0,0,.54-.63,6.55,6.55,0,0,0-.84,0h-1.28c0,1.12,0,1.12,0,1.3h1.12a5.67,5.67,0,0,0,.91,0c0,.09,0,.54,0,.61v.54c0,.76-.05,2.32-.09,3a4.36,4.36,0,0,1-.5,2.26,1.34,1.34,0,0,1-1.06.31h-.44a1.42,1.42,0,0,0-.32,0,3.68,3.68,0,0,0-.24-1.27.79.79,0,0,0,.17,0,3.89,3.89,0,0,0,.66.07c.33,0,.39-.1.5-.77a29.36,29.36,0,0,0,.21-3.57h-.95a18,18,0,0,1-.41,3A7.57,7.57,0,0,1,386.1,95a4.39,4.39,0,0,0-.91-1.09,7.07,7.07,0,0,0,1.17-3.4,24.13,24.13,0,0,0,.21-3.68h-.13a7.45,7.45,0,0,0-1,.06V85.56a5.55,5.55,0,0,0,1.1.07h.68V85a6.35,6.35,0,0,0-.07-1h1.42a6.18,6.18,0,0,0-.06,1v.63H389a6.34,6.34,0,0,0,1.09-.06v.92a8.21,8.21,0,0,0,1.18-2.62l1.35.26a2,2,0,0,0-.2.45l-.31.72h3.06a8.06,8.06,0,0,0,1.23-.07v1.3c-.29,0-.79,0-1.22,0h-3.65c-.23.38-.39.66-.67,1.07h.89a4.63,4.63,0,0,0-.06.93v.27l.95-.25v-.65c0-.43,0-.79-.05-1h1.23a5.37,5.37,0,0,0-.07.94v.41l1.21-.34.42-.13.29-.1a1.45,1.45,0,0,0,.37-.12c-.06,2.92-.12,3.65-.31,4.08s-.42.47-1.09.47l-.47,0a4,4,0,0,0-.27-1.12,2.52,2.52,0,0,0,.57.07c.25,0,.29-.07.34-.58s0-.84,0-1.35l-1.1.31v2.14a6,6,0,0,0,0,1h-1.21a8,8,0,0,0,.05-1V89.68Z"/><path class="cls-4" d="M397.58,85.88a5.08,5.08,0,0,0,1,.06H401a5.82,5.82,0,0,0,1,0v1.24a5,5,0,0,0-.91,0h-2.53a6.52,6.52,0,0,0-1,0ZM408,89.55a4.26,4.26,0,0,0-.24.49,8.76,8.76,0,0,1-1.62,2.53,8.36,8.36,0,0,0,2.68,1.09,6,6,0,0,0-.6,1.29,9.29,9.29,0,0,1-3-1.5A9.87,9.87,0,0,1,402.29,95a4.37,4.37,0,0,0-.61-1,5.3,5.3,0,0,0,.05.86h-1.19v-.41h-1.41V95h-1.22A8.71,8.71,0,0,0,398,93.8V92a5.24,5.24,0,0,0-.06-.94c.3,0,.56,0,.93,0h2.06a5,5,0,0,0,.8,0,6.74,6.74,0,0,0,0,.87v1.8a8.49,8.49,0,0,0,2.55-1.16,6.8,6.8,0,0,1-1.54-2.49c-.24,0-.35,0-.54,0V88.89a3.5,3.5,0,0,0,.76.06h3.54a3.87,3.87,0,0,0,.84,0Zm-10-5.36a5.61,5.61,0,0,0,1,.06h1.72a5.55,5.55,0,0,0,1-.06v1.16a9.43,9.43,0,0,0-1,0H399a9.15,9.15,0,0,0-1,0Zm0,3.51a5.52,5.52,0,0,0,.8,0h2.13a4.9,4.9,0,0,0,.77,0v1.12a5.69,5.69,0,0,0-.77,0h-2.13a5.61,5.61,0,0,0-.8,0Zm0,1.69a5.52,5.52,0,0,0,.8,0h2.13a4.9,4.9,0,0,0,.77,0v1.12a4.54,4.54,0,0,0-.79,0h-2.13c-.37,0-.52,0-.78,0Zm1.15,4h1.41V92.17h-1.41Zm5.05-7.89a4.79,4.79,0,0,1-.49,2.28,3.46,3.46,0,0,1-.89,1.14,5.91,5.91,0,0,0-1-.83c.95-.69,1.25-1.43,1.25-3a4,4,0,0,0-.06-.8,6.9,6.9,0,0,0,.95,0h1.83a7.63,7.63,0,0,0,1,0,7,7,0,0,0-.05,1V87c0,.16.09.21.37.21.48,0,.48,0,.56-1.44a4.87,4.87,0,0,0,1.08.43c-.15,2-.28,2.11-1.8,2.11-1.17,0-1.42-.14-1.42-.78V85.46Zm-.25,4.64a5,5,0,0,0,1.2,1.73,6,6,0,0,0,1.19-1.73Z"/><path class="cls-7" d="M228.44,278.74h6.3c2.36,0,4.28,1.06,4.28,3.34a3.11,3.11,0,0,1-2.55,3.35v0c1.14.31,1.22,1.32,1.88,2.93l1.29,3.61H236l-.76-2.39c-.72-2.28-1.18-2.85-2.49-2.85H232V292h-3.53Zm3.53,5.51h.93c1.14,0,2.58,0,2.58-1.54,0-1.23-1.23-1.46-2.58-1.46H232Z"/><path class="cls-7" d="M247.36,278.51c4.37,0,6.65,2.6,6.65,6.86s-2.32,6.86-6.65,6.86-6.65-2.64-6.65-6.86S243,278.51,247.36,278.51Zm0,11.1c2.14,0,3-2.06,3-4.24s-.86-4.24-3-4.24-3,1.94-3,4.24S245.21,289.61,247.36,289.61Z"/><path class="cls-7" d="M256.16,278.74h3.53V292h-3.53Z"/><path class="cls-7" d="M262.37,288.73a7.67,7.67,0,0,0,3.65.88c1.12,0,2.18-.23,2.18-1.3,0-2.47-6.27-.91-6.27-5.73,0-3.19,3.12-4.07,5.78-4.07a11.07,11.07,0,0,1,3.42.5l-.23,2.73a7.09,7.09,0,0,0-2.95-.61c-.89,0-2.37.08-2.37,1.24,0,2.14,6.27.7,6.27,5.49,0,3.44-2.89,4.37-5.83,4.37a13.82,13.82,0,0,1-3.95-.57Z"/><path class="cls-7" d="M184.3,302.39a10.65,10.65,0,0,0,.4-3.16l.94.21a14.64,14.64,0,0,1-.38,3.35Zm2.84,4.12c0,.62,0,1,.07,1.49h-1.4a11.31,11.31,0,0,0,.08-1.53v-8.3a8.28,8.28,0,0,0-.08-1.28h1.4a8.07,8.07,0,0,0-.07,1.28v1l.71-.28a8,8,0,0,1,.61,1.56l-.32.15c.3,0,.54,0,1,0h1.78v-.48h-1.37a7.29,7.29,0,0,0-1,.05v-1.07a7.1,7.1,0,0,0,1,.05h1.36v-.44h-1.55a6.83,6.83,0,0,0-1.18.06v-1.15a6.43,6.43,0,0,0,1.24.07h1.49a3.39,3.39,0,0,0-.07-.82h1.38a3.39,3.39,0,0,0-.07.82H194a6.55,6.55,0,0,0,1.25-.07v1.15a8.12,8.12,0,0,0-1.23-.06h-1.85v.44h1.69a6.25,6.25,0,0,0,1-.05v1.07a6.85,6.85,0,0,0-1-.05h-1.66v.48h2.09a7.32,7.32,0,0,0,1.19-.06v1.18a8,8,0,0,0-1.19-.08h-5.11a6.35,6.35,0,0,0-1.21.08v-1.06l-.37.17a9,9,0,0,0-.42-1.33Zm2.6.09a9.77,9.77,0,0,0,.08,1.37h-1.38a9.6,9.6,0,0,0,.06-1.37v-3.45a10,10,0,0,0,0-1c.29,0,.54,0,1,0h4.22a8.75,8.75,0,0,0,1.08-.05,11.73,11.73,0,0,0-.05,1.23v3.39c0,.91-.32,1.15-1.53,1.15-.27,0-.49,0-1.08-.05a4.31,4.31,0,0,0-.28-1.15,9,9,0,0,0,1.18.11c.38,0,.45-.05.45-.29v-.41h-3.67Zm3.67-3v-.49h-3.67v.49Zm0,1.47v-.5h-3.67v.5Z"/><path class="cls-7" d="M200.81,300.1a5.91,5.91,0,0,0,1-.06v1.28a4.36,4.36,0,0,0-.67-.05,7.31,7.31,0,0,1-.4,1.33h.15a4.57,4.57,0,0,0,.92-.06v1.27a7.59,7.59,0,0,0-1-.05h-.94v1h.82a6.82,6.82,0,0,0,1-.05v1.26a8.89,8.89,0,0,0-1-.05h-.82v.88c0,.4,0,.84.06,1.22h-1.32a9,9,0,0,0,.08-1.22v-.88h-.87a9,9,0,0,0-1,.05v-1.26a6.82,6.82,0,0,0,1,.05h.87v-1h-1.07a8,8,0,0,0-1.05.05v-1.27a5.58,5.58,0,0,0,1.05.06h.13a7,7,0,0,0-.31-1.33,5.36,5.36,0,0,0-.87.05V300a6.18,6.18,0,0,0,1.05.06h1.08v-.92h-.82a7.16,7.16,0,0,0-1,.05V298a6.41,6.41,0,0,0,1,0h.82v-.22a5.25,5.25,0,0,0-.07-.91h1.29a7.77,7.77,0,0,0,0,.91V298h.71a6.64,6.64,0,0,0,1,0v1.25a7.4,7.4,0,0,0-1-.05h-.71v.92Zm-1.15,2.5a8.82,8.82,0,0,0,.36-1.33h-1.44a9,9,0,0,1,.3,1.33Zm7.6-.85a2.39,2.39,0,0,0-.14.52,13.14,13.14,0,0,1-1,3,5.83,5.83,0,0,0,1.65,1.39,7.15,7.15,0,0,0-.69,1.27,9.34,9.34,0,0,1-1.63-1.56A8.25,8.25,0,0,1,204,307.9a8.41,8.41,0,0,0-.67-1,9.2,9.2,0,0,0,.08,1.12H202a7.71,7.71,0,0,0,.09-1.42v-8c0-.43,0-.9-.06-1.22a7.71,7.71,0,0,0,1.13.06h3a6.71,6.71,0,0,0,1.11-.06c0,.35,0,.49-.06.78-.14,2.21-.31,2.46-1.63,2.46a10.1,10.1,0,0,1-1.08-.06,4.39,4.39,0,0,0-.26-1.13,9.19,9.19,0,0,0,1.23.14c.37,0,.43-.12.48-1h-2.61v2.62h2.25a10,10,0,0,0,1.14,0Zm-3.93,4.94a6,6,0,0,0,1.33-1.39,9.21,9.21,0,0,1-1.14-3h-.19Zm1.28-4.43a6.56,6.56,0,0,0,.72,1.91,8.35,8.35,0,0,0,.59-1.91Z"/><path class="cls-7" d="M215.42,302.44A1.43,1.43,0,1,1,214,301,1.42,1.42,0,0,1,215.42,302.44Z"/><path class="cls-7" d="M222.15,300.38a17.06,17.06,0,0,1,3.19,1.63l-.75,1.36a13.84,13.84,0,0,0-3.25-1.77Zm-.54,5.37a10.91,10.91,0,0,0,3.46-.78,7.26,7.26,0,0,0,3.47-2.64,8.7,8.7,0,0,0,1.39-2.65,5.77,5.77,0,0,0,1.25,1.07,10.63,10.63,0,0,1-1.8,3,10.9,10.9,0,0,1-6.51,3.4c-.44.09-.6.12-.84.19Zm1.46-8.27a19.29,19.29,0,0,1,3.19,1.54l-.77,1.32a14.15,14.15,0,0,0-3.2-1.65Z"/><path class="cls-7" d="M242,307.4a23.5,23.5,0,0,0-3.68-3.57,14.4,14.4,0,0,1-4.57,3.47,4.89,4.89,0,0,0-1-1.33,9.79,9.79,0,0,0,2.39-1.32,11.49,11.49,0,0,0,4-4.88l.14-.31-4,.07a9.27,9.27,0,0,0-1.31.09l0-1.53a5.29,5.29,0,0,0,1.06.07h.28l4.23-.06a2.5,2.5,0,0,0,1.06-.13l.79.81a2.42,2.42,0,0,0-.38.65,15.62,15.62,0,0,1-1.87,3.31,19.46,19.46,0,0,1,2.22,1.74c.3.27.3.27,1.75,1.67Z"/><path class="cls-7" d="M251,302.11a6.54,6.54,0,0,1-.84,3.22A5.71,5.71,0,0,1,247,307.7a3.68,3.68,0,0,0-1-1.32,4.5,4.5,0,0,0,2.85-2,5,5,0,0,0,.52-2.26h-2.92a11.39,11.39,0,0,0-1.52.06v-1.43a8.63,8.63,0,0,0,1.54.08h7a8.89,8.89,0,0,0,1.55-.08v1.43a11.65,11.65,0,0,0-1.53-.06Zm-4.81-4.39a8.31,8.31,0,0,0,1.54.08h4.61a8.5,8.5,0,0,0,1.55-.08v1.46a11.11,11.11,0,0,0-1.53-.06h-4.65a10.85,10.85,0,0,0-1.52.06Z"/><path class="cls-7" d="M262.43,297.61a3.42,3.42,0,0,0-.31.86c-.92,3-1.61,5-2.38,6.84a48.08,48.08,0,0,0,5-.61c-.13-.29-.28-.55-.56-1.09A15.32,15.32,0,0,0,263,301.7l1.35-.53a27.86,27.86,0,0,1,2.9,5.55l-1.45.76a11.26,11.26,0,0,0-.57-1.49l-.43.1c-1.21.25-3.21.5-6.79.85a6.74,6.74,0,0,0-1.09.14l-.22-1.62H257l1,0a51.12,51.12,0,0,0,1.74-4.83,18.31,18.31,0,0,0,.88-3.33Z"/><path class="cls-7" d="M269.67,298.54a7.83,7.83,0,0,0-1,.06v-1.29a7.58,7.58,0,0,0,1.16.07h2.1a6.37,6.37,0,0,0,1.15-.07v1.28a10.14,10.14,0,0,0-1,0h-.61a9.76,9.76,0,0,1-.76,2.59h1.45a6.83,6.83,0,0,0,.72,0,5.71,5.71,0,0,0,0,.87v4.13c0,.49,0,.65,0,.94h-1.19v-.56h-1v1.2h-1.29a8.45,8.45,0,0,0,.07-1.22v-2.19c0-.47,0-.52,0-1.17a4.76,4.76,0,0,1-.75,1.12,4.51,4.51,0,0,0-.47-1.49,6.35,6.35,0,0,0,1.52-2.57,6.61,6.61,0,0,0,.41-1.62Zm.93,6.89h1v-3.14h-1Zm3.8-6.92a6,6,0,0,0-1,.06v-1.31a8,8,0,0,0,1.32.07h3.47a9.27,9.27,0,0,0,1.28-.07v1.31a7.19,7.19,0,0,0-1.18-.06v2.84h.1a7.32,7.32,0,0,0,1.2-.06v1.34a9,9,0,0,0-1.2-.06h-.1v3.91a12,12,0,0,0,.09,1.49H277a13.8,13.8,0,0,0,.07-1.47v-3.93h-1.39a11.71,11.71,0,0,1-.29,2.4,6.91,6.91,0,0,1-1.47,3.11,3.24,3.24,0,0,0-1.13-.85,5.93,5.93,0,0,0,1.39-2.76,9.84,9.84,0,0,0,.23-1.9,9.26,9.26,0,0,0-1.18.06v-1.34a7.39,7.39,0,0,0,1.2.06Zm2.64,2.84v-2.84h-1.36v2.84Z"/><path class="cls-7" d="M287.42,302.83c.63,0,.89,0,1.26-.05,0,.31,0,.51-.05,1.08l0,2.36c0,.31.1.38.53.38.88,0,1,0,1.1-.27a9.28,9.28,0,0,0,.16-1.87,5,5,0,0,0,1.26.41c-.2,2.84-.27,2.92-2.51,2.92-1.46,0-1.82-.23-1.82-1.1v-.09l0-2.59h-1.77a4.65,4.65,0,0,1-1.38,2.4,8,8,0,0,1-2.88,1.63,4.2,4.2,0,0,0-.79-1.18,7.36,7.36,0,0,0,2.76-1.34,3.27,3.27,0,0,0,1-1.51H282.6a10.93,10.93,0,0,0-1.34.06v-1.32a8.9,8.9,0,0,0,1.32.08h1.92a7.38,7.38,0,0,0,0-.74,5.17,5.17,0,0,0,0-.68h1.42a4.34,4.34,0,0,0-.1,1c0,.18,0,.27,0,.45Zm-2.18-5.07a3.49,3.49,0,0,0-.07-.77h1.46a3.38,3.38,0,0,0-.06.77V298h3.37a10.85,10.85,0,0,0,1.32-.06,7,7,0,0,0-.05.89v.85a7.53,7.53,0,0,0,.05.89h-.78c-.09.67-.24.94-.59,1.1a5.92,5.92,0,0,1-2,.17c-1.25,0-1.6-.19-1.6-.89V299.2h-1a3.63,3.63,0,0,1-.64,1.55c-.55.77-1.21,1.12-3,1.57a6.41,6.41,0,0,0-.72-1.1,4.53,4.53,0,0,0,2.39-.83,1.91,1.91,0,0,0,.62-1.19h-2v1.4h-1.31a5.8,5.8,0,0,0,.06-.9v-.83a5.71,5.71,0,0,0-.05-.89,10.75,10.75,0,0,0,1.32.06h3.18ZM290,299.2h-2.39v1.28c0,.26.09.3.75.3s.83-.06.91-.22a2.47,2.47,0,0,0,.09-.68,4.19,4.19,0,0,0,.64.19Z"/><path class="cls-7" d="M302.45,297.49a12.42,12.42,0,0,1-1,1.47c.14.16.16.2.32.38.25-.35.36-.53.74-1.16l.88.64c-.25.31-.25.31-.84,1.08a10.9,10.9,0,0,1-1,1.08l.86-.07a2.73,2.73,0,0,0-.21-.47l.75-.28a9.83,9.83,0,0,1,.71,1.89l-.84.27-.13-.57-.88.1a3.89,3.89,0,0,1,.63.5l-.46.43h.27a6.18,6.18,0,0,0,1.26-.07V304a9.43,9.43,0,0,0-1.26-.08h-.41l.92.59a9.69,9.69,0,0,1-1.31,1.44c.35.48.66.74.84.74s.33-.33.45-1.45a2.82,2.82,0,0,0,.91.66,4.06,4.06,0,0,1-.49,1.69.83.83,0,0,1-.78.39c-.6,0-1.15-.4-1.84-1.3a9.54,9.54,0,0,1-2.62,1.35,3.55,3.55,0,0,0-.69-1.07,8.2,8.2,0,0,0,2.76-1.19,7.4,7.4,0,0,1-.61-1.85h-1.6a3.66,3.66,0,0,1,0,.39,4.28,4.28,0,0,0,1.33,1,2.53,2.53,0,0,0-.32.52l-.26.46a4.24,4.24,0,0,1-1-.84,5.43,5.43,0,0,1-1.49,2.49,4.53,4.53,0,0,0-1-.86,4,4,0,0,0,1.56-3.17l-.9.05v-1.21a6.25,6.25,0,0,0,1,0h2.47c-.05-.35-.06-.45-.09-.67l-.67.24c0-.21,0-.28-.05-.41l-.84.13c-.92.12-1.54.2-1.71.24l0-.37a4.72,4.72,0,0,0-.35.84,6.41,6.41,0,0,1-.56-1.11c0,.34.05,1.05.05,1.47v3.45a10.27,10.27,0,0,0,.06,1.48h-1.31a11.27,11.27,0,0,0,.07-1.48v-2.11c0-.54,0-1,.1-2a11.62,11.62,0,0,1-1.05,2.69,3.75,3.75,0,0,0-.57-1.32,10,10,0,0,0,.9-1.91,16.35,16.35,0,0,0,.49-1.62h-.29c-.3,0-.6,0-.81.05v-1.28a3.16,3.16,0,0,0,.81.06h.41v-1a8.4,8.4,0,0,0-.06-1.26H295a12.24,12.24,0,0,0,0,1.25v1h.21a4.82,4.82,0,0,0,.61,0l-.26-.24.7-.82.26.25a5.74,5.74,0,0,0,.77-1.43l1,.49a11.74,11.74,0,0,1-1,1.68l.28.37a5.48,5.48,0,0,0,.63-1.12l.85.57v-.56a7.61,7.61,0,0,0-.08-1.37h1.32a2.9,2.9,0,0,0-.08.8,3.79,3.79,0,0,0,0,.39v.37l.37-.52.26.26a5.46,5.46,0,0,0,.73-1.31Zm-6.6,2.9a5.89,5.89,0,0,0-.68-.05H295a4,4,0,0,0,.73,1.18l0-.27.18,0h.22a10.84,10.84,0,0,0,.75-.93,8.3,8.3,0,0,0-1-1.11Zm2.87-.05c.16.38.22.52.31.79-.07-1-.1-1.55-.1-2.09l-.26.38a14.47,14.47,0,0,1-1.37,1.76,7.25,7.25,0,0,0,.88-.09c-.09-.19-.11-.27-.22-.51Zm1.38-1.27c0,1.09,0,1.09.06,1.95h.16a10.74,10.74,0,0,0,.77-.87A6.75,6.75,0,0,0,300.1,299.07Zm1.19,2.85-.22,0-.52.06-.3,0c0,.28,0,.31.1.76h1.34a2.1,2.1,0,0,0-.76-.52Zm-.74,2a4.85,4.85,0,0,0,.38,1.13,3.15,3.15,0,0,0,.92-1.13Z"/><path class="cls-7" d="M308.45,303.2c0-.35,0-.58,0-.85a3.14,3.14,0,0,0-.63.82,4.6,4.6,0,0,1-.69-1.29c0,.41.06.93.06,1.73v3a11.43,11.43,0,0,0,.07,1.46h-1.35a9.61,9.61,0,0,0,.09-1.46v-2.32c0-.45,0-1.08.09-1.65A10.38,10.38,0,0,1,305,305a3.51,3.51,0,0,0-.78-1,11.11,11.11,0,0,0,1.58-3.7h-.39a5.67,5.67,0,0,0-.81,0v-1.27a4.26,4.26,0,0,0,.81.05H306v-1a7.18,7.18,0,0,0-.08-1.25h1.34a8.19,8.19,0,0,0-.06,1.24v1h.27a3.69,3.69,0,0,0,.71-.05v1.27a4.7,4.7,0,0,0-.68,0h-.2a7,7,0,0,0,.7,1.3v-1a5.72,5.72,0,0,0,1,.06h.65v-.5h-.29a7.33,7.33,0,0,0-.92,0v-1a6.29,6.29,0,0,0,.92.05h.29v-.51h-.49a10,10,0,0,0-1,0v-1a5.79,5.79,0,0,0,1,.07h.5a3.67,3.67,0,0,0-.06-.87h1.31a3,3,0,0,0-.07.87h1.54a2.81,2.81,0,0,0-.07-.87h1.32a3.45,3.45,0,0,0-.07.87h.78a6.07,6.07,0,0,0,1-.07v1a5.25,5.25,0,0,0-1-.06h-.78v.51h.53a8.17,8.17,0,0,0,.91-.05v1a5.3,5.3,0,0,0-.91-.05h-.53v.5h.85a5.91,5.91,0,0,0,1.1-.07v1.13a7.12,7.12,0,0,0-1.11-.06h-2.27v.49h1.56a8.25,8.25,0,0,0,1.12-.05,9.15,9.15,0,0,0-.05,1.19v1.79a4.2,4.2,0,0,0,.8-.06v1.12a6.07,6.07,0,0,0-.8,0v.7c0,1-.25,1.13-1.55,1.13l-.92,0a3.6,3.6,0,0,0-.23-1.07,7.86,7.86,0,0,0,1,.08c.41,0,.49,0,.49-.27v-.55h-3.94v.48c0,.81,0,1.06,0,1.47h-1.29a11.44,11.44,0,0,0,.06-1.47v-.48a5,5,0,0,0-.72,0V305a4.48,4.48,0,0,0,.72.05Zm1.09-1.07H311v-.49h-1.92a7.93,7.93,0,0,0-1.05.05,3.35,3.35,0,0,0,.38.4C308.75,302.12,309,302.13,309.54,302.13Zm1.45,1.5v-.55h-1.35v.55Zm0,1.43v-.55h-1.35v.55Zm1.39-5.81v-.51h-1.54v.51Zm0,1.39v-.5h-1.54v.5Zm1.2,3v-.55h-1.45v.55Zm0,1.43v-.55h-1.45v.55Z"/><path class="cls-7" d="M593,288.94a3.74,3.74,0,0,0,1.6.32c1,0,1.8-.74,1.8-2.9v-7.62h3.54v8.68c0,2.85-1.16,4.81-4.75,4.81a9.36,9.36,0,0,1-2.19-.36Z"/><path class="cls-7" d="M602.4,288.73a7.74,7.74,0,0,0,3.65.88c1.12,0,2.19-.23,2.19-1.3,0-2.47-6.27-.91-6.27-5.73,0-3.19,3.11-4.07,5.77-4.07a11,11,0,0,1,3.42.5l-.23,2.73a7,7,0,0,0-2.94-.61c-.89,0-2.37.08-2.37,1.24,0,2.14,6.26.7,6.26,5.49,0,3.44-2.88,4.37-5.83,4.37a13.92,13.92,0,0,1-3.95-.57Z"/><path class="cls-7" d="M616.25,281.36H613v-2.62h10.07v2.62h-3.27V292h-3.54Z"/><path class="cls-7" d="M562.52,298.87c-.49.09-.7.12-1.4.21a3.8,3.8,0,0,0-.46-1.15,10.32,10.32,0,0,0,4.09-1l.74,1.11-.19.08c-.32.13-.91.32-1.51.49v1.48h.66a4.37,4.37,0,0,0,.89-.06v1.28a5,5,0,0,0-.91-.06h-.58a5.16,5.16,0,0,0,1.65,1.87,4.22,4.22,0,0,0-.64,1.18,5.35,5.35,0,0,1-1.13-1.65c0,.3,0,.83.06,1.56v2.35a10.21,10.21,0,0,0,.07,1.48h-1.41c0-.44.07-.85.07-1.48V304.6c0-.27,0-.62.07-1.52a8.46,8.46,0,0,1-1.45,2.7,4.17,4.17,0,0,0-.71-1.25,7.52,7.52,0,0,0,1.36-1.94,9.33,9.33,0,0,0,.57-1.36h-.62a5.77,5.77,0,0,0-1.06.07V300a5.81,5.81,0,0,0,1.08.07h.76Zm6.52-.5A8.4,8.4,0,0,0,569,297h1.45a8.55,8.55,0,0,0-.07,1.38v5.17a5.93,5.93,0,0,0,1.13-.32l.11,1.4a9.82,9.82,0,0,0-1.14.21l-.1,0v1.79a8.75,8.75,0,0,0,.07,1.41H569a8.73,8.73,0,0,0,.07-1.43v-1.48l-2.7.6c-.46.1-.86.21-1.16.3l-.15-1.4h.05a4.86,4.86,0,0,0,1.07-.16l2.89-.65Zm-2.92,2.26a16.27,16.27,0,0,1,2.26,1.86l-.75,1.07a11.15,11.15,0,0,0-2.28-2Zm.4-3a11.73,11.73,0,0,1,2.32,1.89L568,300.6a10,10,0,0,0-2.26-2Z"/><path class="cls-7" d="M574.13,304.69a11.33,11.33,0,0,0-1.46.07v-1.33a10.27,10.27,0,0,0,1.45.08h3.27v-.08a6.5,6.5,0,0,0,0-.66h.52a6.42,6.42,0,0,0,1.41-1H576c-.49,0-.81,0-1.2,0v-1.2a8.47,8.47,0,0,0,1.21.06h4a6.39,6.39,0,0,0,.91,0l.66.73-.43.36a16.91,16.91,0,0,1-2.4,1.75h3.13a10,10,0,0,0,1.48-.08v1.33a11.54,11.54,0,0,0-1.49-.07H578.7v2.09a1.18,1.18,0,0,1-.15.76c-.21.3-.61.4-1.69.4l-1.18-.05a4.55,4.55,0,0,0-.39-1.27,11.45,11.45,0,0,0,1.48.12c.53,0,.62,0,.62-.28v-1.77Zm.62-5.93a6.73,6.73,0,0,0-.9-1.35l1.21-.36a8.73,8.73,0,0,1,1.09,1.71h1.27a6.77,6.77,0,0,0-.73-1.51l1.25-.35a9.39,9.39,0,0,1,.82,1.86h1a8.08,8.08,0,0,0,1-1.8l1.29.36a10.91,10.91,0,0,1-.9,1.44h.54a13.23,13.23,0,0,0,1.48-.05,6.88,6.88,0,0,0,0,1v1.11a6.67,6.67,0,0,0,.06.92h-1.31v-1.86h-7.82v1.86h-1.3a6.31,6.31,0,0,0,.06-.93v-1.1a9.23,9.23,0,0,0-.05-1,11,11,0,0,0,1.41.05Z"/><path class="cls-7" d="M585.58,300.31a6.58,6.58,0,0,0-.92.06v-1.3a5.15,5.15,0,0,0,.94.07h.49v-1a8.09,8.09,0,0,0-.08-1.22h1.43a7,7,0,0,0-.07,1.21v1h.19a5.58,5.58,0,0,0,.72,0v1.26a4.48,4.48,0,0,0-.73-.05h-.18v1.83l1-.37V303l-1,.39v3.41c0,1-.31,1.19-1.58,1.19-.29,0-.48,0-.85,0a3.86,3.86,0,0,0-.29-1.25,6.26,6.26,0,0,0,1,.1c.39,0,.47-.05.47-.37v-2.57l-.33.12a2,2,0,0,1-.4.13l-.51.2-.26-1.34a6.89,6.89,0,0,0,1.5-.36v-2.26Zm5.45-.6H589.9a12.93,12.93,0,0,0-1.38.06v-1.31a11.86,11.86,0,0,0,1.37.06H591v-.36A6.7,6.7,0,0,0,591,297h1.42a9.61,9.61,0,0,0-.06,1.2v.37H594a10.83,10.83,0,0,0,1.37-.07v1.33a11.72,11.72,0,0,0-1.37-.07h-1.67v1.53h1.13a6.49,6.49,0,0,0,.86,0l.64.68c-.1.16-.14.25-.37.71a10.22,10.22,0,0,1-1.87,2.63,9.46,9.46,0,0,0,3,1.48A4.08,4.08,0,0,0,595,308a11.84,11.84,0,0,1-3.24-1.93,10.43,10.43,0,0,1-3.48,1.89,4.76,4.76,0,0,0-.67-1.23,9.49,9.49,0,0,0,3.25-1.55,8.71,8.71,0,0,1-1.69-2.78l-.48,0v-1.27a9,9,0,0,0,1.21.07H591Zm-.55,2.68a6,6,0,0,0,1.3,2,6.23,6.23,0,0,0,1.5-2Z"/><path class="cls-7" d="M601.34,298.28a9.45,9.45,0,0,0-.07-1.31h1.35a8,8,0,0,0-.07,1.31v1h.55a6.34,6.34,0,0,0,1.09-.06v1a5.26,5.26,0,0,0,.6,0h1.81a5.18,5.18,0,0,0,1-.06v1.33a8.34,8.34,0,0,0-1,0v5.13c0,.63-.16,1-.56,1.11a4.08,4.08,0,0,1-1.23.12l-1,0a3.7,3.7,0,0,0-.28-1.26,10.38,10.38,0,0,0,1.42.11c.3,0,.38-.06.38-.28v-4.91h-.55a5.32,5.32,0,0,0-.77,0v-1l-.63,0h-.84v6a9.39,9.39,0,0,0,.07,1.44h-1.35a11.4,11.4,0,0,0,.07-1.44v-6h-1.06a4,4,0,0,0-.75.05c-.33.54-.6.94-.81,1.23v4.81a9.44,9.44,0,0,0,.06,1.36h-1.35a10.13,10.13,0,0,0,.07-1.4v-2.21c0-.48,0-.5,0-1.31a4.61,4.61,0,0,1-.8.79,4.44,4.44,0,0,0-.47-1.32,6.87,6.87,0,0,0,1.79-1.91,4.91,4.91,0,0,0,.6-1.08l.86.52v-.79a6.41,6.41,0,0,0,1.09.06h.75Zm-1.69-.78c0,.06-.26.31-.63.78a9.49,9.49,0,0,1-2.1,1.93,5.11,5.11,0,0,0-.58-1.14,6.19,6.19,0,0,0,2.17-2.23Zm1.22,3.89a18,18,0,0,1-.84,5.33c-.34-.21-.56-.34-1.09-.61a7.13,7.13,0,0,0,.6-2,24.18,24.18,0,0,0,.24-2.88Zm2.72-2.29a5.78,5.78,0,0,0-1-1.5l.91-.54a7.1,7.1,0,0,1,.88,1.2v-.71a5,5,0,0,0,.94.06h1.1a4.63,4.63,0,0,0,.93-.06v1.34a5.05,5.05,0,0,0-.93-.06h-1.1a5.37,5.37,0,0,0-.94.06v-.31Zm.24,2.12a33.66,33.66,0,0,1,.88,4.22l-1.12.37a25.41,25.41,0,0,0-.78-4.34Z"/><path class="cls-7" d="M609.41,300.37a4.71,4.71,0,0,0-.83.06v-1.29a4.35,4.35,0,0,0,.85.06h.42v-1a7.77,7.77,0,0,0-.07-1.21h1.37a9.79,9.79,0,0,0-.06,1.21v1h.38a3.72,3.72,0,0,0,.62,0v1.24c-.23,0-.38,0-.61,0h-.39v1.81c.29-.12.46-.21.93-.43V303c-.49.25-.64.32-.93.45v3.36c0,.91-.31,1.18-1.39,1.18-.22,0-.29,0-.86,0a4.74,4.74,0,0,0-.29-1.24c.34,0,.73.08,1,.08s.33-.06.33-.34v-2.5l-1,.37-.18.07-.19-1.32a8,8,0,0,0,1.38-.38v-2.29Zm7.74,2a8.33,8.33,0,0,0,.31,1.5,5.54,5.54,0,0,0,1.23-1.07l.84.83-1,.78a5,5,0,0,1-.66.47,5.1,5.1,0,0,0,1.71,1.86,5.43,5.43,0,0,0-.84,1.13,7.63,7.63,0,0,1-1.88-2.46,8.64,8.64,0,0,1-.84-3h-.66v3.7c.55-.14.78-.2,1.46-.43v1.16a29.59,29.59,0,0,1-3.12.87l-.55.15-.28-1.33a6.37,6.37,0,0,0,1.28-.15v-4h-.66a13.68,13.68,0,0,1-.43,3.23,10.06,10.06,0,0,1-.93,2.26,5.45,5.45,0,0,0-1-1c1-1.68,1.24-3,1.24-8,0-.82,0-1.15,0-1.52.4,0,.91.06,1.41.06H618a9.67,9.67,0,0,0,1.33-.07v1.28a11.22,11.22,0,0,0-1.25,0H613.6v1.26c0,.56,0,.86,0,1.44h4.83a5.59,5.59,0,0,0,1-.06v1.21a7.08,7.08,0,0,0-.9,0Zm1.68-1.87a5.08,5.08,0,0,0-.86-.05h-3.13c-.39,0-.57,0-.81,0v-1.15a4.14,4.14,0,0,0,.81.05H618a5.06,5.06,0,0,0,.88-.05Z"/><path class="cls-7" d="M629.62,304.37l0-1.35h-.4a4.24,4.24,0,0,0-.57,0v-1.13a4.1,4.1,0,0,0,.58,0h.42l0-1.07h-.47c-.26,0-.41,0-.57,0v-1.13a3.69,3.69,0,0,0,.58,0h.49l0-1.15h-.55a4.64,4.64,0,0,0-.6,0v-1.19a4.26,4.26,0,0,0,.78.06h.81a5.76,5.76,0,0,0,.81,0c0,.34-.06.64-.09,1.23l-.19,5.6a6.25,6.25,0,0,0,.73-.05v1.24a11.48,11.48,0,0,0-1.42-.07H621.9a12.61,12.61,0,0,0-1.42.07v-1.24a7.19,7.19,0,0,0,.83.06l-.15-5.14a10.9,10.9,0,0,0-.07-1.28,5.31,5.31,0,0,0,2.11-.92l.47.72a3.24,3.24,0,0,0,0-.45,8.46,8.46,0,0,0,1,.05h2.69a8.53,8.53,0,0,0,1-.05c0,.27,0,.48,0,.93v6.14Zm-4.57,1.89a9,9,0,0,1-3.74,1.77,7.25,7.25,0,0,0-.71-1.09,8,8,0,0,0,1.89-.5,5,5,0,0,0,1.56-.94Zm-1.37-8a10.87,10.87,0,0,1-1.35.53l0,1.05h.42a2.94,2.94,0,0,0,.59,0v1.14a4.4,4.4,0,0,0-.58,0h-.41l0,1.09h.37a2.86,2.86,0,0,0,.59-.05v1.14c-.17,0-.31,0-.58,0h-.36l0,1.32h1.22Zm3.67,6.12v-6h-2.62v6ZM627.1,300a4.8,4.8,0,0,0-.58,0h-1a4.62,4.62,0,0,0-.56,0v-1a3.76,3.76,0,0,0,.57,0h1a4,4,0,0,0,.58,0Zm-1.51,3.67-.6,0c0-.15,0-.34,0-.63V301.2c0-.3,0-.48,0-.65l.6,0h.9l.61,0c0,.13,0,.35,0,.66v1.86c0,.3,0,.51,0,.64l-.6,0Zm.17-.94h.58v-1.23h-.58Zm2,2.79a7.92,7.92,0,0,0,3.74,1.33,4.77,4.77,0,0,0-.64,1.14,10.43,10.43,0,0,1-2-.65,9.62,9.62,0,0,1-2-1.08Z"/><path class="cls-7" d="M642.45,297.49a12.42,12.42,0,0,1-1,1.47l.32.38c.25-.35.36-.53.74-1.16l.88.64c-.25.31-.25.31-.84,1.08a10.9,10.9,0,0,1-1,1.08l.86-.07a2.73,2.73,0,0,0-.21-.47l.75-.28a9.83,9.83,0,0,1,.71,1.89l-.84.27-.13-.57-.88.1a3.89,3.89,0,0,1,.63.5l-.46.43h.27a6.18,6.18,0,0,0,1.26-.07V304a9.43,9.43,0,0,0-1.26-.08h-.41l.92.59a9.69,9.69,0,0,1-1.31,1.44c.35.48.66.74.84.74s.33-.33.45-1.45a2.82,2.82,0,0,0,.91.66,4.06,4.06,0,0,1-.49,1.69.83.83,0,0,1-.78.39c-.6,0-1.15-.4-1.84-1.3a9.54,9.54,0,0,1-2.62,1.35,3.55,3.55,0,0,0-.69-1.07,8.2,8.2,0,0,0,2.76-1.19,7.4,7.4,0,0,1-.61-1.85h-1.6a3.66,3.66,0,0,1,0,.39,4.28,4.28,0,0,0,1.33,1,2.53,2.53,0,0,0-.32.52l-.26.46a4.24,4.24,0,0,1-1-.84,5.43,5.43,0,0,1-1.49,2.49,4.53,4.53,0,0,0-1-.86,4,4,0,0,0,1.56-3.17l-.9.05v-1.21a6.25,6.25,0,0,0,1,0h2.47c-.05-.35-.06-.45-.09-.67l-.67.24c0-.21,0-.28-.05-.41l-.84.13c-.92.12-1.54.2-1.71.24l-.05-.37a4.72,4.72,0,0,0-.35.84,6.41,6.41,0,0,1-.56-1.11c0,.34,0,1.05,0,1.47v3.45a10.27,10.27,0,0,0,.06,1.48h-1.31a11.27,11.27,0,0,0,.07-1.48v-2.11c0-.54,0-1,.1-2a11.19,11.19,0,0,1-1.05,2.69,3.75,3.75,0,0,0-.57-1.32,10,10,0,0,0,.9-1.91,16.35,16.35,0,0,0,.49-1.62h-.29c-.3,0-.6,0-.81.05v-1.28a3.16,3.16,0,0,0,.81.06h.41v-1a8.4,8.4,0,0,0-.06-1.26H635a12.24,12.24,0,0,0,0,1.25v1h.21a4.82,4.82,0,0,0,.61,0l-.26-.24.7-.82.26.25a5.74,5.74,0,0,0,.77-1.43l1,.49a11.74,11.74,0,0,1-1,1.68l.29.37a5.93,5.93,0,0,0,.62-1.12l.85.57v-.56a7.61,7.61,0,0,0-.08-1.37h1.32a2.9,2.9,0,0,0-.08.8,3.79,3.79,0,0,0,0,.39v.37l.37-.52.26.26a5.14,5.14,0,0,0,.73-1.31Zm-6.6,2.9a5.89,5.89,0,0,0-.68-.05H635a4,4,0,0,0,.73,1.18l0-.27.18,0h.22c.41-.47.54-.64.76-.93a9.1,9.1,0,0,0-1-1.11Zm2.87-.05c.16.38.22.52.31.79-.07-1-.1-1.55-.1-2.09l-.26.38a14.47,14.47,0,0,1-1.37,1.76,7.25,7.25,0,0,0,.88-.09c-.09-.19-.11-.27-.22-.51Zm1.38-1.27c0,1.09,0,1.09.06,1.95h.16a10.74,10.74,0,0,0,.77-.87A6.75,6.75,0,0,0,640.1,299.07Zm1.19,2.85-.22,0-.52.06-.3,0c0,.28,0,.31.1.76h1.34a2.16,2.16,0,0,0-.75-.52Zm-.74,2a4.46,4.46,0,0,0,.39,1.13,3.21,3.21,0,0,0,.91-1.13Z"/><path class="cls-7" d="M648.45,303.2c0-.35,0-.58,0-.85a3.14,3.14,0,0,0-.63.82,4.6,4.6,0,0,1-.69-1.29c0,.41.06.93.06,1.73v3a11.43,11.43,0,0,0,.07,1.46H645.9a11.37,11.37,0,0,0,.08-1.46v-2.32c0-.45,0-1.08.09-1.65A10.38,10.38,0,0,1,645,305a3.51,3.51,0,0,0-.78-1,11.11,11.11,0,0,0,1.58-3.7h-.39a5.67,5.67,0,0,0-.81,0v-1.27a4.26,4.26,0,0,0,.81.05H646v-1a8.72,8.72,0,0,0-.07-1.25h1.33a8.19,8.19,0,0,0-.06,1.24v1h.27a3.69,3.69,0,0,0,.71-.05v1.27a4.7,4.7,0,0,0-.68,0h-.2a7,7,0,0,0,.7,1.3v-1a5.78,5.78,0,0,0,1,.06h.65v-.5h-.29a7.33,7.33,0,0,0-.92,0v-1a6.29,6.29,0,0,0,.92.05h.29v-.51h-.49a10,10,0,0,0-1,0v-1a5.79,5.79,0,0,0,1,.07h.5a3.67,3.67,0,0,0-.06-.87h1.31a3,3,0,0,0-.07.87h1.54a2.81,2.81,0,0,0-.07-.87h1.32a3.45,3.45,0,0,0-.07.87h.78a6.07,6.07,0,0,0,1-.07v1a5.25,5.25,0,0,0-1-.06h-.78v.51h.53a8.17,8.17,0,0,0,.91-.05v1a5.3,5.3,0,0,0-.91-.05h-.53v.5h.85a5.91,5.91,0,0,0,1.1-.07v1.13a7.12,7.12,0,0,0-1.11-.06h-2.27v.49h1.56a8.25,8.25,0,0,0,1.12-.05,9.15,9.15,0,0,0,0,1.19v1.79a4.2,4.2,0,0,0,.8-.06v1.12a6.07,6.07,0,0,0-.8,0v.7c0,1-.25,1.13-1.55,1.13l-.92,0a3.6,3.6,0,0,0-.23-1.07,8,8,0,0,0,1,.08c.41,0,.49,0,.49-.27v-.55h-3.94v.48a12.92,12.92,0,0,0,.05,1.47h-1.3a11.44,11.44,0,0,0,.06-1.47v-.48a5,5,0,0,0-.72,0V305a4.48,4.48,0,0,0,.72.05Zm1.09-1.07H651v-.49h-1.92a7.93,7.93,0,0,0-1.05.05,3.35,3.35,0,0,0,.38.4C648.75,302.12,649,302.13,649.54,302.13Zm1.45,1.5v-.55h-1.35v.55Zm0,1.43v-.55h-1.35v.55Zm1.39-5.81v-.51h-1.54v.51Zm0,1.39v-.5h-1.54v.5Zm1.2,3v-.55h-1.45v.55Zm0,1.43v-.55h-1.45v.55Z"/><path class="cls-9" d="M477.63,249.34a7.93,7.93,0,0,0-.07-1.25H479a7.3,7.3,0,0,0-.08,1.24v.8h2.7v-.78a6.43,6.43,0,0,0-.07-1.24h1.48a8.1,8.1,0,0,0-.08,1.26v.76h1a10.09,10.09,0,0,0,1.35-.07v1.43a12,12,0,0,0-1.35-.06h-1V254h1.23a10.53,10.53,0,0,0,1.56-.09v1.47a11,11,0,0,0-1.55-.09h-7.77a10.8,10.8,0,0,0-1.54.09v-1.47a10.42,10.42,0,0,0,1.54.09h1.17v-2.52h-.88a11.25,11.25,0,0,0-1.32.06v-1.43a10,10,0,0,0,1.32.07h.88Zm1.8,6.85a8.41,8.41,0,0,1-1.83,1.75,9.71,9.71,0,0,1-1.75,1,5.34,5.34,0,0,0-.92-1.12,7.92,7.92,0,0,0,2-1,4.93,4.93,0,0,0,1.39-1.34Zm2.23-2.24v-2.52H479V254Zm.65,1.52a6.42,6.42,0,0,0,1.66,1.45,10.15,10.15,0,0,0,1.84.91,4.72,4.72,0,0,0-.88,1.18,10.06,10.06,0,0,1-2.12-1.29,9.07,9.07,0,0,1-1.6-1.5Z"/><path class="cls-9" d="M487.33,249.53a10.51,10.51,0,0,0-.05-1.21c.24,0,.82.05,1.36.05h7.47c.55,0,1,0,1.3-.05a11.78,11.78,0,0,0-.05,1.31v8c0,1-.39,1.22-2,1.22-.35,0-.9,0-1.33-.05a4,4,0,0,0-.34-1.27,16.31,16.31,0,0,0,1.68.1c.51,0,.61,0,.61-.26v-7.77h-7.34v8a8,8,0,0,0,.08,1.39h-1.49a12.09,12.09,0,0,0,.07-1.43Zm1.9.9a5,5,0,0,0,1.06.06h4.14a5.32,5.32,0,0,0,1.07-.06v1.27a9.48,9.48,0,0,0-1.05,0h-4.17a9.6,9.6,0,0,0-1,0Zm5.6,5.47c0,.29,0,.51,0,.76a7.46,7.46,0,0,0-.79,0h-2.91v.91h-1.31a10.53,10.53,0,0,0,0-1.07v-3.1c0-.32,0-.55,0-.78l.83,0H494c.48,0,.66,0,.9,0,0,.24,0,.42,0,.78Zm-3.69-.43h2.44v-1.72h-2.44Z"/><path class="cls-9" d="M500,249.54a7.94,7.94,0,0,0-1,.06v-1.29a7.67,7.67,0,0,0,1.16.07h2.1a6.3,6.3,0,0,0,1.15-.07v1.28a10.14,10.14,0,0,0-1-.05h-.61a10.13,10.13,0,0,1-.75,2.59h1.45a6.83,6.83,0,0,0,.72,0,5.71,5.71,0,0,0,0,.87v4.13a7.48,7.48,0,0,0,0,.94H502v-.56h-1v1.2h-1.3a8.45,8.45,0,0,0,.07-1.22v-2.19c0-.47,0-.52,0-1.17a4.83,4.83,0,0,1-.76,1.12,4.08,4.08,0,0,0-.47-1.49,6.36,6.36,0,0,0,1.53-2.57,7.1,7.1,0,0,0,.41-1.62Zm.94,6.89h1v-3.14h-1Zm3.8-6.92a6,6,0,0,0-1,.06v-1.31a7.89,7.89,0,0,0,1.31.07h3.47a9.17,9.17,0,0,0,1.28-.07v1.31a7.12,7.12,0,0,0-1.17-.06v2.84h.09a7.17,7.17,0,0,0,1.2-.06v1.34a8.87,8.87,0,0,0-1.2-.06h-.09v3.91a12.07,12.07,0,0,0,.08,1.49h-1.42c0-.53.07-.89.07-1.47v-3.93H506a11.71,11.71,0,0,1-.29,2.4,6.82,6.82,0,0,1-1.48,3.11,3.11,3.11,0,0,0-1.12-.85,6,6,0,0,0,1.39-2.76,9.84,9.84,0,0,0,.23-1.9,9.26,9.26,0,0,0-1.18.06v-1.34a7.32,7.32,0,0,0,1.2.06Zm2.64,2.84v-2.84H506v2.84Z"/><path class="cls-9" d="M517.76,253.83c.62,0,.89,0,1.26-.05,0,.31,0,.51,0,1.08l0,2.36c0,.31.1.38.53.38.89,0,1,0,1.11-.27a8.79,8.79,0,0,0,.15-1.87,5.33,5.33,0,0,0,1.26.41c-.19,2.84-.26,2.92-2.51,2.92-1.46,0-1.82-.23-1.82-1.1v-.09l0-2.59h-1.78a4.58,4.58,0,0,1-1.38,2.4,8,8,0,0,1-2.88,1.63,4.2,4.2,0,0,0-.79-1.18,7.28,7.28,0,0,0,2.76-1.34,3.12,3.12,0,0,0,1-1.51h-1.65a11.12,11.12,0,0,0-1.35.06v-1.32a8.9,8.9,0,0,0,1.32.08h1.92a5.48,5.48,0,0,0,0-.74,3.89,3.89,0,0,0,0-.68h1.43a4.75,4.75,0,0,0-.11,1c0,.18,0,.27,0,.45Zm-2.18-5.07a3.44,3.44,0,0,0-.08-.77H517a3.38,3.38,0,0,0-.06.77V249h3.37a10.85,10.85,0,0,0,1.32-.06,5.55,5.55,0,0,0-.05.89v.85a5.86,5.86,0,0,0,.05.89h-.78c-.1.67-.24.94-.59,1.1a6,6,0,0,1-2,.17c-1.24,0-1.59-.19-1.59-.89V250.2h-1a3.64,3.64,0,0,1-.63,1.55c-.55.77-1.22,1.12-3,1.57a5.86,5.86,0,0,0-.72-1.1,4.49,4.49,0,0,0,2.39-.83,1.87,1.87,0,0,0,.63-1.19h-2v1.4h-1.3a7.37,7.37,0,0,0,.06-.9v-.83a5.71,5.71,0,0,0-.05-.89,10.66,10.66,0,0,0,1.32.06h3.18Zm4.71,1.44h-2.4v1.28c0,.26.1.3.76.3s.82-.06.91-.22a2.22,2.22,0,0,0,.08-.68,4.66,4.66,0,0,0,.65.19Z"/><rect class="cls-9" x="464" y="236" width="72" height="4"/><polygon class="cls-9" points="454.64 238 466.18 244.66 466.18 231.34 454.64 238"/><polygon class="cls-9" points="542.03 238 530.49 231.34 530.49 244.66 542.03 238"/><path class="cls-9" d="M216.92,249.14a7,7,0,0,0-.09-1.23h1.45a7.09,7.09,0,0,0-.07,1.19v1.76a5.55,5.55,0,0,0,.89,0v1.31a6.51,6.51,0,0,0-.89,0v5.43a11.34,11.34,0,0,0,.07,1.49h-1.45a9.88,9.88,0,0,0,.09-1.51V252.1h-.07a8,8,0,0,0-1.08.05V250.8a6.35,6.35,0,0,0,1.08.06h.07Zm3,3.49a3.83,3.83,0,0,0-.74-.9,4.15,4.15,0,0,0,2.23-1.67h-.9a6.92,6.92,0,0,0-1.15.06v-1.28c.33,0,.74.06,1.22.06h1.2a4.77,4.77,0,0,0,.06-.83s0-.1,0-.22l1.43.08c0,.1,0,.22-.1.58,0,.17,0,.24-.06.39h2a9.59,9.59,0,0,0,1.12-.06c0,.25,0,.43-.08.84-.09,1.52-.24,2.08-.58,2.42s-.62.3-1.54.3c-.28,0-.49,0-1,0a3.59,3.59,0,0,0-.3-1.21,7.93,7.93,0,0,0,1.46.13c.47,0,.55-.15.61-1.22h-2a4.86,4.86,0,0,1-2.52,2.57h.66a3.92,3.92,0,0,0-.06.63c0,.06,0,.12,0,.24h.61c.49,0,.73,0,1.09,0a7.2,7.2,0,0,0,0,.75,17.4,17.4,0,0,1-.36,3.74,5,5,0,0,0,1.39-3.28h-.29a2.93,2.93,0,0,0-.41,0v-1.24a4.33,4.33,0,0,0,.79,0v-.42c0-.22,0-.34,0-.49l1.26,0a3.22,3.22,0,0,0-.06.69,1.34,1.34,0,0,1,0,.2h.87c.48,0,.72,0,1.08,0,0,.27,0,.37,0,.74a13.18,13.18,0,0,1-.46,4c-.22.44-.56.59-1.44.59a4.49,4.49,0,0,1-.54,0,3.71,3.71,0,0,0-.23-1.28,4.21,4.21,0,0,0,.84.09c.24,0,.34-.06.38-.22a13.69,13.69,0,0,0,.25-2.7h-.81a8.67,8.67,0,0,1-.64,2.62,5.34,5.34,0,0,1-1,1.67,3.46,3.46,0,0,0-.9-.93.89.89,0,0,1-.51.64,2.9,2.9,0,0,1-.94.12l-.47,0a4.26,4.26,0,0,0-.2-1.21,5.52,5.52,0,0,1-.88,1.38,5.87,5.87,0,0,0-.87-1.07,3.78,3.78,0,0,0,.85-1.27,6,6,0,0,0,.49-1.93h-.29a3.91,3.91,0,0,0-.58,0v-1.23a5.25,5.25,0,0,0,.67,0h.29v-.25a4.49,4.49,0,0,0,0-.63Zm.8,2.05a9.12,9.12,0,0,1-.72,2.83,3.53,3.53,0,0,0,.78.09c.23,0,.3-.07.36-.33a14.67,14.67,0,0,0,.22-2.59Z"/><path class="cls-9" d="M236.49,250.3a12.39,12.39,0,0,0,1.54-.06c0,.47,0,.47-.07,1.81,0,1.64-.15,3.67-.27,4.46-.16,1.11-.33,1.53-.7,1.79a2.37,2.37,0,0,1-1.43.32,13,13,0,0,1-1.83-.13,5.51,5.51,0,0,0-.34-1.45,10.36,10.36,0,0,0,2.06.24c.57,0,.75-.22.88-1a35.6,35.6,0,0,0,.28-4.68h-3.25a10.37,10.37,0,0,1-1.1,4,8.31,8.31,0,0,1-3.45,3.2,4.06,4.06,0,0,0-1-1.25,6.38,6.38,0,0,0,3.39-3,8.8,8.8,0,0,0,.75-3h-2.08a12,12,0,0,0-1.49.08v-1.44a10.43,10.43,0,0,0,1.52.08H232c0-.48,0-.6,0-1.22a6.23,6.23,0,0,0-.07-1.17h1.59a15.74,15.74,0,0,0-.13,2.39Z"/><path class="cls-9" d="M246.76,253.44a1.43,1.43,0,1,1-1.43-1.42A1.43,1.43,0,0,1,246.76,253.44Z"/><path class="cls-9" d="M251.87,252.48a5.28,5.28,0,0,0,1,.06h.9a5.33,5.33,0,0,0,.92-.06,11,11,0,0,0-.05,1.31v2.57a1.7,1.7,0,0,0,.55.62,4.81,4.81,0,0,0,2.78.52,36.92,36.92,0,0,0,5.13-.24,6.08,6.08,0,0,0-.36,1.41c-1,.05-2.74.07-4.17.07-2.07,0-2.75-.08-3.5-.45a2.59,2.59,0,0,1-1.06-.87,11,11,0,0,1-1.4,1.16l-.35.27-.59-1.37a7,7,0,0,0,1.71-1.16v-2.6h-.66a4.36,4.36,0,0,0-.81.06Zm1-4.46a15.45,15.45,0,0,1,2.09,2.16l-1,1a12.08,12.08,0,0,0-2-2.24Zm3.09,1.86a4.43,4.43,0,0,0-1,.06v-1.19a9.54,9.54,0,0,0,1.35.06h1.82a7.53,7.53,0,0,0-.08-.9h1.35a7.16,7.16,0,0,0-.08.9h2a12.35,12.35,0,0,0,1.37-.06v1.19a7.16,7.16,0,0,0-1.21-.06h-2.14v.58h1.86a9.66,9.66,0,0,0,1-.05,6.12,6.12,0,0,0-.05.92v2.47a5.57,5.57,0,0,0,.05.88c-.34,0-.6,0-1,0h-1.86v.58h2.2a8.68,8.68,0,0,0,1.2-.05v1.16a8.57,8.57,0,0,0-1.2-.06h-2.2a6.27,6.27,0,0,0,.08,1h-1.35a5.73,5.73,0,0,0,.09-1h-1.91c-.43,0-.92,0-1.19.05v-1.15a7.82,7.82,0,0,0,1.19.05h1.91v-.58h-1.71c-.36,0-.69,0-1,0a5.89,5.89,0,0,0,.05-.88v-2.54a5.72,5.72,0,0,0-.05-.85,9,9,0,0,0,1,.05h1.72v-.58Zm.72,1.54v.67h1.48v-.67Zm0,1.55v.7h1.48V253Zm2.66-.88h1.6v-.67h-1.6Zm0,1.58h1.6V253h-1.6Z"/><path class="cls-9" d="M272.22,253.23h1.45a6.76,6.76,0,0,0,1.09-.06v1.05a6.43,6.43,0,0,0-1.07-.06H269c-.3,0-.5,0-.9,0,0-.31,0-.52,0-.91v-1c0-.41,0-.49,0-.9a3.09,3.09,0,0,1-.58.68,3,3,0,0,0-.54-.8h-.45v1.87c.38-.13.55-.19,1.2-.44v1.17c-.57.23-.71.28-1.19.45V258a2.91,2.91,0,0,0,2.44-2.23h-.75a4.66,4.66,0,0,0-.85.06v-1.25a5.42,5.42,0,0,0,1,.06h3.94a8.61,8.61,0,0,0,1,0c-.06.22-.06.22-.16.55,0,.15-.14.45-.21.65h1a3.83,3.83,0,0,0,.87-.06c-.06.37-.06.4-.11.7a5,5,0,0,1-.6,2c-.27.38-.63.51-1.39.51-.36,0-.85,0-1.39-.07a3.35,3.35,0,0,0-.3-1.17,9,9,0,0,0,1.43.15c.38,0,.49,0,.61-.23a2.51,2.51,0,0,0,.27-.78H272a7.37,7.37,0,0,0-.75,0,8.64,8.64,0,0,0,.4-1.11h-1.43a4.14,4.14,0,0,1-1,2.07,4.69,4.69,0,0,1-2.08,1.28,6.81,6.81,0,0,0-.64-1c-.06.45-.19.62-.58.74a3.65,3.65,0,0,1-1.14.14l-.61,0a3.88,3.88,0,0,0-.26-1.26,5.89,5.89,0,0,0,1,.08c.31,0,.38-.07.38-.35v-2.67c-.3.09-.39.13-.65.2a5.24,5.24,0,0,0-.58.22l-.23-1.35a6.59,6.59,0,0,0,1.46-.31v-2.24h-.45a6.14,6.14,0,0,0-.88.05V250a4.13,4.13,0,0,0,.89.09h.44v-.93a7,7,0,0,0-.07-1.21h1.42a8.4,8.4,0,0,0-.08,1.2v.94h.17a3,3,0,0,0,.66-.06v.48a6.52,6.52,0,0,0,1.52-2.69l1.26.26a5,5,0,0,1-.49,1h1.48a4.56,4.56,0,0,0,.56-1.15l1.26.23a7.86,7.86,0,0,1-.55.92h1.17a7.18,7.18,0,0,0,1.08,0v1.08a5,5,0,0,0-.93-.06h-1.54v.48h1a6.76,6.76,0,0,0,1.1-.05v.95c-.28,0-.54,0-1.1,0h-1v.46h1a6.76,6.76,0,0,0,1.1,0v.95c-.25,0-.53,0-1.1,0h-1Zm-1.15-3.16H269.3v.48h1.77Zm0,1.35H269.3v.46h1.77Zm-1.77,1.33v.48h1.77v-.48Z"/><rect class="cls-9" x="211" y="236" width="72" height="4"/><polygon class="cls-9" points="201.64 238 213.18 244.66 213.18 231.34 201.64 238"/><polygon class="cls-9" points="289.03 238 277.49 231.34 277.49 244.66 289.03 238"/><path class="cls-4" d="M575.66,152.5h4.55l7,13.82h0V152.5h3.55V171h-4.53l-7.07-13.82h0V171h-3.55Z"/><path class="cls-4" d="M595,152.5h6.45c2.39,0,6,.69,6,4.74a4.12,4.12,0,0,1-3.68,4.13v0c2.52.24,4.24,1.94,4.24,4.21,0,4.66-4.19,5.35-6.52,5.35H595Zm3.7,7.47h1.51c1.56,0,3.5-.35,3.5-2.25,0-2.15-1.88-2.31-3.58-2.31h-1.43Zm0,8.1h1.75c1.72,0,3.81-.43,3.81-2.57,0-2.41-2-2.78-3.81-2.78h-1.75Z"/><path class="cls-4" d="M611.15,152.5h5.05c5.67,0,10.67,1.91,10.67,9.24s-5,9.24-10.67,9.24h-5.05Zm3.7,15.57h2.07a6.33,6.33,0,0,0,0-12.66h-2.07Z"/><path class="cls-4" d="M643.71,170.71a18.58,18.58,0,0,1-4.21.59c-6,0-10.14-3-10.14-9.24s3.87-9.88,10.14-9.88a12.23,12.23,0,0,1,4.19.77l-.27,3.12a7.66,7.66,0,0,0-4-1c-3.81,0-6.19,2.92-6.19,6.7s2.33,6.59,6.27,6.59a10.29,10.29,0,0,0,4-.76Z"/><circle class="cls-8" cx="131" cy="177" r="78"/><circle class="cls-8" cx="131" cy="177" r="78"/><path class="cls-4" d="M93.55,182.12a10.31,10.31,0,0,0-.1-1.56c.48,0,.77,0,1.52,0h2.17a4.3,4.3,0,0,1,3.24,1.05,4.83,4.83,0,0,1,1.33,3.64,5.06,5.06,0,0,1-1.41,3.81,4.26,4.26,0,0,1-3.14,1H95c-.73,0-1,0-1.52,0a9.8,9.8,0,0,0,.1-1.58Zm3.5,6.61a2.63,2.63,0,0,0,2.12-.77,3.78,3.78,0,0,0,.88-2.66,3.59,3.59,0,0,0-.83-2.57,2.72,2.72,0,0,0-2.16-.72H95.14v6.72Z"/><path class="cls-4" d="M103,182.12a10.31,10.31,0,0,0-.1-1.56c.48,0,.77,0,1.52,0h2.17a4.28,4.28,0,0,1,3.24,1.05,4.83,4.83,0,0,1,1.33,3.64,5.06,5.06,0,0,1-1.41,3.81,4.26,4.26,0,0,1-3.14,1H104.4c-.73,0-1,0-1.52,0a9.8,9.8,0,0,0,.1-1.58Zm3.5,6.61a2.63,2.63,0,0,0,2.12-.77,3.78,3.78,0,0,0,.88-2.66,3.59,3.59,0,0,0-.83-2.57,2.72,2.72,0,0,0-2.16-.72h-1.92v6.72Z"/><path class="cls-4" d="M113.85,190.14c-.7,0-1,0-1.54,0a8,8,0,0,0,.11-1.62v-6.51a9.93,9.93,0,0,0-.1-1.48c.51,0,.7,0,1.52,0h2.83c1.86,0,2.9.84,2.9,2.34a2.16,2.16,0,0,1-.67,1.69,2,2,0,0,1-1,.5,2.17,2.17,0,0,1,1.21.55,2.39,2.39,0,0,1,.75,1.84c0,1.68-1.12,2.62-3.11,2.62Zm2.65-5.63A1.27,1.27,0,0,0,118,183.2a1.24,1.24,0,0,0-.31-.89,1.71,1.71,0,0,0-1.15-.37H114v2.57Zm-2.5,4.28h2.58c1.07,0,1.67-.53,1.67-1.5a1.3,1.3,0,0,0-.38-1,1.94,1.94,0,0,0-1.31-.41H114Z"/><path class="cls-4" d="M126.52,180.6a9.11,9.11,0,0,0-.1,1.54v5.38a2.8,2.8,0,0,1-.65,2,3,3,0,0,1-2.32.84,3.11,3.11,0,0,1-2.44-.9,3.75,3.75,0,0,1-.68-1.13l1.58-.58a1.57,1.57,0,0,0,.65,1,1.72,1.72,0,0,0,.9.23,1.41,1.41,0,0,0,1-.38,1.53,1.53,0,0,0,.29-1v-5.35a9.35,9.35,0,0,0-.09-1.54Z"/><path class="cls-4" d="M141.19,183.15a2.94,2.94,0,0,0-.33.59,8.8,8.8,0,0,1-2.94,3.5,4,4,0,0,0-1.2-1,6.18,6.18,0,0,0,2-1.69,7.65,7.65,0,0,0,.45-.71,3.79,3.79,0,0,1-.45.07c-1.21.15-2.45.3-3.7.48v2.7a4.65,4.65,0,0,0,.05,1c.08.47.47.6,1.69.6a13.63,13.63,0,0,0,3.68-.46l.08,1.61-.74,0a25.44,25.44,0,0,1-3,.21,8.24,8.24,0,0,1-2.13-.21,1.58,1.58,0,0,1-1-1.1,4.82,4.82,0,0,1-.12-1.51v-2.75l-1.12.15A6.44,6.44,0,0,0,131,185l-.15-1.48h.29a9.11,9.11,0,0,0,1-.09l1.27-.15V181.6a6,6,0,0,0-.07-1.14h1.66a5.78,5.78,0,0,0-.08,1.12v1.51l4.37-.53a2.16,2.16,0,0,0,.92-.2Z"/><path class="cls-4" d="M143.32,188.56a11.43,11.43,0,0,0,3.55-.89,7.94,7.94,0,0,0,3.56-2.93,10,10,0,0,0,1.23-2.4,5.08,5.08,0,0,0,1.27,1.17,10.51,10.51,0,0,1-3.8,4.7,12.89,12.89,0,0,1-4.57,1.8,4.36,4.36,0,0,0-.8.21Zm1-7.45a16.64,16.64,0,0,1,3.09,2.32l-1,1.31a12.45,12.45,0,0,0-3.06-2.44Z"/><path class="cls-4" d="M164.17,182.19a2.26,2.26,0,0,0-.37.81,19,19,0,0,1-1.54,3.29,11.68,11.68,0,0,1-5.46,4.59,3.8,3.8,0,0,0-1-1.24,12.09,12.09,0,0,0,2.34-1.2,8.74,8.74,0,0,0,2-1.67,13.45,13.45,0,0,0-2.46-1.71l.91-1.07A15.1,15.1,0,0,1,161,185.6a11.41,11.41,0,0,0,1.34-2.83l-3.73,0a12.29,12.29,0,0,1-2.8,3.23,4,4,0,0,0-1.2-1,10.19,10.19,0,0,0,3-3.42,6.76,6.76,0,0,0,.69-1.66l1.56.34c-.13.22-.13.22-.36.67a4.85,4.85,0,0,1-.29.58c.2,0,.2,0,3.12-.05a3.09,3.09,0,0,0,1.06-.14Z"/><path class="cls-4" d="M166.25,184.57a12.28,12.28,0,0,0,1.95.08h6.39a12.13,12.13,0,0,0,1.94-.08v1.66a13.1,13.1,0,0,0-1.95-.06h-6.37a13.28,13.28,0,0,0-2,.06Z"/><path class="cls-4" d="M331.39,164.21a5.72,5.72,0,0,0-.34.75,8.42,8.42,0,0,1-2.78,4.06,10.8,10.8,0,0,1-3.14,1.63,4,4,0,0,0-.94-1.39,7.83,7.83,0,0,0,3.34-1.59,6.2,6.2,0,0,0,1.93-2.8h-5.84a12,12,0,0,0-1.54.06v-1.47a7.76,7.76,0,0,0,1.56.09h5.71a5.46,5.46,0,0,0,1.36-.11Zm-8.29-3.64a6.27,6.27,0,0,0,1.41.09h4.18a6.27,6.27,0,0,0,1.41-.09v1.48a9.1,9.1,0,0,0-1.38-.06h-4.24a8.94,8.94,0,0,0-1.38.06Z"/><path class="cls-4" d="M342.74,161.22a5.86,5.86,0,0,0-.44.42,20.61,20.61,0,0,1-2.83,2.47v5.12a8.74,8.74,0,0,0,.06,1.33h-1.68a6.66,6.66,0,0,0,.07-1.29v-4.22a19.19,19.19,0,0,1-4.28,1.94,4.52,4.52,0,0,0-.8-1.37,17.43,17.43,0,0,0,6.29-3.12,9.21,9.21,0,0,0,2.23-2.24Z"/><path class="cls-4" d="M354.35,161.92a1.65,1.65,0,0,0-.21.54,11.25,11.25,0,0,1-2.46,5,11.53,11.53,0,0,1-4.46,3.06,4.33,4.33,0,0,0-1.05-1.43,9.68,9.68,0,0,0,2.62-1.22,8.32,8.32,0,0,0,3.64-5.23h-5.71a9.5,9.5,0,0,0-1.51.07v-1.56a7.65,7.65,0,0,0,1.53.09h5.51a4.57,4.57,0,0,0,1.28-.12Z"/><path class="cls-4" d="M362.78,162.61l0-.54v-.38a8.54,8.54,0,0,0-.06-1.33h1.54a5.18,5.18,0,0,0,0,.8c0,.73,0,.73,0,1.45H365a8.82,8.82,0,0,0,1.56-.08V164a11.83,11.83,0,0,0-1.54-.06h-.8a14.22,14.22,0,0,1-.08,2,4.82,4.82,0,0,1-1.73,3.44,6.66,6.66,0,0,1-2.34,1.26,3.6,3.6,0,0,0-.9-1.27,5.48,5.48,0,0,0,2.29-1.14,3.71,3.71,0,0,0,1.27-2.88c0-.27,0-.56,0-1.39h-3.1v1.8a8.91,8.91,0,0,0,0,1h-1.55a9.54,9.54,0,0,0,0-1v-1.78h-.73a11.74,11.74,0,0,0-1.53.06v-1.46a8.63,8.63,0,0,0,1.55.08h.71v-1.2a6.1,6.1,0,0,0-.06-1.06h1.57a7.05,7.05,0,0,0,0,1v1.23Z"/><path class="cls-4" d="M377.3,161.22a5.86,5.86,0,0,0-.44.42,20.61,20.61,0,0,1-2.83,2.47v5.12a8.74,8.74,0,0,0,.06,1.33h-1.68a6.66,6.66,0,0,0,.07-1.29v-4.22A19.19,19.19,0,0,1,368.2,167a4.52,4.52,0,0,0-.8-1.37,17.43,17.43,0,0,0,6.29-3.12,9.4,9.4,0,0,0,2.23-2.24Z"/><path class="cls-4" d="M385,167.9h2.9a8.89,8.89,0,0,0,1.56-.08v1.51a11.92,11.92,0,0,0-1.54-.06h-7.19a12.11,12.11,0,0,0-1.54.06v-1.51a8.89,8.89,0,0,0,1.56.08h2.71V163h-1.83A12.11,12.11,0,0,0,380,163v-1.5a8.81,8.81,0,0,0,1.56.09h5.34a8.81,8.81,0,0,0,1.56-.09V163A11.83,11.83,0,0,0,387,163h-2Z"/><path class="cls-4" d="M391.24,168.56a11.43,11.43,0,0,0,3.55-.89,8,8,0,0,0,3.56-2.93,9.66,9.66,0,0,0,1.22-2.4,5.12,5.12,0,0,0,1.28,1.17,10.46,10.46,0,0,1-3.81,4.7,12.73,12.73,0,0,1-4.57,1.8,4.21,4.21,0,0,0-.79.21Zm1-7.45a16.64,16.64,0,0,1,3.09,2.32l-1,1.31a12.45,12.45,0,0,0-3.06-2.44Z"/><path class="cls-4" d="M411.36,170.4a23.5,23.5,0,0,0-3.68-3.57,14.4,14.4,0,0,1-4.57,3.47,4.89,4.89,0,0,0-1-1.33,9.61,9.61,0,0,0,2.39-1.32,11.49,11.49,0,0,0,4-4.88l.14-.31-4,.07a9.27,9.27,0,0,0-1.31.09l-.05-1.53a5.35,5.35,0,0,0,1.06.07h.28l4.23-.06A2.5,2.5,0,0,0,410,161l.79.81a2.42,2.42,0,0,0-.38.65,15.62,15.62,0,0,1-1.87,3.31,19.46,19.46,0,0,1,2.22,1.74c.3.27.3.27,1.75,1.67Z"/><path class="cls-4" d="M298.16,178a3.85,3.85,0,0,0,.67,0h.23c.22-.29.35-.47.57-.78a11.71,11.71,0,0,0-1.5-1.87l.64-1,.39.44a7.09,7.09,0,0,0,.89-2l1.19.51a2.06,2.06,0,0,0-.23.41,14.6,14.6,0,0,1-1.13,1.94,6.77,6.77,0,0,1,.42.57,11.06,11.06,0,0,0,1.12-2.07l1.14.58-.31.47-.1.15-.1.15a4.58,4.58,0,0,0,1.48-1.46,4.3,4.3,0,0,0,.57-1.1l1.17.57a.27.27,0,0,0-.06.09l-.13.21a7.75,7.75,0,0,1-2.25,2.72,2.87,2.87,0,0,0-.82-1,25.31,25.31,0,0,1-1.65,2.37c.6,0,.72,0,1.25-.08a7.27,7.27,0,0,0-.35-.78l.81-.36a10.93,10.93,0,0,1,.88,2.33l-.92.34c0-.24-.06-.31-.11-.51l-.36,0-.48,0v3.78a9.55,9.55,0,0,0,.07,1.26h-1.29a9,9,0,0,0,.07-1.26v-3.7a9.79,9.79,0,0,0-1.64.14Zm1.5,1.83a15.17,15.17,0,0,1-.5,3.58l-1-.45a11.3,11.3,0,0,0,.51-3.29Zm2,2.33a11.3,11.3,0,0,0-.32-2.32l.89-.24a11.57,11.57,0,0,1,.36,2,7.07,7.07,0,0,0,.25-1.55l1.08.24a10.82,10.82,0,0,1-.75,3.12l-1.09-.63a6,6,0,0,0,.41-.87Zm6.19-3c-.24-.51-.3-.64-.47-1-.9.14-.93.16-2.22.28a10.2,10.2,0,0,1,1.75,1.3l-.83.88a6.44,6.44,0,0,0-1.88-1.54l.75-.62-2,.2-.17-1.25a3,3,0,0,0,.41,0h.38a10,10,0,0,0,.63-1.11,8.22,8.22,0,0,0,.71-1.68l1.23.39-.5,1a13.84,13.84,0,0,1-.76,1.37c1.17-.09,1.32-.1,1.92-.17-.23-.37-.36-.55-.73-1.06l1-.52a21.26,21.26,0,0,1,1.86,2.8Zm-2.49.8a5,5,0,0,0-.05.77v1.79c0,.26,0,.27.56.27a.89.89,0,0,0,.53-.12c.13-.14.16-.35.17-1.26a2.47,2.47,0,0,0,1.08.36c-.16,2-.33,2.14-2.08,2.14a2.34,2.34,0,0,1-1.2-.21c-.15-.1-.23-.3-.23-.64v-2.2a6.69,6.69,0,0,0-.06-.9Zm1.63-7a6.32,6.32,0,0,0,2.42,2.31,3.71,3.71,0,0,0-.7,1.14,8.18,8.18,0,0,1-2.56-2.55,2.36,2.36,0,0,1-.22-.28Zm1.2,6.71a14.63,14.63,0,0,1,1.17,3l-1.17.56a11.55,11.55,0,0,0-1-3.12Z"/><path class="cls-4" d="M312.07,176.9a12.43,12.43,0,0,1-1.91,1,4.86,4.86,0,0,0-.7-1.22,12.14,12.14,0,0,0,3.06-1.73,8.34,8.34,0,0,0,1.88-2h1.43a7.69,7.69,0,0,0,2,2,11.74,11.74,0,0,0,3.06,1.64,6.51,6.51,0,0,0-.66,1.32,12.06,12.06,0,0,1-1.95-1.06v.84a10,10,0,0,0-1.08-.05h-4.1c-.39,0-.72,0-1,.05Zm-1,7a9.21,9.21,0,0,0,.07-1.27v-2.79c0-.5,0-.84-.05-1.19a8.51,8.51,0,0,0,1,.05h6a9.15,9.15,0,0,0,1.05-.05,7.85,7.85,0,0,0-.06,1.19v2.8a7.52,7.52,0,0,0,.07,1.26h-1.43v-.61h-5.24v.61Zm1.43-1.79h5.24v-2.25h-5.24Zm4.67-5.69h.4a11.26,11.26,0,0,1-2.47-2.34,8.31,8.31,0,0,1-2.35,2.34h4.42Z"/><path class="cls-4" d="M327.61,178.12a6.44,6.44,0,0,1-.84,3.22,5.68,5.68,0,0,1-3.13,2.37,3.77,3.77,0,0,0-1-1.33,4.53,4.53,0,0,0,2.84-2,5.13,5.13,0,0,0,.53-2.27h-2.91a11.56,11.56,0,0,0-1.53.06v-1.43a8.76,8.76,0,0,0,1.55.08h7a8.7,8.7,0,0,0,1.54-.08v1.43a11.48,11.48,0,0,0-1.52-.06Zm2.75-4a6.44,6.44,0,0,1,.84,1.68l-.92.39a6.76,6.76,0,0,0-.8-1.65v.64a10.85,10.85,0,0,0-1.52-.06h-3.63a11.11,11.11,0,0,0-1.53.06v-1.46a8.5,8.5,0,0,0,1.55.08h3.59a8.31,8.31,0,0,0,1.54-.08v.74Zm1.26,1.53a8.22,8.22,0,0,0-.83-1.65l.89-.34a6.36,6.36,0,0,1,.84,1.6Z"/><path class="cls-4" d="M333.05,177.57a12.2,12.2,0,0,0,1.94.08h6.4a12.2,12.2,0,0,0,1.94-.08v1.66a13.19,13.19,0,0,0-2-.06H335a13.19,13.19,0,0,0-2,.06Z"/><path class="cls-4" d="M354.25,175.19a2.09,2.09,0,0,0-.37.81,20.6,20.6,0,0,1-1.54,3.29,11.66,11.66,0,0,1-5.47,4.59,3.78,3.78,0,0,0-1-1.24,12.09,12.09,0,0,0,2.34-1.2,8.47,8.47,0,0,0,2-1.67,13.05,13.05,0,0,0-2.45-1.71l.91-1.07a15.1,15.1,0,0,1,2.41,1.61,11.41,11.41,0,0,0,1.34-2.83l-3.73,0a12.29,12.29,0,0,1-2.8,3.23,4,4,0,0,0-1.2-1,10.3,10.3,0,0,0,3-3.42,7.66,7.66,0,0,0,.69-1.66l1.56.34c-.13.22-.13.22-.36.67a4.85,4.85,0,0,1-.29.58c.19,0,.19,0,3.12-.05a3.09,3.09,0,0,0,1.06-.14Z"/><path class="cls-4" d="M355.7,179.2a2.52,2.52,0,0,0,.43-.35c.35-.35,1.52-1.74,2.14-2.55a3.67,3.67,0,0,1,.9-.94,1.45,1.45,0,0,1,.82-.24c.59,0,.88.19,1.79,1.22a41.27,41.27,0,0,0,3.88,3.83,8.93,8.93,0,0,0,1.14.9l-.75,1.64a60.67,60.67,0,0,1-5.08-5.06c-.76-.84-.76-.84-1-.84s-.24,0-.73.7-1.31,1.66-2.15,2.67c-.18.21-.24.29-.4.49Zm8.22-4.25a6.21,6.21,0,0,1,1.17,1.63l-.9.51a7.35,7.35,0,0,0-1.17-1.66Zm1.56,1.38a7.85,7.85,0,0,0-1.12-1.59l.86-.47a6.22,6.22,0,0,1,1.14,1.56Z"/><path class="cls-4" d="M367.61,177.57a12.2,12.2,0,0,0,1.94.08H376a12.2,12.2,0,0,0,1.94-.08v1.66a13.1,13.1,0,0,0-1.95-.06h-6.37a13.19,13.19,0,0,0-2,.06Z"/><path class="cls-4" d="M388.32,183.4a23.5,23.5,0,0,0-3.68-3.57,14.4,14.4,0,0,1-4.57,3.47,4.89,4.89,0,0,0-1-1.33,9.61,9.61,0,0,0,2.39-1.32,11.49,11.49,0,0,0,4-4.88l.14-.31-4,.07a9.27,9.27,0,0,0-1.31.09l-.05-1.53a5.35,5.35,0,0,0,1.06.07h.28l4.23-.06A2.5,2.5,0,0,0,387,174l.79.81a2.42,2.42,0,0,0-.38.65,15.62,15.62,0,0,1-1.87,3.31,19.46,19.46,0,0,1,2.22,1.74c.3.27.3.27,1.75,1.67Z"/><path class="cls-4" d="M400.87,176.15a3.45,3.45,0,0,0-.34.59,8.69,8.69,0,0,1-2.93,3.5,4,4,0,0,0-1.2-1,6.28,6.28,0,0,0,2-1.69c.16-.24.24-.35.45-.71a3.79,3.79,0,0,1-.45.07c-1.22.15-2.45.3-3.7.48v2.7a4.65,4.65,0,0,0,.05,1c.08.47.47.6,1.69.6a13.63,13.63,0,0,0,3.68-.46l.07,1.61-.73,0a25.44,25.44,0,0,1-3,.21,8.38,8.38,0,0,1-2.14-.21,1.56,1.56,0,0,1-1-1.1,4.52,4.52,0,0,1-.12-1.51v-2.75l-1.12.15a6.44,6.44,0,0,0-1.34.22l-.15-1.48h.29a9.11,9.11,0,0,0,1.05-.09l1.27-.15V174.6a6,6,0,0,0-.07-1.14h1.66a5.78,5.78,0,0,0-.08,1.12v1.51l4.37-.53a2.16,2.16,0,0,0,.92-.2Z"/><path class="cls-4" d="M402.76,181.56a11.43,11.43,0,0,0,3.55-.89,8,8,0,0,0,3.56-2.93,9.66,9.66,0,0,0,1.22-2.4,5.12,5.12,0,0,0,1.28,1.17,10.46,10.46,0,0,1-3.81,4.7A12.73,12.73,0,0,1,404,183a4.44,4.44,0,0,0-.79.21Zm1-7.45a16.64,16.64,0,0,1,3.09,2.32l-1,1.31a12.45,12.45,0,0,0-3.06-2.44Z"/><path class="cls-4" d="M423.37,175.19a2.09,2.09,0,0,0-.37.81,19.77,19.77,0,0,1-1.54,3.29,11.66,11.66,0,0,1-5.47,4.59,3.78,3.78,0,0,0-1-1.24,12.09,12.09,0,0,0,2.34-1.2,8.47,8.47,0,0,0,2-1.67,13.05,13.05,0,0,0-2.45-1.71l.91-1.07a15.1,15.1,0,0,1,2.41,1.61,11.41,11.41,0,0,0,1.34-2.83l-3.73,0A12.29,12.29,0,0,1,415,179a4,4,0,0,0-1.2-1,10.3,10.3,0,0,0,3-3.42,7.66,7.66,0,0,0,.69-1.66l1.56.34c-.13.22-.13.22-.36.67a4.85,4.85,0,0,1-.29.58c.19,0,.19,0,3.12-.05a3.09,3.09,0,0,0,1.06-.14Z"/><path class="cls-4" d="M425.21,177.57a12.28,12.28,0,0,0,2,.08h6.39a12.13,12.13,0,0,0,1.94-.08v1.66a13.19,13.19,0,0,0-2-.06h-6.36a13.19,13.19,0,0,0-2,.06Z"/><path d="M345.41,209.26a11.26,11.26,0,0,0-1.62-.08h-7.26a14.25,14.25,0,0,0-1.73.08v-1.52a15.51,15.51,0,0,0,1.69.07h7.26a15.77,15.77,0,0,0,1.66-.07Zm-9.78-9.7a9.67,9.67,0,0,0,1.52.09H343a10.84,10.84,0,0,0,1.58-.09v1.51A12,12,0,0,0,343,201h-5.84a10.31,10.31,0,0,0-1.55.07Zm.77,3.94a11.37,11.37,0,0,0,1.38.07h4.65a13.83,13.83,0,0,0,1.39-.07V205a11.79,11.79,0,0,0-1.38-.06H337.8a11.17,11.17,0,0,0-1.4.06Z"/><path d="M349.79,206.76h-1c-.45,0-.65,0-1,0,0-.36.05-.68.05-1.23V200.9c0-.4,0-.74-.06-1.07a9.54,9.54,0,0,0,1,0h1.45a5.23,5.23,0,0,0,.46-1.06l1.41.13c-.16.33-.34.67-.5.93h2.7a9.31,9.31,0,0,0,1,0,6.07,6.07,0,0,0,0,.92v2a9.21,9.21,0,0,0,0,1c-.34,0-.64,0-1,0h-5.25v.55h7a7,7,0,0,0,1.13-.06v1.12a8.14,8.14,0,0,0-1.16-.06h-7v.56H356a5.39,5.39,0,0,0,.9,0,2.24,2.24,0,0,1,0,.24s0,.09,0,.16,0,.12-.07.73a10.76,10.76,0,0,1-.38,2.15,1.39,1.39,0,0,1-.69.74,3,3,0,0,1-1.14.15l-.54,0a3.6,3.6,0,0,0-.14-.7l-.68,0h-5v.47h-1.31a5.87,5.87,0,0,0,.07-1v-.83a4.23,4.23,0,0,0-.06-.73h1.33a3.57,3.57,0,0,0,0,.59V208h1.57Zm4.23-5.41v-.52h-4.91v.52Zm-4.91,1.38H354v-.54h-4.91ZM352.7,208v-.38a5.32,5.32,0,0,0,0-.6H354a6.91,6.91,0,0,0,0,.73v.92a6.52,6.52,0,0,0,.85.06c.34,0,.46-.08.54-.37a9.51,9.51,0,0,0,.24-1.59H351V208Z"/><path d="M379.56,202.31a7.85,7.85,0,0,0,1.51,2.29,3.29,3.29,0,0,0-.68,1.08,7.06,7.06,0,0,1-1-1.84c.06,1,.06,1.06.06,1.65v3.08a11.43,11.43,0,0,0,.07,1.46h-1.37a11.64,11.64,0,0,0,.07-1.46v-2.48c0-.81.05-1.36.07-1.65a10.86,10.86,0,0,1-.64,1.73,9.66,9.66,0,0,1-.66,1.15,6.08,6.08,0,0,0-.66-1.25,10,10,0,0,0,1.7-3.76h-.62a5.42,5.42,0,0,0-.88.05V201a6.8,6.8,0,0,0,.89,0h.79v-.93a7.72,7.72,0,0,0-.06-1.25h1.36a9.55,9.55,0,0,0-.06,1.24v.94H380a5.78,5.78,0,0,0,.77,0v1.3c-.25,0-.49,0-.75,0Zm3.41-1.6a7.09,7.09,0,0,0,.5-1.92l1.42.34c-.29.84-.48,1.35-.58,1.58h1.55a12.09,12.09,0,0,0,1.21,0,9.73,9.73,0,0,0-.05,1.19v6.72c0,.49,0,1,.07,1.38h-1.36v-.65H382.4V210h-1.35c0-.32.06-.78.06-1.42v-6.65a10.28,10.28,0,0,0-.05-1.22c.37,0,.61,0,1.26,0Zm-.57,3.55h3.33v-2.32H382.4Zm0,3.79h3.33v-2.61H382.4Z"/><path class="cls-4" d="M101.79,152.5h5c5.67,0,10.67,1.91,10.67,9.24s-5,9.24-10.67,9.24h-5Zm3.7,15.57h2.07a6.33,6.33,0,0,0,0-12.66h-2.07Z"/><path class="cls-4" d="M120.91,152.5h5c5.67,0,10.67,1.91,10.67,9.24S131.63,171,126,171h-5Zm3.7,15.57h2.07a6.33,6.33,0,0,0,0-12.66h-2.07Z"/><path class="cls-4" d="M140,152.5h6.46c2.39,0,6,.69,6,4.74a4.12,4.12,0,0,1-3.68,4.13v0c2.52.24,4.24,1.94,4.24,4.21,0,4.66-4.19,5.35-6.52,5.35H140Zm3.71,7.47h1.51c1.56,0,3.49-.35,3.49-2.25,0-2.15-1.88-2.31-3.57-2.31h-1.43Zm0,8.1h1.75c1.72,0,3.81-.43,3.81-2.57,0-2.41-2-2.78-3.81-2.78h-1.75Z"/><path class="cls-4" d="M154.64,167.75a4.91,4.91,0,0,0,1.77.32c2.41,0,2.41-1.94,2.41-3.26V152.5h3.71v14.08a4.66,4.66,0,0,1-5.06,4.72,10.3,10.3,0,0,1-2.83-.35Z"/><path class="cls-4" d="M111.16,47.5h4.55l7.05,13.82h0V47.5h3.55V66h-4.53l-7.07-13.82h-.05V66h-3.55Z"/><path class="cls-4" d="M130.15,47.5h3.7V66h-3.7Z"/><path class="cls-4" d="M152.25,51.07a12.11,12.11,0,0,0-4.76-1c-4.32,0-6.7,2.92-6.7,6.7s2.33,6.59,6.28,6.59a10,10,0,0,0,2.43-.26V58.3h-3.92V55.39h7.47v10a23.32,23.32,0,0,1-6,1c-6,0-10.14-3-10.14-9.24s3.86-9.88,10.14-9.88a18.11,18.11,0,0,1,5.42.77Z"/><path class="cls-4" d="M347.22,47.5h5.06C358,47.5,363,49.41,363,56.74S358,66,352.28,66h-5.06Zm3.71,15.57H353a6.33,6.33,0,0,0,0-12.66h-2.06Z"/><path class="cls-4" d="M376.27,50.89a9.6,9.6,0,0,0-3.76-.8c-1.27,0-2.91.56-2.91,2.57,0,3.21,8.1,1.86,8.1,8.05,0,4.05-3.2,5.59-6.94,5.59a16.2,16.2,0,0,1-4.73-.72l.34-3.33a9,9,0,0,0,4.18,1.13c1.4,0,3.28-.71,3.28-2.38,0-3.52-8.1-2.06-8.1-8.18,0-4.13,3.21-5.64,6.46-5.64a14,14,0,0,1,4.43.66Z"/></g></svg>