<?xml version="1.0" encoding="utf-8"?>
<!-- Generator: Adobe Illustrator 21.1.0, SVG Export Plug-In . SVG Version: 6.00 Build 0)  -->
<svg version="1.1" id="レイヤー_1" xmlns="http://www.w3.org/2000/svg" xmlns:xlink="http://www.w3.org/1999/xlink" x="0px"
	 y="0px" viewBox="0 0 705 322" style="enable-background:new 0 0 705 322;" xml:space="preserve">
<style type="text/css">
	.st0{fill:#F4E9C3;}
	.st1{fill:#97BDC0;}
	.st2{fill:#004098;}
	.st3{fill:#FFFFFF;}
	.st4{opacity:0.5;}
	.st5{opacity:0.5;fill:#7E8060;enable-background:new    ;}
	.st6{fill:#807360;}
	.st7{fill:#938878;}
	.st8{fill:#274D7A;}
</style>
<title>アートボード 65-22</title>
<rect class="st0" width="495" height="322"/>
<rect x="505" class="st0" width="200" height="322"/>
<circle class="st1" cx="361" cy="143" r="112"/>
<circle class="st2" cx="361" cy="177" r="78"/>
<path class="st3" d="M323.4,136h5.1c5.7,0,10.7,1.9,10.7,9.2s-5,9.2-10.7,9.2h-5.1V136z M327.1,151.6h2.1c3.5-0.1,6.2-3.1,6.1-6.6
	c-0.1-3.3-2.8-5.9-6.1-6.1h-2.1V151.6z"/>
<path class="st3" d="M342.5,136h6.5c2.4,0,6,0.7,6,4.7c0,2.1-1.6,3.9-3.7,4.1l0,0c2.5,0.2,4.2,1.9,4.2,4.2c0,4.7-4.2,5.4-6.5,5.4
	h-6.5L342.5,136z M346.2,143.5h1.5c1.6,0,3.5-0.3,3.5-2.2c0-2.1-1.9-2.3-3.6-2.3h-1.4V143.5z M346.2,151.6h1.8
	c1.7,0,3.8-0.4,3.8-2.6c0-2.4-2-2.8-3.8-2.8h-1.8V151.6z"/>
<path class="st3" d="M372.2,154.2c-1.4,0.4-2.8,0.5-4.2,0.6c-6,0-10.1-3-10.1-9.2s3.9-9.9,10.1-9.9c1.4,0,2.8,0.3,4.2,0.8l-0.3,3.1
	c-1.2-0.7-2.6-1-4-1c-3.8,0-6.2,2.9-6.2,6.7s2.3,6.6,6.3,6.6c1.4,0,2.8-0.2,4-0.8L372.2,154.2z"/>
<path class="st3" d="M374.9,136h3.7v15.6h7.2v2.9h-10.9V136z"/>
<path class="st3" d="M398.1,139.4c-1.2-0.5-2.5-0.8-3.8-0.8c-1.3,0-2.9,0.6-2.9,2.6c0,3.2,8.1,1.9,8.1,8c0,4.1-3.2,5.6-6.9,5.6
	c-1.6,0-3.2-0.2-4.7-0.7l0.4-3.3c1.3,0.7,2.7,1.1,4.2,1.1c1.4,0,3.3-0.7,3.3-2.4c0-3.5-8.1-2.1-8.1-8.2c0-4.1,3.2-5.6,6.5-5.6
	c1.5,0,3,0.2,4.4,0.7L398.1,139.4z"/>
<path class="st3" d="M374.4,192.6H392c2.2,0,4,1.8,4,4V212c0,2.2-1.8,4-4,4h-17.6c-2.2,0-4-1.8-4-4v-15.4
	C370.4,194.4,372.2,192.6,374.4,192.6z"/>
<path class="st3" d="M331.7,192.6h30.3c2.2,0,4,1.8,4,4V212c0,2.2-1.8,4-4,4h-30.3c-2.2,0-4-1.8-4-4v-15.4
	C327.7,194.4,329.5,192.6,331.7,192.6z"/>
<g class="st4">
	<circle class="st5" cx="130" cy="142" r="111"/>
	<circle class="st6" cx="130" cy="142" r="111"/>
</g>
<circle class="st6" cx="608" cy="177" r="78"/>
<circle class="st7" cx="608" cy="177" r="78"/>
<path class="st3" d="M82.9,72.7c0-0.5,0-1-0.1-1.4c0.5,0,0.9,0.1,1.4,0.1h7.6c0.6,0,1,0,1.4-0.1c-0.1,0.5-0.1,1-0.1,1.4v7.7
	c0,0.5,0,1.1,0.1,1.6h-1.4v-0.7h-7.7V82h-1.4c0.1-0.5,0.1-1,0.1-1.6V72.7z M84.2,80.1h7.7v-7.6h-7.7V80.1z M86,74.4
	c-0.4,0-0.7,0-1.1,0.1v-1.2c0.4,0.1,0.7,0.1,1.1,0.1h4c0.4,0,0.7,0,1.1-0.1v1.2c-0.4-0.1-0.7-0.1-1.1-0.1h-1.5v1.2h1.2
	c0.3,0,0.7,0,1-0.1v1.2c-0.3,0-0.5-0.1-0.8-0.1c0.3,0.4,0.6,0.7,0.8,1.2l-0.7,0.4c0.4,0,0.8,0,1.2-0.1v1.2c-0.4-0.1-0.7-0.1-1.1-0.1
	h-4.3c-0.4,0-0.8,0-1.1,0.1v-1.3c0.4,0.1,0.8,0.1,1.1,0.1h1.4v-1.5h-1c-0.3,0-0.7,0-1,0.1v-1.2c0.3,0.1,0.7,0.1,1,0.1h1v-1.2H86z
	 M88.6,78.2h1.3c-0.2-0.4-0.5-0.8-0.8-1.2l0.6-0.3h-1.2L88.6,78.2z"/>
<path class="st3" d="M100.4,80.1c0.8-1.8,1.4-3.8,1.8-5.8l1.5,0.4c-0.2,0.4-0.3,0.8-0.4,1.2c-0.4,1.4-0.9,2.8-1.5,4.2h2.2
	c0.6,0,1.1,0,1.5-0.1v1.4c-0.5-0.1-1-0.1-1.5-0.1h-7.8c-0.5,0-1,0-1.6,0.1V80c0.4,0,0.9,0.1,1.6,0.1L100.4,80.1z M99.2,71.9
	c0-0.3,0-0.6-0.1-0.9h1.5c-0.1,0.3-0.1,0.6-0.1,0.9v0.8h2.9c0.5,0,1,0,1.6-0.1v1.4c-0.5-0.1-1-0.1-1.6-0.1h-7c-0.5,0-1,0-1.5,0.1
	v-1.4c0.5,0.1,1,0.1,1.5,0.1h2.7L99.2,71.9z M97.7,74.4c0.6,1.5,1,3.1,1.4,4.7l-1.3,0.5c-0.3-1.6-0.7-3.2-1.3-4.7L97.7,74.4z"/>
<path class="st3" d="M109.2,79.4c0.3,0.5,0.8,0.9,1.4,1c-0.2-0.3-0.4-0.5-0.7-0.8c0.7-0.1,1.3-0.3,1.9-0.7h-0.7c-0.3,0-0.7,0-1,0
	c0-0.3,0-0.6,0-0.9v-2.2c0-0.4,0-0.7,0-0.9c0.4,0,0.5,0,1,0h4.6c0.5,0,0.7,0,1,0c0,0.2,0,0.5,0,0.9v2.3c0,0.4,0,0.7,0,1
	c-0.4,0-0.6,0-1,0h-0.5c0.7,0.3,1.4,0.5,2.1,0.6c-0.2,0.3-0.4,0.5-0.6,0.8l1.1-0.1c-0.2,0.4-0.3,0.9-0.4,1.3c-1.2,0-2.8,0.1-4.3,0.1
	c-2.1,0-2.7-0.1-3.5-0.5c-0.4-0.2-0.7-0.5-1-0.9c-0.5,0.5-1.1,1-1.7,1.4l-0.6-1.4c0.6-0.3,1.2-0.7,1.7-1.2v-2.6h-0.6
	c-0.3,0-0.5,0-0.8,0.1v-1.3c0.3,0.1,0.7,0.1,1,0.1h0.9c0.3,0,0.6,0,0.9,0c0,0.4-0.1,0.9-0.1,1.3L109.2,79.4z M107.6,71
	c0.7,0.6,1.4,1.4,2,2.2l-1,0.9c-0.5-0.8-1.2-1.6-1.9-2.2L107.6,71z M115.9,71.4c0.3,0,0.7,0,1,0c0,0.2,0,0.5,0,0.8v0.5
	c0,0.2,0,0.5,0,0.8c-0.3,0-0.6,0-1,0h-1.9v0.3h2.5c0.4,0,0.7,0,1.1-0.1v1c-0.4-0.1-0.7-0.1-1.1-0.1h-6.2c-0.4,0-0.7,0-1.1,0.1v-1
	c0.4,0.1,0.7,0.1,1.1,0.1h2.4v-0.3h-1.8c-0.4,0-0.8,0-1,0c0-0.3,0-0.5,0-0.8v-0.5c0-0.2,0-0.5-0.1-0.7c0.3,0,0.7,0,1,0h1.9
	c0-0.3,0-0.4,0-0.6h1.3c0,0.2,0,0.4,0,0.6L115.9,71.4z M111.1,72.2v0.4h1.6v-0.4L111.1,72.2z M113.1,79.5c-0.6,0.4-1.3,0.8-2,1
	c0.5,0.1,1,0.1,1.5,0.1c1,0,2.5,0,3.4-0.1c-0.8-0.2-1.5-0.6-2.2-1l0.6-0.5h-2.1L113.1,79.5z M111.4,76.1h4.2v-0.4h-4.2V76.1z
	 M111.4,77.1h4.2v-0.3h-4.2V77.1z M111.4,78.2h4.2v-0.4h-4.2V78.2z M114,72.6h1.7v-0.4H114V72.6z"/>
<path class="st3" d="M121.1,80.6c0,0.5,0,0.9,0.1,1.4h-1.4c0.1-0.5,0.1-1,0.1-1.4v-3.5c0-0.6,0-0.9,0-1.3c-0.3,0.5-0.6,1-1,1.4
	c-0.2-0.5-0.4-1-0.7-1.4c0.8-0.9,1.5-1.9,2-3.1c0.3-0.6,0.4-1.2,0.6-1.9l1.4,0.4c-0.1,0.2-0.2,0.5-0.3,0.7c-0.1,0.2-0.3,0.8-0.4,1
	l-0.4,0.9L121.1,80.6z M123.2,76.2c-0.5,0-1,0-1.5,0.1v-1.3c0.5,0.1,1,0.1,1.4,0.1h4.9c0.5,0,1,0,1.5-0.1v1.3
	c-0.5-0.1-1-0.1-1.5-0.1h-2.6c-0.4,1.3-0.8,2.6-1.4,3.9c2.5-0.3,2.5-0.3,3.4-0.4c-0.4-0.7-0.8-1.5-1.2-2.2l1.2-0.4
	c0.9,1.3,1.7,2.7,2.3,4.2l-1.2,0.6c-0.2-0.6-0.3-0.8-0.5-1.1c-1.5,0.3-2.1,0.4-4.7,0.7l-0.6,0.1l-0.4,0.1c-0.1,0-0.3,0-0.4,0.1
	l-0.3-1.4h0.3c0.2,0,0.4,0,0.8,0c0.6-1.3,1-2.6,1.4-4L123.2,76.2z M122.6,71.7c0.5,0,1,0.1,1.4,0.1h3.3c0.5,0,1,0,1.5-0.1V73
	c-0.5-0.1-1-0.1-1.5-0.1H124c-0.5,0-1,0-1.5,0.1L122.6,71.7z"/>
<path class="st3" d="M132.1,78.7c-0.5,0-1,0-1.5,0.1v-1.3c0.5,0.1,1,0.1,1.4,0.1h3.3v-0.1c0-0.2,0-0.4,0-0.7h0.5
	c0.5-0.3,1-0.6,1.4-1H134c-0.5,0-0.8,0-1.2,0v-1.2c0.4,0,0.8,0.1,1.2,0.1h4c0.3,0,0.6,0,0.9,0l0.7,0.7l-0.4,0.4
	c-0.7,0.7-1.6,1.2-2.4,1.8h3.1c0.5,0,1,0,1.5-0.1v1.3c-0.5-0.1-1-0.1-1.5-0.1h-3.2v2.1c0,0.3,0,0.5-0.1,0.8
	c-0.2,0.3-0.6,0.4-1.7,0.4h-1.2c-0.1-0.4-0.2-0.9-0.4-1.3c0.5,0.1,1,0.1,1.5,0.1c0.5,0,0.6,0,0.6-0.3v-1.8H132.1z M132.8,72.8
	c-0.2-0.5-0.5-0.9-0.9-1.3l1.2-0.4c0.4,0.5,0.8,1.1,1.1,1.7h1.3c-0.2-0.5-0.4-1-0.7-1.5l1.2-0.3c0.3,0.6,0.6,1.2,0.8,1.9h1
	c0.4-0.6,0.7-1.2,1-1.8l1.3,0.4c-0.3,0.5-0.6,1-0.9,1.4h0.5c0.5,0,1,0,1.5-0.1c0,0.3-0.1,0.7-0.1,1v1.1c0,0.3,0,0.6,0.1,0.9h-1.3
	v-1.9h-7.8v1.9h-1.3c0-0.3,0.1-0.6,0.1-0.9v-1.1c0-0.3,0-0.7,0-1c0.5,0,0.9,0.1,1.4,0.1H132.8z"/>
<path class="st3" d="M143.7,72.5c-0.3,0-0.7,0-1,0.1v-1.3c0.4,0.1,0.8,0.1,1.2,0.1h2.1c0.4,0,0.8,0,1.1-0.1v1.3c-0.3,0-0.7,0-1,0
	h-0.6c-0.1,0.9-0.4,1.8-0.8,2.6h1.4c0.2,0,0.5,0,0.7,0c0,0.3,0,0.6,0,0.9v4.1c0,0.5,0,0.7,0,0.9h-1.2v-0.6h-1v1.2h-1.3
	c0.1-0.4,0.1-0.8,0.1-1.2v-2.2c0-0.5,0-0.5,0-1.2c-0.2,0.4-0.4,0.8-0.8,1.1c-0.1-0.5-0.2-1-0.5-1.5c0.7-0.7,1.2-1.6,1.5-2.6
	c0.2-0.5,0.3-1.1,0.4-1.6H143.7z M144.6,79.4h1.1v-3.1h-1L144.6,79.4z M148.4,72.5c-0.3,0-0.7,0-1,0.1v-1.3c0.4,0.1,0.9,0.1,1.3,0.1
	h3.5c0.4,0,0.9,0,1.3-0.1v1.3c-0.4-0.1-0.8-0.1-1.2-0.1v2.8h0.1c0.4,0,0.8,0,1.2-0.1v1.3c-0.4,0-0.8-0.1-1.2-0.1h-0.1v3.9
	c0,0.5,0,1,0.1,1.5H151c0-0.5,0-1,0-1.5v-3.9h-1.4c0,0.8-0.1,1.6-0.3,2.4c-0.2,1.1-0.7,2.2-1.5,3.1c-0.3-0.4-0.7-0.7-1.1-0.8
	c0.7-0.8,1.2-1.7,1.4-2.8c0.1-0.6,0.2-1.3,0.2-1.9c-0.4,0-0.8,0-1.2,0.1v-1.3c0.4,0.1,0.8,0.1,1.2,0.1L148.4,72.5z M151,75.3v-2.8
	h-1.4v2.8H151z"/>
<path class="st3" d="M161.4,76.8c0.6,0,0.9,0,1.3,0c0,0.3,0,0.5,0,1.1v2.4c0,0.3,0.1,0.4,0.5,0.4c0.9,0,1,0,1.1-0.3
	c0.1-0.6,0.2-1.2,0.2-1.9c0.4,0.2,0.8,0.3,1.3,0.4c-0.2,2.8-0.3,2.9-2.5,2.9c-1.5,0-1.8-0.2-1.8-1.1v-0.1V78h-1.8
	c-0.2,0.9-0.7,1.8-1.4,2.4c-0.9,0.7-1.9,1.3-2.9,1.6c-0.2-0.4-0.5-0.8-0.8-1.2c1-0.2,1.9-0.7,2.8-1.3c0.5-0.4,0.8-0.9,1-1.5h-1.7
	c-0.4,0-0.9,0-1.3,0.1v-1.3c0.4,0.1,0.9,0.1,1.3,0.1h1.9c0-0.3,0.1-0.5,0.1-0.7c0-0.2,0-0.5-0.1-0.7h1.4c-0.1,0.3-0.1,0.7-0.1,1
	c0,0.2,0,0.3,0,0.4L161.4,76.8z M159.2,71.8c0-0.3,0-0.5-0.1-0.8h1.5c0,0.3-0.1,0.5-0.1,0.8V72h3.4c0.4,0,0.9,0,1.3-0.1
	c0,0.3,0,0.6,0,0.9v0.8c0,0.3,0,0.6,0,0.9h-0.8c-0.1,0.7-0.2,0.9-0.6,1.1c-0.7,0.2-1.3,0.2-2,0.2c-1.2,0-1.6-0.2-1.6-0.9v-1.8h-1
	c-0.1,0.6-0.3,1.1-0.6,1.6c-0.6,0.8-1.2,1.1-3,1.6c-0.2-0.4-0.4-0.8-0.7-1.1c0.9,0,1.7-0.3,2.4-0.8c0.4-0.3,0.6-0.7,0.7-1.2h-2v1.4
	h-1.3c0-0.3,0.1-0.6,0.1-0.9v-0.8c0-0.3,0-0.6,0-0.9c0.4,0,0.9,0.1,1.3,0.1h3.2L159.2,71.8z M164,73.2h-2.4v1.3
	c0,0.3,0.1,0.3,0.8,0.3s0.8-0.1,0.9-0.2c0.1-0.2,0.1-0.5,0.1-0.7c0.2,0.1,0.4,0.1,0.6,0.2V73.2z"/>
<path class="st3" d="M171.6,76.7c0,0.3,0,0.7,0,1h-1.2h-2c0,1.5-0.3,3-1.1,4.3c-0.3-0.4-0.7-0.7-1.1-0.9c0.7-1.3,0.9-2.5,0.9-5.7
	c0-0.6,0-1.1-0.1-1.7c0.4,0,0.7,0,1.3,0h1.9c0.6,0,0.8,0,1.2,0c0,0.4,0,0.7,0,1.1L171.6,76.7z M166.8,71.4c0.4,0.1,0.9,0.1,1.3,0.1
	h2.6c0.4,0,0.9,0,1.3-0.1v1.3c-0.4-0.1-0.8-0.1-1.2-0.1H168c-0.4,0-0.8,0-1.2,0.1L166.8,71.4z M170.4,76.5v-1.8h-1.9v0.9
	c0,0.5,0,0.6,0,0.9H170.4z M173.7,75.8c0,1.1-0.2,2.2-0.5,3.3c-0.2,0.7-0.6,1.4-1,1.9c-0.2,0.3-0.5,0.6-0.8,0.9
	c-0.3-0.4-0.6-0.7-1-1c0.8-0.7,1.4-1.6,1.6-2.7c0.3-1.5,0.5-2.9,0.4-4.4c0-1.1,0-1.5,0-1.9c1.5,0,3.1-0.4,4.5-1l0.7,1.2
	c-0.2,0-0.3,0.1-0.6,0.2c-1.1,0.3-2.2,0.6-3.3,0.7v1.5h2.7c0.4,0,0.8,0,1.2-0.1v1.4c-0.4,0-0.7-0.1-1.1-0.1h-0.2v4.8
	c0,0.4,0,0.9,0.1,1.3H175c0.1-0.4,0.1-0.9,0.1-1.3v-4.8H173.7z"/>
<path class="st3" d="M569.8,179.3c-0.1,0.3-0.1,0.6-0.2,0.9c-0.2,1.4-0.5,2.8-1,4.1c-0.5,1.4-1.2,2.6-2.1,3.7
	c-0.4-0.4-0.9-0.7-1.4-1c0.7-0.7,1.3-1.6,1.7-2.6c0.6-1.3,0.9-2.7,1.1-4.1c0.1-0.4,0.1-0.8,0.1-1.2V179L569.8,179.3z M573.2,179
	c0.1,0.9,0.3,1.9,0.5,2.8c0.4,1.9,1.4,3.7,2.7,5.2c-0.5,0.3-0.9,0.7-1.3,1.1c-0.9-1.1-1.5-2.3-2-3.5c-0.5-1.4-0.9-2.9-1.1-4.4
	c0-0.3-0.1-0.6-0.2-0.9L573.2,179z M574.5,179.2c0.4,0.5,0.7,1.1,0.9,1.7l-0.9,0.4c-0.2-0.6-0.5-1.2-0.9-1.7L574.5,179.2z
	 M575.8,180.7c-0.2-0.6-0.5-1.1-0.9-1.7l0.8-0.4c0.4,0.5,0.7,1,0.9,1.6L575.8,180.7z"/>
<path class="st3" d="M587.1,179.2c-0.2,0.1-0.3,0.3-0.4,0.4c-0.9,0.9-1.8,1.7-2.8,2.5v5.1c0,0.4,0,0.9,0.1,1.3h-1.7
	c0.1-0.4,0.1-0.9,0.1-1.3v-4.2c-1.4,0.8-2.8,1.5-4.3,1.9c-0.2-0.5-0.5-1-0.8-1.4c2.3-0.6,4.4-1.7,6.3-3.1c0.9-0.6,1.6-1.4,2.2-2.2
	L587.1,179.2z"/>
<path class="st3" d="M595.3,183.5c0-0.1,0-0.7,0-0.9c-0.3,0.6-0.7,1.2-1.2,1.7c-0.7,0.8-1.5,1.5-2.4,2.1c-0.6,0.4-1.2,0.8-1.8,1.1
	c-0.2-0.5-0.6-0.9-1-1.2c1.4-0.6,2.7-1.5,3.8-2.6c0.6-0.6,1.1-1.3,1.6-2H591c-0.5,0-1,0-1.5,0.1v-1.5c0.5,0.1,1,0.1,1.5,0.1h4.2v-1
	c0-0.4,0-0.7-0.1-1.1h1.6c0,0.3-0.1,0.7,0,1v0.1v1h1.2c0.5,0,0.9,0,1.4-0.1v1.4c-0.5,0-0.9-0.1-1.4-0.1h-1.2l0.1,5.6
	c0,0.6,0,1,0.1,1.4h-1.6c0.1-0.4,0.1-0.8,0.1-1.2v-0.2v-3.6L595.3,183.5z"/>
<path class="st3" d="M607.7,180.6v-0.5v-0.4c0-0.4,0-0.9-0.1-1.3h1.5c0,0.3,0,0.5,0,0.8c0,0.7,0,0.7,0,1.4h0.8c0.5,0,1,0,1.6-0.1
	v1.5c-0.5-0.1-1-0.1-1.5-0.1h-0.8c0,0.7,0,1.3-0.1,2c-0.1,1.3-0.7,2.6-1.7,3.4c-0.7,0.6-1.5,1-2.3,1.3c-0.2-0.5-0.5-0.9-0.9-1.3
	c0.8-0.2,1.6-0.6,2.3-1.1c0.8-0.7,1.3-1.8,1.3-2.9c0-0.3,0-0.6,0-1.4h-3.1v1.8c0,0.3,0,0.7,0,1H603c0-0.3,0.1-0.7,0-1V182h-0.7
	c-0.5,0-1,0-1.5,0.1v-1.5c0.5,0.1,1,0.1,1.5,0.1h0.7v-1.2c0-0.4,0-0.7-0.1-1.1h1.6c0,0.3,0,0.7,0,1v1.2L607.7,180.6z"/>
<path class="st3" d="M622.4,179.2c-0.2,0.1-0.3,0.3-0.4,0.4c-0.9,0.9-1.8,1.7-2.8,2.5v5.1c0,0.4,0,0.9,0.1,1.3h-1.7
	c0.1-0.4,0.1-0.9,0.1-1.3v-4.2c-1.3,0.8-2.8,1.5-4.3,1.9c-0.2-0.5-0.5-1-0.8-1.4c2.3-0.6,4.4-1.7,6.3-3.1c0.9-0.6,1.6-1.4,2.2-2.2
	L622.4,179.2z"/>
<path class="st3" d="M630.3,185.9h2.9c0.5,0,1,0,1.6-0.1v1.5c-0.5-0.1-1-0.1-1.5-0.1H626c-0.5,0-1,0-1.5,0.1v-1.5
	c0.5,0.1,1,0.1,1.6,0.1h2.7V181h-1.8c-0.5,0-1,0-1.5,0.1v-1.5c0.5,0.1,1,0.1,1.6,0.1h5.3c0.5,0,1,0,1.6-0.1v1.4
	c-0.5-0.1-1-0.1-1.5-0.1h-2L630.3,185.9z"/>
<path class="st3" d="M636.8,186.6c1.2-0.1,2.4-0.4,3.5-0.9c1.4-0.6,2.7-1.6,3.6-2.9c0.5-0.7,0.9-1.5,1.2-2.4
	c0.4,0.5,0.8,0.9,1.3,1.2c-0.8,1.9-2.1,3.5-3.8,4.7c-1.4,0.9-2.9,1.5-4.6,1.8c-0.3,0-0.5,0.1-0.8,0.2L636.8,186.6z M637.8,179.1
	c1.1,0.7,2.2,1.4,3.1,2.3l-1,1.3c-0.9-1-1.9-1.8-3.1-2.4L637.8,179.1z"/>
<path class="st3" d="M657.2,188.4c-1.1-1.3-2.3-2.5-3.7-3.6c-1.3,1.4-2.8,2.6-4.5,3.5c-0.3-0.5-0.6-0.9-1-1.3
	c0.9-0.3,1.7-0.8,2.4-1.3c1.8-1.2,3.1-2.9,4-4.9l0.1-0.3l-4,0.1c-0.4,0-0.9,0-1.3,0.1v-1.5c0.4,0.1,0.7,0.1,1.1,0.1h0.3l4.2-0.1
	c0.4,0,0.7,0,1.1-0.1l0.8,0.8c-0.2,0.2-0.3,0.4-0.4,0.6c-0.5,1.2-1.1,2.3-1.9,3.3c0.8,0.5,1.5,1.1,2.2,1.7c0.3,0.3,0.3,0.3,1.8,1.7
	L657.2,188.4z"/>
<path class="st3" d="M560,196.1c0,1.1-0.3,2.2-0.8,3.2c-0.7,1.1-1.8,2-3.1,2.4c-0.2-0.5-0.6-1-1-1.3c1.2-0.3,2.2-1,2.8-2
	c0.3-0.7,0.5-1.5,0.5-2.3h-2.9c-0.5,0-1,0-1.5,0.1v-1.4c0.5,0.1,1,0.1,1.5,0.1h7c0.5,0,1,0,1.5-0.1v1.4c-0.5-0.1-1-0.1-1.5-0.1
	L560,196.1z M562.8,192.1c0.4,0.5,0.6,1.1,0.8,1.7l-0.9,0.4c-0.2-0.6-0.4-1.1-0.8-1.6v0.6c-0.5-0.1-1-0.1-1.5-0.1h-3.6
	c-0.5,0-1,0-1.5,0.1v-1.5c0.5,0.1,1,0.1,1.5,0.1h3.6c0.5,0,1,0,1.5-0.1v0.7L562.8,192.1z M564,193.6c-0.2-0.6-0.5-1.1-0.8-1.6
	l0.9-0.3c0.4,0.5,0.6,1,0.8,1.6L564,193.6z"/>
<path class="st3" d="M565.7,195.6c0.6,0.1,1.3,0.1,1.9,0.1h6.4c0.6,0,1.3,0,1.9-0.1v1.7c-0.7-0.1-1.3-0.1-2-0.1h-6.4
	c-0.7,0-1.3,0-2,0.1L565.7,195.6z"/>
<path class="st3" d="M587.1,193.2c-0.2,0.2-0.3,0.5-0.4,0.8c-0.4,1.1-0.9,2.2-1.5,3.3c-1.3,2.1-3.2,3.7-5.5,4.6
	c-0.2-0.5-0.6-0.9-1-1.2c0.8-0.3,1.6-0.7,2.3-1.2c0.7-0.5,1.4-1,2-1.7c-0.7-0.7-1.6-1.2-2.5-1.7l0.9-1.1c0.9,0.5,1.7,1,2.4,1.6
	c0.6-0.9,1-1.8,1.3-2.8h-3.7c-0.7,1.2-1.7,2.3-2.8,3.2c-0.3-0.4-0.7-0.7-1.2-1c1.2-0.9,2.3-2.1,3-3.4c0.3-0.5,0.5-1.1,0.7-1.7
	l1.6,0.3c-0.1,0.2-0.1,0.2-0.4,0.7c-0.1,0.2-0.2,0.4-0.3,0.6c0.2,0,0.2,0,3.1-0.1c0.4,0,0.7,0,1.1-0.1L587.1,193.2z"/>
<path class="st3" d="M588.8,197.2c0.2-0.1,0.3-0.2,0.4-0.4c0.3-0.4,1.5-1.7,2.1-2.6c0.2-0.4,0.5-0.7,0.9-0.9
	c0.2-0.2,0.5-0.2,0.8-0.2c0.6,0,0.9,0.2,1.8,1.2c1.2,1.4,2.5,2.6,3.9,3.8c0.4,0.3,0.7,0.6,1.1,0.9l-0.8,1.6
	c-1.8-1.6-3.5-3.3-5.1-5.1c-0.8-0.8-0.8-0.8-1-0.8s-0.2,0-0.7,0.7s-1.3,1.7-2.2,2.7l-0.4,0.5L588.8,197.2z M597,193
	c0.5,0.5,0.9,1,1.2,1.6l-0.9,0.5c-0.3-0.6-0.7-1.2-1.2-1.7L597,193z M598.6,194.4c-0.3-0.6-0.7-1.1-1.1-1.6l0.9-0.5
	c0.5,0.5,0.8,1,1.1,1.6L598.6,194.4z"/>
<path class="st3" d="M601,195.6c0.6,0.1,1.3,0.1,1.9,0.1h6.4c0.6,0,1.3,0,1.9-0.1v1.7c-0.7-0.1-1.3-0.1-2-0.1h-6.4
	c-0.7,0-1.3,0-2,0.1L601,195.6z"/>
<path class="st3" d="M621.9,201.4c-1.1-1.3-2.3-2.5-3.7-3.6c-1.3,1.5-2.8,2.6-4.6,3.5c-0.3-0.5-0.6-0.9-1-1.3
	c0.9-0.3,1.7-0.8,2.4-1.3c1.8-1.2,3.1-2.9,4-4.9l0.1-0.3l-4,0.1c-0.4,0-0.9,0-1.3,0.1l0-1.5c0.4,0.1,0.7,0.1,1.1,0.1h0.3l4.2-0.1
	c0.4,0,0.7,0,1.1-0.1l0.8,0.8c-0.2,0.2-0.3,0.4-0.4,0.6c-0.5,1.2-1.1,2.3-1.9,3.3c0.8,0.5,1.5,1.1,2.2,1.7c0.3,0.3,0.3,0.3,1.8,1.7
	L621.9,201.4z"/>
<path class="st3" d="M634.7,194.1c-0.1,0.2-0.2,0.4-0.3,0.6c-0.6,1.4-1.7,2.6-2.9,3.5c-0.3-0.4-0.7-0.7-1.2-1c0.8-0.4,1.5-1,2-1.7
	c0.2-0.2,0.2-0.4,0.5-0.7c-0.1,0-0.3,0.1-0.5,0.1c-1.2,0.1-2.5,0.3-3.7,0.5v2.7c0,0.3,0,0.7,0,1c0.1,0.5,0.5,0.6,1.7,0.6
	c1.2,0,2.5-0.1,3.7-0.5l0.1,1.6h-0.7c-1,0.1-2,0.2-3,0.2c-0.7,0-1.4,0-2.1-0.2c-0.5-0.2-0.9-0.6-1-1.1c-0.1-0.5-0.2-1-0.1-1.5v-2.8
	l-1.1,0.1c-0.5,0-0.9,0.1-1.3,0.2l-0.2-1.5h0.3c0.3,0,0.7,0,1-0.1l1.3-0.1v-1.5c0-0.4,0-0.8-0.1-1.1h1.7c-0.1,0.4-0.1,0.7-0.1,1.1
	v1.5l4.4-0.5c0.3,0,0.6-0.1,0.9-0.2L634.7,194.1z"/>
<path class="st3" d="M636.8,199.6c1.2-0.1,2.4-0.4,3.5-0.9c1.4-0.6,2.7-1.6,3.6-2.9c0.5-0.7,0.9-1.5,1.2-2.4
	c0.4,0.5,0.8,0.9,1.3,1.2c-0.8,1.9-2.1,3.5-3.8,4.7c-1.4,0.9-2.9,1.5-4.6,1.8c-0.3,0-0.5,0.1-0.8,0.2L636.8,199.6z M637.8,192.1
	c1.1,0.7,2.2,1.4,3.1,2.3l-1,1.3c-0.9-1-1.9-1.8-3.1-2.4L637.8,192.1z"/>
<path class="st3" d="M657.7,193.2c-0.2,0.2-0.3,0.5-0.4,0.8c-0.4,1.1-0.9,2.2-1.5,3.3c-1.3,2.1-3.2,3.7-5.5,4.6
	c-0.2-0.5-0.6-0.9-1-1.2c0.8-0.3,1.6-0.7,2.3-1.2c0.7-0.5,1.4-1,2-1.7c-0.8-0.7-1.6-1.2-2.5-1.7l0.9-1.1c0.9,0.5,1.7,1,2.4,1.6
	c0.6-0.9,1-1.8,1.3-2.8h-3.7c-0.7,1.2-1.7,2.3-2.8,3.2c-0.3-0.4-0.7-0.8-1.2-1c1.2-0.9,2.3-2.1,3-3.4c0.3-0.5,0.5-1.1,0.7-1.7
	l1.6,0.3c-0.1,0.2-0.1,0.2-0.4,0.7c-0.1,0.2-0.2,0.4-0.3,0.6c0.2,0,0.2,0,3.1-0.1c0.4,0,0.7,0,1.1-0.1L657.7,193.2z"/>
<path class="st3" d="M659.8,195.6c0.6,0.1,1.3,0.1,1.9,0.1h6.4c0.6,0,1.3,0,1.9-0.1v1.7c-0.7-0.1-1.3-0.1-2-0.1h-6.4
	c-0.7,0-1.3,0-2,0.1L659.8,195.6z"/>
<path class="st3" d="M319.9,76.1c0,1.1-0.3,2.2-0.8,3.2c-0.7,1.1-1.8,2-3.1,2.4c-0.2-0.5-0.6-1-1-1.3c1.2-0.3,2.2-1,2.8-2
	c0.3-0.7,0.5-1.5,0.5-2.3h-2.9c-0.5,0-1,0-1.5,0.1v-1.4c0.5,0.1,1,0.1,1.5,0.1h7c0.5,0,1,0,1.5-0.1v1.4c-0.5-0.1-1-0.1-1.5-0.1
	H319.9z M322.7,72.1c0.4,0.5,0.6,1.1,0.8,1.7l-0.9,0.4c-0.2-0.6-0.4-1.1-0.8-1.7v0.6c-0.5-0.1-1-0.1-1.5-0.1h-3.6
	c-0.5,0-1,0-1.5,0.1v-1.5c0.5,0.1,1,0.1,1.5,0.1h3.6c0.5,0,1,0,1.5-0.1v0.7L322.7,72.1z M323.9,73.7c-0.2-0.6-0.5-1.1-0.8-1.7
	l0.9-0.3c0.4,0.5,0.6,1,0.8,1.6L323.9,73.7z"/>
<path class="st3" d="M325.9,75.6c0.6,0.1,1.3,0.1,1.9,0.1h6.4c0.6,0,1.3,0,1.9-0.1v1.7c-0.7-0.1-1.3-0.1-2-0.1h-6.4
	c-0.7,0-1.3,0-2,0.1L325.9,75.6z"/>
<path class="st3" d="M347.5,73.2c-0.2,0.2-0.3,0.5-0.4,0.8c-0.4,1.1-0.9,2.2-1.5,3.3c-1.3,2.1-3.2,3.7-5.5,4.6
	c-0.2-0.5-0.6-0.9-1-1.2c0.8-0.3,1.6-0.7,2.3-1.2c0.7-0.5,1.4-1,2-1.7c-0.8-0.7-1.6-1.2-2.5-1.7l0.9-1.1c0.9,0.5,1.7,1,2.4,1.6
	c0.6-0.9,1-1.8,1.3-2.8h-3.7c-0.7,1.2-1.7,2.3-2.8,3.2c-0.3-0.4-0.7-0.8-1.2-1c1.2-0.9,2.3-2.1,3-3.4c0.3-0.5,0.5-1.1,0.7-1.7
	l1.6,0.3c-0.1,0.2-0.1,0.2-0.4,0.7c-0.1,0.2-0.2,0.4-0.3,0.6c0.2,0,0.2,0,3.1,0c0.4,0,0.7,0,1.1-0.1L347.5,73.2z"/>
<path class="st3" d="M356.5,73.6v-0.5v-0.4c0-0.4,0-0.9-0.1-1.3h1.5c0,0.3-0.1,0.5,0,0.8c0,0.7,0,0.7,0,1.4h0.8c0.5,0,1,0,1.6-0.1
	V75c-0.5-0.1-1-0.1-1.5-0.1H358c0,0.7,0,1.3-0.1,2c-0.1,1.3-0.7,2.6-1.7,3.4c-0.7,0.6-1.5,1-2.3,1.3c-0.2-0.5-0.5-0.9-0.9-1.3
	c0.8-0.2,1.6-0.6,2.3-1.1c0.8-0.7,1.3-1.8,1.3-2.9c0-0.3,0-0.6,0-1.4h-3.1v1.8c0,0.3,0,0.7,0,1h-1.6c0-0.3,0-0.7,0-1v-1.8h-0.7
	c-0.5,0-1,0-1.5,0.1v-1.5c0.5,0.1,1,0.1,1.5,0.1h0.9v-1.2c0-0.4,0-0.7-0.1-1.1h1.6c0,0.3,0,0.7,0,1v1.2L356.5,73.6z"/>
<path class="st3" d="M371.5,72.2c-0.2,0.1-0.3,0.3-0.4,0.4c-0.9,0.9-1.8,1.7-2.8,2.5v5.1c0,0.4,0,0.9,0.1,1.3h-1.7
	c0.1-0.4,0.1-0.9,0.1-1.3v-4.2c-1.3,0.8-2.8,1.5-4.3,1.9c-0.2-0.5-0.5-1-0.8-1.4c2.3-0.6,4.4-1.7,6.3-3.1c0.9-0.6,1.6-1.4,2.2-2.2
	L371.5,72.2z"/>
<path class="st3" d="M379.7,78.9h2.9c0.5,0,1,0,1.6-0.1v1.5c-0.5-0.1-1-0.1-1.5-0.1h-7.2c-0.5,0-1,0-1.5,0.1v-1.5
	c0.5,0.1,1,0.1,1.6,0.1h2.7V74h-1.8c-0.5,0-1,0-1.5,0.1v-1.5c0.5,0.1,1,0.1,1.6,0.1h5.3c0.5,0,1,0,1.6-0.1V74
	c-0.5-0.1-1-0.1-1.5-0.1h-2L379.7,78.9z"/>
<path class="st3" d="M386.4,79.6c1.2-0.1,2.4-0.4,3.5-0.9c1.4-0.6,2.7-1.6,3.6-2.9c0.5-0.7,0.9-1.5,1.2-2.4c0.4,0.5,0.8,0.9,1.3,1.2
	c-0.8,1.9-2.1,3.5-3.8,4.7c-1.4,0.9-2.9,1.5-4.6,1.8c-0.3,0-0.5,0.1-0.8,0.2L386.4,79.6z M387.4,72.1c1.1,0.7,2.2,1.4,3.1,2.3
	l-1,1.3c-0.9-1-1.9-1.8-3.1-2.4L387.4,72.1z"/>
<path class="st3" d="M407,81.4c-1.1-1.3-2.3-2.5-3.7-3.6c-1.3,1.5-2.8,2.6-4.6,3.5c-0.3-0.5-0.6-0.9-1-1.3c0.9-0.3,1.7-0.8,2.4-1.3
	c1.8-1.2,3.1-2.9,4-4.9l0.1-0.3l-4,0.1c-0.4,0-0.9,0-1.3,0.1l0-1.5c0.4,0.1,0.7,0.1,1.1,0.1h0.3l4.2-0.1c0.4,0,0.7,0,1.1-0.1
	l0.8,0.8c-0.2,0.2-0.3,0.4-0.4,0.7c-0.5,1.2-1.1,2.3-1.9,3.3c0.8,0.5,1.5,1.1,2.2,1.7c0.3,0.3,0.3,0.3,1.8,1.7L407,81.4z"/>
<path class="st3" d="M316.3,85.3c0-0.4,0-0.8-0.1-1.2h1.5c-0.1,0.4-0.1,0.8-0.1,1.2v0.8h2.7v-0.8c0-0.4,0-0.8-0.1-1.2h1.5
	c-0.1,0.4-0.1,0.8-0.1,1.3v0.8h1c0.5,0,0.9,0,1.4-0.1v1.4c-0.5,0-0.9-0.1-1.4-0.1h-1V90h1.2c0.5,0,1,0,1.6-0.1v1.5
	c-0.5-0.1-1-0.1-1.5-0.1h-7.8c-0.5,0-1,0-1.5,0.1v-1.5c0.5,0.1,1,0.1,1.5,0.1h1.2v-2.5h-0.9c-0.4,0-0.9,0-1.3,0.1v-1.4
	c0.4,0.1,0.9,0.1,1.3,0.1h0.9V85.3z M318.1,92.2c-0.5,0.7-1.1,1.3-1.8,1.8c-0.5,0.4-1.1,0.7-1.8,1c-0.3-0.4-0.6-0.8-0.9-1.1
	c0.7-0.2,1.4-0.6,2-1c0.5-0.4,1-0.8,1.4-1.3L318.1,92.2z M320.3,90v-2.6h-2.7V90H320.3z M321,91.5c0.5,0.6,1,1.1,1.6,1.4
	c0.6,0.4,1.2,0.7,1.9,0.9c-0.4,0.3-0.7,0.7-0.9,1.2c-0.8-0.3-1.5-0.8-2.1-1.3c-0.6-0.4-1.1-0.9-1.6-1.5L321,91.5z"/>
<path class="st3" d="M326,85.5c0-0.5,0-0.8,0-1.2c0.2,0,0.8,0.1,1.4,0.1h7.5c0.6,0,1,0,1.3-0.1c0,0.4-0.1,0.9,0,1.3v8
	c0,1-0.4,1.2-2,1.2c-0.4,0-0.9,0-1.3,0c0-0.4-0.2-0.9-0.3-1.3c0.6,0.1,1.1,0.1,1.7,0.1c0.5,0,0.6,0,0.6-0.3v-7.8h-7.3v8
	c0,0.5,0,0.9,0.1,1.4h-1.5c0.1-0.5,0.1-1,0.1-1.4L326,85.5z M327.9,86.4c0.4,0.1,0.7,0.1,1.1,0.1h4.1c0.4,0,0.7,0,1.1-0.1v1.3
	c-0.3,0-0.7,0-1,0H329c-0.4,0-0.7,0-1.1,0L327.9,86.4z M333.5,91.9c0,0.3,0,0.5,0,0.8c-0.3,0-0.5,0-0.8,0h-2.9v0.9h-1.3
	c0-0.4,0.1-0.7,0-1.1v-3.1c0-0.3,0-0.6,0-0.8h0.8h3.3c0.5,0,0.7,0,0.9,0c0,0.3,0,0.5,0,0.8L333.5,91.9z M329.8,91.5h2.4v-1.7h-2.4
	V91.5z"/>
<path class="st3" d="M339.9,85.9c-0.8,0.2-1,0.2-1.8,0.3c-0.1-0.4-0.3-0.8-0.5-1.2c1.6-0.1,3.2-0.5,4.6-1.2l0.8,1.1
	c-0.9,0.3-1.4,0.5-1.9,0.6v1.5h1c0.3,0,0.7,0,1-0.1v1.3c-0.3,0-0.7-0.1-1-0.1h-0.9c0.5,0.9,1.1,1.6,1.9,2.2
	c-0.3,0.4-0.5,0.8-0.6,1.2c-0.6-0.6-1.1-1.2-1.4-1.9c0,0.4,0.1,0.9,0.1,1.5v2.1c0,0.5,0,1,0.1,1.5h-1.4c0.1-0.5,0.1-1,0.1-1.5v-2
	c0-0.5,0-1,0.1-1.4c-0.2,0.6-0.5,1.2-0.8,1.7c-0.3,0.5-0.6,0.9-1,1.3c-0.2-0.4-0.4-0.9-0.7-1.3c0.5-0.5,1-1,1.3-1.6
	c0.3-0.6,0.7-1.2,0.9-1.8h-0.9c-0.4,0-0.7,0-1.1,0.1v-1.3c0.4,0.1,0.8,0.1,1.1,0.1h1.1L339.9,85.9z M345.2,84.8
	c-0.1,0.5-0.1,1-0.1,1.4v4.5c0,0.5,0,0.9,0.1,1.4h-1.4c0.1-0.5,0.1-0.9,0.1-1.4v-4.6c0-0.5,0-1-0.1-1.4H345.2z M348.1,84.1
	c-0.1,0.5-0.1,1.1-0.1,1.6v7.7c0,0.6-0.1,1-0.5,1.2c-0.5,0.2-1.1,0.3-1.7,0.2c-0.3,0-0.5,0-0.9,0c-0.1-0.5-0.2-0.9-0.4-1.3
	c0.5,0.1,1.1,0.1,1.6,0.1c0.5,0,0.6,0,0.6-0.4v-7.5c0-0.6,0-1.1-0.1-1.6L348.1,84.1z"/>
<path class="st3" d="M351.7,91.2c-0.1,1.3-0.5,2.6-1.2,3.8c-0.4-0.4-0.7-0.7-1.2-1c0.4-0.6,0.7-1.3,0.9-2c0.1-0.6,0.2-1.2,0.2-1.8
	c0.1-1,0.1-2.7,0.1-4.1c0-0.6,0-1.2-0.1-1.7c0.5,0,0.9,0,1.4,0h6.7c0.5,0,0.9,0,1.4,0c0,0.5-0.1,0.9,0,1.4v7.9c0,1-0.4,1.2-1.7,1.2
	c-0.4,0-1,0-1.3,0c-0.1-0.4-0.2-0.9-0.3-1.2c0.6,0.1,1.1,0.1,1.5,0.1s0.6-0.1,0.6-0.3v-2.1h-2.9v2c0,0.5,0,1,0.1,1.4h-1.4
	c0.1-0.5,0.1-0.9,0.1-1.4v-2L351.7,91.2z M354.5,88.4h-2.6c0,0.3,0,0.6,0,0.8c0,0.6,0,0.7,0,0.9h2.7L354.5,88.4z M354.5,85.6h-2.6
	v1.2v0.3h2.6L354.5,85.6z M358.6,87.2v-1.6h-2.9v1.6H358.6z M358.6,90v-1.6h-2.9V90L358.6,90z"/>
<path class="st3" d="M363.8,84.9c0-0.3,0-0.6-0.1-0.9h1.4c0,0.3-0.1,0.6-0.1,0.9h3.8c0-0.3,0-0.6-0.1-0.9h1.4c0,0.3-0.1,0.6-0.1,0.9
	h0.8c0.4,0,0.9,0,1.3-0.1V86c-0.4,0-0.9-0.1-1.3-0.1h-0.8v3.4h1c0.4,0,0.9,0,1.3-0.1v1.2c-0.4-0.1-0.9-0.1-1.3-0.1h-1.3
	c0.8,0.7,1.8,1.1,2.9,1.3c-0.2,0.4-0.4,0.8-0.6,1.3c-0.8-0.3-1.5-0.6-2.2-1.1v0.8c-0.4,0-0.7,0-1.1,0h-1.4v0.8h2.9
	c0.4,0,0.9,0,1.3-0.1v1.3c-0.5-0.1-0.9-0.1-1.4-0.1h-6.7c-0.5,0-1,0-1.4,0.1v-1.3c0.5,0,0.9,0.1,1.4,0.1h2.7v-0.8h-1.2
	c-0.4,0-0.7,0-1.1,0v-0.8c-0.7,0.5-1.4,0.9-2.1,1.2c-0.1-0.4-0.3-0.9-0.6-1.2c1-0.2,2-0.7,2.8-1.4h-1.2c-0.4,0-0.9,0-1.3,0.1v-1.2
	c0.4,0.1,0.9,0.1,1.3,0.1h1V86h-0.7c-0.5,0-0.9,0-1.3,0.1v-1.3c0.4,0.1,0.9,0.1,1.3,0.1H363.8z M365.6,90.4
	c-0.3,0.4-0.7,0.8-1.1,1.1h1.8c0-0.3,0-0.6-0.1-0.8h1.4c0,0.3-0.1,0.6-0.1,0.8h2c-0.5-0.3-0.9-0.7-1.2-1.1H365.6z M368.9,86.4V86
	h-3.8v0.5L368.9,86.4z M368.9,87.8v-0.5h-3.8v0.5H368.9z M368.9,89.3v-0.5h-3.8v0.5H368.9z"/>
<path class="st3" d="M384.1,87.8l-0.1,0.1c0,0.1-0.1,0.1-0.1,0.2c-0.4,0.5-0.9,1-1.5,1.4c0.7,0.3,1.4,0.5,2.1,0.5
	c-0.2,0.3-0.4,0.7-0.5,1.1c-0.9-0.2-1.8-0.5-2.6-1c-0.7,0.4-1.4,0.6-2.2,0.8c-0.2-0.3-0.4-0.6-0.7-0.9c0,0.2-0.1,0.4-0.3,0.6
	c-0.3,0.2-0.7,0.3-1.1,0.2h-0.7c0-0.3-0.1-0.6-0.2-0.9c0.3,0,0.6,0.1,0.9,0.1c0.1,0,0.2,0,0.2-0.1s0,0,0-0.2v-1.6l-0.5,0.1V89
	c0,0.3,0,0.5,0,0.7h-1c0.1-0.2,0.1-0.5,0.1-0.7v-0.7l-0.6,0.1c-0.1,1.1-0.4,2.1-1,2.9c-0.3-0.3-0.6-0.6-0.9-0.8
	c0.5-0.6,0.8-1.3,0.8-2l-0.7,0.1l-0.1-1.2c0.2,0,0.4,0,0.6,0h0.4c0-0.5,0-0.8,0-1.6c0-0.4,0-0.7-0.1-1.1c0.4,0,0.8,0.1,1.2,0.1h0.1
	c0.1-0.3,0.3-0.6,0.3-0.9l1.3,0.2c-0.2,0.5-0.2,0.5-0.4,0.7h0.4c0.5,0,1,0,1.2-0.1c0,0.2,0,0.7,0,1.1V87l0.4-0.1v1l-0.4,0.1v2
	c0.6-0.1,1.3-0.3,1.9-0.5c-0.3-0.3-0.6-0.5-0.9-0.8l1-0.4h-0.3c-0.4,0-0.7,0-1,0v-1h0.4c-0.2-0.3-0.5-0.6-0.8-0.8
	c0.3-0.1,0.5-0.3,0.7-0.5c0.2-0.4,0.3-0.8,0.3-1.2c0-0.2,0-0.3,0-0.5c0.3,0,0.5,0,0.8,0h1.4c0.3,0,0.5,0,0.8,0c0,0.2,0,0.4,0,0.7
	v0.9c0,0.2,0,0.2,0.3,0.2s0.4,0,0.4-0.2c0-0.3,0-0.5,0-0.8c0.3,0.2,0.6,0.3,1,0.3c0,0.8-0.1,1.1-0.3,1.3s-0.6,0.3-1.2,0.3
	c-1.1,0-1.3-0.1-1.3-0.7v-1h-1c0,0.6-0.2,1.1-0.6,1.5c-0.2,0.2-0.3,0.3-0.5,0.4h3c0.3,0,0.5,0,0.8,0L384.1,87.8z M374.8,92
	c0-0.3,0-0.7,0-1c0.4,0,0.8,0,1.2,0h6.2c0.4,0,0.7,0,1.1,0c0,0.3,0,0.6,0,0.9v1.6h0.4c0.3,0,0.6,0,0.9,0v1.2c-0.4,0-0.9-0.1-1.4-0.1
	H375c-0.5,0-1,0-1.4,0.1v-1.2c0.3,0,0.6,0,0.9,0h0.4L374.8,92z M375.5,85.6c0,0.8,0,1.2,0,1.7c1-0.1,1.5-0.1,2-0.2v-1.6L375.5,85.6z
	 M376.5,87.1c-0.2-0.4-0.5-0.7-0.8-1l0.7-0.4c0.3,0.3,0.6,0.6,0.8,1L376.5,87.1z M376,93.6h1.2v-1.4H376L376,93.6z M378.4,93.6h1.3
	v-1.4h-1.3V93.6z M380.5,88.2c0.2,0.3,0.5,0.5,0.9,0.7c0.3-0.2,0.6-0.4,0.9-0.7H380.5z M380.7,93.6h1.3v-1.4h-1.3V93.6z"/>
<path class="st3" d="M391.7,90v3.1c0,0.2,0,0.3,0.2,0.4c0.3,0.1,0.7,0.1,1.1,0.1c1.7,0,2,0,2.1-0.2s0.2-0.4,0.2-1.3
	c0.4,0.2,0.8,0.3,1.2,0.4c-0.1,1.1-0.3,1.6-0.6,1.9s-0.8,0.3-2.7,0.3c-2.1,0-2.6-0.2-2.6-1.2v-3.3c-0.1,0-0.3,0.1-0.4,0.2l-0.3-1.2
	h0.1c0.2,0,0.4-0.1,0.6-0.1v-0.6c0-0.2,0-0.3,0-0.5l-0.3,0.4c-0.2-0.4-0.6-0.7-0.9-0.9c0.2-0.2,0.4-0.4,0.5-0.6c-0.3,0-0.6,0-0.8,0
	h-1.3c0,1.1,0,1.1,0,1.3h1.1c0.3,0,0.6,0,0.9,0c0,0.1,0,0.5,0,0.6v0.5c0,0.8,0,2.3-0.1,3c0,0.8-0.1,1.6-0.5,2.3
	c-0.3,0.3-0.7,0.4-1.1,0.3h-0.4c-0.1,0-0.2,0-0.3,0c0-0.4-0.1-0.9-0.2-1.3c0.1,0,0.1,0,0.2,0c0.2,0,0.4,0.1,0.7,0.1
	c0.3,0,0.4-0.1,0.5-0.8c0.1-1.2,0.2-2.4,0.2-3.6h-1c-0.1,1-0.2,2-0.4,3c-0.2,1-0.7,1.9-1.2,2.7c-0.2-0.4-0.5-0.8-0.9-1.1
	c0.7-1,1.1-2.2,1.2-3.4c0.2-1.2,0.2-2.4,0.2-3.7h-0.1c-0.3,0-0.7,0-1,0.1v-1.3c0.4,0.1,0.7,0.1,1.1,0.1h0.7V85c0-0.3,0-0.7-0.1-1
	h1.4c0,0.3-0.1,0.7-0.1,1v0.6h0.5c0.4,0,0.7,0,1.1-0.1v0.9c0.5-0.8,0.9-1.7,1.2-2.6l1.4,0.3c-0.1,0.1-0.2,0.3-0.2,0.4l-0.3,0.7h3.1
	c0.4,0,0.8,0,1.2-0.1v1.3c-0.3,0-0.8,0-1.2,0h-3.6c-0.2,0.4-0.4,0.7-0.7,1.1h0.9c-0.1,0.3-0.1,0.6-0.1,0.9v0.3l1-0.2v-0.7
	c0-0.4,0-0.8,0-1h1.2c-0.1,0.3-0.1,0.6-0.1,0.9v0.4l1.2-0.3l0.4-0.1l0.3-0.1c0.1,0,0.3-0.1,0.4-0.1c-0.1,2.9-0.1,3.7-0.3,4.1
	s-0.4,0.5-1.1,0.5h-0.5c0-0.4-0.1-0.8-0.3-1.1c0.2,0,0.4,0.1,0.6,0.1c0.2,0,0.3-0.1,0.3-0.6s0-0.8,0-1.3l-1.1,0.3v2.1
	c0,0.3,0,0.7,0,1h-1.2c0-0.3,0.1-0.7,0-1v-1.9L391.7,90z"/>
<path class="st3" d="M397.6,85.9c0.3,0.1,0.7,0.1,1,0.1h2.4c0.3,0,0.7,0,1,0v1.2c-0.3,0-0.6,0-0.9,0h-2.5c-0.3,0-0.7,0-1,0
	L397.6,85.9z M408,89.6c-0.1,0.2-0.2,0.3-0.2,0.5c-0.4,0.9-0.9,1.8-1.6,2.5c0.8,0.5,1.7,0.9,2.7,1.1c-0.3,0.4-0.5,0.8-0.6,1.3
	c-1.1-0.3-2.1-0.8-3-1.5c-0.9,0.7-1.9,1.2-2.9,1.6c-0.2-0.4-0.4-0.7-0.6-1c0,0.3,0,0.6,0,0.9h-1.2v-0.4h-1.4V95h-1.2
	c0.1-0.4,0.1-0.8,0.1-1.2V92c0-0.3,0-0.6-0.1-0.9c0.3,0,0.6,0,0.9,0h2.1c0.3,0,0.5,0,0.8,0c0,0.3,0,0.6,0,0.9v1.8
	c0.9-0.2,1.8-0.6,2.5-1.2c-0.7-0.7-1.2-1.6-1.5-2.5c-0.2,0-0.4,0-0.5,0v-1.2c0.3,0,0.5,0.1,0.8,0.1h3.5c0.3,0,0.6,0,0.8,0L408,89.6z
	 M398,84.2c0.3,0,0.7,0.1,1,0.1h1.7c0.3,0,0.7,0,1-0.1v1.2c-0.3,0-0.7,0-1,0H399c-0.3,0-0.7,0-1,0V84.2z M398,87.7
	c0.3,0,0.5,0,0.8,0h2.1c0.3,0,0.5,0,0.8,0v1.1c-0.3,0-0.5,0-0.8,0h-2.1c-0.3,0-0.5,0-0.8,0V87.7z M398,89.4c0.3,0,0.5,0,0.8,0h2.1
	c0.3,0,0.5,0,0.8,0v1.1c-0.3,0-0.5,0-0.8,0h-2.1c-0.4,0-0.5,0-0.8,0L398,89.4z M399.1,93.4h1.4v-1.2h-1.4V93.4z M404.2,85.5
	c0,0.8-0.1,1.6-0.5,2.3c-0.2,0.4-0.5,0.8-0.9,1.1c-0.3-0.3-0.6-0.6-1-0.8c1-0.7,1.2-1.4,1.2-3c0-0.3,0-0.5-0.1-0.8c0.3,0,0.6,0,1,0
	h1.8c0.3,0,0.7,0,1,0c0,0.3-0.1,0.7,0,1V87c0,0.2,0.1,0.2,0.4,0.2c0.5,0,0.5,0,0.6-1.4c0.3,0.2,0.7,0.3,1.1,0.4
	c-0.1,2-0.3,2.1-1.8,2.1c-1.2,0-1.4-0.1-1.4-0.8v-2.1L404.2,85.5z M403.9,90.1c0.3,0.7,0.7,1.2,1.2,1.7c0.5-0.5,0.9-1.1,1.2-1.7
	H403.9z"/>
<path class="st6" d="M228.4,278.7h6.3c2.4,0,4.3,1.1,4.3,3.3c0.1,1.6-1,3.1-2.6,3.4l0,0c1.1,0.3,1.2,1.3,1.9,2.9l1.3,3.6H236
	l-0.8-2.4c-0.7-2.3-1.2-2.9-2.5-2.9H232v5.3h-3.5L228.4,278.7z M232,284.2h0.9c1.1,0,2.6,0,2.6-1.5c0-1.2-1.2-1.5-2.6-1.5H232
	L232,284.2z"/>
<path class="st6" d="M247.4,278.5c4.4,0,6.6,2.6,6.6,6.9s-2.3,6.9-6.6,6.9s-6.6-2.6-6.6-6.9S243,278.5,247.4,278.5z M247.4,289.6
	c2.1,0,3-2.1,3-4.2s-0.9-4.2-3-4.2s-3,1.9-3,4.2S245.2,289.6,247.4,289.6L247.4,289.6z"/>
<path class="st6" d="M256.2,278.7h3.5V292h-3.5V278.7z"/>
<path class="st6" d="M262.4,288.7c1.1,0.6,2.4,0.9,3.6,0.9c1.1,0,2.2-0.2,2.2-1.3c0-2.5-6.3-0.9-6.3-5.7c0-3.2,3.1-4.1,5.8-4.1
	c1.2,0,2.3,0.2,3.4,0.5l-0.2,2.7c-0.9-0.4-1.9-0.6-3-0.6c-0.9,0-2.4,0.1-2.4,1.2c0,2.1,6.3,0.7,6.3,5.5c0,3.4-2.9,4.4-5.8,4.4
	c-1.3,0-2.7-0.2-4-0.6L262.4,288.7z"/>
<path class="st6" d="M184.3,302.4c0.3-1,0.4-2.1,0.4-3.2l0.9,0.2c0,1.1-0.1,2.3-0.4,3.4L184.3,302.4z M187.1,306.5
	c0,0.6,0,1,0.1,1.5h-1.4c0.1-0.5,0.1-1,0.1-1.5v-8.3c0-0.4,0-0.9-0.1-1.3h1.4c-0.1,0.4-0.1,0.9-0.1,1.3v1l0.7-0.3
	c0.3,0.5,0.5,1,0.6,1.6l-0.3,0.1c0.3,0,0.5,0,1,0h1.8v-0.5h-1.4c-0.3,0-0.7,0-1,0v-1.1c0.3,0,0.7,0.1,1,0h1.4v-0.4h-1.6
	c-0.4,0-0.8,0-1.2,0.1v-1.1c0.4,0.1,0.8,0.1,1.2,0.1h1.5c0-0.3,0-0.6-0.1-0.8h1.4c-0.1,0.3-0.1,0.5-0.1,0.8h1.8c0.4,0,0.8,0,1.2-0.1
	v1.1c-0.4-0.1-0.8-0.1-1.2-0.1h-1.9v0.4h1.7c0.3,0,0.7,0,1,0v1.1c-0.3,0-0.7-0.1-1,0h-1.7v0.5h2.1c0.4,0,0.8,0,1.2-0.1v1.2
	c-0.4-0.1-0.8-0.1-1.2-0.1h-5.1c-0.4,0-0.8,0-1.2,0.1v-1.1l-0.4,0.2c-0.1-0.5-0.2-0.9-0.4-1.3L187.1,306.5z M189.7,306.6
	c0,0.5,0,0.9,0.1,1.4h-1.4c0.1-0.5,0.1-0.9,0.1-1.4v-3.5c0-0.3,0-0.7,0-1c0.3,0,0.5,0,1,0h4.2c0.4,0,0.7,0,1.1,0
	c0,0.4-0.1,0.8-0.1,1.2v3.4c0,0.9-0.3,1.1-1.5,1.1c-0.3,0-0.5,0-1.1,0c0-0.4-0.1-0.8-0.3-1.1c0.4,0.1,0.8,0.1,1.2,0.1
	c0.4,0,0.4,0,0.4-0.3v-0.4h-3.7L189.7,306.6z M193.4,303.6v-0.5h-3.7v0.5H193.4z M193.4,305.1v-0.5h-3.7v0.5H193.4z"/>
<path class="st6" d="M200.8,300.1c0.3,0,0.7,0,1-0.1v1.3c-0.2,0-0.4-0.1-0.7,0c-0.1,0.5-0.2,0.9-0.4,1.3h0.1c0.3,0,0.6,0,0.9-0.1
	v1.3c-0.3,0-0.7-0.1-1,0h-0.9v1h0.8c0.3,0,0.7,0,1,0v1.3c-0.3,0-0.7-0.1-1,0h-0.8v0.9c0,0.4,0,0.8,0.1,1.2h-1.3
	c0.1-0.4,0.1-0.8,0.1-1.2v-0.9h-0.9c-0.3,0-0.7,0-1,0v-1.3c0.3,0,0.7,0.1,1,0h0.9v-1h-1.1c-0.4,0-0.7,0-1.1,0v-1.3
	c0.3,0.1,0.7,0.1,1.1,0.1h0.1c-0.1-0.5-0.2-0.9-0.3-1.3c-0.3,0-0.6,0-0.9,0V300c0.3,0,0.7,0.1,1.1,0.1h1.1v-0.9h-0.8
	c-0.3,0-0.7,0-1,0V298c0.3,0,0.7,0,1,0h0.8v-0.2c0-0.3,0-0.6-0.1-0.9h1.3c0,0.3,0,0.6,0,0.9v0.2h0.7c0.3,0,0.7,0,1,0v1.2
	c-0.3,0-0.7-0.1-1,0h-0.7v0.9L200.8,300.1z M199.7,302.6c0.2-0.4,0.3-0.9,0.4-1.3h-1.4c0.1,0.4,0.2,0.9,0.3,1.3H199.7z M207.3,301.8
	c-0.1,0.2-0.1,0.3-0.1,0.5c-0.2,1-0.5,2-1,3c0.5,0.6,1,1,1.6,1.4c-0.3,0.4-0.5,0.8-0.7,1.3c-0.6-0.5-1.2-1-1.6-1.6
	c-0.4,0.6-0.9,1.1-1.4,1.5c-0.2-0.3-0.4-0.7-0.7-1c0,0.4,0,0.7,0.1,1.1H202c0.1-0.5,0.1-0.9,0.1-1.4v-8c0-0.4,0-0.9-0.1-1.2
	c0.4,0,0.8,0.1,1.1,0.1h3c0.4,0,0.7,0,1.1-0.1c0,0.4,0,0.5-0.1,0.8c-0.1,2.2-0.3,2.5-1.6,2.5c-0.4,0-0.7,0-1.1-0.1
	c0-0.4-0.1-0.8-0.3-1.1c0.4,0.1,0.8,0.1,1.2,0.1c0.4,0,0.4-0.1,0.5-1h-2.6v2.6h2.2c0.4,0,0.8,0,1.1,0L207.3,301.8z M203.3,306.7
	c0.5-0.4,1-0.9,1.3-1.4c-0.6-0.9-0.9-1.9-1.1-3h-0.2V306.7z M204.6,302.3c0.1,0.7,0.4,1.3,0.7,1.9c0.3-0.6,0.5-1.3,0.6-1.9H204.6z"
	/>
<path class="st6" d="M215.4,302.4c0,0.8-0.7,1.4-1.4,1.4c-0.8,0-1.4-0.7-1.4-1.4c0-0.8,0.7-1.4,1.4-1.4
	C214.8,301,215.4,301.6,215.4,302.4C215.4,302.4,215.4,302.4,215.4,302.4z"/>
<path class="st6" d="M222.1,300.4c1.1,0.4,2.2,1,3.2,1.6l-0.8,1.4c-1-0.7-2.1-1.3-3.2-1.8L222.1,300.4z M221.6,305.8
	c1.2-0.1,2.4-0.3,3.5-0.8c1.4-0.5,2.6-1.4,3.5-2.6c0.6-0.8,1.1-1.7,1.4-2.6c0.4,0.4,0.8,0.8,1.2,1.1c-0.4,1.1-1,2.1-1.8,3
	c-1.7,1.9-4,3.1-6.5,3.4c-0.4,0.1-0.6,0.1-0.8,0.2L221.6,305.8z M223.1,297.5c1.1,0.4,2.2,0.9,3.2,1.5l-0.8,1.3
	c-1-0.7-2.1-1.2-3.2-1.6L223.1,297.5z"/>
<path class="st6" d="M242,307.4c-1.1-1.3-2.3-2.5-3.7-3.6c-1.3,1.5-2.8,2.6-4.6,3.5c-0.3-0.5-0.6-0.9-1-1.3c0.9-0.3,1.7-0.8,2.4-1.3
	c1.8-1.2,3.1-2.9,4-4.9l0.1-0.3l-4,0.1c-0.4,0-0.9,0-1.3,0.1v-1.5c0.4,0.1,0.7,0.1,1.1,0.1h0.3l4.2-0.1c0.4,0,0.7,0,1.1-0.1l0.8,0.8
	c-0.2,0.2-0.3,0.4-0.4,0.6c-0.5,1.2-1.1,2.3-1.9,3.3c0.8,0.5,1.5,1.1,2.2,1.7c0.3,0.3,0.3,0.3,1.8,1.7L242,307.4z"/>
<path class="st6" d="M251,302.1c0,1.1-0.3,2.2-0.8,3.2c-0.7,1.1-1.9,2-3.2,2.4c-0.2-0.5-0.6-1-1-1.3c1.2-0.3,2.2-1,2.9-2
	c0.3-0.7,0.5-1.5,0.5-2.3h-2.9c-0.5,0-1,0-1.5,0.1v-1.4c0.5,0.1,1,0.1,1.5,0.1h7c0.5,0,1,0,1.6-0.1v1.4c-0.5-0.1-1-0.1-1.5-0.1
	L251,302.1z M246.2,297.7c0.5,0.1,1,0.1,1.5,0.1h4.6c0.5,0,1,0,1.6-0.1v1.5c-0.5-0.1-1-0.1-1.5-0.1h-4.6c-0.5,0-1,0-1.5,0.1V297.7z"
	/>
<path class="st6" d="M262.4,297.6c-0.1,0.3-0.2,0.6-0.3,0.9c-0.9,3-1.6,5-2.4,6.8c1.7-0.1,3.3-0.3,5-0.6c-0.1-0.3-0.3-0.5-0.6-1.1
	c-0.3-0.7-0.7-1.3-1.2-1.9l1.4-0.5c1.2,1.7,2.1,3.6,2.9,5.5l-1.5,0.8c-0.2-0.5-0.3-1-0.6-1.5l-0.4,0.1c-1.2,0.2-3.2,0.5-6.8,0.9
	c-0.4,0-0.7,0.1-1.1,0.1l-0.2-1.6h0.3h1c0.7-1.6,1.2-3.2,1.7-4.8c0.4-1.1,0.7-2.2,0.9-3.3L262.4,297.6z"/>
<path class="st6" d="M269.7,298.5c-0.3,0-0.7,0-1,0.1v-1.3c0.4,0.1,0.8,0.1,1.2,0.1h2.1c0.4,0,0.8,0,1.1-0.1v1.3c-0.3,0-0.7,0-1,0
	h-0.6c-0.1,0.9-0.4,1.8-0.8,2.6h1.5c0.2,0,0.5,0,0.7,0c0,0.3,0,0.6,0,0.9v4.1c0,0.5,0,0.6,0,0.9h-1.2v-0.6h-1v1.2h-1.3
	c0.1-0.4,0.1-0.8,0.1-1.2v-2.2c0-0.5,0-0.5,0-1.2c-0.2,0.4-0.4,0.8-0.8,1.1c-0.1-0.5-0.2-1-0.5-1.5c0.7-0.7,1.2-1.6,1.5-2.6
	c0.2-0.5,0.3-1.1,0.4-1.6L269.7,298.5z M270.6,305.4h1v-3.1h-1V305.4z M274.4,298.5c-0.3,0-0.7,0-1,0.1v-1.3
	c0.4,0.1,0.9,0.1,1.3,0.1h3.5c0.4,0,0.9,0,1.3-0.1v1.3c-0.4-0.1-0.8-0.1-1.2-0.1v2.8h0.1c0.4,0,0.8,0,1.2-0.1v1.3
	c-0.4,0-0.8-0.1-1.2-0.1h-0.1v3.9c0,0.5,0,1,0.1,1.5H277c0-0.5,0.1-1,0.1-1.5v-3.9h-1.4c0,0.8-0.1,1.6-0.3,2.4
	c-0.2,1.1-0.7,2.2-1.5,3.1c-0.3-0.4-0.7-0.7-1.1-0.9c0.7-0.8,1.2-1.7,1.4-2.8c0.1-0.6,0.2-1.3,0.2-1.9c-0.4,0-0.8,0-1.2,0.1v-1.3
	c0.4,0.1,0.8,0.1,1.2,0.1L274.4,298.5z M277,301.4v-2.8h-1.4v2.8H277z"/>
<path class="st6" d="M287.4,302.8c0.6,0,0.9,0,1.3,0c0,0.3,0,0.5,0,1.1v2.4c0,0.3,0.1,0.4,0.5,0.4c0.9,0,1,0,1.1-0.3
	c0.1-0.6,0.2-1.2,0.2-1.9c0.4,0.2,0.8,0.3,1.3,0.4c-0.2,2.8-0.3,2.9-2.5,2.9c-1.5,0-1.8-0.2-1.8-1.1v-0.1V304h-1.8
	c-0.2,0.9-0.7,1.8-1.4,2.4c-0.8,0.7-1.8,1.3-2.9,1.6c-0.2-0.4-0.5-0.8-0.8-1.2c1-0.2,1.9-0.7,2.8-1.3c0.5-0.4,0.8-0.9,1-1.5h-1.7
	c-0.4,0-0.9,0-1.3,0.1v-1.3c0.4,0.1,0.9,0.1,1.3,0.1h1.9c0-0.2,0-0.5,0-0.7c0-0.2,0-0.5,0-0.7h1.4c-0.1,0.3-0.1,0.7-0.1,1
	c0,0.2,0,0.3,0,0.5L287.4,302.8z M285.2,297.8c0-0.3,0-0.5-0.1-0.8h1.5c0,0.3-0.1,0.5-0.1,0.8v0.2h3.4c0.4,0,0.9,0,1.3-0.1
	c0,0.3-0.1,0.6,0,0.9v0.9c0,0.3,0,0.6,0,0.9h-0.8c-0.1,0.7-0.2,0.9-0.6,1.1c-0.7,0.2-1.3,0.2-2,0.2c-1.2,0-1.6-0.2-1.6-0.9v-1.8h-1
	c-0.1,0.6-0.3,1.1-0.6,1.5c-0.5,0.8-1.2,1.1-3,1.6c-0.2-0.4-0.4-0.8-0.7-1.1c0.9,0,1.7-0.3,2.4-0.8c0.3-0.3,0.6-0.7,0.6-1.2h-2v1.4
	h-1.3c0-0.3,0.1-0.6,0.1-0.9v-0.8c0-0.3,0-0.6,0-0.9c0.4,0,0.9,0.1,1.3,0.1h3.2L285.2,297.8z M290,299.2h-2.4v1.3
	c0,0.3,0.1,0.3,0.8,0.3s0.8-0.1,0.9-0.2c0.1-0.2,0.1-0.5,0.1-0.7c0.2,0.1,0.4,0.1,0.6,0.2V299.2z"/>
<path class="st6" d="M302.5,297.5c-0.3,0.5-0.6,1-1,1.5c0.1,0.2,0.2,0.2,0.3,0.4c0.2-0.4,0.4-0.5,0.7-1.2l0.9,0.6
	c-0.2,0.3-0.2,0.3-0.8,1.1c-0.3,0.4-0.6,0.7-1,1.1l0.9-0.1c-0.1-0.2-0.1-0.3-0.2-0.5l0.8-0.3c0.3,0.6,0.5,1.2,0.7,1.9l-0.8,0.3
	l-0.1-0.6l-0.9,0.1c0.2,0.1,0.4,0.3,0.6,0.5l-0.5,0.4h0.3c0.4,0,0.8,0,1.3-0.1v1.3c-0.4-0.1-0.8-0.1-1.3-0.1h-0.4l0.9,0.6
	c-0.4,0.5-0.8,1-1.3,1.4c0.4,0.5,0.7,0.7,0.8,0.7s0.3-0.3,0.5-1.5c0.3,0.3,0.6,0.5,0.9,0.7c0,0.6-0.2,1.2-0.5,1.7
	c-0.2,0.3-0.5,0.4-0.8,0.4c-0.6,0-1.1-0.4-1.8-1.3c-0.8,0.6-1.7,1-2.6,1.4c-0.2-0.4-0.4-0.8-0.7-1.1c1-0.2,1.9-0.6,2.8-1.2
	c-0.3-0.6-0.5-1.2-0.6-1.9h-1.6c0,0.1,0,0.3,0,0.4c0.4,0.4,0.8,0.8,1.3,1c-0.1,0.2-0.2,0.3-0.3,0.5l-0.3,0.5c-0.4-0.2-0.7-0.5-1-0.8
	c-0.3,0.9-0.8,1.8-1.5,2.5c-0.3-0.3-0.6-0.6-1-0.9c1-0.8,1.6-1.9,1.6-3.2l-0.9,0v-1.2c0.3,0,0.7,0,1,0h2.5c0-0.4-0.1-0.5-0.1-0.7
	l-0.7,0.2c0-0.2,0-0.3,0-0.4l-0.8,0.1c-0.9,0.1-1.5,0.2-1.7,0.2v-0.4c-0.1,0.3-0.3,0.5-0.4,0.8c-0.2-0.4-0.4-0.7-0.6-1.1
	c0,0.3,0,1,0,1.5v3.5c0,0.5,0,1,0.1,1.5h-1.3c0.1-0.5,0.1-1,0.1-1.5v-2.1c0-0.5,0-1,0.1-2c-0.2,0.9-0.6,1.8-1,2.7
	c-0.1-0.5-0.3-0.9-0.6-1.3c0.4-0.6,0.7-1.2,0.9-1.9c0.2-0.5,0.4-1.1,0.5-1.6h-0.3c-0.3,0-0.6,0-0.8,0v-1.3c0.3,0.1,0.5,0.1,0.8,0.1
	h0.4v-1c0-0.4,0-0.8-0.1-1.3h1.3c0,0.4,0,0.8,0,1.2v1h0.2c0.2,0,0.4,0,0.6,0l-0.3-0.2l0.7-0.8l0.3,0.2c0.3-0.4,0.6-0.9,0.8-1.4
	l1,0.5c-0.3,0.6-0.6,1.1-1,1.7l0.3,0.4c0.3-0.3,0.5-0.7,0.6-1.1l0.9,0.6v-0.6c0-0.5,0-0.9-0.1-1.4h1.3c-0.1,0.3-0.1,0.5-0.1,0.8
	c0,0.1,0,0.3,0,0.4v0.4l0.4-0.5l0.3,0.3c0.3-0.4,0.5-0.8,0.7-1.3L302.5,297.5z M295.9,300.4c-0.2,0-0.5,0-0.7,0H295
	c0.2,0.4,0.4,0.8,0.7,1.2v-0.3h0.2h0.2c0.3-0.3,0.5-0.6,0.8-0.9c-0.3-0.4-0.6-0.8-1-1.1L295.9,300.4z M298.7,300.3
	c0.2,0.4,0.2,0.5,0.3,0.8c-0.1-1-0.1-1.5-0.1-2.1l-0.3,0.4c-0.4,0.6-0.9,1.2-1.4,1.8c0.3,0,0.6,0,0.9-0.1c-0.1-0.2-0.1-0.3-0.2-0.5
	L298.7,300.3z M300.1,299.1c0,1.1,0,1.1,0.1,2h0.2c0.3-0.3,0.5-0.6,0.8-0.9C300.8,299.8,300.5,299.4,300.1,299.1z M301.3,301.9h-0.2
	l-0.5,0.1h-0.3c0,0.3,0,0.3,0.1,0.8h1.3c-0.2-0.2-0.5-0.4-0.8-0.5L301.3,301.9z M300.6,303.9c0.1,0.4,0.2,0.8,0.4,1.1
	c0.4-0.3,0.7-0.7,0.9-1.1H300.6z"/>
<path class="st6" d="M308.5,303.2c0-0.4,0-0.6,0-0.9c-0.3,0.2-0.5,0.5-0.6,0.8c-0.3-0.4-0.5-0.8-0.7-1.3c0,0.4,0.1,0.9,0.1,1.7v3
	c0,0.5,0,1,0.1,1.5h-1.4c0.1-0.5,0.1-1,0.1-1.5v-2.3c0-0.5,0-1.1,0.1-1.6c-0.3,0.8-0.6,1.6-1.1,2.4c-0.2-0.4-0.5-0.7-0.8-1
	c0.7-1.1,1.3-2.4,1.6-3.7h-0.4c-0.3,0-0.5,0-0.8,0V299c0.3,0,0.5,0.1,0.8,0h0.6v-1c0-0.4,0-0.8-0.1-1.2h1.3
	c-0.1,0.4-0.1,0.8-0.1,1.2v1h0.3c0.2,0,0.5,0,0.7,0v1.3c-0.2,0-0.5,0-0.7,0h-0.2c0.2,0.5,0.4,0.9,0.7,1.3v-1c0.3,0,0.7,0.1,1,0.1
	h0.6v-0.5h-0.3c-0.3,0-0.6,0-0.9,0v-1c0.3,0,0.6,0.1,0.9,0h0.3v-0.5h-0.5c-0.3,0-0.7,0-1,0v-1c0.3,0.1,0.7,0.1,1,0.1h0.5
	c0-0.3,0-0.6-0.1-0.9h1.3c-0.1,0.3-0.1,0.6-0.1,0.9h1.5c0-0.3,0-0.6-0.1-0.9h1.3c-0.1,0.3-0.1,0.6-0.1,0.9h0.8c0.3,0,0.7,0,1-0.1v1
	c-0.3-0.1-0.7-0.1-1-0.1h-0.8v0.5h0.5c0.3,0,0.6,0,0.9,0v1c-0.3,0-0.6-0.1-0.9,0h-0.5v0.5h0.9c0.4,0,0.7,0,1.1-0.1v1.1
	c-0.4,0-0.7-0.1-1.1-0.1h-2.3v0.5h1.6c0.4,0,0.7,0,1.1,0c0,0.4-0.1,0.8,0,1.2v1.8c0.3,0,0.5,0,0.8-0.1v1.1c-0.3,0-0.5,0-0.8,0v0.7
	c0,1-0.2,1.1-1.5,1.1h-0.9c0-0.4-0.1-0.7-0.2-1.1c0.3,0,0.7,0.1,1,0.1c0.4,0,0.5,0,0.5-0.3V306h-3.9v0.5c0,0.8,0,1.1,0,1.5h-1.3
	c0.1-0.5,0.1-1,0.1-1.5V306c-0.2,0-0.5,0-0.7,0v-1c0.2,0,0.5,0.1,0.7,0L308.5,303.2z M309.5,302.1h1.5v-0.5h-1.9c-0.4,0-0.7,0-1,0
	c0.1,0.1,0.2,0.3,0.4,0.4C308.8,302.1,309,302.1,309.5,302.1z M311,303.6v-0.5h-1.4v0.5H311z M311,305.1v-0.5h-1.4v0.5H311z
	 M312.4,299.2v-0.5h-1.5v0.5H312.4z M312.4,300.6v-0.5h-1.5v0.5H312.4z M313.6,303.6v-0.5h-1.5v0.5H313.6z M313.6,305.1v-0.5h-1.5
	v0.5H313.6z"/>
<path class="st6" d="M593,288.9c0.5,0.2,1,0.3,1.6,0.3c1,0,1.8-0.7,1.8-2.9v-7.6h3.5v8.7c0,2.9-1.2,4.8-4.8,4.8
	c-0.7,0-1.5-0.2-2.2-0.4L593,288.9z"/>
<path class="st6" d="M602.4,288.7c1.1,0.6,2.4,0.9,3.7,0.9c1.1,0,2.2-0.2,2.2-1.3c0-2.5-6.3-0.9-6.3-5.7c0-3.2,3.1-4.1,5.8-4.1
	c1.2,0,2.3,0.2,3.4,0.5l-0.2,2.7c-0.9-0.4-1.9-0.6-2.9-0.6c-0.9,0-2.4,0.1-2.4,1.2c0,2.1,6.3,0.7,6.3,5.5c0,3.4-2.9,4.4-5.8,4.4
	c-1.3,0-2.7-0.2-4-0.6L602.4,288.7z"/>
<path class="st6" d="M616.2,281.4H613v-2.6h10.1v2.6h-3.3V292h-3.5L616.2,281.4z"/>
<path class="st6" d="M562.5,298.9c-0.5,0.1-0.7,0.1-1.4,0.2c-0.1-0.4-0.2-0.8-0.5-1.1c1.4,0,2.8-0.4,4.1-1l0.7,1.1l-0.2,0.1
	c-0.3,0.1-0.9,0.3-1.5,0.5v1.5h0.7c0.3,0,0.6,0,0.9-0.1v1.3c-0.3,0-0.6-0.1-0.9-0.1h-0.6c0.4,0.7,1,1.4,1.7,1.9
	c-0.3,0.4-0.5,0.8-0.6,1.2c-0.5-0.5-0.9-1-1.1-1.6c0,0.3,0,0.8,0.1,1.6v2.4c0,0.5,0,1,0.1,1.5h-1.4c0-0.4,0.1-0.9,0.1-1.5v-2
	c0-0.3,0-0.6,0.1-1.5c-0.3,1-0.8,1.9-1.5,2.7c-0.2-0.5-0.4-0.9-0.7-1.2c0.6-0.6,1-1.2,1.4-1.9c0.2-0.4,0.4-0.9,0.6-1.4h-0.6
	c-0.4,0-0.7,0-1.1,0.1V300c0.4,0.1,0.7,0.1,1.1,0.1h0.8V298.9z M569,298.4c0-0.5,0-0.9,0-1.4h1.5c-0.1,0.5-0.1,0.9-0.1,1.4v5.2
	c0.4-0.1,0.8-0.2,1.1-0.3l0.1,1.4c-0.4,0-0.8,0.1-1.1,0.2h-0.1v1.8c0,0.5,0,0.9,0.1,1.4H569c0.1-0.5,0.1-1,0.1-1.4v-1.5l-2.7,0.6
	c-0.5,0.1-0.9,0.2-1.2,0.3l-0.2-1.4h0c0.4,0,0.7-0.1,1.1-0.2l2.9-0.6L569,298.4z M566.1,300.6c0.8,0.6,1.6,1.2,2.3,1.9l-0.8,1.1
	c-0.7-0.8-1.4-1.4-2.3-2L566.1,300.6z M566.5,297.6c0.9,0.5,1.6,1.2,2.3,1.9l-0.8,1.1c-0.6-0.8-1.4-1.5-2.3-2L566.5,297.6z"/>
<path class="st6" d="M574.1,304.7c-0.5,0-1,0-1.5,0.1v-1.3c0.5,0.1,1,0.1,1.5,0.1h3.3v-0.1c0-0.2,0-0.4,0-0.7h0.5
	c0.5-0.3,1-0.6,1.4-1H576c-0.5,0-0.8,0-1.2,0v-1.2c0.4,0,0.8,0.1,1.2,0.1h4c0.3,0,0.6,0,0.9,0l0.7,0.7l-0.4,0.4
	c-0.7,0.7-1.6,1.2-2.4,1.8h3.1c0.5,0,1,0,1.5-0.1v1.3c-0.5-0.1-1-0.1-1.5-0.1h-3.2v2.1c0,0.3,0,0.5-0.2,0.8
	c-0.2,0.3-0.6,0.4-1.7,0.4l-1.2,0c-0.1-0.4-0.2-0.9-0.4-1.3c0.5,0.1,1,0.1,1.5,0.1c0.5,0,0.6,0,0.6-0.3v-1.8L574.1,304.7z
	 M574.8,298.8c-0.2-0.5-0.5-0.9-0.9-1.4l1.2-0.4c0.4,0.5,0.8,1.1,1.1,1.7h1.3c-0.2-0.5-0.4-1-0.7-1.5l1.2-0.4
	c0.3,0.6,0.6,1.2,0.8,1.9h1c0.4-0.6,0.7-1.2,1-1.8l1.3,0.4c-0.3,0.5-0.6,1-0.9,1.4h0.5c0.5,0,1,0,1.5,0c0,0.3,0,0.7,0,1v1.1
	c0,0.3,0,0.6,0.1,0.9h-1.3v-1.9h-7.8v1.9h-1.3c0-0.3,0.1-0.6,0.1-0.9v-1.1c0-0.3,0-0.7,0-1c0.5,0,0.9,0.1,1.4,0L574.8,298.8z"/>
<path class="st6" d="M585.6,300.3c-0.3,0-0.6,0-0.9,0.1v-1.3c0.3,0.1,0.6,0.1,0.9,0.1h0.5v-1c0-0.4,0-0.8-0.1-1.2h1.4
	c-0.1,0.4-0.1,0.8-0.1,1.2v1h0.2c0.2,0,0.5,0,0.7,0v1.3c-0.2,0-0.5-0.1-0.7,0h-0.2v1.8l1-0.4v1.2l-1,0.4v3.4c0,1-0.3,1.2-1.6,1.2
	c-0.3,0-0.5,0-0.8,0c0-0.4-0.1-0.9-0.3-1.2c0.3,0.1,0.7,0.1,1,0.1c0.4,0,0.5,0,0.5-0.4v-2.6l-0.3,0.1c-0.1,0.1-0.3,0.1-0.4,0.1
	l-0.5,0.2l-0.3-1.3c0.5-0.1,1-0.2,1.5-0.4v-2.3L585.6,300.3z M591,299.7h-1.1c-0.5,0-0.9,0-1.4,0.1v-1.3c0.5,0,0.9,0.1,1.4,0.1h1.1
	v-0.4c0-0.4,0-0.8,0-1.2h1.4c0,0.4-0.1,0.8-0.1,1.2v0.4h1.6c0.5,0,0.9,0,1.4-0.1v1.3c-0.5-0.1-0.9-0.1-1.4-0.1h-1.7v1.5h1.1
	c0.3,0,0.6,0,0.9,0l0.6,0.7c-0.1,0.2-0.1,0.2-0.4,0.7c-0.5,1-1.1,1.9-1.9,2.6c0.9,0.7,1.9,1.2,3,1.5c-0.3,0.4-0.6,0.8-0.7,1.2
	c-1.2-0.5-2.3-1.1-3.2-1.9c-1,0.8-2.2,1.5-3.5,1.9c-0.2-0.4-0.4-0.9-0.7-1.2c1.2-0.3,2.3-0.8,3.2-1.5c-0.7-0.8-1.3-1.8-1.7-2.8h-0.5
	v-1.3c0.4,0.1,0.8,0.1,1.2,0.1h1.1L591,299.7z M590.5,302.4c0.3,0.7,0.7,1.4,1.3,2c0.6-0.6,1.1-1.2,1.5-2H590.5z"/>
<path class="st6" d="M601.3,298.3c0-0.4,0-0.9-0.1-1.3h1.3c-0.1,0.4-0.1,0.9-0.1,1.3v1h0.5c0.4,0,0.7,0,1.1-0.1v1c0.2,0,0.4,0,0.6,0
	h1.8c0.3,0,0.7,0,1-0.1v1.3c-0.3,0-0.7,0-1,0v5.1c0,0.6-0.2,1-0.6,1.1c-0.4,0.1-0.8,0.1-1.2,0.1h-1c0-0.4-0.1-0.9-0.3-1.3
	c0.5,0.1,0.9,0.1,1.4,0.1c0.3,0,0.4-0.1,0.4-0.3v-4.9h-0.5c-0.3,0-0.5,0-0.8,0v-1h-0.6h-0.8v6c0,0.5,0,1,0.1,1.4h-1.3
	c0.1-0.5,0.1-1,0.1-1.4v-6h-1.1c-0.3,0-0.5,0-0.8,0c-0.3,0.5-0.6,0.9-0.8,1.2v4.8c0,0.5,0,0.9,0.1,1.4h-1.3c0.1-0.5,0.1-0.9,0.1-1.4
	v-2.2c0-0.5,0-0.5,0-1.3c-0.2,0.3-0.5,0.6-0.8,0.8c-0.1-0.5-0.2-0.9-0.5-1.3c0.7-0.5,1.3-1.2,1.8-1.9c0.2-0.3,0.4-0.7,0.6-1.1
	l0.9,0.5v-0.8c0.4,0.1,0.7,0.1,1.1,0.1h0.8L601.3,298.3z M599.7,297.5c0,0.1-0.3,0.3-0.6,0.8c-0.6,0.7-1.3,1.4-2.1,1.9
	c-0.1-0.4-0.3-0.8-0.6-1.1c0.9-0.5,1.6-1.3,2.2-2.2L599.7,297.5z M600.9,301.4c0,1.8-0.3,3.6-0.8,5.3c-0.3-0.2-0.6-0.3-1.1-0.6
	c0.3-0.6,0.5-1.3,0.6-2c0.1-1,0.2-1.9,0.2-2.9L600.9,301.4z M603.6,299.1c-0.3-0.5-0.6-1.1-1-1.5l0.9-0.5c0.3,0.4,0.6,0.8,0.9,1.2
	v-0.7c0.3,0,0.6,0.1,0.9,0.1h1.1c0.3,0,0.6,0,0.9-0.1v1.3c-0.3,0-0.6-0.1-0.9-0.1h-1.1c-0.3,0-0.6,0-0.9,0.1v-0.3L603.6,299.1z
	 M603.8,301.2c0.4,1.4,0.7,2.8,0.9,4.2l-1.1,0.4c-0.1-1.5-0.4-2.9-0.8-4.3L603.8,301.2z"/>
<path class="st6" d="M609.4,300.4c-0.3,0-0.6,0-0.8,0.1v-1.3c0.3,0,0.6,0.1,0.8,0.1h0.4v-1c0-0.4,0-0.8-0.1-1.2h1.4
	c0,0.4-0.1,0.8-0.1,1.2v1h0.4c0.2,0,0.4,0,0.6,0v1.2c-0.2,0-0.4,0-0.6,0h-0.4v1.8c0.3-0.1,0.5-0.2,0.9-0.4v1.2
	c-0.5,0.2-0.6,0.3-0.9,0.5v3.4c0,0.9-0.3,1.2-1.4,1.2c-0.2,0-0.3,0-0.9,0c0-0.4-0.1-0.8-0.3-1.2c0.3,0,0.7,0.1,1,0.1
	s0.3-0.1,0.3-0.3V304l-1,0.4l-0.2,0.1l-0.2-1.3c0.5-0.1,0.9-0.2,1.4-0.4v-2.3L609.4,300.4z M617.1,302.4c0.1,0.5,0.2,1,0.3,1.5
	c0.5-0.3,0.9-0.7,1.2-1.1l0.8,0.8l-1,0.8c-0.2,0.2-0.4,0.3-0.7,0.5c0.4,0.8,1,1.4,1.7,1.9c-0.3,0.3-0.6,0.7-0.8,1.1
	c-0.8-0.7-1.4-1.5-1.9-2.5c-0.5-0.9-0.7-2-0.8-3h-0.7v3.7c0.5-0.1,0.8-0.2,1.5-0.4v1.2c-1,0.3-2.1,0.6-3.1,0.9l-0.5,0.1l-0.3-1.3
	c0.4,0,0.9-0.1,1.3-0.1v-4h-0.7c0,1.1-0.2,2.2-0.4,3.2c-0.2,0.8-0.5,1.5-0.9,2.3c-0.3-0.4-0.6-0.7-1-1c1-1.7,1.2-3,1.2-8
	c0-0.8,0-1.1,0-1.5c0.4,0,0.9,0.1,1.4,0.1h4.2c0.4,0,0.9,0,1.3-0.1v1.3c-0.4,0-0.8,0-1.2,0h-4.5v1.3c0,0.6,0,0.9,0,1.4h4.8
	c0.3,0,0.7,0,1-0.1v1.2c-0.3,0-0.6,0-0.9,0L617.1,302.4z M618.8,300.5c-0.3,0-0.6-0.1-0.9,0h-3.1c-0.4,0-0.6,0-0.8,0v-1.1
	c0.3,0,0.5,0.1,0.8,0h3.2c0.3,0,0.6,0,0.9,0L618.8,300.5z"/>
<path class="st6" d="M629.6,304.4V303h-0.4c-0.2,0-0.4,0-0.6,0v-1.1c0.2,0,0.4,0,0.6,0h0.4v-1.1h-0.5c-0.3,0-0.4,0-0.6,0v-1.1
	c0.2,0,0.4,0,0.6,0h0.5v-1.1h-0.5c-0.2,0-0.4,0-0.6,0v-1.2c0.3,0,0.5,0.1,0.8,0.1h0.8c0.3,0,0.5,0,0.8,0c0,0.3-0.1,0.6-0.1,1.2
	l-0.2,5.6c0.2,0,0.5,0,0.7,0v1.2c-0.5-0.1-0.9-0.1-1.4-0.1h-8.1c-0.5,0-0.9,0-1.4,0.1v-1.2c0.3,0,0.6,0.1,0.8,0.1l-0.2-5.1
	c0-0.4,0-0.9-0.1-1.3c0.8-0.1,1.5-0.5,2.1-0.9l0.5,0.7c0-0.1,0-0.3,0-0.5c0.3,0,0.7,0.1,1,0h2.7c0.3,0,0.7,0,1,0c0,0.3,0,0.5,0,0.9
	v6.1L629.6,304.4z M625,306.3c-1.1,0.9-2.4,1.5-3.7,1.8c-0.2-0.4-0.4-0.7-0.7-1.1c0.6-0.1,1.3-0.3,1.9-0.5c0.6-0.2,1.1-0.5,1.6-0.9
	L625,306.3z M623.7,298.3c-0.4,0.2-0.9,0.4-1.3,0.5v1h0.4c0.2,0,0.4,0,0.6,0v1.1c-0.2,0-0.4,0-0.6,0h-0.4v1.1h0.4c0.2,0,0.4,0,0.6,0
	v1.1c-0.2,0-0.3,0-0.6,0h-0.4v1.3h1.2L623.7,298.3z M627.3,304.4v-6h-2.6v6H627.3z M627.1,300c-0.2,0-0.4,0-0.6,0h-1
	c-0.2,0-0.4,0-0.6,0v-1c0.2,0,0.4,0,0.6,0h1c0.2,0,0.4,0,0.6,0L627.1,300z M625.6,303.7H625c0-0.1,0-0.3,0-0.6v-1.8
	c0-0.3,0-0.5,0-0.6h0.6h0.9h0.6c0,0.1,0,0.4,0,0.7v1.9c0,0.3,0,0.5,0,0.6h-0.6L625.6,303.7z M625.8,302.7h0.6v-1.2h-0.6V302.7z
	 M627.8,305.5c1.1,0.8,2.4,1.2,3.7,1.3c-0.3,0.3-0.5,0.7-0.6,1.1c-0.7-0.1-1.4-0.4-2-0.6c-0.7-0.3-1.4-0.6-2-1.1L627.8,305.5z"/>
<path class="st6" d="M642.5,297.5c-0.3,0.5-0.6,1-1,1.5l0.3,0.4c0.2-0.4,0.4-0.5,0.7-1.2l0.9,0.6c-0.2,0.3-0.2,0.3-0.8,1.1
	c-0.3,0.4-0.6,0.7-1,1.1l0.9-0.1c-0.1-0.2-0.1-0.3-0.2-0.5l0.8-0.3c0.3,0.6,0.5,1.2,0.7,1.9l-0.8,0.3l-0.1-0.6l-0.9,0.1
	c0.2,0.1,0.4,0.3,0.6,0.5l-0.5,0.4h0.3c0.4,0,0.8,0,1.3-0.1v1.3c-0.4-0.1-0.8-0.1-1.3-0.1h-0.4l0.9,0.6c-0.4,0.5-0.8,1-1.3,1.4
	c0.3,0.5,0.7,0.7,0.8,0.7s0.3-0.3,0.5-1.5c0.3,0.3,0.6,0.5,0.9,0.7c0,0.6-0.2,1.2-0.5,1.7c-0.2,0.3-0.5,0.4-0.8,0.4
	c-0.6,0-1.2-0.4-1.8-1.3c-0.8,0.6-1.7,1-2.6,1.4c-0.2-0.4-0.4-0.8-0.7-1.1c1-0.2,1.9-0.6,2.8-1.2c-0.3-0.6-0.5-1.2-0.6-1.9h-1.6
	c0,0.1,0,0.3,0,0.4c0.4,0.4,0.8,0.8,1.3,1c-0.1,0.2-0.2,0.3-0.3,0.5l-0.3,0.5c-0.4-0.2-0.7-0.5-1-0.8c-0.3,0.9-0.8,1.8-1.5,2.5
	c-0.3-0.3-0.6-0.6-1-0.9c1-0.8,1.6-1.9,1.6-3.2l-0.9,0v-1.2c0.3,0,0.7,0,1,0h2.5c0-0.4-0.1-0.5-0.1-0.7l-0.7,0.2c0-0.2,0-0.3,0-0.4
	l-0.8,0.1c-0.9,0.1-1.5,0.2-1.7,0.2l0-0.4c-0.1,0.3-0.3,0.5-0.3,0.8c-0.2-0.4-0.4-0.7-0.6-1.1c0,0.3,0,1,0,1.5v3.5
	c0,0.5,0,1,0.1,1.5h-1.3c0.1-0.5,0.1-1,0.1-1.5v-2.1c0-0.5,0-1,0.1-2c-0.2,0.9-0.6,1.8-1,2.7c-0.1-0.5-0.3-0.9-0.6-1.3
	c0.4-0.6,0.7-1.2,0.9-1.9c0.2-0.5,0.4-1.1,0.5-1.6h-0.3c-0.3,0-0.6,0-0.8,0v-1.3c0.3,0.1,0.5,0.1,0.8,0.1h0.4v-1
	c0-0.4,0-0.8-0.1-1.3h1.4c0,0.4,0,0.8,0,1.2v1h0.2c0.2,0,0.4,0,0.6,0l-0.3-0.2l0.7-0.8l0.3,0.2c0.3-0.4,0.6-0.9,0.8-1.4l1,0.5
	c-0.3,0.6-0.6,1.1-1,1.7l0.3,0.4c0.2-0.3,0.5-0.7,0.6-1.1l0.8,0.6v-0.6c0-0.5,0-0.9-0.1-1.4h1.3c-0.1,0.3-0.1,0.5-0.1,0.8
	c0,0.1,0,0.3,0,0.4v0.4l0.4-0.5l0.3,0.3c0.3-0.4,0.6-0.8,0.7-1.3L642.5,297.5z M635.9,300.4c-0.2,0-0.5,0-0.7,0H635
	c0.2,0.4,0.4,0.8,0.7,1.2v-0.3h0.2h0.2c0.4-0.5,0.5-0.6,0.8-0.9c-0.3-0.4-0.6-0.8-1-1.1L635.9,300.4z M638.7,300.3
	c0.2,0.4,0.2,0.5,0.3,0.8c-0.1-1-0.1-1.5-0.1-2.1l-0.3,0.4c-0.4,0.6-0.9,1.2-1.4,1.8c0.3,0,0.6,0,0.9-0.1c-0.1-0.2-0.1-0.3-0.2-0.5
	L638.7,300.3z M640.1,299.1c0,1.1,0,1.1,0.1,2h0.2c0.3-0.3,0.5-0.6,0.8-0.9C640.8,299.8,640.5,299.4,640.1,299.1L640.1,299.1z
	 M641.3,301.9h-0.2l-0.5,0.1h-0.3c0,0.3,0,0.3,0.1,0.8h1.3c-0.2-0.2-0.5-0.4-0.8-0.5L641.3,301.9z M640.6,303.9
	c0.1,0.4,0.2,0.8,0.4,1.1c0.4-0.3,0.7-0.7,0.9-1.1H640.6z"/>
<path class="st6" d="M648.5,303.2c0-0.4,0-0.6,0-0.9c-0.3,0.2-0.5,0.5-0.6,0.8c-0.3-0.4-0.5-0.8-0.7-1.3c0,0.4,0.1,0.9,0.1,1.7v3
	c0,0.5,0,1,0.1,1.5h-1.4c0.1-0.5,0.1-1,0.1-1.5v-2.3c0-0.5,0-1.1,0.1-1.6c-0.3,0.8-0.6,1.6-1.1,2.4c-0.2-0.4-0.5-0.7-0.8-1
	c0.7-1.1,1.3-2.4,1.6-3.7h-0.4c-0.3,0-0.5,0-0.8,0V299c0.3,0,0.5,0.1,0.8,0h0.6v-1c0-0.4,0-0.8-0.1-1.2h1.3
	c-0.1,0.4-0.1,0.8-0.1,1.2v1h0.3c0.2,0,0.5,0,0.7,0v1.3c-0.2,0-0.5,0-0.7,0h-0.2c0.2,0.5,0.4,0.9,0.7,1.3v-1c0.3,0,0.7,0.1,1,0.1
	h0.7v-0.5h-0.3c-0.3,0-0.6,0-0.9,0v-1c0.3,0,0.6,0.1,0.9,0h0.3v-0.5h-0.5c-0.3,0-0.7,0-1,0v-1c0.3,0.1,0.7,0.1,1,0.1h0.5
	c0-0.3,0-0.6-0.1-0.9h1.3c-0.1,0.3-0.1,0.6-0.1,0.9h1.5c0-0.3,0-0.6-0.1-0.9h1.3c-0.1,0.3-0.1,0.6-0.1,0.9h0.8c0.3,0,0.7,0,1-0.1v1
	c-0.3-0.1-0.7-0.1-1-0.1h-0.8v0.5h0.5c0.3,0,0.6,0,0.9,0v1c-0.3,0-0.6-0.1-0.9,0h-0.5v0.5h0.8c0.4,0,0.7,0,1.1-0.1v1.1
	c-0.4,0-0.7-0.1-1.1-0.1h-2.3v0.5h1.6c0.4,0,0.7,0,1.1,0c0,0.4,0,0.8,0,1.2v1.8c0.3,0,0.5,0,0.8-0.1v1.1c-0.3,0-0.5,0-0.8,0v0.7
	c0,1-0.2,1.1-1.5,1.1h-0.9c0-0.4-0.1-0.7-0.2-1.1c0.3,0,0.7,0.1,1,0.1c0.4,0,0.5,0,0.5-0.3V306h-3.9v0.5c0,0.5,0,1,0,1.5h-1.3
	c0.1-0.5,0.1-1,0.1-1.5V306c-0.2,0-0.5,0-0.7,0v-1c0.2,0,0.5,0.1,0.7,0L648.5,303.2z M649.5,302.1h1.5v-0.5h-1.9c-0.4,0-0.7,0-1,0
	c0.1,0.1,0.2,0.3,0.4,0.4C648.8,302.1,649,302.1,649.5,302.1L649.5,302.1z M651,303.6v-0.5h-1.3v0.5H651z M651,305.1v-0.5h-1.3v0.5
	H651z M652.4,299.2v-0.5h-1.5v0.5H652.4z M652.4,300.6v-0.5h-1.5v0.5H652.4z M653.6,303.6v-0.5h-1.5v0.5H653.6z M653.6,305.1v-0.5
	h-1.5v0.5H653.6z"/>
<path class="st8" d="M477.6,249.3c0-0.4,0-0.8-0.1-1.2h1.4c-0.1,0.4-0.1,0.8-0.1,1.2v0.8h2.7v-0.8c0-0.4,0-0.8-0.1-1.2h1.5
	c-0.1,0.4-0.1,0.8-0.1,1.3v0.8h1c0.5,0,0.9,0,1.4-0.1v1.4c-0.4,0-0.9-0.1-1.4-0.1h-1v2.6h1.2c0.5,0,1,0,1.6-0.1v1.5
	c-0.5-0.1-1-0.1-1.5-0.1h-7.8c-0.5,0-1,0-1.5,0.1v-1.5c0.5,0.1,1,0.1,1.5,0.1h1.2v-2.5h-0.9c-0.4,0-0.9,0-1.3,0.1v-1.4
	c0.4,0.1,0.9,0.1,1.3,0.1h0.9L477.6,249.3z M479.4,256.2c-0.5,0.7-1.1,1.3-1.8,1.8c-0.5,0.4-1.1,0.7-1.8,1c-0.3-0.4-0.6-0.8-0.9-1.1
	c0.7-0.2,1.4-0.6,2-1c0.5-0.4,1-0.8,1.4-1.3L479.4,256.2z M481.7,253.9v-2.5H479v2.6L481.7,253.9z M482.3,255.5
	c0.5,0.6,1,1.1,1.7,1.5c0.6,0.4,1.2,0.7,1.8,0.9c-0.4,0.3-0.7,0.7-0.9,1.2c-0.8-0.3-1.5-0.8-2.1-1.3c-0.6-0.4-1.1-0.9-1.6-1.5
	L482.3,255.5z"/>
<path class="st8" d="M487.3,249.5c0-0.4,0-0.8,0-1.2c0.2,0,0.8,0.1,1.4,0.1h7.5c0.5,0,1,0,1.3-0.1c0,0.4-0.1,0.9,0,1.3v8
	c0,1-0.4,1.2-2,1.2c-0.4,0-0.9,0-1.3,0c0-0.4-0.2-0.9-0.3-1.3c0.6,0.1,1.1,0.1,1.7,0.1c0.5,0,0.6,0,0.6-0.3v-7.8h-7.3v8
	c0,0.5,0,0.9,0.1,1.4h-1.5c0.1-0.5,0.1-1,0.1-1.4L487.3,249.5z M489.2,250.4c0.4,0.1,0.7,0.1,1.1,0.1h4.1c0.4,0,0.7,0,1.1-0.1v1.3
	c-0.3,0-0.7,0-1,0h-4.2c-0.3,0-0.7,0-1,0L489.2,250.4z M494.8,255.9c0,0.3,0,0.5,0,0.8c-0.3,0-0.5,0-0.8,0h-2.9v0.9h-1.3
	c0-0.4,0-0.7,0-1.1v-3.1c0-0.3,0-0.6,0-0.8h0.8h3.4c0.5,0,0.7,0,0.9,0c0,0.2,0,0.4,0,0.8L494.8,255.9z M491.1,255.5h2.4v-1.7h-2.4
	V255.5z"/>
<path class="st8" d="M500,249.5c-0.3,0-0.7,0-1,0.1v-1.3c0.4,0.1,0.8,0.1,1.2,0.1h2.1c0.4,0,0.8,0,1.1-0.1v1.3c-0.3,0-0.7,0-1-0.1
	h-0.6c-0.1,0.9-0.4,1.8-0.8,2.6h1.5c0.2,0,0.5,0,0.7,0c0,0.3,0,0.6,0,0.9v4.1c0,0.3,0,0.6,0,0.9H502v-0.6h-1v1.2h-1.3
	c0.1-0.4,0.1-0.8,0.1-1.2v-2.2c0-0.5,0-0.5,0-1.2c-0.2,0.4-0.5,0.8-0.8,1.1c-0.1-0.5-0.2-1-0.5-1.5c0.7-0.7,1.2-1.6,1.5-2.6
	c0.2-0.5,0.3-1.1,0.4-1.6L500,249.5z M500.9,256.4h1v-3.1h-1V256.4z M504.7,249.5c-0.3,0-0.7,0-1,0.1v-1.3c0.4,0.1,0.9,0.1,1.3,0.1
	h3.5c0.4,0,0.9,0,1.3-0.1v1.3c-0.4-0.1-0.8-0.1-1.2-0.1v2.8h0.1c0.4,0,0.8,0,1.2-0.1v1.3c-0.4,0-0.8-0.1-1.2-0.1h-0.1v3.9
	c0,0.5,0,1,0.1,1.5h-1.4c0-0.5,0.1-0.9,0.1-1.5v-3.9H506c0,0.8-0.1,1.6-0.3,2.4c-0.2,1.1-0.7,2.2-1.5,3.1c-0.3-0.4-0.7-0.7-1.1-0.9
	c0.7-0.8,1.2-1.7,1.4-2.8c0.1-0.6,0.2-1.3,0.2-1.9c-0.4,0-0.8,0-1.2,0.1v-1.3c0.4,0.1,0.8,0.1,1.2,0.1L504.7,249.5z M507.4,252.3
	v-2.8H506v2.8H507.4z"/>
<path class="st8" d="M517.8,253.8c0.6,0,0.9,0,1.3-0.1c0,0.3,0,0.5,0,1.1v2.4c0,0.3,0.1,0.4,0.5,0.4c0.9,0,1,0,1.1-0.3
	c0.1-0.6,0.2-1.2,0.2-1.9c0.4,0.2,0.8,0.3,1.3,0.4c-0.2,2.8-0.3,2.9-2.5,2.9c-1.5,0-1.8-0.2-1.8-1.1v-0.1V255H516
	c-0.2,0.9-0.7,1.8-1.4,2.4c-0.8,0.7-1.8,1.3-2.9,1.6c-0.2-0.4-0.5-0.8-0.8-1.2c1-0.2,1.9-0.7,2.8-1.3c0.5-0.4,0.8-0.9,1-1.5H513
	c-0.5,0-0.9,0-1.4,0.1v-1.3c0.4,0.1,0.9,0.1,1.3,0.1h1.9c0-0.2,0-0.5,0-0.7c0-0.2,0-0.5,0-0.7h1.4c-0.1,0.3-0.1,0.7-0.1,1
	c0,0.2,0,0.3,0,0.4L517.8,253.8z M515.6,248.8c0-0.3,0-0.5-0.1-0.8h1.5c0,0.3-0.1,0.5-0.1,0.8v0.2h3.4c0.4,0,0.9,0,1.3-0.1
	c0,0.3-0.1,0.6,0,0.9v0.9c0,0.3,0,0.6,0,0.9h-0.8c-0.1,0.7-0.2,0.9-0.6,1.1c-0.7,0.2-1.3,0.2-2,0.2c-1.2,0-1.6-0.2-1.6-0.9v-1.8h-1
	c-0.1,0.6-0.3,1.1-0.6,1.6c-0.5,0.8-1.2,1.1-3,1.6c-0.2-0.4-0.4-0.8-0.7-1.1c0.9,0,1.7-0.3,2.4-0.8c0.4-0.3,0.6-0.7,0.6-1.2h-2v1.4
	H511c0-0.3,0.1-0.6,0.1-0.9v-0.8c0-0.3,0-0.6,0-0.9c0.4,0,0.9,0.1,1.3,0.1h3.2L515.6,248.8z M520.3,250.2h-2.4v1.3
	c0,0.3,0.1,0.3,0.8,0.3s0.8-0.1,0.9-0.2c0.1-0.2,0.1-0.5,0.1-0.7c0.2,0.1,0.4,0.1,0.7,0.2V250.2z"/>
<rect x="464" y="236" class="st8" width="72" height="4"/>
<polygon class="st8" points="454.6,238 466.2,244.7 466.2,231.3 "/>
<polygon class="st8" points="542,238 530.5,231.3 530.5,244.7 "/>
<path class="st8" d="M216.9,249.1c0-0.4,0-0.8-0.1-1.2h1.4c-0.1,0.4-0.1,0.8-0.1,1.2v1.8c0.3,0,0.6,0,0.9,0v1.3c-0.3,0-0.6,0-0.9,0
	v5.4c0,0.5,0,1,0.1,1.5h-1.4c0.1-0.5,0.1-1,0.1-1.5v-5.5h-0.1c-0.4,0-0.7,0-1.1,0.1v-1.4c0.4,0.1,0.7,0.1,1.1,0.1h0.1V249.1z
	 M219.9,252.6c-0.2-0.3-0.4-0.6-0.7-0.9c0.9-0.3,1.7-0.9,2.2-1.7h-0.9c-0.4,0-0.8,0-1.1,0.1v-1.3c0.3,0,0.7,0.1,1.2,0.1h1.2
	c0-0.3,0.1-0.6,0.1-0.8c0,0,0-0.1,0-0.2l1.4,0.1c0,0.1,0,0.2-0.1,0.6c0,0.2,0,0.2-0.1,0.4h2c0.4,0,0.7,0,1.1-0.1
	c0,0.2,0,0.4-0.1,0.8c-0.1,1.5-0.2,2.1-0.6,2.4s-0.6,0.3-1.5,0.3c-0.3,0-0.5,0-1,0c0-0.4-0.1-0.8-0.3-1.2c0.5,0.1,1,0.1,1.5,0.1
	c0.5,0,0.6-0.1,0.6-1.2h-2c-0.5,1.1-1.4,2.1-2.5,2.6h0.7c0,0.2-0.1,0.4-0.1,0.6c0,0.1,0,0.1,0,0.2h0.6c0.5,0,0.7,0,1.1,0
	c0,0.2,0,0.5,0,0.8c0,1.3-0.1,2.5-0.4,3.7c0.9-0.9,1.3-2.1,1.4-3.3h-0.3c-0.1,0-0.3,0-0.4,0v-1.2c0.3,0,0.5,0,0.8,0v-0.4
	c0-0.2,0-0.3,0-0.5h1.3c0,0.2-0.1,0.5-0.1,0.7c0,0.1,0,0.1,0,0.2h0.9c0.5,0,0.7,0,1.1,0c0,0.3,0,0.4,0,0.7c0.1,1.3-0.1,2.7-0.5,4
	c-0.2,0.4-0.6,0.6-1.4,0.6c-0.2,0-0.4,0-0.5,0c0-0.4-0.1-0.9-0.2-1.3c0.3,0.1,0.6,0.1,0.8,0.1c0.2,0,0.3-0.1,0.4-0.2
	c0.2-0.9,0.3-1.8,0.2-2.7h-0.8c-0.1,0.9-0.3,1.8-0.6,2.6c-0.2,0.6-0.6,1.2-1,1.7c-0.2-0.4-0.5-0.7-0.9-0.9c-0.1,0.3-0.2,0.5-0.5,0.6
	c-0.3,0.1-0.6,0.1-0.9,0.1h-0.5c0-0.4-0.1-0.8-0.2-1.2c-0.2,0.5-0.5,1-0.9,1.4c-0.2-0.4-0.5-0.7-0.9-1.1c0.4-0.4,0.7-0.8,0.9-1.3
	c0.3-0.6,0.4-1.3,0.5-1.9h-0.3c-0.2,0-0.4,0-0.6,0v-1.2c0.2,0,0.4,0,0.7,0h0.3v-0.2C219.9,253,219.9,252.8,219.9,252.6L219.9,252.6z
	 M220.7,254.7c-0.1,1-0.3,1.9-0.7,2.8c0.3,0.1,0.5,0.1,0.8,0.1c0.2,0,0.3-0.1,0.4-0.3c0.1-0.9,0.2-1.7,0.2-2.6L220.7,254.7z"/>
<path class="st8" d="M236.5,250.3c0.5,0,1,0,1.5-0.1c0,0.5,0,0.5-0.1,1.8c0,1.6-0.1,3.7-0.3,4.5c-0.2,1.1-0.3,1.5-0.7,1.8
	c-0.4,0.3-0.9,0.4-1.4,0.3c-0.6,0-1.2,0-1.8-0.1c0-0.5-0.2-1-0.3-1.5c0.7,0.1,1.4,0.2,2.1,0.2c0.6,0,0.8-0.2,0.9-1
	c0.2-1.6,0.3-3.1,0.3-4.7h-3.2c-0.1,1.4-0.5,2.8-1.1,4c-0.8,1.4-2,2.5-3.4,3.2c-0.2-0.5-0.6-0.9-1-1.2c1.5-0.6,2.7-1.6,3.4-3
	c0.4-0.9,0.7-2,0.8-3h-2.1c-0.5,0-1,0-1.5,0.1v-1.4c0.5,0.1,1,0.1,1.5,0.1h2.1c0-0.5,0-0.6,0-1.2c0-0.4,0-0.8-0.1-1.2h1.6
	c-0.1,0.8-0.1,1.6-0.1,2.4L236.5,250.3z"/>
<path class="st8" d="M246.8,253.4c0,0.8-0.6,1.4-1.4,1.4s-1.4-0.6-1.4-1.4s0.6-1.4,1.4-1.4c0,0,0,0,0,0
	C246.1,252,246.8,252.7,246.8,253.4z"/>
<path class="st8" d="M251.9,252.5c0.3,0.1,0.7,0.1,1,0.1h0.9c0.3,0,0.6,0,0.9-0.1c0,0.4-0.1,0.9-0.1,1.3v2.6
	c0.1,0.2,0.3,0.5,0.6,0.6c0.9,0.4,1.8,0.6,2.8,0.5c1.7,0,3.4,0,5.1-0.2c-0.2,0.5-0.3,0.9-0.4,1.4c-1,0-2.7,0.1-4.2,0.1
	c-2.1,0-2.8-0.1-3.5-0.5c-0.4-0.2-0.8-0.5-1.1-0.9c-0.4,0.4-0.9,0.8-1.4,1.2l-0.4,0.3l-0.6-1.4c0.6-0.3,1.2-0.7,1.7-1.2v-2.6h-0.7
	c-0.3,0-0.5,0-0.8,0.1L251.9,252.5z M252.9,248c0.8,0.7,1.5,1.4,2.1,2.2l-1,1c-0.6-0.8-1.2-1.6-2-2.2L252.9,248z M256,249.9
	c-0.3,0-0.7,0-1,0.1v-1.2c0.4,0.1,0.9,0.1,1.4,0.1h1.8c0-0.3,0-0.6-0.1-0.9h1.4c0,0.3-0.1,0.6-0.1,0.9h2c0.5,0,0.9,0,1.4-0.1v1.2
	c-0.4-0.1-0.8-0.1-1.2-0.1h-2.1v0.6h1.9c0.3,0,0.7,0,1-0.1c0,0.3-0.1,0.6,0,0.9v2.5c0,0.3,0,0.6,0,0.9c-0.3,0-0.6,0-1,0h-1.9v0.6
	h2.2c0.4,0,0.8,0,1.2-0.1v1.2c-0.4,0-0.8-0.1-1.2-0.1h-2.2c0,0.3,0,0.7,0.1,1h-1.4c0.1-0.3,0.1-0.7,0.1-1h-1.9c-0.4,0-0.9,0-1.2,0
	v-1.1c0.4,0,0.8,0.1,1.2,0.1h1.9v-0.6h-1.7c-0.4,0-0.7,0-1,0c0-0.3,0.1-0.6,0.1-0.9v-2.5c0-0.3,0-0.6-0.1-0.9c0.3,0,0.7,0.1,1,0.1
	h1.7v-0.6H256z M256.7,251.4v0.7h1.5v-0.7H256.7z M256.7,253v0.7h1.5V253L256.7,253z M259.3,252.1h1.6v-0.7h-1.6V252.1z
	 M259.3,253.7h1.6V253h-1.6V253.7z"/>
<path class="st8" d="M272.2,253.2h1.5c0.4,0,0.7,0,1.1-0.1v1.1c-0.4,0-0.7-0.1-1.1-0.1H269c-0.3,0-0.5,0-0.9,0c0-0.3,0-0.5,0-0.9v-1
	c0-0.4,0-0.5,0-0.9c-0.2,0.3-0.4,0.5-0.6,0.7c-0.1-0.3-0.3-0.6-0.5-0.8h-0.5v1.9c0.4-0.1,0.5-0.2,1.2-0.4v1.2
	c-0.6,0.2-0.7,0.3-1.2,0.4v3.7c1.2-0.2,2.2-1.1,2.4-2.2h-0.8c-0.3,0-0.6,0-0.9,0.1v-1.2c0.3,0.1,0.7,0.1,1,0.1h3.9c0.3,0,0.7,0,1,0
	c-0.1,0.2-0.1,0.2-0.2,0.6c0,0.1-0.1,0.4-0.2,0.6h1c0.3,0,0.6,0,0.9-0.1c-0.1,0.4-0.1,0.4-0.1,0.7c-0.1,0.7-0.3,1.4-0.6,2
	c-0.3,0.4-0.6,0.5-1.4,0.5c-0.4,0-0.9,0-1.4-0.1c0-0.4-0.1-0.8-0.3-1.2c0.5,0.1,1,0.1,1.4,0.1c0.4,0,0.5,0,0.6-0.2
	c0.1-0.2,0.2-0.5,0.3-0.8H272c-0.2,0-0.5,0-0.8,0c0.2-0.4,0.3-0.7,0.4-1.1h-1.4c-0.1,0.8-0.5,1.5-1,2.1c-0.6,0.6-1.3,1-2.1,1.3
	c-0.2-0.4-0.4-0.7-0.6-1c-0.1,0.5-0.2,0.6-0.6,0.7c-0.4,0.1-0.8,0.2-1.1,0.1h-0.6c0-0.4-0.1-0.9-0.3-1.3c0.3,0.1,0.7,0.1,1,0.1
	c0.3,0,0.4-0.1,0.4-0.4v-2.7c-0.3,0.1-0.4,0.1-0.6,0.2c-0.2,0.1-0.4,0.1-0.6,0.2l-0.2-1.4c0.5,0,1-0.2,1.5-0.3v-2.2h-0.5
	c-0.3,0-0.6,0-0.9,0.1V250c0.3,0.1,0.6,0.1,0.9,0.1h0.4v-0.9c0-0.4,0-0.8-0.1-1.2h1.4c-0.1,0.4-0.1,0.8-0.1,1.2v0.9h0.2
	c0.2,0,0.4,0,0.7-0.1v0.5c0.7-0.8,1.2-1.7,1.5-2.7l1.3,0.3c-0.1,0.4-0.3,0.7-0.5,1h1.5c0.2-0.4,0.4-0.7,0.6-1.1l1.3,0.2
	c-0.2,0.3-0.3,0.6-0.5,0.9h1.2c0.4,0,0.7,0,1.1,0v1.1c-0.3,0-0.6-0.1-0.9-0.1h-1.5v0.5h1c0.4,0,0.7,0,1.1-0.1v0.9
	c-0.3,0-0.5,0-1.1,0h-1v0.5h1c0.4,0,0.7,0,1.1,0v0.9c-0.2,0-0.5,0-1.1,0h-1L272.2,253.2z M271.1,250.1h-1.8v0.5h1.8L271.1,250.1z
	 M271.1,251.4h-1.8v0.5h1.8L271.1,251.4z M269.3,252.8v0.5h1.8v-0.5H269.3z"/>
<rect x="211" y="236" class="st8" width="72" height="4"/>
<polygon class="st8" points="201.6,238 213.2,244.7 213.2,231.3 "/>
<polygon class="st8" points="289,238 277.5,231.3 277.5,244.7 "/>
<path class="st3" d="M575.7,152.5h4.5l7,13.8l0,0v-13.8h3.5V171h-4.5l-7.1-13.8l0,0V171h-3.5L575.7,152.5z"/>
<path class="st3" d="M595,152.5h6.5c2.4,0,6,0.7,6,4.7c0,2.1-1.6,3.9-3.7,4.1l0,0c2.5,0.2,4.2,1.9,4.2,4.2c0,4.7-4.2,5.4-6.5,5.4
	H595V152.5z M598.7,160h1.5c1.6,0,3.5-0.4,3.5-2.2c0-2.1-1.9-2.3-3.6-2.3h-1.4V160z M598.7,168.1h1.8c1.7,0,3.8-0.4,3.8-2.6
	c0-2.4-2-2.8-3.8-2.8h-1.8V168.1z"/>
<path class="st3" d="M611.2,152.5h5c5.7,0,10.7,1.9,10.7,9.2s-5,9.2-10.7,9.2h-5V152.5z M614.9,168.1h2.1c3.5,0,6.3-2.8,6.3-6.3
	s-2.8-6.3-6.3-6.3h-2.1V168.1z"/>
<path class="st3" d="M643.7,170.7c-1.4,0.4-2.8,0.6-4.2,0.6c-6,0-10.1-3-10.1-9.2s3.9-9.9,10.1-9.9c1.4,0,2.8,0.3,4.2,0.8l-0.3,3.1
	c-1.2-0.7-2.6-1-4-1c-3.8,0-6.2,2.9-6.2,6.7s2.3,6.6,6.3,6.6c1.4,0,2.7-0.2,4-0.8L643.7,170.7z"/>
<circle class="st7" cx="131" cy="177" r="78"/>
<circle class="st7" cx="131" cy="177" r="78"/>
<path class="st3" d="M93.6,182.1c0-0.5,0-1-0.1-1.6c0.5,0,0.8,0,1.5,0h2.2c1.2-0.1,2.4,0.3,3.2,1.1c0.9,1,1.4,2.3,1.3,3.6
	c0.1,1.4-0.4,2.8-1.4,3.8c-0.9,0.7-2,1.1-3.1,1H95c-0.7,0-1,0-1.5,0c0.1-0.5,0.1-1.1,0.1-1.6L93.6,182.1z M97.1,188.7
	c0.8,0.1,1.6-0.2,2.1-0.8c0.6-0.7,0.9-1.7,0.9-2.7c0.1-0.9-0.2-1.9-0.8-2.6c-0.6-0.5-1.4-0.8-2.2-0.7h-1.9v6.7L97.1,188.7z"/>
<path class="st3" d="M103,182.1c0-0.5,0-1-0.1-1.6c0.5,0,0.8,0,1.5,0h2.2c1.2-0.1,2.4,0.3,3.2,1.1c0.9,1,1.4,2.3,1.3,3.6
	c0.1,1.4-0.4,2.8-1.4,3.8c-0.9,0.7-2,1.1-3.1,1h-2.2c-0.7,0-1,0-1.5,0c0.1-0.5,0.1-1.1,0.1-1.6L103,182.1z M106.5,188.7
	c0.8,0.1,1.6-0.2,2.1-0.8c0.6-0.7,0.9-1.7,0.9-2.7c0.1-0.9-0.2-1.9-0.8-2.6c-0.6-0.5-1.4-0.8-2.2-0.7h-1.9v6.7L106.5,188.7z"/>
<path class="st3" d="M113.8,190.1c-0.7,0-1,0-1.5,0c0.1-0.5,0.1-1.1,0.1-1.6V182c0-0.5,0-1-0.1-1.5c0.5,0,0.7,0,1.5,0h2.8
	c1.9,0,2.9,0.8,2.9,2.3c0,0.6-0.2,1.3-0.7,1.7c-0.3,0.3-0.6,0.4-1,0.5c0.5,0.1,0.9,0.2,1.2,0.6c0.5,0.5,0.8,1.1,0.8,1.8
	c0,1.7-1.1,2.6-3.1,2.6L113.8,190.1z M116.5,184.5c0.7,0.1,1.4-0.3,1.5-1c0-0.1,0-0.2,0-0.3c0-0.3-0.1-0.6-0.3-0.9
	c-0.3-0.3-0.7-0.4-1.2-0.4H114v2.6L116.5,184.5z M114,188.8h2.6c1.1,0,1.7-0.5,1.7-1.5c0-0.4-0.1-0.7-0.4-1
	c-0.4-0.3-0.8-0.4-1.3-0.4H114V188.8z"/>
<path class="st3" d="M126.5,180.6c-0.1,0.5-0.1,1-0.1,1.5v5.4c0.1,0.7-0.2,1.4-0.7,2c-0.6,0.6-1.5,0.9-2.3,0.8
	c-0.9,0.1-1.8-0.3-2.4-0.9c-0.3-0.3-0.5-0.7-0.7-1.1l1.6-0.6c0.1,0.4,0.3,0.8,0.7,1c0.3,0.2,0.6,0.2,0.9,0.2c0.4,0,0.7-0.1,1-0.4
	c0.2-0.3,0.3-0.6,0.3-1v-5.4c0-0.5,0-1-0.1-1.5L126.5,180.6z"/>
<path class="st3" d="M141.2,183.1c-0.1,0.2-0.2,0.4-0.3,0.6c-0.7,1.4-1.7,2.6-2.9,3.5c-0.3-0.4-0.7-0.7-1.2-1c0.8-0.4,1.5-1,2-1.7
	c0.2-0.2,0.3-0.5,0.4-0.7c-0.1,0-0.3,0.1-0.4,0.1c-1.2,0.1-2.4,0.3-3.7,0.5v2.7c0,0.3,0,0.7,0.1,1c0.1,0.5,0.5,0.6,1.7,0.6
	c1.2,0,2.5-0.1,3.7-0.5l0.1,1.6h-0.7c-1,0.1-2,0.2-3,0.2c-0.7,0-1.4,0-2.1-0.2c-0.5-0.2-0.9-0.6-1-1.1c-0.1-0.5-0.2-1-0.1-1.5v-2.8
	l-1.1,0.1c-0.5,0.1-1,0.2-1.4,0.4l-0.1-1.5h0.3c0.3,0,0.7,0,1-0.1l1.3-0.1v-1.7c0-0.4,0-0.8-0.1-1.1h1.7c-0.1,0.4-0.1,0.7-0.1,1.1
	v1.5l4.4-0.5c0.3,0,0.6-0.1,0.9-0.2L141.2,183.1z"/>
<path class="st3" d="M143.3,188.6c1.2-0.1,2.4-0.4,3.6-0.9c1.5-0.6,2.7-1.6,3.6-2.9c0.5-0.7,0.9-1.5,1.2-2.4
	c0.4,0.5,0.8,0.9,1.3,1.2c-0.8,1.9-2.1,3.5-3.8,4.7c-1.4,0.9-2.9,1.5-4.6,1.8c-0.3,0-0.5,0.1-0.8,0.2L143.3,188.6z M144.3,181.1
	c1.1,0.7,2.2,1.4,3.1,2.3l-1,1.3c-0.9-1-1.9-1.8-3.1-2.4L144.3,181.1z"/>
<path class="st3" d="M164.2,182.2c-0.2,0.2-0.3,0.5-0.4,0.8c-0.4,1.1-0.9,2.2-1.5,3.3c-1.3,2.1-3.2,3.7-5.5,4.6
	c-0.2-0.5-0.6-0.9-1-1.2c0.8-0.3,1.6-0.7,2.3-1.2c0.7-0.5,1.4-1,2-1.7c-0.8-0.7-1.6-1.2-2.5-1.7l0.9-1.1c0.9,0.5,1.7,1,2.4,1.6
	c0.6-0.9,1-1.8,1.3-2.8h-3.7c-0.7,1.2-1.7,2.3-2.8,3.2c-0.3-0.4-0.7-0.7-1.2-1c1.2-0.9,2.3-2.1,3-3.4c0.3-0.5,0.5-1.1,0.7-1.7
	l1.6,0.3c-0.1,0.2-0.1,0.2-0.4,0.7c-0.1,0.2-0.2,0.4-0.3,0.6c0.2,0,0.2,0,3.1-0.1c0.4,0,0.7,0,1.1-0.1L164.2,182.2z"/>
<path class="st3" d="M166.2,184.6c0.6,0.1,1.3,0.1,1.9,0.1h6.4c0.6,0,1.3,0,1.9-0.1v1.7c-0.6-0.1-1.3-0.1-1.9-0.1h-6.4
	c-0.7,0-1.3,0-2,0.1L166.2,184.6z"/>
<path class="st3" d="M331.4,164.2c-0.1,0.2-0.2,0.5-0.3,0.8c-0.5,1.6-1.5,3-2.8,4.1c-0.9,0.7-2,1.3-3.1,1.6c-0.2-0.5-0.5-1-0.9-1.4
	c1.2-0.3,2.4-0.8,3.3-1.6c0.9-0.7,1.6-1.7,1.9-2.8h-5.8c-0.5,0-1,0-1.5,0.1v-1.5c0.5,0.1,1,0.1,1.6,0.1h5.7c0.5,0,0.9,0,1.4-0.1
	L331.4,164.2z M323.1,160.6c0.5,0.1,0.9,0.1,1.4,0.1h4.2c0.5,0,0.9,0,1.4-0.1v1.5c-0.5-0.1-0.9-0.1-1.4-0.1h-4.2
	c-0.5,0-0.9,0-1.4,0.1V160.6z"/>
<path class="st3" d="M342.7,161.2c-0.2,0.1-0.3,0.3-0.4,0.4c-0.9,0.9-1.8,1.7-2.8,2.5v5.1c0,0.4,0,0.9,0.1,1.3h-1.7
	c0.1-0.4,0.1-0.9,0.1-1.3v-4.2c-1.3,0.8-2.8,1.5-4.3,1.9c-0.2-0.5-0.5-1-0.8-1.4c2.3-0.6,4.4-1.7,6.3-3.1c0.9-0.6,1.6-1.4,2.2-2.2
	L342.7,161.2z"/>
<path class="st3" d="M354.4,161.9c-0.1,0.2-0.2,0.3-0.2,0.5c-0.4,1.8-1.2,3.6-2.5,5c-1.2,1.4-2.8,2.4-4.5,3.1c-0.2-0.5-0.6-1-1-1.4
	c0.9-0.3,1.8-0.7,2.6-1.2c1.9-1.2,3.2-3.1,3.6-5.2h-5.7c-0.5,0-1,0-1.5,0.1v-1.6c0.5,0.1,1,0.1,1.5,0.1h5.5c0.4,0,0.9,0,1.3-0.1
	L354.4,161.9z"/>
<path class="st3" d="M362.8,162.6v-0.5v-0.4c0-0.4,0-0.9-0.1-1.3h1.5c0,0.3,0,0.5,0,0.8c0,0.7,0,0.7,0,1.4h0.7c0.5,0,1,0,1.6-0.1
	v1.5c-0.5-0.1-1-0.1-1.5-0.1h-0.8c0,0.7,0,1.3-0.1,2c-0.1,1.3-0.7,2.6-1.7,3.4c-0.7,0.6-1.5,1-2.3,1.3c-0.2-0.5-0.5-0.9-0.9-1.3
	c0.8-0.2,1.6-0.6,2.3-1.1c0.8-0.7,1.3-1.8,1.3-2.9c0-0.3,0-0.6,0-1.4h-3.1v1.8c0,0.3,0,0.7,0,1h-1.5c0-0.3,0-0.7,0-1V164h-0.7
	c-0.5,0-1,0-1.5,0.1v-1.5c0.5,0.1,1,0.1,1.5,0.1h0.7v-1.2c0-0.4,0-0.7-0.1-1.1h1.6c0,0.3,0,0.7,0,1v1.2L362.8,162.6z"/>
<path class="st3" d="M377.3,161.2c-0.2,0.1-0.3,0.3-0.4,0.4c-0.9,0.9-1.8,1.7-2.8,2.5v5.1c0,0.4,0,0.9,0.1,1.3h-1.7
	c0.1-0.4,0.1-0.9,0.1-1.3v-4.2c-1.3,0.8-2.8,1.5-4.3,1.9c-0.2-0.5-0.5-1-0.8-1.4c2.3-0.6,4.4-1.7,6.3-3.1c0.9-0.6,1.6-1.4,2.2-2.2
	L377.3,161.2z"/>
<path class="st3" d="M385,167.9h2.9c0.5,0,1,0,1.6-0.1v1.5c-0.5-0.1-1-0.1-1.5-0.1h-7.2c-0.5,0-1,0-1.5,0.1v-1.5
	c0.5,0.1,1,0.1,1.6,0.1h2.7V163h-1.8c-0.5,0-1.1,0-1.6,0v-1.5c0.5,0.1,1,0.1,1.6,0.1h5.3c0.5,0,1,0,1.6-0.1v1.5c-0.5,0-1,0-1.5,0h-2
	V167.9z"/>
<path class="st3" d="M391.2,168.6c1.2-0.1,2.4-0.4,3.5-0.9c1.4-0.6,2.7-1.6,3.6-2.9c0.5-0.7,0.9-1.5,1.2-2.4
	c0.4,0.5,0.8,0.9,1.3,1.2c-0.8,1.9-2.1,3.5-3.8,4.7c-1.4,0.9-2.9,1.5-4.6,1.8c-0.3,0-0.5,0.1-0.8,0.2L391.2,168.6z M392.2,161.1
	c1.1,0.7,2.2,1.4,3.1,2.3l-1,1.3c-0.9-1-1.9-1.8-3.1-2.4L392.2,161.1z"/>
<path class="st3" d="M411.4,170.4c-1.1-1.3-2.3-2.5-3.7-3.6c-1.3,1.5-2.8,2.6-4.6,3.5c-0.3-0.5-0.6-0.9-1-1.3
	c0.9-0.3,1.7-0.8,2.4-1.3c1.8-1.2,3.1-2.9,4-4.9l0.1-0.3l-4,0.1c-0.4,0-0.9,0-1.3,0.1l0-1.5c0.4,0.1,0.7,0.1,1.1,0.1h0.3l4.2-0.1
	c0.4,0.1,0.8,0,1.1-0.1l0.8,0.8c-0.2,0.2-0.3,0.4-0.4,0.6c-0.5,1.2-1.1,2.3-1.9,3.3c0.8,0.5,1.5,1.1,2.2,1.7
	c0.3,0.3,0.3,0.3,1.8,1.7L411.4,170.4z"/>
<path d="M345.4,209.3c-0.5-0.1-1.1-0.1-1.6-0.1h-7.3c-0.6,0-1.2,0-1.7,0.1v-1.5c0.6,0.1,1.1,0.1,1.7,0.1h7.3c0.6,0,1.1,0,1.7-0.1
	V209.3z M335.6,199.6c0.5,0.1,1,0.1,1.5,0.1h5.9c0.5,0,1.1,0,1.6-0.1v1.5c-0.5-0.1-1.1-0.1-1.6-0.1h-5.8c-0.5,0-1,0-1.5,0.1
	L335.6,199.6z M336.4,203.5c0.5,0.1,0.9,0.1,1.4,0.1h4.6c0.5,0,0.9,0,1.4-0.1v1.5c-0.5,0-0.9-0.1-1.4-0.1h-4.6c-0.5,0-0.9,0-1.4,0.1
	V203.5z"/>
<path d="M349.8,206.8h-1c-0.5,0-0.6,0-1,0c0-0.4,0-0.7,0-1.2v-4.6c0-0.4,0-0.7-0.1-1.1c0.3,0,0.7,0,1,0h1.5c0.2-0.3,0.3-0.7,0.5-1.1
	l1.4,0.1c-0.2,0.3-0.3,0.7-0.5,0.9h2.7c0.3,0,0.7,0,1,0c0,0.3,0,0.6,0,0.9v2c0,0.3,0,0.7,0,1c-0.3,0-0.6,0-1,0h-5.2v0.6h7
	c0.4,0,0.8,0,1.1-0.1v1.1c-0.4,0-0.8-0.1-1.2-0.1h-7v0.6h7c0.3,0,0.6,0,0.9,0c0,0.1,0,0.2,0,0.2c0,0,0,0.1,0,0.2s0,0.1-0.1,0.7
	c-0.1,0.7-0.2,1.4-0.4,2.1c-0.1,0.3-0.4,0.6-0.7,0.7c-0.4,0.1-0.8,0.2-1.1,0.1h-0.5c0-0.2-0.1-0.5-0.1-0.7h-0.7h-5v0.5h-1.3
	c0.1-0.3,0.1-0.7,0.1-1V208c0-0.2,0-0.5-0.1-0.7h1.3c0,0.2,0,0.4,0,0.6v0.2h1.6L349.8,206.8z M354,201.3v-0.5h-4.9v0.5H354z
	 M349.1,202.7h4.9v-0.5h-4.9L349.1,202.7z M352.7,208v-0.4c0-0.2,0-0.4,0-0.6h1.3c0,0.2,0,0.5,0,0.7v0.9c0.3,0,0.6,0.1,0.9,0.1
	c0.3,0,0.5-0.1,0.5-0.4c0.1-0.5,0.2-1.1,0.2-1.6H351v1.2H352.7z"/>
<path d="M379.6,202.3c0.4,0.8,0.9,1.6,1.5,2.3c-0.3,0.3-0.5,0.7-0.7,1.1c-0.4-0.6-0.8-1.2-1-1.8c0.1,1,0.1,1.1,0.1,1.6v3.1
	c0,0.5,0,1,0.1,1.5h-1.4c0.1-0.5,0.1-1,0.1-1.5v-2.5c0-0.8,0-1.4,0.1-1.6c-0.2,0.6-0.4,1.2-0.6,1.7c-0.2,0.4-0.4,0.8-0.7,1.1
	c-0.2-0.4-0.4-0.9-0.7-1.2c0.8-1.1,1.4-2.4,1.7-3.8h-0.6c-0.3,0-0.6,0-0.9,0.1V201c0.3,0,0.6,0,0.9,0h0.8v-0.9c0-0.4,0-0.8-0.1-1.2
	h1.4c0,0.4-0.1,0.8-0.1,1.2v0.9h0.5c0.3,0,0.5,0,0.8,0v1.3c-0.2,0-0.5,0-0.8,0L379.6,202.3z M383,200.7c0.3-0.6,0.4-1.3,0.5-1.9
	l1.4,0.3c-0.3,0.8-0.5,1.4-0.6,1.6h1.5c0.4,0,0.8,0,1.2,0c0,0.4-0.1,0.8,0,1.2v6.7c0,0.5,0,1,0.1,1.4h-1.4v-0.6h-3.3v0.6H381
	c0-0.3,0.1-0.8,0.1-1.4v-6.6c0-0.4,0-0.8,0-1.2c0.4,0,0.6,0,1.3,0L383,200.7z M382.4,204.3h3.3v-2.3h-3.3V204.3z M382.4,208h3.3
	v-2.6h-3.3V208z"/>
<path class="st3" d="M101.8,152.5h5c5.7,0,10.7,1.9,10.7,9.2s-5,9.2-10.7,9.2h-5V152.5z M105.5,168.1h2.1c3.5,0,6.3-2.8,6.3-6.3
	s-2.8-6.3-6.3-6.3h-2.1V168.1z"/>
<path class="st3" d="M120.9,152.5h5c5.7,0,10.7,1.9,10.7,9.2s-4.9,9.3-10.6,9.3h-5L120.9,152.5z M124.6,168.1h2.1
	c3.5,0,6.3-2.8,6.3-6.3s-2.8-6.3-6.3-6.3h-2.1V168.1z"/>
<path class="st3" d="M140,152.5h6.5c2.4,0,6,0.7,6,4.7c0,2.1-1.6,3.9-3.7,4.1l0,0c2.5,0.2,4.2,1.9,4.2,4.2c0,4.7-4.2,5.4-6.5,5.4
	H140V152.5z M143.7,160h1.5c1.6,0,3.5-0.4,3.5-2.2c0-2.1-1.9-2.3-3.6-2.3h-1.4V160z M143.7,168.1h1.8c1.7,0,3.8-0.4,3.8-2.6
	c0-2.4-2-2.8-3.8-2.8h-1.8V168.1z"/>
<path class="st3" d="M154.6,167.8c0.6,0.2,1.2,0.3,1.8,0.3c2.4,0,2.4-1.9,2.4-3.3v-12.3h3.7v14.1c0,2.6-2,4.7-4.6,4.7
	c-0.2,0-0.3,0-0.5,0c-1,0-1.9-0.1-2.8-0.4L154.6,167.8z"/>
<path class="st3" d="M111.2,47.5h4.6l7.1,13.8l0,0V47.5h3.6V66h-4.5l-7.1-13.8h-0.1V66h-3.6L111.2,47.5z"/>
<path class="st3" d="M130.1,47.5h3.7V66h-3.7V47.5z"/>
<path class="st3" d="M152.2,51.1c-1.5-0.7-3.1-1-4.8-1c-4.3,0-6.7,2.9-6.7,6.7s2.3,6.6,6.3,6.6c0.8,0,1.6-0.1,2.4-0.3v-4.8h-3.9
	v-2.9h7.5v10c-1.9,0.6-4,0.9-6,1c-6,0-10.1-3-10.1-9.2s3.9-9.9,10.1-9.9c1.8,0,3.7,0.2,5.4,0.8L152.2,51.1z"/>
<path class="st3" d="M347.2,47.5h5.1c5.7,0,10.7,1.9,10.7,9.2s-5,9.3-10.7,9.3h-5.1V47.5z M350.9,63.1h2.1c3.5,0,6.3-2.8,6.3-6.3
	c0-3.5-2.8-6.3-6.3-6.3h-2.1L350.9,63.1z"/>
<path class="st3" d="M376.3,50.9c-1.2-0.5-2.5-0.8-3.8-0.8c-1.3,0-2.9,0.6-2.9,2.6c0,3.2,8.1,1.9,8.1,8c0,4.1-3.2,5.6-6.9,5.6
	c-1.6,0-3.2-0.2-4.7-0.7l0.3-3.3c1.3,0.7,2.7,1.1,4.2,1.1c1.4,0,3.3-0.7,3.3-2.4c0-3.5-8.1-2.1-8.1-8.2c0-4.1,3.2-5.6,6.5-5.6
	c1.5,0,3,0.2,4.4,0.7L376.3,50.9z"/>
<path class="st3" d="M299.5,180.1c0,1.6-0.2,2.5-0.5,3.7l-1-0.5c0.3-1,0.4-1.8,0.5-3.3L299.5,180.1z M298,178.4c0.2,0,0.3,0,0.5,0
	c0,0,0.1,0,0.2,0c0.1,0,0.1,0,0.2,0c0.3-0.5,0.3-0.5,0.6-0.8c-0.4-0.6-0.9-1.2-1.5-1.8l0.6-1c0.2,0.2,0.3,0.3,0.4,0.5
	c0.5-0.8,0.8-1.5,0.9-2.1l1.2,0.5c-0.1,0.2-0.2,0.4-0.4,0.8c-0.4,0.8-0.6,1.1-0.9,1.6c0.2,0.2,0.3,0.3,0.4,0.6
	c0.6-1,0.9-1.6,1.1-2.1l0.9,0.5v-0.4c0.3,0,0.7,0.1,1.3,0.1h1.3v-0.3c0-0.4,0-0.6-0.1-0.9h1.4c0,0.3-0.1,0.5-0.1,0.9v0.3h1.7
	c0.5,0,0.9,0,1.3-0.1v1.3c-0.4,0-0.7-0.1-1.2-0.1h-2.4c-0.3,0.6-0.6,1.2-0.8,1.7c0.8,0,1.6-0.1,2.2-0.2c-0.2-0.3-0.3-0.4-0.7-0.8
	l1-0.6c0.8,0.9,1.4,1.6,2,2.6l-1,0.7c-0.2-0.5-0.3-0.6-0.5-0.9c-1.3,0.2-1.4,0.2-4,0.3c-0.4,0-0.6,0-0.9,0.1l-0.1-1.2
	c0.2,0,0.3,0,0.5,0c0,0,0.1,0,0.2,0c0.4-0.6,0.7-1.1,0.9-1.7h-0.7c-0.5,0-0.8,0-1.2,0.1v-0.5c-0.1,0.1-0.1,0.1-0.2,0.3
	c-0.6,1-1.4,2.1-1.9,2.8c0.3,0,0.7,0,1.3-0.1c-0.1-0.3-0.2-0.5-0.4-0.9l0.8-0.4c0.4,0.7,0.6,1.2,0.9,2.3l-0.9,0.4
	c-0.1-0.3-0.1-0.3-0.1-0.5c-0.3,0-0.3,0-0.7,0.1v3.8c0,0.6,0,0.9,0.1,1.3h-1.3c0-0.4,0.1-0.7,0.1-1.3v-3.7c-1,0.1-1.6,0.1-1.7,0.2
	L298,178.4z M302.3,179.9c0.2,0.8,0.3,1.3,0.4,2.4l-1,0.3c0-0.9-0.2-1.7-0.3-2.4L302.3,179.9z M304.9,179c0,0.2,0,0.3,0,0.9
	c0,1.2-0.2,2-0.6,2.7c-0.3,0.7-0.7,1.1-1.7,1.8c-0.3-0.4-0.5-0.7-0.9-1c0.5-0.3,0.7-0.4,1-0.6c0.7-0.6,1-1.5,1-3c0-0.3,0-0.5,0-0.7
	H304.9z M307,178.9c0,0.3,0,0.6,0,1.1v2.7c0,0.2,0,0.3,0.4,0.3c0.2,0,0.3,0,0.4-0.1c0.1-0.1,0.1-0.7,0.1-1.3v-0.7
	c0.4,0.2,0.7,0.4,1.2,0.5c0,1.1-0.1,2-0.3,2.3c-0.2,0.4-0.6,0.6-1.5,0.6c-1.2,0-1.5-0.2-1.5-1v-3.1c0-0.6,0-0.9,0-1.2H307z"/>
<path class="st3" d="M312.6,177.3c-0.8,0.5-1.1,0.6-1.9,1c-0.2-0.5-0.3-0.8-0.7-1.2c1.1-0.4,2.1-1,3.1-1.7c0.8-0.7,1.4-1.3,1.9-2
	h1.4c0.5,0.8,1.1,1.3,2,2c0.9,0.7,1.8,1.2,3.1,1.6c-0.3,0.5-0.4,0.7-0.7,1.3c-0.9-0.4-1.2-0.6-2-1.1v0.8c-0.3,0-0.6,0-1.1,0h-4.1
	c-0.4,0-0.7,0-1,0V177.3z M311.7,184.3c0-0.4,0.1-0.7,0.1-1.3v-2.8c0-0.5,0-0.8-0.1-1.2c0.3,0,0.6,0,1,0h6c0.5,0,0.8,0,1,0
	c0,0.3-0.1,0.7-0.1,1.2v2.8c0,0.6,0,0.9,0.1,1.3h-1.4v-0.6h-5.2v0.6H311.7z M313.1,182.5h5.2v-2.3h-5.2V182.5z M317.8,176.8
	c0.1,0,0.2,0,0.4,0c-1.1-0.8-1.7-1.4-2.5-2.3c-0.7,1-1.2,1.5-2.4,2.3c0.1,0,0.2,0,0.3,0H317.8z"/>
<path class="st3" d="M328.5,178.5c-0.1,3-1.3,4.5-4,5.6c-0.3-0.6-0.5-0.9-1-1.3c2.4-0.7,3.3-1.9,3.4-4.3H324c-0.9,0-1.1,0-1.5,0.1
	v-1.4c0.4,0.1,0.7,0.1,1.5,0.1h7c0.9,0,1.1,0,1.5-0.1v1.4c-0.4,0-0.6-0.1-1.5-0.1H328.5z M330.3,175.6c-0.4,0-0.5-0.1-1.5-0.1h-3.6
	c-1,0-1.1,0-1.5,0.1v-1.5c0.4,0.1,0.6,0.1,1.5,0.1h3.5c0.9,0,1.2,0,1.5-0.1V175.6z M331,173.4c0.5,0.6,0.7,1.1,1.1,1.9l-0.9,0.3
	c-0.3-0.8-0.6-1.3-1.1-1.9L331,173.4z M332.7,175.1c-0.3-0.7-0.6-1.3-1-1.9l0.9-0.3c0.5,0.6,0.8,1.1,1.1,1.8L332.7,175.1z"/>
<path class="st3" d="M334.7,177.9c0.5,0.1,0.8,0.1,1.9,0.1h6.4c1.2,0,1.4,0,1.9-0.1v1.7c-0.5-0.1-0.6-0.1-2-0.1h-6.4
	c-1.3,0-1.5,0-2,0.1V177.9z"/>
<path class="st3" d="M356.1,175.6c-0.2,0.2-0.2,0.3-0.4,0.8c-0.4,1.1-1,2.5-1.5,3.3c-1.2,2-2.9,3.4-5.5,4.6c-0.4-0.6-0.5-0.9-1-1.2
	c1-0.4,1.6-0.7,2.3-1.2c0.9-0.6,1.4-1,2-1.7c-0.8-0.7-1.6-1.2-2.5-1.7l0.9-1.1c1,0.6,1.5,0.9,2.4,1.6c0.6-0.9,1-1.7,1.3-2.8l-3.7,0
	c-0.7,1.2-1.6,2.2-2.8,3.2c-0.4-0.4-0.6-0.6-1.2-1c1.3-1,2.3-2.1,3-3.4c0.3-0.6,0.6-1.2,0.7-1.7l1.6,0.3c-0.1,0.2-0.1,0.2-0.4,0.7
	c-0.1,0.3-0.2,0.5-0.3,0.6c0.2,0,0.2,0,3.1,0c0.5,0,0.7,0,1.1-0.1L356.1,175.6z"/>
<path class="st3" d="M357,179.6c0.3-0.2,1-0.9,2.6-2.9c0.4-0.5,0.7-0.8,0.9-0.9c0.3-0.2,0.5-0.2,0.8-0.2c0.6,0,0.9,0.2,1.8,1.2
	c1.4,1.6,2.5,2.7,3.9,3.8c0.7,0.6,0.9,0.7,1.1,0.9l-0.8,1.6c-2.2-2-2.9-2.7-5.1-5.1c-0.8-0.8-0.8-0.8-1-0.8c-0.2,0-0.2,0-0.7,0.7
	c-0.5,0.7-1.5,1.9-2.1,2.7c-0.2,0.2-0.2,0.3-0.4,0.5L357,179.6z M365.1,175c0.5,0.6,0.9,1,1.3,1.8l-0.8,0.4
	c-0.4-0.7-0.7-1.2-1.3-1.8L365.1,175z M367,176.4c-0.4-0.7-0.8-1.2-1.2-1.7l0.8-0.4c0.6,0.6,0.9,1,1.2,1.7L367,176.4z"/>
<path class="st3" d="M369.2,177.9c0.5,0.1,0.8,0.1,1.9,0.1h6.4c1.2,0,1.4,0,1.9-0.1v1.7c-0.5-0.1-0.6-0.1-2-0.1h-6.4
	c-1.3,0-1.5,0-2,0.1V177.9z"/>
<path class="st3" d="M389,183.8c-1-1.2-2.4-2.6-3.7-3.6c-1.4,1.5-2.7,2.6-4.6,3.5c-0.3-0.6-0.5-0.8-1-1.3c0.9-0.4,1.5-0.7,2.4-1.3
	c1.8-1.3,3.3-3,4-4.9l0.1-0.3c-0.2,0-0.2,0-4,0.1c-0.6,0-0.9,0-1.3,0.1l0-1.5c0.3,0.1,0.6,0.1,1.1,0.1c0,0,0.1,0,0.3,0l4.2-0.1
	c0.7,0,0.8,0,1.1-0.1l0.8,0.8c-0.2,0.2-0.3,0.3-0.4,0.6c-0.6,1.3-1.1,2.3-1.9,3.3c0.8,0.5,1.4,1,2.2,1.7c0.3,0.3,0.3,0.3,1.8,1.7
	L389,183.8z"/>
<path class="st3" d="M400.9,176.5c-0.1,0.2-0.2,0.2-0.3,0.6c-0.7,1.5-1.5,2.5-2.9,3.5c-0.5-0.5-0.6-0.6-1.2-1c0.8-0.5,1.5-1,2-1.7
	c0.2-0.2,0.2-0.3,0.5-0.7c-0.2,0-0.3,0-0.5,0.1c-1.2,0.1-2.4,0.3-3.7,0.5v2.7c0,0.8,0,0.8,0,1c0.1,0.5,0.5,0.6,1.7,0.6
	c1.4,0,2.7-0.2,3.7-0.5l0.1,1.6c-0.3,0-0.4,0-0.7,0c-1.3,0.1-2.2,0.2-3,0.2c-1,0-1.7-0.1-2.1-0.2c-0.5-0.1-0.9-0.6-1-1.1
	c-0.1-0.4-0.1-0.6-0.1-1.5V178l-1.1,0.1c-0.9,0.1-0.9,0.1-1.3,0.2l-0.2-1.5c0.1,0,0.2,0,0.3,0c0.2,0,0.7,0,1.1-0.1l1.3-0.2V175
	c0-0.6,0-0.7-0.1-1.1h1.7c-0.1,0.3-0.1,0.6-0.1,1.1v1.5l4.4-0.5c0.6-0.1,0.6-0.1,0.9-0.2L400.9,176.5z"/>
<path class="st3" d="M402.5,181.9c1-0.1,2.5-0.4,3.5-0.9c1.5-0.6,2.6-1.6,3.6-2.9c0.5-0.8,0.9-1.4,1.2-2.4c0.5,0.6,0.7,0.7,1.3,1.2
	c-1,2.2-2.2,3.6-3.8,4.7c-1.2,0.8-2.7,1.4-4.6,1.8c-0.5,0.1-0.5,0.1-0.8,0.2L402.5,181.9z M403.5,174.5c1.4,0.9,2.2,1.4,3.1,2.3
	l-1,1.3c-1-1-1.9-1.8-3.1-2.4L403.5,174.5z"/>
<path class="st3" d="M422.9,175.6c-0.2,0.2-0.2,0.3-0.4,0.8c-0.4,1.1-1,2.5-1.5,3.3c-1.2,2-2.9,3.4-5.5,4.6c-0.4-0.6-0.5-0.9-1-1.2
	c1-0.4,1.6-0.7,2.3-1.2c0.9-0.6,1.4-1,2-1.7c-0.8-0.7-1.6-1.2-2.5-1.7l0.9-1.1c1,0.6,1.5,0.9,2.4,1.6c0.6-0.9,1-1.7,1.3-2.8l-3.7,0
	c-0.7,1.2-1.6,2.2-2.8,3.2c-0.4-0.4-0.6-0.6-1.2-1c1.3-1,2.3-2.1,3-3.4c0.3-0.6,0.6-1.2,0.7-1.7l1.6,0.3c-0.1,0.2-0.1,0.2-0.4,0.7
	c-0.1,0.3-0.2,0.5-0.3,0.6c0.2,0,0.2,0,3.1,0c0.5,0,0.7,0,1.1-0.1L422.9,175.6z"/>
<path class="st3" d="M424.8,177.9c0.5,0.1,0.8,0.1,1.9,0.1h6.4c1.2,0,1.4,0,1.9-0.1v1.7c-0.5-0.1-0.6-0.1-2-0.1h-6.4
	c-1.3,0-1.5,0-2,0.1V177.9z"/>
</svg>
