<svg xmlns="http://www.w3.org/2000/svg" viewBox="0 0 603.35 402.6"><defs><style>.cls-1{fill:#1f3452;}.cls-2,.cls-8{fill:#fff;}.cls-3,.cls-4,.cls-5,.cls-6,.cls-7{fill:none;stroke-width:5px;}.cls-3{stroke:#32cccd;}.cls-3,.cls-4,.cls-5,.cls-6,.cls-7,.cls-8{stroke-miterlimit:10;}.cls-4{stroke:#f15922;}.cls-5{stroke:#80c341;}.cls-6{stroke:#00b261;}.cls-7{stroke:#ff0202;}.cls-8{stroke:#595959;stroke-width:4px;}.cls-9{fill:#32cccd;}.cls-10{fill:#f15922;}.cls-11{fill:#00b261;}.cls-12{fill:#80c341;}.cls-13{fill:#ff0202;}.cls-14{fill:#333;}</style></defs><title>accessmap_ja</title><g id="レイヤー_2" data-name="レイヤー 2"><g id="header"><rect class="cls-1" x="445" y="86.82" width="134.92" height="29.33" rx="2" ry="2"/><polygon class="cls-1" points="424.29 105.18 464.15 107.37 462.19 92.64 424.29 105.18"/><path class="cls-2" d="M455.83,97.66a9.88,9.88,0,0,0,1.92,2.92,4.25,4.25,0,0,0-.87,1.37,9.26,9.26,0,0,1-1.24-2.33c.08,1.24.08,1.34.08,2.09v3.92a14.93,14.93,0,0,0,.09,1.86h-1.74a15.49,15.49,0,0,0,.09-1.86v-3.16c0-1,.06-1.72.08-2.09a13.07,13.07,0,0,1-.81,2.2,11.93,11.93,0,0,1-.84,1.46,7.73,7.73,0,0,0-.84-1.59,12.74,12.74,0,0,0,2.17-4.79h-.79a7.45,7.45,0,0,0-1.11.06V96a7.17,7.17,0,0,0,1.13.06h1V94.91a10.1,10.1,0,0,0-.08-1.59h1.72a12.9,12.9,0,0,0-.08,1.57V96.1h.66a6.17,6.17,0,0,0,1-.06v1.66c-.32,0-.63,0-1,0Zm4.33-2a9.21,9.21,0,0,0,.64-2.44l1.8.43c-.37,1.07-.61,1.72-.73,2h2a12.76,12.76,0,0,0,1.54-.06,13.8,13.8,0,0,0-.06,1.53v8.54a15.17,15.17,0,0,0,.09,1.75h-1.74v-.82h-4.23v.82h-1.72a16.84,16.84,0,0,0,.08-1.8V97.13a14.86,14.86,0,0,0-.06-1.56,14.1,14.1,0,0,0,1.6.06Zm-.72,4.52h4.23v-3h-4.23Zm0,4.82h4.23v-3.33h-4.23Z"/><path class="cls-2" d="M474.09,102.62c-.87,2-1.85,2.87-3.1,2.87-1.74,0-3-1.77-3-4.23a6.56,6.56,0,0,1,1.68-4.44,6.85,6.85,0,0,1,5.25-2.14c3.66,0,6,2.23,6,5.66a5.88,5.88,0,0,1-3.71,5.69,10,10,0,0,1-2.4.64,4.87,4.87,0,0,0-.93-1.79,8.11,8.11,0,0,0,3-.84,4.27,4.27,0,0,0,2.12-3.81,3.78,3.78,0,0,0-1.88-3.39,3.34,3.34,0,0,0-1.54-.46A22.07,22.07,0,0,1,474.09,102.62Zm-2.24-5.46a5.11,5.11,0,0,0-2.08,4.12c0,1.25.53,2.24,1.21,2.24.5,0,1-.64,1.57-2a20.11,20.11,0,0,0,1.27-5.16A3.88,3.88,0,0,0,471.85,97.16Z"/><path class="cls-2" d="M490.76,102.73h4.41a14.09,14.09,0,0,0,1.79-.09v1.51a14.43,14.43,0,0,0-1.79-.09h-3.08a11.37,11.37,0,0,0,5.17,1.77,5.86,5.86,0,0,0-.84,1.5,17.33,17.33,0,0,1-2.93-.92,9.25,9.25,0,0,1-2.76-1.74v.09a1.23,1.23,0,0,0,0,.18,3.39,3.39,0,0,0,0,.37c0,.06,0,.06,0,.35v.56a5.65,5.65,0,0,0,.09,1.3h-1.79a6.85,6.85,0,0,0,.09-1.3v-.55c0-.23,0-.41,0-.59s0-.18,0-.41a11.58,11.58,0,0,1-5.37,2.67,4.6,4.6,0,0,0-.9-1.4,11.39,11.39,0,0,0,5-1.88H485a14.6,14.6,0,0,0-1.79.09v-1.51a13.6,13.6,0,0,0,1.79.09h4.15v-.81h-2.53c-.46,0-.95,0-1.4,0,0-.43,0-.73,0-1.25V98.45h-.41a12.75,12.75,0,0,0-1.74.08V97a7.93,7.93,0,0,0,1.51.09h.64a4.62,4.62,0,0,0-.06-.87h1.59c0-.21,0-.41,0-.67h-1.92c-.73,0-1.28,0-1.77.08v-1.5a14.05,14.05,0,0,0,1.77.09h1.92v-.17a4,4,0,0,0-.08-.82h1.72a5.51,5.51,0,0,0-.06.82v.17h3.1v-.17a5.63,5.63,0,0,0-.06-.82h1.72a4.76,4.76,0,0,0-.06.82v.17h2a13.55,13.55,0,0,0,1.77-.09v1.5c-.5,0-1-.08-1.77-.08h-2a4.78,4.78,0,0,0,0,.7h1.62a3.76,3.76,0,0,0-.08.84h.47a12.39,12.39,0,0,0,1.74-.09v1.48a12.61,12.61,0,0,0-1.74-.08h-.47v.76a5.45,5.45,0,0,0,.06,1c-.41,0-.93,0-1.42,0h-3c-.52,0-.92,0-1.42,0a7.46,7.46,0,0,0,0-.89v-.87H486.9v2.24h7.68a10.37,10.37,0,0,0,1.66-.08V102a11.54,11.54,0,0,0-1.65-.08h-3.83Zm-3.83-6.32c0,.18,0,.41,0,.73H489a5,5,0,0,0-.06-.84h1.63a6,6,0,0,0,0,.84h2.64c0-.32,0-.47,0-.73h-1.65a7,7,0,0,0,0-.81h-3.1a4.11,4.11,0,0,0,0,.81ZM490.55,99h2.64v-.55h-2.64Z"/><path class="cls-2" d="M503.68,95.42a6.58,6.58,0,0,0-.37-1.43l2-.32a10.46,10.46,0,0,0,.18,1.43l.24,1.33,3.22-.5a7.81,7.81,0,0,0,1.46-.34l.32,1.83a12.84,12.84,0,0,0-1.46.2l-3.22.5.46,2.5,3.59-.56a13.49,13.49,0,0,0,1.59-.35l.33,1.83a3.73,3.73,0,0,0-.7.08,1.24,1.24,0,0,0-.24,0l-.61.09-3.63.58.55,3a8.68,8.68,0,0,0,.37,1.57l-2,.37a11.57,11.57,0,0,0-.2-1.6l-.55-3-3.77.59a12.3,12.3,0,0,0-1.56.34l-.31-1.88a9.44,9.44,0,0,0,1.62-.15l3.71-.6-.46-2.5-2.84.44a16.26,16.26,0,0,0-1.68.35l-.3-1.88a14.45,14.45,0,0,0,1.68-.17l2.84-.44Z"/><path class="cls-2" d="M518,97.58a4.79,4.79,0,0,0-.29-1.14l1.82-.27a6,6,0,0,0,.15,1.17l.23,1.17,4.56-.76a3.88,3.88,0,0,0,1-.26l1.07,1a3.51,3.51,0,0,0-.38.73,8.67,8.67,0,0,1-3,4,4.3,4.3,0,0,0-1.42-1.08,7.19,7.19,0,0,0,2.59-2.73,4.56,4.56,0,0,1-.56.11l-3.59.6,1.08,5.65a5.82,5.82,0,0,0,.29,1.24l-1.91.33a6.34,6.34,0,0,0-.12-1.24l-1-5.69-1.31.21a7.89,7.89,0,0,0-1.34.34l-.32-1.74A8.53,8.53,0,0,0,517,99l1.27-.21Z"/><path class="cls-2" d="M530.92,104.34a14.53,14.53,0,0,0,4.52-1.13A10.19,10.19,0,0,0,540,99.48a12.71,12.71,0,0,0,1.56-3.05,6.62,6.62,0,0,0,1.62,1.5,13.4,13.4,0,0,1-4.84,6,16.5,16.5,0,0,1-5.81,2.29,5.42,5.42,0,0,0-1,.26Zm1.3-9.48a21.59,21.59,0,0,1,3.94,2.95l-1.31,1.66a16,16,0,0,0-3.89-3.1Z"/><path class="cls-2" d="M550.94,95.13a6.46,6.46,0,0,0-.2,1.17,27.27,27.27,0,0,1-1.21,5.22,14.58,14.58,0,0,1-2.7,4.71,6.69,6.69,0,0,0-1.74-1.31,10.3,10.3,0,0,0,2.18-3.25,18.55,18.55,0,0,0,1.43-5.23,11.13,11.13,0,0,0,.14-1.48v-.21Zm4.33-.38a19.9,19.9,0,0,0,.64,3.51,14.76,14.76,0,0,0,3.4,6.59,6.6,6.6,0,0,0-1.68,1.4,16,16,0,0,1-2.59-4.49,23.9,23.9,0,0,1-1.45-5.55,7.63,7.63,0,0,0-.21-1.1ZM559.34,96a1.67,1.67,0,0,1-1.68,1.68A1.69,1.69,0,0,1,556,96a1.68,1.68,0,1,1,3.36,0Zm-2.55,0a.87.87,0,0,0,1.74,0,.86.86,0,0,0-.87-.87A.88.88,0,0,0,556.79,96Z"/><path class="cls-2" d="M573,106.68a29.29,29.29,0,0,0-4.68-4.53,18.14,18.14,0,0,1-5.81,4.41,6.1,6.1,0,0,0-1.24-1.69,12.58,12.58,0,0,0,3.05-1.68A14.71,14.71,0,0,0,569.41,97l.17-.4c-.24,0-.24,0-5.05.09a11.8,11.8,0,0,0-1.66.12l-.06-2a6.71,6.71,0,0,0,1.34.09h.37l5.37-.08a3.29,3.29,0,0,0,1.36-.17l1,1a2.93,2.93,0,0,0-.49.82,20.19,20.19,0,0,1-2.38,4.21,23.71,23.71,0,0,1,2.82,2.21c.38.33.38.33,2.23,2.12Z"/><rect class="cls-1" x="291.31" width="63.35" height="30.5" rx="2" ry="2"/><polygon class="cls-1" points="355.45 42.06 329.84 11.44 320.42 22.92 355.45 42.06"/><path class="cls-2" d="M304.66,12a9.88,9.88,0,0,0,1.92,2.92,4.25,4.25,0,0,0-.87,1.37A9.29,9.29,0,0,1,304.48,14c.08,1.24.08,1.34.08,2.09V20a15.16,15.16,0,0,0,.09,1.86h-1.74A15.28,15.28,0,0,0,303,20V16.82c0-1,.06-1.72.08-2.09a13,13,0,0,1-.81,2.2,11.92,11.92,0,0,1-.84,1.46,7.68,7.68,0,0,0-.84-1.59A12.74,12.74,0,0,0,302.76,12H302a7.44,7.44,0,0,0-1.11.06V10.4a7.16,7.16,0,0,0,1.13.06h1V9.27a10,10,0,0,0-.08-1.59h1.72a13.15,13.15,0,0,0-.08,1.57v1.21h.66a6.16,6.16,0,0,0,1-.06v1.66c-.32,0-.62,0-1,0ZM309,10a9.25,9.25,0,0,0,.64-2.44l1.8.43c-.37,1.07-.61,1.72-.73,2h2a12.78,12.78,0,0,0,1.54-.06,13.52,13.52,0,0,0-.06,1.53V20a15.39,15.39,0,0,0,.09,1.75h-1.74v-.82h-4.23v.82h-1.72a17.11,17.11,0,0,0,.08-1.8V11.48a14.55,14.55,0,0,0-.06-1.56,14.13,14.13,0,0,0,1.6.06Zm-.72,4.52h4.23v-3h-4.23Zm0,4.82h4.23V16h-4.23Z"/><path class="cls-2" d="M329.31,13.16a6.83,6.83,0,0,0-.43,1,10.79,10.79,0,0,1-3.54,5.16,13.59,13.59,0,0,1-4,2.08,5.31,5.31,0,0,0-1.19-1.77,9.91,9.91,0,0,0,4.24-2A8,8,0,0,0,326.86,14h-7.43a15.38,15.38,0,0,0-2,.08V12.21a10.8,10.8,0,0,0,2,.11h7.26a6.68,6.68,0,0,0,1.72-.14ZM318.77,8.54a8.75,8.75,0,0,0,1.79.11h5.33a8.75,8.75,0,0,0,1.79-.11v1.88a11.64,11.64,0,0,0-1.75-.08h-5.39a11.64,11.64,0,0,0-1.75.08Z"/><path class="cls-2" d="M336.33,13.83c0,.2-.06.21-.12.49a15.74,15.74,0,0,1-2.56,5.92,6.58,6.58,0,0,0-1.77-1,10.93,10.93,0,0,0,2.14-4,7.7,7.7,0,0,0,.44-1.88Zm1.54-4.1a8.66,8.66,0,0,0-.09-1.59h2.06a12.86,12.86,0,0,0-.06,1.63v.81h3.49a10.73,10.73,0,0,0,2-.11v1.88a15.16,15.16,0,0,0-1.94-.08h-3.53v7.4a13.09,13.09,0,0,0,.08,1.71h-2.07a10.62,10.62,0,0,0,.09-1.72V12.27h-3.39a15,15,0,0,0-1.92.08V10.47a10.63,10.63,0,0,0,2,.11h3.36Zm5.23,3.65a9.84,9.84,0,0,0,.54,1.71,14.13,14.13,0,0,0,2.17,4.1A10.16,10.16,0,0,0,344,20.26a20.56,20.56,0,0,1-2.5-5.71,4.21,4.21,0,0,0-.24-.72Zm0-5.58a7.66,7.66,0,0,1,1.22,2l-1.19.47a8.61,8.61,0,0,0-1.21-2.06Zm1.82,1.88a10.81,10.81,0,0,0-1.19-2l1.14-.43A8.36,8.36,0,0,1,346,9.18Z"/><polyline class="cls-3" points="5.04 63.35 254.94 63.35 475.5 308.56 475.5 401.24"/><polyline class="cls-4" points="5.63 133.16 237.93 133.16 410.39 325.57 410.39 401.82"/><path class="cls-5" d="M213.29,401.83c15.25-46.93-4.69-107.94-45.76-142S61.94,215.28.94,239.92"/><polyline class="cls-6" points="584.02 116.73 381.64 289.78 282.51 289.78 250.83 254"/><line class="cls-7" x1="193.93" y1="287.44" x2="493.69" y2="38.13"/><line class="cls-6" x1="154.04" y1="249.89" x2="238.51" y2="249.89"/><circle class="cls-8" cx="193.93" cy="289.78" r="7.63"/><circle class="cls-8" cx="244.96" cy="249.31" r="7.63"/><circle class="cls-8" cx="155.8" cy="249.31" r="7.63"/><circle class="cls-8" cx="298.93" cy="201.21" r="7.63"/><circle class="cls-8" cx="381.06" cy="290.37" r="7.63"/><circle class="cls-8" cx="425.64" cy="251.65" r="7.63"/><circle class="cls-8" cx="344.69" cy="162.49" r="7.63"/><circle class="cls-8" cx="493.69" cy="38.13" r="7.63"/><circle class="cls-8" cx="412.73" cy="105" r="7.63"/><path class="cls-9" d="M8.81,29.91A13.06,13.06,0,0,0,7,30V28.32a13.42,13.42,0,0,0,2,.11h4a8.65,8.65,0,0,0-.11-1.37H14.7a7.6,7.6,0,0,0-.09,1.37h4.17a12.77,12.77,0,0,0,2-.11V30a16.19,16.19,0,0,0-1.89-.09H14.61v.85H17.8a14.77,14.77,0,0,0,1.69-.06c0,.46-.06,1-.06,1.54v2.82a11.92,11.92,0,0,0,.06,1.56,12.14,12.14,0,0,0-1.71-.08H16a10.76,10.76,0,0,0,5.29,2.61,10.12,10.12,0,0,0-.87,1.62,16,16,0,0,1-3.13-1.39,9.87,9.87,0,0,1-2.67-2.2c0,.5,0,.79,0,1.05v1.1a9.41,9.41,0,0,0,.11,1.74H12.84a12.12,12.12,0,0,0,.11-1.74v-1.1c0-.18,0-.75,0-1a9.94,9.94,0,0,1-2.91,2.41,15.88,15.88,0,0,1-2.61,1.17,6.51,6.51,0,0,0-.86-1.54,12.8,12.8,0,0,0,2.87-1.13,9.06,9.06,0,0,0,2.18-1.57H10a11.7,11.7,0,0,0-1.72.08,2,2,0,0,1,0-.44c0-.06,0-.06,0-1.11V32.26a14.82,14.82,0,0,0-.06-1.57,10.62,10.62,0,0,0,1.66.08h3v-.85ZM10,32.08V33h3v-.93Zm0,2.2v1h3v-1ZM14.61,33h3.2v-.93h-3.2Zm0,2.23h3.2v-1h-3.2Z"/><path class="cls-9" d="M26.43,33.62a8.19,8.19,0,0,0-.06-1.21h1.75a8.73,8.73,0,0,0-.06,1.21v.67h1.21a5.92,5.92,0,0,0,1.19-.08v1.6a8.34,8.34,0,0,0-1.19-.06H28.06v2.52c1-.21,1.51-.34,2.81-.72v1.57c-2.79.73-3.74.95-6.82,1.51l-1.59.3-.29-1.75a11.23,11.23,0,0,0,1.28-.09V35.2a7.82,7.82,0,0,0-.09-1.43H25.1A8,8,0,0,0,25,35.1v3.77l1.4-.26Zm7.89-3a11.43,11.43,0,0,0,1.63-.09v1.69a13.77,13.77,0,0,0-1.79-.09H32.48a20.37,20.37,0,0,0,.81,4.94c.37,1,.9,2,1.14,2,.06,0,.14-.09.17-.2a18.22,18.22,0,0,0,.26-2.09,5.67,5.67,0,0,0,1.43.95c-.34,2.33-.87,3.39-1.72,3.39s-2-1.19-2.72-3a21,21,0,0,1-1.05-6H24a15.44,15.44,0,0,0-1.77.09V30.52a13.57,13.57,0,0,0,1.8.09h6.68c0-1.33,0-1.33,0-1.65a10.21,10.21,0,0,0-.09-1.74h1.86a4.6,4.6,0,0,0-.08.95c0,.08,0,2.11,0,2.44Zm-4.84-1a13,13,0,0,0-1.42-.08H25a10.68,10.68,0,0,0-1.46.08V28A9.67,9.67,0,0,0,25,28h3A9.79,9.79,0,0,0,29.48,28Zm4.84.88a10.06,10.06,0,0,0-1.65-2.35l1.27-.64a10.91,10.91,0,0,1,1.72,2.24Z"/><path class="cls-9" d="M39.73,32.11a6,6,0,0,0-.93.06v-.73a8.56,8.56,0,0,1-.84.7,4.84,4.84,0,0,0-.75-1.51A7.34,7.34,0,0,0,40,27.35h1.71a6.38,6.38,0,0,0,2.33,2.55,5.36,5.36,0,0,0-.86,1.39L42.87,31v1.17a8,8,0,0,0-.95,0h-.41v1.16h.67a6.9,6.9,0,0,0,1.27-.08v1.54a9.09,9.09,0,0,0-1.27-.06h-.67v3.92c.7-.17,1-.26,2-.55v1.11A6.06,6.06,0,0,0,46.41,35h-1a11,11,0,0,0-1.59.09V33.45a10.55,10.55,0,0,0,1.53.09h1.24c0-.66.08-1.19.09-2.18H45.26a17,17,0,0,1-.75,1.89,4.6,4.6,0,0,0-1.4-.81,9.52,9.52,0,0,0,1.4-4.58l1.48.27c-.06.32-.06.32-.17,1,0,.24-.09.44-.17.78h1a17.21,17.21,0,0,0-.06-2.69h1.72a15.08,15.08,0,0,0-.09,2.69h1.07A11.29,11.29,0,0,0,51,29.8v1.65a13.26,13.26,0,0,0-1.6-.09H48.24c0,.27,0,.27,0,1,0,.26,0,.53-.06,1.14h1.46a14.86,14.86,0,0,0,1.65-.08v1.65a12,12,0,0,0-1.6-.09H48.35A8.6,8.6,0,0,0,49.6,37.6a6.73,6.73,0,0,0,2.12,1.91,6.62,6.62,0,0,0-1,1.6A9.78,9.78,0,0,1,47.48,37,8.32,8.32,0,0,1,46,39.29a8.82,8.82,0,0,1-2.26,1.85,5.55,5.55,0,0,0-.92-1.42c-1,.31-1.89.55-4.3,1.1A3.67,3.67,0,0,0,38,41l-.24.06-.29-1.75A16.14,16.14,0,0,0,40,38.91V34.67h-.95a10.31,10.31,0,0,0-1.46.08V33.19a12.66,12.66,0,0,0,1.5.08H40V32.11Zm-1.31,6.55a14.81,14.81,0,0,0-.69-3l1.21-.4a17.32,17.32,0,0,1,.75,3Zm1.31-7.86H42c.31,0,.46,0,.67,0a7.5,7.5,0,0,1-1.71-2.08,9.31,9.31,0,0,1-1.5,2.09Zm2.08,6.84a9.76,9.76,0,0,0,.64-2.5l1.19.4a14.48,14.48,0,0,1-.78,2.5Z"/><path class="cls-9" d="M52.72,32.9a6.66,6.66,0,0,0,1.22.08h1.11a6.76,6.76,0,0,0,1.18-.08,11.48,11.48,0,0,0-.08,1.66v3.14a2.17,2.17,0,0,0,1.07,1,10.13,10.13,0,0,0,4,.47,44.24,44.24,0,0,0,5.68-.32,5.41,5.41,0,0,0-.5,1.79c-2.73.08-4.09.11-5.23.11a11.66,11.66,0,0,1-4.2-.47,3.74,3.74,0,0,1-1.62-1.24,11.74,11.74,0,0,1-1.74,1.48,4.36,4.36,0,0,0-.43.35l-.76-1.72a7.75,7.75,0,0,0,2.18-1.48v-3.2h-.82a5.76,5.76,0,0,0-1,.08Zm1.17-5.55a16.6,16.6,0,0,1,2.61,2.75l-1.25,1.17a15.42,15.42,0,0,0-2.58-2.82Zm5.22,1.37a6.81,6.81,0,0,0-.82-1.25L59.77,27a10.11,10.11,0,0,1,1,1.72h1.34a8.39,8.39,0,0,0,1-1.71l1.63.4c-.27.46-.61,1-.84,1.31h1a9.77,9.77,0,0,0,1.51-.09v1.53c-.47,0-1-.06-1.51-.06H62.29c-.18.38-.24.52-.38.78h2.2a9.19,9.19,0,0,0,1.37-.06,12.5,12.5,0,0,0-.06,1.45v4.52a10.52,10.52,0,0,0,.08,1.48l-1.18,0H59c-.47,0-.81,0-1.42,0,0-.35,0-.93,0-1.45V32.24c0-.5,0-1.07-.06-1.42.35,0,.79,0,1.48,0H60.2a6,6,0,0,0,.37-.78H58.32a13.28,13.28,0,0,0-1.53.06V28.63a9.7,9.7,0,0,0,1.57.09Zm0,8.19h4.7v-.82h-4.7Zm0-3.92h4.71v-.82H59.16Zm0,2h4.71v-.81H59.16Z"/><path class="cls-9" d="M8.81,46.33A13.06,13.06,0,0,0,7,46.43V44.75a13.42,13.42,0,0,0,2,.11h4a8.65,8.65,0,0,0-.11-1.37H14.7a7.6,7.6,0,0,0-.09,1.37h4.17a12.77,12.77,0,0,0,2-.11v1.68a16.41,16.41,0,0,0-1.89-.09H14.61v.85H17.8a14.77,14.77,0,0,0,1.69-.06c0,.46-.06,1-.06,1.54v2.82A11.93,11.93,0,0,0,19.49,53,12.14,12.14,0,0,0,17.78,53H16a10.76,10.76,0,0,0,5.29,2.61,10.12,10.12,0,0,0-.87,1.62,15.92,15.92,0,0,1-3.13-1.39,9.87,9.87,0,0,1-2.67-2.2c0,.5,0,.79,0,1.05v1.1a9.43,9.43,0,0,0,.11,1.74H12.84a12.13,12.13,0,0,0,.11-1.74v-1.1c0-.18,0-.75,0-1A9.94,9.94,0,0,1,10.06,56a15.88,15.88,0,0,1-2.61,1.17,6.51,6.51,0,0,0-.86-1.54,12.75,12.75,0,0,0,2.87-1.13A9,9,0,0,0,11.65,53H10A11.7,11.7,0,0,0,8.28,53a2,2,0,0,1,0-.44c0-.06,0-.06,0-1.11V48.68a14.81,14.81,0,0,0-.06-1.57,10.62,10.62,0,0,0,1.66.08h3v-.85ZM10,48.5v.93h3V48.5Zm0,2.2v1h3v-1Zm4.65-1.27h3.2V48.5h-3.2Zm0,2.23h3.2v-1h-3.2Z"/><path class="cls-9" d="M26.43,50a8.19,8.19,0,0,0-.06-1.21h1.75A8.72,8.72,0,0,0,28.06,50v.67h1.21a5.83,5.83,0,0,0,1.19-.08v1.6a8.34,8.34,0,0,0-1.19-.06H28.06V54.7c1-.21,1.51-.34,2.81-.72v1.57c-2.79.73-3.74.95-6.82,1.51l-1.59.3-.29-1.75a11,11,0,0,0,1.28-.09V51.63a7.82,7.82,0,0,0-.09-1.43H25.1A8,8,0,0,0,25,51.52v3.77l1.4-.26Zm7.89-3a11.43,11.43,0,0,0,1.63-.09v1.69a13.77,13.77,0,0,0-1.79-.09H32.48a20.37,20.37,0,0,0,.81,4.94c.37,1,.9,2,1.14,2,.06,0,.14-.09.17-.2a18.22,18.22,0,0,0,.26-2.09,5.67,5.67,0,0,0,1.43.95c-.34,2.33-.87,3.39-1.72,3.39s-2-1.19-2.72-3a21,21,0,0,1-1.05-6H24a15.44,15.44,0,0,0-1.77.09V46.94a13.57,13.57,0,0,0,1.8.09h6.68c0-1.33,0-1.33,0-1.65a10.22,10.22,0,0,0-.09-1.74h1.86a4.6,4.6,0,0,0-.08.95c0,.08,0,2.11,0,2.44Zm-4.84-1A13,13,0,0,0,28.06,46H25a10.68,10.68,0,0,0-1.46.08V44.4a9.67,9.67,0,0,0,1.46.08h3a9.79,9.79,0,0,0,1.46-.08Zm4.84.88a10.06,10.06,0,0,0-1.65-2.35l1.27-.64a10.85,10.85,0,0,1,1.72,2.24Z"/><path class="cls-9" d="M44.81,47.72A7,7,0,0,0,44.75,49c-.06,2.61-.47,4.07-1.51,5.4a8.82,8.82,0,0,1-3.94,2.75,5.38,5.38,0,0,0-1.21-1.74,7,7,0,0,0,2.67-1.3c1.56-1.24,2-2.55,2-5.43a3.84,3.84,0,0,0-.08-.92ZM51,45.8a4.25,4.25,0,0,0-.61,1.07A9.7,9.7,0,0,1,48,49.94a9.58,9.58,0,0,1-1.83,1.27,5.14,5.14,0,0,0-1.37-1.39,7.07,7.07,0,0,0,2.23-1.4,6.32,6.32,0,0,0,1.45-1.94h-8a14.52,14.52,0,0,0-2.08.09V44.66a12.26,12.26,0,0,0,2.11.12h8A4.21,4.21,0,0,0,50,44.64Z"/><path class="cls-9" d="M53.06,49.4a15,15,0,0,0,2.47.11h8.13a15,15,0,0,0,2.47-.11v2.12a16.78,16.78,0,0,0-2.49-.08h-8.1a16.75,16.75,0,0,0-2.49.08Z"/><path class="cls-9" d="M73.54,45.27a6.4,6.4,0,0,0-.2,1.18,27.34,27.34,0,0,1-1.21,5.22,14.58,14.58,0,0,1-2.7,4.72,6.66,6.66,0,0,0-1.74-1.31,10.3,10.3,0,0,0,2.18-3.25,18.6,18.6,0,0,0,1.43-5.23,11.3,11.3,0,0,0,.14-1.48v-.21Zm4.33-.38a19.8,19.8,0,0,0,.64,3.51A14.76,14.76,0,0,0,81.92,55a6.58,6.58,0,0,0-1.68,1.4,16,16,0,0,1-2.59-4.49,23.85,23.85,0,0,1-1.45-5.55,7.63,7.63,0,0,0-.21-1.1Zm1.6.17a7.94,7.94,0,0,1,1.14,2.15l-1.14.53a9.23,9.23,0,0,0-1.13-2.18ZM81.15,47a10.88,10.88,0,0,0-1.1-2.11l1.07-.49a8.71,8.71,0,0,1,1.13,2Z"/><path class="cls-9" d="M84.31,54.48a14.53,14.53,0,0,0,4.52-1.13,10.19,10.19,0,0,0,4.53-3.74,12.71,12.71,0,0,0,1.56-3.05,6.62,6.62,0,0,0,1.62,1.5,13.4,13.4,0,0,1-4.84,6,16.5,16.5,0,0,1-5.81,2.29,5.42,5.42,0,0,0-1,.26ZM85.6,45A21.63,21.63,0,0,1,89.54,48l-1.31,1.66a16,16,0,0,0-3.89-3.1Z"/><path class="cls-9" d="M104,45.27a6.5,6.5,0,0,0-.2,1.18,27.27,27.27,0,0,1-1.21,5.22,14.58,14.58,0,0,1-2.7,4.72,6.68,6.68,0,0,0-1.74-1.31,10.3,10.3,0,0,0,2.18-3.25,18.56,18.56,0,0,0,1.43-5.23,11.13,11.13,0,0,0,.14-1.48v-.21Zm4.33-.38A19.9,19.9,0,0,0,109,48.4a14.76,14.76,0,0,0,3.4,6.59,6.6,6.6,0,0,0-1.68,1.4,16,16,0,0,1-2.59-4.49,23.9,23.9,0,0,1-1.45-5.55,7.63,7.63,0,0,0-.21-1.1Zm4.06,1.27a1.67,1.67,0,0,1-1.68,1.68,1.69,1.69,0,0,1-1.68-1.68,1.68,1.68,0,1,1,3.36,0Zm-2.55,0a.87.87,0,0,0,1.74,0,.86.86,0,0,0-.87-.87A.88.88,0,0,0,109.87,46.15Z"/><path class="cls-9" d="M114.06,49.4a15,15,0,0,0,2.47.11h8.13a15,15,0,0,0,2.47-.11v2.12a16.78,16.78,0,0,0-2.49-.08h-8.1a16.75,16.75,0,0,0-2.49.08Z"/><path class="cls-9" d="M141.58,46.55a2.87,2.87,0,0,0-.38.92,15.83,15.83,0,0,1-3.13,5.89,15.42,15.42,0,0,1-5.43,3.88,4.72,4.72,0,0,0-1.3-1.6,13.79,13.79,0,0,0,3.34-1.8,12.09,12.09,0,0,0,4.46-6.44l-4.59.08A14.91,14.91,0,0,1,131,51.37a4,4,0,0,0-1.48-1.31,11.75,11.75,0,0,0,4-4.42,5.69,5.69,0,0,0,.78-2l2.09.41a3.28,3.28,0,0,0-.26.47,3.07,3.07,0,0,0-.2.43l-.2.4a3.63,3.63,0,0,1-.24.49c.2,0,.44,0,.73,0l3.34,0a2.71,2.71,0,0,0,1.11-.15Z"/><path class="cls-9" d="M157.11,48.94a6.86,6.86,0,0,0-.43,1,10.79,10.79,0,0,1-3.54,5.16,13.59,13.59,0,0,1-4,2.08A5.32,5.32,0,0,0,148,55.37a9.91,9.91,0,0,0,4.24-2,8,8,0,0,0,2.46-3.57h-7.43a15.43,15.43,0,0,0-2,.08V48a10.8,10.8,0,0,0,2,.11h7.26a6.63,6.63,0,0,0,1.72-.14Zm-10.54-4.62a8.67,8.67,0,0,0,1.79.11h5.33a8.67,8.67,0,0,0,1.79-.11V46.2a11.68,11.68,0,0,0-1.75-.08h-5.39a11.67,11.67,0,0,0-1.75.08Z"/><path class="cls-9" d="M172.15,45.15a6.26,6.26,0,0,0-.56.53,27,27,0,0,1-3.6,3.14v6.52a11.47,11.47,0,0,0,.08,1.69h-2.14a8.6,8.6,0,0,0,.09-1.65V50a24.7,24.7,0,0,1-5.45,2.47,5.74,5.74,0,0,0-1-1.74,22.28,22.28,0,0,0,8-4,12.23,12.23,0,0,0,2.84-2.85Z"/><path class="cls-9" d="M175.82,54.48a14.53,14.53,0,0,0,4.52-1.13,10.19,10.19,0,0,0,4.53-3.74,12.71,12.71,0,0,0,1.56-3.05,6.62,6.62,0,0,0,1.62,1.5,13.4,13.4,0,0,1-4.84,6,16.5,16.5,0,0,1-5.81,2.29,5.42,5.42,0,0,0-1,.26Zm1.3-9.48A21.63,21.63,0,0,1,181.05,48l-1.31,1.66a16,16,0,0,0-3.89-3.1Z"/><path class="cls-10" d="M14.16,115.05a11.61,11.61,0,0,0-.12,2v6.84a3.61,3.61,0,0,1-.82,2.5,3.92,3.92,0,0,1-3,1.07,4,4,0,0,1-3.1-1.14,4.7,4.7,0,0,1-.87-1.45l2-.73a2,2,0,0,0,.82,1.25,2.24,2.24,0,0,0,1.14.29,1.81,1.81,0,0,0,1.33-.49,2,2,0,0,0,.37-1.33V117a11.62,11.62,0,0,0-.12-2Z"/><path class="cls-10" d="M24.06,127.2a12.3,12.3,0,0,0-.79-2.44c-.82-2.11-1.36-2.67-2.53-2.67H18.46v3.11a11.88,11.88,0,0,0,.12,2H16.31a12.05,12.05,0,0,0,.12-2V117a13.69,13.69,0,0,0-.12-2c.64,0,1.11,0,2,0h3.66c2.32,0,3.65,1.16,3.65,3.17a3.14,3.14,0,0,1-.78,2.27,3.23,3.23,0,0,1-1.69.88c1,.31,1.25.73,2.76,4.3.12.27.5,1.1.72,1.51Zm-2.53-6.85A2.06,2.06,0,0,0,23,119.8a1.81,1.81,0,0,0,.49-1.34c0-1.1-.63-1.66-1.88-1.66H18.46v3.56Z"/><path class="cls-10" d="M35.79,120.74a7.89,7.89,0,0,0-.06-1.21h1.76a8.41,8.41,0,0,0-.06,1.21v.67h1.21a5.91,5.91,0,0,0,1.19-.08v1.6a8.34,8.34,0,0,0-1.19-.06H37.42v2.52c1-.21,1.51-.34,2.81-.72v1.57c-2.79.73-3.74.95-6.82,1.51l-1.59.3-.29-1.75a11.23,11.23,0,0,0,1.28-.09v-3.89a7.81,7.81,0,0,0-.09-1.43h1.74a8,8,0,0,0-.08,1.33V126l1.4-.26Zm7.89-3a11.44,11.44,0,0,0,1.63-.09v1.69a13.77,13.77,0,0,0-1.79-.09H41.85a20.38,20.38,0,0,0,.81,4.94c.37,1,.9,2,1.14,2,.06,0,.14-.09.17-.2a18,18,0,0,0,.26-2.09,5.67,5.67,0,0,0,1.43.95c-.33,2.33-.87,3.39-1.72,3.39s-2-1.19-2.72-3a20.91,20.91,0,0,1-1.05-6H33.4a15.42,15.42,0,0,0-1.77.09v-1.69a13.52,13.52,0,0,0,1.8.09h6.68c0-1.33,0-1.33,0-1.65a10.32,10.32,0,0,0-.09-1.74h1.86a4.6,4.6,0,0,0-.08.95c0,.08,0,2.11,0,2.44Zm-4.84-1a13,13,0,0,0-1.42-.08H34.34a10.68,10.68,0,0,0-1.46.08V115.1a9.66,9.66,0,0,0,1.46.08h3a9.8,9.8,0,0,0,1.46-.08Zm4.84.88A10,10,0,0,0,42,115.27l1.27-.64A10.85,10.85,0,0,1,45,116.87Z"/><path class="cls-10" d="M55.28,126.39a8.92,8.92,0,0,0,1.34-1.57,17.94,17.94,0,0,1-1.13-5.4h-6A31.85,31.85,0,0,1,49,125a8.37,8.37,0,0,1-1.3,3.31A7,7,0,0,0,46.47,127a5.6,5.6,0,0,0,1-2.38,25.85,25.85,0,0,0,.37-4.93c0-.81,0-1.31-.06-1.8a10.26,10.26,0,0,0,1.57.08h6.06c0-.2,0-.2,0-.5h1.68a1.77,1.77,0,0,0-.06.5h1.51a8.29,8.29,0,0,0-1.16-.82l.78-.58H56.78a2.59,2.59,0,0,0,.06.59H55.15a3.42,3.42,0,0,0,0-.59H52.07v.27a3.55,3.55,0,0,0,0,.75H50.43a5.2,5.2,0,0,0,0-.72v-.3h-2a10.32,10.32,0,0,0-1.68.09v-1.6a13.12,13.12,0,0,0,1.68.09h2v-.12a5.81,5.81,0,0,0,0-.78h1.69a4.31,4.31,0,0,0-.06.78v.12h3.13v-.12a6.14,6.14,0,0,0,0-.78h1.69a4,4,0,0,0-.06.78v.12h2.11a14.09,14.09,0,0,0,1.72-.09v1.6a13.23,13.23,0,0,0-1.72-.09H58.5a8.78,8.78,0,0,1,1.22.88l-.63.52a10.55,10.55,0,0,0,1.19-.08v1.56a13.84,13.84,0,0,0-1.56-.08H57a15.57,15.57,0,0,0,.59,3.62,10.79,10.79,0,0,0,.95-3.05l1.53.56a6.21,6.21,0,0,0-.3.87,18.19,18.19,0,0,1-1.46,3.4c.38.79.82,1.43,1,1.43s.3-.72.35-2.06a5.93,5.93,0,0,0,1.33.92,7.19,7.19,0,0,1-.56,2.49,1,1,0,0,1-.87.59,2.16,2.16,0,0,1-1.5-.85,6.28,6.28,0,0,1-.7-1,11.85,11.85,0,0,1-2,2,4.36,4.36,0,0,0-1.16-1.14,3,3,0,0,0,.27-.2H51.39v.85H49.75a12.37,12.37,0,0,0,.08-1.57v-5c0-.59,0-.87,0-1.24.38,0,.66,0,1.39,0h2.69a9.6,9.6,0,0,0,1.37-.06v1.36a10.24,10.24,0,0,0-1.28-.06h-.32v.7h.59c.53,0,.85,0,1,0a4.72,4.72,0,0,0,0,.7v1.43c0,.27,0,.47,0,.72H53.62v.84H54a11.91,11.91,0,0,0,1.31,0Zm-2.88-4.33v-.7H51.23v.7Zm1.5,1.74v-.67H51.23v.67Zm-2.67,1.07v.84H52.4v-.84Z"/><path class="cls-10" d="M63.76,121.43c-.5,0-1,0-1.28,0,0-.47.06-1,.06-1.51V116.2a11.79,11.79,0,0,0-.06-1.4,14,14,0,0,0,1.46.06h3.77a11.47,11.47,0,0,0,1.4-.06c0,.4,0,.78,0,1.42v3.91c0,.78,0,1.05,0,1.36-.29,0-.7,0-1.22,0H66.52v1.25h1.36a9.17,9.17,0,0,0,1.4-.08v1.6a8.93,8.93,0,0,0-1.4-.08H66.52v1.34c1.1-.17,1.56-.24,2.78-.52l0,1.4c-2.21.52-3.39.73-5.4,1a15.37,15.37,0,0,0-1.6.27L62,125.9a26.09,26.09,0,0,0,3.07-.23v-1.54H63.7a12.44,12.44,0,0,0-1.39.08v-1.6a12,12,0,0,0,1.39.08h1.37v-1.25Zm.12-5.13v1.17h1.19V116.3Zm0,2.53v1.22h1.19v-1.22Zm2.64-1.36h1.22V116.3H66.52Zm0,2.58h1.22v-1.22H66.52Zm7.6-1.25-.73.78h.79a7.93,7.93,0,0,0,1.25-.06l.82,1-.35.75a12.84,12.84,0,0,1-1.51,2.62,6.82,6.82,0,0,0-1.24-.82,8.49,8.49,0,0,0,1.25-1.89H73.05v5.46c0,1.16-.47,1.5-2.12,1.5-.26,0-.61,0-1.14,0a5.29,5.29,0,0,0-.37-1.62,12.4,12.4,0,0,0,1.56.15c.37,0,.49-.09.49-.37v-5.08h-.72a8.61,8.61,0,0,0-1.37.08v-1.75a8.14,8.14,0,0,0,1.37.08h1.91a17.68,17.68,0,0,0-2.72-1.8l.87-1.08c.76.41,1,.55,1.48.85a7.68,7.68,0,0,0,1.17-1.16H71.06a12.16,12.16,0,0,0-1.37.08v-1.71a9.89,9.89,0,0,0,1.48.08h2.47a8,8,0,0,0,1.25-.06l.88,1c-.24.29-.35.44-.59.75a14,14,0,0,1-1.68,1.83Z"/><path class="cls-10" d="M77.29,120.64a5.18,5.18,0,0,0,.72,0h.47c.38-.49.5-.66.84-1.14a15.57,15.57,0,0,0-2.06-2.24l.79-1.31.56.59A9,9,0,0,0,79.81,114l1.48.55a5.11,5.11,0,0,0-.34.64,21.8,21.8,0,0,1-1.39,2.41l.56.72a15.54,15.54,0,0,0,1.43-2.58l1.36.73-.52.82a39.61,39.61,0,0,1-2.29,3.3c.9-.06,1.25-.09,1.68-.14a11.08,11.08,0,0,0-.44-1.22l1.13-.44a16.75,16.75,0,0,1,1,2.84l-1.19.53c0-.2,0-.2-.09-.44l-1.13.12v4.82a8.91,8.91,0,0,0,.09,1.6H79.47a12.44,12.44,0,0,0,.09-1.62V122c-.09,0-.29,0-.61,0a10.53,10.53,0,0,0-1.5.14Zm1.89,2.24a18.5,18.5,0,0,1-.63,4.65l-1.28-.66a14,14,0,0,0,.6-4.15Zm3.25-.28a21.34,21.34,0,0,1,.5,3l-1.21.34a18.73,18.73,0,0,0-.38-3.08Zm1.31.81a4.79,4.79,0,0,0-.88.06v-1.53a4.61,4.61,0,0,0,.93.06h1a4.09,4.09,0,0,0,.72,0l.55.72a3.15,3.15,0,0,0-.14.41,9.45,9.45,0,0,1-1.25,2.7,9.9,9.9,0,0,1-1.76,2,4.07,4.07,0,0,0-1-1.22,6.7,6.7,0,0,0,2.5-3.13Zm4-2.44a6.49,6.49,0,0,0,.75,1.89,10.24,10.24,0,0,0,1.63-1.71l1.08,1a18,18,0,0,1-2,1.88,8.65,8.65,0,0,0,2.36,2.24,5.08,5.08,0,0,0-1,1.51,8.08,8.08,0,0,1-1.6-1.63,9.66,9.66,0,0,1-1.53-2.78c.09.93.14,1.59.14,2.06v1.33c0,1-.49,1.36-1.83,1.36h-.49a2.82,2.82,0,0,1-.52,0,4.64,4.64,0,0,0-.41-1.54,7.18,7.18,0,0,0,1.25.14c.38,0,.47-.08.47-.37V121H84.87c-.54,0-1.08,0-1.51.06a13.34,13.34,0,0,0,.06-1.48v-2.76a14,14,0,0,0-.06-1.5,12,12,0,0,0,1.48.06h.87a8.3,8.3,0,0,0,.41-1.34l1.71.24c-.18.49-.29.73-.46,1.1h1.69a11.48,11.48,0,0,0,1.48-.06,13.46,13.46,0,0,0-.06,1.53v2.75a12.13,12.13,0,0,0,.06,1.46A14.09,14.09,0,0,0,89.1,121ZM85,117.57h4v-1H85Zm0,2.15h4v-1H85Z"/><path class="cls-11" d="M527.38,176.27a11.48,11.48,0,0,0-.12,2v6.84a3.61,3.61,0,0,1-.82,2.5,3.92,3.92,0,0,1-3,1.07,4,4,0,0,1-3.1-1.14,4.68,4.68,0,0,1-.87-1.45l2-.73a2,2,0,0,0,.82,1.25,2.23,2.23,0,0,0,1.14.29,1.81,1.81,0,0,0,1.33-.49,2,2,0,0,0,.37-1.33v-6.8a11.59,11.59,0,0,0-.12-2Z"/><path class="cls-11" d="M537.28,188.42a12.41,12.41,0,0,0-.79-2.44c-.82-2.11-1.36-2.67-2.53-2.67h-2.27v3.11a12,12,0,0,0,.12,2h-2.27a11.92,11.92,0,0,0,.12-2v-8.22a13.54,13.54,0,0,0-.12-2c.64,0,1.11,0,2,0h3.66c2.32,0,3.65,1.16,3.65,3.17a3.14,3.14,0,0,1-.78,2.27,3.23,3.23,0,0,1-1.69.88c1,.31,1.25.73,2.76,4.3.12.27.5,1.1.72,1.51Zm-2.53-6.85a2.05,2.05,0,0,0,1.45-.55,1.81,1.81,0,0,0,.49-1.34c0-1.1-.62-1.66-1.88-1.66h-3.13v3.56Z"/><path class="cls-11" d="M526.16,193a7.72,7.72,0,0,0-.08-1.1h1.8a7.58,7.58,0,0,0-.08,1.1v.93H529A8.92,8.92,0,0,0,530.1,192l1.65.47a3.06,3.06,0,0,0-.24.38c-.44.66-.47.7-.72,1H532a13.08,13.08,0,0,0,1.63-.06,11.85,11.85,0,0,0-.06,1.43v1a6.19,6.19,0,0,0,.08,1.08H532v-2h-9.86v2h-1.68a8.81,8.81,0,0,0,.06-1.1v-1a12.58,12.58,0,0,0-.06-1.37,13,13,0,0,0,1.5.06h1.28a7.49,7.49,0,0,0-1-1.46l1.62-.46a11.17,11.17,0,0,1,1.22,1.92h1.08Zm-1.94,6.7c-.63,0-1,0-1.45,0a12.47,12.47,0,0,0,0-1.28v-1.1c0-.5,0-.9,0-1.22.41,0,.92,0,1.46,0H530c.63,0,1.05,0,1.45,0,0,.35,0,.67,0,1.24v1.08a11.61,11.61,0,0,0,0,1.28c-.47,0-.95,0-1.53,0h-2.12v.9h3.49a11.41,11.41,0,0,0,1.5-.06,10.16,10.16,0,0,0-.06,1.37V204c0,1.11-.4,1.36-2.27,1.36-.2,0-.27,0-1,0a3.94,3.94,0,0,0-.37-1.51,11.19,11.19,0,0,0,1.46.11c.44,0,.55-.06.55-.32V202h-3.28v2.32a11.86,11.86,0,0,0,.08,1.62h-1.82a12.41,12.41,0,0,0,.08-1.62V202h-3v1.8a10,10,0,0,0,.08,1.53h-1.8a14.71,14.71,0,0,0,.08-1.57v-2a10.21,10.21,0,0,0-.06-1.25,12.29,12.29,0,0,0,1.4.06h3.31v-.9Zm.2-2.27v1h5.37v-1Z"/><path class="cls-11" d="M537.18,201.13a15.43,15.43,0,0,0-1.79.08v-1.5a14,14,0,0,0,1.79.08h10.25a14.2,14.2,0,0,0,1.79-.08v1.5a15.78,15.78,0,0,0-1.79-.08h-6.3a8.61,8.61,0,0,1-.75.87h6.27a8.27,8.27,0,0,0,1.31-.06,8.6,8.6,0,0,0-.08,1.24v1.54a10.71,10.71,0,0,0,.09,1.34h-1.75v-.62h-6.29V206h-1.74a8.07,8.07,0,0,0,.08-1.17v-1.14a12.61,12.61,0,0,1-2.37,1.25,5,5,0,0,0-.85-1.42,8.44,8.44,0,0,0,2.85-1.27,6.1,6.1,0,0,0,1.24-1.16Zm-2-5.72c.21,0,.41,0,.63,0l.6,0c0-.6,0-.95,0-1.83a5.67,5.67,0,0,0-.08-1.1c.43,0,.75,0,1.11,0h.53a4.57,4.57,0,0,0,.37-1l1.63.17c-.12.27-.26.59-.38.82h1c.47,0,.76,0,1.1,0a6.25,6.25,0,0,0-.06,1V195l.43,0v1.22l-.43,0v2.18a.94.94,0,0,1-.56.92,3.81,3.81,0,0,1-1.16.11h-.72a4.64,4.64,0,0,0-.15-.87h-.76a5.89,5.89,0,0,0,.06-1v-1l-.64.06a5.68,5.68,0,0,1-1.19,3,7.66,7.66,0,0,0-1.27-.93,3.89,3.89,0,0,0,1-2l-.92.09Zm2.7-1c0,.44,0,.73,0,1l1.07-.06a4.38,4.38,0,0,0-.93-1.05l.9-.52h-1Zm1.21.88c.2,0,.69,0,1.24-.11v-1.45h-1.25a6.12,6.12,0,0,1,.92,1Zm.46,1.16v1.71h.5c.21,0,.27-.08.27-.27v-1.53Zm.35,7.74h6.29v-1h-6.29Zm2.52-8.87a2.18,2.18,0,0,0,.43,0,4.77,4.77,0,0,0-.88-1,1.7,1.7,0,0,0,1.21-1.75,3.91,3.91,0,0,0,0-.66c.35,0,.58,0,1,0h2a7.88,7.88,0,0,0,1,0,4.77,4.77,0,0,0,0,.75v.9c0,.15.06.18.35.18.5,0,.59,0,.66-.2a4.41,4.41,0,0,0,.11-1,5.53,5.53,0,0,0,1.17.31c-.15,1.91-.27,2-1.91,2-1.43,0-1.69-.11-1.69-.69v-1h-1.36a2.13,2.13,0,0,1-.75,1.63,3.06,3.06,0,0,1-.57.43h4a4.44,4.44,0,0,0,.93-.06l.63.75-.35.41a12.72,12.72,0,0,1-1.51,1.43,12.87,12.87,0,0,0,2.75.35,5.19,5.19,0,0,0-.53,1.33,13,13,0,0,1-3.52-.87,10.82,10.82,0,0,1-2.95.92,4.31,4.31,0,0,0-.62-1.17,12.11,12.11,0,0,0,2.24-.46,11,11,0,0,1-1.19-.93l1.08-.53h-.61a5.93,5.93,0,0,0-1,0Zm1.71,1.21a4.77,4.77,0,0,0,1.27.9,5.43,5.43,0,0,0,1.16-.9Z"/><path class="cls-11" d="M550.64,198.28a5.18,5.18,0,0,0,.72,0h.47c.38-.49.5-.66.84-1.14a15.57,15.57,0,0,0-2.06-2.24l.79-1.31.56.6a9,9,0,0,0,1.19-2.55l1.48.55a5.18,5.18,0,0,0-.34.64,21.8,21.8,0,0,1-1.39,2.41l.56.72a15.54,15.54,0,0,0,1.43-2.58l1.36.73-.52.82a39.61,39.61,0,0,1-2.29,3.3c.9-.06,1.25-.09,1.68-.14a10.93,10.93,0,0,0-.44-1.22l1.13-.44a16.78,16.78,0,0,1,1,2.84l-1.19.53c0-.2,0-.2-.09-.44l-1.13.12v4.82a8.93,8.93,0,0,0,.09,1.6h-1.65a12.47,12.47,0,0,0,.09-1.62v-4.68c-.09,0-.29,0-.61,0a10.53,10.53,0,0,0-1.5.14Zm1.89,2.24a18.5,18.5,0,0,1-.63,4.65l-1.28-.66a14,14,0,0,0,.6-4.15Zm3.25-.28a21.34,21.34,0,0,1,.5,3l-1.21.33a18.72,18.72,0,0,0-.38-3.08Zm1.31.81a4.81,4.81,0,0,0-.88.06v-1.53a4.71,4.71,0,0,0,.93.06h1a4.09,4.09,0,0,0,.72,0l.55.72a3.08,3.08,0,0,0-.14.41,9.45,9.45,0,0,1-1.25,2.7,9.9,9.9,0,0,1-1.76,2,4.09,4.09,0,0,0-1-1.22,6.71,6.71,0,0,0,2.5-3.13Zm4-2.44a6.5,6.5,0,0,0,.75,1.89,10.24,10.24,0,0,0,1.63-1.71l1.08,1a18,18,0,0,1-2,1.88A8.63,8.63,0,0,0,565,203.9a5.08,5.08,0,0,0-1,1.51,8.08,8.08,0,0,1-1.6-1.63,9.66,9.66,0,0,1-1.53-2.78c.09.93.14,1.59.14,2.06v1.33c0,1-.49,1.36-1.83,1.36h-.49a2.9,2.9,0,0,1-.52,0,4.64,4.64,0,0,0-.41-1.54,7.18,7.18,0,0,0,1.25.14c.38,0,.47-.08.47-.37v-5.31h-1.28c-.54,0-1.08,0-1.51.06a13.34,13.34,0,0,0,.06-1.48v-2.76a14,14,0,0,0-.06-1.5,11.91,11.91,0,0,0,1.48.06h.87a8.35,8.35,0,0,0,.41-1.34l1.71.24c-.18.49-.29.73-.46,1.1h1.69a11.43,11.43,0,0,0,1.48-.06,13.47,13.47,0,0,0-.06,1.53v2.75a12.13,12.13,0,0,0,.06,1.46,14.1,14.1,0,0,0-1.45-.06Zm-2.82-3.4h4v-1h-4Zm0,2.15h4v-1h-4Z"/><path class="cls-12" d="M228.38,310.15a11.48,11.48,0,0,0-.12,2V319a3.61,3.61,0,0,1-.82,2.5,3.92,3.92,0,0,1-3,1.07,4,4,0,0,1-3.1-1.14,4.68,4.68,0,0,1-.87-1.45l2-.73a2,2,0,0,0,.82,1.25,2.23,2.23,0,0,0,1.14.29,1.81,1.81,0,0,0,1.33-.49,2,2,0,0,0,.37-1.33v-6.8a11.59,11.59,0,0,0-.12-2Z"/><path class="cls-12" d="M238.28,322.3a12.41,12.41,0,0,0-.79-2.44c-.82-2.11-1.36-2.67-2.53-2.67h-2.27v3.11a12,12,0,0,0,.12,2h-2.27a11.92,11.92,0,0,0,.12-2v-8.22a13.54,13.54,0,0,0-.12-2c.64,0,1.11,0,2,0h3.66c2.32,0,3.65,1.16,3.65,3.17a3.14,3.14,0,0,1-.78,2.27,3.23,3.23,0,0,1-1.69.88c1,.31,1.25.73,2.76,4.3.12.27.5,1.1.72,1.51Zm-2.53-6.85a2.05,2.05,0,0,0,1.45-.55,1.81,1.81,0,0,0,.49-1.34c0-1.1-.62-1.66-1.88-1.66h-3.13v3.56Z"/><path class="cls-12" d="M227,327.4a9.55,9.55,0,0,0-.11-1.54h2a9.79,9.79,0,0,0-.11,1.54v9.52h3.71v-6.85a10.22,10.22,0,0,0-.09-1.46h1.91a11.89,11.89,0,0,0-.09,1.46v7.72a14.82,14.82,0,0,0,.11,1.88h-1.83v-1.08h-9v1.08h-1.82a15.78,15.78,0,0,0,.09-1.83v-7.72a11.74,11.74,0,0,0-.09-1.51h1.89a10,10,0,0,0-.08,1.5v6.82H227Z"/><path class="cls-12" d="M242.61,328.21c-2,.18-2.76.23-4.76.27a8.5,8.5,0,0,0-.56-1.57H238a47.42,47.42,0,0,0,6.84-.52,10.71,10.71,0,0,0,2.82-.73l1.25,1.53a40.7,40.7,0,0,1-4.62.85v2h3.16a15.08,15.08,0,0,0,1.91-.09v1.71a16,16,0,0,0-1.88-.09h-3.19v1.85h3.91a14.64,14.64,0,0,0,1.86-.09V335a15.33,15.33,0,0,0-1.86-.09h-3.91v3c0,.67-.21,1.14-.59,1.31a4.9,4.9,0,0,1-1.71.24c-.46,0-1.21,0-2.08-.11a4.69,4.69,0,0,0-.46-1.66,18.86,18.86,0,0,0,2.55.21c.44,0,.58-.11.58-.47v-2.52h-4.26a15.42,15.42,0,0,0-1.88.09v-1.72a14.75,14.75,0,0,0,1.88.09h4.26v-1.85h-3.4a17.9,17.9,0,0,0-1.91.09v-1.71a14.82,14.82,0,0,0,1.89.09h3.42Z"/><path class="cls-12" d="M251.64,332.16a5.18,5.18,0,0,0,.72,0h.47c.38-.49.5-.66.84-1.14a15.57,15.57,0,0,0-2.06-2.24l.79-1.31.56.6a9,9,0,0,0,1.19-2.55l1.48.55a5.18,5.18,0,0,0-.34.64,21.8,21.8,0,0,1-1.39,2.41l.56.72a15.54,15.54,0,0,0,1.43-2.58l1.36.73-.52.82a39.61,39.61,0,0,1-2.29,3.3c.9-.06,1.25-.09,1.68-.14a10.93,10.93,0,0,0-.44-1.22l1.13-.44a16.78,16.78,0,0,1,1,2.84l-1.19.53c0-.2,0-.2-.09-.44l-1.13.12v4.82a8.93,8.93,0,0,0,.09,1.6h-1.65a12.47,12.47,0,0,0,.09-1.62v-4.68c-.09,0-.29,0-.61,0a10.53,10.53,0,0,0-1.5.14Zm1.89,2.24a18.5,18.5,0,0,1-.63,4.65l-1.28-.66a14,14,0,0,0,.6-4.15Zm3.25-.28a21.34,21.34,0,0,1,.5,3l-1.21.33a18.72,18.72,0,0,0-.38-3.08Zm1.31.81a4.81,4.81,0,0,0-.88.06v-1.53a4.71,4.71,0,0,0,.93.06h1a4.09,4.09,0,0,0,.72,0l.55.72a3.08,3.08,0,0,0-.14.41,9.45,9.45,0,0,1-1.25,2.7,9.9,9.9,0,0,1-1.76,2,4.09,4.09,0,0,0-1-1.22,6.71,6.71,0,0,0,2.5-3.13Zm4-2.44a6.5,6.5,0,0,0,.75,1.89,10.24,10.24,0,0,0,1.63-1.71l1.08,1a18,18,0,0,1-2,1.88,8.63,8.63,0,0,0,2.36,2.24,5.08,5.08,0,0,0-1,1.51,8.08,8.08,0,0,1-1.6-1.63,9.66,9.66,0,0,1-1.53-2.78c.09.93.14,1.59.14,2.06v1.33c0,1-.49,1.36-1.83,1.36h-.49a2.9,2.9,0,0,1-.52,0,4.64,4.64,0,0,0-.41-1.54,7.18,7.18,0,0,0,1.25.14c.38,0,.47-.08.47-.37V332.5h-1.28c-.54,0-1.08,0-1.51.06a13.34,13.34,0,0,0,.06-1.48v-2.76a14,14,0,0,0-.06-1.5,11.91,11.91,0,0,0,1.48.06h.87a8.35,8.35,0,0,0,.41-1.34l1.71.24c-.18.49-.29.73-.46,1.1h1.69a11.43,11.43,0,0,0,1.48-.06,13.47,13.47,0,0,0-.06,1.53v2.75a12.13,12.13,0,0,0,.06,1.46,14.1,14.1,0,0,0-1.45-.06Zm-2.82-3.4h4v-1h-4Zm0,2.15h4v-1h-4Z"/><path class="cls-13" d="M473,66.92a11,11,0,0,0,1.79-.31,24.08,24.08,0,0,1,6.07-.87c3,0,5,1.69,5,4.29a5.41,5.41,0,0,1-3.39,4.88,14.34,14.34,0,0,1-5.37,1.27,6.64,6.64,0,0,0-.78-2,13.09,13.09,0,0,0,5-.9,4.23,4.23,0,0,0,2.3-2.26,3.38,3.38,0,0,0,.17-1.08,2.24,2.24,0,0,0-1.16-2,4,4,0,0,0-2-.41,21.75,21.75,0,0,0-6,1.08,5.54,5.54,0,0,0-1.22.43Z"/><path class="cls-13" d="M497.76,64.94a23.18,23.18,0,0,0-1.88,1.68c-.78.72-1.85,1.57-3.63,2.93-.47.35-.58.47-.58.64s0,.26,1.37,1.27a51.45,51.45,0,0,1,4.81,4,3.86,3.86,0,0,0,.44.38l-1.57,1.59a14.75,14.75,0,0,0-2-2.09,48.6,48.6,0,0,0-3.94-3.25c-1-.78-1.28-1.19-1.28-1.89a1.78,1.78,0,0,1,.5-1.24,9.3,9.3,0,0,1,1.34-1.1,34.07,34.07,0,0,0,3.52-3A7.53,7.53,0,0,0,496,63.59Z"/><path class="cls-13" d="M503.17,76.93a4.94,4.94,0,0,0-.08-.6,29,29,0,0,1-.41-4.87,27.22,27.22,0,0,1,.29-4c.08-.47.08-.47.41-2.2a7.78,7.78,0,0,0,.17-1.13v0l2.06.2a24.68,24.68,0,0,0-1.22,7.67c0,.55,0,.55,0,.79V73a2.2,2.2,0,0,1,0,.3h0a3.05,3.05,0,0,0,.18-.44c0-.11.11-.27.18-.5l.29-.69c0-.06,0-.11.18-.47l1.27.55A12.79,12.79,0,0,0,505,76.41a3.25,3.25,0,0,0,0,.41Zm3.45-10a11.9,11.9,0,0,0,2.76.23l1.4,0c0-.9,0-1.66,0-2.3a4.43,4.43,0,0,0,0-.73l1.91,0a14.86,14.86,0,0,0-.11,2.23V67a17.93,17.93,0,0,0,2.06-.38l.34-.11.12,0,.06,1.72a1.82,1.82,0,0,0-.44.09c-.52.11-1.31.23-2.12.32V69c0,.84,0,.88.15,3.45a12.19,12.19,0,0,1,2.4,1.37,3.18,3.18,0,0,0,.43.28l-.73,1.85a5.28,5.28,0,0,0-1.14-1c-.52-.35-.87-.56-1-.62v.21a2.81,2.81,0,0,1-.12.85c-.35.89-1.42,1.42-2.9,1.42-2,0-3.22-.95-3.22-2.5s1.3-2.5,3.14-2.5a4,4,0,0,1,1.36.2c0-.37-.06-1.11-.12-3.25-.61,0-1,0-1.37,0-.56,0-1.18,0-1.89-.06-.21,0-.38,0-.46,0h-.26l-.15,0-.09,0Zm3.1,6.39c-1,0-1.59.38-1.59,1s.55.95,1.4.95a1.5,1.5,0,0,0,1.24-.46A1.3,1.3,0,0,0,511,74v-.41A3.46,3.46,0,0,0,509.72,73.33Zm4.1-9.43a8.44,8.44,0,0,1,1,2.12l-1.13.43a9.2,9.2,0,0,0-1-2.15Zm1.51,1.94a10.75,10.75,0,0,0-1-2.08l1.08-.4a8.55,8.55,0,0,1,1,2Z"/><path class="cls-13" d="M524.39,73.59h3.69a10.9,10.9,0,0,0,2-.11V75.4a15.58,15.58,0,0,0-2-.08H519a15.59,15.59,0,0,0-2,.08V73.48a10.89,10.89,0,0,0,2,.11h3.45V67.32H520.1a15.59,15.59,0,0,0-2,.08V65.49a11.1,11.1,0,0,0,2,.11h6.79a11.1,11.1,0,0,0,2-.11v1.91a15.42,15.42,0,0,0-2-.08h-2.56Z"/><path class="cls-13" d="M543.9,66.49a2.85,2.85,0,0,0-.38.92,15.82,15.82,0,0,1-3.13,5.89A15.42,15.42,0,0,1,535,77.17a4.69,4.69,0,0,0-1.3-1.6,13.72,13.72,0,0,0,3.34-1.8,12.08,12.08,0,0,0,4.46-6.44l-4.59.08a15,15,0,0,1-3.57,3.91A4.06,4.06,0,0,0,531.82,70a11.74,11.74,0,0,0,4-4.43,5.71,5.71,0,0,0,.78-2l2.09.41a3,3,0,0,0-.26.47,3.25,3.25,0,0,0-.2.43l-.2.4a3.63,3.63,0,0,1-.24.49c.2,0,.44,0,.73,0l3.34,0a2.7,2.7,0,0,0,1.11-.15Z"/><path class="cls-13" d="M558,76.76a29.29,29.29,0,0,0-4.68-4.53,18.14,18.14,0,0,1-5.81,4.41,6.1,6.1,0,0,0-1.24-1.69,12.58,12.58,0,0,0,3.05-1.68,14.71,14.71,0,0,0,5.13-6.21l.17-.4c-.24,0-.24,0-5.05.09a11.8,11.8,0,0,0-1.66.12l-.06-2a6.71,6.71,0,0,0,1.34.09h.37l5.37-.08a3.29,3.29,0,0,0,1.36-.17l1,1a2.93,2.93,0,0,0-.49.82,20.19,20.19,0,0,1-2.38,4.21,23.71,23.71,0,0,1,2.82,2.21c.38.33.38.33,2.23,2.12Z"/><path class="cls-13" d="M570.45,65.17a8.11,8.11,0,0,0,.84,0A1.68,1.68,0,1,1,573,66.86l-.17,0a15.69,15.69,0,0,1-2.06,4.93,13.31,13.31,0,0,1-3.8,3.69,16.26,16.26,0,0,1-2.9,1.51,5.63,5.63,0,0,0-1.34-1.82,12.38,12.38,0,0,0,3.34-1.56A10.57,10.57,0,0,0,570.68,67h-7.26a12.16,12.16,0,0,0-1.92.09v-2a10.72,10.72,0,0,0,2,.11Zm1.65,0a.87.87,0,0,0,1.74,0,.86.86,0,0,0-.87-.87A.88.88,0,0,0,572.1,65.17Z"/><path class="cls-13" d="M579.69,64.27a11.6,11.6,0,0,0-.09,1.54l-.08,8.71a11,11,0,0,0,4.17-1.68,9,9,0,0,0,3.11-3.49,7.2,7.2,0,0,0,1.45,1.56,11.37,11.37,0,0,1-3.4,3.55,13.91,13.91,0,0,1-5.55,2.09,4.42,4.42,0,0,0-.92.26l-1-1.17a5.39,5.39,0,0,0,.14-1.57l.06-8.24a7.44,7.44,0,0,0-.08-1.57Z"/><path class="cls-13" d="M601.89,76.76a29.29,29.29,0,0,0-4.68-4.53,18.14,18.14,0,0,1-5.81,4.41,6.1,6.1,0,0,0-1.24-1.69,12.58,12.58,0,0,0,3.05-1.68,14.71,14.71,0,0,0,5.13-6.21l.17-.4c-.24,0-.24,0-5.05.09a11.8,11.8,0,0,0-1.66.12l-.06-2a6.71,6.71,0,0,0,1.34.09h.37l5.37-.08a3.29,3.29,0,0,0,1.36-.17l1,1a2.93,2.93,0,0,0-.49.82,20.19,20.19,0,0,1-2.38,4.21,23.71,23.71,0,0,1,2.82,2.21c.38.33.38.33,2.23,2.12Z"/><path class="cls-14" d="M513.91,30.81a9.3,9.3,0,0,0,1.51-.26,20.37,20.37,0,0,1,5.14-.74c2.56,0,4.22,1.43,4.22,3.63a4.58,4.58,0,0,1-2.87,4.13,12.12,12.12,0,0,1-4.54,1.07,5.6,5.6,0,0,0-.66-1.67,11.09,11.09,0,0,0,4.25-.76,3.57,3.57,0,0,0,1.95-1.91,2.83,2.83,0,0,0,.14-.92,1.89,1.89,0,0,0-1-1.68,3.38,3.38,0,0,0-1.67-.35,18.41,18.41,0,0,0-5.09.92,4.74,4.74,0,0,0-1,.36Z"/><path class="cls-14" d="M535.37,29.14a19.6,19.6,0,0,0-1.59,1.42c-.66.61-1.56,1.33-3.07,2.48-.4.3-.49.4-.49.54s0,.22,1.16,1.07A43.48,43.48,0,0,1,535.45,38a3.28,3.28,0,0,0,.37.32l-1.33,1.34a12.55,12.55,0,0,0-1.68-1.77,41.08,41.08,0,0,0-3.33-2.75c-.85-.66-1.08-1-1.08-1.6a1.51,1.51,0,0,1,.43-1,8,8,0,0,1,1.14-.93,29,29,0,0,0,3-2.52,6.34,6.34,0,0,0,.94-1.07Z"/><path class="cls-14" d="M540.47,39.28a4.36,4.36,0,0,0-.06-.5,24.54,24.54,0,0,1-.35-4.12,22.88,22.88,0,0,1,.25-3.41c.06-.4.06-.4.35-1.86a6.57,6.57,0,0,0,.14-1v0l1.74.17a20.87,20.87,0,0,0-1,6.49c0,.46,0,.46,0,.67v.21a1.93,1.93,0,0,1,0,.26h0a2.58,2.58,0,0,0,.16-.37c0-.09.09-.23.16-.43l.24-.58c0-.05,0-.09.16-.4l1.07.46a10.81,10.81,0,0,0-1.28,4,2.69,2.69,0,0,0,0,.35Zm2.92-8.46a10,10,0,0,0,2.34.19h1.19c0-.76,0-1.41,0-1.95a3.64,3.64,0,0,0,0-.62l1.61,0a12.55,12.55,0,0,0-.09,1.88v.61a15.38,15.38,0,0,0,1.74-.32l.28-.09.1,0,.05,1.46a1.55,1.55,0,0,0-.37.08c-.44.09-1.11.19-1.79.27v.3c0,.71,0,.75.13,2.92a10.28,10.28,0,0,1,2,1.16,2.72,2.72,0,0,0,.36.23l-.62,1.56a4.51,4.51,0,0,0-1-.83c-.44-.3-.74-.48-.81-.53v.18a2.39,2.39,0,0,1-.1.72,2.44,2.44,0,0,1-2.45,1.2c-1.69,0-2.72-.8-2.72-2.12s1.1-2.12,2.66-2.12a3.36,3.36,0,0,1,1.15.17c0-.31-.05-.94-.1-2.75-.52,0-.83,0-1.16,0s-1,0-1.6-.05l-.39,0h-.43ZM546,36.24c-.83,0-1.34.32-1.34.84s.46.8,1.19.8a1.26,1.26,0,0,0,1-.39,1.1,1.1,0,0,0,.17-.71v-.35A2.93,2.93,0,0,0,546,36.24Zm3.47-8a7.1,7.1,0,0,1,.83,1.79l-1,.36a7.77,7.77,0,0,0-.83-1.82Zm1.28,1.64a9.05,9.05,0,0,0-.81-1.76l.92-.34a7.24,7.24,0,0,1,.83,1.72Z"/><path class="cls-14" d="M368.77,157.79a10.34,10.34,0,0,1,2.32,1.63l-.83,1.17a8.82,8.82,0,0,0-2.32-1.76Zm2.3,4.4a16.31,16.31,0,0,1-1.3,3.28,4.71,4.71,0,0,1-.28.53l-.17.32-1.24-1.07a3.28,3.28,0,0,0,.58-.81,12,12,0,0,0,1.23-3.08Zm-.53-4.78a8.7,8.7,0,0,0-2.1-1.79l.92-1a12.24,12.24,0,0,1,2.07,1.72v-.68a8.18,8.18,0,0,0,1.41.08h1.78v-.14a5.63,5.63,0,0,0-.06-1h1.54a5.22,5.22,0,0,0-.08,1v.14h2.34a9.93,9.93,0,0,0,1.42-.08V157a12.77,12.77,0,0,0-1.41-.06h-3a9.44,9.44,0,0,1-1,1.65c1.28-.05,1.61-.08,2.76-.19-.23-.26-.36-.37-.72-.72l1.06-.63a17.33,17.33,0,0,1,2.39,2.65l-1.19.8a10.7,10.7,0,0,0-.66-1c-1.85.22-2.75.28-5.72.43-.23,0-.55,0-.85.08l-.17-1.39c.19,0,.66,0,1.55,0a8.37,8.37,0,0,0,1-1.69h-1a13.5,13.5,0,0,0-1.38.06v-.63Zm3,3c0,.25,0,.25-.08,1.36a5.54,5.54,0,0,1-.81,3.2,5.28,5.28,0,0,1-1.42,1.45,3.48,3.48,0,0,0-1-1.06c1.51-1,2-1.94,2-4.1a5.7,5.7,0,0,0-.05-.84Zm.81,5.54a8.73,8.73,0,0,0,.08-1.25v-3.15a6.61,6.61,0,0,0-.06-1.08h1.43a8.49,8.49,0,0,0-.05,1.07v3.17a10.65,10.65,0,0,0,.06,1.24ZM378,164.7c0,.26.06.31.35.31s.41-.05.45-.18A10.28,10.28,0,0,0,379,163a4.41,4.41,0,0,0,1.19.48c-.09,1.7-.15,2-.41,2.36s-.62.39-1.47.39-1.14-.09-1.36-.32-.19-.31-.19-.76V161.6a9.16,9.16,0,0,0-.05-1.24h1.43a8.74,8.74,0,0,0-.05,1.19Z"/><path class="cls-14" d="M386.06,156a8.18,8.18,0,0,0-.09-1.3h1.69a8.29,8.29,0,0,0-.09,1.3v8.06h3.14v-5.8a8.55,8.55,0,0,0-.08-1.24h1.61a10.3,10.3,0,0,0-.08,1.24v6.53a12.53,12.53,0,0,0,.09,1.59h-1.55v-.92h-7.58v.92h-1.54a13.43,13.43,0,0,0,.08-1.55V158.3a10,10,0,0,0-.08-1.28h1.6a8.5,8.5,0,0,0-.06,1.26v5.77h2.93Z"/><path class="cls-14" d="M398.72,164a3.87,3.87,0,0,1-.1,1.1,1.14,1.14,0,0,1-1.19.75,4,4,0,0,1-2.44-.92,1.89,1.89,0,0,1-.71-1.46,2.75,2.75,0,0,1,1.11-1.91,6.91,6.91,0,0,1,1.88-1.1v-2l-.53,0h-2v-1.45a7.86,7.86,0,0,0,1.56.12h1v-.85a8.85,8.85,0,0,0-.08-1.49h1.61a8,8,0,0,0-.08,1.41v.83a14.44,14.44,0,0,0,2.49-.49l.05,1.45-1.37.23c-.43.08-.68.12-1.17.17v1.68a8.92,8.92,0,0,1,2.63-.36c2.16,0,3.69,1.32,3.69,3.15a2.87,2.87,0,0,1-2.93,2.94,2.08,2.08,0,0,1-2.12-1.43,4.31,4.31,0,0,1-.22-1.65,5.43,5.43,0,0,0,1.43-.57,4.54,4.54,0,0,0,0,.57,2.49,2.49,0,0,0,.18,1.14.89.89,0,0,0,.81.44,1.33,1.33,0,0,0,1.3-1.43c0-1.11-.9-1.83-2.28-1.83a8.25,8.25,0,0,0-2.48.43Zm-1.46-2.08c-1,.52-1.54,1.08-1.54,1.55,0,.22.13.41.43.59a1.55,1.55,0,0,0,.83.28c.22,0,.28-.12.28-.54Zm7.15-2.61a11,11,0,0,0-2.58-2.79l1.21-.81a10.93,10.93,0,0,1,2.56,2.65Z"/><path class="cls-14" d="M411.63,164a3.86,3.86,0,0,1-.1,1.1,1.13,1.13,0,0,1-1.19.75,4,4,0,0,1-2.44-.92,1.9,1.9,0,0,1-.71-1.46,2.75,2.75,0,0,1,1.11-1.91,6.89,6.89,0,0,1,1.88-1.1v-2l-.53,0h-2v-1.45a7.86,7.86,0,0,0,1.56.12h1v-.85a8.89,8.89,0,0,0-.08-1.49h1.61a7.92,7.92,0,0,0-.08,1.41v.83a14.44,14.44,0,0,0,2.49-.49l.05,1.45-1.37.23c-.43.08-.68.12-1.17.17v1.68a8.93,8.93,0,0,1,2.63-.36c2.16,0,3.69,1.32,3.69,3.15a2.87,2.87,0,0,1-2.93,2.94,2.08,2.08,0,0,1-2.12-1.43,4.31,4.31,0,0,1-.22-1.65,5.46,5.46,0,0,0,1.43-.57,4.38,4.38,0,0,0,0,.57,2.49,2.49,0,0,0,.18,1.14.89.89,0,0,0,.81.44,1.33,1.33,0,0,0,1.3-1.43c0-1.11-.9-1.83-2.29-1.83a8.26,8.26,0,0,0-2.48.43Zm-1.46-2.08c-1,.52-1.54,1.08-1.54,1.55,0,.22.13.41.43.59a1.55,1.55,0,0,0,.83.28c.22,0,.28-.12.28-.54Zm7.15-2.61a11,11,0,0,0-2.58-2.79l1.21-.81a11,11,0,0,1,2.56,2.65Z"/><path class="cls-14" d="M420.41,156.85a10.3,10.3,0,0,0,1.73.12h.59a15.64,15.64,0,0,0,.25-2,1.78,1.78,0,0,0,0-.23l1.7.16a7.45,7.45,0,0,0-.25,1.24l-.13.74a10.7,10.7,0,0,0,2.21-.39l.06,1.48-.41.06a17.58,17.58,0,0,1-2.12.27c-.14.8-.46,2.17-.8,3.34a43.49,43.49,0,0,1-1.45,4.27l-1.63-.63a27.62,27.62,0,0,0,2.31-6.95h-2.09Zm6.4,5a2.14,2.14,0,0,0-.67,1.42c0,.66.65,1,1.94,1a9.86,9.86,0,0,0,2.93-.48l.12,1.59-.63.09a15,15,0,0,1-2.4.21,5.24,5.24,0,0,1-2.59-.52,1.87,1.87,0,0,1-.92-1.59,3.63,3.63,0,0,1,1-2.23Zm3.83-1.69a13.45,13.45,0,0,0-1.63-.09,13.92,13.92,0,0,0-3.41.38L425.5,159a16.56,16.56,0,0,1,3.85-.41h1.28Z"/><path class="cls-14" d="M437.68,155a3.22,3.22,0,0,0-.1.4c0,.17,0,.23-.08.44s0,.27-.22,1.24c-.05.28-.05.31-.09.48.38,0,.56,0,.8,0a2.5,2.5,0,0,1,1.91.68,3.13,3.13,0,0,1,.61,2.28c0,2.22-.37,4-1,4.7a1.64,1.64,0,0,1-1.43.58,6.27,6.27,0,0,1-2-.37c0-.26,0-.44,0-.57a4.84,4.84,0,0,0-.13-1.1,5.33,5.33,0,0,0,1.88.5c.37,0,.58-.25.77-.88a11.44,11.44,0,0,0,.34-2.94c0-1.19-.3-1.54-1.32-1.54-.26,0-.45,0-.75,0a27.1,27.1,0,0,1-.79,2.8,27.57,27.57,0,0,1-1.55,3.63l-.19.39-.1.22-1.5-.83a14.14,14.14,0,0,0,1.34-2.43,22,22,0,0,0,1.25-3.65,23,23,0,0,0-2.31.41l-.16-1.52c.48,0,2-.16,2.75-.26a19.89,19.89,0,0,0,.34-2.61v-.25Zm4.27,1.65a12.53,12.53,0,0,1,2.66,5l-1.47.75a11.61,11.61,0,0,0-1-2.93,8.36,8.36,0,0,0-1.49-2.21Z"/><path class="cls-14" d="M451.12,162.41c-.74,1.67-1.56,2.43-2.62,2.43-1.47,0-2.53-1.5-2.53-3.58a5.54,5.54,0,0,1,1.42-3.76,5.79,5.79,0,0,1,4.44-1.81c3.1,0,5.11,1.88,5.11,4.79a5,5,0,0,1-3.14,4.82,8.44,8.44,0,0,1-2,.54,4.14,4.14,0,0,0-.79-1.51,6.86,6.86,0,0,0,2.57-.71,3.62,3.62,0,0,0,1.79-3.23,3.2,3.2,0,0,0-1.59-2.87,2.83,2.83,0,0,0-1.3-.39A18.67,18.67,0,0,1,451.12,162.41Zm-1.9-4.62a4.32,4.32,0,0,0-1.75,3.49c0,1.06.45,1.9,1,1.9s.86-.54,1.33-1.65a17,17,0,0,0,1.07-4.36A3.28,3.28,0,0,0,449.22,157.79Z"/><path class="cls-14" d="M459.72,162a7.13,7.13,0,0,0-1.17.06v-1.34a7.08,7.08,0,0,0,1.2.06h1.15v-.31a5,5,0,0,0-.05-.85h1.38a4.65,4.65,0,0,0-.05.85v.31h.63a6.58,6.58,0,0,0,1.15-.06V162a8.21,8.21,0,0,0-1.11-.05h-.39A4.72,4.72,0,0,0,464,163.4a6.23,6.23,0,0,0-.79,1.07,6,6,0,0,1-1.12-1.45,8.28,8.28,0,0,1,.06,1v1.34a8.53,8.53,0,0,0,.06,1.14h-1.41a6.51,6.51,0,0,0,.06-1.08v-1.21c0-.22,0-.62.05-.92a7,7,0,0,1-1.95,2.38,3.61,3.61,0,0,0-.8-1.1,7.47,7.47,0,0,0,2.36-2.58Zm8.49-6.33a11.28,11.28,0,0,0,1.48-.08v1.38a11.83,11.83,0,0,0-1.48-.08H466a9.8,9.8,0,0,0,4.17,1.86,4.74,4.74,0,0,0-.72,1.28,12.22,12.22,0,0,1-2.57-1.11,8.27,8.27,0,0,1-2-1.51,1.65,1.65,0,0,0,0,.21c0,.06,0,.31,0,.4v1.2a4.62,4.62,0,0,0,.07,1h-1.51a5,5,0,0,0,.07-1V158a2.87,2.87,0,0,1,0-.36c0-.18,0-.18,0-.23a10.53,10.53,0,0,1-4.3,2.53,3.9,3.9,0,0,0-.68-1.17,10,10,0,0,0,4-1.91h-2a11.56,11.56,0,0,0-1.48.08v-1.38a11.41,11.41,0,0,0,1.48.08h3v-.06a5.39,5.39,0,0,0-.06-1H465a5,5,0,0,0-.06,1v.08Zm-2.7,6.33a7.85,7.85,0,0,0-1.12.05V160.7a8.29,8.29,0,0,0,1.19.05h.7v-.31a4.76,4.76,0,0,0-.05-.85h1.41a4.42,4.42,0,0,0-.05.84v.32H469a6.73,6.73,0,0,0,1.19-.06V162A7,7,0,0,0,469,162h-1.15l.16.22a7.39,7.39,0,0,0,2.61,2.22,4,4,0,0,0-.85,1.23,6.56,6.56,0,0,1-1.21-1.08,6,6,0,0,1-1-1.45c0,.19,0,.25,0,.48v.21a2.32,2.32,0,0,1,0,.25v1.3a6.25,6.25,0,0,0,.06,1.15H466.2a5.85,5.85,0,0,0,.08-1.17V164a8.27,8.27,0,0,1,.05-.89,7.05,7.05,0,0,1-2.29,2.5,3,3,0,0,0-.79-1.1A8.22,8.22,0,0,0,466,162Z"/><path class="cls-14" d="M322.77,196.62a6.06,6.06,0,0,0-.08-1h1.6a6.28,6.28,0,0,0-.08,1h3.68a10.82,10.82,0,0,0,1.51-.08V198a13,13,0,0,0-1.51-.08h-3.68v.92h3.43a9.37,9.37,0,0,0,1.17-.05,9.87,9.87,0,0,0-.05,1.15v6c0,1.2-.35,1.48-1.85,1.48-.35,0-.75,0-1.23,0a4,4,0,0,0-.34-1.38,12,12,0,0,0,1.42.1c.49,0,.59-.05.59-.32V200.1h-7.56v6a9.52,9.52,0,0,0,.06,1.45h-1.55a11.43,11.43,0,0,0,.08-1.52v-6.08a9.62,9.62,0,0,0-.05-1.15,11.67,11.67,0,0,0,1.27.05h3.15v-.92h-3.52a12.37,12.37,0,0,0-1.5.08v-1.46a11.83,11.83,0,0,0,1.5.08Zm-1.08,5a6.42,6.42,0,0,0-.54-1.07l1.19-.41a7.35,7.35,0,0,1,.68,1.48h.88a7,7,0,0,0,.72-1.47l1.32.27a5.89,5.89,0,0,1-.67,1.2h.45a8,8,0,0,0,1.1-.05v1.27a9.17,9.17,0,0,0-1.12-.05h-1.56v1h1.5a7.3,7.3,0,0,0,1.08-.05v1.25c-.32,0-.57,0-1.1,0h-1.48v.81a10.17,10.17,0,0,0,.08,1.54h-1.47a12.68,12.68,0,0,0,.06-1.54v-.81h-1.21a10.11,10.11,0,0,0-1.17.05v-1.27a9.23,9.23,0,0,0,1.2.05h1.19v-1h-1.5a6.9,6.9,0,0,0-1,.05v-1.27a8.62,8.62,0,0,0,1.14.05Z"/><path class="cls-14" d="M331.22,198.86a10.34,10.34,0,0,1,2.32,1.63l-.83,1.17a8.82,8.82,0,0,0-2.32-1.76Zm2.3,4.4a16.31,16.31,0,0,1-1.3,3.28,4.71,4.71,0,0,1-.28.53l-.17.32-1.24-1.07a3.28,3.28,0,0,0,.58-.81,12,12,0,0,0,1.23-3.08Zm-.53-4.78a8.7,8.7,0,0,0-2.1-1.79l.92-1a12.24,12.24,0,0,1,2.07,1.72v-.68a8.18,8.18,0,0,0,1.41.08h1.78v-.14a5.63,5.63,0,0,0-.06-1h1.54a5.22,5.22,0,0,0-.08,1v.14h2.34a9.93,9.93,0,0,0,1.42-.08v1.38a12.77,12.77,0,0,0-1.41-.06h-3a9.44,9.44,0,0,1-1,1.65c1.28-.05,1.61-.08,2.76-.19-.23-.26-.36-.37-.72-.72l1.06-.63a17.33,17.33,0,0,1,2.39,2.65l-1.19.8a10.7,10.7,0,0,0-.66-1c-1.85.22-2.75.28-5.72.43-.23,0-.55,0-.85.08l-.17-1.39c.19,0,.66,0,1.55,0a8.37,8.37,0,0,0,1-1.69h-1a13.5,13.5,0,0,0-1.38.06v-.63Zm3,3c0,.25,0,.25-.08,1.36a5.54,5.54,0,0,1-.81,3.2,5.28,5.28,0,0,1-1.42,1.45,3.48,3.48,0,0,0-1-1.06c1.51-1,2-1.94,2-4.1a5.7,5.7,0,0,0-.05-.84Zm.81,5.54a8.73,8.73,0,0,0,.08-1.25v-3.15a6.61,6.61,0,0,0-.06-1.08h1.43a8.49,8.49,0,0,0-.05,1.07v3.17a10.65,10.65,0,0,0,.06,1.24Zm3.72-1.28c0,.26.06.31.35.31s.41-.05.45-.18a10.28,10.28,0,0,0,.12-1.82,4.41,4.41,0,0,0,1.19.48c-.09,1.7-.15,2-.41,2.36s-.62.39-1.47.39-1.14-.09-1.36-.32-.19-.31-.19-.76v-3.55a9.16,9.16,0,0,0-.05-1.24h1.43a8.74,8.74,0,0,0-.05,1.19Z"/><path class="cls-14" d="M348.52,197.06a8.18,8.18,0,0,0-.09-1.3h1.69a8.29,8.29,0,0,0-.09,1.3v8.06h3.14v-5.8a8.55,8.55,0,0,0-.08-1.24h1.61a10.3,10.3,0,0,0-.08,1.24v6.53a12.53,12.53,0,0,0,.09,1.59h-1.55v-.92h-7.58v.92h-1.54a13.43,13.43,0,0,0,.08-1.55v-6.53a10,10,0,0,0-.08-1.28h1.6a8.5,8.5,0,0,0-.06,1.26v5.77h2.93Z"/><path class="cls-14" d="M445.66,252.94a8.37,8.37,0,0,0,1.63,2.47,3.6,3.6,0,0,0-.74,1.16,7.84,7.84,0,0,1-1-2c.06,1,.06,1.14.06,1.77v3.32a12.68,12.68,0,0,0,.08,1.58h-1.47a13,13,0,0,0,.08-1.58V257c0-.87.05-1.46.06-1.77a11,11,0,0,1-.68,1.86,10.1,10.1,0,0,1-.71,1.24,6.44,6.44,0,0,0-.71-1.34,10.77,10.77,0,0,0,1.83-4.05h-.67a6.28,6.28,0,0,0-.94.05v-1.42a6.17,6.17,0,0,0,1,.05h.85v-1a8.48,8.48,0,0,0-.06-1.34h1.46a11.27,11.27,0,0,0-.06,1.33v1h.56a5.32,5.32,0,0,0,.83-.05V253c-.27,0-.53,0-.81,0Zm3.67-1.72a7.78,7.78,0,0,0,.54-2.07l1.52.36c-.31.9-.52,1.46-.62,1.7h1.67a10.72,10.72,0,0,0,1.3-.05,11.61,11.61,0,0,0-.05,1.29v7.23a13.11,13.11,0,0,0,.08,1.48h-1.47v-.7h-3.58v.7h-1.46a14.16,14.16,0,0,0,.06-1.52v-7.17a12.57,12.57,0,0,0-.05-1.32,11.85,11.85,0,0,0,1.36.05Zm-.61,3.82h3.58v-2.5h-3.58Zm0,4.08h3.58v-2.81h-3.58Z"/><path class="cls-14" d="M398.48,294.09a9.43,9.43,0,0,0-1.17.05v-1.38a7.1,7.1,0,0,0,1.2.06h.31a5.36,5.36,0,0,0-.57-1.52l1.14-.28h-.61a10,10,0,0,0-1.21.05v-1.38a7.54,7.54,0,0,0,1.24.06h1v-.19a5,5,0,0,0-.06-.94h1.56a4.66,4.66,0,0,0-.06.94v.19h.88a7.2,7.2,0,0,0,1.2-.06v1.38a10.13,10.13,0,0,0-1.21-.05h-.53l1.1.31c-.08.17-.08.17-.19.45a2.51,2.51,0,0,0-.22.48,4.8,4.8,0,0,1-.28.57h.26a7.22,7.22,0,0,0,1.19-.06v1.38a9.79,9.79,0,0,0-1.19-.05h-1V295h1a7.24,7.24,0,0,0,1.18-.06v1.36a9.44,9.44,0,0,0-1.18-.05h-.48a5.65,5.65,0,0,0,1.33,1.14,7.78,7.78,0,0,0-.62,1.23,6.58,6.58,0,0,1-1.26-1.39c0,.17,0,.17,0,.5,0,0,0,.44,0,.5v1.29a6.16,6.16,0,0,0,.08,1.07h-1.48a7.47,7.47,0,0,0,.06-1v-1.29c0-.25,0-.58,0-.88a6.45,6.45,0,0,1-2.13,2.39,4.81,4.81,0,0,0-.66-1.32,6.65,6.65,0,0,0,2.26-2.22h-.84a7.2,7.2,0,0,0-1.17.06v-1.37a7.18,7.18,0,0,0,1.2.06h1.3v-.92Zm1-3.07a5.71,5.71,0,0,1,.56,1.5l-1.15.31h1.77a7.26,7.26,0,0,0,.72-1.81Zm8.62,1.56a6.37,6.37,0,0,0,1.17-.08v1.43a7.48,7.48,0,0,0-1-.05h-.32v5.2a8.8,8.8,0,0,0,.08,1.52h-1.51a9.08,9.08,0,0,0,.08-1.52v-5.2h-1.38a16.84,16.84,0,0,1-.48,4.17,7.86,7.86,0,0,1-1.15,2.59,6,6,0,0,0-1.28-.85c1.23-1.5,1.55-3.19,1.55-8.08a15,15,0,0,0-.08-2,10.59,10.59,0,0,0,4.35-1.1l1.06,1.25-.43.14a17.77,17.77,0,0,1-3.54.88v1.7Z"/><path class="cls-14" d="M413.5,292.35a8.33,8.33,0,0,0,1.59,2.41,3.3,3.3,0,0,0-.62,1.3,8.11,8.11,0,0,1-1.11-2.08c.05.53.08,1.15.08,1.9v3.16a12.65,12.65,0,0,0,.08,1.59H412a10.64,10.64,0,0,0,.09-1.59v-2.62c0-.87,0-1.48.06-1.86a14.3,14.3,0,0,1-.67,1.79,9.13,9.13,0,0,1-.77,1.38,6.06,6.06,0,0,0-.7-1.48,9.58,9.58,0,0,0,1.25-2.12,11.72,11.72,0,0,0,.66-1.79h-.61a6.15,6.15,0,0,0-.93.05V291a4.36,4.36,0,0,0,.94.06h.75v-1a8.11,8.11,0,0,0-.08-1.34h1.47a9,9,0,0,0-.06,1.34v1H414a3.88,3.88,0,0,0,.83-.06v1.36c-.3,0-.53,0-.81,0Zm4.26-2.89a16.15,16.15,0,0,1-2.18,5.07l-.53-.48a7.46,7.46,0,0,0-.62-.49A9.65,9.65,0,0,0,416.3,289Zm1.16,3.63-.3,1a40.92,40.92,0,0,1-1.54,4.38,26.63,26.63,0,0,0,2.76-.41c-.26-.59-.48-1-1.08-2.17l1.21-.61a33.67,33.67,0,0,1,2.08,4.42l-1.36.7c-.18-.57-.23-.71-.39-1.12a44.73,44.73,0,0,1-4.84.79,5.4,5.4,0,0,0-.76.12l-.27-1.54h.31c.22,0,.48,0,.81,0,.4-1,.61-1.55.89-2.44a26.19,26.19,0,0,0,.93-3.43Zm1-4.13a12,12,0,0,0,.87,2.26,7.72,7.72,0,0,0,1.45,2.09,7.39,7.39,0,0,0-1.06,1.19,10.67,10.67,0,0,1-1.59-2.54c-.21-.43-.49-1.14-.63-1.54-.23-.68-.23-.68-.34-1Z"/><path class="cls-14" d="M426,296.21a7.84,7.84,0,0,1-1.78,4.5l-.26-.25a6.08,6.08,0,0,0-1-.81,5.79,5.79,0,0,0,1.11-1.82,13.49,13.49,0,0,0,.57-4.65,13.23,13.23,0,0,0-.06-1.56c.41,0,.75,0,1.36,0h6.69c.54,0,.83,0,1.19,0a9.5,9.5,0,0,0-.05,1.2v2.89a8.33,8.33,0,0,0,.06,1.3h-1.54v-.81Zm8.73-5.64a11.69,11.69,0,0,0-1.5-.06H425a12.44,12.44,0,0,0-1.5.06v-1.42a9.88,9.88,0,0,0,1.5.08h8.2a9.7,9.7,0,0,0,1.5-.08Zm-2.44,4.35v-2h-6.17v.94c0,.19,0,.37,0,.54a2.22,2.22,0,0,1,0,.3.8.8,0,0,1,0,.18Z"/><path class="cls-14" d="M224.1,273.93a6.18,6.18,0,0,0-1.21.08V272.5a5.74,5.74,0,0,0,1.21.08H226v-1.42a11.11,11.11,0,0,0-.08-1.47h1.61a9,9,0,0,0-.08,1.47v8.71a9.53,9.53,0,0,0,.08,1.55H226a12.23,12.23,0,0,0,.08-1.56v-1.37c-.77.44-1.48.77-2.4,1.19l-.57.26-.48-1.54a5.23,5.23,0,0,0,1.1-.34A21.11,21.11,0,0,0,226,277v-3.06Zm6.43,5.44c0,.32.17.39,1,.39s1.19-.08,1.34-.37a7.68,7.68,0,0,0,.23-2.38,7,7,0,0,0,1.37.57c-.08,1.74-.31,2.69-.75,3.07a1.93,1.93,0,0,1-.94.38,10.41,10.41,0,0,1-1.32.05,4.22,4.22,0,0,1-1.87-.21c-.39-.18-.54-.52-.54-1.12v-8.57a10.33,10.33,0,0,0-.08-1.49h1.59a9.44,9.44,0,0,0-.08,1.49v2.56a11.8,11.8,0,0,0,2.89-2.21l1,1.21c-.13.09-.21.16-.41.32-.37.3-1.46,1-2.05,1.42s-.53.32-1.45.83Z"/><path class="cls-14" d="M240.59,271.93c-1.82.21-2.27.25-3.78.31a4,4,0,0,0-.53-1.36,29.54,29.54,0,0,0,7.47-.88,5.36,5.36,0,0,0,1.42-.54l1,1.29c-.43.1-.44.12-.83.22a22.72,22.72,0,0,1-3.2.75v2.7h3.67a9.13,9.13,0,0,0,1.5-.09v1.51a10.17,10.17,0,0,0-1.48-.09h-3.68v4.18a9.58,9.58,0,0,0,.09,1.59h-1.7a10.14,10.14,0,0,0,.09-1.61v-4.16h-3.46a10.24,10.24,0,0,0-1.47.09v-1.51a9.45,9.45,0,0,0,1.47.09h3.46Z"/><path class="cls-14" d="M249.69,276.19c0-.34,0-.59,0-1.47a9.36,9.36,0,0,1-1,1.38,6.92,6.92,0,0,0-.58-1.56,10.51,10.51,0,0,0,2.13-3.41,8.18,8.18,0,0,0,.49-1.68l1.48.37a20.61,20.61,0,0,1-1.15,2.83v7.25a10.71,10.71,0,0,0,.09,1.5H249.6a8.9,8.9,0,0,0,.09-1.51Zm6.61-4.11a12.86,12.86,0,0,0-2.56-1.63l1-1a16,16,0,0,1,2.71,1.6l-1,1h1.95A12.45,12.45,0,0,0,260,272v1.45c-.45,0-.94-.06-1.5-.06h-1.94v2.26h1.6a11.38,11.38,0,0,0,1.43-.08V277c-.41,0-.88-.06-1.42-.06h-1.61v2.71h2.23a13.2,13.2,0,0,0,1.54-.08V281c-.46,0-.9-.06-1.55-.06H253c-.63,0-1.06,0-1.54.06v-1.45a12.43,12.43,0,0,0,1.49.08h2.09v-2.71h-1.37c-.54,0-1,0-1.42.06v-1.42a11,11,0,0,0,1.42.08h1.37v-2.26H253.4c-.54,0-1,0-1.47.06V272a8.8,8.8,0,0,0,1.46.08Z"/><path class="cls-14" d="M139.8,275.89h3.72a16.53,16.53,0,0,0,1.74-.08v1.55a13.9,13.9,0,0,0-1.72-.09h-8.2a15.92,15.92,0,0,0-1.78.09v-1.55a17,17,0,0,0,1.78.08h2.94v-8.34a11.07,11.07,0,0,0-.09-1.48h1.69a10.43,10.43,0,0,0-.09,1.48v2.21h3a13.12,13.12,0,0,0,1.5-.08v1.54a13.47,13.47,0,0,0-1.5-.08h-3Z"/><path class="cls-14" d="M147.88,272c-.43,0-.81,0-1.08,0,0-.4.05-.84.05-1.28v-3.19a9.88,9.88,0,0,0-.05-1.19,12.08,12.08,0,0,0,1.24.05h3.19a9.84,9.84,0,0,0,1.19-.05c0,.33,0,.66,0,1.2v3.3c0,.66,0,.89,0,1.15-.25,0-.59,0-1,0h-1.15v1.06h1.15a7.79,7.79,0,0,0,1.19-.06v1.36a7.58,7.58,0,0,0-1.19-.06h-1.15v1.14c.93-.14,1.32-.21,2.35-.44l0,1.19c-1.87.44-2.87.62-4.57.88a13.56,13.56,0,0,0-1.36.23l-.27-1.5a22.19,22.19,0,0,0,2.6-.19v-1.3h-1.16a10.47,10.47,0,0,0-1.17.06V273a10.35,10.35,0,0,0,1.17.06H149V272Zm.1-4.34v1h1v-1Zm0,2.14v1h1v-1Zm2.23-1.15h1v-1h-1Zm0,2.18h1v-1h-1Zm6.43-1.06-.62.66h.67a6.86,6.86,0,0,0,1.06-.05l.7.85-.3.63a10.82,10.82,0,0,1-1.28,2.22,5.73,5.73,0,0,0-1-.7,7.21,7.21,0,0,0,1.06-1.6h-1.15v4.62c0,1-.4,1.26-1.79,1.26l-1,0a4.46,4.46,0,0,0-.31-1.37,10.43,10.43,0,0,0,1.32.13c.31,0,.41-.08.41-.31v-4.3h-.61a7.2,7.2,0,0,0-1.16.07v-1.49a6.93,6.93,0,0,0,1.16.06h1.61a15,15,0,0,0-2.3-1.52l.74-.92c.65.35.85.46,1.25.72a6.48,6.48,0,0,0,1-1h-2a10.22,10.22,0,0,0-1.16.06v-1.45a8.39,8.39,0,0,0,1.25.06h2.09a6.86,6.86,0,0,0,1.06-.05l.75.85c-.21.25-.3.37-.5.63a11.79,11.79,0,0,1-1.42,1.55Z"/><path d="M368.25,47.42V31.68h29.23V54.16h11.24V85.64H357V47.42Zm0,36v-9H366v9Zm18-9h-6.75v9h6.75Zm13.49,0h-2.25v9h2.25Zm4.5-15.74h-6.75V72.15H402v9h2.25ZM393,36.17H372.75v45H375V69.9h15.74V81.15H393Zm-29.23,45v-9h4.5V51.91H361.5V81.15ZM402,67.66h-2.25v-4.5H402Zm-38.23-4.5H366v4.5h-2.25Zm18,2.25h-4.5v-4.5h4.5Zm6.75,0H384v-4.5h4.5Zm-22.49-9v4.5h-2.25v-4.5Zm15.74,2.25h-4.5v-4.5h4.5Zm6.75,0H384v-4.5h4.5Zm-6.75-6.75h-4.5v-4.5h4.5Zm6.75,0H384v-4.5h4.5Zm-6.75-6.75h-4.5v-4.5h4.5Zm6.75,0H384v-4.5h4.5Z"/><path class="cls-14" d="M162.75,309.69c-.61.1-.74.13-1.39.22a4.78,4.78,0,0,0-.49-1.21,10.54,10.54,0,0,0,4.18-1.06l.81,1.16-.13.05-.45.17a9.92,9.92,0,0,1-1.18.37v1.67h.53a5.66,5.66,0,0,0,1-.06v1.37a8.07,8.07,0,0,0-1.06-.05h-.48a3,3,0,0,0,.4.79,6.47,6.47,0,0,0,1.3,1.51,3.92,3.92,0,0,0-.74,1.11A6.3,6.3,0,0,1,164,314c0,.43.08,1,.08,1.59v2.3a10,10,0,0,0,.08,1.59h-1.51a12.25,12.25,0,0,0,.08-1.59v-2.08a14.09,14.09,0,0,1,.09-1.69,8.24,8.24,0,0,1-.76,1.7,6,6,0,0,1-.75,1.12,5.29,5.29,0,0,0-.8-1.21,8.64,8.64,0,0,0,2-3.43h-.66a8.7,8.7,0,0,0-1.08.06V311a7.33,7.33,0,0,0,1.12.06h.84Zm6.74-2c0,.34-.06,1-.06,2a13.75,13.75,0,0,0,.5,4.65,7.1,7.1,0,0,0,1.46,2.54,7.81,7.81,0,0,0,1.34,1.14,4.37,4.37,0,0,0-1.08,1.29,8.13,8.13,0,0,1-1.47-1.58,8.39,8.39,0,0,1-1.39-3.32,8.11,8.11,0,0,1-1.42,3.36,6.41,6.41,0,0,1-1.77,1.65,5.69,5.69,0,0,0-.94-1.25,5.79,5.79,0,0,0,2.41-2.61,10.23,10.23,0,0,0,.8-2.57,18.34,18.34,0,0,0,.19-3.11,14.57,14.57,0,0,0-.09-2.19Zm-4.13,5.68a7.46,7.46,0,0,0,.72-3.56l1.26.23a10,10,0,0,1-.8,3.94Zm7-3.15a16.46,16.46,0,0,1-1.34,3.64,3.41,3.41,0,0,0-1.1-.71,10.41,10.41,0,0,0,1.11-3.45Z"/><path class="cls-14" d="M180,315.54h3.73a12,12,0,0,0,1.51-.08v1.28a12.28,12.28,0,0,0-1.51-.08h-2.61a9.63,9.63,0,0,0,4.38,1.5,5,5,0,0,0-.71,1.26,14.64,14.64,0,0,1-2.48-.77,7.82,7.82,0,0,1-2.34-1.47v.08a1.09,1.09,0,0,0,0,.15,3,3,0,0,0,0,.31c0,.05,0,.05,0,.3v.48a4.84,4.84,0,0,0,.08,1.1h-1.51a5.85,5.85,0,0,0,.08-1.1V318c0-.19,0-.35,0-.5s0-.15,0-.35a9.8,9.8,0,0,1-4.54,2.26,3.91,3.91,0,0,0-.76-1.19,9.63,9.63,0,0,0,4.21-1.59h-2.45a12.44,12.44,0,0,0-1.51.08v-1.28a11.56,11.56,0,0,0,1.51.08h3.51v-.68h-2.14c-.39,0-.8,0-1.19,0,0-.36,0-.62,0-1.06v-1.91H175a11,11,0,0,0-1.47.06v-1.25a6.7,6.7,0,0,0,1.28.08h.54a4,4,0,0,0-.05-.74h1.34c0-.18,0-.35,0-.57h-1.63c-.62,0-1.08,0-1.5.07v-1.27a11.78,11.78,0,0,0,1.5.08h1.63v-.14a3.41,3.41,0,0,0-.06-.7h1.46a4.63,4.63,0,0,0-.05.7v.14h2.62v-.14a4.75,4.75,0,0,0-.05-.7h1.46a4.19,4.19,0,0,0-.05.7v.14h1.7a11.35,11.35,0,0,0,1.5-.08v1.27c-.43,0-.88-.07-1.5-.07H182a4.07,4.07,0,0,0,0,.59h1.37a3.15,3.15,0,0,0-.06.71h.4a10.52,10.52,0,0,0,1.47-.08V312a10.86,10.86,0,0,0-1.47-.06h-.4v.65a4.69,4.69,0,0,0,.05.84l-1.2,0h-2.5l-1.2,0a6.34,6.34,0,0,0,0-.75v-.74h-1.79v1.9h6.49a8.84,8.84,0,0,0,1.41-.06v1.16a9.81,9.81,0,0,0-1.39-.06H180Zm-3.24-5.34c0,.16,0,.35,0,.62h1.79a4.15,4.15,0,0,0-.05-.71h1.38a5.09,5.09,0,0,0,0,.71h2.23c0-.27,0-.4,0-.62h-1.39a5.94,5.94,0,0,0,0-.68H178a3.54,3.54,0,0,0,0,.68Zm3.06,2.19h2.23v-.46h-2.23Z"/><path class="cls-14" d="M192.28,310.34a7.26,7.26,0,0,0,.36-1h-3.76v1.06a26.3,26.3,0,0,1-.65,6.82,8.77,8.77,0,0,1-1,2.23,7,7,0,0,0-1-1.25c1-1.68,1.25-3.51,1.25-7.85a18.33,18.33,0,0,0-.08-2.32,15.41,15.41,0,0,0,1.65.07h7.33A10.8,10.8,0,0,0,198,308v1.39a10.9,10.9,0,0,0-1.5-.06h-2.4c-.13.36-.22.63-.37,1h2.17a11.38,11.38,0,0,0,1.32-.05,10.83,10.83,0,0,0-.05,1.25v2.54a10.57,10.57,0,0,0,.05,1.25c-.41,0-.81-.05-1.29-.05H194.1v2.84c0,1-.37,1.28-2,1.28l-1.16,0a4.08,4.08,0,0,0-.31-1.38,9.54,9.54,0,0,0,1.52.13c.4,0,.49,0,.49-.25v-2.59h-1.74c-.46,0-.89,0-1.29.05,0-.36,0-.74,0-1.29v-2.47c0-.59,0-.89,0-1.29a12,12,0,0,0,1.29.05Zm-.65,5.76a9.28,9.28,0,0,1-2.25,3.14,6.62,6.62,0,0,0-1-1,6.84,6.84,0,0,0,2-2.71Zm-.63-3.87h4.78v-.75H191Zm0,1.9h4.78v-.79H191Zm5,1.43a8,8,0,0,0,2.36,2.52,6.4,6.4,0,0,0-1,1.11,10.08,10.08,0,0,1-2.5-3Z"/></g></g></svg>