<svg xmlns="http://www.w3.org/2000/svg" viewBox="0 0 639.97 407.6"><defs><style>.cls-1{fill:#1f3452;}.cls-2,.cls-8{fill:#fff;}.cls-3,.cls-4,.cls-5,.cls-6,.cls-7{fill:none;stroke-width:5px;}.cls-3{stroke:#32cccd;}.cls-3,.cls-4,.cls-5,.cls-6,.cls-7,.cls-8{stroke-miterlimit:10;}.cls-4{stroke:#f15922;}.cls-5{stroke:#80c341;}.cls-6{stroke:#00b261;}.cls-7{stroke:#ff0202;}.cls-8{stroke:#595959;stroke-width:4px;}.cls-9{fill:#32cccd;}.cls-10{fill:#f15922;}.cls-11{fill:#00b261;}.cls-12{fill:#80c341;}.cls-13{fill:#ff0202;}.cls-14{fill:#333;}</style></defs><title>map_en</title><g id="レイヤー_2" data-name="レイヤー 2"><g id="header"><rect class="cls-1" x="264.97" width="111" height="30.5" rx="2" ry="2"/><polygon class="cls-1" points="355.45 47.06 329.84 16.44 320.42 27.92 355.45 47.06"/><path class="cls-2" d="M276.37,9.88h2.14v4.58l3.85-4.58H285l-4.38,5,4.56,5.63h-2.79l-3.83-4.94h0v4.94h-2.14Z"/><path class="cls-2" d="M287,13.08a7,7,0,0,1,2.73-.59c2.4,0,3.39,1,3.39,3.31v1c0,.79,0,1.39,0,2s0,1.14.09,1.75h-1.8a9.68,9.68,0,0,1-.09-1.17h0a2.81,2.81,0,0,1-2.43,1.36,2.51,2.51,0,0,1-2.75-2.33,2.31,2.31,0,0,1,1.34-2.24,6.22,6.22,0,0,1,2.64-.46h1.13c0-1.27-.57-1.69-1.77-1.69a4.12,4.12,0,0,0-2.43.85Zm2.4,6.13a1.74,1.74,0,0,0,1.43-.7,2.61,2.61,0,0,0,.43-1.62h-.89c-.92,0-2.27.15-2.27,1.36C288.12,18.93,288.68,19.22,289.42,19.22Z"/><path class="cls-2" d="M300.12,14.32a5,5,0,0,0-1.83-.34c-.55,0-1.21.2-1.21.87,0,1.25,3.55.46,3.55,3.29,0,1.83-1.63,2.56-3.29,2.56a9.17,9.17,0,0,1-2.32-.34l.12-1.68a4.49,4.49,0,0,0,2,.52c.52,0,1.34-.2,1.34-1,0-1.54-3.56-.49-3.56-3.33,0-1.69,1.48-2.44,3.08-2.44a9.45,9.45,0,0,1,2.23.29Z"/><path class="cls-2" d="M302.53,9.09h2v4.65h0a2.92,2.92,0,0,1,2.47-1.25c1.86,0,2.67,1.31,2.67,3.08v5h-2v-4.2c0-1,0-2.26-1.33-2.26-1.48,0-1.8,1.6-1.8,2.61v3.85h-2Z"/><path class="cls-2" d="M312.2,9.28h2v2h-2Zm0,3.39h2v7.86h-2Z"/><path class="cls-2" d="M315.82,12.67H318l1.74,5.81h0l1.59-5.81h2.38l1.71,5.81h0l1.63-5.81h2l-2.41,7.86h-2.41l-1.71-6h0l-1.68,6h-2.33Z"/><path class="cls-2" d="M330.91,13.08a7,7,0,0,1,2.73-.59c2.4,0,3.39,1,3.39,3.31v1c0,.79,0,1.39,0,2s0,1.14.09,1.75h-1.8a9.68,9.68,0,0,1-.09-1.17h0a2.81,2.81,0,0,1-2.43,1.36,2.51,2.51,0,0,1-2.75-2.33,2.31,2.31,0,0,1,1.34-2.24,6.22,6.22,0,0,1,2.64-.46h1.13c0-1.27-.56-1.69-1.77-1.69a4.11,4.11,0,0,0-2.43.85Zm2.4,6.13a1.74,1.74,0,0,0,1.43-.7,2.61,2.61,0,0,0,.43-1.62h-.88c-.92,0-2.27.15-2.27,1.36C332,18.93,332.58,19.22,333.31,19.22Z"/><path class="cls-2" d="M343.94,9.09h2V20.53h-2Z"/><path class="cls-2" d="M348.79,13.08a7,7,0,0,1,2.73-.59c2.39,0,3.39,1,3.39,3.31v1c0,.79,0,1.39,0,2s0,1.14.09,1.75h-1.8a9.3,9.3,0,0,1-.09-1.17h0a2.81,2.81,0,0,1-2.43,1.36,2.51,2.51,0,0,1-2.75-2.33,2.31,2.31,0,0,1,1.34-2.24,6.22,6.22,0,0,1,2.64-.46H353c0-1.27-.56-1.69-1.77-1.69a4.11,4.11,0,0,0-2.43.85Zm2.4,6.13a1.74,1.74,0,0,0,1.43-.7A2.61,2.61,0,0,0,353,16.9h-.88c-.92,0-2.27.15-2.27,1.36C349.89,18.93,350.45,19.22,351.18,19.22Z"/><path class="cls-2" d="M357.22,9.09h2v4.59h0a2.75,2.75,0,0,1,2.35-1.19c2.41,0,3.3,1.92,3.3,4.09s-.89,4.14-3.3,4.14a2.87,2.87,0,0,1-2.41-1.14h0v1h-2Zm3.86,10c1.34,0,1.72-1.46,1.72-2.55s-.37-2.5-1.69-2.5-1.83,1.4-1.83,2.5S359.73,19.13,361.08,19.13Z"/><polyline class="cls-3" points="5.04 68.35 254.94 68.35 475.5 313.56 475.5 406.24"/><polyline class="cls-4" points="5.63 138.16 237.93 138.16 410.39 330.57 410.39 406.82"/><path class="cls-5" d="M213.29,406.83c15.25-46.93-4.69-107.94-45.76-142S61.94,220.28.94,244.92"/><polyline class="cls-6" points="584.02 121.73 381.64 294.78 282.51 294.78 250.83 259"/><line class="cls-7" x1="193.93" y1="292.44" x2="493.69" y2="43.13"/><line class="cls-6" x1="154.04" y1="254.89" x2="238.51" y2="254.89"/><circle class="cls-8" cx="193.93" cy="294.78" r="7.63"/><circle class="cls-8" cx="244.96" cy="254.31" r="7.63"/><circle class="cls-8" cx="155.8" cy="254.31" r="7.63"/><circle class="cls-8" cx="298.93" cy="206.21" r="7.63"/><circle class="cls-8" cx="381.06" cy="295.37" r="7.63"/><circle class="cls-8" cx="425.64" cy="256.65" r="7.63"/><circle class="cls-8" cx="344.69" cy="167.49" r="7.63"/><circle class="cls-8" cx="493.69" cy="43.13" r="7.63"/><circle class="cls-8" cx="412.73" cy="110" r="7.63"/><path class="cls-9" d="M9.39,36.92H6.34V35.24h8.24v1.68H11.53v9H9.39Z"/><path class="cls-9" d="M20.63,35.06c3.34,0,5.22,2.26,5.22,5.48S24,46.07,20.63,46.07s-5.22-2.27-5.22-5.54S17.24,35.06,20.63,35.06Zm0,9.34c2.18,0,3-1.94,3-3.86s-.87-3.8-3-3.8-3,1.92-3,3.8S18.45,44.39,20.63,44.39Z"/><path class="cls-9" d="M27.8,35.24h3.72c1.37,0,3.43.4,3.43,2.73a2.38,2.38,0,0,1-2.12,2.38v0a2.47,2.47,0,0,1,2.44,2.43c0,2.69-2.41,3.08-3.75,3.08H27.8Zm2.14,4.3h.87c.9,0,2-.2,2-1.3s-1.08-1.33-2.06-1.33h-.82Zm0,4.67h1c1,0,2.2-.24,2.2-1.48,0-1.39-1.13-1.6-2.2-1.6h-1Z"/><path class="cls-9" d="M37,35.24h2.14v6.15c0,1.82.58,3,2.21,3s2.21-1.19,2.21-3V35.24h2.14V42c0,2.85-1.62,4-4.35,4S37,44.9,37,42Z"/><path class="cls-9" d="M52.18,35.24h2.3c2.29,0,5-.08,5,2.88a2.44,2.44,0,0,1-2.2,2.47v0c.58,0,.92.63,1.13,1.1l1.71,4.17H57.77l-1.28-3.33c-.3-.79-.58-1.1-1.48-1.1h-.69v4.42H52.18Zm2.14,4.55H55c1.05,0,2.26-.15,2.26-1.48S56.09,36.92,55,36.92h-.7Z"/><path class="cls-9" d="M64.74,35.24h2.41l4.18,10.65H69L68,43.45H63.73l-.93,2.44H60.59Zm1.17,2.14h0l-1.54,4.39h3.11Z"/><path class="cls-9" d="M72.51,35.24h2.14V45.89H72.51Z"/><path class="cls-9" d="M76.94,35.24h2.14v9h4.14v1.68H76.94Z"/><path class="cls-9" d="M83.48,35.24h2.24l2,8.51h0l1.82-8.51h2.9l1.88,8.51h0l2-8.51h2.08L95.66,45.89H92.91L91,37.37h0l-1.89,8.51H86.3Z"/><path class="cls-9" d="M102.87,35.24h2.41l4.18,10.65h-2.37l-.92-2.44h-4.32l-.93,2.44H98.72ZM104,37.37h0l-1.54,4.39h3.11Z"/><path class="cls-9" d="M113.65,41.68l-3.89-6.44h2.5l2.52,4.47,2.56-4.47h2.26l-3.81,6.44v4.21h-2.14Z"/><path class="cls-9" d="M9.39,51.92H6.34V50.24h8.24v1.68H11.53v9H9.39Z"/><path class="cls-9" d="M19.35,52.85A3.94,3.94,0,0,1,23.47,57a3.88,3.88,0,0,1-4.12,4.06A3.88,3.88,0,0,1,15.24,57,3.93,3.93,0,0,1,19.35,52.85Zm0,6.64c1.57,0,2-1.4,2-2.72a2,2,0,1,0-4,0C17.38,58.07,17.79,59.48,19.35,59.48Z"/><path class="cls-9" d="M25.07,49.44h2V54h0a2.75,2.75,0,0,1,2.35-1.19c2.41,0,3.29,1.92,3.29,4.09s-.88,4.14-3.29,4.14a2.88,2.88,0,0,1-2.41-1.14h0v1h-2Zm3.86,10c1.34,0,1.72-1.46,1.72-2.55s-.37-2.5-1.69-2.5-1.83,1.4-1.83,2.5S27.57,59.48,28.93,59.48Z"/><path class="cls-9" d="M41.6,60.89H39.67V59.82h0a3.28,3.28,0,0,1-2.58,1.25c-1.86,0-2.67-1.31-2.67-3.08V53h2v4.2c0,1,0,2.26,1.33,2.26,1.48,0,1.8-1.6,1.8-2.61V53h2Z"/><path class="cls-9" d="M48.05,50.24h2.14v6.15c0,1.82.58,3,2.21,3s2.21-1.19,2.21-3V50.24h2.14V57c0,2.85-1.62,4-4.35,4s-4.35-1.18-4.35-4Z"/><path class="cls-9" d="M59,53h1.82v1.79h0a2.41,2.41,0,0,1,2.15-2,2.25,2.25,0,0,1,.63.06V55a2.08,2.08,0,0,0-.92-.17C61,54.8,61,56.88,61,58v2.88H59Z"/><path class="cls-9" d="M64.89,49.44h2V54h0a2.75,2.75,0,0,1,2.35-1.19c2.41,0,3.3,1.92,3.3,4.09s-.88,4.14-3.3,4.14a2.87,2.87,0,0,1-2.41-1.14h0v1h-2Zm3.86,10c1.34,0,1.72-1.46,1.72-2.55s-.37-2.5-1.69-2.5-1.83,1.4-1.83,2.5S67.39,59.48,68.75,59.48Z"/><path class="cls-9" d="M74.56,53.44a7,7,0,0,1,2.73-.59c2.4,0,3.39,1,3.39,3.31v1c0,.79,0,1.39,0,2s0,1.14.09,1.75H79a9.68,9.68,0,0,1-.09-1.17h0a2.81,2.81,0,0,1-2.43,1.36,2.51,2.51,0,0,1-2.75-2.33A2.31,2.31,0,0,1,75,56.49,6.22,6.22,0,0,1,77.69,56h1.13c0-1.27-.56-1.69-1.77-1.69a4.11,4.11,0,0,0-2.43.85ZM77,59.58a1.74,1.74,0,0,0,1.44-.7,2.61,2.61,0,0,0,.43-1.62h-.89c-.92,0-2.27.15-2.27,1.36C75.66,59.29,76.22,59.58,77,59.58Z"/><path class="cls-9" d="M82.69,53h1.94V54.1h0a2.94,2.94,0,0,1,2.58-1.25c1.86,0,2.67,1.31,2.67,3.08v5h-2v-4.2c0-1,0-2.26-1.33-2.26-1.48,0-1.8,1.6-1.8,2.61v3.85h-2Z"/><path class="cls-9" d="M96.25,50.24h2.7c2.32,0,4.44.67,4.44,3.22s-1.82,3.39-4.1,3.39h-.9v4H96.25Zm2.14,4.93h.75c1.07,0,2-.35,2-1.59s-.93-1.66-2-1.66h-.75Z"/><path class="cls-9" d="M105.08,53.44a7,7,0,0,1,2.73-.59c2.39,0,3.39,1,3.39,3.31v1c0,.79,0,1.39,0,2s0,1.14.09,1.75h-1.8a9.3,9.3,0,0,1-.09-1.17h0A2.81,2.81,0,0,1,107,61.07a2.51,2.51,0,0,1-2.75-2.33,2.31,2.31,0,0,1,1.34-2.24,6.22,6.22,0,0,1,2.64-.46h1.13c0-1.27-.56-1.69-1.77-1.69a4.11,4.11,0,0,0-2.43.85Zm2.4,6.13a1.74,1.74,0,0,0,1.43-.7,2.61,2.61,0,0,0,.43-1.62h-.88c-.92,0-2.27.15-2.27,1.36C106.18,59.29,106.74,59.58,107.47,59.58Z"/><path class="cls-9" d="M113.25,53h1.82v1.79h0a2.41,2.41,0,0,1,2.15-2,2.25,2.25,0,0,1,.63.06V55a2.08,2.08,0,0,0-.92-.17c-1.66,0-1.66,2.08-1.66,3.2v2.88h-2Z"/><path class="cls-9" d="M119.18,49.44h2v6.73h0L123.7,53h2.41l-2.93,3.51,3.3,4.35h-2.59l-2.62-3.81h0v3.81h-2Z"/><path class="cls-9" d="M131.9,49.44h2V60.89h-2Z"/><path class="cls-9" d="M136.14,49.64h2v2h-2Zm0,3.39h2v7.86h-2Z"/><path class="cls-9" d="M140.34,53h1.94V54.1h0a2.94,2.94,0,0,1,2.58-1.25c1.86,0,2.67,1.31,2.67,3.08v5h-2v-4.2c0-1,0-2.26-1.33-2.26-1.48,0-1.8,1.6-1.8,2.61v3.85h-2Z"/><path class="cls-9" d="M156,60.45a5.4,5.4,0,0,1-2.7.63A3.73,3.73,0,0,1,149.15,57c0-2.27,1.21-4.15,3.65-4.15,2.91,0,3.74,2,3.74,4.75h-5.43a2.05,2.05,0,0,0,2.24,2,5.3,5.3,0,0,0,2.61-.79Zm-1.37-4.26c-.06-1-.52-1.85-1.66-1.85a1.78,1.78,0,0,0-1.82,1.85Z"/><path class="cls-10" d="M6.55,130.15a2.79,2.79,0,0,0,1,.18C9,130.34,9,129.22,9,128.46v-7.09H11.1v8.12a2.68,2.68,0,0,1-2.91,2.72,6,6,0,0,1-1.63-.2Z"/><path class="cls-10" d="M13.2,121.36h2.3c2.29,0,5-.08,5,2.88a2.44,2.44,0,0,1-2.2,2.47v0c.58,0,.92.63,1.13,1.1L21.17,132H18.79l-1.28-3.33c-.31-.79-.58-1.1-1.48-1.1h-.69V132H13.2Zm2.14,4.55H16c1.05,0,2.26-.15,2.26-1.48S17.11,123,16,123h-.7Z"/><path class="cls-10" d="M26.94,121.36h3.42l2.53,8.07h0l2.53-8.07h3.42V132h-2v-8.79h0L33.93,132h-2L29,123.23l0,0V132h-2Z"/><path class="cls-10" d="M48.37,132H46.44v-1.07h0a3.28,3.28,0,0,1-2.58,1.25c-1.86,0-2.67-1.31-2.67-3.08v-5h2v4.2c0,1,0,2.26,1.33,2.26,1.48,0,1.8-1.6,1.8-2.61v-3.85h2Z"/><path class="cls-10" d="M55.15,125.8a5,5,0,0,0-1.83-.34c-.55,0-1.21.2-1.21.87,0,1.25,3.56.46,3.56,3.29,0,1.83-1.63,2.56-3.3,2.56a9.17,9.17,0,0,1-2.32-.34l.12-1.68a4.49,4.49,0,0,0,2,.52c.52,0,1.34-.2,1.34-1,0-1.54-3.56-.49-3.56-3.33,0-1.69,1.48-2.44,3.08-2.44a9.44,9.44,0,0,1,2.23.29Z"/><path class="cls-10" d="M57.6,124.57a7,7,0,0,1,2.73-.59c2.4,0,3.39,1,3.39,3.31v1c0,.79,0,1.39,0,2s0,1.14.09,1.75H62a9.68,9.68,0,0,1-.09-1.17h0a2.81,2.81,0,0,1-2.43,1.36,2.51,2.51,0,0,1-2.75-2.33,2.31,2.31,0,0,1,1.34-2.24,6.22,6.22,0,0,1,2.64-.46h1.13c0-1.27-.57-1.69-1.77-1.69a4.12,4.12,0,0,0-2.43.85ZM60,130.7a1.74,1.74,0,0,0,1.43-.7,2.61,2.61,0,0,0,.43-1.62H61c-.92,0-2.27.15-2.27,1.36C58.7,130.41,59.26,130.7,60,130.7Z"/><path class="cls-10" d="M70.4,125.8a5,5,0,0,0-1.83-.34c-.55,0-1.21.2-1.21.87,0,1.25,3.55.46,3.55,3.29,0,1.83-1.63,2.56-3.29,2.56a9.17,9.17,0,0,1-2.32-.34l.12-1.68a4.49,4.49,0,0,0,2,.52c.52,0,1.34-.2,1.34-1,0-1.54-3.56-.49-3.56-3.33,0-1.69,1.48-2.44,3.08-2.44a9.45,9.45,0,0,1,2.23.29Z"/><path class="cls-10" d="M72.5,120.57h2v4.65h0A2.92,2.92,0,0,1,77,124c1.86,0,2.67,1.31,2.67,3.08v5h-2v-4.2c0-1,0-2.26-1.33-2.26-1.48,0-1.8,1.6-1.8,2.61V132h-2Z"/><path class="cls-10" d="M81.86,120.77h2v2h-2Zm0,3.39h2V132h-2Z"/><path class="cls-10" d="M86.06,124.16H88v1.07h0A2.93,2.93,0,0,1,90.6,124c1.86,0,2.67,1.31,2.67,3.08v5h-2v-4.2c0-1,0-2.26-1.33-2.26-1.48,0-1.8,1.6-1.8,2.61V132h-2Z"/><path class="cls-10" d="M99,124a3.94,3.94,0,0,1,4.12,4.17,4.11,4.11,0,0,1-8.22,0A3.93,3.93,0,0,1,99,124Zm0,6.64c1.57,0,2-1.4,2-2.72a2,2,0,1,0-4,0C97,129.19,97.42,130.61,99,130.61Z"/><path class="cls-10" d="M109.12,121.36h2.14v9h4.13V132h-6.27Z"/><path class="cls-10" d="M116.61,120.77h2v2h-2Zm0,3.39h2V132h-2Z"/><path class="cls-10" d="M120.8,124.16h1.94v1.07h0a2.93,2.93,0,0,1,2.58-1.25c1.86,0,2.67,1.31,2.67,3.08v5h-2v-4.2c0-1,0-2.26-1.33-2.26-1.48,0-1.8,1.6-1.8,2.61V132h-2Z"/><path class="cls-10" d="M136.42,131.57a5.4,5.4,0,0,1-2.7.63,3.73,3.73,0,0,1-4.1-4.07c0-2.27,1.21-4.15,3.65-4.15,2.92,0,3.74,2,3.74,4.75h-5.43a2.05,2.05,0,0,0,2.24,2,5.31,5.31,0,0,0,2.61-.79ZM135,127.31c-.06-1-.52-1.85-1.66-1.85a1.78,1.78,0,0,0-1.82,1.85Z"/><path class="cls-11" d="M520.77,194.37a2.79,2.79,0,0,0,1,.18c1.39,0,1.39-1.11,1.39-1.88v-7.09h2.14v8.12a2.68,2.68,0,0,1-2.92,2.72,6,6,0,0,1-1.63-.2Z"/><path class="cls-11" d="M527.41,185.58h2.3c2.29,0,5-.08,5,2.88a2.44,2.44,0,0,1-2.2,2.47v0c.58,0,.92.63,1.13,1.1l1.71,4.17H533l-1.28-3.33c-.3-.79-.58-1.1-1.48-1.1h-.69v4.42h-2.14Zm2.14,4.55h.7c1.05,0,2.26-.15,2.26-1.48s-1.19-1.39-2.26-1.39h-.7Z"/><path class="cls-11" d="M520.77,210.8a2.79,2.79,0,0,0,1,.18c1.39,0,1.39-1.11,1.39-1.88V202h2.14v8.12a2.68,2.68,0,0,1-2.92,2.72,6,6,0,0,1-1.63-.2Z"/><path class="cls-11" d="M531,204.62a3.94,3.94,0,0,1,4.12,4.17,4.11,4.11,0,0,1-8.22,0A3.93,3.93,0,0,1,531,204.62Zm0,6.64c1.57,0,2-1.4,2-2.72a2,2,0,1,0-4,0C529,209.83,529.46,211.25,531,211.25Z"/><path class="cls-11" d="M536.73,201.21h2v4.59h0a2.75,2.75,0,0,1,2.35-1.19c2.41,0,3.3,1.92,3.3,4.09s-.89,4.13-3.3,4.13a2.87,2.87,0,0,1-2.41-1.14h0v1h-2Zm3.86,10c1.34,0,1.72-1.46,1.72-2.55s-.37-2.5-1.69-2.5-1.83,1.4-1.83,2.5S539.24,211.25,540.59,211.25Z"/><path class="cls-11" d="M546.4,205.21a7,7,0,0,1,2.73-.59c2.39,0,3.39,1,3.39,3.31v1c0,.79,0,1.39,0,2s0,1.14.09,1.75h-1.8a9.3,9.3,0,0,1-.09-1.17h0a2.81,2.81,0,0,1-2.43,1.36,2.51,2.51,0,0,1-2.75-2.33,2.31,2.31,0,0,1,1.34-2.24,6.22,6.22,0,0,1,2.64-.46h1.13c0-1.27-.56-1.69-1.77-1.69a4.11,4.11,0,0,0-2.43.85Zm2.4,6.13a1.73,1.73,0,0,0,1.43-.7,2.6,2.6,0,0,0,.43-1.62h-.88c-.92,0-2.27.15-2.27,1.36C547.5,211.06,548.07,211.35,548.8,211.35Z"/><path class="cls-11" d="M554.53,204.8h1.94v1.07h0a2.93,2.93,0,0,1,2.58-1.25c1.86,0,2.67,1.31,2.67,3.08v5h-2v-4.2c0-1,0-2.26-1.33-2.26-1.48,0-1.8,1.6-1.8,2.61v3.84h-2Z"/><path class="cls-11" d="M568.27,202h2.14v9h4.13v1.68h-6.27Z"/><path class="cls-11" d="M575.76,201.41h2v2h-2Zm0,3.39h2v7.86h-2Z"/><path class="cls-11" d="M580,204.8h1.94v1.07h0a2.93,2.93,0,0,1,2.58-1.25c1.86,0,2.67,1.31,2.67,3.08v5h-2v-4.2c0-1,0-2.26-1.33-2.26-1.48,0-1.8,1.6-1.8,2.61v3.84h-2Z"/><path class="cls-11" d="M595.58,212.22a5.4,5.4,0,0,1-2.7.63,3.73,3.73,0,0,1-4.1-4.07c0-2.27,1.21-4.15,3.65-4.15,2.92,0,3.74,2,3.74,4.75h-5.43a2.05,2.05,0,0,0,2.24,2,5.31,5.31,0,0,0,2.61-.79ZM594.2,208c-.06-1-.52-1.85-1.66-1.85a1.78,1.78,0,0,0-1.82,1.85Z"/><path class="cls-12" d="M225.77,334.25a2.79,2.79,0,0,0,1,.18c1.39,0,1.39-1.11,1.39-1.88v-7.09h2.14v8.12a2.68,2.68,0,0,1-2.92,2.72,6,6,0,0,1-1.63-.2Z"/><path class="cls-12" d="M232.42,325.46h2.3c2.29,0,5-.08,5,2.88a2.44,2.44,0,0,1-2.2,2.47v0c.58,0,.92.63,1.13,1.1l1.71,4.17H238l-1.28-3.33c-.3-.79-.58-1.1-1.48-1.1h-.69v4.42h-2.14Zm2.14,4.55h.7c1.05,0,2.26-.15,2.26-1.48s-1.19-1.39-2.26-1.39h-.7Z"/><path class="cls-12" d="M229.49,348.33l-3.89-6.44h2.5l2.52,4.47,2.56-4.47h2.26l-3.81,6.44v4.21h-2.14Z"/><path class="cls-12" d="M237,345.09a7,7,0,0,1,2.73-.59c2.4,0,3.39,1,3.39,3.31v1c0,.79,0,1.39,0,2s0,1.14.09,1.75h-1.8a9.68,9.68,0,0,1-.09-1.17h0a2.81,2.81,0,0,1-2.43,1.36,2.51,2.51,0,0,1-2.75-2.33,2.31,2.31,0,0,1,1.34-2.24,6.22,6.22,0,0,1,2.64-.46h1.13c0-1.27-.56-1.69-1.77-1.69a4.11,4.11,0,0,0-2.43.85Zm2.39,6.13a1.74,1.74,0,0,0,1.44-.7,2.61,2.61,0,0,0,.43-1.62h-.89c-.92,0-2.27.15-2.27,1.36C238.11,350.94,238.67,351.23,239.4,351.23Z"/><path class="cls-12" d="M245.11,344.68H247v1.1h0a2.77,2.77,0,0,1,2.33-1.28,2.29,2.29,0,0,1,2.32,1.39,2.7,2.7,0,0,1,2.46-1.39c1.94,0,2.49,1.33,2.49,3.08v5h-2v-4.68c0-.73,0-1.77-1.17-1.77-1.36,0-1.53,1.62-1.53,2.64v3.81h-2v-4.68c0-.73,0-1.77-1.18-1.77-1.36,0-1.53,1.62-1.53,2.64v3.81h-2Z"/><path class="cls-12" d="M259,345.09a7,7,0,0,1,2.73-.59c2.4,0,3.39,1,3.39,3.31v1c0,.79,0,1.39,0,2s0,1.14.09,1.75h-1.8a9.68,9.68,0,0,1-.09-1.17h0a2.81,2.81,0,0,1-2.43,1.36,2.51,2.51,0,0,1-2.75-2.33,2.31,2.31,0,0,1,1.34-2.24,6.22,6.22,0,0,1,2.64-.46h1.13c0-1.27-.56-1.69-1.77-1.69a4.11,4.11,0,0,0-2.43.85Zm2.4,6.13a1.73,1.73,0,0,0,1.43-.7,2.61,2.61,0,0,0,.43-1.62h-.88c-.92,0-2.27.15-2.27,1.36C260.15,350.94,260.71,351.23,261.44,351.23Z"/><path class="cls-12" d="M267.18,344.68h1.94v1.07h0a2.93,2.93,0,0,1,2.58-1.25c1.86,0,2.67,1.31,2.67,3.08v5h-2v-4.2c0-1,0-2.26-1.33-2.26-1.48,0-1.8,1.6-1.8,2.61v3.84h-2Z"/><path class="cls-12" d="M280.1,344.5a3.94,3.94,0,0,1,4.12,4.17,4.11,4.11,0,0,1-8.22,0A3.93,3.93,0,0,1,280.1,344.5Zm0,6.64c1.57,0,2-1.4,2-2.72a2,2,0,1,0-4,0C278.13,349.72,278.54,351.14,280.1,351.14Z"/><path class="cls-12" d="M286.49,346.18H285v-1.5h1.51v-1.57l2-.66v2.23h1.82v1.5h-1.82v3.66c0,.67.18,1.3,1,1.3a1.83,1.83,0,0,0,.93-.21l.06,1.62a5.39,5.39,0,0,1-1.51.18,2.31,2.31,0,0,1-2.49-2.55Z"/><path class="cls-12" d="M298,352.1a5.4,5.4,0,0,1-2.7.63,3.73,3.73,0,0,1-4.1-4.07c0-2.27,1.21-4.15,3.65-4.15,2.91,0,3.74,2,3.74,4.75H293.2a2.05,2.05,0,0,0,2.24,2,5.3,5.3,0,0,0,2.61-.79Zm-1.37-4.26c-.06-1-.52-1.85-1.66-1.85a1.78,1.78,0,0,0-1.82,1.85Z"/><path class="cls-12" d="M304.65,341.89h2.14v9h4.14v1.68h-6.27Z"/><path class="cls-12" d="M312.14,341.29h2v2h-2Zm0,3.39h2v7.86h-2Z"/><path class="cls-12" d="M316.33,344.68h1.94v1.07h0a2.93,2.93,0,0,1,2.58-1.25c1.86,0,2.67,1.31,2.67,3.08v5h-2v-4.2c0-1,0-2.26-1.33-2.26-1.48,0-1.8,1.6-1.8,2.61v3.84h-2Z"/><path class="cls-12" d="M332,352.1a5.4,5.4,0,0,1-2.7.63,3.73,3.73,0,0,1-4.1-4.07c0-2.27,1.21-4.15,3.65-4.15,2.91,0,3.74,2,3.74,4.75H327.1a2.05,2.05,0,0,0,2.24,2,5.3,5.3,0,0,0,2.61-.79Zm-1.37-4.26c-.06-1-.52-1.85-1.66-1.85a1.78,1.78,0,0,0-1.82,1.85Z"/><path class="cls-13" d="M473.15,72.29H470.1V70.61h8.24v1.68h-3.05v9h-2.14Z"/><path class="cls-13" d="M484.81,72.56a5.52,5.52,0,0,0-2.17-.46A1.48,1.48,0,0,0,481,73.58c0,1.85,4.67,1.07,4.67,4.64,0,2.33-1.85,3.22-4,3.22A9.4,9.4,0,0,1,478.9,81l.2-1.92a5.15,5.15,0,0,0,2.41.66c.81,0,1.89-.41,1.89-1.37,0-2-4.67-1.19-4.67-4.71,0-2.38,1.85-3.25,3.72-3.25a8,8,0,0,1,2.55.38Z"/><path class="cls-13" d="M486.88,70.61H489v6.15c0,1.82.58,3,2.21,3s2.21-1.19,2.21-3V70.61h2.14v6.8c0,2.85-1.62,4-4.35,4s-4.35-1.18-4.35-4Z"/><path class="cls-13" d="M497.36,70.61h2.14v4.58l3.85-4.58H506l-4.38,5,4.56,5.63h-2.79l-3.83-4.94h0v4.94h-2.14Z"/><path class="cls-13" d="M506.84,70.61H509v6.15c0,1.82.58,3,2.21,3s2.21-1.19,2.21-3V70.61h2.14v6.8c0,2.85-1.62,4-4.35,4s-4.35-1.18-4.35-4Z"/><path class="cls-13" d="M517.32,70.61H521c1.37,0,3.43.4,3.43,2.73a2.38,2.38,0,0,1-2.12,2.38v0a2.47,2.47,0,0,1,2.44,2.43c0,2.69-2.41,3.08-3.75,3.08h-3.72Zm2.14,4.3h.87c.9,0,2-.2,2-1.3s-1.08-1.33-2.06-1.33h-.82Zm0,4.67h1c1,0,2.2-.24,2.2-1.48,0-1.39-1.13-1.6-2.2-1.6h-1Z"/><path class="cls-13" d="M529.08,70.61h2.41l4.18,10.65h-2.36l-.92-2.44h-4.32l-.93,2.44h-2.21Zm1.18,2.14h0l-1.54,4.39h3.11Z"/><path class="cls-13" d="M540.06,70.61h6.29v1.68H542.2v2.63H546v1.68h-3.8v3h4.18v1.68h-6.32Z"/><path class="cls-13" d="M550.34,75.72l-3.17-5.11h2.47l2.23,3.8,2.27-3.8h2.29l-3.21,5.11,3.49,5.54H554.2l-2.46-4.15-2.49,4.15h-2.41Z"/><path class="cls-13" d="M557.31,70.61H560c2.32,0,4.44.67,4.44,3.22s-1.82,3.39-4.1,3.39h-.9v4h-2.14Zm2.14,4.93h.75c1.07,0,2-.35,2-1.59s-.93-1.66-2-1.66h-.75Z"/><path class="cls-13" d="M565.18,70.61h2.3c2.29,0,5-.08,5,2.88a2.44,2.44,0,0,1-2.2,2.47v0c.58,0,.92.63,1.13,1.1l1.71,4.17h-2.38l-1.28-3.33c-.3-.79-.58-1.1-1.48-1.1h-.69v4.42h-2.14Zm2.14,4.55h.7c1.05,0,2.26-.15,2.26-1.48s-1.19-1.39-2.26-1.39h-.7Z"/><path class="cls-13" d="M574.07,70.61h6.29v1.68h-4.15v2.63H580v1.68h-3.8v3h4.18v1.68h-6.32Z"/><path class="cls-13" d="M587.67,72.56a5.52,5.52,0,0,0-2.17-.46,1.48,1.48,0,0,0-1.68,1.48c0,1.85,4.67,1.07,4.67,4.64,0,2.33-1.85,3.22-4,3.22a9.41,9.41,0,0,1-2.73-.41l.2-1.92a5.14,5.14,0,0,0,2.41.66c.81,0,1.89-.41,1.89-1.37,0-2-4.67-1.19-4.67-4.71,0-2.38,1.85-3.25,3.72-3.25a8,8,0,0,1,2.55.38Z"/><path class="cls-13" d="M595.54,72.56a5.51,5.51,0,0,0-2.17-.46,1.48,1.48,0,0,0-1.68,1.48c0,1.85,4.67,1.07,4.67,4.64,0,2.33-1.85,3.22-4,3.22a9.4,9.4,0,0,1-2.73-.41l.2-1.92a5.14,5.14,0,0,0,2.41.66c.81,0,1.89-.41,1.89-1.37,0-2-4.67-1.19-4.67-4.71,0-2.38,1.85-3.25,3.72-3.25a8,8,0,0,1,2.55.38Z"/><path class="cls-14" d="M516.49,42.19a10.64,10.64,0,0,0,.1,1.68h-1.95a10.87,10.87,0,0,0,.1-1.68v-7H513a12.84,12.84,0,0,0-1.77.09V33.5a13,13,0,0,0,1.76.09h5.11a13.75,13.75,0,0,0,1.9-.09v1.73a13.63,13.63,0,0,0-1.9-.09h-1.61Z"/><path class="cls-14" d="M522.63,40.67a1.85,1.85,0,0,0,.36,1.14,2.29,2.29,0,0,0,1.88.76c1.29,0,2.06-.58,2.06-1.55a1.31,1.31,0,0,0-.64-1.19,8.16,8.16,0,0,0-2.25-.63,4.55,4.55,0,0,1-1.95-.79,2.54,2.54,0,0,1-1-2.09c0-1.79,1.45-3,3.67-3a3.8,3.8,0,0,1,3.21,1.3,3.47,3.47,0,0,1,.63,1.5l-1.85.22a1.67,1.67,0,0,0-.39-.92,2,2,0,0,0-1.61-.62c-1.12,0-1.88.57-1.88,1.41a1.23,1.23,0,0,0,.88,1.17,11,11,0,0,0,1.82.46,5.68,5.68,0,0,1,2.1.79,2.55,2.55,0,0,1,1.07,2.22,3,3,0,0,1-.81,2.2,4.28,4.28,0,0,1-3.09,1,5.19,5.19,0,0,1-2.71-.67A3,3,0,0,1,521,41.93a4.4,4.4,0,0,1-.25-1.07Z"/><path class="cls-14" d="M539.22,33.59a10.49,10.49,0,0,0-.1,1.76v4.58c0,2.67-1.59,4.17-4.4,4.17a4.45,4.45,0,0,1-3.33-1.21,4.15,4.15,0,0,1-1-3V35.36a10.64,10.64,0,0,0-.1-1.77h1.92a10.18,10.18,0,0,0-.1,1.77v4.56a2.63,2.63,0,1,0,5.27,0V35.36a10.56,10.56,0,0,0-.1-1.77Z"/><path class="cls-14" d="M548.72,42.23A17.54,17.54,0,0,0,550,43.87h-2.39a12,12,0,0,0-.81-1.36l-2.57-3.62-1.41,1.41v1.9a8.72,8.72,0,0,0,.12,1.67H541a11.13,11.13,0,0,0,.1-1.67V35.26a10.7,10.7,0,0,0-.1-1.67h1.91a9.18,9.18,0,0,0-.12,1.67v3l3.29-3.42a6.31,6.31,0,0,0,1-1.25h2.44c-.37.38-.8.79-1.37,1.37l-2.76,2.83Z"/><path class="cls-14" d="M560,33.59a10.49,10.49,0,0,0-.1,1.76v4.58c0,2.67-1.59,4.17-4.4,4.17a4.45,4.45,0,0,1-3.33-1.21,4.16,4.16,0,0,1-1-3V35.36a10.53,10.53,0,0,0-.1-1.77H553a10.06,10.06,0,0,0-.1,1.77v4.56a2.63,2.63,0,1,0,5.27,0V35.36a10.56,10.56,0,0,0-.1-1.77Z"/><path class="cls-14" d="M563.45,43.87c-.75,0-1.12,0-1.65,0a9.26,9.26,0,0,0,.12-1.74v-7a12.33,12.33,0,0,0-.1-1.59c.54,0,.75,0,1.63,0h3c2,0,3.12.9,3.12,2.52a2.31,2.31,0,0,1-.72,1.82,2.17,2.17,0,0,1-1,.54,2.38,2.38,0,0,1,1.3.59,2.55,2.55,0,0,1,.8,2c0,1.81-1.2,2.83-3.34,2.83Zm2.85-6.07a1.37,1.37,0,0,0,1.56-1.41,1.31,1.31,0,0,0-.34-1,1.83,1.83,0,0,0-1.24-.4h-2.67V37.8Zm-2.68,4.61h2.78c1.15,0,1.79-.57,1.79-1.61a1.4,1.4,0,0,0-.41-1.12,2.11,2.11,0,0,0-1.41-.44h-2.75Z"/><path class="cls-14" d="M578.78,43.87a8.55,8.55,0,0,0-.36-1.36l-.52-1.41h-4.13l-.52,1.41a6.43,6.43,0,0,0-.39,1.36h-2.12a14.19,14.19,0,0,0,.68-1.52l2.84-7.45a7.65,7.65,0,0,0,.41-1.3h2.25a8.56,8.56,0,0,0,.44,1.3l2.87,7.45a13.7,13.7,0,0,0,.66,1.52Zm-2.72-8.07c-.05-.14-.09-.3-.23-.72l-.25.72-1.34,3.82h3.2Z"/><path class="cls-14" d="M367.52,161.41h2.22l3.43,6.74h0v-6.74h1.73v9h-2.21l-3.45-6.74h0v6.74h-1.73Z"/><path class="cls-14" d="M377.07,164.12a6,6,0,0,1,2.31-.5c2,0,2.87.84,2.87,2.8v.85c0,.67,0,1.17,0,1.67s0,1,.08,1.48h-1.52a8.29,8.29,0,0,1-.08-1h0a2.37,2.37,0,0,1-2.05,1.15,2.12,2.12,0,0,1-2.32-2,2,2,0,0,1,1.14-1.9,5.27,5.27,0,0,1,2.23-.39h1c0-1.07-.48-1.43-1.5-1.43a3.48,3.48,0,0,0-2.05.72Zm2,5.19a1.47,1.47,0,0,0,1.21-.59,2.2,2.2,0,0,0,.36-1.37h-.75c-.77,0-1.92.13-1.92,1.15C378,169.07,378.48,169.31,379.1,169.31Z"/><path class="cls-14" d="M390.05,163.77v6c0,1.81-.72,3.51-3.51,3.51a5.85,5.85,0,0,1-2.3-.45l.14-1.47a5,5,0,0,0,1.94.58c1.91,0,2-1.43,2-2.58h0a2.38,2.38,0,0,1-2.07,1.06c-2,0-2.71-1.58-2.71-3.36,0-1.6.83-3.45,2.81-3.45a2.2,2.2,0,0,1,2,1.06h0v-.9ZM388.32,167c0-1.14-.44-2.07-1.45-2.07-1.17,0-1.55,1.08-1.55,2.1s.48,2,1.47,2S388.32,168.14,388.32,167Z"/><path class="cls-14" d="M392.13,164.12a6,6,0,0,1,2.31-.5c2,0,2.87.84,2.87,2.8v.85c0,.67,0,1.17,0,1.67s0,1,.08,1.48h-1.52a8.29,8.29,0,0,1-.08-1h0a2.37,2.37,0,0,1-2.05,1.15,2.12,2.12,0,0,1-2.32-2,2,2,0,0,1,1.14-1.9,5.27,5.27,0,0,1,2.23-.39h1c0-1.07-.48-1.43-1.5-1.43a3.48,3.48,0,0,0-2.05.72Zm2,5.19a1.47,1.47,0,0,0,1.21-.59,2.2,2.2,0,0,0,.36-1.37H395c-.77,0-1.92.13-1.92,1.15C393.06,169.07,393.54,169.31,394.16,169.31Z"/><path class="cls-14" d="M399,163.77h1.54v1.51h0a2,2,0,0,1,1.82-1.67,1.89,1.89,0,0,1,.53.05v1.74a1.77,1.77,0,0,0-.78-.14c-1.41,0-1.41,1.75-1.41,2.71v2.44H399Z"/><path class="cls-14" d="M409.36,170a4.57,4.57,0,0,1-2.29.53,3.16,3.16,0,0,1-3.47-3.45c0-1.92,1-3.51,3.08-3.51,2.47,0,3.16,1.69,3.16,4h-4.6a1.74,1.74,0,0,0,1.9,1.68,4.48,4.48,0,0,0,2.21-.67Zm-1.16-3.6c-.05-.84-.44-1.56-1.41-1.56a1.51,1.51,0,0,0-1.54,1.56Z"/><path class="cls-14" d="M414,168.63h0l1.6-4.85h1.75l-2.49,6.6c-.56,1.47-1,2.92-2.76,2.92a4.44,4.44,0,0,1-1.23-.18l.12-1.28a2.55,2.55,0,0,0,.89.12,1.08,1.08,0,0,0,1.12-1.19l-2.54-7h1.91Z"/><path class="cls-14" d="M418.68,164.12a6,6,0,0,1,2.31-.5c2,0,2.87.84,2.87,2.8v.85c0,.67,0,1.17,0,1.67s0,1,.08,1.48h-1.52a7.7,7.7,0,0,1-.08-1h0a2.37,2.37,0,0,1-2.05,1.15,2.12,2.12,0,0,1-2.32-2,2,2,0,0,1,1.14-1.9,5.28,5.28,0,0,1,2.23-.39h1c0-1.07-.48-1.43-1.5-1.43a3.48,3.48,0,0,0-2.05.72Zm2,5.19a1.47,1.47,0,0,0,1.21-.59,2.2,2.2,0,0,0,.36-1.37h-.75c-.78,0-1.92.13-1.92,1.15C419.61,169.07,420.08,169.31,420.7,169.31Z"/><path class="cls-14" d="M425.53,163.77h1.61v.93h0a2.34,2.34,0,0,1,2-1.08,1.94,1.94,0,0,1,2,1.17,2.28,2.28,0,0,1,2.08-1.17c1.64,0,2.1,1.12,2.1,2.61v4.2h-1.73v-4c0-.62,0-1.5-1-1.5-1.15,0-1.29,1.37-1.29,2.23v3.23h-1.73v-4c0-.62,0-1.5-1-1.5-1.15,0-1.29,1.37-1.29,2.23v3.23h-1.73Z"/><path class="cls-14" d="M437.32,164.12a6,6,0,0,1,2.31-.5c2,0,2.87.84,2.87,2.8v.85c0,.67,0,1.17,0,1.67s0,1,.08,1.48h-1.52a8.06,8.06,0,0,1-.08-1h0a2.37,2.37,0,0,1-2.05,1.15,2.12,2.12,0,0,1-2.32-2,2,2,0,0,1,1.13-1.9,5.28,5.28,0,0,1,2.23-.39h1c0-1.07-.48-1.43-1.5-1.43a3.49,3.49,0,0,0-2.05.72Zm2,5.19a1.47,1.47,0,0,0,1.21-.59,2.21,2.21,0,0,0,.36-1.37h-.75c-.77,0-1.92.13-1.92,1.15C438.25,169.07,438.73,169.31,439.35,169.31Z"/><path class="cls-14" d="M451.92,161.26c2.83,0,4.42,1.91,4.42,4.63s-1.56,4.69-4.42,4.69-4.42-1.92-4.42-4.69S449.06,161.26,451.92,161.26Zm0,7.9c1.85,0,2.53-1.64,2.53-3.27s-.74-3.21-2.53-3.21-2.53,1.63-2.53,3.21S450.08,169.16,451.92,169.16Z"/><path class="cls-14" d="M458.4,165h-1.28v-1.27h1.28v-1.33l1.73-.56v1.88h1.54V165h-1.54v3.1c0,.57.15,1.1.81,1.1a1.54,1.54,0,0,0,.79-.18l.05,1.37a4.54,4.54,0,0,1-1.28.16,2,2,0,0,1-2.1-2.16Z"/><path class="cls-14" d="M463.15,164.12a6,6,0,0,1,2.31-.5c2,0,2.87.84,2.87,2.8v.85c0,.67,0,1.17,0,1.67s0,1,.08,1.48H466.9a8.29,8.29,0,0,1-.08-1h0a2.37,2.37,0,0,1-2.05,1.15,2.12,2.12,0,0,1-2.32-2,2,2,0,0,1,1.14-1.9,5.27,5.27,0,0,1,2.23-.39h1c0-1.07-.48-1.43-1.5-1.43a3.48,3.48,0,0,0-2.05.72Zm2,5.19a1.47,1.47,0,0,0,1.21-.59,2.2,2.2,0,0,0,.36-1.37H466c-.77,0-1.92.13-1.92,1.15C464.08,169.07,464.56,169.31,465.17,169.31Z"/><path class="cls-14" d="M470.07,160.74h1.73v5.69h0l2.07-2.66h2l-2.48,3,2.79,3.68H474l-2.22-3.23h0v3.23h-1.73Z"/><path class="cls-14" d="M477.5,164.12a6,6,0,0,1,2.31-.5c2,0,2.87.84,2.87,2.8v.85c0,.67,0,1.17,0,1.67s0,1,.08,1.48h-1.52a7.7,7.7,0,0,1-.08-1h0a2.37,2.37,0,0,1-2.05,1.15,2.12,2.12,0,0,1-2.32-2,2,2,0,0,1,1.14-1.9,5.28,5.28,0,0,1,2.23-.39h1c0-1.07-.48-1.43-1.5-1.43a3.48,3.48,0,0,0-2.05.72Zm2,5.19a1.47,1.47,0,0,0,1.21-.59,2.2,2.2,0,0,0,.36-1.37h-.75c-.78,0-1.92.13-1.92,1.15C478.43,169.07,478.91,169.31,479.53,169.31Z"/><path class="cls-14" d="M484.38,163.77H486v.9h0a2.48,2.48,0,0,1,2.18-1.06c1.58,0,2.26,1.11,2.26,2.61v4.2h-1.73v-3.55c0-.81,0-1.91-1.12-1.91s-1.52,1.36-1.52,2.21v3.25h-1.73Z"/><path class="cls-14" d="M495.31,163.62a3.33,3.33,0,0,1,3.49,3.52,3.48,3.48,0,0,1-7,0A3.33,3.33,0,0,1,495.31,163.62Zm0,5.62c1.33,0,1.68-1.19,1.68-2.3a1.7,1.7,0,1,0-3.34,0C493.64,168,494,169.23,495.31,169.23Z"/><path class="cls-14" d="M500.12,163.77h1.61v.93h0a2.34,2.34,0,0,1,2-1.08,1.94,1.94,0,0,1,2,1.17,2.28,2.28,0,0,1,2.08-1.17c1.64,0,2.1,1.12,2.1,2.61v4.2h-1.73v-4c0-.62,0-1.5-1-1.5-1.15,0-1.29,1.37-1.29,2.23v3.23h-1.73v-4c0-.62,0-1.5-1-1.5-1.15,0-1.29,1.37-1.29,2.23v3.23h-1.73Z"/><path class="cls-14" d="M514.67,163.62a3.33,3.33,0,0,1,3.49,3.52,3.48,3.48,0,0,1-7,0A3.33,3.33,0,0,1,514.67,163.62Zm0,5.62c1.33,0,1.68-1.19,1.68-2.3a1.69,1.69,0,1,0-3.34,0C513,168,513.35,169.23,514.67,169.23Z"/><path class="cls-14" d="M519.54,163.77h1.54v1.51h0a2,2,0,0,1,1.82-1.67,1.88,1.88,0,0,1,.53.05v1.74a1.77,1.77,0,0,0-.77-.14c-1.41,0-1.41,1.75-1.41,2.71v2.44h-1.73Z"/><path class="cls-14" d="M524.56,160.91h1.73v1.65h-1.73Zm0,2.87h1.73v6.65h-1.73Z"/><path class="cls-14" d="M317.16,202.47h2.89l2.14,6.83h0l2.14-6.83h2.89v9h-1.73V204h0l-2.43,7.44h-1.73L318.92,204l0,0v7.41h-1.73Z"/><path class="cls-14" d="M329.23,202H331v1.65h-1.73Zm0,2.87H331v6.65h-1.73Z"/><path class="cls-14" d="M332.78,204.84h1.64v.9h0a2.48,2.48,0,0,1,2.18-1.06c1.57,0,2.26,1.11,2.26,2.61v4.2h-1.73v-3.55c0-.81,0-1.91-1.12-1.91s-1.52,1.36-1.52,2.21v3.25h-1.73Z"/><path class="cls-14" d="M341,205.19a6,6,0,0,1,2.31-.5c2,0,2.87.84,2.87,2.8v.85c0,.67,0,1.17,0,1.67s0,1,.08,1.48h-1.52a7.9,7.9,0,0,1-.08-1h0a2.37,2.37,0,0,1-2.05,1.15,2.12,2.12,0,0,1-2.32-2,2,2,0,0,1,1.14-1.9,5.27,5.27,0,0,1,2.23-.39h1c0-1.07-.48-1.43-1.5-1.43a3.48,3.48,0,0,0-2.05.72Zm2,5.19a1.47,1.47,0,0,0,1.21-.59,2.19,2.19,0,0,0,.36-1.37h-.75c-.77,0-1.92.13-1.92,1.15C341.89,210.13,342.37,210.37,343,210.37Z"/><path class="cls-14" d="M347.81,204.84h1.61v.93h0a2.34,2.34,0,0,1,2-1.08,1.94,1.94,0,0,1,2,1.17,2.28,2.28,0,0,1,2.08-1.17c1.64,0,2.1,1.12,2.1,2.61v4.2h-1.73v-4c0-.62,0-1.5-1-1.5-1.15,0-1.29,1.37-1.29,2.23v3.23h-1.73v-4c0-.62,0-1.5-1-1.5-1.15,0-1.29,1.37-1.29,2.23v3.23h-1.73Z"/><path class="cls-14" d="M359.35,202h1.73v1.65h-1.73Zm0,2.87h1.73v6.65h-1.73Z"/><path class="cls-14" d="M362.46,208.72V207.3h3.4v1.42Z"/><path class="cls-14" d="M367.26,202.47h2.22l3.43,6.74h0v-6.74h1.73v9h-2.21L369,204.75h0v6.74h-1.73Z"/><path class="cls-14" d="M376.81,205.19a6,6,0,0,1,2.31-.5c2,0,2.87.84,2.87,2.8v.85c0,.67,0,1.17,0,1.67s0,1,.08,1.48h-1.52a8.06,8.06,0,0,1-.08-1h0a2.37,2.37,0,0,1-2.05,1.15,2.12,2.12,0,0,1-2.32-2,2,2,0,0,1,1.13-1.9,5.28,5.28,0,0,1,2.23-.39h1c0-1.07-.48-1.43-1.5-1.43a3.49,3.49,0,0,0-2.05.72Zm2,5.19a1.47,1.47,0,0,0,1.21-.59,2.21,2.21,0,0,0,.36-1.37h-.75c-.77,0-1.92.13-1.92,1.15C377.74,210.13,378.22,210.37,378.84,210.37Z"/><path class="cls-14" d="M389.8,204.84v6c0,1.81-.72,3.51-3.51,3.51a5.85,5.85,0,0,1-2.3-.45l.14-1.47a5,5,0,0,0,1.94.58c1.91,0,2-1.43,2-2.58h0a2.37,2.37,0,0,1-2.07,1.06c-2,0-2.71-1.58-2.71-3.36,0-1.6.83-3.45,2.81-3.45a2.21,2.21,0,0,1,2,1.06h0v-.9Zm-1.73,3.25c0-1.14-.44-2.07-1.45-2.07-1.17,0-1.55,1.08-1.55,2.1s.48,2,1.47,2S388.07,209.2,388.07,208.09Z"/><path class="cls-14" d="M391.87,205.19a6,6,0,0,1,2.31-.5c2,0,2.87.84,2.87,2.8v.85c0,.67,0,1.17,0,1.67s0,1,.08,1.48h-1.52a8.06,8.06,0,0,1-.08-1h0a2.37,2.37,0,0,1-2.05,1.15,2.12,2.12,0,0,1-2.32-2,2,2,0,0,1,1.13-1.9,5.28,5.28,0,0,1,2.23-.39h1c0-1.07-.48-1.43-1.5-1.43a3.49,3.49,0,0,0-2.05.72Zm2,5.19a1.47,1.47,0,0,0,1.21-.59,2.21,2.21,0,0,0,.36-1.37h-.75c-.77,0-1.92.13-1.92,1.15C392.8,210.13,393.28,210.37,393.9,210.37Z"/><path class="cls-14" d="M398.79,204.84h1.54v1.51h0a2,2,0,0,1,1.82-1.67,1.88,1.88,0,0,1,.53.05v1.74a1.77,1.77,0,0,0-.77-.14c-1.41,0-1.41,1.75-1.41,2.71v2.44h-1.73Z"/><path class="cls-14" d="M409.1,211.11a4.57,4.57,0,0,1-2.29.53,3.16,3.16,0,0,1-3.47-3.45c0-1.92,1-3.51,3.08-3.51,2.47,0,3.16,1.69,3.16,4H405a1.74,1.74,0,0,0,1.9,1.68,4.49,4.49,0,0,0,2.21-.67Zm-1.16-3.6c-.05-.84-.44-1.56-1.41-1.56a1.51,1.51,0,0,0-1.54,1.56Z"/><path class="cls-14" d="M413.71,209.69h0l1.6-4.85h1.75l-2.49,6.6c-.55,1.47-1,2.92-2.76,2.92a4.43,4.43,0,0,1-1.23-.18l.12-1.28a2.56,2.56,0,0,0,.89.12,1.08,1.08,0,0,0,1.12-1.19l-2.54-7h1.91Z"/><path class="cls-14" d="M418.42,205.19a6,6,0,0,1,2.31-.5c2,0,2.87.84,2.87,2.8v.85c0,.67,0,1.17,0,1.67s0,1,.08,1.48h-1.52a7.9,7.9,0,0,1-.08-1h0a2.37,2.37,0,0,1-2.05,1.15,2.12,2.12,0,0,1-2.32-2,2,2,0,0,1,1.14-1.9,5.27,5.27,0,0,1,2.23-.39h1c0-1.07-.48-1.43-1.5-1.43a3.48,3.48,0,0,0-2.05.72Zm2,5.19a1.47,1.47,0,0,0,1.21-.59,2.19,2.19,0,0,0,.36-1.37h-.75c-.77,0-1.92.13-1.92,1.15C419.35,210.13,419.82,210.37,420.44,210.37Z"/><path class="cls-14" d="M425.27,204.84h1.61v.93h0a2.34,2.34,0,0,1,2-1.08,1.94,1.94,0,0,1,2,1.17,2.28,2.28,0,0,1,2.08-1.17c1.64,0,2.1,1.12,2.1,2.61v4.2H433.3v-4c0-.62,0-1.5-1-1.5-1.15,0-1.29,1.37-1.29,2.23v3.23h-1.73v-4c0-.62,0-1.5-1-1.5-1.15,0-1.29,1.37-1.29,2.23v3.23h-1.73Z"/><path class="cls-14" d="M437.07,205.19a6,6,0,0,1,2.31-.5c2,0,2.87.84,2.87,2.8v.85c0,.67,0,1.17,0,1.67s0,1,.08,1.48h-1.52a7.7,7.7,0,0,1-.08-1h0a2.37,2.37,0,0,1-2.05,1.15,2.12,2.12,0,0,1-2.32-2,2,2,0,0,1,1.14-1.9,5.28,5.28,0,0,1,2.23-.39h1c0-1.07-.48-1.43-1.5-1.43a3.48,3.48,0,0,0-2.05.72Zm2,5.19a1.47,1.47,0,0,0,1.21-.59,2.2,2.2,0,0,0,.36-1.37h-.75c-.78,0-1.92.13-1.92,1.15C438,210.13,438.47,210.37,439.09,210.37Z"/><path class="cls-14" d="M443.87,261.14h1.81V265l3.25-3.87h2.22l-3.7,4.25,3.86,4.76h-2.36L445.7,266h0v4.18h-1.81Z"/><path class="cls-14" d="M452.62,263.85a6,6,0,0,1,2.31-.5c2,0,2.87.84,2.87,2.8V267c0,.67,0,1.17,0,1.67s0,1,.08,1.48h-1.52a8.06,8.06,0,0,1-.08-1h0a2.37,2.37,0,0,1-2.05,1.15,2.12,2.12,0,0,1-2.32-2,2,2,0,0,1,1.13-1.9,5.28,5.28,0,0,1,2.23-.39h1c0-1.07-.48-1.43-1.5-1.43a3.49,3.49,0,0,0-2.05.72Zm2,5.19a1.47,1.47,0,0,0,1.21-.59,2.21,2.21,0,0,0,.36-1.37h-.75c-.77,0-1.92.13-1.92,1.15C453.55,268.79,454,269,454.65,269Z"/><path class="cls-14" d="M463.45,264.89a4.24,4.24,0,0,0-1.55-.28c-.46,0-1,.17-1,.74,0,1.06,3,.39,3,2.79,0,1.55-1.38,2.17-2.79,2.17a7.74,7.74,0,0,1-2-.28l.1-1.42a3.81,3.81,0,0,0,1.71.44c.44,0,1.14-.17,1.14-.81,0-1.3-3-.41-3-2.81,0-1.43,1.25-2.07,2.61-2.07a8,8,0,0,1,1.88.25Z"/><path class="cls-14" d="M465.23,260.46H467v3.94h0a2.48,2.48,0,0,1,2.09-1.06c1.57,0,2.26,1.11,2.26,2.61v4.2H469.6V266.6c0-.81,0-1.91-1.12-1.91S467,266,467,266.89v3.25h-1.73Z"/><path class="cls-14" d="M473.15,260.63h1.73v1.65h-1.73Zm0,2.87h1.73v6.65h-1.73Z"/><path class="cls-14" d="M476,263.5h1.83l1.47,4.92h0l1.34-4.92h2l1.45,4.92h0l1.38-4.92h1.65l-2,6.65h-2l-1.45-5.07h0l-1.42,5.07h-2Z"/><path class="cls-14" d="M488.47,263.85a6,6,0,0,1,2.31-.5c2,0,2.87.84,2.87,2.8V267c0,.67,0,1.17,0,1.67s0,1,.08,1.48h-1.52a8.29,8.29,0,0,1-.08-1h0a2.37,2.37,0,0,1-2.05,1.15,2.12,2.12,0,0,1-2.32-2,2,2,0,0,1,1.14-1.9,5.27,5.27,0,0,1,2.23-.39h1c0-1.07-.48-1.43-1.5-1.43a3.48,3.48,0,0,0-2.05.72Zm2,5.19a1.47,1.47,0,0,0,1.21-.59,2.2,2.2,0,0,0,.36-1.37h-.75c-.77,0-1.92.13-1.92,1.15C489.4,268.79,489.88,269,490.5,269Z"/><path class="cls-14" d="M403.65,299.16a4.67,4.67,0,0,0-1.83-.39A1.25,1.25,0,0,0,400.4,300c0,1.56,3.95.9,3.95,3.92,0,2-1.56,2.72-3.38,2.72a8,8,0,0,1-2.31-.35l.17-1.63a4.35,4.35,0,0,0,2,.56c.68,0,1.6-.35,1.6-1.16,0-1.72-3.95-1-3.95-4,0-2,1.56-2.75,3.15-2.75a6.79,6.79,0,0,1,2.16.32Z"/><path class="cls-14" d="M405.83,296.83h1.73v3.94h0a2.48,2.48,0,0,1,2.09-1.06c1.57,0,2.26,1.11,2.26,2.61v4.2H410.2V303c0-.81,0-1.91-1.12-1.91s-1.52,1.36-1.52,2.21v3.25h-1.73Z"/><path class="cls-14" d="M413.75,297h1.73v1.65h-1.73Zm0,2.87h1.73v6.65h-1.73Z"/><path class="cls-14" d="M417.27,299.87h1.61v.93h0a2.34,2.34,0,0,1,2-1.08,1.94,1.94,0,0,1,2,1.17,2.28,2.28,0,0,1,2.08-1.17c1.64,0,2.1,1.12,2.1,2.61v4.2H425.3v-4c0-.62,0-1.5-1-1.5-1.15,0-1.29,1.37-1.29,2.23v3.23h-1.73v-4c0-.62,0-1.5-1-1.5-1.15,0-1.29,1.37-1.29,2.23v3.23h-1.73Z"/><path class="cls-14" d="M428.33,303.75v-1.42h3.39v1.42Z"/><path class="cls-14" d="M433.23,297.5h2.89l2.14,6.83h0l2.14-6.83h2.89v9h-1.73v-7.44h0l-2.43,7.44h-1.73L435,299.08l0,0v7.41h-1.73Z"/><path class="cls-14" d="M445.55,300.22a6,6,0,0,1,2.31-.5c2,0,2.87.84,2.87,2.8v.85c0,.67,0,1.17,0,1.67s0,1,.08,1.48h-1.52a7.9,7.9,0,0,1-.08-1h0a2.37,2.37,0,0,1-2.05,1.15,2.12,2.12,0,0,1-2.32-2,2,2,0,0,1,1.14-1.9,5.27,5.27,0,0,1,2.23-.39h1c0-1.07-.48-1.43-1.5-1.43a3.48,3.48,0,0,0-2.05.72Zm2,5.19a1.47,1.47,0,0,0,1.21-.59,2.19,2.19,0,0,0,.36-1.37h-.75c-.77,0-1.92.13-1.92,1.15C446.48,305.16,447,305.4,447.58,305.4Z"/><path class="cls-14" d="M453,301.13h-1.28v-1.27H453v-1.33l1.73-.56v1.88h1.54v1.27h-1.54v3.1c0,.57.16,1.1.81,1.1a1.54,1.54,0,0,0,.79-.18l.05,1.37a4.54,4.54,0,0,1-1.28.16,2,2,0,0,1-2.1-2.16Z"/><path class="cls-14" d="M461.4,301.26a4.25,4.25,0,0,0-1.55-.28c-.46,0-1,.17-1,.74,0,1.06,3,.39,3,2.79,0,1.55-1.38,2.17-2.79,2.17a7.75,7.75,0,0,1-2-.28l.1-1.42a3.81,3.81,0,0,0,1.7.44c.44,0,1.14-.17,1.14-.81,0-1.3-3-.41-3-2.81,0-1.43,1.25-2.07,2.61-2.07a8,8,0,0,1,1.88.25Z"/><path class="cls-14" d="M469.28,306.52h-1.64v-.9h0a2.77,2.77,0,0,1-2.18,1.06c-1.58,0-2.26-1.11-2.26-2.61v-4.2h1.73v3.55c0,.81,0,1.91,1.12,1.91s1.52-1.36,1.52-2.21v-3.25h1.73Z"/><path class="cls-14" d="M475.49,305.77h0a2.47,2.47,0,0,1-2,.9c-2,0-2.79-1.68-2.79-3.5s.75-3.46,2.79-3.46a2.37,2.37,0,0,1,2,.93h0v-3.81h1.73v9.68h-1.68Zm-1.59-.44c1.15,0,1.52-1.21,1.52-2.16s-.44-2.12-1.55-2.12-1.43,1.23-1.43,2.12S472.77,305.33,473.9,305.33Z"/><path class="cls-14" d="M482,299.71a3.33,3.33,0,0,1,3.49,3.52,3.48,3.48,0,0,1-7,0A3.33,3.33,0,0,1,482,299.71Zm0,5.62c1.33,0,1.68-1.19,1.68-2.3a1.69,1.69,0,1,0-3.34,0C480.33,304.13,480.68,305.33,482,305.33Z"/><path class="cls-14" d="M220.13,276.39h1.81v3.87l3.25-3.87h2.22l-3.71,4.25,3.86,4.76h-2.36L222,281.22h0v4.18h-1.81Z"/><path class="cls-14" d="M228.62,275.88h1.73v1.65h-1.73Zm0,2.87h1.73v6.65h-1.73Z"/><path class="cls-14" d="M232.74,280h-1.28v-1.27h1.28v-1.33l1.73-.56v1.88H236V280h-1.54v3.1c0,.57.15,1.1.81,1.1a1.54,1.54,0,0,0,.79-.18l.05,1.37a4.54,4.54,0,0,1-1.28.16,2,2,0,0,1-2.1-2.16Z"/><path class="cls-14" d="M237.49,279.1a6,6,0,0,1,2.31-.5c2,0,2.87.84,2.87,2.8v.85c0,.67,0,1.17,0,1.67s0,1,.08,1.48h-1.52a8.29,8.29,0,0,1-.08-1h0a2.37,2.37,0,0,1-2.05,1.15,2.12,2.12,0,0,1-2.32-2,2,2,0,0,1,1.14-1.9,5.27,5.27,0,0,1,2.23-.39h1c0-1.07-.48-1.43-1.5-1.43a3.48,3.48,0,0,0-2.05.72Zm2,5.19a1.47,1.47,0,0,0,1.21-.59,2.2,2.2,0,0,0,.36-1.37h-.75c-.77,0-1.92.13-1.92,1.15C238.42,284,238.9,284.29,239.52,284.29Z"/><path class="cls-14" d="M248.32,280.14a4.25,4.25,0,0,0-1.55-.28c-.46,0-1,.17-1,.74,0,1.06,3,.39,3,2.79,0,1.55-1.38,2.17-2.79,2.17a7.75,7.75,0,0,1-2-.28l.1-1.42a3.81,3.81,0,0,0,1.7.44c.44,0,1.14-.17,1.14-.81,0-1.3-3-.41-3-2.81,0-1.43,1.25-2.07,2.61-2.07a8,8,0,0,1,1.88.25Z"/><path class="cls-14" d="M255.43,285a4.57,4.57,0,0,1-2.29.53,3.16,3.16,0,0,1-3.47-3.45c0-1.92,1-3.51,3.08-3.51,2.47,0,3.16,1.69,3.16,4h-4.6a1.74,1.74,0,0,0,1.9,1.68,4.49,4.49,0,0,0,2.21-.67Zm-1.16-3.6c-.05-.84-.44-1.56-1.41-1.56a1.51,1.51,0,0,0-1.54,1.56Z"/><path class="cls-14" d="M257.27,278.75h1.64v.9h0a2.48,2.48,0,0,1,2.18-1.06c1.58,0,2.26,1.11,2.26,2.61v4.2h-1.73v-3.55c0-.81,0-1.91-1.12-1.91s-1.52,1.36-1.52,2.21v3.25h-1.73Z"/><path class="cls-14" d="M264.14,286.92c.93-.05,1.06-.23,1.06-1.27v-6.91h1.73v7.14c0,.94-.27,2.38-2,2.38a3.42,3.42,0,0,1-.85-.1Zm1.06-11h1.73v1.65H265.2Z"/><path class="cls-14" d="M274.85,285.4h-1.64v-.9h0a2.77,2.77,0,0,1-2.18,1.06c-1.58,0-2.26-1.11-2.26-2.61v-4.2h1.73v3.55c0,.81,0,1.91,1.12,1.91s1.52-1.36,1.52-2.21v-3.25h1.73Z"/><path class="cls-14" d="M125.9,270.73h1.81v5.2c0,1.54.49,2.54,1.87,2.54s1.87-1,1.87-2.54v-5.2h1.81v5.76c0,2.41-1.37,3.41-3.68,3.41s-3.68-1-3.68-3.41Z"/><path class="cls-14" d="M140.46,279.37a4.57,4.57,0,0,1-2.29.53,3.16,3.16,0,0,1-3.47-3.45c0-1.92,1-3.51,3.08-3.51,2.47,0,3.16,1.69,3.16,4h-4.6a1.74,1.74,0,0,0,1.9,1.68,4.48,4.48,0,0,0,2.21-.67Zm-1.16-3.6c-.05-.84-.44-1.56-1.41-1.56a1.51,1.51,0,0,0-1.54,1.56Z"/><path class="cls-14" d="M142.31,273.1h1.64v.9h0a2.48,2.48,0,0,1,2.18-1.06c1.57,0,2.26,1.11,2.26,2.61v4.2h-1.73v-3.55c0-.81,0-1.91-1.12-1.91s-1.52,1.36-1.52,2.21v3.25h-1.73Z"/><path class="cls-14" d="M153.24,272.94a3.33,3.33,0,0,1,3.49,3.52,3.48,3.48,0,0,1-7,0A3.33,3.33,0,0,1,153.24,272.94Zm0,5.62c1.33,0,1.68-1.19,1.68-2.3a1.69,1.69,0,1,0-3.34,0C151.57,277.36,151.92,278.56,153.24,278.56Z"/><path class="cls-14" d="M151.67,311.45h2l3.54,9h-2l-.77-2.07h-3.65l-.79,2.07h-1.87Zm1,1.81h0l-1.3,3.72H154Z"/><path class="cls-14" d="M158.29,310.78H160v5.69h0l2.07-2.66h2l-2.48,3,2.79,3.68h-2.2L160,317.23h0v3.23h-1.73Z"/><path class="cls-14" d="M165.46,310.95h1.73v1.65h-1.73Zm0,2.87h1.73v6.65h-1.73Z"/><path class="cls-14" d="M169,310.78h1.73v3.94h0a2.47,2.47,0,0,1,2.09-1.06c1.58,0,2.26,1.11,2.26,2.61v4.2h-1.73v-3.55c0-.81,0-1.91-1.12-1.91s-1.52,1.36-1.52,2.21v3.25H169Z"/><path class="cls-14" d="M177.19,314.16a6,6,0,0,1,2.31-.5c2,0,2.87.84,2.87,2.8v.85c0,.67,0,1.17,0,1.67s0,1,.08,1.48h-1.52a8.06,8.06,0,0,1-.08-1h0a2.37,2.37,0,0,1-2.05,1.15,2.12,2.12,0,0,1-2.32-2,2,2,0,0,1,1.13-1.9,5.28,5.28,0,0,1,2.23-.39h1c0-1.07-.48-1.43-1.5-1.43a3.49,3.49,0,0,0-2.05.72Zm2,5.19a1.47,1.47,0,0,0,1.21-.59,2.21,2.21,0,0,0,.36-1.37H180c-.77,0-1.92.13-1.92,1.15C178.12,319.1,178.6,319.35,179.22,319.35Z"/><path class="cls-14" d="M184.07,310.78h1.73v3.89h0a2.33,2.33,0,0,1,2-1c2,0,2.79,1.63,2.79,3.46s-.75,3.5-2.79,3.5a2.43,2.43,0,0,1-2-1h0v.81h-1.68Zm3.27,8.49c1.13,0,1.46-1.24,1.46-2.16s-.31-2.12-1.43-2.12-1.55,1.19-1.55,2.12S186.19,319.27,187.34,319.27Z"/><path class="cls-14" d="M192.25,314.16a6,6,0,0,1,2.31-.5c2,0,2.87.84,2.87,2.8v.85c0,.67,0,1.17,0,1.67s0,1,.08,1.48H196a8.06,8.06,0,0,1-.08-1h0a2.37,2.37,0,0,1-2.05,1.15,2.12,2.12,0,0,1-2.32-2,2,2,0,0,1,1.13-1.9,5.28,5.28,0,0,1,2.23-.39h1c0-1.07-.48-1.43-1.5-1.43a3.49,3.49,0,0,0-2.05.72Zm2,5.19a1.47,1.47,0,0,0,1.21-.59,2.21,2.21,0,0,0,.36-1.37h-.75c-.77,0-1.92.13-1.92,1.15C193.18,319.1,193.66,319.35,194.28,319.35Z"/><path class="cls-14" d="M199.17,313.81h1.54v1.51h0a2,2,0,0,1,1.82-1.67,1.88,1.88,0,0,1,.53.05v1.74a1.77,1.77,0,0,0-.77-.14c-1.41,0-1.41,1.75-1.41,2.71v2.44h-1.73Z"/><path class="cls-14" d="M204.45,314.16a6,6,0,0,1,2.31-.5c2,0,2.87.84,2.87,2.8v.85c0,.67,0,1.17,0,1.67s0,1,.08,1.48h-1.52a8.06,8.06,0,0,1-.08-1h0a2.37,2.37,0,0,1-2.05,1.15,2.12,2.12,0,0,1-2.32-2,2,2,0,0,1,1.13-1.9,5.28,5.28,0,0,1,2.23-.39h1c0-1.07-.48-1.43-1.5-1.43a3.49,3.49,0,0,0-2.05.72Zm2,5.19a1.47,1.47,0,0,0,1.21-.59,2.21,2.21,0,0,0,.36-1.37h-.75c-.77,0-1.92.13-1.92,1.15C205.38,319.1,205.86,319.35,206.48,319.35Z"/><path d="M368.25,52.42V36.68h29.23V59.16h11.24V90.64H357V52.42Zm0,36v-9H366v9Zm18-9h-6.75v9h6.75Zm13.49,0h-2.25v9h2.25Zm4.5-15.74h-6.75V77.15H402v9h2.25ZM393,41.17H372.75v45H375V74.9h15.74V86.15H393Zm-29.23,45v-9h4.5V56.91H361.5V86.15ZM402,72.66h-2.25v-4.5H402Zm-38.23-4.5H366v4.5h-2.25Zm18,2.25h-4.5v-4.5h4.5Zm6.75,0H384v-4.5h4.5Zm-22.49-9v4.5h-2.25v-4.5Zm15.74,2.25h-4.5v-4.5h4.5Zm6.75,0H384v-4.5h4.5Zm-6.75-6.75h-4.5v-4.5h4.5Zm6.75,0H384v-4.5h4.5Zm-6.75-6.75h-4.5v-4.5h4.5Zm6.75,0H384v-4.5h4.5Z"/><rect class="cls-1" x="451.09" y="91.82" width="188.88" height="29.33" rx="2" ry="2"/><polygon class="cls-1" points="424.29 110.18 464.15 112.37 462.19 97.64 424.29 110.18"/><path class="cls-2" d="M464.79,100.52h2.14v4.58l3.84-4.58h2.63l-4.38,5,4.56,5.63h-2.79L467,106.23h0v4.94h-2.14Z"/><path class="cls-2" d="M475.43,103.73a7,7,0,0,1,2.73-.59c2.4,0,3.39,1,3.39,3.31v1c0,.79,0,1.39,0,2s0,1.14.09,1.75h-1.8a9.68,9.68,0,0,1-.09-1.17h0a2.81,2.81,0,0,1-2.43,1.36,2.51,2.51,0,0,1-2.75-2.33,2.31,2.31,0,0,1,1.34-2.24,6.22,6.22,0,0,1,2.64-.46h1.13c0-1.27-.56-1.69-1.77-1.69a4.11,4.11,0,0,0-2.43.85Zm2.4,6.13a1.74,1.74,0,0,0,1.43-.7,2.61,2.61,0,0,0,.43-1.62h-.88c-.92,0-2.27.15-2.27,1.36C476.53,109.57,477.09,109.86,477.83,109.86Z"/><path class="cls-2" d="M488.53,105a5,5,0,0,0-1.83-.34c-.55,0-1.21.2-1.21.87,0,1.25,3.56.46,3.56,3.29,0,1.83-1.63,2.56-3.3,2.56a9.16,9.16,0,0,1-2.32-.34l.12-1.68a4.5,4.5,0,0,0,2,.52c.52,0,1.34-.2,1.34-1,0-1.54-3.55-.49-3.55-3.33,0-1.69,1.48-2.44,3.08-2.44a9.45,9.45,0,0,1,2.23.29Z"/><path class="cls-2" d="M490.94,99.73h2v4.65h0a2.93,2.93,0,0,1,2.47-1.25c1.86,0,2.67,1.31,2.67,3.08v5h-2V107c0-1,0-2.26-1.33-2.26-1.48,0-1.8,1.6-1.8,2.61v3.85h-2Z"/><path class="cls-2" d="M500.61,99.93h2v2h-2Zm0,3.39h2v7.86h-2Z"/><path class="cls-2" d="M504.23,103.32h2.17l1.74,5.81h0l1.59-5.81h2.38l1.71,5.81h0l1.63-5.81h2L515,111.17h-2.41l-1.71-6h0l-1.68,6h-2.33Z"/><path class="cls-2" d="M519.32,103.73a7,7,0,0,1,2.73-.59c2.4,0,3.39,1,3.39,3.31v1c0,.79,0,1.39,0,2s0,1.14.09,1.75h-1.8a9.68,9.68,0,0,1-.09-1.17h0a2.81,2.81,0,0,1-2.43,1.36,2.51,2.51,0,0,1-2.75-2.33,2.31,2.31,0,0,1,1.34-2.24,6.22,6.22,0,0,1,2.64-.46h1.13c0-1.27-.57-1.69-1.77-1.69a4.12,4.12,0,0,0-2.43.85Zm2.4,6.13a1.74,1.74,0,0,0,1.43-.7,2.61,2.61,0,0,0,.43-1.62h-.89c-.92,0-2.27.15-2.27,1.36C520.42,109.57,521,109.86,521.72,109.86Z"/><path class="cls-2" d="M527.76,103.32h1.94v1.07h0a2.93,2.93,0,0,1,2.58-1.25c1.86,0,2.67,1.31,2.67,3.08v5h-2V107c0-1,0-2.26-1.33-2.26-1.48,0-1.8,1.6-1.8,2.61v3.85h-2Z"/><path class="cls-2" d="M541,103.13a3.94,3.94,0,0,1,4.12,4.17,4.11,4.11,0,0,1-8.22,0A3.93,3.93,0,0,1,541,103.13Zm0,6.64c1.57,0,2-1.4,2-2.72a2,2,0,1,0-4,0C539,108.35,539.43,109.77,541,109.77Z"/><path class="cls-2" d="M547,99.73h2v4.65h0a2.92,2.92,0,0,1,2.47-1.25c1.86,0,2.67,1.31,2.67,3.08v5h-2V107c0-1,0-2.26-1.33-2.26-1.48,0-1.8,1.6-1.8,2.61v3.85h-2Z"/><path class="cls-2" d="M557,103.73a7,7,0,0,1,2.73-.59c2.39,0,3.39,1,3.39,3.31v1c0,.79,0,1.39,0,2s0,1.14.09,1.75h-1.8a9.3,9.3,0,0,1-.09-1.17h0a2.81,2.81,0,0,1-2.43,1.36,2.51,2.51,0,0,1-2.75-2.33,2.31,2.31,0,0,1,1.34-2.24,6.22,6.22,0,0,1,2.64-.46h1.13c0-1.27-.56-1.69-1.77-1.69a4.11,4.11,0,0,0-2.43.85Zm2.4,6.13a1.74,1.74,0,0,0,1.43-.7,2.61,2.61,0,0,0,.43-1.62h-.88c-.92,0-2.27.15-2.27,1.36C558.08,109.57,558.65,109.86,559.38,109.86Z"/><path class="cls-2" d="M577.9,111a10.84,10.84,0,0,1-2.43.34c-3.45,0-5.84-1.72-5.84-5.33s2.23-5.69,5.84-5.69a7,7,0,0,1,2.41.44l-.15,1.8a4.39,4.39,0,0,0-2.3-.56,3.56,3.56,0,0,0-3.57,3.86,3.51,3.51,0,0,0,3.62,3.8,6,6,0,0,0,2.33-.44Z"/><path class="cls-2" d="M579.94,103.73a7,7,0,0,1,2.73-.59c2.4,0,3.39,1,3.39,3.31v1c0,.79,0,1.39,0,2s0,1.14.09,1.75h-1.8a9.68,9.68,0,0,1-.09-1.17h0a2.81,2.81,0,0,1-2.43,1.36,2.51,2.51,0,0,1-2.75-2.33,2.31,2.31,0,0,1,1.34-2.24,6.22,6.22,0,0,1,2.64-.46h1.13c0-1.27-.56-1.69-1.77-1.69a4.11,4.11,0,0,0-2.43.85Zm2.4,6.13a1.74,1.74,0,0,0,1.43-.7,2.61,2.61,0,0,0,.43-1.62h-.88c-.92,0-2.27.15-2.27,1.36C581,109.57,581.6,109.86,582.33,109.86Z"/><path class="cls-2" d="M588.34,103.32h1.91v1.1h0a2.77,2.77,0,0,1,2.33-1.28,2.29,2.29,0,0,1,2.32,1.39,2.7,2.7,0,0,1,2.46-1.39c1.94,0,2.49,1.33,2.49,3.08v5h-2v-4.68c0-.73,0-1.77-1.17-1.77-1.36,0-1.53,1.62-1.53,2.64v3.81h-2v-4.68c0-.73,0-1.77-1.18-1.77-1.36,0-1.53,1.62-1.53,2.64v3.81h-2Z"/><path class="cls-2" d="M602.23,103.32h2v1.11h0a2.66,2.66,0,0,1,2.44-1.3c2.41,0,3.29,1.92,3.29,4.09s-.88,4.14-3.34,4.14a2.69,2.69,0,0,1-2.3-1.08h0v4.1h-2Zm2.06,3.91c0,1.11.44,2.55,1.8,2.55s1.72-1.46,1.72-2.55-.37-2.5-1.69-2.5S604.29,106.12,604.29,107.22Z"/><path class="cls-2" d="M619.07,111.17h-1.94v-1.07h0a3.28,3.28,0,0,1-2.58,1.25c-1.86,0-2.67-1.31-2.67-3.08v-5h2v4.2c0,1,0,2.26,1.33,2.26,1.48,0,1.8-1.6,1.8-2.61v-3.85h2Z"/><path class="cls-2" d="M626.15,105a5,5,0,0,0-1.83-.34c-.55,0-1.21.2-1.21.87,0,1.25,3.55.46,3.55,3.29,0,1.83-1.63,2.56-3.3,2.56a9.17,9.17,0,0,1-2.32-.34l.12-1.68a4.5,4.5,0,0,0,2,.52c.52,0,1.34-.2,1.34-1,0-1.54-3.55-.49-3.55-3.33,0-1.69,1.48-2.44,3.08-2.44a9.47,9.47,0,0,1,2.23.29Z"/></g></g></svg>