<svg xmlns="http://www.w3.org/2000/svg" viewBox="0 0 16 11.56"><defs><style>.cls-1{fill:#1f3452;}</style></defs><title>アートボード 53</title><g id="header"><path class="cls-1" d="M15.81,3.42,8.73.16a1.74,1.74,0,0,0-1.45,0L.19,3.42a.33.33,0,0,0,0,.6L7.27,7.28a1.74,1.74,0,0,0,1.45,0l5.59-2.57V7.3a.44.44,0,0,0-.08.87l-.38,2.49H15.6l-.38-2.49a.44.44,0,0,0-.08-.87v-3l.66-.3a.33.33,0,0,0,0-.6Z"/><path class="cls-1" d="M8,8.62A2.4,2.4,0,0,1,7,8.4L3.52,6.8V10c0,.7,2.11,1.58,4.48,1.58s4.48-.88,4.48-1.58V6.8L9,8.4A2.4,2.4,0,0,1,8,8.62Z"/></g></svg>