<svg xmlns="http://www.w3.org/2000/svg" viewBox="0 0 15 14.63"><defs><style>.cls-1{fill:#1f3452;}</style></defs><title>アートボード 54</title><g id="header"><path class="cls-1" d="M4.72,12.32c0,.07-.08.12-.18.12s-.19,0-.19-.12.08-.12.18-.12S4.72,12.24,4.72,12.32Zm-1.05-.15c0,.07,0,.15.15.17A.16.16,0,0,0,4,12.26c0-.07,0-.15-.15-.18a.17.17,0,0,0-.21.08Zm1.5-.06c-.1,0-.17.09-.16.17s.1.11.2.09.17-.09.16-.16S5.26,12.1,5.16,12.11ZM7.4,0A7.25,7.25,0,0,0,0,7.38a7.58,7.58,0,0,0,5.13,7.23c.39.07.52-.17.52-.37s0-1.22,0-1.86c0,0-2.12.45-2.56-.9,0,0-.34-.88-.84-1.11,0,0-.69-.47,0-.47a1.6,1.6,0,0,1,1.17.78,1.6,1.6,0,0,0,2.2.63,1.68,1.68,0,0,1,.48-1c-1.69-.19-3.4-.43-3.4-3.34a2.29,2.29,0,0,1,.71-1.78,2.86,2.86,0,0,1,.08-2.05c.63-.2,2.09.82,2.09.82a7.14,7.14,0,0,1,3.8,0s1.45-1,2.09-.82a2.86,2.86,0,0,1,.08,2.05A2.35,2.35,0,0,1,12.37,7c0,2.92-1.78,3.15-3.47,3.34a1.79,1.79,0,0,1,.51,1.4c0,1,0,2.28,0,2.53s.14.44.52.37A7.51,7.51,0,0,0,15,7.38,7.42,7.42,0,0,0,7.4,0Zm-5,10.81s0,.11,0,.18.13.08.18,0,0-.11,0-.18S2.43,10.76,2.39,10.81ZM2,10.53s0,.1.08.13a.1.1,0,0,0,.15,0s0-.1-.08-.13S2,10.5,2,10.53Zm1.1,1.21c-.05,0,0,.15,0,.21s.18.09.22,0,0-.15,0-.21S3.16,11.69,3.12,11.74Zm-.39-.5c-.05,0-.05.12,0,.2s.15.11.19.08a.15.15,0,0,0,0-.21c0-.08-.14-.11-.19-.07Z"/></g></svg>