<!--?xml version="1.0" encoding="utf-8"?-->
<!-- Generator: Adobe Illustrator 15.1.0, SVG Export Plug-In . SVG Version: 6.00 Build 0)  -->

<svg version="1.1" id="_x32_" xmlns="http://www.w3.org/2000/svg" xmlns:xlink="http://www.w3.org/1999/xlink" x="0px" y="0px" width="512px" height="512px" viewBox="0 0 512 512" style="width: 256px; height: 256px; opacity: 1;" xml:space="preserve">
<style type="text/css">

	.st0{fill:#4B4B4B;}

</style>
<g>
	<path class="st0" d="M503.366,292.335c0,0-57.922-30.578-106.109-56.125v-20.859c0-8.391-6.828-15.234-15.25-15.234
		c-8.406,0-15.25,6.844-15.25,15.234v4.719c-42.391-22.438-79.078-41.859-79.078-41.859V52.976
		c0-18.203-13.484-42.703-31.672-42.703c-18.203,0-31.688,24.5-31.688,42.703V178.21c0,0-36.688,19.422-79.094,41.859v-4.719
		c0-8.391-6.813-15.234-15.234-15.234s-15.25,6.844-15.25,15.234v20.859C66.554,261.757,8.616,292.335,8.616,292.335
		c-6.875,3.625-10.203,11.641-7.891,19.063c2.266,7.438,9.516,12.188,17.25,11.328l207.172-22.953v136.688
		c0,0-57.781,30.094-62.672,33.359c-4.875,3.25-8.938,8.953-8.938,13.016c0,4.078,0,10.656,0,10.656
		c0,1.594,0.703,3.109,1.922,4.125c1.203,1.016,2.813,1.453,4.391,1.203l80.75-13.781c0.094,6.594,7.016,16.797,15.406,16.688
		c8.375,0.109,15.297-10.094,15.391-16.688l80.766,13.781c1.547,0.25,3.172-0.188,4.391-1.203c1.203-1.016,1.906-2.531,1.906-4.125
		c0,0,0-6.578,0-10.656c0-4.063-4.063-9.766-8.953-13.016c-4.859-3.266-62.641-33.359-62.641-33.359V299.773l207.156,22.953
		c7.734,0.859,14.969-3.891,17.266-11.328C513.569,303.976,510.257,295.96,503.366,292.335z" style="fill: rgb(75, 75, 75);"></path>
</g>
</svg>
