<svg xmlns="http://www.w3.org/2000/svg" viewBox="0 0 13 10.2"><defs><style>.cls-1{fill:#14274b;}</style></defs><title>アートボード 55</title><g id="header"><path class="cls-1" d="M13,1.45a1.8,1.8,0,0,0-.37-.79L12.47.53A1.8,1.8,0,0,0,11.2,0H1.8A1.8,1.8,0,0,0,.53.53L.41.66A1.78,1.78,0,0,0,0,1.45,1.74,1.74,0,0,0,0,1.8V8.4a1.79,1.79,0,0,0,.15.72,1.77,1.77,0,0,0,.38.56l.12.11a1.8,1.8,0,0,0,1.15.41H11.2a1.79,1.79,0,0,0,1.15-.42l.12-.11a1.8,1.8,0,0,0,.38-.56h0A1.78,1.78,0,0,0,13,8.4V1.8A1.85,1.85,0,0,0,13,1.45ZM1.18,1.18A.87.87,0,0,1,1.8.92H11.2a.87.87,0,0,1,.62.26l.08.09L7,5.56a.72.72,0,0,1-.95,0L1.1,1.27ZM.92,8.4V2.23L4.49,5.33.92,8.44A.26.26,0,0,1,.92,8.4Zm10.27.88H1.8a.87.87,0,0,1-.44-.12L5.12,5.89l.35.31a1.56,1.56,0,0,0,2.05,0l.35-.31,3.76,3.27A.87.87,0,0,1,11.2,9.28Zm.88-.88a.27.27,0,0,1,0,0L8.51,5.34l3.56-3.11Z"/></g></svg>