<?xml version="1.0" encoding="utf-8"?>
<!-- Generator: Adobe Illustrator 21.1.0, SVG Export Plug-In . SVG Version: 6.00 Build 0)  -->
<svg version="1.1" id="_x32_" xmlns="http://www.w3.org/2000/svg" xmlns:xlink="http://www.w3.org/1999/xlink" x="0px" y="0px"
	 viewBox="0 0 512 512" style="enable-background:new 0 0 512 512;" xml:space="preserve">
<style type="text/css">
	.st0{fill:#004098;}
</style>
<g>
	<path class="st0" d="M0,45.2v421.6h512V45.2H0z M471.8,426.7H40.2V85.3h431.7V426.7z"/>
	<path class="st0" d="M326.1,207.7c-4.1-6.3-11.2-10.1-18.7-10.1c-7.5,0-14.6,3.8-18.7,10.1l-72.2,109.9l-39.9-45.2
		c-4.6-5.2-11.4-8-18.4-7.5c-7,0.5-13.3,4.2-17.1,10.1L74.2,377h363.7L326.1,207.7z"/>
	<path class="st0" d="M175,230.7c25.1,0,45.5-20.4,45.5-45.5c0-25.1-20.4-45.5-45.5-45.5c-25.1,0-45.5,20.4-45.5,45.5
		C129.5,210.4,149.9,230.7,175,230.7z"/>
</g>
</svg>
