<svg xmlns="http://www.w3.org/2000/svg" viewBox="0 0 110.25 48.43"><defs><style>.cls-1{fill:#004098;}.cls-2{fill:#97bdc0;}</style></defs><title>アセット 5</title><g id="レイヤー_2" data-name="レイヤー 2"><g id="レイヤー_4" data-name="レイヤー 4"><path class="cls-1" d="M35,8.71h5.5c5.54,0,10,3.43,10,9.17,0,6.26-3.8,9.49-10,9.49H35ZM37.68,25h2.81c4.6,0,7.14-2.22,7.14-7a6.51,6.51,0,0,0-6.82-6.92H37.68Z"/><path class="cls-1" d="M54.31,8.71h5.06c3.87,0,6.55,1.26,6.55,4.71,0,2.57-1.5,3.85-3.85,4.44v.05A4.36,4.36,0,0,1,66.4,22.4c0,4-3.32,5-7.11,5h-5Zm2.68,8h1.47c2.59,0,4.78-.24,4.78-3,0-2.22-1.9-2.78-3.45-2.78H57Zm0,8.5h2c2.41,0,4.57-.51,4.57-3,0-2.89-2.54-3.29-4.84-3.29H57Z"/><path class="cls-1" d="M83.7,11.79a7.47,7.47,0,0,0-3.85-1A6.92,6.92,0,0,0,72.68,18a7,7,0,0,0,7,7.3,9.11,9.11,0,0,0,4.07-.91l.16,2.6a11.87,11.87,0,0,1-4.25.67c-5.91,0-9.84-3.8-9.84-9.74,0-5.74,4.17-9.57,9.86-9.57a10.27,10.27,0,0,1,4.2.81Z"/><path class="cls-1" d="M87.12,8.71h2.67V25H97.6v2.35H87.12Z"/><path class="cls-1" d="M109,11.52a8.26,8.26,0,0,0-3.5-.77c-1.5,0-3.26.53-3.26,2.48,0,3.58,8,2.76,8,8.9,0,4-3.08,5.57-6.82,5.57a12.5,12.5,0,0,1-3.82-.78l.26-2.49a11.24,11.24,0,0,0,3.88.91c1.52,0,3.66-.85,3.66-3.05,0-4.17-8-3-8-8.82,0-3.31,2.62-5.08,6-5.08a12.65,12.65,0,0,1,4,.67Z"/><path class="cls-1" d="M35.56,30.36H37c1.56,0,2.94.53,2.94,2.55S38.52,35.46,37,35.46h-1.4Zm1,4.29h.57a1.74,1.74,0,0,0,0-3.48h-.57Z"/><path class="cls-1" d="M40.91,31.9a3.29,3.29,0,0,1,1.31-.29c1.14,0,1.62.47,1.62,1.58v.49c0,.37,0,.66,0,.94s0,.54,0,.84H43c0-.2,0-.45,0-.57h0a1.34,1.34,0,0,1-1.16.65,1.2,1.2,0,0,1-1.32-1.11,1.13,1.13,0,0,1,.64-1.08,3.06,3.06,0,0,1,1.27-.21H43c0-.61-.27-.81-.85-.81a2,2,0,0,0-1.16.4Zm1.15,2.93a.8.8,0,0,0,.68-.34,1.24,1.24,0,0,0,.21-.77h-.43c-.43,0-1.08.07-1.08.65C41.44,34.69,41.71,34.83,42.06,34.83Z"/><path class="cls-1" d="M45.12,32.41H44.4V31.7h.72V31l1-.32V31.7H47v.71H46.1v1.75c0,.33.09.62.46.62a.82.82,0,0,0,.44-.1l0,.78a2.92,2.92,0,0,1-.72.08,1.1,1.1,0,0,1-1.19-1.22Z"/><path class="cls-1" d="M47.81,31.9a3.28,3.28,0,0,1,1.3-.29c1.15,0,1.62.47,1.62,1.58v.49c0,.37,0,.66,0,.94s0,.54,0,.84h-.86a4.72,4.72,0,0,1,0-.57h0a1.33,1.33,0,0,1-1.16.65,1.2,1.2,0,0,1-1.31-1.11A1.13,1.13,0,0,1,48,33.35a3,3,0,0,1,1.26-.21h.54c0-.61-.27-.81-.84-.81a2,2,0,0,0-1.17.4ZM49,34.83a.83.83,0,0,0,.69-.34,1.24,1.24,0,0,0,.2-.77h-.42c-.44,0-1.09.07-1.09.65C48.33,34.69,48.6,34.83,49,34.83Z"/><path class="cls-1" d="M51.69,30h1v2.2h0a1.3,1.3,0,0,1,1.12-.57c1.15,0,1.58.92,1.58,2s-.43,2-1.58,2A1.35,1.35,0,0,1,52.66,35h0v.46h-1Zm1.85,4.8c.64,0,.82-.7.82-1.21s-.17-1.2-.81-1.2-.87.67-.87,1.2S52.89,34.78,53.54,34.78Z"/><path class="cls-1" d="M56.32,31.9a3.29,3.29,0,0,1,1.31-.29c1.14,0,1.62.47,1.62,1.58v.49c0,.37,0,.66,0,.94s0,.54,0,.84h-.86c0-.2,0-.45,0-.57h0a1.32,1.32,0,0,1-1.16.65,1.2,1.2,0,0,1-1.31-1.11,1.13,1.13,0,0,1,.64-1.08,3.06,3.06,0,0,1,1.27-.21h.54c0-.61-.27-.81-.85-.81a2,2,0,0,0-1.16.4Zm1.15,2.93a.82.82,0,0,0,.68-.34,1.24,1.24,0,0,0,.21-.77h-.43c-.43,0-1.08.07-1.08.65C56.85,34.69,57.12,34.83,57.47,34.83Z"/><path class="cls-1" d="M62.44,32.49a2.25,2.25,0,0,0-.87-.16c-.27,0-.58.09-.58.41,0,.6,1.7.22,1.7,1.58,0,.87-.78,1.22-1.58,1.22A4.19,4.19,0,0,1,60,35.38l.06-.8a2.22,2.22,0,0,0,1,.25c.24,0,.64-.1.64-.46,0-.74-1.7-.24-1.7-1.59,0-.81.71-1.17,1.47-1.17a4.34,4.34,0,0,1,1.07.14Z"/><path class="cls-1" d="M66.46,35.24a2.54,2.54,0,0,1-1.29.3,1.78,1.78,0,0,1-2-1.95,1.75,1.75,0,0,1,1.74-2c1.39,0,1.79,1,1.79,2.27h-2.6a1,1,0,0,0,1.07.95,2.55,2.55,0,0,0,1.25-.38Zm-.66-2c0-.48-.24-.88-.79-.88a.85.85,0,0,0-.87.88Z"/><path class="cls-1" d="M73.33,35.38a5.14,5.14,0,0,1-1.16.16c-1.65,0-2.8-.82-2.8-2.54a2.53,2.53,0,0,1,2.8-2.72,3.27,3.27,0,0,1,1.15.21l-.07.86a2.12,2.12,0,0,0-1.11-.27,1.83,1.83,0,0,0,0,3.66,2.89,2.89,0,0,0,1.11-.21Z"/><path class="cls-1" d="M77,35.24a2.51,2.51,0,0,1-1.29.3,1.78,1.78,0,0,1-2-1.95,1.76,1.76,0,0,1,1.74-2c1.4,0,1.79,1,1.79,2.27h-2.6a1,1,0,0,0,1.08.95A2.55,2.55,0,0,0,77,34.45Zm-.65-2c0-.48-.25-.88-.8-.88a.86.86,0,0,0-.87.88Z"/><path class="cls-1" d="M78.05,31.7H79v.51h0a1.39,1.39,0,0,1,1.23-.6c.89,0,1.28.63,1.28,1.47v2.38h-1v-2c0-.46,0-1.08-.63-1.08s-.86.77-.86,1.25v1.84h-1Z"/><path class="cls-1" d="M82.83,32.41h-.72V31.7h.72V31l1-.32V31.7h.87v.71H83.8v1.75c0,.33.09.62.46.62a.83.83,0,0,0,.45-.1l0,.78a3,3,0,0,1-.72.08,1.1,1.1,0,0,1-1.19-1.22Z"/><path class="cls-1" d="M88.36,35.24a2.56,2.56,0,0,1-1.29.3,1.79,1.79,0,0,1-2-1.95,1.76,1.76,0,0,1,1.75-2c1.39,0,1.78,1,1.78,2.27H86a1,1,0,0,0,1.07.95,2.62,2.62,0,0,0,1.25-.38Zm-.66-2c0-.48-.25-.88-.79-.88a.85.85,0,0,0-.87.88Z"/><path class="cls-1" d="M89.42,31.7h.87v.85h0a1.16,1.16,0,0,1,1-.94,1,1,0,0,1,.3,0v1a1,1,0,0,0-.43-.08c-.8,0-.8,1-.8,1.54v1.38h-1Z"/><path class="cls-1" d="M35.83,40h-.72v-.71h.72v-.53A1.16,1.16,0,0,1,37,37.47a3.66,3.66,0,0,1,.71.08l-.08.81a.74.74,0,0,0-.42-.13c-.33,0-.43.29-.43.58v.47h.85V40h-.85v3h-1Z"/><path class="cls-1" d="M40,39.19a1.88,1.88,0,0,1,2,2,2,2,0,0,1-3.93,0A1.88,1.88,0,0,1,40,39.19Zm0,3.17c.75,0,.94-.67.94-1.3A1,1,0,0,0,40,40a1,1,0,0,0-.95,1.11C39.09,41.68,39.29,42.36,40,42.36Z"/><path class="cls-1" d="M42.79,39.28h.87v.85h0a1.14,1.14,0,0,1,1-.94,1,1,0,0,1,.29,0v1a1,1,0,0,0-.43-.08c-.8,0-.8,1-.8,1.53V43h-1Z"/><path class="cls-1" d="M47.73,37.94h1v4.29h2V43h-3Z"/><path class="cls-1" d="M51.31,37.66h1v.93h-1Zm0,1.62h1V43h-1Z"/><path class="cls-1" d="M53.67,40H53v-.71h.72v-.53a1.15,1.15,0,0,1,1.2-1.28,3.66,3.66,0,0,1,.71.08l-.08.81a.77.77,0,0,0-.42-.13c-.33,0-.43.29-.43.58v.47h.85V40h-.85v3h-1Z"/><path class="cls-1" d="M59.16,42.82a2.51,2.51,0,0,1-1.29.3,1.79,1.79,0,0,1-2-1.95,1.75,1.75,0,0,1,1.74-2c1.4,0,1.79,1,1.79,2.27h-2.6a1,1,0,0,0,1.08.94A2.45,2.45,0,0,0,59.16,42Zm-.65-2c0-.48-.25-.89-.8-.89a.86.86,0,0,0-.87.89Z"/><path class="cls-1" d="M65.06,38.87a2.8,2.8,0,0,0-1-.21.7.7,0,0,0-.8.7c0,.89,2.23.51,2.23,2.22,0,1.12-.88,1.54-1.91,1.54a4.26,4.26,0,0,1-1.3-.2l.09-.92a2.45,2.45,0,0,0,1.15.32c.39,0,.91-.2.91-.66,0-1-2.23-.57-2.23-2.25,0-1.14.88-1.56,1.78-1.56a3.65,3.65,0,0,1,1.21.19Z"/><path class="cls-1" d="M68.73,40.08a1.52,1.52,0,0,0-.66-.13c-.61,0-1,.48-1,1.18s.33,1.23,1,1.23a2.18,2.18,0,0,0,.75-.17l0,.81a3.38,3.38,0,0,1-1,.12,2,2,0,0,1,0-3.93,3.23,3.23,0,0,1,.95.12Z"/><path class="cls-1" d="M69.55,37.66h1v.93h-1Zm0,1.62h1V43h-1Z"/><path class="cls-1" d="M74.57,42.82a2.51,2.51,0,0,1-1.29.3,1.79,1.79,0,0,1-2-1.95,1.75,1.75,0,0,1,1.74-2c1.4,0,1.79,1,1.79,2.27h-2.6a1,1,0,0,0,1.08.94A2.45,2.45,0,0,0,74.57,42Zm-.65-2c0-.48-.25-.89-.8-.89a.86.86,0,0,0-.87.89Z"/><path class="cls-1" d="M75.62,39.28h.92v.51h0a1.41,1.41,0,0,1,1.23-.6c.89,0,1.28.62,1.28,1.47V43h-1V41c0-.46,0-1.08-.63-1.08s-.87.76-.87,1.24V43h-1Z"/><path class="cls-1" d="M82.51,40.08a1.45,1.45,0,0,0-.66-.13c-.61,0-1,.48-1,1.18s.32,1.23,1,1.23a2.13,2.13,0,0,0,.75-.17l0,.81a3.5,3.5,0,0,1-1,.12,2,2,0,0,1,0-3.93,3.23,3.23,0,0,1,.95.12Z"/><path class="cls-1" d="M86.33,42.82a2.56,2.56,0,0,1-1.29.3,1.79,1.79,0,0,1-2-1.95,1.76,1.76,0,0,1,1.75-2c1.39,0,1.78,1,1.78,2.27H84a1,1,0,0,0,1.07.94A2.52,2.52,0,0,0,86.33,42Zm-.66-2c0-.48-.25-.89-.79-.89a.85.85,0,0,0-.87.89Z"/><rect class="cls-2" x="15.49" y="8.85" width="1.81" height="7.19"/><rect class="cls-2" x="19.89" y="10.56" width="1.46" height="7.19"/><rect class="cls-2" x="17.82" y="9.7" width="1.65" height="7.19"/><rect class="cls-2" x="12.96" y="7.99" width="1.94" height="7.19"/><rect class="cls-2" x="4.06" y="4.34" width="0.86" height="7.19"/><rect class="cls-2" x="21.69" y="11.41" width="1.23" height="7.19"/><rect class="cls-2" x="2.2" y="2.84" width="0.46" height="7.19"/><rect class="cls-2" width="0.25" height="7.19"/><rect class="cls-2" x="10.42" y="7.13" width="1.86" height="7.19"/><rect class="cls-2" x="6.02" y="5.38" width="1.22" height="7.19"/><rect class="cls-2" x="8.1" y="6.26" width="1.56" height="7.19"/><rect class="cls-2" x="24.29" y="13.13" width="0.63" height="7.19"/><path class="cls-2" d="M25,14v7.19c0-.11.23,0,.23,0V14Z"/><rect class="cls-2" x="23.17" y="12.27" width="0.95" height="7.19"/><path class="cls-2" d="M0,21.23a1.66,1.66,0,0,0,.27.85,4,4,0,0,0,.79.88,8.4,8.4,0,0,0,1.14.82c.45.29,1,.57,1.52.85s1.19.57,1.83.85,1.41.58,2.12.85,1.6.59,2.37.85c.93.32,1.82.61,2.58.85s1.64.53,2.57.85c.77.26,1.57.55,2.37.85s1.43.55,2.12.85,1.26.56,1.84.85,1.06.56,1.52.85a8.72,8.72,0,0,1,1.16.85A3.88,3.88,0,0,1,25,34a1.57,1.57,0,0,1,.27.85V27.64a1.57,1.57,0,0,0-.27-.85,3.88,3.88,0,0,0-.76-.85A8.72,8.72,0,0,0,23,25.09c-.46-.29-1-.57-1.52-.85s-1.2-.58-1.84-.85-1.41-.58-2.12-.85S16,22,15.19,21.69c-.93-.32-1.81-.61-2.57-.85S11,20.31,10,20c-.77-.26-1.57-.55-2.37-.85s-1.43-.55-2.12-.85-1.26-.56-1.83-.85-1.07-.56-1.52-.85a8.4,8.4,0,0,1-1.14-.82,4,4,0,0,1-.79-.88A1.66,1.66,0,0,1,0,14Z"/><path class="cls-1" d="M25.23,34.83a1.6,1.6,0,0,1-.27.85,3.92,3.92,0,0,1-.79.88,10,10,0,0,1-1.13.82c-.46.29-1,.57-1.53.85s-1.19.57-1.83.85-1.41.58-2.12.85-1.6.59-2.37.85c-.93.32-1.81.6-2.57.85s-1.65.53-2.58.85c-.77.26-1.57.54-2.37.85s-1.43.55-2.12.85-1.26.55-1.83.85a16.68,16.68,0,0,0-1.53.85A8.72,8.72,0,0,0,1,46.73a3.91,3.91,0,0,0-.76.85,1.64,1.64,0,0,0-.27.85V41.24a1.64,1.64,0,0,1,.27-.85A3.91,3.91,0,0,1,1,39.54a8.72,8.72,0,0,1,1.16-.85,16.68,16.68,0,0,1,1.53-.85c.57-.3,1.19-.58,1.83-.85s1.41-.58,2.12-.85,1.6-.59,2.37-.85c.93-.32,1.82-.61,2.58-.85s1.64-.53,2.57-.85c.77-.26,1.57-.55,2.37-.85s1.43-.56,2.12-.85,1.26-.56,1.83-.85,1.07-.56,1.53-.85a10,10,0,0,0,1.13-.82,3.92,3.92,0,0,0,.79-.88,1.6,1.6,0,0,0,.27-.85Z"/><path class="cls-1" d="M25.23,21.23a1.57,1.57,0,0,1-.27.85,3.72,3.72,0,0,1-.79.88,8.93,8.93,0,0,1-1.13.82c-.46.29-1,.57-1.53.85s-1.19.57-1.83.85-1.41.58-2.12.85-1.6.59-2.37.85c-.93.32-1.81.61-2.57.85s-1.65.53-2.58.85c-.77.26-1.57.55-2.37.85s-1.43.55-2.12.85-1.26.56-1.83.85-1.07.56-1.53.85A8.72,8.72,0,0,0,1,33.13,4.16,4.16,0,0,0,.27,34a1.66,1.66,0,0,0-.27.85V27.64a1.66,1.66,0,0,1,.27-.85A4.16,4.16,0,0,1,1,25.94a8.72,8.72,0,0,1,1.16-.85c.46-.29,1-.57,1.53-.85s1.19-.58,1.83-.85,1.41-.58,2.12-.85S9.27,22,10,21.69c.93-.32,1.82-.61,2.58-.85s1.64-.53,2.57-.85c.77-.26,1.57-.55,2.37-.85s1.43-.55,2.12-.85,1.26-.56,1.83-.85,1.07-.56,1.53-.85a8.93,8.93,0,0,0,1.13-.82,3.72,3.72,0,0,0,.79-.88,1.57,1.57,0,0,0,.27-.85Z"/><rect class="cls-1" x="7.93" y="8.85" width="1.81" height="7.19"/><rect class="cls-1" x="3.89" y="10.56" width="1.46" height="7.19"/><rect class="cls-1" x="5.77" y="9.7" width="1.65" height="7.19"/><rect class="cls-1" x="10.33" y="7.99" width="1.94" height="7.19"/><rect class="cls-1" x="20.32" y="4.34" width="0.86" height="7.19"/><rect class="cls-1" x="2.32" y="11.41" width="1.23" height="7.19"/><rect class="cls-1" x="22.57" y="2.84" width="0.46" height="7.19"/><rect class="cls-1" x="24.98" width="0.25" height="7.19"/><rect class="cls-1" x="12.96" y="7.13" width="1.86" height="7.19"/><rect class="cls-1" x="17.99" y="5.38" width="1.22" height="7.19"/><rect class="cls-1" x="15.58" y="6.26" width="1.56" height="7.19"/><rect class="cls-1" x="0.31" y="13.13" width="0.63" height="7.19"/><path class="cls-1" d="M.23,14v7.19c0-.11-.23,0-.23,0V14Z"/><rect class="cls-1" x="1.11" y="12.27" width="0.95" height="7.19"/></g></g></svg>