<svg xmlns="http://www.w3.org/2000/svg" viewBox="0 0 788.84 356.54"><defs><style>.cls-1{fill:#004098;}.cls-2{fill:#97bdc0;}</style></defs><title>アセット 1</title><g id="レイヤー_2" data-name="レイヤー 2"><g id="レイヤー_1-2" data-name="レイヤー 1"><path class="cls-1" d="M257.15,64.17h34c49.2,0,68.68,28.34,68.68,68.49,0,49.79-33.26,68.88-78.72,68.88h-24Zm13.58,125.56H282c39,0,64.35-15.75,64.35-57.86,0-41.91-25-55.89-55.69-55.89H270.74V189.74Z"/><path class="cls-1" d="M388.46,64.17h32.67c22.44,0,43.49,7.48,43.49,33.85,0,17.51-8.07,27.94-25,31.29v.39c17.32,3.15,29.13,14.57,29.13,32.67,0,29.91-24.41,39.16-52.94,39.16H388.46ZM402,189.74h14.17c18.3,0,39-4.93,39-26.77,0-24.4-21.06-27-41.13-27H402v53.73Zm.39-65.54h15.15c14.37,0,33.46-3.74,33.46-25.58C451,78.74,432.74,76,421.13,76h-18.7Z"/><path class="cls-1" d="M593.36,79.52c-8.66-4.53-21.06-5.9-30.7-5.9C527,73.62,507,98.81,507,132.86c0,34.64,19.48,59.24,55.7,59.24,9,0,22.83-1.18,30.7-5.9l.79,11.81c-7.48,4.53-22.83,5.9-31.49,5.9-43.3,0-69.27-28.54-69.27-71,0-41.72,26.76-71,69.27-71,8.07,0,24.4,1.38,31.49,5.11Z"/><path class="cls-1" d="M629.21,64.17h13.58V189.74h55.1v11.81H629.21Z"/><path class="cls-1" d="M714.05,184c8.07,5.11,17.52,8.07,30.31,8.07,16.93,0,30.9-8.66,30.9-28.15,0-27-63-30.3-63-66.32,0-22,19.29-35.81,43.49-35.81,6.69,0,17.51,1,27,4.53l-2.16,12.4c-6.1-3.35-15.74-5.12-25-5.12-14.17,0-29.72,5.9-29.72,23.62,0,27.55,63,27.75,63,67.89,0,27.75-23.81,38.77-45.07,38.77-13.38,0-23.81-2.75-31.09-5.9Z"/><path class="cls-1" d="M261.84,223.57h10.25c11.49,0,21.63,3.87,21.63,18.74S283.57,261,272.08,261H261.84Zm7.51,31.56h4.19c6.28,0,12.35-4.67,12.35-12.83s-6.07-12.84-12.35-12.84h-4.19v25.66Z"/><path class="cls-1" d="M301.21,234.85a24.74,24.74,0,0,1,9.6-2.09c8.43,0,11.92,3.49,11.92,11.65V248c0,2.79.05,4.88.11,6.92s.16,4,.32,6.17h-6.33a33.07,33.07,0,0,1-.32-4.14h-.11a9.87,9.87,0,0,1-8.53,4.78c-4.88,0-9.66-3-9.66-8.22a8.14,8.14,0,0,1,4.73-7.89c2.73-1.34,6.28-1.61,9.29-1.61h4c0-4.46-2-6-6.23-6a14.45,14.45,0,0,0-8.53,3Zm8.42,21.58a6.11,6.11,0,0,0,5-2.47,9.17,9.17,0,0,0,1.51-5.69h-3.11c-3.22,0-8,.53-8,4.78C305.07,255.41,307.06,256.43,309.63,256.43Z"/><path class="cls-1" d="M332.2,238.66h-5.32V233.4h5.32v-5.53l7.19-2.31v7.84h6.39v5.26h-6.39v12.89c0,2.36.64,4.56,3.38,4.56a6.47,6.47,0,0,0,3.27-.76l.21,5.69a19,19,0,0,1-5.31.65c-5.64,0-8.75-3.49-8.75-9V238.66Z"/><path class="cls-1" d="M352,234.85a24.75,24.75,0,0,1,9.6-2.09c8.43,0,11.92,3.49,11.92,11.65V248c0,2.79.05,4.88.11,6.92s.16,4,.32,6.17h-6.33a32.85,32.85,0,0,1-.32-4.14h-.11a9.87,9.87,0,0,1-8.53,4.78c-4.88,0-9.66-3-9.66-8.22a8.14,8.14,0,0,1,4.73-7.89C356.42,244.24,360,244,363,244h4c0-4.46-2-6-6.23-6a14.45,14.45,0,0,0-8.53,3Zm8.42,21.58a6.12,6.12,0,0,0,5-2.47,9.18,9.18,0,0,0,1.5-5.69h-3.11c-3.22,0-8,.53-8,4.78C355.83,255.41,357.81,256.43,360.39,256.43Z"/><path class="cls-1" d="M380.59,220.79h7.19v16.16h.11a9.69,9.69,0,0,1,8.27-4.19c8.48,0,11.59,6.76,11.59,14.39s-3.12,14.55-11.59,14.55a10.09,10.09,0,0,1-8.48-4h-.11V261h-7V220.79Zm13.58,35.32c4.72,0,6.07-5.16,6.07-9s-1.29-8.81-6-8.81-6.44,4.94-6.44,8.81S389.4,256.11,394.17,256.11Z"/><path class="cls-1" d="M414.65,234.85a24.76,24.76,0,0,1,9.6-2.09c8.43,0,11.92,3.49,11.92,11.65V248c0,2.79.05,4.88.11,6.92s.16,4,.32,6.17h-6.33a33.06,33.06,0,0,1-.32-4.14h-.11a9.87,9.87,0,0,1-8.53,4.78c-4.88,0-9.66-3-9.66-8.22a8.14,8.14,0,0,1,4.73-7.89c2.73-1.34,6.28-1.61,9.28-1.61h4c0-4.46-2-6-6.23-6a14.45,14.45,0,0,0-8.53,3Zm8.42,21.58a6.11,6.11,0,0,0,5-2.47,9.17,9.17,0,0,0,1.51-5.69h-3.12c-3.22,0-8,.53-8,4.78C418.51,255.41,420.5,256.43,423.07,256.43Z"/><path class="cls-1" d="M459.7,239.2a17.57,17.57,0,0,0-6.44-1.18c-1.93,0-4.24.69-4.24,3.06,0,4.39,12.5,1.61,12.5,11.59,0,6.43-5.74,9-11.59,9a32.44,32.44,0,0,1-8.16-1.18l.43-5.91a15.8,15.8,0,0,0,7.08,1.83c1.82,0,4.72-.7,4.72-3.38,0-5.42-12.51-1.71-12.51-11.7,0-6,5.21-8.59,10.84-8.59a33.33,33.33,0,0,1,7.84,1Z"/><path class="cls-1" d="M489.29,259.49a19,19,0,0,1-9.5,2.2c-9.12,0-14.44-5.26-14.44-14.34,0-8,4.24-14.6,12.83-14.6,10.25,0,13.15,7,13.15,16.7H472.22c.32,4.46,3.44,7,7.89,7a18.68,18.68,0,0,0,9.18-2.79v5.85Zm-4.83-15c-.22-3.49-1.82-6.5-5.85-6.5s-6.07,2.79-6.39,6.5Z"/><path class="cls-1" d="M539.83,260.51a38.33,38.33,0,0,1-8.53,1.18c-12.13,0-20.56-6.07-20.56-18.74,0-12.83,7.84-20,20.56-20a24.7,24.7,0,0,1,8.48,1.55l-.54,6.34a15.42,15.42,0,0,0-8.1-2c-7.73,0-12.56,5.9-12.56,13.58s4.72,13.36,12.72,13.36a20.9,20.9,0,0,0,8.22-1.55Z"/><path class="cls-1" d="M566.91,259.49a19,19,0,0,1-9.5,2.2c-9.12,0-14.44-5.26-14.44-14.34,0-8,4.24-14.6,12.83-14.6,10.25,0,13.15,7,13.15,16.7H549.84c.32,4.46,3.43,7,7.89,7a18.66,18.66,0,0,0,9.18-2.79v5.85Zm-4.83-15c-.22-3.49-1.82-6.5-5.85-6.5s-6.07,2.79-6.39,6.5Z"/><path class="cls-1" d="M574.6,233.4h6.82v3.76h.11c2.25-3.17,5.31-4.4,9.07-4.4,6.55,0,9.4,4.62,9.4,10.85V261H592.8V246.28c0-3.38-.05-7.94-4.67-7.94-5.21,0-6.33,5.64-6.33,9.18V261H574.6V233.4Z"/><path class="cls-1" d="M609.79,238.66h-5.32V233.4h5.32v-5.53l7.19-2.31v7.84h6.39v5.26H617v12.89c0,2.36.64,4.56,3.38,4.56a6.47,6.47,0,0,0,3.28-.76l.21,5.69a19,19,0,0,1-5.31.65c-5.64,0-8.75-3.49-8.75-9V238.66Z"/><path class="cls-1" d="M650.49,259.49a19,19,0,0,1-9.5,2.2c-9.12,0-14.44-5.26-14.44-14.34,0-8,4.24-14.6,12.83-14.6,10.25,0,13.15,7,13.15,16.7H633.42c.32,4.46,3.44,7,7.89,7a18.67,18.67,0,0,0,9.18-2.79v5.85Zm-4.83-15c-.22-3.49-1.82-6.5-5.85-6.5s-6.07,2.79-6.39,6.5Z"/><path class="cls-1" d="M658.35,233.4h6.39v6.28h.11c.32-2.57,3.28-6.92,7.57-6.92a7.9,7.9,0,0,1,2.2.21v7.25a7.23,7.23,0,0,0-3.22-.59c-5.85,0-5.85,7.3-5.85,11.27V261h-7.19V233.4Z"/><path class="cls-1" d="M263.82,294.43h-5.31v-5.25h5.31v-3.87c0-5.52,3.11-9.39,8.8-9.39a25.47,25.47,0,0,1,5.26.6l-.59,6a5.62,5.62,0,0,0-3.11-1c-2.42,0-3.17,2.09-3.17,4.24v3.44h6.28v5.25H271v22.39h-7.19V294.43Z"/><path class="cls-1" d="M294.75,288.53c8.21,0,14.49,5.53,14.49,14.65,0,7.95-5.31,14.28-14.49,14.28s-14.44-6.34-14.44-14.28C280.31,294.06,286.59,288.53,294.75,288.53Zm0,23.35c5.52,0,7-4.94,7-9.56,0-4.23-2.26-8.21-7-8.21s-6.92,4.08-6.92,8.21C287.83,306.89,289.28,311.88,294.75,311.88Z"/><path class="cls-1" d="M315.07,289.18h6.39v6.28h.11c.32-2.57,3.27-6.92,7.57-6.92a7.9,7.9,0,0,1,2.2.21V296a7.24,7.24,0,0,0-3.22-.59c-5.85,0-5.85,7.3-5.85,11.27v10.15h-7.19V289.18Z"/><path class="cls-1" d="M351.38,279.35h7.51v31.56h14.54v5.9H351.38Z"/><path class="cls-1" d="M377.75,277.26h7.19v6.87h-7.19Zm0,11.92h7.19v27.64h-7.19Z"/><path class="cls-1" d="M395.15,294.43h-5.31v-5.25h5.31v-3.87c0-5.52,3.11-9.39,8.8-9.39a25.47,25.47,0,0,1,5.26.6l-.59,6a5.62,5.62,0,0,0-3.11-1c-2.41,0-3.16,2.09-3.16,4.24v3.44h6.28v5.25h-6.28v22.39h-7.19V294.43Z"/><path class="cls-1" d="M435.58,315.27a19,19,0,0,1-9.5,2.2c-9.12,0-14.44-5.26-14.44-14.34,0-8,4.24-14.6,12.83-14.6,10.25,0,13.15,7,13.15,16.7H418.52c.32,4.46,3.43,7,7.89,7a18.66,18.66,0,0,0,9.18-2.79Zm-4.83-15c-.22-3.49-1.82-6.5-5.85-6.5s-6.07,2.79-6.39,6.5Z"/><path class="cls-1" d="M479,286.22a19.38,19.38,0,0,0-7.62-1.61c-2.57,0-5.9,1.13-5.9,5.2,0,6.5,16.43,3.76,16.43,16.32,0,8.21-6.5,11.33-14.06,11.33-4.08,0-5.9-.54-9.61-1.46l.7-6.76a18,18,0,0,0,8.48,2.31c2.84,0,6.65-1.45,6.65-4.83,0-7.14-16.43-4.18-16.43-16.58,0-8.38,6.5-11.43,13.1-11.43a28.23,28.23,0,0,1,9,1.34Z"/><path class="cls-1" d="M506,295.13a10.92,10.92,0,0,0-4.89-1c-4.46,0-7.3,3.54-7.3,8.75s2.42,9,7.47,9a15.32,15.32,0,0,0,5.53-1.29l.32,6a23.59,23.59,0,0,1-7.19.91c-9.07,0-13.63-6.18-13.63-14.6,0-8,4.73-14.34,13.37-14.34a23.56,23.56,0,0,1,7,.91Z"/><path class="cls-1" d="M512.09,277.26h7.19v6.87h-7.19Zm0,11.92h7.19v27.64h-7.19Z"/><path class="cls-1" d="M549,315.27a19,19,0,0,1-9.5,2.2c-9.12,0-14.44-5.26-14.44-14.34,0-8,4.24-14.6,12.83-14.6,10.25,0,13.15,7,13.15,16.7H532c.32,4.46,3.43,7,7.89,7a18.68,18.68,0,0,0,9.18-2.79v5.85Zm-4.83-15c-.22-3.49-1.82-6.5-5.85-6.5s-6.07,2.79-6.39,6.5Z"/><path class="cls-1" d="M556.72,289.18h6.82v3.75h.11c2.26-3.17,5.31-4.4,9.07-4.4,6.55,0,9.4,4.61,9.4,10.85v17.44h-7.19V302.06c0-3.38-.05-7.94-4.67-7.94-5.21,0-6.33,5.64-6.33,9.18v13.53h-7.2V289.18Z"/><path class="cls-1" d="M607.47,295.13a10.92,10.92,0,0,0-4.89-1c-4.46,0-7.3,3.54-7.3,8.75s2.42,9,7.47,9a15.31,15.31,0,0,0,5.53-1.29l.32,6a23.59,23.59,0,0,1-7.19.91c-9.07,0-13.63-6.18-13.63-14.6,0-8,4.73-14.34,13.37-14.34a23.57,23.57,0,0,1,7,.91Z"/><path class="cls-1" d="M635.56,315.27a19,19,0,0,1-9.5,2.2c-9.12,0-14.44-5.26-14.44-14.34,0-8,4.24-14.6,12.83-14.6,10.25,0,13.15,7,13.15,16.7H618.49c.32,4.46,3.44,7,7.89,7a18.67,18.67,0,0,0,9.18-2.79v5.85Zm-4.83-15c-.22-3.49-1.82-6.5-5.85-6.5s-6.07,2.79-6.39,6.5Z"/><rect class="cls-2" x="114.06" y="65.14" width="13.36" height="52.93"/><rect class="cls-2" x="146.44" y="77.74" width="10.71" height="52.94"/><rect class="cls-2" x="131.16" y="71.45" width="12.15" height="52.94"/><rect class="cls-2" x="95.39" y="58.85" width="14.29" height="52.93"/><rect class="cls-2" x="29.87" y="31.95" width="6.33" height="52.95"/><rect class="cls-2" x="159.66" y="84.04" width="9.02" height="52.93"/><rect class="cls-2" x="16.21" y="20.88" width="3.39" height="52.93"/><rect class="cls-2" width="1.88" height="52.94"/><rect class="cls-2" x="76.73" y="52.54" width="13.66" height="52.92"/><rect class="cls-2" x="44.33" y="39.62" width="9.02" height="52.93"/><rect class="cls-2" x="59.61" y="46.1" width="11.48" height="52.94"/><rect class="cls-2" x="178.83" y="96.65" width="4.63" height="52.93"/><path class="cls-2" d="M184.08,103.38v52.93c0-.79,1.69,0,1.69,0V103.38Z"/><rect class="cls-2" x="170.56" y="90.34" width="7.02" height="52.93"/><path class="cls-2" d="M0,156.31a11.88,11.88,0,0,0,2,6.27A29.3,29.3,0,0,0,7.83,169a66.41,66.41,0,0,0,8.33,6c3.37,2.11,7.15,4.22,11.2,6.25,4.26,2.15,8.82,4.23,13.53,6.26,5.08,2.17,10.34,4.28,15.58,6.26,5.91,2.23,11.8,4.33,17.43,6.26,6.89,2.35,13.38,4.47,19,6.25s12.09,3.9,19,6.28c5.63,1.91,11.52,4,17.42,6.24,5.25,2,10.51,4.08,15.58,6.27,4.72,2,9.28,4.12,13.54,6.26,4.05,2,7.83,4.13,11.21,6.26a68.53,68.53,0,0,1,8.58,6.25,28.38,28.38,0,0,1,5.57,6.26,11.92,11.92,0,0,1,2,6.26V203.49a11.85,11.85,0,0,0-2-6.25A28.43,28.43,0,0,0,178.2,191a66.87,66.87,0,0,0-8.58-6.26c-3.38-2.12-7.15-4.21-11.21-6.26-4.26-2.15-8.82-4.23-13.54-6.25-5.08-2.19-10.33-4.29-15.58-6.27-5.91-2.23-11.79-4.32-17.42-6.25-6.89-2.36-13.38-4.46-19-6.26s-12.09-3.89-19-6.26c-5.63-1.93-11.52-4-17.43-6.26-5.25-2-10.5-4.07-15.58-6.25-4.71-2-9.27-4.11-13.53-6.26-4-2-7.83-4.14-11.2-6.26a67.31,67.31,0,0,1-8.33-6A29,29,0,0,1,2,109.63a11.8,11.8,0,0,1-2-6.25Z"/><path class="cls-1" d="M185.77,256.43a11.8,11.8,0,0,1-2,6.25,28.73,28.73,0,0,1-5.83,6.49,69.53,69.53,0,0,1-8.33,6c-3.38,2.1-7.15,4.21-11.21,6.25-4.25,2.14-8.81,4.22-13.53,6.26-5.08,2.17-10.33,4.27-15.58,6.26-5.91,2.23-11.8,4.32-17.43,6.25-6.9,2.36-13.38,4.47-19,6.26s-12.09,3.89-19,6.26c-5.62,1.93-11.51,4-17.42,6.26-5.25,2-10.5,4.07-15.58,6.25-4.71,2-9.27,4.11-13.53,6.26-4.05,2-7.83,4.14-11.21,6.27A68.76,68.76,0,0,0,7.57,344,28.91,28.91,0,0,0,2,350.29a11.9,11.9,0,0,0-2,6.25V303.61a12,12,0,0,1,2-6.26,28.67,28.67,0,0,1,5.57-6.25,67.63,67.63,0,0,1,8.59-6.28c3.38-2.11,7.15-4.22,11.21-6.25,4.26-2.15,8.82-4.23,13.53-6.26,5.08-2.17,10.34-4.28,15.58-6.26,5.91-2.23,11.8-4.33,17.42-6.26,6.9-2.35,13.39-4.47,19-6.25s12.09-3.9,19-6.26c5.62-1.93,11.52-4,17.43-6.26,5.25-2,10.5-4.08,15.58-6.25,4.72-2,9.28-4.12,13.53-6.26,4.05-2,7.83-4.15,11.21-6.26a70.33,70.33,0,0,0,8.33-6,28.74,28.74,0,0,0,5.83-6.49,11.87,11.87,0,0,0,2-6.26Z"/><path class="cls-1" d="M185.77,156.31a11.88,11.88,0,0,1-2,6.27,29.08,29.08,0,0,1-5.83,6.47,67.7,67.7,0,0,1-8.33,6c-3.38,2.11-7.15,4.22-11.21,6.25-4.25,2.15-8.81,4.23-13.53,6.26-5.08,2.17-10.33,4.28-15.58,6.26-5.91,2.23-11.8,4.33-17.43,6.26-6.9,2.35-13.38,4.47-19,6.25s-12.09,3.9-19,6.28c-5.62,1.91-11.51,4-17.42,6.24-5.25,2-10.5,4.08-15.58,6.27-4.71,2-9.27,4.12-13.53,6.26-4.05,2-7.83,4.13-11.21,6.26a68.66,68.66,0,0,0-8.59,6.25A28.88,28.88,0,0,0,2,250.17a12,12,0,0,0-2,6.26V203.49a11.92,11.92,0,0,1,2-6.25A28.91,28.91,0,0,1,7.57,191a66.93,66.93,0,0,1,8.59-6.26c3.38-2.12,7.15-4.21,11.21-6.26,4.26-2.15,8.82-4.23,13.53-6.27,5.08-2.17,10.34-4.27,15.58-6.26,5.91-2.23,11.8-4.32,17.42-6.25,6.9-2.36,13.39-4.46,19-6.26s12.09-3.89,19-6.26c5.62-1.93,11.52-4,17.43-6.26,5.25-2,10.5-4.07,15.58-6.25,4.72-2,9.28-4.11,13.53-6.26,4.05-2,7.83-4.14,11.21-6.26a68.35,68.35,0,0,0,8.33-6,28.77,28.77,0,0,0,5.83-6.49,11.8,11.8,0,0,0,2-6.25Z"/><rect class="cls-1" x="58.36" y="65.14" width="13.35" height="52.93"/><rect class="cls-1" x="28.62" y="77.74" width="10.71" height="52.94"/><rect class="cls-1" x="42.46" y="71.45" width="12.15" height="52.94"/><rect class="cls-1" x="76.09" y="58.85" width="14.3" height="52.93"/><rect class="cls-1" x="149.57" y="31.95" width="6.33" height="52.95"/><rect class="cls-1" x="17.09" y="84.04" width="9.03" height="52.93"/><rect class="cls-1" x="166.17" y="20.88" width="3.39" height="52.93"/><rect class="cls-1" x="183.89" width="1.88" height="52.94"/><rect class="cls-1" x="95.39" y="52.54" width="13.66" height="52.92"/><rect class="cls-1" x="132.42" y="39.62" width="9.02" height="52.93"/><rect class="cls-1" x="114.68" y="46.1" width="11.49" height="52.94"/><rect class="cls-1" x="2.32" y="96.65" width="4.63" height="52.93"/><path class="cls-1" d="M1.69,103.38v52.93c0-.79-1.69,0-1.69,0V103.38Z"/><rect class="cls-1" x="8.19" y="90.34" width="7.03" height="52.93"/></g></g></svg>