<svg xmlns="http://www.w3.org/2000/svg" width="88.844" height="102.115" viewBox="0 0 88.844 102.115">
  <g id="Group_1140" data-name="Group 1140" transform="translate(-2960.389 -147)">
    <g id="Group_1139" data-name="Group 1139">
      <path id="Path_2803" data-name="Path 2803" d="M2960.4,197.974q0-12.375-.011-24.749a1.347,1.347,0,0,1,.79-1.306c3.269-1.877,6.52-3.787,9.784-5.672,2.876-1.661,5.765-3.3,8.641-4.958,3.121-1.8,6.227-3.632,9.35-5.432,3.443-1.983,6.9-3.941,10.344-5.92,1.514-.87,3.032-1.735,4.514-2.657.915-.57,1.636-.163,2.4.281,2.093,1.218,4.193,2.424,6.29,3.635q2.54,1.464,5.076,2.931,2.748,1.593,5.491,3.2,3.94,2.29,7.884,4.576c2.529,1.457,5.069,2.892,7.6,4.346q5.051,2.9,10.093,5.819a1.24,1.24,0,0,1,.585,1.227q-.016,15.222-.008,30.445,0,9.526.006,19.053a1.315,1.315,0,0,1-.747,1.244c-2.334,1.341-4.655,2.7-6.987,4.047-2.349,1.355-4.709,2.692-7.058,4.048-2.048,1.182-4.083,2.387-6.132,3.569s-4.1,2.339-6.145,3.519-4.083,2.386-6.131,3.568-4.1,2.34-6.145,3.517c-1.514.871-3.021,1.754-4.528,2.636a.967.967,0,0,1-1.126-.007c-3.968-2.315-7.965-4.578-11.945-6.872-3.414-1.969-6.814-3.964-10.225-5.938-2.346-1.358-4.7-2.7-7.052-4.051-2.527-1.459-5.046-2.932-7.573-4.39-2.045-1.18-4.091-2.359-6.152-3.511a1.485,1.485,0,0,1-.9-1.446Q2960.422,210.348,2960.4,197.974Zm66.867,36.987.006.092.107-.06q2.428-1.4,4.857-2.8c1.814-1.05,3.623-2.11,5.441-3.154,2.05-1.176,4.111-2.332,6.16-3.509,1.426-.819,2.839-1.658,4.279-2.5l-20.87-12.048v.772q0,8.064,0,16.128C3027.252,230.24,3027.263,232.6,3027.27,234.961Zm-31.294-19.847c.651-.358,1.308-.7,1.95-1.076,2.545-1.471,5.082-2.955,7.628-4.424,2.851-1.645,5.712-3.272,8.559-4.923a5.307,5.307,0,0,0,1.61-1.123,28.486,28.486,0,0,0,2.467-3.7,15.594,15.594,0,0,0,1.788-9.839,28.112,28.112,0,0,0-1.378-5.157,17.476,17.476,0,0,0-2.985-5.182l-20.981,12.11c.208.276.383.505.554.736s.335.468.505.7a17.528,17.528,0,0,1,3.4,8.717,17.8,17.8,0,0,1-.918,8.046c-.644,1.72-1.519,3.352-2.29,5.024l-.158.148.036.067Zm-.012,25.306c.2-.1.412-.18.6-.291,1.516-.872,3.027-1.753,4.544-2.624,2.039-1.171,4.083-2.332,6.122-3.5,2.085-1.2,4.149-2.434,6.254-3.6a9.2,9.2,0,0,0,3.444-3.034,17.371,17.371,0,0,0,3.11-11.09,21.754,21.754,0,0,0-1.449-6.159,19.606,19.606,0,0,0-2.98-5.122L2994.647,217.1c.223.318.421.628.647.916a18.22,18.22,0,0,1,2.878,17.3c-.642,1.716-1.514,3.345-2.283,5.013l-.166.153.043.072Zm52.139-42.795c.009-.21.026-.42.026-.63,0-7.784-.007-15.567.019-23.351a1.041,1.041,0,0,0-.659-1.035c-.97-.533-1.942-1.065-2.9-1.62-2.35-1.363-4.688-2.748-7.041-4.108-1.741-1.007-3.5-1.978-5.244-2.985-2.351-1.36-4.69-2.743-7.038-4.109q-2.691-1.567-5.393-3.118-3-1.729-5.994-3.457-2.667-1.539-5.337-3.075c-1.045-.6-2.093-1.2-3.17-1.817a1.967,1.967,0,0,0-.041.245q0,11.707-.015,23.414a.743.743,0,0,0,.489.7c1.194.689,2.406,1.349,3.6,2.041,2.477,1.438,4.943,2.9,7.418,4.336,3.239,1.885,6.472,3.782,9.735,5.625a1.249,1.249,0,0,1,.724,1.167c-.01.125-.03.251-.03.376q0,11.541,0,23.081c0,.113.016.226.029.409l1.877-1.077q4.05-2.329,8.1-4.661c2.3-1.326,4.6-2.647,6.9-3.986C3045.481,199.218,3046.788,198.415,3048.1,197.625Zm-86.588-24.013v36.032q0,6.423-.007,12.845a.807.807,0,0,0,.47.836c2.6,1.473,5.181,2.986,7.768,4.486q3.66,2.122,7.323,4.244,4.1,2.364,8.216,4.715c2.517,1.446,5.026,2.906,7.552,4.338.953.54.961.505,1.6-.458a21.938,21.938,0,0,0,3.462-8.4,14.6,14.6,0,0,0-.082-5.769,21,21,0,0,0-4.115-8.778,1.02,1.02,0,0,1,0-1.409,20.582,20.582,0,0,0,4.3-10.131,15.442,15.442,0,0,0-.228-5.146,20.9,20.9,0,0,0-2.405-6.194c-.735-1.278-1.411-2.646-2.857-3.342-.54-.26-1.063-.557-1.582-.859-2.344-1.363-4.68-2.741-7.027-4.1-1.757-1.016-3.53-2-5.287-3.019-2.045-1.181-4.078-2.38-6.12-3.566q-2.682-1.559-5.372-3.1C2965.292,175.778,2963.461,174.73,2961.515,173.612Zm21.91-12.648V168.2q0,8.16-.008,16.321a.8.8,0,0,0,.46.844c1.118.6,2.2,1.258,3.3,1.891,2.1,1.211,4.2,2.428,6.32,3.615a.842.842,0,0,0,.7-.039q2.651-1.473,5.272-3c2.054-1.188,4.094-2.4,6.151-3.584,2.352-1.354,4.717-2.684,7.072-4.032.646-.37,1.276-.768,1.992-1.2Zm34.262,19.762c4.756,8.238,4.857,16.1-1.174,23.584,5.726,8.417,6.641,16.818.086,25.256l9.637,5.561v-.91q0-23.2,0-46.392a4.924,4.924,0,0,0-.1-2.113c-.269-.506-1.1-.713-1.683-1.052-.017-.01-.024-.037-.042-.047Zm-55.725-8.024,20.364,11.754V160.95Zm21.958-12.673,20.358,11.752V148.273Zm41.745,75.965c-.156-.114-.219-.17-.291-.211-3.082-1.784-6.161-3.573-9.258-5.331a.946.946,0,0,0-.78.072q-8.089,4.635-16.16,9.306c-1.412.815-2.823,1.633-4.275,2.474,3.159,1.825,6.256,3.6,9.338,5.409a1.02,1.02,0,0,0,1.186-.012q7.179-4.175,14.379-8.313C3021.732,238.274,3023.657,237.156,3025.665,235.994Zm22.434-13.6v-23.45l-20.31,11.725Z" fill="#020202"/>
      <path id="Path_2804" data-name="Path 2804" d="M2961.515,173.612c1.946,1.118,3.777,2.166,5.605,3.218q2.688,1.548,5.372,3.1c2.042,1.186,4.075,2.385,6.12,3.566,1.757,1.015,3.53,2,5.287,3.019,2.347,1.359,4.683,2.737,7.027,4.1.519.3,1.042.6,1.582.859,1.446.7,2.122,2.064,2.857,3.342a20.9,20.9,0,0,1,2.405,6.194,15.442,15.442,0,0,1,.228,5.146,20.582,20.582,0,0,1-4.3,10.131,1.02,1.02,0,0,0,0,1.409,21,21,0,0,1,4.115,8.778,14.6,14.6,0,0,1,.082,5.769,21.938,21.938,0,0,1-3.462,8.4c-.64.963-.648,1-1.6.458-2.526-1.432-5.035-2.892-7.552-4.338q-4.107-2.359-8.216-4.715-3.668-2.113-7.323-4.244c-2.587-1.5-5.166-3.013-7.768-4.486a.807.807,0,0,1-.47-.836q.016-6.423.007-12.845V173.612Z" fill="#ccc"/>
      <path id="Path_2805" data-name="Path 2805" d="M3027.281,185.849a1.249,1.249,0,0,0-.724-1.167c-3.263-1.843-6.5-3.74-9.735-5.625-2.475-1.441-4.941-2.9-7.418-4.336-1.192-.692-2.4-1.352-3.6-2.041a.743.743,0,0,1-.489-.7q.026-11.706.015-23.414a1.967,1.967,0,0,1,.041-.245c1.077.617,2.125,1.215,3.17,1.817q2.67,1.536,5.337,3.075,3,1.728,5.994,3.457,2.7,1.557,5.393,3.118c2.348,1.366,4.687,2.749,7.038,4.109,1.741,1.007,3.5,1.978,5.244,2.985,2.353,1.36,4.691,2.745,7.041,4.108.957.555,1.929,1.087,2.9,1.62a1.041,1.041,0,0,1,.659,1.035c-.026,7.784-.017,15.567-.019,23.351,0,.21-.017.42-.026.63q-2.651-1.517-5.3-3.035-7.023-4.045-14.046-8.089A14.8,14.8,0,0,0,3027.281,185.849Z" fill="#f3fdf3"/>
      <path id="Path_2806" data-name="Path 2806" d="M2995.889,240.332c.769-1.668,1.641-3.3,2.283-5.013a18.22,18.22,0,0,0-2.878-17.3c-.226-.288-.424-.6-.647-.916L3015.614,205a19.606,19.606,0,0,1,2.98,5.122,21.754,21.754,0,0,1,1.449,6.159,17.371,17.371,0,0,1-3.11,11.09,9.2,9.2,0,0,1-3.444,3.034c-2.1,1.163-4.169,2.4-6.254,3.6-2.039,1.172-4.083,2.333-6.122,3.5-1.517.871-3.028,1.752-4.544,2.624-.193.111-.4.194-.6.291A.91.91,0,0,0,2995.889,240.332Z" fill="#cce6e6"/>
      <path id="Path_2807" data-name="Path 2807" d="M2995.885,215.018c.771-1.672,1.646-3.3,2.29-5.024a17.8,17.8,0,0,0,.918-8.046,17.528,17.528,0,0,0-3.4-8.717c-.17-.232-.334-.468-.505-.7s-.346-.46-.554-.736l20.981-12.11a17.476,17.476,0,0,1,2.985,5.182,28.112,28.112,0,0,1,1.378,5.157,15.594,15.594,0,0,1-1.788,9.839,28.486,28.486,0,0,1-2.467,3.7,5.307,5.307,0,0,1-1.61,1.123c-2.847,1.651-5.708,3.278-8.559,4.923-2.546,1.469-5.083,2.953-7.628,4.424-.642.372-1.3.718-1.95,1.076Z" fill="#e6cccc"/>
      <path id="Path_2808" data-name="Path 2808" d="M2983.425,160.964l31.26,18.049c-.716.433-1.346.831-1.992,1.2-2.355,1.348-4.72,2.678-7.072,4.032-2.057,1.184-4.1,2.4-6.151,3.584q-2.625,1.52-5.272,3a.842.842,0,0,1-.7.039c-2.117-1.187-4.216-2.4-6.32-3.615-1.1-.633-2.186-1.291-3.3-1.891a.8.8,0,0,1-.46-.844q.018-8.162.008-16.321Z" fill="#fff"/>
      <path id="Path_2809" data-name="Path 2809" d="M3017.687,180.726l6.727,3.887c.018.01.025.037.042.047.583.339,1.414.546,1.683,1.052a4.924,4.924,0,0,1,.1,2.113q0,23.2,0,46.392v.91l-9.637-5.561c6.555-8.438,5.64-16.839-.086-25.256C3022.544,196.827,3022.443,188.964,3017.687,180.726Z" fill="#fff"/>
      <path id="Path_2810" data-name="Path 2810" d="M3027.27,234.961c-.007-2.36-.018-4.721-.019-7.082q0-8.064,0-16.128v-.772l20.87,12.048c-1.44.843-2.853,1.682-4.279,2.5-2.049,1.177-4.11,2.333-6.16,3.509-1.818,1.044-3.627,2.1-5.441,3.154q-2.427,1.4-4.857,2.8A.112.112,0,0,0,3027.27,234.961Z" fill="#e6e6e6"/>
      <path id="Path_2811" data-name="Path 2811" d="M3027.281,185.849a14.8,14.8,0,0,1,1.476.652q7.031,4.032,14.046,8.089,2.646,1.524,5.3,3.035c-1.315.79-2.622,1.593-3.947,2.366-2.294,1.339-4.6,2.66-6.9,3.986q-4.048,2.332-8.1,4.661l-1.877,1.077c-.013-.183-.029-.3-.029-.409q0-11.541,0-23.081C3027.251,186.1,3027.271,185.974,3027.281,185.849Z" fill="#e6e6e6"/>
      <path id="Path_2812" data-name="Path 2812" d="M2961.962,172.7l20.364-11.752v23.506Z" fill="#fdfdf3"/>
      <path id="Path_2813" data-name="Path 2813" d="M2983.92,160.029l20.358-11.756v23.508Z" fill="#fdfdf3"/>
      <path id="Path_2814" data-name="Path 2814" d="M3025.665,235.994c-2.008,1.162-3.933,2.28-5.861,3.394q-7.192,4.152-14.379,8.313a1.02,1.02,0,0,1-1.186.012c-3.082-1.806-6.179-3.584-9.338-5.409,1.452-.841,2.863-1.659,4.275-2.474q8.078-4.66,16.16-9.306a.946.946,0,0,1,.78-.072c3.1,1.758,6.176,3.547,9.258,5.331C3025.446,235.824,3025.509,235.88,3025.665,235.994Z" fill="gray"/>
      <path id="Path_2815" data-name="Path 2815" d="M3048.1,222.4l-20.31-11.725,20.31-11.725Z" fill="#f3fdf3"/>
      <path id="Path_2816" data-name="Path 2816" d="M2995.976,215.114l-.213.119-.036-.067.158-.148Z" fill="#e6cccc"/>
      <path id="Path_2817" data-name="Path 2817" d="M2995.964,240.42l-.2.137-.043-.072.166-.153A.91.91,0,0,1,2995.964,240.42Z" fill="#cce6e6"/>
      <path id="Path_2818" data-name="Path 2818" d="M3027.27,234.961a.112.112,0,0,1,.113.032l-.107.06Z" fill="#b0b0b0"/>
    </g>
  </g>
</svg>
