<?xml version="1.0" encoding="UTF-8"?><svg id="_レイヤー_2" xmlns="http://www.w3.org/2000/svg" viewBox="0 0 180 64.05"><defs><style>.cls-1{fill:#f8b310;}.cls-2{fill:#00b2de;}.cls-3{fill:#007cc4;}.cls-4{fill:#ea5527;}.cls-5{fill:#e61258;}.cls-6{fill:#fff;}.cls-7{fill:#f08208;}.cls-8{fill:#6d276e;}.cls-9{fill:#86328e;}.cls-10{fill:#bb0383;}.cls-11{fill:#c26c0c;}.cls-12{fill:#bb4623;}.cls-13{fill:#cddb1e;}.cls-14{fill:#b5114b;}.cls-15{fill:#444;}.cls-16{fill:#3f3e7c;}.cls-17{fill:#9d0666;}.cls-18{fill:#4d4b9d;}</style></defs><g id="_レイヤー_1-2"><g><path class="cls-13" d="M34.95,0C17.16,0,2.51,10.47,.21,27.63L45.84,1.26c-3.14-.63-6.49-1.26-10.88-1.26Z"/><path class="cls-1" d="M45.84,1.26L.21,27.63c0,1.47-.21,2.93-.21,4.4,0,2.09,.21,4.19,.63,6.07L57.14,5.44c-3.35-1.26-6.7-2.93-11.3-4.19Z"/><path class="cls-7" d="M64.67,6.91c-2.93,0-5.23-.63-7.74-1.47L.42,38.09c.63,3.14,1.47,6.07,2.93,8.79L80.37,2.3c-5.86,1.88-9.84,4.6-15.7,4.6Z"/><path class="cls-4" d="M94.6,0c-6.07,0-10.47,1.05-14.23,2.3L3.35,46.67c1.47,2.72,3.35,5.23,5.44,7.53L101.72,.63c-2.3-.42-4.6-.63-7.12-.63Z"/><path class="cls-5" d="M101.72,.63L8.79,54.21c2.3,2.3,5.02,4.19,7.95,5.65L113.02,4.4c-3.35-1.88-7.33-3.14-11.3-3.77Z"/><path class="cls-10" d="M113.02,4.4L16.74,59.86c3.56,1.88,7.53,3.14,11.93,3.77L120.98,10.26c-2.3-2.3-4.81-4.4-7.95-5.86Z"/><path class="cls-9" d="M120.98,10.26L28.88,63.63c1.88,.21,3.98,.42,6.07,.42,7.33,0,12.14-1.47,16.33-2.93L126.21,17.58c-1.26-2.72-3.14-5.02-5.23-7.33Z"/><path class="cls-18" d="M126.21,17.58L51.28,60.91c4.81-1.88,8.58-3.98,13.6-3.98,3.14,0,5.65,.84,8.37,1.88l55.88-32.23c-.63-3.14-1.47-6.28-2.93-9Z"/><path class="cls-3" d="M129.14,26.58l-56.09,32.44c3.14,1.26,6.49,2.93,11.09,3.98l45-25.95c.21-1.67,.42-3.14,.42-5.02s-.21-3.56-.42-5.44Z"/><path class="cls-2" d="M94.6,64.05c17.58,0,32.02-10.26,34.53-27l-45,25.74c2.93,.84,6.28,1.26,10.47,1.26Z"/></g><g><path class="cls-11" d="M64.67,6.91c-9.21,0-17.16,6.7-20.3,16.12l26.16-15.07c-1.67-.63-3.77-1.05-5.86-1.05Z"/><path class="cls-12" d="M70.74,7.95l-26.37,15.07c-.84,2.72-1.47,5.86-1.47,9v2.3L79.12,13.4c-2.3-2.51-5.23-4.4-8.37-5.44Z"/><path class="cls-14" d="M79.33,13.4l-36.21,20.93c.21,3.14,1.05,6.28,2.3,9l38.93-22.4c-1.26-2.72-2.93-5.44-5.02-7.53Z"/><path class="cls-17" d="M84.35,20.93l-38.93,22.6c1.26,2.93,3.14,5.44,5.23,7.53l35.79-20.72c-.21-3.35-1.05-6.49-2.09-9.42Z"/><path class="cls-8" d="M86.44,30.35l-35.79,20.72c2.51,2.51,5.44,4.4,8.79,5.23l25.53-14.65c1.05-2.93,1.67-6.07,1.67-9.63-.21-.63-.21-1.05-.21-1.67Z"/><path class="cls-16" d="M64.67,57.14c9,0,16.95-6.49,20.09-15.49l-25.53,14.65c1.88,.42,3.56,.84,5.44,.84Z"/></g><g><path class="cls-6" d="M22.4,44.16h-6.28V25.33h-5.23v-5.44H27.63v5.23h-5.23v19.05Z"/><path class="cls-6" d="M58.6,31.6c0,7.74-5.65,13.4-13.4,13.4s-13.4-5.44-13.4-13.4c0-7.33,6.49-12.56,13.4-12.56s13.4,5.23,13.4,12.56Z"/><path class="cls-6" d="M88.95,30.56c0,3.56-.42,6.49-2.51,9.63-2.3,3.35-5.86,4.81-10.05,4.81-7.53,0-12.98-5.23-12.98-12.77,0-7.95,5.23-12.98,13.19-12.98,5.02,0,8.79,2.3,10.88,6.7l-5.86,2.51c-.84-2.3-2.72-3.77-5.23-3.77-4.19,0-6.28,3.98-6.28,7.74s2.3,7.53,6.49,7.53c2.72,0,4.81-1.47,5.02-4.19h-5.23v-5.02h12.56v-.21Z"/><path class="cls-6" d="M120.56,31.6c0,7.74-5.65,13.4-13.4,13.4s-13.4-5.44-13.4-13.4c0-7.33,6.49-12.56,13.4-12.56s13.4,5.23,13.4,12.56Z"/></g><g><path class="cls-15" d="M134.79,19.88h9c6.7,0,12.35,5.23,12.35,12.14s-5.65,11.93-12.56,11.93h-9V19.88h.21Zm6.28,18.84h1.47c3.77,0,6.91-2.09,6.91-6.7s-2.93-6.7-6.91-6.7h-1.47v13.4Z"/><path class="cls-15" d="M155.72,19.88h7.74l3.77,6.28,3.77-6.28h7.74l-7.74,11.3,9,12.98h-7.53l-5.02-7.95-5.86,7.74h-7.53l9.42-12.98-7.74-11.09Z"/></g></g></svg>