<svg xmlns="http://www.w3.org/2000/svg" viewBox="0 0 51.47 20"><defs><style>.cls-1,.cls-3{fill:#fff;}.cls-2,.cls-3{opacity:0.5;}</style></defs><title>アートボード 103-3</title><g id="レイヤー_10" data-name="レイヤー 10"><path class="cls-1" d="M15.82,5.58h2.61c2.62,0,4.71,1.62,4.71,4.34,0,3-1.8,4.5-4.71,4.5H15.82Zm1.27,7.73h1.33c2.18,0,3.38-1.05,3.38-3.33A3.08,3.08,0,0,0,18.57,6.7H17.09Z"/><path class="cls-1" d="M25,5.58h2.39c1.84,0,3.1.6,3.1,2.23a2,2,0,0,1-1.82,2.1v0a2.07,2.07,0,0,1,2.05,2.13c0,1.9-1.57,2.36-3.37,2.36H25Zm1.27,3.77h.7c1.23,0,2.27-.11,2.27-1.42,0-1.05-.9-1.32-1.63-1.32H26.23Zm0,4h1c1.14,0,2.17-.24,2.17-1.43,0-1.37-1.2-1.56-2.29-1.56h-.82Z"/><path class="cls-1" d="M38.89,7a3.55,3.55,0,0,0-1.82-.49A3.28,3.28,0,0,0,33.67,10,3.3,3.3,0,0,0,37,13.46,4.36,4.36,0,0,0,38.93,13L39,14.26a5.52,5.52,0,0,1-2,.32A4.36,4.36,0,0,1,32.33,10,4.41,4.41,0,0,1,37,5.43a4.88,4.88,0,0,1,2,.38Z"/><path class="cls-1" d="M40.51,5.58h1.27v7.73h3.7v1.11h-5Z"/><path class="cls-1" d="M50.87,6.91a3.89,3.89,0,0,0-1.66-.37c-.71,0-1.54.25-1.54,1.18,0,1.7,3.8,1.3,3.8,4.22,0,1.89-1.46,2.63-3.23,2.63a5.92,5.92,0,0,1-1.81-.37L46.56,13a5.37,5.37,0,0,0,1.84.43A1.58,1.58,0,0,0,50.13,12c0-2-3.8-1.43-3.8-4.18,0-1.57,1.24-2.41,2.84-2.41a5.9,5.9,0,0,1,1.89.32Z"/><g class="cls-2"><rect class="cls-1" x="6.4" y="3.65" width="0.75" height="2.97"/><rect class="cls-1" x="8.21" y="4.36" width="0.6" height="2.97"/><rect class="cls-1" x="7.36" y="4.01" width="0.68" height="2.97"/><rect class="cls-1" x="5.35" y="3.3" width="0.8" height="2.97"/><rect class="cls-1" x="1.68" y="1.79" width="0.36" height="2.97"/><rect class="cls-1" x="8.96" y="4.71" width="0.51" height="2.97"/><rect class="cls-1" x="0.91" y="1.17" width="0.19" height="2.97"/><rect class="cls-1" width="0.11" height="2.97"/><rect class="cls-1" x="4.3" y="2.95" width="0.77" height="2.97"/><rect class="cls-1" x="2.49" y="2.22" width="0.51" height="2.97"/><rect class="cls-1" x="3.34" y="2.59" width="0.64" height="2.97"/><rect class="cls-1" x="10.03" y="5.42" width="0.26" height="2.97"/><path class="cls-1" d="M10.33,5.8v3s.09,0,.09,0v-3Z"/><rect class="cls-1" x="9.57" y="5.07" width="0.39" height="2.97"/></g><path class="cls-3" d="M0,8.77a.67.67,0,0,0,.11.35,1.64,1.64,0,0,0,.33.36,3.78,3.78,0,0,0,.47.34c.19.12.4.24.63.35l.76.35.87.35,1,.35,1.06.35,1.06.35,1,.35.87.35.76.35c.23.11.44.23.63.35a3.85,3.85,0,0,1,.48.35,1.6,1.6,0,0,1,.31.35.67.67,0,0,1,.11.35v-3a.66.66,0,0,0-.11-.35,1.6,1.6,0,0,0-.31-.35,3.78,3.78,0,0,0-.48-.35c-.19-.12-.4-.24-.63-.35s-.49-.24-.76-.35l-.87-.35L6.28,9,5.21,8.61,4.15,8.26l-1-.35-.87-.35L1.54,7.2C1.31,7.09,1.1,7,.91,6.85a3.78,3.78,0,0,1-.47-.34,1.63,1.63,0,0,1-.33-.36A.66.66,0,0,1,0,5.8Z"/><path class="cls-1" d="M10.42,14.38a.66.66,0,0,1-.11.35,1.62,1.62,0,0,1-.33.36,4,4,0,0,1-.47.34c-.19.12-.4.24-.63.35l-.76.35-.87.35-1,.35-1.06.35-1.07.35-1,.35-.87.35-.76.35c-.23.11-.44.23-.63.35a3.78,3.78,0,0,0-.48.35,1.62,1.62,0,0,0-.31.35A.67.67,0,0,0,0,20V17a.67.67,0,0,1,.11-.35,1.6,1.6,0,0,1,.31-.35A3.86,3.86,0,0,1,.91,16c.19-.12.4-.24.63-.35l.76-.35.87-.35,1-.35,1.07-.35,1.06-.35,1-.35.87-.35.76-.35c.23-.11.44-.23.63-.35a4,4,0,0,0,.47-.34,1.62,1.62,0,0,0,.33-.36.66.66,0,0,0,.11-.35Z"/><path class="cls-1" d="M10.42,8.77a.67.67,0,0,1-.11.35,1.63,1.63,0,0,1-.33.36,3.86,3.86,0,0,1-.47.34c-.19.12-.4.24-.63.35l-.76.35-.87.35-1,.35-1.06.35-1.07.35-1,.35-.87.35L1.54,13c-.23.11-.44.23-.63.35a3.86,3.86,0,0,0-.48.35A1.62,1.62,0,0,0,.11,14a.67.67,0,0,0-.11.35v-3a.67.67,0,0,1,.11-.35,1.62,1.62,0,0,1,.31-.35,3.78,3.78,0,0,1,.48-.35c.19-.12.4-.24.63-.35s.49-.24.76-.35l.87-.35,1-.35,1.07-.35,1.06-.35,1-.35.87-.35.76-.35c.23-.11.44-.23.63-.35A3.86,3.86,0,0,0,10,6.51a1.62,1.62,0,0,0,.33-.36.66.66,0,0,0,.11-.35Z"/><rect class="cls-1" x="3.27" y="3.65" width="0.75" height="2.97"/><rect class="cls-1" x="1.61" y="4.36" width="0.6" height="2.97"/><rect class="cls-1" x="2.38" y="4.01" width="0.68" height="2.97"/><rect class="cls-1" x="4.27" y="3.3" width="0.8" height="2.97"/><rect class="cls-1" x="8.39" y="1.79" width="0.36" height="2.97"/><rect class="cls-1" x="0.96" y="4.71" width="0.51" height="2.97"/><rect class="cls-1" x="9.32" y="1.17" width="0.19" height="2.97"/><rect class="cls-1" x="10.32" width="0.11" height="2.97"/><rect class="cls-1" x="5.35" y="2.95" width="0.77" height="2.97"/><rect class="cls-1" x="7.43" y="2.22" width="0.51" height="2.97"/><rect class="cls-1" x="6.43" y="2.59" width="0.64" height="2.97"/><rect class="cls-1" x="0.13" y="5.42" width="0.26" height="2.97"/><path class="cls-1" d="M.09,5.8v3s-.09,0-.09,0v-3Z"/><rect class="cls-1" x="0.46" y="5.07" width="0.39" height="2.97"/></g></svg>