<?xml version="1.0" encoding="utf-8"?>
<!-- Generator: Adobe Illustrator 23.0.1, SVG Export Plug-In . SVG Version: 6.00 Build 0)  -->
<svg version="1.1" id="レイヤー_1" xmlns="http://www.w3.org/2000/svg" xmlns:xlink="http://www.w3.org/1999/xlink" x="0px"
	 y="0px" viewBox="0 0 503.06 146.61" style="enable-background:new 0 0 503.06 146.61;" xml:space="preserve">
<style type="text/css">
	.st0{fill:#009CE5;}
	.st1{fill:#595757;}
</style>
<g>
	<g>
		<g>
			<g>
				<polygon class="st0" points="70.02,29.77 70.02,24.26 46.4,24.26 46.4,118.72 51.92,118.72 51.92,97.73 70.02,97.73 
					70.02,92.21 51.92,92.21 51.92,87.36 70.02,87.36 70.02,81.85 51.92,81.85 51.92,77 70.02,77 70.02,71.49 51.92,71.49 
					51.92,50.49 70.02,50.49 70.02,44.98 51.92,44.98 51.92,40.13 70.02,40.13 70.02,34.62 51.92,34.62 51.92,29.77 				"/>
				<rect x="25.68" y="24.26" class="st0" width="5.51" height="94.47"/>
				<rect x="36.04" y="24.26" class="st0" width="5.51" height="94.47"/>
			</g>
		</g>
		<path class="st0" d="M75.53,24.26v94.47h5.51v-21h33.59v21h5.51V24.26H75.53z M114.63,29.77v4.85H81.05v-4.85H114.63z
			 M81.05,71.49v-21h33.59v21H81.05z M114.63,77v4.85H81.05V77H114.63z M81.05,44.98v-4.85h33.59v4.85H81.05z M81.05,92.21v-4.85
			h33.59v4.85H81.05z"/>
	</g>
	<g>
		<g>
			<path class="st1" d="M161.17,29.32c-0.32,3.42-1.52,7.47-4.54,9.61c-1.28,0.9-3.87,2.31-9.35,2.82l-0.86-2.7
				c5.58-0.32,10.18-1.67,11.38-7.1H144.1v-2.63H161.17z M159.85,24.25v2.61h-14.21v-2.61H159.85z"/>
		</g>
		<path class="st1" d="M182.96,41.8h-3.04v-9.05c-3.44,2.14-6.27,3.1-7.47,3.49l-1.41-2.52c9.09-2.85,13.97-8.75,15.28-10.36
			l2.57,1.78c-0.83,0.92-2.87,3.21-5.93,5.52V41.8z"/>
		<path class="st1" d="M216.92,24.92c-0.34,5.52-1.35,14.25-13.78,16.78l-1.24-2.67c9.2-1.73,11.1-6.44,11.77-11.3h-13.39v-2.8
			H216.92z"/>
		<path class="st1" d="M245.73,27.38v2.7h-3.42v2.16c0,7.27-5.58,8.99-10.23,9.65l-1.07-2.67c6.78-0.66,8.41-3.49,8.41-7v-2.14
			h-6.16v5.26h-2.87v-5.26h-3.29v-2.7h3.29v-3.7h2.87v3.7h6.16v-3.77h2.89v3.77H245.73z"/>
		<path class="st1" d="M265.39,41.8h-3.04v-9.05c-3.44,2.14-6.27,3.1-7.47,3.49l-1.41-2.52c9.09-2.85,13.97-8.75,15.28-10.36
			l2.57,1.78c-0.83,0.92-2.87,3.21-5.93,5.52V41.8z"/>
		<path class="st1" d="M291.8,37.54h7.45v2.78h-17.76v-2.78h7.36v-9.59h-6.29v-2.78h15.62v2.78h-6.38V37.54z"/>
		<path class="st1" d="M317.27,30.35c-0.94-0.64-3.14-2.05-6.63-3.19l1.3-2.46c1.56,0.47,3.96,1.26,6.87,3.02L317.27,30.35z
			 M311.04,38.38c6.36-0.51,12.3-2.63,15.04-12.67l2.5,1.75c-2.55,7.9-6.95,12.92-16.9,14.01L311.04,38.38z"/>
		<path class="st1" d="M353.08,24.58c-0.88,4.34-2.46,7-3.83,8.9c3.25,2.57,4.41,3.51,6.95,6.03l-2.4,2.31
			c-1.3-1.45-3.12-3.45-6.31-6.23c-2.01,2.25-5.07,4.75-8.32,6.18l-1.63-2.37c3.1-1.33,5.28-2.82,7.58-5.31
			c2.31-2.5,3.44-4.79,4.19-6.83h-10.59v-2.7H353.08z"/>
	</g>
	<g>
		<path class="st1" d="M370.54,72.86c-4.83,11.55-12.24,15.43-22.39,16.59V58.23h-5.29v36.79c19.47-0.82,27.68-8.02,33.19-22.15
			H370.54z"/>
		<polygon class="st1" points="444.77,74.29 427.83,74.29 427.83,78.69 440.37,78.69 440.37,90.19 423.85,90.19 423.85,95.04 
			450.88,95.04 450.88,90.19 444.77,90.19 		"/>
		<rect x="454.42" y="74.29" class="st1" width="22.96" height="4.62"/>
		<g>
			<path class="st1" d="M417.44,67.52c0.95-0.44,1.92-0.9,2.93-1.39l-2.33-4.67c-0.92,0.48-1.8,0.92-2.66,1.36L417.44,67.52z"/>
			<g>
				<path class="st1" d="M412.41,69.77c0.95-0.42,1.94-0.86,2.96-1.33l-2.04-4.63c-1.03,0.5-1.99,0.97-2.93,1.41L412.41,69.77z"/>
				<path class="st1" d="M395.7,90.19c-4.44,0-5.07-0.36-5.07-3.23v-9.54c2.79-0.6,8.51-1.91,19.54-6.63l-1.98-4.5
					c-9.18,4.2-13.96,5.39-17.55,6.24v-14.3h-5.16v29.86c0,5.97,3.5,6.95,9.38,6.95c0,0,20.66,0,20.74,0v-4.86
					C415.14,90.18,395.7,90.19,395.7,90.19z"/>
			</g>
		</g>
		<g>
			<path class="st1" d="M181.3,60.34c-0.42,0-1.53,0.28-2.04,0.42c-0.23,0.05-5.38,1.25-10.2,1.62c0.05,1.48,0,2.18-0.05,5.75h12.94
				v4.96h-4.17v21.94h-4.82V73.1h-4.04c-0.51,11.41-1.72,15.82-5.61,21.8l-4.92-1.62c1.53-1.72,2.5-2.87,3.52-5.38
				c1.86-4.64,2.27-10.11,2.27-17.35c0-4.13-0.05-8.26-0.23-12.38c0,0,8.25,0.16,15.17-2.5L181.9,59c0.14,0.19,0.46,0.65,0.46,0.97
				C182.37,60.34,182.09,60.34,181.3,60.34z"/>
			<path class="st1" d="M162.2,62.89v-4.13h-5.99l-0.05-5.3h-5.14v5.3h-7.08v4.13h2.12c0.65,1.67,1.3,4.13,1.58,5.1h-3.69v4.27h6.75
				v3.25h-6.75v4.41h4.99c-1.81,4.17-4.27,7.1-7.37,9.69l4.13,2.69c1.76-1.67,3.66-4.17,5.01-6.31v9.04h5.01v-8.49
				c0.56,0.74,1.21,1.39,2.37,2.18l2.97-3.43c-1.34-1.07-3.66-3.06-5.33-5.38h6.5v-4.41h-6.5v-3.25h6.5V68h-3.3
				c0.88-1.86,1.34-3.2,1.86-5.1H162.2z M154.17,68h-1.72c-0.46-1.81-1.02-3.57-1.62-5.1h4.82C155.23,64.93,154.54,66.93,154.17,68z
				"/>
		</g>
		<path class="st1" d="M232.25,73.61v-3.94h-17.16v-1.99h12.02V64.1h-12.02v-1.81h12.02v-3.8h-5.85c0.37-0.65,0.7-1.3,0.97-1.9
			c0.88-0.42,1.25-0.6,1.25-1.02c0-0.56-0.97-0.6-1.25-0.65l-4.55-0.42c-0.65,1.81-1.02,2.37-1.9,3.99h-10.39l2.69-0.88
			c-0.19-0.37-0.56-0.88-1.16-1.72c-0.56-0.74-0.97-1.3-1.21-1.58l-4.59,1.39c0.65,0.93,1.86,2.64,1.95,2.78h-6.35v3.8h12.62v1.81
			h-12.62v3.57h12.62v1.99h-17.11v3.94h10.16c-1.3,2.37-4.27,7.28-11.64,10.76l3.85,4.04c3.01-1.72,4.82-3.25,7.05-5.52v12.15h4.87
			v-0.97h15.26v0.97h4.87V75.6h-19.53c0.28-0.37,0.6-0.83,1.21-1.99H232.25z M221.77,90.4h-15.26v-1.76h15.26V90.4z M221.77,85.62
			h-15.26v-1.76h15.26V85.62z M221.77,79.13v1.76h-15.26v-1.76H221.77z"/>
		<g>
			<rect x="241.85" y="59.97" class="st1" width="15.4" height="4.08"/>
			<rect x="244.45" y="53.36" class="st1" width="10.53" height="3.76"/>
			<path class="st1" d="M242.82,80.33v14.7h4.45v-2.18h4.55v2.18h4.45v-14.7H242.82z M251.82,88.73h-4.55v-4.31h4.55V88.73z"/>
			<path class="st1" d="M272.65,57.51c0.32-0.19,0.42-0.51,0.42-0.7c0-0.23-0.09-0.42-0.37-0.51l-5.1-1.67
				c-3.2,5.66-6.49,8.91-10.76,11.97l3.25,3.29c1.3-0.93,2.18-1.67,3.29-2.69v2.41h13.31v-2.23c1.62,1.11,2.18,1.48,3.43,2.09
				l3.34-3.25C276.96,62.94,274.04,59.37,272.65,57.51z M265.09,65.63c1.34-1.25,2.18-2.18,4.41-5.06c2.55,2.97,3.53,3.85,4.87,5.06
				H265.09z"/>
			<path class="st1" d="M258.45,71.94v23.1h4.27V84.41h2.09v9.74h3.76v-9.74h2.18v9.74h3.76v-1.76l1.81,2.64
				c2.78-0.05,4.73-0.46,4.73-3.38V71.94H258.45z M264.81,79.96h-2.09v-3.8h2.09V79.96z M270.75,79.96h-2.18v-3.8h2.18V79.96z
				 M276.77,89.56c0,0.93-0.32,1.21-0.93,1.21c-0.14,0-0.6,0-1.34-0.14v-6.22h2.27V89.56z M276.77,79.96h-2.27v-3.8h2.27V79.96z"/>
			<rect x="242.82" y="66.9" class="st1" width="13.45" height="3.52"/>
			<rect x="242.82" y="73.28" class="st1" width="13.45" height="3.52"/>
		</g>
		<path class="st1" d="M315.83,83.02c4.78-5.8,6.77-11.09,8.91-17.53h6.49v-4.78h-16.51v-7.24h-5.75v7.24h-16.65v4.78h5.84
			c0.79,2.32,1.44,4.22,3.11,7.42c2.83,5.43,5.15,8.07,6.91,10.02c-1.81,1.53-3.48,2.92-7.98,4.92c-4.45,1.95-7.24,2.55-9.65,3.06
			l4.13,4.45c8.86-2.97,12.66-5.01,17.35-8.67c5.61,4.59,9.69,6.59,15.86,8.35l3.39-5.1C325.1,88.59,321.11,87.01,315.83,83.02z
			 M311.79,79.31c-3.2-3.66-5.38-6.96-7.98-13.82h14.66C317.49,69.11,315.73,74.54,311.79,79.31z"/>
	</g>
	<g>
		<path class="st1" d="M150.49,115.8c-0.18,0-0.21-0.18-0.32-0.56c-0.16-0.56-0.48-0.88-1.55-0.88h-1.38v2.51
			c0,1.01-0.02,1.33,0.98,1.41c0.54,0.05,0.64,0.05,0.64,0.27c0,0.14-0.1,0.22-0.37,0.22c-0.4,0-1.44-0.05-1.89-0.05
			c-0.86,0-1.9,0.05-2.34,0.05c-0.21,0-0.26-0.08-0.26-0.24c0-0.19,0.06-0.21,0.5-0.26c0.72-0.08,0.74-0.42,0.74-1.02v-6.53
			c0-0.4,0-0.91-0.61-1.01c-0.5-0.08-0.64-0.05-0.64-0.26c0-0.26,0.26-0.24,0.35-0.24c0.13,0,0.4,0.02,0.67,0.02
			c0.27,0.02,0.54,0.03,0.69,0.03h5.52c0.34,0,0.42,0.1,0.35,0.32l-0.54,1.68c-0.11,0.34-0.19,0.42-0.3,0.42
			c-0.21,0-0.22-0.11-0.27-0.48l-0.19-1.26h-3.03v3.78h1.38c0.74,0,1.41-0.13,1.62-1.15c0.02-0.08,0.06-0.29,0.29-0.29
			c0.02,0,0.22,0.02,0.22,0.29c0,0.22-0.05,1.15-0.05,1.34c0,0.67,0.05,1.41,0.05,1.54C150.74,115.68,150.73,115.8,150.49,115.8z"/>
		<path class="st1" d="M158.29,116.72c0,1.25,0,1.5,0.58,1.57c0.46,0.05,0.53,0.08,0.53,0.26c0,0.19-0.08,0.22-0.34,0.22
			c-0.35,0-1.2-0.05-1.67-0.05c-0.5,0-1.33,0.05-1.68,0.05c-0.22,0-0.4,0-0.4-0.22c0-0.18,0.08-0.19,0.61-0.24
			c0.54-0.05,0.56-0.34,0.56-1.58v-2.56c0-0.54-0.06-0.56-0.58-0.77c-0.51-0.21-0.53-0.19-0.53-0.35c0-0.18,0.27-0.29,0.5-0.37
			l1.62-0.64c0.1-0.03,0.42-0.13,0.53-0.13c0.27,0,0.27,0.14,0.27,0.56V116.72z M157.43,110.85c-0.58,0-1.06-0.46-1.06-1.06
			s0.46-1.07,1.06-1.07c0.59,0,1.07,0.46,1.07,1.09C158.5,110.4,158.01,110.85,157.43,110.85z"/>
		<path class="st1" d="M165.88,116.95c0,0.78,0,1.3,0.78,1.34c0.59,0.03,0.74,0.03,0.74,0.26c0,0.19-0.11,0.22-0.3,0.22
			c-0.48,0-1.5-0.05-2.22-0.05c-0.29,0-1.12,0.05-1.58,0.05c-0.13,0-0.32-0.02-0.32-0.22c0-0.19,0.06-0.22,0.64-0.3
			c0.4-0.05,0.46-0.45,0.46-1.5v-2.42c0-0.45,0-0.66-0.19-0.75c-0.58-0.21-0.8-0.29-0.85-0.35c-0.05-0.03-0.05-0.11-0.05-0.14
			c0-0.18,0.1-0.21,0.48-0.37l1.62-0.64c0.16-0.06,0.42-0.16,0.58-0.16c0.22,0,0.22,0.18,0.22,0.51v0.48
			c0.48-0.27,1.1-0.62,1.47-0.8c0.26-0.13,0.42-0.19,0.66-0.19c0.59,0,0.69,0.69,0.69,1.33c0,0.24,0,0.88-0.45,0.88
			c-0.19,0-0.3-0.11-0.48-0.37c-0.11-0.18-0.35-0.53-0.75-0.53c-0.37,0-0.8,0.21-1.14,0.37V116.95z"/>
		<path class="st1" d="M172.39,117.16c0-0.26,0.02-0.53,0.26-0.53c0.14,0,0.21,0.08,0.29,0.37c0.1,0.37,0.42,1.42,1.63,1.42
			c0.51,0,0.99-0.38,0.99-0.96c0-0.61-0.35-0.91-1.6-1.66c-1.1-0.67-1.49-1.2-1.49-1.95c0-0.78,0.48-1.94,2.56-1.94
			c0.54,0,1.66,0.08,1.79,0.29c0.06,0.11,0.11,1.3,0.11,1.52c0,0.1,0,0.29-0.22,0.29c-0.16,0-0.24-0.05-0.38-0.54
			c-0.18-0.61-0.62-1.01-1.28-1.01c-0.64,0-0.93,0.46-0.93,0.82c0,0.54,0.54,0.88,1.34,1.33c1.01,0.56,1.7,1.06,1.7,2.16
			c0,0.78-0.42,2.21-2.8,2.21c-0.56,0-1.65-0.1-1.87-0.22c-0.13-0.06-0.14-0.14-0.13-0.5L172.39,117.16z"/>
		<path class="st1" d="M183.4,115.92c0,0.77,0,0.96,0.14,1.22c0.13,0.19,0.46,0.43,0.83,0.43c0.18,0,0.34-0.05,0.82-0.24
			c0.06-0.03,0.11-0.03,0.16-0.03c0.16,0,0.24,0.13,0.24,0.24c0,0.19-0.18,0.3-0.62,0.59c-0.91,0.59-1.28,0.75-1.73,0.75
			c-0.77,0-1.34-0.61-1.46-0.72c-0.21-0.26-0.19-0.61-0.19-1.26v-3.97h-0.58c-0.19,0-0.43,0-0.43-0.21c0-0.13,0.18-0.29,0.43-0.51
			l1.7-1.44c0.32-0.27,0.35-0.29,0.45-0.29c0.24,0,0.24,0.19,0.24,0.59v1.04h1.91c0.29,0,0.29,0.03,0.29,0.32
			c0,0.18-0.02,0.29-0.08,0.34c-0.05,0.02-0.45,0.02-0.54,0.02h-1.57V115.92z"/>
		<path class="st1" d="M200.2,114.96l-0.72,1.99c-0.38,1.06,0.08,1.2,1.01,1.36c0.1,0.02,0.22,0.06,0.22,0.24
			c0,0.26-0.21,0.22-0.42,0.22c-0.29,0-1.09-0.05-1.44-0.05c-0.34,0-0.99,0.05-1.41,0.05c-0.19,0-0.35,0-0.35-0.22
			c0-0.19,0.13-0.22,0.27-0.26c1.04-0.18,1.33-1.04,1.68-2l2.02-5.57c0.08-0.22,0.42-1.38,0.45-1.44c0.06-0.11,0.16-0.16,0.38-0.16
			h1.22c0.34,0,0.38,0.1,0.54,0.69l1.7,6.12c0.53,1.92,0.72,2.27,1.62,2.37c0.1,0.02,0.35,0.05,0.35,0.26s-0.03,0.22-0.43,0.22
			c-0.53,0-1.58-0.05-1.7-0.05c-0.66,0-2.26,0.05-2.43,0.05c-0.16,0-0.34-0.03-0.34-0.22c0-0.19,0.18-0.26,0.35-0.27
			c1.06-0.1,1.14-0.46,0.86-1.44l-0.53-1.87H200.2z M202.93,114.32l-1.07-3.92h-0.03l-1.39,3.92H202.93z"/>
		<path class="st1" d="M214.98,113.67c0-0.42-0.02-0.99-0.69-1.04c-0.64-0.05-0.72-0.03-0.72-0.26c0-0.22,0.16-0.22,0.56-0.22
			c0.26,0,1.02,0,1.2-0.02c0.19,0,1.02-0.08,1.2-0.08c0.26,0,0.26,0.08,0.26,0.46v5.04c0,0.35,0.05,0.35,0.5,0.37
			c0.26,0.02,0.54,0.02,0.54,0.22c0,0.24-0.43,0.34-0.62,0.38l-1.76,0.38c-0.21,0.05-0.24,0.05-0.27,0.05
			c-0.19,0-0.19-0.08-0.19-0.42v-0.58c-0.24,0.1-1.26,0.62-1.47,0.72c-0.48,0.19-0.82,0.27-1.17,0.27c-0.56,0-1.1-0.29-1.41-0.77
			c-0.29-0.45-0.29-1.1-0.29-1.62v-2.9c0-0.61,0-1.01-0.62-1.04c-0.3-0.02-0.5-0.02-0.5-0.26s0.26-0.24,0.46-0.24
			c0.22,0,0.9-0.02,1.26-0.03c0.45-0.02,0.77-0.08,0.94-0.08c0.26,0,0.26,0.1,0.26,0.5v3.34c0,0.98,0.03,1.78,1.18,1.78
			c0.54,0,0.96-0.14,1.34-0.27V113.67z"/>
		<path class="st1" d="M223.27,115.92c0,0.77,0,0.96,0.14,1.22c0.13,0.19,0.46,0.43,0.83,0.43c0.18,0,0.34-0.05,0.82-0.24
			c0.06-0.03,0.11-0.03,0.16-0.03c0.16,0,0.24,0.13,0.24,0.24c0,0.19-0.18,0.3-0.62,0.59c-0.91,0.59-1.28,0.75-1.73,0.75
			c-0.77,0-1.34-0.61-1.46-0.72c-0.21-0.26-0.19-0.61-0.19-1.26v-3.97h-0.58c-0.19,0-0.43,0-0.43-0.21c0-0.13,0.18-0.29,0.43-0.51
			l1.7-1.44c0.32-0.27,0.35-0.29,0.45-0.29c0.24,0,0.24,0.19,0.24,0.59v1.04h1.91c0.29,0,0.29,0.03,0.29,0.32
			c0,0.18-0.02,0.29-0.08,0.34c-0.05,0.02-0.45,0.02-0.54,0.02h-1.57V115.92z"/>
		<path class="st1" d="M230.81,116.58c0.03,1.04,0.03,1.17,0.05,1.22c0.08,0.42,0.24,0.46,0.59,0.51c0.14,0.02,0.3,0.06,0.3,0.22
			c0,0.13-0.1,0.24-0.37,0.24c-0.13,0-0.45-0.02-0.79-0.03c-0.32,0-0.64-0.02-0.75-0.02c-0.13,0-0.48,0.02-0.82,0.02
			c-0.35,0.02-0.69,0.03-0.82,0.03c-0.11,0-0.3-0.05-0.3-0.22c0-0.21,0.18-0.22,0.42-0.24c0.61-0.06,0.67-0.18,0.67-1.76v-6.31
			c0-0.46,0-0.51-0.05-0.61c-0.03-0.06-0.06-0.08-0.45-0.26l-0.29-0.11c-0.26-0.11-0.34-0.14-0.34-0.29c0-0.19,0.06-0.21,0.62-0.37
			l1.52-0.45c0.18-0.05,0.45-0.11,0.53-0.11c0.26,0,0.26,0.14,0.26,0.69v4.24c0.82-0.83,1.58-1.07,2.26-1.07
			c0.72,0,1.52,0.3,1.89,1.15c0.13,0.29,0.18,0.42,0.18,1.78v2.02c0,1.15,0.03,1.36,0.56,1.42c0.26,0.03,0.48,0.06,0.48,0.27
			c0,0.22-0.24,0.22-0.29,0.22c-0.13,0-0.51-0.02-0.9-0.03c-0.37,0-0.74-0.02-0.86-0.02s-0.48,0.02-0.82,0.02
			c-0.35,0.02-0.69,0.03-0.82,0.03c-0.1,0-0.29-0.03-0.29-0.24c0-0.19,0.16-0.21,0.51-0.24c0.61-0.05,0.61-0.29,0.61-1.89v-1.28
			c0-0.82,0-1.98-1.17-1.98c-0.16,0-0.69,0-1.34,0.58V116.58z"/>
		<path class="st1" d="M241.85,118.96c-2.26,0-3.52-1.58-3.52-3.51c0-2.11,1.55-3.55,3.67-3.55c2.45,0,3.55,1.7,3.55,3.5
			C245.54,117.38,244.23,118.96,241.85,118.96z M241.89,112.45c-1.28,0-1.44,1.58-1.44,2.91c0,1.87,0.32,3.06,1.49,3.06
			c1.28,0,1.47-1.67,1.47-2.93C243.42,114.11,243.21,112.45,241.89,112.45z"/>
		<path class="st1" d="M251.64,116.95c0,0.78,0,1.3,0.78,1.34c0.59,0.03,0.74,0.03,0.74,0.26c0,0.19-0.11,0.22-0.3,0.22
			c-0.48,0-1.5-0.05-2.22-0.05c-0.29,0-1.12,0.05-1.58,0.05c-0.13,0-0.32-0.02-0.32-0.22c0-0.19,0.06-0.22,0.64-0.3
			c0.4-0.05,0.46-0.45,0.46-1.5v-2.42c0-0.45,0-0.66-0.19-0.75c-0.58-0.21-0.8-0.29-0.85-0.35c-0.05-0.03-0.05-0.11-0.05-0.14
			c0-0.18,0.1-0.21,0.48-0.37l1.62-0.64c0.16-0.06,0.42-0.16,0.58-0.16c0.22,0,0.22,0.18,0.22,0.51v0.48
			c0.48-0.27,1.1-0.62,1.47-0.8c0.26-0.13,0.42-0.19,0.66-0.19c0.59,0,0.69,0.69,0.69,1.33c0,0.24,0,0.88-0.45,0.88
			c-0.19,0-0.3-0.11-0.48-0.37c-0.11-0.18-0.35-0.53-0.75-0.53c-0.37,0-0.8,0.21-1.14,0.37V116.95z"/>
		<path class="st1" d="M260.57,113.99c-0.03,0.1-0.13,0.18-0.22,0.18c-0.13,0-0.22-0.06-0.26-0.18l-0.77-2.82
			c-0.11-0.38-0.16-0.74-0.16-1.01c0-0.69,0.51-1.2,1.15-1.2c0.72,0,1.17,0.56,1.17,1.17c0,0.32-0.16,0.91-0.19,1.04L260.57,113.99z
			"/>
		<path class="st1" d="M266.09,117.16c0-0.26,0.02-0.53,0.26-0.53c0.14,0,0.21,0.08,0.29,0.37c0.1,0.37,0.42,1.42,1.63,1.42
			c0.51,0,0.99-0.38,0.99-0.96c0-0.61-0.35-0.91-1.6-1.66c-1.1-0.67-1.49-1.2-1.49-1.95c0-0.78,0.48-1.94,2.56-1.94
			c0.54,0,1.66,0.08,1.79,0.29c0.06,0.11,0.11,1.3,0.11,1.52c0,0.1,0,0.29-0.22,0.29c-0.16,0-0.24-0.05-0.38-0.54
			c-0.18-0.61-0.62-1.01-1.28-1.01c-0.64,0-0.93,0.46-0.93,0.82c0,0.54,0.54,0.88,1.34,1.33c1.01,0.56,1.7,1.06,1.7,2.16
			c0,0.78-0.42,2.21-2.8,2.21c-0.56,0-1.65-0.1-1.87-0.22c-0.13-0.06-0.14-0.14-0.13-0.5L266.09,117.16z"/>
	</g>
</g>
</svg>
