<?xml version="1.0" encoding="utf-8"?>
<!-- Generator: Adobe Illustrator 19.1.0, SVG Export Plug-In . SVG Version: 6.00 Build 0)  -->
<svg version="1.1" id="レイヤー_1" xmlns="http://www.w3.org/2000/svg" xmlns:xlink="http://www.w3.org/1999/xlink" x="0px"
	 y="0px" viewBox="0 0 538 103" enable-background="new 0 0 538 103" xml:space="preserve">
<g>
	<g>
		<path d="M48.8,88.9h-8.3V22H19v-7.7h51.6V22H48.8V88.9z"/>
		<path d="M146.6,51.7c0,21.5-17.6,38.5-38.9,38.5c-21.3,0-38.9-17-38.9-38.5c0-21.4,17.6-38.7,38.9-38.7
			C129,13,146.6,30.3,146.6,51.7z M77.2,51.6c0,16.8,13.7,30.9,30.6,30.9s30.6-14.1,30.6-30.9c0-16.9-13.5-30.9-30.6-30.9
			C90.6,20.7,77.2,34.7,77.2,51.6z"/>
		<path d="M227.3,51.4c0.2,10.1-0.9,18.4-7.7,26.3s-17.2,12.5-27.6,12.5c-21,0-38.4-17.4-38.4-38.4c0-21.4,17.4-38.8,38.9-38.8
			c13.1,0,23.6,5.8,31.6,16.1l-6,5.6c-6.2-8.8-14.6-14.1-25.6-14.1c-17,0-30.5,14.3-30.5,31.2c0,7.9,3.2,15.4,8.7,21.1
			c5.4,5.4,13.4,9.5,21.2,9.5c13,0,26.6-9.5,26.6-23.4h-22.2v-7.7H227.3z"/>
		<path d="M313.1,51.7c0,21.5-17.6,38.5-38.9,38.5c-21.3,0-38.9-17-38.9-38.5c0-21.4,17.6-38.7,38.9-38.7
			C295.4,13,313.1,30.3,313.1,51.7z M243.6,51.6c0,16.8,13.7,30.9,30.6,30.9s30.6-14.1,30.6-30.9c0-16.9-13.5-30.9-30.6-30.9
			C257.1,20.7,243.6,34.7,243.6,51.6z"/>
	</g>
	
		<radialGradient id="SVGID_1_" cx="1007.8705" cy="851.0233" r="91.294" gradientTransform="matrix(0.4243 0 0 4.212802e-02 -68.7454 56.8697)" gradientUnits="userSpaceOnUse">
		<stop  offset="0" style="stop-color:#000000;stop-opacity:0.5"/>
		<stop  offset="1" style="stop-color:#000000;stop-opacity:0"/>
	</radialGradient>
	<path fill="url(#SVGID_1_)" d="M397.8,92.7c0,2.1-17.6,3.8-38.9,3.8c-21.3,0-38.9-1.7-38.9-3.8c0-2.1,17.6-3.8,38.9-3.8
		C380.2,88.9,397.8,90.6,397.8,92.7z"/>
	<g>
		
			<radialGradient id="SVGID_2_" cx="1007.3678" cy="98.8621" r="141.4546" gradientTransform="matrix(0.4243 0 0 0.4243 -68.7454 -11.8041)" gradientUnits="userSpaceOnUse">
			<stop  offset="0" style="stop-color:#5C93E0"/>
			<stop  offset="0.1168" style="stop-color:#528AD8"/>
			<stop  offset="0.3142" style="stop-color:#3872C4"/>
			<stop  offset="0.5667" style="stop-color:#0D4BA2"/>
			<stop  offset="0.6352" style="stop-color:#004098"/>
			<stop  offset="0.7317" style="stop-color:#0E499B"/>
			<stop  offset="0.9138" style="stop-color:#3362A2"/>
			<stop  offset="1" style="stop-color:#476FA6"/>
		</radialGradient>
		<path fill="url(#SVGID_2_)" d="M397.8,51.7c0,21.5-17.6,38.5-38.9,38.5c-21.3,0-38.9-17-38.9-38.5c0-21.4,17.6-38.7,38.9-38.7
			C380.2,13,397.8,30.3,397.8,51.7z"/>
		<polygon fill="#FFFFFF" points="351.7,38 372,51.6 351.7,65.2 		"/>
		<linearGradient id="SVGID_3_" gradientUnits="userSpaceOnUse" x1="359.3349" y1="59.965" x2="364.329" y2="67.4866">
			<stop  offset="0" style="stop-color:#000000;stop-opacity:0.4"/>
			<stop  offset="1" style="stop-color:#000000;stop-opacity:0"/>
		</linearGradient>
		<polygon fill="url(#SVGID_3_)" points="351.7,65.2 372,51.6 372,62.3 351.7,75.9 		"/>
	</g>
	<polygon points="509.8,14.3 482.5,73.5 455.2,14.3 395.6,14.3 395.6,22 417.2,22 417.2,88.9 425.5,88.9 425.5,22 449.6,22 
		482.5,93.3 519,14.3 	"/>
</g>
</svg>
