<?xml version="1.0" encoding="UTF-8" standalone="no"?>
<svg
   xmlns:dc="http://purl.org/dc/elements/1.1/"
   xmlns:cc="http://creativecommons.org/ns#"
   xmlns:rdf="http://www.w3.org/1999/02/22-rdf-syntax-ns#"
   xmlns:svg="http://www.w3.org/2000/svg"
   xmlns="http://www.w3.org/2000/svg"
   xmlns:sodipodi="http://sodipodi.sourceforge.net/DTD/sodipodi-0.dtd"
   xmlns:inkscape="http://www.inkscape.org/namespaces/inkscape"
   version="1.1"
   viewBox="0 0 351.77164 185.9344"
   stroke-miterlimit="10"
   id="svg2"
   inkscape:version="0.91 r13725"
   sodipodi:docname="dictionary.svg"
   width="351.77164"
   height="185.9344"
   style="fill:none;stroke:none;stroke-linecap:square;stroke-miterlimit:10">
  <metadata
     id="metadata59">
    <rdf:RDF>
      <cc:Work
         rdf:about="">
        <dc:format>image/svg+xml</dc:format>
        <dc:type
           rdf:resource="http://purl.org/dc/dcmitype/StillImage" />
        <dc:title></dc:title>
      </cc:Work>
    </rdf:RDF>
  </metadata>
  <defs
     id="defs57" />
  <sodipodi:namedview
     pagecolor="#ffffff"
     bordercolor="#666666"
     borderopacity="1"
     objecttolerance="10"
     gridtolerance="10"
     guidetolerance="10"
     inkscape:pageopacity="0"
     inkscape:pageshadow="2"
     inkscape:window-width="889"
     inkscape:window-height="480"
     id="namedview55"
     showgrid="false"
     fit-margin-top="0"
     fit-margin-left="0"
     fit-margin-right="0"
     fit-margin-bottom="0"
     inkscape:zoom="0.31041667"
     inkscape:cx="158.9672"
     inkscape:cy="51.05908"
     inkscape:window-x="10"
     inkscape:window-y="34"
     inkscape:window-maximized="0"
     inkscape:current-layer="svg2" />
  <clipPath
     id="g3c1434801a_0_49.0">
    <path
       d="M 0,0 960,0 960,540 0,540 0,0 Z"
       id="path5"
       inkscape:connector-curvature="0"
       style="clip-rule:nonzero" />
  </clipPath>
  <path
     style="fill-rule:nonzero;stroke:#000000;stroke-width:1;stroke-linecap:butt"
     inkscape:connector-curvature="0"
     id="path11"
     d="m 0.5,44.14833 0,141.78477" />
  <path
     style="fill-rule:nonzero;stroke:#000000;stroke-width:1;stroke-linecap:butt"
     inkscape:connector-curvature="0"
     id="path13"
     d="m 183.12992,44.14833 0,141.78477" />
  <path
     style="fill-rule:nonzero;stroke:#000000;stroke-width:1;stroke-linecap:butt"
     inkscape:connector-curvature="0"
     id="path15"
     d="m 351.27164,44.14833 0,141.78477" />
  <path
     style="fill-rule:nonzero;stroke:#000000;stroke-width:1;stroke-linecap:butt"
     inkscape:connector-curvature="0"
     id="path17"
     d="m 0.00132,44.64701 351.76904,0" />
  <path
     style="fill-rule:nonzero;stroke:#000000;stroke-width:1;stroke-linecap:butt"
     inkscape:connector-curvature="0"
     id="path19"
     d="m 0.00132,79.84387 351.76904,0" />
  <path
     style="fill-rule:nonzero;stroke:#000000;stroke-width:1;stroke-linecap:butt"
     inkscape:connector-curvature="0"
     id="path21"
     d="m 0.00132,115.0407 351.76904,0" />
  <path
     style="fill-rule:nonzero;stroke:#000000;stroke-width:1;stroke-linecap:butt"
     inkscape:connector-curvature="0"
     id="path23"
     d="m 0.00132,150.23757 351.76904,0" />
  <path
     style="fill-rule:nonzero;stroke:#000000;stroke-width:1;stroke-linecap:butt"
     inkscape:connector-curvature="0"
     id="path25"
     d="m 0.00132,185.43441 351.76904,0" />
  <path
     style="fill:#000000;fill-rule:nonzero"
     inkscape:connector-curvature="0"
     id="path27"
     d="m 10.5625,66.44702 0,-9.54688 1.26562,0 0,3.92188 4.95313,0 0,-3.92188 1.26562,0 0,9.54688 -1.26562,0 0,-4.5 -4.95313,0 0,4.5 -1.26562,0 z m 13.9689,0 0,-1.01563 q -0.8125,1.17188 -2.1875,1.17188 -0.60937,0 -1.14062,-0.23438 -0.53125,-0.23437 -0.79688,-0.57812 -0.25,-0.35938 -0.35937,-0.875 -0.0625,-0.34375 -0.0625,-1.09375 l 0,-4.28125 1.17187,0 0,3.82812 q 0,0.92188 0.0625,1.23438 0.10938,0.46875 0.46875,0.73437 0.35938,0.25 0.89063,0.25 0.51562,0 0.98437,-0.26562 0.46875,-0.26563 0.65625,-0.73438 0.1875,-0.46875 0.1875,-1.34375 l 0,-3.70312 1.17188,0 0,6.90625 -1.04688,0 z m 2.88123,0 0,-6.90625 1.04687,0 0,0.96875 q 0.32813,-0.51563 0.85938,-0.8125 0.54687,-0.3125 1.23437,-0.3125 0.78125,0 1.26563,0.3125 0.48437,0.3125 0.6875,0.89062 0.82812,-1.20312 2.14062,-1.20312 1.03125,0 1.57813,0.57812 0.5625,0.5625 0.5625,1.73438 l 0,4.75 -1.17188,0 0,-4.35938 q 0,-0.70312 -0.125,-1 -0.10937,-0.3125 -0.40625,-0.5 -0.29687,-0.1875 -0.70312,-0.1875 -0.71875,0 -1.20313,0.48438 -0.48437,0.48437 -0.48437,1.54687 l 0,4.01563 -1.17188,0 0,-4.48438 q 0,-0.78125 -0.29687,-1.17187 -0.28125,-0.39063 -0.92188,-0.39063 -0.5,0 -0.92187,0.26563 -0.42188,0.25 -0.60938,0.75 -0.1875,0.5 -0.1875,1.45312 l 0,3.57813 -1.17187,0 z M 43.0307,65.58764 q -0.65625,0.5625 -1.26562,0.79688 -0.59375,0.21875 -1.28125,0.21875 -1.14063,0 -1.75,-0.54688 -0.60938,-0.5625 -0.60938,-1.4375 0,-0.5 0.21875,-0.92187 0.23438,-0.42188 0.60938,-0.67188 0.375,-0.25 0.84375,-0.39062 0.34375,-0.0781 1.04687,-0.17188 1.42188,-0.17187 2.09375,-0.40625 0,-0.23437 0,-0.29687 0,-0.71875 -0.32812,-1.01563 -0.45313,-0.39062 -1.34375,-0.39062 -0.8125,0 -1.21875,0.29687 -0.39063,0.28125 -0.57813,1.01563 l -1.14062,-0.15625 q 0.15625,-0.73438 0.51562,-1.1875 0.35938,-0.45313 1.03125,-0.6875 0.67188,-0.25 1.5625,-0.25 0.89063,0 1.4375,0.20312 0.5625,0.20313 0.8125,0.53125 0.26563,0.3125 0.375,0.79688 0.0469,0.29687 0.0469,1.07812 l 0,1.5625 q 0,1.625 0.0781,2.0625 0.0781,0.4375 0.29688,0.82813 l -1.21875,0 Q 43.07758,66.08764 43.0307,65.58764 Z M 42.937,62.97827 q -0.64062,0.26562 -1.92187,0.4375 -0.71875,0.10937 -1.01563,0.25 -0.29687,0.125 -0.46875,0.375 -0.15625,0.25 -0.15625,0.54687 0,0.46875 0.34375,0.78125 0.35938,0.3125 1.04688,0.3125 0.67187,0 1.20312,-0.29687 0.53125,-0.29688 0.78125,-0.8125 0.1875,-0.39063 0.1875,-1.17188 l 0,-0.42187 z m 2.9906,3.46875 0,-6.90625 1.0625,0 0,0.98437 q 0.75,-1.14062 2.1875,-1.14062 0.625,0 1.15625,0.21875 0.53125,0.21875 0.78125,0.59375 0.26563,0.35937 0.375,0.85937 0.0625,0.32813 0.0625,1.14063 l 0,4.25 -1.17187,0 0,-4.20313 q 0,-0.71875 -0.14063,-1.0625 -0.14062,-0.35937 -0.48437,-0.5625 -0.34375,-0.21875 -0.8125,-0.21875 -0.75,0 -1.29688,0.46875 -0.54687,0.46875 -0.54687,1.79688 l 0,3.78125 -1.17188,0 z" />
  <path
     style="fill:#000000;fill-rule:nonzero"
     inkscape:connector-curvature="0"
     id="path29"
     d="m 193.14554,66.44702 0,-9.54688 1.29688,0 5.01562,7.5 0,-7.5 1.20313,0 0,9.54688 -1.29688,0 -5.01562,-7.5 0,7.5 -1.20313,0 z m 16.43768,-3.34375 1.26563,0.3125 q -0.39063,1.5625 -1.42188,2.375 -1.03125,0.8125 -2.53125,0.8125 -1.53125,0 -2.5,-0.625 -0.96875,-0.625 -1.48437,-1.8125 -0.5,-1.1875 -0.5,-2.5625 0,-1.48438 0.5625,-2.59375 0.57812,-1.10938 1.625,-1.6875 1.0625,-0.57813 2.32812,-0.57813 1.42188,0 2.39063,0.73438 0.98437,0.71875 1.375,2.04687 l -1.25,0.29688 q -0.32813,-1.04688 -0.96875,-1.51563 -0.625,-0.48437 -1.57813,-0.48437 -1.09375,0 -1.84375,0.53125 -0.73437,0.53125 -1.03125,1.42187 -0.29687,0.875 -0.29687,1.82813 0,1.21875 0.34375,2.125 0.35937,0.90625 1.10937,1.35937 0.75,0.4375 1.625,0.4375 1.0625,0 1.79688,-0.60937 0.73437,-0.60938 0.98437,-1.8125 z m 2.76575,3.34375 0,-9.54688 3.59375,0 q 1.09375,0 1.75,0.29688 0.65625,0.28125 1.03125,0.89062 0.375,0.60938 0.375,1.26563 0,0.60937 -0.34375,1.15625 -0.32812,0.53125 -0.98437,0.85937 0.85937,0.25 1.32812,0.875 0.46875,0.60938 0.46875,1.4375 0,0.67188 -0.29687,1.25 -0.28125,0.57813 -0.70313,0.89063 -0.40625,0.3125 -1.03125,0.46875 -0.625,0.15625 -1.54687,0.15625 l -3.64063,0 z m 1.26563,-5.53125 2.0625,0 q 0.84375,0 1.20312,-0.10938 0.48438,-0.14062 0.71875,-0.46875 0.25,-0.34375 0.25,-0.84375 0,-0.46875 -0.23437,-0.82812 -0.21875,-0.35938 -0.64063,-0.5 -0.42187,-0.14063 -1.45312,-0.14063 l -1.90625,0 0,2.89063 z m 0,4.40625 2.375,0 q 0.60937,0 0.85937,-0.0469 0.4375,-0.0781 0.73438,-0.25 0.29687,-0.1875 0.48437,-0.53125 0.1875,-0.35937 0.1875,-0.8125 0,-0.53125 -0.28125,-0.92187 -0.26562,-0.40625 -0.75,-0.5625 -0.48437,-0.15625 -1.40625,-0.15625 l -2.20312,0 0,3.28125 z m 7.90539,1.125 0,-9.54688 1.25,0 0,9.54688 -1.25,0 z m 5.90613,0 0,-8.42188 -3.14063,0 0,-1.125 7.5625,0 0,1.125 -3.15625,0 0,8.42188 -1.26562,0 z m 10.07886,-0.85938 q -0.65625,0.5625 -1.26563,0.79688 -0.59375,0.21875 -1.28125,0.21875 -1.14062,0 -1.75,-0.54688 -0.60937,-0.5625 -0.60937,-1.4375 0,-0.5 0.21875,-0.92187 0.23437,-0.42188 0.60937,-0.67188 0.375,-0.25 0.84375,-0.39062 0.34375,-0.0781 1.04688,-0.17188 1.42187,-0.17187 2.09375,-0.40625 0,-0.23437 0,-0.29687 0,-0.71875 -0.32813,-1.01563 -0.45312,-0.39062 -1.34375,-0.39062 -0.8125,0 -1.21875,0.29687 -0.39062,0.28125 -0.57812,1.01563 l -1.14063,-0.15625 q 0.15625,-0.73438 0.51563,-1.1875 0.35937,-0.45313 1.03125,-0.6875 0.67187,-0.25 1.5625,-0.25 0.89062,0 1.4375,0.20312 0.5625,0.20313 0.8125,0.53125 0.26562,0.3125 0.375,0.79688 0.0469,0.29687 0.0469,1.07812 l 0,1.5625 q 0,1.625 0.0781,2.0625 0.0781,0.4375 0.29687,0.82813 l -1.21875,0 q -0.1875,-0.35938 -0.23437,-0.85938 z m -0.0937,-2.60937 q -0.64063,0.26562 -1.92188,0.4375 -0.71875,0.10937 -1.01562,0.25 -0.29688,0.125 -0.46875,0.375 -0.15625,0.25 -0.15625,0.54687 0,0.46875 0.34375,0.78125 0.35937,0.3125 1.04687,0.3125 0.67188,0 1.20313,-0.29687 0.53125,-0.29688 0.78125,-0.8125 0.1875,-0.39063 0.1875,-1.17188 l 0,-0.42187 z m 2.20935,3.46875 2.53125,-3.59375 -2.34375,-3.3125 1.46875,0 1.0625,1.60937 q 0.29687,0.46875 0.48437,0.78125 0.28125,-0.4375 0.51563,-0.76562 l 1.17187,-1.625 1.40625,0 -2.39062,3.25 2.5625,3.65625 -1.4375,0 -1.42188,-2.14063 -0.375,-0.59375 -1.8125,2.73438 -1.42187,0 z m 7.00781,-3.45313 q 0,-1.92187 1.07812,-2.84375 0.89063,-0.76562 2.17188,-0.76562 1.42187,0 2.32812,0.9375 0.90625,0.92187 0.90625,2.57812 0,1.32813 -0.40625,2.09375 -0.39062,0.76563 -1.15625,1.1875 -0.76562,0.42188 -1.67187,0.42188 -1.45313,0 -2.35938,-0.92188 -0.89062,-0.9375 -0.89062,-2.6875 z m 1.20312,0 q 0,1.32813 0.57813,1.98438 0.59375,0.65625 1.46875,0.65625 0.875,0 1.45312,-0.65625 0.57813,-0.67188 0.57813,-2.03125 0,-1.28125 -0.59375,-1.9375 -0.57813,-0.65625 -1.4375,-0.65625 -0.875,0 -1.46875,0.65625 -0.57813,0.65625 -0.57813,1.98437 z m 6.64685,3.45313 0,-6.90625 1.0625,0 0,0.98437 q 0.75,-1.14062 2.1875,-1.14062 0.625,0 1.15625,0.21875 0.53125,0.21875 0.78125,0.59375 0.26563,0.35937 0.375,0.85937 0.0625,0.32813 0.0625,1.14063 l 0,4.25 -1.17187,0 0,-4.20313 q 0,-0.71875 -0.14063,-1.0625 -0.14062,-0.35937 -0.48437,-0.5625 -0.34375,-0.21875 -0.8125,-0.21875 -0.75,0 -1.29688,0.46875 -0.54687,0.46875 -0.54687,1.79688 l 0,3.78125 -1.17188,0 z m 7.7406,-5.57813 0,-1.32812 1.32813,0 0,1.32812 -1.32813,0 z m 0,5.57813 0,-1.32813 1.32813,0 0,1.32813 -1.32813,0 z m 3.2342,-2.20313 1.125,-0.10937 q 0.14062,0.79687 0.54687,1.15625 0.40625,0.35937 1.03125,0.35937 0.53125,0 0.9375,-0.25 0.42188,-0.25 0.67188,-0.65625 0.26562,-0.42187 0.4375,-1.125 0.17187,-0.70312 0.17187,-1.42187 0,-0.0781 0,-0.23438 -0.35937,0.54688 -0.96875,0.90625 -0.59375,0.34375 -1.3125,0.34375 -1.1875,0 -2.01562,-0.85937 -0.8125,-0.85938 -0.8125,-2.26563 0,-1.45312 0.85937,-2.32812 0.85938,-0.89063 2.14063,-0.89063 0.9375,0 1.70312,0.5 0.78125,0.5 1.17188,1.4375 0.40625,0.92188 0.40625,2.67188 0,1.82812 -0.40625,2.92187 -0.39063,1.07813 -1.17188,1.64063 -0.78125,0.5625 -1.84375,0.5625 -1.10937,0 -1.82812,-0.60938 -0.70313,-0.625 -0.84375,-1.75 z m 4.79687,-4.21875 q 0,-1 -0.54687,-1.59375 -0.53125,-0.59375 -1.28125,-0.59375 -0.78125,0 -1.375,0.64063 -0.57813,0.64062 -0.57813,1.65625 0,0.90625 0.54688,1.48437 0.5625,0.5625 1.35937,0.5625 0.82813,0 1.34375,-0.5625 0.53125,-0.57812 0.53125,-1.59375 z m 8.50623,-0.78125 -1.15625,0.0937 q -0.15625,-0.6875 -0.4375,-1 -0.48438,-0.5 -1.17188,-0.5 -0.5625,0 -0.98437,0.3125 -0.5625,0.39063 -0.89063,1.17188 -0.3125,0.76562 -0.3125,2.20312 0.42188,-0.64062 1.03125,-0.95312 0.60938,-0.3125 1.28125,-0.3125 1.17188,0 1.98438,0.85937 0.82812,0.85938 0.82812,2.23438 0,0.89062 -0.39062,1.67187 -0.375,0.76563 -1.0625,1.17188 -0.67188,0.40625 -1.53125,0.40625 -1.46875,0 -2.39063,-1.0625 -0.92187,-1.07813 -0.92187,-3.5625 0,-2.76563 1.01562,-4.01563 0.90625,-1.09375 2.40625,-1.09375 1.125,0 1.84375,0.64063 0.71875,0.625 0.85938,1.73437 z m -4.78125,4.10938 q 0,0.60937 0.25,1.17187 0.26562,0.54688 0.71875,0.84375 0.46875,0.28125 0.98437,0.28125 0.73438,0 1.26563,-0.59375 0.54687,-0.60937 0.54687,-1.64062 0,-0.98438 -0.53125,-1.54688 -0.53125,-0.57812 -1.32812,-0.57812 -0.79688,0 -1.35938,0.57812 -0.54687,0.5625 -0.54687,1.48438 z m 6.1156,-1.60938 q 0,-1.6875 0.34375,-2.71875 0.35937,-1.03125 1.04687,-1.59375 0.6875,-0.5625 1.71875,-0.5625 0.78125,0 1.35938,0.3125 0.57812,0.29688 0.95312,0.89063 0.375,0.57812 0.59375,1.42187 0.21875,0.82813 0.21875,2.25 0,1.67188 -0.35937,2.70313 -0.34375,1.03125 -1.03125,1.59375 -0.67188,0.5625 -1.73438,0.5625 -1.375,0 -2.15625,-0.98438 -0.95312,-1.1875 -0.95312,-3.875 z m 1.20312,0 q 0,2.34375 0.54688,3.125 0.5625,0.78125 1.35937,0.78125 0.8125,0 1.35938,-0.78125 0.5625,-0.78125 0.5625,-3.125 0,-2.35937 -0.5625,-3.125 -0.54688,-0.78125 -1.35938,-0.78125 -0.8125,0 -1.29687,0.6875 -0.60938,0.875 -0.60938,3.21875 z m 12.28748,-2.5 -1.15625,0.0937 q -0.15625,-0.6875 -0.4375,-1 -0.48438,-0.5 -1.17188,-0.5 -0.5625,0 -0.98437,0.3125 -0.5625,0.39063 -0.89063,1.17188 -0.3125,0.76562 -0.3125,2.20312 0.42188,-0.64062 1.03125,-0.95312 0.60938,-0.3125 1.28125,-0.3125 1.17188,0 1.98438,0.85937 0.82812,0.85938 0.82812,2.23438 0,0.89062 -0.39062,1.67187 -0.375,0.76563 -1.0625,1.17188 -0.67188,0.40625 -1.53125,0.40625 -1.46875,0 -2.39063,-1.0625 -0.92187,-1.07813 -0.92187,-3.5625 0,-2.76563 1.01562,-4.01563 0.90625,-1.09375 2.40625,-1.09375 1.125,0 1.84375,0.64063 0.71875,0.625 0.85938,1.73437 z m -4.78125,4.10938 q 0,0.60937 0.25,1.17187 0.26562,0.54688 0.71875,0.84375 0.46875,0.28125 0.98437,0.28125 0.73438,0 1.26563,-0.59375 0.54687,-0.60937 0.54687,-1.64062 0,-0.98438 -0.53125,-1.54688 -0.53125,-0.57812 -1.32812,-0.57812 -0.79688,0 -1.35938,0.57812 -0.54687,0.5625 -0.54687,1.48438 z" />
  <path
     style="fill:#000000;fill-rule:nonzero"
     inkscape:connector-curvature="0"
     id="path31"
     d="m 9.48438,101.64385 3.65625,-9.54688 1.35937,0 3.90625,9.54688 -1.4375,0 -1.10937,-2.89063 -3.98438,0 -1.04687,2.89063 -1.34375,0 z m 2.75,-3.92188 3.23437,0 -1,-2.64062 q -0.45312,-1.20313 -0.67187,-1.96875 -0.1875,0.90625 -0.51563,1.8125 l -1.04687,2.79687 z m 7.01477,3.92188 0,-9.54688 1.17188,0 0,9.54688 -1.17188,0 z m 2.36734,0 0,-0.95313 4.39063,-5.04687 q -0.75,0.0312 -1.3125,0.0312 l -2.82813,0 0,-0.9375 5.65625,0 0,0.76562 -3.75,4.39063 -0.71875,0.79687 q 0.79688,-0.0625 1.48438,-0.0625 l 3.1875,0 0,1.01563 -6.10938,0 z m 7.27344,0 0,-9.54688 1.17187,0 0,3.42188 q 0.82813,-0.9375 2.07813,-0.9375 0.76562,0 1.32812,0.29687 0.5625,0.29688 0.8125,0.84375 0.25,0.53125 0.25,1.54688 l 0,4.375 -1.17187,0 0,-4.375 q 0,-0.89063 -0.39063,-1.28125 -0.375,-0.40625 -1.07812,-0.40625 -0.51563,0 -0.98438,0.28125 -0.45312,0.26562 -0.65625,0.73437 -0.1875,0.45313 -0.1875,1.26563 l 0,3.78125 -1.17187,0 z m 12.14685,-2.21875 1.20312,0.14062 q -0.28125,1.0625 -1.0625,1.65625 -0.76562,0.57813 -1.96875,0.57813 -1.51562,0 -2.40625,-0.9375 -0.89062,-0.9375 -0.89062,-2.60938 0,-1.75 0.89062,-2.70312 0.90625,-0.96875 2.34375,-0.96875 1.39063,0 2.26563,0.9375 0.875,0.9375 0.875,2.65625 0,0.10937 0,0.3125 l -5.15625,0 q 0.0625,1.14062 0.64062,1.75 0.57813,0.59375 1.4375,0.59375 0.65625,0 1.10938,-0.32813 0.45312,-0.34375 0.71875,-1.07812 z m -3.84375,-1.90625 3.85937,0 q -0.0781,-0.85938 -0.4375,-1.29688 -0.5625,-0.6875 -1.45312,-0.6875 -0.8125,0 -1.35938,0.54688 -0.54687,0.53125 -0.60937,1.4375 z m 6.53747,-4.0625 0,-1.35938 1.17188,0 0,1.35938 -1.17188,0 z m 0,8.1875 0,-6.90625 1.17188,0 0,6.90625 -1.17188,0 z m 2.94547,0 0,-6.90625 1.04687,0 0,0.96875 q 0.32813,-0.51563 0.85938,-0.8125 0.54687,-0.3125 1.23437,-0.3125 0.78125,0 1.26563,0.3125 0.48437,0.3125 0.6875,0.89062 0.82812,-1.20312 2.14062,-1.20312 1.03125,0 1.57813,0.57812 0.5625,0.5625 0.5625,1.73438 l 0,4.75 -1.17188,0 0,-4.35938 q 0,-0.70312 -0.125,-1 -0.10937,-0.3125 -0.40625,-0.5 -0.29687,-0.1875 -0.70312,-0.1875 -0.71875,0 -1.20313,0.48438 -0.48437,0.48437 -0.48437,1.54687 l 0,4.01563 -1.17188,0 0,-4.48438 q 0,-0.78125 -0.29687,-1.17187 -0.28125,-0.39063 -0.92188,-0.39063 -0.5,0 -0.92187,0.26563 -0.42188,0.25 -0.60938,0.75 -0.1875,0.5 -0.1875,1.45312 l 0,3.57813 -1.17187,0 z m 15.83679,-2.21875 1.20313,0.14062 q -0.28125,1.0625 -1.0625,1.65625 -0.76563,0.57813 -1.96875,0.57813 -1.51563,0 -2.40625,-0.9375 -0.89063,-0.9375 -0.89063,-2.60938 0,-1.75 0.89063,-2.70312 0.90625,-0.96875 2.34375,-0.96875 1.39062,0 2.26562,0.9375 0.875,0.9375 0.875,2.65625 0,0.10937 0,0.3125 l -5.15625,0 q 0.0625,1.14062 0.64063,1.75 0.57812,0.59375 1.4375,0.59375 0.65625,0 1.10937,-0.32813 0.45313,-0.34375 0.71875,-1.07812 z m -3.84375,-1.90625 3.85938,0 q -0.0781,-0.85938 -0.4375,-1.29688 -0.5625,-0.6875 -1.45313,-0.6875 -0.8125,0 -1.35937,0.54688 -0.54688,0.53125 -0.60938,1.4375 z m 6.50623,4.125 0,-6.90625 1.0625,0 0,1.04687 q 0.40625,-0.73437 0.73437,-0.96875 0.34375,-0.23437 0.76563,-0.23437 0.59375,0 1.20312,0.375 l -0.40625,1.07812 q -0.4375,-0.25 -0.85937,-0.25 -0.39063,0 -0.70313,0.23438 -0.29687,0.23437 -0.42187,0.64062 -0.20313,0.625 -0.20313,1.35938 l 0,3.625 -1.17187,0 z m 12.64135,0 0,-0.875 q -0.65625,1.03125 -1.9375,1.03125 -0.8125,0 -1.51562,-0.45313 -0.6875,-0.45312 -1.07813,-1.26562 -0.375,-0.82813 -0.375,-1.89063 0,-1.03125 0.34375,-1.875 0.34375,-0.84375 1.03125,-1.28125 0.70313,-0.45312 1.54688,-0.45312 0.625,0 1.10937,0.26562 0.5,0.25 0.79688,0.67188 l 0,-3.42188 1.17187,0 0,9.54688 -1.09375,0 z m -3.70312,-3.45313 q 0,1.32813 0.5625,1.98438 0.5625,0.65625 1.32812,0.65625 0.76563,0 1.29688,-0.625 0.53125,-0.625 0.53125,-1.90625 0,-1.42188 -0.54688,-2.07813 -0.54687,-0.67187 -1.34375,-0.67187 -0.78125,0 -1.3125,0.64062 -0.51562,0.625 -0.51562,2 z m 6.64685,-4.73437 0,-1.35938 1.17187,0 0,1.35938 -1.17187,0 z m 0,8.1875 0,-6.90625 1.17187,0 0,6.90625 -1.17187,0 z m 2.47671,-2.0625 1.15625,-0.1875 q 0.10938,0.70312 0.54688,1.07812 0.45312,0.35938 1.25,0.35938 0.8125,0 1.20312,-0.32813 0.39063,-0.32812 0.39063,-0.76562 0,-0.39063 -0.35938,-0.625 -0.23437,-0.15625 -1.1875,-0.39063 -1.29687,-0.32812 -1.79687,-0.5625 -0.48438,-0.25 -0.75,-0.65625 -0.25,-0.42187 -0.25,-0.9375 0,-0.45312 0.20312,-0.84375 0.21875,-0.40625 0.57813,-0.67187 0.28125,-0.1875 0.75,-0.32813 0.46875,-0.14062 1.01562,-0.14062 0.8125,0 1.42188,0.23437 0.60937,0.23438 0.90625,0.64063 0.29687,0.39062 0.40625,1.0625 l -1.14063,0.15625 q -0.0781,-0.53125 -0.45312,-0.82813 -0.375,-0.3125 -1.0625,-0.3125 -0.8125,0 -1.15625,0.26563 -0.34375,0.26562 -0.34375,0.625 0,0.23437 0.14062,0.42187 0.15625,0.1875 0.45313,0.3125 0.17187,0.0625 1.03125,0.29688 1.25,0.32812 1.73437,0.54687 0.5,0.20313 0.78125,0.60938 0.28125,0.40625 0.28125,1 0,0.59375 -0.34375,1.10937 -0.34375,0.51563 -1,0.79688 -0.64062,0.28125 -1.45312,0.28125 -1.34375,0 -2.04688,-0.5625 -0.70312,-0.5625 -0.90625,-1.65625 z m 11.86719,-0.15625 1.20313,0.14062 q -0.28125,1.0625 -1.0625,1.65625 -0.76563,0.57813 -1.96875,0.57813 -1.51563,0 -2.40625,-0.9375 -0.89063,-0.9375 -0.89063,-2.60938 0,-1.75 0.89063,-2.70312 0.90625,-0.96875 2.34375,-0.96875 1.39062,0 2.26562,0.9375 0.875,0.9375 0.875,2.65625 0,0.10937 0,0.3125 l -5.15625,0 q 0.0625,1.14062 0.64063,1.75 0.57812,0.59375 1.4375,0.59375 0.65625,0 1.10937,-0.32813 0.45313,-0.34375 0.71875,-1.07812 z m -3.84375,-1.90625 3.85938,0 q -0.0781,-0.85938 -0.4375,-1.29688 -0.5625,-0.6875 -1.45313,-0.6875 -0.8125,0 -1.35937,0.54688 -0.54688,0.53125 -0.60938,1.4375 z m 11.03748,3.26562 q -0.65625,0.5625 -1.26563,0.79688 -0.59375,0.21875 -1.28125,0.21875 -1.14062,0 -1.75,-0.54688 -0.60937,-0.5625 -0.60937,-1.4375 0,-0.5 0.21875,-0.92187 0.23437,-0.42188 0.60937,-0.67188 0.375,-0.25 0.84375,-0.39062 0.34375,-0.0781 1.04688,-0.17188 1.42187,-0.17187 2.09375,-0.40625 0,-0.23437 0,-0.29687 0,-0.71875 -0.32813,-1.01563 -0.45312,-0.39062 -1.34375,-0.39062 -0.8125,0 -1.21875,0.29687 -0.39062,0.28125 -0.57812,1.01563 l -1.14063,-0.15625 q 0.15625,-0.73438 0.51563,-1.1875 0.35937,-0.45313 1.03125,-0.6875 0.67187,-0.25 1.5625,-0.25 0.89062,0 1.4375,0.20312 0.5625,0.20313 0.8125,0.53125 0.26562,0.3125 0.375,0.79688 0.0469,0.29687 0.0469,1.07812 l 0,1.5625 q 0,1.625 0.0781,2.0625 0.0781,0.4375 0.29687,0.82813 l -1.21875,0 q -0.1875,-0.35938 -0.23437,-0.85938 z m -0.0937,-2.60937 q -0.64063,0.26562 -1.92188,0.4375 -0.71875,0.10937 -1.01562,0.25 -0.29688,0.125 -0.46875,0.375 -0.15625,0.25 -0.15625,0.54687 0,0.46875 0.34375,0.78125 0.35937,0.3125 1.04687,0.3125 0.67188,0 1.20313,-0.29687 0.53125,-0.29688 0.78125,-0.8125 0.1875,-0.39063 0.1875,-1.17188 l 0,-0.42187 z m 2.52185,1.40625 1.15625,-0.1875 q 0.10937,0.70312 0.54687,1.07812 0.45313,0.35938 1.25,0.35938 0.8125,0 1.20313,-0.32813 0.39062,-0.32812 0.39062,-0.76562 0,-0.39063 -0.35937,-0.625 -0.23438,-0.15625 -1.1875,-0.39063 -1.29688,-0.32812 -1.79688,-0.5625 -0.48437,-0.25 -0.75,-0.65625 -0.25,-0.42187 -0.25,-0.9375 0,-0.45312 0.20313,-0.84375 0.21875,-0.40625 0.57812,-0.67187 0.28125,-0.1875 0.75,-0.32813 0.46875,-0.14062 1.01563,-0.14062 0.8125,0 1.42187,0.23437 0.60938,0.23438 0.90625,0.64063 0.29688,0.39062 0.40625,1.0625 l -1.14062,0.15625 q -0.0781,-0.53125 -0.45313,-0.82813 -0.375,-0.3125 -1.0625,-0.3125 -0.8125,0 -1.15625,0.26563 -0.34375,0.26562 -0.34375,0.625 0,0.23437 0.14063,0.42187 0.15625,0.1875 0.45312,0.3125 0.17188,0.0625 1.03125,0.29688 1.25,0.32812 1.73438,0.54687 0.5,0.20313 0.78125,0.60938 0.28125,0.40625 0.28125,1 0,0.59375 -0.34375,1.10937 -0.34375,0.51563 -1,0.79688 -0.64063,0.28125 -1.45313,0.28125 -1.34375,0 -2.04687,-0.5625 -0.70313,-0.5625 -0.90625,-1.65625 z m 11.86719,-0.15625 1.20312,0.14062 q -0.28125,1.0625 -1.0625,1.65625 -0.76562,0.57813 -1.96875,0.57813 -1.51562,0 -2.40625,-0.9375 -0.89062,-0.9375 -0.89062,-2.60938 0,-1.75 0.89062,-2.70312 0.90625,-0.96875 2.34375,-0.96875 1.39063,0 2.26563,0.9375 0.875,0.9375 0.875,2.65625 0,0.10937 0,0.3125 l -5.15625,0 q 0.0625,1.14062 0.64062,1.75 0.57813,0.59375 1.4375,0.59375 0.65625,0 1.10938,-0.32813 0.45312,-0.34375 0.71875,-1.07812 z m -3.84375,-1.90625 3.85937,0 q -0.0781,-0.85938 -0.4375,-1.29688 -0.5625,-0.6875 -1.45312,-0.6875 -0.8125,0 -1.35938,0.54688 -0.54687,0.53125 -0.60937,1.4375 z" />
  <path
     style="fill:#000000;fill-rule:nonzero"
     inkscape:connector-curvature="0"
     id="path33"
     d="m 193.1924,101.64385 0,-9.54688 1.26562,0 0,3.92188 4.95313,0 0,-3.92188 1.26562,0 0,9.54688 -1.26562,0 0,-4.5 -4.95313,0 0,4.5 -1.26562,0 z m 9.59393,0 0,-9.54688 3.59375,0 q 0.95313,0 1.45313,0.0937 0.70312,0.125 1.17187,0.45313 0.48438,0.32812 0.76563,0.92187 0.29687,0.59375 0.29687,1.29688 0,1.21875 -0.78125,2.0625 -0.76562,0.84375 -2.79687,0.84375 l -2.4375,0 0,3.875 -1.26563,0 z m 1.26563,-5 2.45312,0 q 1.23438,0 1.75,-0.45313 0.51563,-0.46875 0.51563,-1.28125 0,-0.60937 -0.3125,-1.03125 -0.29688,-0.42187 -0.79688,-0.5625 -0.3125,-0.0937 -1.17187,-0.0937 l -2.4375,0 0,3.42188 z m 7.23346,0.35937 q 0,-2.375 1.28125,-3.71875 1.28125,-1.34375 3.29687,-1.34375 1.3125,0 2.375,0.625 1.0625,0.625 1.60938,1.76563 0.5625,1.125 0.5625,2.5625 0,1.4375 -0.59375,2.59375 -0.57813,1.14062 -1.65625,1.73437 -1.0625,0.57813 -2.3125,0.57813 -1.34375,0 -2.40625,-0.64063 -1.0625,-0.65625 -1.60938,-1.78125 -0.54687,-1.125 -0.54687,-2.375 z m 1.3125,0.0156 q 0,1.71875 0.92187,2.71875 0.92188,0.98437 2.32813,0.98437 1.42187,0 2.34375,-1 0.92187,-1 0.92187,-2.84375 0,-1.15625 -0.40625,-2.03125 -0.39062,-0.875 -1.15625,-1.34375 -0.75,-0.48437 -1.6875,-0.48437 -1.34375,0 -2.3125,0.92187 -0.95312,0.92188 -0.95312,3.07813 z m 9.61706,-0.95313 0,-1.32812 1.32813,0 0,1.32812 -1.32813,0 z m 0,5.57813 0,-1.32813 1.32813,0 0,1.32813 -1.32813,0 z m 3.56238,0 0,-9.54688 1.26563,0 0,3.92188 4.95312,0 0,-3.92188 1.26563,0 0,9.54688 -1.26563,0 0,-4.5 -4.95312,0 0,4.5 -1.26563,0 z m 9.59387,0 0,-9.54688 3.59375,0 q 0.95313,0 1.45313,0.0937 0.70312,0.125 1.17187,0.45313 0.48438,0.32812 0.76563,0.92187 0.29687,0.59375 0.29687,1.29688 0,1.21875 -0.78125,2.0625 -0.76562,0.84375 -2.79687,0.84375 l -2.4375,0 0,3.875 -1.26563,0 z m 1.26563,-5 2.45312,0 q 1.23438,0 1.75,-0.45313 0.51563,-0.46875 0.51563,-1.28125 0,-0.60937 -0.3125,-1.03125 -0.29688,-0.42187 -0.79688,-0.5625 -0.3125,-0.0937 -1.17187,-0.0937 l -2.4375,0 0,3.42188 z m 6.38977,7.65625 0,-0.85938 7.76562,0 0,0.85938 -7.76562,0 z m 8.16247,-7.35938 q 0,-1.6875 0.34375,-2.71875 0.35938,-1.03125 1.04688,-1.59375 0.6875,-0.5625 1.71875,-0.5625 0.78125,0 1.35937,0.3125 0.57813,0.29688 0.95313,0.89063 0.375,0.57812 0.59375,1.42187 0.21875,0.82813 0.21875,2.25 0,1.67188 -0.35938,2.70313 -0.34375,1.03125 -1.03125,1.59375 -0.67187,0.5625 -1.73437,0.5625 -1.375,0 -2.15625,-0.98438 -0.95313,-1.1875 -0.95313,-3.875 z m 1.20313,0 q 0,2.34375 0.54687,3.125 0.5625,0.78125 1.35938,0.78125 0.8125,0 1.35937,-0.78125 0.5625,-0.78125 0.5625,-3.125 0,-2.35937 -0.5625,-3.125 -0.54687,-0.78125 -1.35937,-0.78125 -0.8125,0 -1.29688,0.6875 -0.60937,0.875 -0.60937,3.21875 z m 6.20935,0 q 0,-1.6875 0.34375,-2.71875 0.35937,-1.03125 1.04687,-1.59375 0.6875,-0.5625 1.71875,-0.5625 0.78125,0 1.35938,0.3125 0.57812,0.29688 0.95312,0.89063 0.375,0.57812 0.59375,1.42187 0.21875,0.82813 0.21875,2.25 0,1.67188 -0.35937,2.70313 -0.34375,1.03125 -1.03125,1.59375 -0.67188,0.5625 -1.73438,0.5625 -1.375,0 -2.15625,-0.98438 -0.95312,-1.1875 -0.95312,-3.875 z m 1.20312,0 q 0,2.34375 0.54688,3.125 0.5625,0.78125 1.35937,0.78125 0.8125,0 1.35938,-0.78125 0.5625,-0.78125 0.5625,-3.125 0,-2.35937 -0.5625,-3.125 -0.54688,-0.78125 -1.35938,-0.78125 -0.8125,0 -1.29687,0.6875 -0.60938,0.875 -0.60938,3.21875 z m 6.20936,0 q 0,-1.6875 0.34375,-2.71875 0.35937,-1.03125 1.04687,-1.59375 0.6875,-0.5625 1.71875,-0.5625 0.78125,0 1.35938,0.3125 0.57812,0.29688 0.95312,0.89063 0.375,0.57812 0.59375,1.42187 0.21875,0.82813 0.21875,2.25 0,1.67188 -0.35937,2.70313 -0.34375,1.03125 -1.03125,1.59375 -0.67188,0.5625 -1.73438,0.5625 -1.375,0 -2.15625,-0.98438 -0.95312,-1.1875 -0.95312,-3.875 z m 1.20312,0 q 0,2.34375 0.54688,3.125 0.5625,0.78125 1.35937,0.78125 0.8125,0 1.35938,-0.78125 0.5625,-0.78125 0.5625,-3.125 0,-2.35937 -0.5625,-3.125 -0.54688,-0.78125 -1.35938,-0.78125 -0.8125,0 -1.29687,0.6875 -0.60938,0.875 -0.60938,3.21875 z m 12.3656,3.57813 0,1.125 -6.29687,0 q -0.0156,-0.42188 0.14062,-0.8125 0.23438,-0.64063 0.76563,-1.26563 0.53125,-0.625 1.53125,-1.45312 1.5625,-1.26563 2.10937,-2.01563 0.54688,-0.75 0.54688,-1.40625 0,-0.70312 -0.5,-1.17187 -0.5,-0.48438 -1.29688,-0.48438 -0.85937,0 -1.375,0.51563 -0.5,0.5 -0.5,1.39062 l -1.20312,-0.10937 q 0.125,-1.35938 0.92187,-2.0625 0.8125,-0.70313 2.17188,-0.70313 1.375,0 2.17187,0.76563 0.8125,0.75 0.8125,1.875 0,0.57812 -0.23437,1.14062 -0.23438,0.54688 -0.78125,1.15625 -0.54688,0.60938 -1.8125,1.67188 -1.04688,0.89062 -1.35938,1.21875 -0.29687,0.3125 -0.48437,0.625 l 4.67187,0 z m 1.25623,-1.375 1.23437,-0.10938 q 0.14063,0.90625 0.64063,1.35938 0.5,0.45312 1.20312,0.45312 0.84375,0 1.42188,-0.64062 0.59375,-0.64063 0.59375,-1.6875 0,-1 -0.5625,-1.57813 -0.5625,-0.59375 -1.48438,-0.59375 -0.5625,0 -1.01562,0.26563 -0.45313,0.25 -0.71875,0.67187 l -1.09375,-0.15625 0.92187,-4.89062 4.75,0 0,1.10937 -3.8125,0 -0.51562,2.5625 q 0.85937,-0.59375 1.79687,-0.59375 1.25,0 2.10938,0.875 0.85937,0.85938 0.85937,2.21875 0,1.29688 -0.75,2.23438 -0.92187,1.15625 -2.5,1.15625 -1.3125,0 -2.14062,-0.71875 -0.8125,-0.73438 -0.9375,-1.9375 z m 11.83435,2.5 -1.17188,0 0,-7.46875 q -0.42187,0.40625 -1.10937,0.8125 -0.6875,0.40625 -1.23438,0.60937 l 0,-1.14062 q 0.98438,-0.45313 1.71875,-1.10938 0.73438,-0.67187 1.03125,-1.28125 l 0.76563,0 0,9.57813 z m 7.41247,0 -1.17187,0 0,-7.46875 q -0.42188,0.40625 -1.10938,0.8125 -0.6875,0.40625 -1.23437,0.60937 l 0,-1.14062 q 0.98437,-0.45313 1.71875,-1.10938 0.73437,-0.67187 1.03125,-1.28125 l 0.76562,0 0,9.57813 z" />
  <path
     style="fill:#000000;fill-rule:nonzero"
     inkscape:connector-curvature="0"
     id="path35"
     d="m 10.51563,136.84073 0,-9.54688 1.29687,0 5.01563,7.5 0,-7.5 1.20312,0 0,9.54688 -1.29687,0 -5.01563,-7.5 0,7.5 -1.20312,0 z m 14.01578,0 0,-1.01563 q -0.8125,1.17188 -2.1875,1.17188 -0.60938,0 -1.14063,-0.23438 -0.53125,-0.23437 -0.79687,-0.57812 -0.25,-0.35938 -0.35938,-0.875 -0.0625,-0.34375 -0.0625,-1.09375 l 0,-4.28125 1.17188,0 0,3.82812 q 0,0.92188 0.0625,1.23438 0.10937,0.46875 0.46875,0.73437 0.35937,0.25 0.89062,0.25 0.51563,0 0.98438,-0.26562 0.46875,-0.26563 0.65625,-0.73438 0.1875,-0.46875 0.1875,-1.34375 l 0,-3.70312 1.17187,0 0,6.90625 -1.04687,0 z m 7.39685,-2.53125 1.15625,0.15625 q -0.1875,1.1875 -0.96875,1.85937 -0.78125,0.67188 -1.92188,0.67188 -1.40625,0 -2.28125,-0.92188 -0.85937,-0.9375 -0.85937,-2.65625 0,-1.125 0.375,-1.96875 0.375,-0.84375 1.125,-1.25 0.76562,-0.42187 1.65625,-0.42187 1.125,0 1.84375,0.57812 0.71875,0.5625 0.92187,1.60938 l -1.14062,0.17187 q -0.17188,-0.70312 -0.59375,-1.04687 -0.40625,-0.35938 -0.98438,-0.35938 -0.89062,0 -1.45312,0.64063 -0.54688,0.64062 -0.54688,2 0,1.40625 0.53125,2.03125 0.54688,0.625 1.40625,0.625 0.6875,0 1.14063,-0.42188 0.46875,-0.42187 0.59375,-1.29687 z m 2.13281,2.53125 0,-9.54688 1.17188,0 0,9.54688 -1.17188,0 z m 7.71109,-2.21875 1.20313,0.14062 q -0.28125,1.0625 -1.0625,1.65625 -0.76563,0.57813 -1.96875,0.57813 -1.51563,0 -2.40625,-0.9375 -0.89063,-0.9375 -0.89063,-2.60938 0,-1.75 0.89063,-2.70312 0.90625,-0.96875 2.34375,-0.96875 1.39062,0 2.26562,0.9375 0.875,0.9375 0.875,2.65625 0,0.10937 0,0.3125 l -5.15625,0 q 0.0625,1.14062 0.64063,1.75 0.57812,0.59375 1.4375,0.59375 0.65625,0 1.10937,-0.32813 0.45313,-0.34375 0.71875,-1.07812 z m -3.84375,-1.90625 3.85938,0 q -0.0781,-0.85938 -0.4375,-1.29688 -0.5625,-0.6875 -1.45313,-0.6875 -0.8125,0 -1.35937,0.54688 -0.54688,0.53125 -0.60938,1.4375 z m 11.03748,3.26562 q -0.65625,0.5625 -1.26563,0.79688 -0.59375,0.21875 -1.28125,0.21875 -1.14062,0 -1.75,-0.54688 -0.60937,-0.5625 -0.60937,-1.4375 0,-0.5 0.21875,-0.92187 0.23437,-0.42188 0.60937,-0.67188 0.375,-0.25 0.84375,-0.39062 0.34375,-0.0781 1.04688,-0.17188 1.42187,-0.17187 2.09375,-0.40625 0,-0.23437 0,-0.29687 0,-0.71875 -0.32813,-1.01563 -0.45312,-0.39062 -1.34375,-0.39062 -0.8125,0 -1.21875,0.29687 -0.39062,0.28125 -0.57812,1.01563 l -1.14063,-0.15625 q 0.15625,-0.73438 0.51563,-1.1875 0.35937,-0.45313 1.03125,-0.6875 0.67187,-0.25 1.5625,-0.25 0.89062,0 1.4375,0.20312 0.5625,0.20313 0.8125,0.53125 0.26562,0.3125 0.375,0.79688 0.0469,0.29687 0.0469,1.07812 l 0,1.5625 q 0,1.625 0.0781,2.0625 0.0781,0.4375 0.29687,0.82813 l -1.21875,0 q -0.1875,-0.35938 -0.23437,-0.85938 z m -0.0937,-2.60937 q -0.64063,0.26562 -1.92188,0.4375 -0.71875,0.10937 -1.01562,0.25 -0.29688,0.125 -0.46875,0.375 -0.15625,0.25 -0.15625,0.54687 0,0.46875 0.34375,0.78125 0.35937,0.3125 1.04687,0.3125 0.67188,0 1.20313,-0.29687 0.53125,-0.29688 0.78125,-0.8125 0.1875,-0.39063 0.1875,-1.17188 l 0,-0.42187 z m 2.97497,3.46875 0,-6.90625 1.0625,0 0,1.04687 q 0.40625,-0.73437 0.73438,-0.96875 0.34375,-0.23437 0.76562,-0.23437 0.59375,0 1.20313,0.375 l -0.40625,1.07812 q -0.4375,-0.25 -0.85938,-0.25 -0.39062,0 -0.70312,0.23438 -0.29688,0.23437 -0.42188,0.64062 -0.20312,0.625 -0.20312,1.35938 l 0,3.625 -1.17188,0 z m 8.43823,0 0,-6 -1.03125,0 0,-0.90625 1.03125,0 0,-0.73438 q 0,-0.70312 0.125,-1.04687 0.17188,-0.45313 0.59375,-0.73438 0.42188,-0.28125 1.20313,-0.28125 0.48437,0 1.09375,0.10938 l -0.1875,1.03125 q -0.35938,-0.0625 -0.6875,-0.0625 -0.53125,0 -0.75,0.23437 -0.21875,0.21875 -0.21875,0.84375 l 0,0.64063 1.34375,0 0,0.90625 -1.34375,0 0,6 -1.17188,0 z m 7.93738,-0.85938 q -0.65625,0.5625 -1.26562,0.79688 -0.59375,0.21875 -1.28125,0.21875 -1.14063,0 -1.75,-0.54688 -0.60938,-0.5625 -0.60938,-1.4375 0,-0.5 0.21875,-0.92187 0.23438,-0.42188 0.60938,-0.67188 0.375,-0.25 0.84375,-0.39062 0.34375,-0.0781 1.04687,-0.17188 1.42188,-0.17187 2.09375,-0.40625 0,-0.23437 0,-0.29687 0,-0.71875 -0.32812,-1.01563 -0.45313,-0.39062 -1.34375,-0.39062 -0.8125,0 -1.21875,0.29687 -0.39063,0.28125 -0.57813,1.01563 l -1.14062,-0.15625 q 0.15625,-0.73438 0.51562,-1.1875 0.35938,-0.45313 1.03125,-0.6875 0.67188,-0.25 1.5625,-0.25 0.89063,0 1.4375,0.20312 0.5625,0.20313 0.8125,0.53125 0.26563,0.3125 0.375,0.79688 0.0469,0.29687 0.0469,1.07812 l 0,1.5625 q 0,1.625 0.0781,2.0625 0.0781,0.4375 0.29688,0.82813 l -1.21875,0 q -0.1875,-0.35938 -0.23438,-0.85938 z m -0.0937,-2.60937 q -0.64062,0.26562 -1.92187,0.4375 -0.71875,0.10937 -1.01563,0.25 -0.29687,0.125 -0.46875,0.375 -0.15625,0.25 -0.15625,0.54687 0,0.46875 0.34375,0.78125 0.35938,0.3125 1.04688,0.3125 0.67187,0 1.20312,-0.29687 0.53125,-0.29688 0.78125,-0.8125 0.1875,-0.39063 0.1875,-1.17188 l 0,-0.42187 z m 7.50623,0.9375 1.15625,0.15625 q -0.1875,1.1875 -0.96875,1.85937 -0.78125,0.67188 -1.92188,0.67188 -1.40625,0 -2.28125,-0.92188 -0.85937,-0.9375 -0.85937,-2.65625 0,-1.125 0.375,-1.96875 0.375,-0.84375 1.125,-1.25 0.76562,-0.42187 1.65625,-0.42187 1.125,0 1.84375,0.57812 0.71875,0.5625 0.92187,1.60938 l -1.14062,0.17187 q -0.17188,-0.70312 -0.59375,-1.04687 -0.40625,-0.35938 -0.98438,-0.35938 -0.89062,0 -1.45312,0.64063 -0.54688,0.64062 -0.54688,2 0,1.40625 0.53125,2.03125 0.54688,0.625 1.40625,0.625 0.6875,0 1.14063,-0.42188 0.46875,-0.42187 0.59375,-1.29687 z m 4.71094,1.48437 0.17187,1.03125 q -0.5,0.10938 -0.89062,0.10938 -0.64063,0 -1,-0.20313 -0.34375,-0.20312 -0.48438,-0.53125 -0.14062,-0.32812 -0.14062,-1.39062 l 0,-3.96875 -0.85938,0 0,-0.90625 0.85938,0 0,-1.71875 1.17187,-0.70313 0,2.42188 1.17188,0 0,0.90625 -1.17188,0 0,4.04687 q 0,0.5 0.0469,0.64063 0.0625,0.14062 0.20312,0.23437 0.14063,0.0781 0.40625,0.0781 0.20313,0 0.51563,-0.0469 z m 0.70297,-2.40625 q 0,-1.92187 1.07812,-2.84375 0.89063,-0.76562 2.17188,-0.76562 1.42187,0 2.32812,0.9375 0.90625,0.92187 0.90625,2.57812 0,1.32813 -0.40625,2.09375 -0.39062,0.76563 -1.15625,1.1875 -0.76562,0.42188 -1.67187,0.42188 -1.45313,0 -2.35938,-0.92188 -0.89062,-0.9375 -0.89062,-2.6875 z m 1.20312,0 q 0,1.32813 0.57813,1.98438 0.59375,0.65625 1.46875,0.65625 0.875,0 1.45312,-0.65625 0.57813,-0.67188 0.57813,-2.03125 0,-1.28125 -0.59375,-1.9375 -0.57813,-0.65625 -1.4375,-0.65625 -0.875,0 -1.46875,0.65625 -0.57813,0.65625 -0.57813,1.98437 z m 6.63123,3.45313 0,-6.90625 1.0625,0 0,1.04687 q 0.40625,-0.73437 0.73437,-0.96875 0.34375,-0.23437 0.76563,-0.23437 0.59375,0 1.20312,0.375 l -0.40625,1.07812 q -0.4375,-0.25 -0.85937,-0.25 -0.39063,0 -0.70313,0.23438 -0.29687,0.23437 -0.42187,0.64062 -0.20313,0.625 -0.20313,1.35938 l 0,3.625 -1.17187,0 z m 8.17261,0 0,-9.54688 1.17187,0 0,5.45313 2.76563,-2.8125 1.51562,0 -2.64062,2.5625 2.90625,4.34375 -1.4375,0 -2.28125,-3.53125 -0.82813,0.79687 0,2.73438 -1.17187,0 z m 11.16406,-0.85938 q -0.65625,0.5625 -1.26563,0.79688 -0.59375,0.21875 -1.28125,0.21875 -1.14062,0 -1.75,-0.54688 -0.60937,-0.5625 -0.60937,-1.4375 0,-0.5 0.21875,-0.92187 0.23437,-0.42188 0.60937,-0.67188 0.375,-0.25 0.84375,-0.39062 0.34375,-0.0781 1.04688,-0.17188 1.42187,-0.17187 2.09375,-0.40625 0,-0.23437 0,-0.29687 0,-0.71875 -0.32813,-1.01563 -0.45312,-0.39062 -1.34375,-0.39062 -0.8125,0 -1.21875,0.29687 -0.39062,0.28125 -0.57812,1.01563 l -1.14063,-0.15625 q 0.15625,-0.73438 0.51563,-1.1875 0.35937,-0.45313 1.03125,-0.6875 0.67187,-0.25 1.5625,-0.25 0.89062,0 1.4375,0.20312 0.5625,0.20313 0.8125,0.53125 0.26562,0.3125 0.375,0.79688 0.0469,0.29687 0.0469,1.07812 l 0,1.5625 q 0,1.625 0.0781,2.0625 0.0781,0.4375 0.29687,0.82813 l -1.21875,0 q -0.1875,-0.35938 -0.23437,-0.85938 z m -0.0937,-2.60937 q -0.64063,0.26562 -1.92188,0.4375 -0.71875,0.10937 -1.01562,0.25 -0.29688,0.125 -0.46875,0.375 -0.15625,0.25 -0.15625,0.54687 0,0.46875 0.34375,0.78125 0.35937,0.3125 1.04687,0.3125 0.67188,0 1.20313,-0.29687 0.53125,-0.29688 0.78125,-0.8125 0.1875,-0.39063 0.1875,-1.17188 l 0,-0.42187 z m 2.9906,6.125 0,-9.5625 1.07812,0 0,0.89062 q 0.375,-0.53125 0.84375,-0.78125 0.48438,-0.26562 1.15625,-0.26562 0.875,0 1.54688,0.45312 0.6875,0.45313 1.03125,1.28125 0.34375,0.82813 0.34375,1.82813 0,1.04687 -0.375,1.90625 -0.375,0.84375 -1.10938,1.29687 -0.71875,0.45313 -1.53125,0.45313 -0.57812,0 -1.04687,-0.25 -0.46875,-0.25 -0.76563,-0.625 l 0,3.375 -1.17187,0 z m 1.0625,-6.07813 q 0,1.34375 0.53125,1.98438 0.54687,0.625 1.3125,0.625 0.78125,0 1.34375,-0.65625 0.5625,-0.65625 0.5625,-2.04688 0,-1.3125 -0.54688,-1.96875 -0.54687,-0.67187 -1.29687,-0.67187 -0.75,0 -1.32813,0.70312 -0.57812,0.70313 -0.57812,2.03125 z m 6.34997,6.07813 0,-9.5625 1.07813,0 0,0.89062 q 0.375,-0.53125 0.84375,-0.78125 0.48437,-0.26562 1.15625,-0.26562 0.875,0 1.54687,0.45312 0.6875,0.45313 1.03125,1.28125 0.34375,0.82813 0.34375,1.82813 0,1.04687 -0.375,1.90625 -0.375,0.84375 -1.10937,1.29687 -0.71875,0.45313 -1.53125,0.45313 -0.57813,0 -1.04688,-0.25 -0.46875,-0.25 -0.76562,-0.625 l 0,3.375 -1.17188,0 z m 1.0625,-6.07813 q 0,1.34375 0.53125,1.98438 0.54688,0.625 1.3125,0.625 0.78125,0 1.34375,-0.65625 0.5625,-0.65625 0.5625,-2.04688 0,-1.3125 -0.54687,-1.96875 -0.54688,-0.67187 -1.29688,-0.67187 -0.75,0 -1.32812,0.70312 -0.57813,0.70313 -0.57813,2.03125 z m 10.86561,2.5625 q -0.65625,0.5625 -1.26563,0.79688 -0.59375,0.21875 -1.28125,0.21875 -1.14062,0 -1.75,-0.54688 -0.60937,-0.5625 -0.60937,-1.4375 0,-0.5 0.21875,-0.92187 0.23437,-0.42188 0.60937,-0.67188 0.375,-0.25 0.84375,-0.39062 0.34375,-0.0781 1.04688,-0.17188 1.42187,-0.17187 2.09375,-0.40625 0,-0.23437 0,-0.29687 0,-0.71875 -0.32813,-1.01563 -0.45312,-0.39062 -1.34375,-0.39062 -0.8125,0 -1.21875,0.29687 -0.39062,0.28125 -0.57812,1.01563 l -1.14063,-0.15625 q 0.15625,-0.73438 0.51563,-1.1875 0.35937,-0.45313 1.03125,-0.6875 0.67187,-0.25 1.5625,-0.25 0.89062,0 1.4375,0.20312 0.5625,0.20313 0.8125,0.53125 0.26562,0.3125 0.375,0.79688 0.0469,0.29687 0.0469,1.07812 l 0,1.5625 q 0,1.625 0.0781,2.0625 0.0781,0.4375 0.29687,0.82813 l -1.21875,0 q -0.1875,-0.35938 -0.23437,-0.85938 z m -0.0937,-2.60937 q -0.64063,0.26562 -1.92188,0.4375 -0.71875,0.10937 -1.01562,0.25 -0.29688,0.125 -0.46875,0.375 -0.15625,0.25 -0.15625,0.54687 0,0.46875 0.34375,0.78125 0.35937,0.3125 1.04687,0.3125 0.67188,0 1.20313,-0.29687 0.53125,-0.29688 0.78125,-0.8125 0.1875,-0.39063 0.1875,-1.17188 l 0,-0.42187 z m 2.53747,0.60937 0,-1.1875 3.59375,0 0,1.1875 -3.59375,0 z m 4.98526,2.85938 0,-9.54688 3.59375,0 q 1.09375,0 1.75,0.29688 0.65625,0.28125 1.03125,0.89062 0.375,0.60938 0.375,1.26563 0,0.60937 -0.34375,1.15625 -0.32812,0.53125 -0.98437,0.85937 0.85937,0.25 1.32812,0.875 0.46875,0.60938 0.46875,1.4375 0,0.67188 -0.29687,1.25 -0.28125,0.57813 -0.70313,0.89063 -0.40625,0.3125 -1.03125,0.46875 -0.625,0.15625 -1.54687,0.15625 l -3.64063,0 z m 1.26563,-5.53125 2.0625,0 q 0.84375,0 1.20312,-0.10938 0.48438,-0.14062 0.71875,-0.46875 0.25,-0.34375 0.25,-0.84375 0,-0.46875 -0.23437,-0.82812 -0.21875,-0.35938 -0.64063,-0.5 -0.42187,-0.14063 -1.45312,-0.14063 l -1.90625,0 0,2.89063 z m 0,4.40625 2.375,0 q 0.60937,0 0.85937,-0.0469 0.4375,-0.0781 0.73438,-0.25 0.29687,-0.1875 0.48437,-0.53125 0.1875,-0.35937 0.1875,-0.8125 0,-0.53125 -0.28125,-0.92187 -0.26562,-0.40625 -0.75,-0.5625 -0.48437,-0.15625 -1.40625,-0.15625 l -2.20312,0 0,3.28125 z m 11.23336,3.78125 0,-9.5625 1.07813,0 0,0.89062 q 0.375,-0.53125 0.84375,-0.78125 0.48437,-0.26562 1.15625,-0.26562 0.875,0 1.54687,0.45312 0.6875,0.45313 1.03125,1.28125 0.34375,0.82813 0.34375,1.82813 0,1.04687 -0.375,1.90625 -0.375,0.84375 -1.10937,1.29687 -0.71875,0.45313 -1.53125,0.45313 -0.57813,0 -1.04688,-0.25 -0.46875,-0.25 -0.76562,-0.625 l 0,3.375 -1.17188,0 z m 1.0625,-6.07813 q 0,1.34375 0.53125,1.98438 0.54688,0.625 1.3125,0.625 0.78125,0 1.34375,-0.65625 0.5625,-0.65625 0.5625,-2.04688 0,-1.3125 -0.54687,-1.96875 -0.54688,-0.67187 -1.29688,-0.67187 -0.75,0 -1.32812,0.70312 -0.57813,0.70313 -0.57813,2.03125 z m 12.09998,-3.78125 -1.15625,0.0937 q -0.15625,-0.6875 -0.4375,-1 -0.48437,-0.5 -1.17187,-0.5 -0.5625,0 -0.98438,0.3125 -0.5625,0.39063 -0.89062,1.17188 -0.3125,0.76562 -0.3125,2.20312 0.42187,-0.64062 1.03125,-0.95312 0.60937,-0.3125 1.28125,-0.3125 1.17187,0 1.98437,0.85937 0.82813,0.85938 0.82813,2.23438 0,0.89062 -0.39063,1.67187 -0.375,0.76563 -1.0625,1.17188 -0.67187,0.40625 -1.53125,0.40625 -1.46875,0 -2.39062,-1.0625 -0.92188,-1.07813 -0.92188,-3.5625 0,-2.76563 1.01563,-4.01563 0.90625,-1.09375 2.40625,-1.09375 1.125,0 1.84375,0.64063 0.71875,0.625 0.85937,1.73437 z m -4.78125,4.10938 q 0,0.60937 0.25,1.17187 0.26563,0.54688 0.71875,0.84375 0.46875,0.28125 0.98438,0.28125 0.73437,0 1.26562,-0.59375 0.54688,-0.60937 0.54688,-1.64062 0,-0.98438 -0.53125,-1.54688 -0.53125,-0.57812 -1.32813,-0.57812 -0.79687,0 -1.35937,0.57812 -0.54688,0.5625 -0.54688,1.48438 z m 6.1156,0.59375 1.23438,-0.10938 q 0.14062,0.90625 0.64062,1.35938 0.5,0.45312 1.20313,0.45312 0.84375,0 1.42187,-0.64062 0.59375,-0.64063 0.59375,-1.6875 0,-1 -0.5625,-1.57813 -0.5625,-0.59375 -1.48437,-0.59375 -0.5625,0 -1.01563,0.26563 -0.45312,0.25 -0.71875,0.67187 l -1.09375,-0.15625 0.92188,-4.89062 4.75,0 0,1.10937 -3.8125,0 -0.51563,2.5625 q 0.85938,-0.59375 1.79688,-0.59375 1.25,0 2.10937,0.875 0.85938,0.85938 0.85938,2.21875 0,1.29688 -0.75,2.23438 -0.92188,1.15625 -2.5,1.15625 -1.3125,0 -2.14063,-0.71875 -0.8125,-0.73438 -0.9375,-1.9375 z" />
  <path
     style="fill:#000000;fill-rule:nonzero"
     inkscape:connector-curvature="0"
     id="path37"
     d="m 199.4112,127.29385 1.26562,0 0,5.51562 q 0,1.4375 -0.32812,2.29688 -0.3125,0.84375 -1.17188,1.375 -0.84375,0.51562 -2.21875,0.51562 -1.34375,0 -2.20312,-0.45312 -0.84375,-0.46875 -1.21875,-1.34375 -0.35938,-0.875 -0.35938,-2.39063 l 0,-5.51562 1.26563,0 0,5.51562 q 0,1.23438 0.21875,1.82813 0.23437,0.59375 0.79687,0.92187 0.5625,0.3125 1.39063,0.3125 1.39062,0 1.96875,-0.625 0.59375,-0.64062 0.59375,-2.4375 l 0,-5.51562 z m 3.21893,9.54687 0,-6.90625 1.0625,0 0,0.98438 q 0.75,-1.14063 2.1875,-1.14063 0.625,0 1.15625,0.21875 0.53125,0.21875 0.78125,0.59375 0.26563,0.35938 0.375,0.85938 0.0625,0.32812 0.0625,1.14062 l 0,4.25 -1.17187,0 0,-4.20312 q 0,-0.71875 -0.14063,-1.0625 -0.14062,-0.35938 -0.48437,-0.5625 -0.34375,-0.21875 -0.8125,-0.21875 -0.75,0 -1.29688,0.46875 -0.54687,0.46875 -0.54687,1.79687 l 0,3.78125 -1.17188,0 z m 7.4281,-8.1875 0,-1.35937 1.17188,0 0,1.35937 -1.17188,0 z m 0,8.1875 0,-6.90625 1.17188,0 0,6.90625 -1.17188,0 z m 2.94544,2.65625 0,-9.5625 1.07812,0 0,0.89063 q 0.375,-0.53125 0.84375,-0.78125 0.48438,-0.26563 1.15625,-0.26563 0.875,0 1.54688,0.45313 0.6875,0.45312 1.03125,1.28125 0.34375,0.82812 0.34375,1.82812 0,1.04688 -0.375,1.90625 -0.375,0.84375 -1.10938,1.29688 -0.71875,0.45312 -1.53125,0.45312 -0.57812,0 -1.04687,-0.25 -0.46875,-0.25 -0.76563,-0.625 l 0,3.375 -1.17187,0 z m 1.0625,-6.07812 q 0,1.34375 0.53125,1.98437 0.54687,0.625 1.3125,0.625 0.78125,0 1.34375,-0.65625 0.5625,-0.65625 0.5625,-2.04687 0,-1.3125 -0.54688,-1.96875 -0.54687,-0.67188 -1.29687,-0.67188 -0.75,0 -1.32813,0.70313 -0.57812,0.70312 -0.57812,2.03125 z m 6.33435,3.42187 0,-6.90625 1.0625,0 0,1.04688 q 0.40625,-0.73438 0.73437,-0.96875 0.34375,-0.23438 0.76563,-0.23438 0.59375,0 1.20312,0.375 l -0.40625,1.07813 q -0.4375,-0.25 -0.85937,-0.25 -0.39063,0 -0.70313,0.23437 -0.29687,0.23438 -0.42187,0.64063 -0.20313,0.625 -0.20313,1.35937 l 0,3.625 -1.17187,0 z m 4.01648,-3.45312 q 0,-1.92188 1.07812,-2.84375 0.89063,-0.76563 2.17188,-0.76563 1.42187,0 2.32812,0.9375 0.90625,0.92188 0.90625,2.57813 0,1.32812 -0.40625,2.09375 -0.39062,0.76562 -1.15625,1.1875 -0.76562,0.42187 -1.67187,0.42187 -1.45313,0 -2.35938,-0.92187 -0.89062,-0.9375 -0.89062,-2.6875 z m 1.20312,0 q 0,1.32812 0.57813,1.98437 0.59375,0.65625 1.46875,0.65625 0.875,0 1.45312,-0.65625 0.57813,-0.67187 0.57813,-2.03125 0,-1.28125 -0.59375,-1.9375 -0.57813,-0.65625 -1.4375,-0.65625 -0.875,0 -1.46875,0.65625 -0.57813,0.65625 -0.57813,1.98438 z m 9.20935,2.40625 0.17188,1.03125 q -0.5,0.10937 -0.89063,0.10937 -0.64062,0 -1,-0.20312 -0.34375,-0.20313 -0.48437,-0.53125 -0.14063,-0.32813 -0.14063,-1.39063 l 0,-3.96875 -0.85937,0 0,-0.90625 0.85937,0 0,-1.71875 1.17188,-0.70312 0,2.42187 1.17187,0 0,0.90625 -1.17187,0 0,4.04688 q 0,0.5 0.0469,0.64062 0.0625,0.14063 0.20313,0.23438 0.14062,0.0781 0.40625,0.0781 0.20312,0 0.51562,-0.0469 z m 1.46863,-4.53125 0,-1.32813 1.32813,0 0,1.32813 -1.32813,0 z m 0,5.57812 0,-1.32812 1.32813,0 0,1.32812 -1.32813,0 z m 10.76551,-1.01562 q 0.875,0.59375 1.60937,0.875 l -0.35937,0.875 q -1.03125,-0.35938 -2.0625,-1.15625 -1.0625,0.57812 -2.34375,0.57812 -1.29688,0 -2.34375,-0.625 -1.04688,-0.625 -1.625,-1.75 -0.5625,-1.125 -0.5625,-2.54687 0,-1.42188 0.5625,-2.57813 0.57812,-1.15625 1.625,-1.75 1.0625,-0.60937 2.375,-0.60937 1.32812,0 2.375,0.625 1.0625,0.625 1.625,1.75 0.5625,1.125 0.5625,2.54687 0,1.1875 -0.35938,2.125 -0.35937,0.9375 -1.07812,1.64063 z m -2.78125,-1.625 q 1.09375,0.3125 1.79687,0.92187 1.10938,-1.01562 1.10938,-3.0625 0,-1.15625 -0.39063,-2.01562 -0.39062,-0.875 -1.15625,-1.34375 -0.75,-0.48438 -1.70312,-0.48438 -1.40625,0 -2.34375,0.96875 -0.92188,0.96875 -0.92188,2.89063 0,1.85937 0.92188,2.85937 0.92187,0.98438 2.34375,0.98438 0.6875,0 1.28125,-0.25 -0.59375,-0.39063 -1.25,-0.54688 l 0.3125,-0.92187 z m 5.42956,-2.0625 q 0,-1.6875 0.34375,-2.71875 0.35938,-1.03125 1.04688,-1.59375 0.6875,-0.5625 1.71875,-0.5625 0.78125,0 1.35937,0.3125 0.57813,0.29687 0.95313,0.89062 0.375,0.57813 0.59375,1.42188 0.21875,0.82812 0.21875,2.25 0,1.67187 -0.35938,2.70312 -0.34375,1.03125 -1.03125,1.59375 -0.67187,0.5625 -1.73437,0.5625 -1.375,0 -2.15625,-0.98437 -0.95313,-1.1875 -0.95313,-3.875 z m 1.20313,0 q 0,2.34375 0.54687,3.125 0.5625,0.78125 1.35938,0.78125 0.8125,0 1.35937,-0.78125 0.5625,-0.78125 0.5625,-3.125 0,-2.35938 -0.5625,-3.125 -0.54687,-0.78125 -1.35937,-0.78125 -0.8125,0 -1.29688,0.6875 -0.60937,0.875 -0.60937,3.21875 z m 9.97497,4.70312 0,-2.28125 -4.14062,0 0,-1.07812 4.34375,-6.1875 0.96875,0 0,6.1875 1.28125,0 0,1.07812 -1.28125,0 0,2.28125 -1.17188,0 z m 0,-3.35937 0,-4.29688 -2.98437,4.29688 2.98437,0 z m 9.8031,2.23437 0,1.125 -6.29687,0 q -0.0156,-0.42187 0.14062,-0.8125 0.23438,-0.64062 0.76563,-1.26562 0.53125,-0.625 1.53125,-1.45313 1.5625,-1.26562 2.10937,-2.01562 0.54688,-0.75 0.54688,-1.40625 0,-0.70313 -0.5,-1.17188 -0.5,-0.48437 -1.29688,-0.48437 -0.85937,0 -1.375,0.51562 -0.5,0.5 -0.5,1.39063 l -1.20312,-0.10938 q 0.125,-1.35937 0.92187,-2.0625 0.8125,-0.70312 2.17188,-0.70312 1.375,0 2.17187,0.76562 0.8125,0.75 0.8125,1.875 0,0.57813 -0.23437,1.14063 -0.23438,0.54687 -0.78125,1.15625 -0.54688,0.60937 -1.8125,1.67187 -1.04688,0.89063 -1.35938,1.21875 -0.29687,0.3125 -0.48437,0.625 l 4.67187,0 z m 1.25623,-3.57812 q 0,-1.6875 0.34375,-2.71875 0.35937,-1.03125 1.04687,-1.59375 0.6875,-0.5625 1.71875,-0.5625 0.78125,0 1.35938,0.3125 0.57812,0.29687 0.95312,0.89062 0.375,0.57813 0.59375,1.42188 0.21875,0.82812 0.21875,2.25 0,1.67187 -0.35937,2.70312 -0.34375,1.03125 -1.03125,1.59375 -0.67188,0.5625 -1.73438,0.5625 -1.375,0 -2.15625,-0.98437 -0.95312,-1.1875 -0.95312,-3.875 z m 1.20312,0 q 0,2.34375 0.54688,3.125 0.5625,0.78125 1.35937,0.78125 0.8125,0 1.35938,-0.78125 0.5625,-0.78125 0.5625,-3.125 0,-2.35938 -0.5625,-3.125 -0.54688,-0.78125 -1.35938,-0.78125 -0.8125,0 -1.29687,0.6875 -0.60938,0.875 -0.60938,3.21875 z m 12.28748,-2.5 -1.15625,0.0937 q -0.15625,-0.6875 -0.4375,-1 -0.48438,-0.5 -1.17188,-0.5 -0.5625,0 -0.98437,0.3125 -0.5625,0.39062 -0.89063,1.17187 -0.3125,0.76563 -0.3125,2.20313 0.42188,-0.64063 1.03125,-0.95313 0.60938,-0.3125 1.28125,-0.3125 1.17188,0 1.98438,0.85938 0.82812,0.85937 0.82812,2.23437 0,0.89063 -0.39062,1.67188 -0.375,0.76562 -1.0625,1.17187 -0.67188,0.40625 -1.53125,0.40625 -1.46875,0 -2.39063,-1.0625 -0.92187,-1.07812 -0.92187,-3.5625 0,-2.76562 1.01562,-4.01562 0.90625,-1.09375 2.40625,-1.09375 1.125,0 1.84375,0.64062 0.71875,0.625 0.85938,1.73438 z m -4.78125,4.10937 q 0,0.60938 0.25,1.17188 0.26562,0.54687 0.71875,0.84375 0.46875,0.28125 0.98437,0.28125 0.73438,0 1.26563,-0.59375 0.54687,-0.60938 0.54687,-1.64063 0,-0.98437 -0.53125,-1.54687 -0.53125,-0.57813 -1.32812,-0.57813 -0.79688,0 -1.35938,0.57813 -0.54687,0.5625 -0.54687,1.48437 z" />
  <path
     style="fill:#000000;fill-rule:nonzero"
     inkscape:connector-curvature="0"
     id="path39"
     d="m 12.39063,166.95943 q 0.15625,-0.15625 0.35937,-0.15625 0.20313,0 0.35938,0.15625 0.15625,0.15625 0.15625,0.35937 0,0.20313 -0.15625,0.34375 -0.15625,0.15625 -0.35938,0.15625 -0.20312,0 -0.35937,-0.15625 Q 12.25,167.52193 12.25,167.3188 q 0,-0.20312 0.14063,-0.35937 z m 2.39062,0 q 0.15625,-0.15625 0.35938,-0.15625 0.20312,0 0.35937,0.15625 0.14063,0.15625 0.14063,0.35937 0,0.20313 -0.14063,0.34375 -0.15625,0.15625 -0.35937,0.15625 -0.20313,0 -0.35938,-0.15625 -0.15625,-0.14062 -0.15625,-0.34375 0,-0.20312 0.15625,-0.35937 z m -4.76562,0 q 0.14062,-0.15625 0.34375,-0.15625 0.20312,0 0.35937,0.15625 0.15625,0.15625 0.15625,0.35937 0,0.20313 -0.15625,0.34375 -0.15625,0.15625 -0.35937,0.15625 -0.20313,0 -0.34375,-0.15625 -0.15625,-0.14062 -0.15625,-0.34375 0,-0.20312 0.15625,-0.35937 z" />
  <path
     style="fill:#000000;fill-rule:nonzero"
     inkscape:connector-curvature="0"
     id="path41"
     d="m 195.02054,166.95943 q 0.15625,-0.15625 0.35938,-0.15625 0.20312,0 0.35937,0.15625 0.15625,0.15625 0.15625,0.35937 0,0.20313 -0.15625,0.34375 -0.15625,0.15625 -0.35937,0.15625 -0.20313,0 -0.35938,-0.15625 -0.14062,-0.14062 -0.14062,-0.34375 0,-0.20312 0.14062,-0.35937 z m 2.39063,0 q 0.15625,-0.15625 0.35937,-0.15625 0.20313,0 0.35938,0.15625 0.14062,0.15625 0.14062,0.35937 0,0.20313 -0.14062,0.34375 -0.15625,0.15625 -0.35938,0.15625 -0.20312,0 -0.35937,-0.15625 -0.15625,-0.14062 -0.15625,-0.34375 0,-0.20312 0.15625,-0.35937 z m -4.76563,0 q 0.14063,-0.15625 0.34375,-0.15625 0.20313,0 0.35938,0.15625 0.15625,0.15625 0.15625,0.35937 0,0.20313 -0.15625,0.34375 -0.15625,0.15625 -0.35938,0.15625 -0.20312,0 -0.34375,-0.15625 -0.15625,-0.14062 -0.15625,-0.34375 0,-0.20312 0.15625,-0.35937 z" />
  <path
     style="fill:#ffff00;fill-rule:evenodd"
     inkscape:connector-curvature="0"
     id="path43"
     d="m 0.5,6.19029 0,0 C 0.5,3.04764 3.04764,0.5 6.19028,0.5 l 27.12863,0 0,0 49.22833,0 109.17587,0 c 1.50916,0 2.95648,0.59952 4.02362,1.66665 1.06714,1.06714 1.66663,2.51448 1.66663,4.02364 l 0,14.22572 0,0 0,8.53543 0,0 c 0,3.14267 -2.54761,5.6903 -5.69025,5.6903 l -109.17587,0 -28.57342,9.34118 -20.65491,-9.34118 -27.12863,0 0,0 C 3.04764,34.64174 0.5,32.09411 0.5,28.95144 l 0,0 0,-8.53543 0,0 z" />
  <path
     style="fill-rule:evenodd;stroke:#595959;stroke-width:1;stroke-linecap:butt;stroke-linejoin:round"
     inkscape:connector-curvature="0"
     id="path45"
     d="m 0.5,6.19029 0,0 C 0.5,3.04764 3.04764,0.5 6.19028,0.5 l 27.12863,0 0,0 49.22833,0 109.17587,0 c 1.50916,0 2.95648,0.59952 4.02362,1.66665 1.06714,1.06714 1.66663,2.51448 1.66663,4.02364 l 0,14.22572 0,0 0,8.53543 0,0 c 0,3.14267 -2.54761,5.6903 -5.69025,5.6903 l -109.17587,0 -28.57342,9.34118 -20.65491,-9.34118 -27.12863,0 0,0 C 3.04764,34.64174 0.5,32.09411 0.5,28.95144 l 0,0 0,-8.53543 0,0 z" />
  <path
     style="fill:#000000;fill-rule:nonzero"
     inkscape:connector-curvature="0"
     id="path47"
     d="m 12.04163,22.37087 0,-6.90625 1.0625,0 0,0.98437 q 0.75,-1.14062 2.1875,-1.14062 0.625,0 1.15625,0.21875 0.53125,0.21875 0.78125,0.59375 0.26562,0.35937 0.375,0.85937 0.0625,0.32813 0.0625,1.14063 l 0,4.25 -1.17188,0 0,-4.20313 q 0,-0.71875 -0.14062,-1.0625 -0.14063,-0.35937 -0.48438,-0.5625 -0.34375,-0.21875 -0.8125,-0.21875 -0.75,0 -1.29687,0.46875 -0.54688,0.46875 -0.54688,1.79688 l 0,3.78125 -1.17187,0 z m 11.9281,-0.85938 q -0.65625,0.5625 -1.26562,0.79688 -0.59375,0.21875 -1.28125,0.21875 -1.14063,0 -1.75,-0.54688 -0.60938,-0.5625 -0.60938,-1.4375 0,-0.5 0.21875,-0.92187 0.23438,-0.42188 0.60938,-0.67188 0.375,-0.25 0.84375,-0.39062 0.34375,-0.0781 1.04687,-0.17188 1.42188,-0.17187 2.09375,-0.40625 0,-0.23437 0,-0.29687 0,-0.71875 -0.32812,-1.01563 -0.45313,-0.39062 -1.34375,-0.39062 -0.8125,0 -1.21875,0.29687 -0.39063,0.28125 -0.57813,1.01563 l -1.14062,-0.15625 q 0.15625,-0.73438 0.51562,-1.1875 0.35938,-0.45313 1.03125,-0.6875 0.67188,-0.25 1.5625,-0.25 0.89063,0 1.4375,0.20312 0.5625,0.20313 0.8125,0.53125 0.26563,0.3125 0.375,0.79688 0.0469,0.29687 0.0469,1.07812 l 0,1.5625 q 0,1.625 0.0781,2.0625 0.0781,0.4375 0.29688,0.82813 l -1.21875,0 q -0.1875,-0.35938 -0.23438,-0.85938 z m -0.0937,-2.60937 q -0.64062,0.26562 -1.92187,0.4375 -0.71875,0.10937 -1.01563,0.25 -0.29687,0.125 -0.46875,0.375 -0.15625,0.25 -0.15625,0.54687 0,0.46875 0.34375,0.78125 0.35938,0.3125 1.04688,0.3125 0.67187,0 1.20312,-0.29687 0.53125,-0.29688 0.78125,-0.8125 0.1875,-0.39063 0.1875,-1.17188 l 0,-0.42187 z m 5.5531,2.42187 0.17188,1.03125 q -0.5,0.10938 -0.89063,0.10938 -0.64062,0 -1,-0.20313 -0.34375,-0.20312 -0.48437,-0.53125 -0.14063,-0.32812 -0.14063,-1.39062 l 0,-3.96875 -0.85937,0 0,-0.90625 0.85937,0 0,-1.71875 1.17188,-0.70313 0,2.42188 1.17187,0 0,0.90625 -1.17187,0 0,4.04687 q 0,0.5 0.0469,0.64063 0.0625,0.14062 0.20313,0.23437 0.14062,0.0781 0.40625,0.0781 0.20312,0 0.51562,-0.0469 z m 5.67175,1.04688 0,-1.01563 q -0.8125,1.17188 -2.1875,1.17188 -0.60937,0 -1.14062,-0.23438 -0.53125,-0.23437 -0.79688,-0.57812 -0.25,-0.35938 -0.35937,-0.875 -0.0625,-0.34375 -0.0625,-1.09375 l 0,-4.28125 1.17187,0 0,3.82812 q 0,0.92188 0.0625,1.23438 0.10938,0.46875 0.46875,0.73437 0.35938,0.25 0.89063,0.25 0.51562,0 0.98437,-0.26562 0.46875,-0.26563 0.65625,-0.73438 0.1875,-0.46875 0.1875,-1.34375 l 0,-3.70312 1.17188,0 0,6.90625 -1.04688,0 z m 2.86561,0 0,-6.90625 1.0625,0 0,1.04687 q 0.40625,-0.73437 0.73437,-0.96875 0.34375,-0.23437 0.76563,-0.23437 0.59375,0 1.20312,0.375 l -0.40625,1.07812 q -0.4375,-0.25 -0.85937,-0.25 -0.39063,0 -0.70313,0.23438 -0.29687,0.23437 -0.42187,0.64062 -0.20313,0.625 -0.20313,1.35938 l 0,3.625 -1.17187,0 z m 8.9696,-0.85938 q -0.65625,0.5625 -1.26563,0.79688 -0.59375,0.21875 -1.28125,0.21875 -1.14062,0 -1.75,-0.54688 -0.60937,-0.5625 -0.60937,-1.4375 0,-0.5 0.21875,-0.92187 0.23437,-0.42188 0.60937,-0.67188 0.375,-0.25 0.84375,-0.39062 0.34375,-0.0781 1.04688,-0.17188 1.42187,-0.17187 2.09375,-0.40625 0,-0.23437 0,-0.29687 0,-0.71875 -0.32813,-1.01563 -0.45312,-0.39062 -1.34375,-0.39062 -0.8125,0 -1.21875,0.29687 -0.39062,0.28125 -0.57812,1.01563 l -1.14063,-0.15625 q 0.15625,-0.73438 0.51563,-1.1875 0.35937,-0.45313 1.03125,-0.6875 0.67187,-0.25 1.5625,-0.25 0.89062,0 1.4375,0.20312 0.5625,0.20313 0.8125,0.53125 0.26562,0.3125 0.375,0.79688 0.0469,0.29687 0.0469,1.07812 l 0,1.5625 q 0,1.625 0.0781,2.0625 0.0781,0.4375 0.29687,0.82813 l -1.21875,0 q -0.1875,-0.35938 -0.23437,-0.85938 z m -0.0937,-2.60937 q -0.64063,0.26562 -1.92188,0.4375 -0.71875,0.10937 -1.01562,0.25 -0.29688,0.125 -0.46875,0.375 -0.15625,0.25 -0.15625,0.54687 0,0.46875 0.34375,0.78125 0.35937,0.3125 1.04687,0.3125 0.67188,0 1.20313,-0.29687 0.53125,-0.29688 0.78125,-0.8125 0.1875,-0.39063 0.1875,-1.17188 l 0,-0.42187 z m 2.97498,3.46875 0,-9.54688 1.17187,0 0,9.54688 -1.17187,0 z m 6.66409,0 0,-9.54688 1.17187,0 0,9.54688 -1.17187,0 z m 7.49234,-0.85938 q -0.65625,0.5625 -1.26563,0.79688 -0.59375,0.21875 -1.28125,0.21875 -1.14062,0 -1.75,-0.54688 -0.60937,-0.5625 -0.60937,-1.4375 0,-0.5 0.21875,-0.92187 0.23437,-0.42188 0.60937,-0.67188 0.375,-0.25 0.84375,-0.39062 0.34375,-0.0781 1.04688,-0.17188 1.42187,-0.17187 2.09375,-0.40625 0,-0.23437 0,-0.29687 0,-0.71875 -0.32813,-1.01563 -0.45312,-0.39062 -1.34375,-0.39062 -0.8125,0 -1.21875,0.29687 -0.39062,0.28125 -0.57812,1.01563 l -1.14063,-0.15625 q 0.15625,-0.73438 0.51563,-1.1875 0.35937,-0.45313 1.03125,-0.6875 0.67187,-0.25 1.5625,-0.25 0.89062,0 1.4375,0.20312 0.5625,0.20313 0.8125,0.53125 0.26562,0.3125 0.375,0.79688 0.0469,0.29687 0.0469,1.07812 l 0,1.5625 q 0,1.625 0.0781,2.0625 0.0781,0.4375 0.29687,0.82813 l -1.21875,0 q -0.1875,-0.35938 -0.23437,-0.85938 z m -0.0937,-2.60937 q -0.64063,0.26562 -1.92188,0.4375 -0.71875,0.10937 -1.01562,0.25 -0.29688,0.125 -0.46875,0.375 -0.15625,0.25 -0.15625,0.54687 0,0.46875 0.34375,0.78125 0.35937,0.3125 1.04687,0.3125 0.67188,0 1.20313,-0.29687 0.53125,-0.29688 0.78125,-0.8125 0.1875,-0.39063 0.1875,-1.17188 l 0,-0.42187 z m 2.9906,3.46875 0,-6.90625 1.0625,0 0,0.98437 q 0.75,-1.14062 2.1875,-1.14062 0.625,0 1.15625,0.21875 0.53125,0.21875 0.78125,0.59375 0.26562,0.35937 0.375,0.85937 0.0625,0.32813 0.0625,1.14063 l 0,4.25 -1.17188,0 0,-4.20313 q 0,-0.71875 -0.14062,-1.0625 -0.14063,-0.35937 -0.48438,-0.5625 -0.34375,-0.21875 -0.8125,-0.21875 -0.75,0 -1.29687,0.46875 -0.54688,0.46875 -0.54688,1.79688 l 0,3.78125 -1.17187,0 z m 7.19372,0.57812 1.14063,0.15625 q 0.0781,0.53125 0.40625,0.78125 0.4375,0.3125 1.1875,0.3125 0.8125,0 1.25,-0.32812 0.45312,-0.3125 0.60937,-0.90625 0.0937,-0.35938 0.0781,-1.5 -0.76563,0.90625 -1.90625,0.90625 -1.4375,0 -2.21875,-1.03125 -0.78125,-1.03125 -0.78125,-2.46875 0,-0.98438 0.35937,-1.8125 0.35938,-0.84375 1.03125,-1.29688 0.6875,-0.45312 1.60938,-0.45312 1.21875,0 2.01562,0.98437 l 0,-0.82812 1.07813,0 0,5.96875 q 0,1.60937 -0.32813,2.28125 -0.32812,0.6875 -1.04687,1.07812 -0.70313,0.39063 -1.75,0.39063 -1.23438,0 -2,-0.5625 -0.75,-0.5625 -0.73438,-1.67188 z m 0.98438,-4.15625 q 0,1.35938 0.53125,1.98438 0.54687,0.625 1.35937,0.625 0.79688,0 1.34375,-0.625 0.54688,-0.625 0.54688,-1.95313 0,-1.26562 -0.5625,-1.90625 -0.5625,-0.64062 -1.35938,-0.64062 -0.76562,0 -1.3125,0.64062 -0.54687,0.625 -0.54687,1.875 z m 11.1781,3.57813 0,-1.01563 q -0.8125,1.17188 -2.1875,1.17188 -0.60937,0 -1.14062,-0.23438 -0.53125,-0.23437 -0.79688,-0.57812 -0.25,-0.35938 -0.35937,-0.875 -0.0625,-0.34375 -0.0625,-1.09375 l 0,-4.28125 1.17187,0 0,3.82812 q 0,0.92188 0.0625,1.23438 0.10938,0.46875 0.46875,0.73437 0.35938,0.25 0.89063,0.25 0.51562,0 0.98437,-0.26562 0.46875,-0.26563 0.65625,-0.73438 0.1875,-0.46875 0.1875,-1.34375 l 0,-3.70312 1.17188,0 0,6.90625 -1.04688,0 z m 7.39685,-0.85938 q -0.65625,0.5625 -1.26562,0.79688 -0.59375,0.21875 -1.28125,0.21875 -1.14063,0 -1.75,-0.54688 -0.60938,-0.5625 -0.60938,-1.4375 0,-0.5 0.21875,-0.92187 0.23438,-0.42188 0.60938,-0.67188 0.375,-0.25 0.84375,-0.39062 0.34375,-0.0781 1.04687,-0.17188 1.42188,-0.17187 2.09375,-0.40625 0,-0.23437 0,-0.29687 0,-0.71875 -0.32812,-1.01563 -0.45313,-0.39062 -1.34375,-0.39062 -0.8125,0 -1.21875,0.29687 -0.39063,0.28125 -0.57813,1.01563 l -1.14062,-0.15625 q 0.15625,-0.73438 0.51562,-1.1875 0.35938,-0.45313 1.03125,-0.6875 0.67188,-0.25 1.5625,-0.25 0.89063,0 1.4375,0.20312 0.5625,0.20313 0.8125,0.53125 0.26563,0.3125 0.375,0.79688 0.0469,0.29687 0.0469,1.07812 l 0,1.5625 q 0,1.625 0.0781,2.0625 0.0781,0.4375 0.29688,0.82813 l -1.21875,0 q -0.1875,-0.35938 -0.23438,-0.85938 z m -0.0937,-2.60937 q -0.64062,0.26562 -1.92187,0.4375 -0.71875,0.10937 -1.01563,0.25 -0.29687,0.125 -0.46875,0.375 -0.15625,0.25 -0.15625,0.54687 0,0.46875 0.34375,0.78125 0.35938,0.3125 1.04688,0.3125 0.67187,0 1.20312,-0.29687 0.53125,-0.29688 0.78125,-0.8125 0.1875,-0.39063 0.1875,-1.17188 l 0,-0.42187 z m 2.77185,4.04687 1.14063,0.15625 q 0.0781,0.53125 0.40625,0.78125 0.4375,0.3125 1.1875,0.3125 0.8125,0 1.25,-0.32812 0.45312,-0.3125 0.60937,-0.90625 0.0937,-0.35938 0.0781,-1.5 -0.76563,0.90625 -1.90625,0.90625 -1.4375,0 -2.21875,-1.03125 -0.78125,-1.03125 -0.78125,-2.46875 0,-0.98438 0.35937,-1.8125 0.35938,-0.84375 1.03125,-1.29688 0.6875,-0.45312 1.60938,-0.45312 1.21875,0 2.01562,0.98437 l 0,-0.82812 1.07813,0 0,5.96875 q 0,1.60937 -0.32813,2.28125 -0.32812,0.6875 -1.04687,1.07812 -0.70313,0.39063 -1.75,0.39063 -1.23438,0 -2,-0.5625 -0.75,-0.5625 -0.73438,-1.67188 z m 0.98438,-4.15625 q 0,1.35938 0.53125,1.98438 0.54687,0.625 1.35937,0.625 0.79688,0 1.34375,-0.625 0.54688,-0.625 0.54688,-1.95313 0,-1.26562 -0.5625,-1.90625 -0.5625,-0.64062 -1.35938,-0.64062 -0.76562,0 -1.3125,0.64062 -0.54687,0.625 -0.54687,1.875 z m 11.38122,1.35938 1.20313,0.14062 q -0.28125,1.0625 -1.0625,1.65625 -0.76563,0.57813 -1.96875,0.57813 -1.51563,0 -2.40625,-0.9375 -0.89063,-0.9375 -0.89063,-2.60938 0,-1.75 0.89063,-2.70312 0.90625,-0.96875 2.34375,-0.96875 1.39062,0 2.26562,0.9375 0.875,0.9375 0.875,2.65625 0,0.10937 0,0.3125 l -5.15625,0 q 0.0625,1.14062 0.64063,1.75 0.57812,0.59375 1.4375,0.59375 0.65625,0 1.10937,-0.32813 0.45313,-0.34375 0.71875,-1.07812 z m -3.84375,-1.90625 3.85938,0 q -0.0781,-0.85938 -0.4375,-1.29688 -0.5625,-0.6875 -1.45313,-0.6875 -0.8125,0 -1.35937,0.54688 -0.54688,0.53125 -0.60938,1.4375 z m 14.9592,1.90625 1.20313,0.14062 q -0.28125,1.0625 -1.0625,1.65625 -0.76563,0.57813 -1.96875,0.57813 -1.51563,0 -2.40625,-0.9375 -0.89063,-0.9375 -0.89063,-2.60938 0,-1.75 0.89063,-2.70312 0.90625,-0.96875 2.34375,-0.96875 1.39062,0 2.26562,0.9375 0.875,0.9375 0.875,2.65625 0,0.10937 0,0.3125 l -5.15625,0 q 0.0625,1.14062 0.64063,1.75 0.57812,0.59375 1.4375,0.59375 0.65625,0 1.10937,-0.32813 0.45313,-0.34375 0.71875,-1.07812 z m -3.84375,-1.90625 3.85938,0 q -0.0781,-0.85938 -0.4375,-1.29688 -0.5625,-0.6875 -1.45313,-0.6875 -0.8125,0 -1.35937,0.54688 -0.54688,0.53125 -0.60938,1.4375 z m 5.7406,4.125 2.53125,-3.59375 -2.34375,-3.3125 1.46875,0 1.0625,1.60937 q 0.29688,0.46875 0.48438,0.78125 0.28125,-0.4375 0.51562,-0.76562 l 1.17188,-1.625 1.40625,0 -2.39063,3.25 2.5625,3.65625 -1.4375,0 -1.42187,-2.14063 -0.375,-0.59375 -1.8125,2.73438 -1.42188,0 z m 7.44531,2.65625 0,-9.5625 1.07813,0 0,0.89062 q 0.375,-0.53125 0.84375,-0.78125 0.48437,-0.26562 1.15625,-0.26562 0.875,0 1.54687,0.45312 0.6875,0.45313 1.03125,1.28125 0.34375,0.82813 0.34375,1.82813 0,1.04687 -0.375,1.90625 -0.375,0.84375 -1.10937,1.29687 -0.71875,0.45313 -1.53125,0.45313 -0.57813,0 -1.04688,-0.25 -0.46875,-0.25 -0.76562,-0.625 l 0,3.375 -1.17188,0 z m 1.0625,-6.07813 q 0,1.34375 0.53125,1.98438 0.54688,0.625 1.3125,0.625 0.78125,0 1.34375,-0.65625 0.5625,-0.65625 0.5625,-2.04688 0,-1.3125 -0.54687,-1.96875 -0.54688,-0.67187 -1.29688,-0.67187 -0.75,0 -1.32812,0.70312 -0.57813,0.70313 -0.57813,2.03125 z m 6.33435,3.42188 0,-6.90625 1.0625,0 0,1.04687 q 0.40625,-0.73437 0.73438,-0.96875 0.34375,-0.23437 0.76562,-0.23437 0.59375,0 1.20313,0.375 l -0.40625,1.07812 q -0.4375,-0.25 -0.85938,-0.25 -0.39062,0 -0.70312,0.23438 -0.29688,0.23437 -0.42188,0.64062 -0.20312,0.625 -0.20312,1.35938 l 0,3.625 -1.17188,0 z m 9.18839,-2.21875 1.20312,0.14062 q -0.28125,1.0625 -1.0625,1.65625 -0.76562,0.57813 -1.96875,0.57813 -1.51562,0 -2.40625,-0.9375 -0.89062,-0.9375 -0.89062,-2.60938 0,-1.75 0.89062,-2.70312 0.90625,-0.96875 2.34375,-0.96875 1.39063,0 2.26563,0.9375 0.875,0.9375 0.875,2.65625 0,0.10937 0,0.3125 l -5.15625,0 q 0.0625,1.14062 0.64062,1.75 0.57813,0.59375 1.4375,0.59375 0.65625,0 1.10938,-0.32813 0.45312,-0.34375 0.71875,-1.07812 z m -3.84375,-1.90625 3.85937,0 q -0.0781,-0.85938 -0.4375,-1.29688 -0.5625,-0.6875 -1.45312,-0.6875 -0.8125,0 -1.35938,0.54688 -0.54687,0.53125 -0.60937,1.4375 z m 6.0531,2.0625 1.15625,-0.1875 q 0.10938,0.70312 0.54688,1.07812 0.45312,0.35938 1.25,0.35938 0.8125,0 1.20312,-0.32813 0.39063,-0.32812 0.39063,-0.76562 0,-0.39063 -0.35938,-0.625 -0.23437,-0.15625 -1.1875,-0.39063 -1.29687,-0.32812 -1.79687,-0.5625 -0.48438,-0.25 -0.75,-0.65625 -0.25,-0.42187 -0.25,-0.9375 0,-0.45312 0.20312,-0.84375 0.21875,-0.40625 0.57813,-0.67187 0.28125,-0.1875 0.75,-0.32813 0.46875,-0.14062 1.01562,-0.14062 0.8125,0 1.42188,0.23437 0.60937,0.23438 0.90625,0.64063 0.29687,0.39062 0.40625,1.0625 l -1.14063,0.15625 q -0.0781,-0.53125 -0.45312,-0.82813 -0.375,-0.3125 -1.0625,-0.3125 -0.8125,0 -1.15625,0.26563 -0.34375,0.26562 -0.34375,0.625 0,0.23437 0.14062,0.42187 0.15625,0.1875 0.45313,0.3125 0.17187,0.0625 1.03125,0.29688 1.25,0.32812 1.73437,0.54687 0.5,0.20313 0.78125,0.60938 0.28125,0.40625 0.28125,1 0,0.59375 -0.34375,1.10937 -0.34375,0.51563 -1,0.79688 -0.64062,0.28125 -1.45312,0.28125 -1.34375,0 -2.04688,-0.5625 -0.70312,-0.5625 -0.90625,-1.65625 z m 6.66406,0 1.15625,-0.1875 q 0.10938,0.70312 0.54688,1.07812 0.45312,0.35938 1.25,0.35938 0.8125,0 1.20312,-0.32813 0.39063,-0.32812 0.39063,-0.76562 0,-0.39063 -0.35938,-0.625 -0.23437,-0.15625 -1.1875,-0.39063 -1.29687,-0.32812 -1.79687,-0.5625 -0.48438,-0.25 -0.75,-0.65625 -0.25,-0.42187 -0.25,-0.9375 0,-0.45312 0.20312,-0.84375 0.21875,-0.40625 0.57813,-0.67187 0.28125,-0.1875 0.75,-0.32813 0.46875,-0.14062 1.01562,-0.14062 0.8125,0 1.42188,0.23437 0.60937,0.23438 0.90625,0.64063 0.29687,0.39062 0.40625,1.0625 l -1.14063,0.15625 q -0.0781,-0.53125 -0.45312,-0.82813 -0.375,-0.3125 -1.0625,-0.3125 -0.8125,0 -1.15625,0.26563 -0.34375,0.26562 -0.34375,0.625 0,0.23437 0.14062,0.42187 0.15625,0.1875 0.45313,0.3125 0.17187,0.0625 1.03125,0.29688 1.25,0.32812 1.73437,0.54687 0.5,0.20313 0.78125,0.60938 0.28125,0.40625 0.28125,1 0,0.59375 -0.34375,1.10937 -0.34375,0.51563 -1,0.79688 -0.64062,0.28125 -1.45312,0.28125 -1.34375,0 -2.04688,-0.5625 -0.70312,-0.5625 -0.90625,-1.65625 z m 7.14844,-6.125 0,-1.35938 1.17188,0 0,1.35938 -1.17188,0 z m 0,8.1875 0,-6.90625 1.17188,0 0,6.90625 -1.17188,0 z m 2.50797,-3.45313 q 0,-1.92187 1.07812,-2.84375 0.89063,-0.76562 2.17188,-0.76562 1.42187,0 2.32812,0.9375 0.90625,0.92187 0.90625,2.57812 0,1.32813 -0.40625,2.09375 -0.39062,0.76563 -1.15625,1.1875 -0.76562,0.42188 -1.67187,0.42188 -1.45313,0 -2.35938,-0.92188 -0.89062,-0.9375 -0.89062,-2.6875 z m 1.20312,0 q 0,1.32813 0.57813,1.98438 0.59375,0.65625 1.46875,0.65625 0.875,0 1.45312,-0.65625 0.57813,-0.67188 0.57813,-2.03125 0,-1.28125 -0.59375,-1.9375 -0.57813,-0.65625 -1.4375,-0.65625 -0.875,0 -1.46875,0.65625 -0.57813,0.65625 -0.57813,1.98437 z m 6.64685,3.45313 0,-6.90625 1.0625,0 0,0.98437 q 0.75,-1.14062 2.1875,-1.14062 0.625,0 1.15625,0.21875 0.53125,0.21875 0.78125,0.59375 0.26563,0.35937 0.375,0.85937 0.0625,0.32813 0.0625,1.14063 l 0,4.25 -1.17187,0 0,-4.20313 q 0,-0.71875 -0.14063,-1.0625 -0.14062,-0.35937 -0.48437,-0.5625 -0.34375,-0.21875 -0.8125,-0.21875 -0.75,0 -1.29688,0.46875 -0.54687,0.46875 -0.54687,1.79688 l 0,3.78125 -1.17188,0 z m 6.94373,-2.0625 1.15625,-0.1875 q 0.10937,0.70312 0.54687,1.07812 0.45313,0.35938 1.25,0.35938 0.8125,0 1.20313,-0.32813 0.39062,-0.32812 0.39062,-0.76562 0,-0.39063 -0.35937,-0.625 -0.23438,-0.15625 -1.1875,-0.39063 -1.29688,-0.32812 -1.79688,-0.5625 -0.48437,-0.25 -0.75,-0.65625 -0.25,-0.42187 -0.25,-0.9375 0,-0.45312 0.20313,-0.84375 0.21875,-0.40625 0.57812,-0.67187 0.28125,-0.1875 0.75,-0.32813 0.46875,-0.14062 1.01563,-0.14062 0.8125,0 1.42187,0.23437 0.60938,0.23438 0.90625,0.64063 0.29688,0.39062 0.40625,1.0625 l -1.14062,0.15625 q -0.0781,-0.53125 -0.45313,-0.82813 -0.375,-0.3125 -1.0625,-0.3125 -0.8125,0 -1.15625,0.26563 -0.34375,0.26562 -0.34375,0.625 0,0.23437 0.14063,0.42187 0.15625,0.1875 0.45312,0.3125 0.17188,0.0625 1.03125,0.29688 1.25,0.32812 1.73438,0.54687 0.5,0.20313 0.78125,0.60938 0.28125,0.40625 0.28125,1 0,0.59375 -0.34375,1.10937 -0.34375,0.51563 -1,0.79688 -0.64063,0.28125 -1.45313,0.28125 -1.34375,0 -2.04687,-0.5625 -0.70313,-0.5625 -0.90625,-1.65625 z" />
  <path
     style="fill:#ffff00;fill-rule:evenodd"
     inkscape:connector-curvature="0"
     id="path49"
     d="m 211.6811,6.19029 0,0 c 0,-3.14265 2.54761,-5.69029 5.69025,-5.69029 l 75.73755,0 0,0 34.89764,0 17.57483,0 c 1.50916,0 2.95648,0.59952 4.02362,1.66665 1.06714,1.06714 1.66663,2.51448 1.66663,4.02364 l 0,14.22572 0,0 0,8.53543 0,0 c 0,3.14267 -2.54761,5.6903 -5.69025,5.6903 l -17.57483,0 -18.32867,9.34083 -16.56897,-9.34083 -75.73755,0 c -3.14264,0 -5.69025,-2.54763 -5.69025,-5.6903 l 0,0 0,-8.53543 0,0 z" />
  <path
     style="fill-rule:evenodd;stroke:#595959;stroke-width:1;stroke-linecap:butt;stroke-linejoin:round"
     inkscape:connector-curvature="0"
     id="path51"
     d="m 211.6811,6.19029 0,0 c 0,-3.14265 2.54761,-5.69029 5.69025,-5.69029 l 75.73755,0 0,0 34.89764,0 17.57483,0 c 1.50916,0 2.95648,0.59952 4.02362,1.66665 1.06714,1.06714 1.66663,2.51448 1.66663,4.02364 l 0,14.22572 0,0 0,8.53543 0,0 c 0,3.14267 -2.54761,5.6903 -5.69025,5.6903 l -17.57483,0 -18.32867,9.34083 -16.56897,-9.34083 -75.73755,0 c -3.14264,0 -5.69025,-2.54763 -5.69025,-5.6903 l 0,0 0,-8.53543 0,0 z" />
  <path
     style="fill:#000000;fill-rule:nonzero"
     inkscape:connector-curvature="0"
     id="path53"
     d="m 227.7071,22.37087 0,-0.875 q -0.65625,1.03125 -1.9375,1.03125 -0.8125,0 -1.51562,-0.45313 -0.6875,-0.45312 -1.07813,-1.26562 -0.375,-0.82813 -0.375,-1.89063 0,-1.03125 0.34375,-1.875 0.34375,-0.84375 1.03125,-1.28125 0.70313,-0.45312 1.54688,-0.45312 0.625,0 1.10937,0.26562 0.5,0.25 0.79688,0.67188 l 0,-3.42188 1.17187,0 0,9.54688 -1.09375,0 z m -3.70312,-3.45313 q 0,1.32813 0.5625,1.98438 0.5625,0.65625 1.32812,0.65625 0.76563,0 1.29688,-0.625 0.53125,-0.625 0.53125,-1.90625 0,-1.42188 -0.54688,-2.07813 -0.54687,-0.67187 -1.34375,-0.67187 -0.78125,0 -1.3125,0.64062 -0.51562,0.625 -0.51562,2 z m 11.14685,2.59375 q -0.65625,0.5625 -1.26563,0.79688 -0.59375,0.21875 -1.28125,0.21875 -1.14062,0 -1.75,-0.54688 -0.60937,-0.5625 -0.60937,-1.4375 0,-0.5 0.21875,-0.92187 0.23437,-0.42188 0.60937,-0.67188 0.375,-0.25 0.84375,-0.39062 0.34375,-0.0781 1.04688,-0.17188 1.42187,-0.17187 2.09375,-0.40625 0,-0.23437 0,-0.29687 0,-0.71875 -0.32813,-1.01563 -0.45312,-0.39062 -1.34375,-0.39062 -0.8125,0 -1.21875,0.29687 -0.39062,0.28125 -0.57812,1.01563 l -1.14063,-0.15625 q 0.15625,-0.73438 0.51563,-1.1875 0.35937,-0.45313 1.03125,-0.6875 0.67187,-0.25 1.5625,-0.25 0.89062,0 1.4375,0.20312 0.5625,0.20313 0.8125,0.53125 0.26562,0.3125 0.375,0.79688 0.0469,0.29687 0.0469,1.07812 l 0,1.5625 q 0,1.625 0.0781,2.0625 0.0781,0.4375 0.29687,0.82813 l -1.21875,0 q -0.1875,-0.35938 -0.23437,-0.85938 z m -0.0937,-2.60937 q -0.64063,0.26562 -1.92188,0.4375 -0.71875,0.10937 -1.01562,0.25 -0.29688,0.125 -0.46875,0.375 -0.15625,0.25 -0.15625,0.54687 0,0.46875 0.34375,0.78125 0.35937,0.3125 1.04687,0.3125 0.67188,0 1.20313,-0.29687 0.53125,-0.29688 0.78125,-0.8125 0.1875,-0.39063 0.1875,-1.17188 l 0,-0.42187 z m 5.5531,2.42187 0.17187,1.03125 q -0.5,0.10938 -0.89062,0.10938 -0.64063,0 -1,-0.20313 -0.34375,-0.20312 -0.48438,-0.53125 -0.14062,-0.32812 -0.14062,-1.39062 l 0,-3.96875 -0.85938,0 0,-0.90625 0.85938,0 0,-1.71875 1.17187,-0.70313 0,2.42188 1.17188,0 0,0.90625 -1.17188,0 0,4.04687 q 0,0.5 0.0469,0.64063 0.0625,0.14062 0.20312,0.23437 0.14063,0.0781 0.40625,0.0781 0.20313,0 0.51563,-0.0469 z m 5.65612,0.1875 q -0.65625,0.5625 -1.26562,0.79688 -0.59375,0.21875 -1.28125,0.21875 -1.14063,0 -1.75,-0.54688 -0.60938,-0.5625 -0.60938,-1.4375 0,-0.5 0.21875,-0.92187 0.23438,-0.42188 0.60938,-0.67188 0.375,-0.25 0.84375,-0.39062 0.34375,-0.0781 1.04687,-0.17188 1.42188,-0.17187 2.09375,-0.40625 0,-0.23437 0,-0.29687 0,-0.71875 -0.32812,-1.01563 -0.45313,-0.39062 -1.34375,-0.39062 -0.8125,0 -1.21875,0.29687 -0.39063,0.28125 -0.57813,1.01563 l -1.14062,-0.15625 q 0.15625,-0.73438 0.51562,-1.1875 0.35938,-0.45313 1.03125,-0.6875 0.67188,-0.25 1.5625,-0.25 0.89063,0 1.4375,0.20312 0.5625,0.20313 0.8125,0.53125 0.26563,0.3125 0.375,0.79688 0.0469,0.29687 0.0469,1.07812 l 0,1.5625 q 0,1.625 0.0781,2.0625 0.0781,0.4375 0.29688,0.82813 l -1.21875,0 q -0.1875,-0.35938 -0.23438,-0.85938 z m -0.0937,-2.60937 q -0.64062,0.26562 -1.92187,0.4375 -0.71875,0.10937 -1.01563,0.25 -0.29687,0.125 -0.46875,0.375 -0.15625,0.25 -0.15625,0.54687 0,0.46875 0.34375,0.78125 0.35938,0.3125 1.04688,0.3125 0.67187,0 1.20312,-0.29687 0.53125,-0.29688 0.78125,-0.8125 0.1875,-0.39063 0.1875,-1.17188 l 0,-0.42187 z m 4.06873,3.46875 -1.07812,0 0,-9.54688 1.17187,0 0,3.40625 q 0.73438,-0.92187 1.89063,-0.92187 0.64062,0 1.20312,0.26562 0.57813,0.25 0.9375,0.71875 0.375,0.45313 0.57813,1.10938 0.20312,0.65625 0.20312,1.40625 0,1.78125 -0.875,2.75 -0.875,0.96875 -2.10937,0.96875 -1.21875,0 -1.92188,-1.01563 l 0,0.85938 z m 0,-3.5 q 0,1.23437 0.32813,1.78125 0.5625,0.90625 1.5,0.90625 0.76562,0 1.32812,-0.65625 0.5625,-0.67188 0.5625,-2 0,-1.34375 -0.54687,-1.98438 -0.53125,-0.65625 -1.29688,-0.65625 -0.76562,0 -1.32812,0.67188 -0.54688,0.67187 -0.54688,1.9375 z m 10.84998,2.64062 q -0.65625,0.5625 -1.26563,0.79688 -0.59375,0.21875 -1.28125,0.21875 -1.14062,0 -1.75,-0.54688 -0.60937,-0.5625 -0.60937,-1.4375 0,-0.5 0.21875,-0.92187 0.23437,-0.42188 0.60937,-0.67188 0.375,-0.25 0.84375,-0.39062 0.34375,-0.0781 1.04688,-0.17188 1.42187,-0.17187 2.09375,-0.40625 0,-0.23437 0,-0.29687 0,-0.71875 -0.32813,-1.01563 -0.45312,-0.39062 -1.34375,-0.39062 -0.8125,0 -1.21875,0.29687 -0.39062,0.28125 -0.57812,1.01563 l -1.14063,-0.15625 q 0.15625,-0.73438 0.51563,-1.1875 0.35937,-0.45313 1.03125,-0.6875 0.67187,-0.25 1.5625,-0.25 0.89062,0 1.4375,0.20312 0.5625,0.20313 0.8125,0.53125 0.26562,0.3125 0.375,0.79688 0.0469,0.29687 0.0469,1.07812 l 0,1.5625 q 0,1.625 0.0781,2.0625 0.0781,0.4375 0.29687,0.82813 l -1.21875,0 q -0.1875,-0.35938 -0.23437,-0.85938 z m -0.0937,-2.60937 q -0.64063,0.26562 -1.92188,0.4375 -0.71875,0.10937 -1.01562,0.25 -0.29688,0.125 -0.46875,0.375 -0.15625,0.25 -0.15625,0.54687 0,0.46875 0.34375,0.78125 0.35937,0.3125 1.04687,0.3125 0.67188,0 1.20313,-0.29687 0.53125,-0.29688 0.78125,-0.8125 0.1875,-0.39063 0.1875,-1.17188 l 0,-0.42187 z m 2.52185,1.40625 1.15625,-0.1875 q 0.10937,0.70312 0.54687,1.07812 0.45313,0.35938 1.25,0.35938 0.8125,0 1.20313,-0.32813 0.39062,-0.32812 0.39062,-0.76562 0,-0.39063 -0.35937,-0.625 -0.23438,-0.15625 -1.1875,-0.39063 -1.29688,-0.32812 -1.79688,-0.5625 -0.48437,-0.25 -0.75,-0.65625 -0.25,-0.42187 -0.25,-0.9375 0,-0.45312 0.20313,-0.84375 0.21875,-0.40625 0.57812,-0.67187 0.28125,-0.1875 0.75,-0.32813 0.46875,-0.14062 1.01563,-0.14062 0.8125,0 1.42187,0.23437 0.60938,0.23438 0.90625,0.64063 0.29688,0.39062 0.40625,1.0625 l -1.14062,0.15625 q -0.0781,-0.53125 -0.45313,-0.82813 -0.375,-0.3125 -1.0625,-0.3125 -0.8125,0 -1.15625,0.26563 -0.34375,0.26562 -0.34375,0.625 0,0.23437 0.14063,0.42187 0.15625,0.1875 0.45312,0.3125 0.17188,0.0625 1.03125,0.29688 1.25,0.32812 1.73438,0.54687 0.5,0.20313 0.78125,0.60938 0.28125,0.40625 0.28125,1 0,0.59375 -0.34375,1.10937 -0.34375,0.51563 -1,0.79688 -0.64063,0.28125 -1.45313,0.28125 -1.34375,0 -2.04687,-0.5625 -0.70313,-0.5625 -0.90625,-1.65625 z m 11.86718,-0.15625 1.20313,0.14062 q -0.28125,1.0625 -1.0625,1.65625 -0.76563,0.57813 -1.96875,0.57813 -1.51563,0 -2.40625,-0.9375 -0.89063,-0.9375 -0.89063,-2.60938 0,-1.75 0.89063,-2.70312 0.90625,-0.96875 2.34375,-0.96875 1.39062,0 2.26562,0.9375 0.875,0.9375 0.875,2.65625 0,0.10937 0,0.3125 l -5.15625,0 q 0.0625,1.14062 0.64063,1.75 0.57812,0.59375 1.4375,0.59375 0.65625,0 1.10937,-0.32813 0.45313,-0.34375 0.71875,-1.07812 z m -3.84375,-1.90625 3.85938,0 q -0.0781,-0.85938 -0.4375,-1.29688 -0.5625,-0.6875 -1.45313,-0.6875 -0.8125,0 -1.35937,0.54688 -0.54688,0.53125 -0.60938,1.4375 z m 10.24042,-4.0625 0,-1.35938 1.17188,0 0,1.35938 -1.17188,0 z m 0,8.1875 0,-6.90625 1.17188,0 0,6.90625 -1.17188,0 z m 7.42987,0 0,-0.875 q -0.65625,1.03125 -1.9375,1.03125 -0.8125,0 -1.51562,-0.45313 -0.6875,-0.45312 -1.07813,-1.26562 -0.375,-0.82813 -0.375,-1.89063 0,-1.03125 0.34375,-1.875 0.34375,-0.84375 1.03125,-1.28125 0.70313,-0.45312 1.54688,-0.45312 0.625,0 1.10937,0.26562 0.5,0.25 0.79688,0.67188 l 0,-3.42188 1.17187,0 0,9.54688 -1.09375,0 z m -3.70312,-3.45313 q 0,1.32813 0.5625,1.98438 0.5625,0.65625 1.32812,0.65625 0.76563,0 1.29688,-0.625 0.53125,-0.625 0.53125,-1.90625 0,-1.42188 -0.54688,-2.07813 -0.54687,-0.67187 -1.34375,-0.67187 -0.78125,0 -1.3125,0.64062 -0.51562,0.625 -0.51562,2 z m 11.3656,1.23438 1.20312,0.14062 q -0.28125,1.0625 -1.0625,1.65625 -0.76562,0.57813 -1.96875,0.57813 -1.51562,0 -2.40625,-0.9375 -0.89062,-0.9375 -0.89062,-2.60938 0,-1.75 0.89062,-2.70312 0.90625,-0.96875 2.34375,-0.96875 1.39063,0 2.26563,0.9375 0.875,0.9375 0.875,2.65625 0,0.10937 0,0.3125 l -5.15625,0 q 0.0625,1.14062 0.64062,1.75 0.57813,0.59375 1.4375,0.59375 0.65625,0 1.10938,-0.32813 0.45312,-0.34375 0.71875,-1.07812 z m -3.84375,-1.90625 3.85937,0 q -0.0781,-0.85938 -0.4375,-1.29688 -0.5625,-0.6875 -1.45312,-0.6875 -0.8125,0 -1.35938,0.54688 -0.54687,0.53125 -0.60937,1.4375 z m 6.52185,4.125 0,-6.90625 1.0625,0 0,0.98437 q 0.75,-1.14062 2.1875,-1.14062 0.625,0 1.15625,0.21875 0.53125,0.21875 0.78125,0.59375 0.26562,0.35937 0.375,0.85937 0.0625,0.32813 0.0625,1.14063 l 0,4.25 -1.17188,0 0,-4.20313 q 0,-0.71875 -0.14062,-1.0625 -0.14063,-0.35937 -0.48438,-0.5625 -0.34375,-0.21875 -0.8125,-0.21875 -0.75,0 -1.29687,0.46875 -0.54688,0.46875 -0.54688,1.79688 l 0,3.78125 -1.17187,0 z m 9.97497,-1.04688 0.17188,1.03125 q -0.5,0.10938 -0.89063,0.10938 -0.64062,0 -1,-0.20313 -0.34375,-0.20312 -0.48437,-0.53125 -0.14063,-0.32812 -0.14063,-1.39062 l 0,-3.96875 -0.85937,0 0,-0.90625 0.85937,0 0,-1.71875 1.17188,-0.70313 0,2.42188 1.17187,0 0,0.90625 -1.17187,0 0,4.04687 q 0,0.5 0.0469,0.64063 0.0625,0.14062 0.20313,0.23437 0.14062,0.0781 0.40625,0.0781 0.20312,0 0.51562,-0.0469 z m 1.15613,-7.14062 0,-1.35938 1.17188,0 0,1.35938 -1.17188,0 z m 0,8.1875 0,-6.90625 1.17188,0 0,6.90625 -1.17188,0 z m 3.22669,0 0,-6 -1.03125,0 0,-0.90625 1.03125,0 0,-0.73438 q 0,-0.70312 0.125,-1.04687 0.17187,-0.45313 0.59375,-0.73438 0.42187,-0.28125 1.20312,-0.28125 0.48438,0 1.09375,0.10938 l -0.1875,1.03125 q -0.35937,-0.0625 -0.6875,-0.0625 -0.53125,0 -0.75,0.23437 -0.21875,0.21875 -0.21875,0.84375 l 0,0.64063 1.34375,0 0,0.90625 -1.34375,0 0,6 -1.17187,0 z m 3.43738,-8.1875 0,-1.35938 1.17187,0 0,1.35938 -1.17187,0 z m 0,8.1875 0,-6.90625 1.17187,0 0,6.90625 -1.17187,0 z m 7.67981,-2.21875 1.20312,0.14062 q -0.28125,1.0625 -1.0625,1.65625 -0.76562,0.57813 -1.96875,0.57813 -1.51562,0 -2.40625,-0.9375 -0.89062,-0.9375 -0.89062,-2.60938 0,-1.75 0.89062,-2.70312 0.90625,-0.96875 2.34375,-0.96875 1.39063,0 2.26563,0.9375 0.875,0.9375 0.875,2.65625 0,0.10937 0,0.3125 l -5.15625,0 q 0.0625,1.14062 0.64062,1.75 0.57813,0.59375 1.4375,0.59375 0.65625,0 1.10938,-0.32813 0.45312,-0.34375 0.71875,-1.07812 z m -3.84375,-1.90625 3.85937,0 q -0.0781,-0.85938 -0.4375,-1.29688 -0.5625,-0.6875 -1.45312,-0.6875 -0.8125,0 -1.35938,0.54688 -0.54687,0.53125 -0.60937,1.4375 z m 6.50622,4.125 0,-6.90625 1.0625,0 0,1.04687 q 0.40625,-0.73437 0.73438,-0.96875 0.34375,-0.23437 0.76562,-0.23437 0.59375,0 1.20313,0.375 l -0.40625,1.07812 q -0.4375,-0.25 -0.85938,-0.25 -0.39062,0 -0.70312,0.23438 -0.29688,0.23437 -0.42188,0.64062 -0.20312,0.625 -0.20312,1.35938 l 0,3.625 -1.17188,0 z m 3.98529,-2.0625 1.15625,-0.1875 q 0.10938,0.70312 0.54688,1.07812 0.45312,0.35938 1.25,0.35938 0.8125,0 1.20312,-0.32813 0.39063,-0.32812 0.39063,-0.76562 0,-0.39063 -0.35938,-0.625 -0.23437,-0.15625 -1.1875,-0.39063 -1.29687,-0.32812 -1.79687,-0.5625 -0.48438,-0.25 -0.75,-0.65625 -0.25,-0.42187 -0.25,-0.9375 0,-0.45312 0.20312,-0.84375 0.21875,-0.40625 0.57813,-0.67187 0.28125,-0.1875 0.75,-0.32813 0.46875,-0.14062 1.01562,-0.14062 0.8125,0 1.42188,0.23437 0.60937,0.23438 0.90625,0.64063 0.29687,0.39062 0.40625,1.0625 l -1.14063,0.15625 q -0.0781,-0.53125 -0.45312,-0.82813 -0.375,-0.3125 -1.0625,-0.3125 -0.8125,0 -1.15625,0.26563 -0.34375,0.26562 -0.34375,0.625 0,0.23437 0.14062,0.42187 0.15625,0.1875 0.45313,0.3125 0.17187,0.0625 1.03125,0.29688 1.25,0.32812 1.73437,0.54687 0.5,0.20313 0.78125,0.60938 0.28125,0.40625 0.28125,1 0,0.59375 -0.34375,1.10937 -0.34375,0.51563 -1,0.79688 -0.64062,0.28125 -1.45312,0.28125 -1.34375,0 -2.04688,-0.5625 -0.70312,-0.5625 -0.90625,-1.65625 z" />
</svg>
