<?xml version="1.0" encoding="UTF-8"?>
<svg id="_レイヤー_1" data-name="レイヤー 1" xmlns="http://www.w3.org/2000/svg" viewBox="0 0 775.95 350.7">
  <defs>
    <style>
      .cls-1 {
        stroke: #003e8d;
        stroke-miterlimit: 10;
      }

      .cls-1, .cls-2 {
        fill: #003e8d;
      }

      .cls-3 {
        fill: #95b8bb;
      }
    </style>
  </defs>
  <g>
    <path class="cls-2" d="M252.95,63.11h33.49c48.4,0,67.57,27.88,67.57,67.38,0,48.98-32.72,67.76-77.44,67.76h-23.62V63.11ZM266.31,186.62h11.03c38.34,0,63.31-15.49,63.31-56.92s-24.59-54.98-54.79-54.98h-19.55v111.9Z"/>
    <path class="cls-2" d="M382.1,63.11h32.14c22.07,0,42.79,7.36,42.79,33.3,0,17.23-7.94,27.49-24.58,30.78v.39c17.03,3.1,28.65,14.33,28.65,32.14,0,29.43-24.01,38.53-52.08,38.53h-26.91V63.11ZM395.46,186.62h13.94c18.01,0,38.33-4.84,38.33-26.32,0-24.01-20.71-26.53-40.46-26.53h-11.81v52.85ZM395.85,122.16h14.91c14.13,0,32.91-3.68,32.91-25.17,0-19.55-18.01-22.26-29.43-22.26h-18.39v47.43Z"/>
    <path class="cls-2" d="M583.67,78.21c-8.52-4.45-20.71-5.81-30.21-5.81-35.04,0-54.79,24.78-54.79,58.28s19.17,58.28,54.79,58.28c8.91,0,22.46-1.16,30.21-5.81l.77,11.61c-7.36,4.46-22.45,5.81-30.98,5.81-42.59,0-68.15-28.08-68.15-69.9s26.33-69.89,68.15-69.89c7.94,0,24.01,1.35,30.98,5.03l-.77,12.39Z"/>
    <path class="cls-2" d="M618.92,63.11h13.36v123.52h54.21v11.62h-67.57V63.11Z"/>
    <path class="cls-2" d="M702.37,181.02c7.94,5.03,17.23,7.94,29.82,7.94,16.65,0,30.4-8.52,30.4-27.69,0-26.52-61.95-29.81-61.95-65.24,0-21.68,18.97-35.23,42.79-35.23,6.58,0,17.23.97,26.52,4.45l-2.13,12.2c-6-3.29-15.49-5.04-24.59-5.04-13.94,0-29.23,5.81-29.23,23.23,0,27.11,61.95,27.3,61.95,66.8,0,27.29-23.43,38.14-44.34,38.14-13.17,0-23.43-2.72-30.59-5.81l1.36-13.74Z"/>
  </g>
  <g>
    <path class="cls-2" d="M257.55,219.9h10.09c11.3,0,21.28,3.8,21.28,18.43s-9.98,18.44-21.28,18.44h-10.09v-36.87ZM264.95,250.95h4.12c6.18,0,12.15-4.59,12.15-12.62s-5.97-12.62-12.15-12.62h-4.12v25.25Z"/>
    <path class="cls-2" d="M296.28,230.99c2.75-1.27,6.44-2.06,9.46-2.06,8.3,0,11.73,3.43,11.73,11.46v3.49c0,2.74.06,4.8.11,6.81.05,2.06.16,3.96.32,6.08h-6.23c-.27-1.43-.27-3.22-.32-4.07h-.11c-1.64,3.01-5.18,4.7-8.4,4.7-4.8,0-9.51-2.91-9.51-8.08,0-4.07,1.95-6.44,4.65-7.77s6.18-1.58,9.14-1.58h3.91c0-4.38-1.95-5.86-6.12-5.86-3.01,0-6.03,1.16-8.4,2.96l-.21-6.08ZM304.57,252.23c2.16,0,3.85-.95,4.96-2.43,1.16-1.53,1.48-3.49,1.48-5.6h-3.06c-3.17,0-7.87.53-7.87,4.7,0,2.33,1.95,3.33,4.49,3.33Z"/>
    <path class="cls-2" d="M326.77,234.74h-5.23v-5.18h5.23v-5.45l7.08-2.27v7.72h6.29v5.18h-6.29v12.67c0,2.33.63,4.49,3.32,4.49,1.27,0,2.48-.26,3.22-.74l.21,5.6c-1.48.42-3.12.64-5.23.64-5.54,0-8.61-3.44-8.61-8.83v-13.83Z"/>
    <path class="cls-2" d="M346.21,230.99c2.75-1.27,6.44-2.06,9.46-2.06,8.3,0,11.73,3.43,11.73,11.46v3.49c0,2.74.06,4.8.11,6.81.05,2.06.16,3.96.32,6.08h-6.23c-.27-1.43-.27-3.22-.32-4.07h-.11c-1.64,3.01-5.18,4.7-8.4,4.7-4.8,0-9.51-2.91-9.51-8.08,0-4.07,1.95-6.44,4.65-7.77s6.18-1.58,9.14-1.58h3.91c0-4.38-1.95-5.86-6.12-5.86-3.01,0-6.03,1.16-8.4,2.96l-.21-6.08ZM354.5,252.23c2.16,0,3.85-.95,4.96-2.43,1.16-1.53,1.48-3.49,1.48-5.6h-3.06c-3.17,0-7.87.53-7.87,4.7,0,2.33,1.95,3.33,4.49,3.33Z"/>
    <path class="cls-2" d="M374.37,217.15h7.08v15.91h.11c1.95-2.59,4.43-4.12,8.13-4.12,8.35,0,11.41,6.65,11.41,14.16s-3.07,14.31-11.41,14.31c-3.01,0-6.29-1.06-8.35-3.97h-.11v3.33h-6.87v-39.62ZM387.74,251.91c4.65,0,5.97-5.07,5.97-8.82s-1.27-8.66-5.86-8.66-6.34,4.86-6.34,8.66,1.53,8.82,6.23,8.82Z"/>
    <path class="cls-2" d="M407.86,230.99c2.75-1.27,6.44-2.06,9.46-2.06,8.3,0,11.73,3.43,11.73,11.46v3.49c0,2.74.06,4.8.11,6.81.05,2.06.16,3.96.32,6.08h-6.23c-.27-1.43-.27-3.22-.32-4.07h-.11c-1.64,3.01-5.18,4.7-8.4,4.7-4.8,0-9.51-2.91-9.51-8.08,0-4.07,1.95-6.44,4.65-7.77s6.18-1.58,9.14-1.58h3.91c0-4.38-1.95-5.86-6.12-5.86-3.01,0-6.03,1.16-8.4,2.96l-.21-6.08ZM416.16,252.23c2.16,0,3.85-.95,4.96-2.43,1.16-1.53,1.48-3.49,1.48-5.6h-3.06c-3.17,0-7.87.53-7.87,4.7,0,2.33,1.95,3.33,4.49,3.33Z"/>
    <path class="cls-2" d="M452.19,235.27c-2.16-.74-3.76-1.16-6.34-1.16-1.9,0-4.18.69-4.18,3.01,0,4.33,12.31,1.58,12.31,11.41,0,6.34-5.65,8.88-11.41,8.88-2.69,0-5.44-.48-8.03-1.17l.42-5.81c2.22,1.11,4.54,1.8,6.97,1.8,1.8,0,4.65-.69,4.65-3.33,0-5.33-12.31-1.69-12.31-11.51,0-5.86,5.12-8.45,10.67-8.45,3.32,0,5.49.53,7.71,1l-.47,5.33Z"/>
    <path class="cls-2" d="M481.3,255.23c-2.59,1.43-5.54,2.17-9.35,2.17-8.98,0-14.21-5.18-14.21-14.11,0-7.86,4.17-14.36,12.62-14.36,10.09,0,12.94,6.92,12.94,16.43h-18.81c.32,4.38,3.38,6.87,7.77,6.87,3.43,0,6.39-1.27,9.03-2.75v5.76ZM476.55,240.5c-.21-3.44-1.8-6.39-5.76-6.39s-5.97,2.74-6.29,6.39h12.04Z"/>
    <path class="cls-2" d="M655.5,231.08h6.71v3.69h.11c2.21-3.11,5.23-4.33,8.93-4.33,6.44,0,9.24,4.54,9.24,10.67v17.16h-7.08v-14.53c0-3.32-.05-7.81-4.6-7.81-5.12,0-6.23,5.54-6.23,9.03v13.31h-7.08v-27.2Z"/>
    <path class="cls-2" d="M259.5,289.61h-5.23v-5.18h5.23v-3.8c0-5.44,3.06-9.24,8.66-9.24,1.8,0,3.8.26,5.18.58l-.58,5.86c-.64-.37-1.53-.95-3.06-.95-2.38,0-3.12,2.06-3.12,4.17v3.38h6.18v5.18h-6.18v22.02h-7.08v-22.02Z"/>
    <path class="cls-2" d="M289.93,283.8c8.08,0,14.26,5.44,14.26,14.42,0,7.81-5.23,14.05-14.26,14.05s-14.21-6.24-14.21-14.05c0-8.98,6.18-14.42,14.21-14.42ZM289.93,306.78c5.44,0,6.87-4.86,6.87-9.41,0-4.17-2.22-8.08-6.87-8.08s-6.82,4.01-6.82,8.08c0,4.49,1.43,9.41,6.82,9.41Z"/>
    <path class="cls-2" d="M309.91,284.43h6.29v6.17h.1c.32-2.53,3.22-6.81,7.45-6.81.69,0,1.42,0,2.16.21v7.13c-.64-.37-1.9-.58-3.17-.58-5.76,0-5.76,7.19-5.76,11.09v9.99h-7.08v-27.2Z"/>
    <path class="cls-2" d="M345.63,274.77h7.4v31.05h14.31v5.81h-21.71v-36.87Z"/>
    <path class="cls-2" d="M371.57,272.71h7.08v6.76h-7.08v-6.76ZM371.57,284.43h7.08v27.2h-7.08v-27.2Z"/>
    <path class="cls-2" d="M388.68,289.61h-5.23v-5.18h5.23v-3.8c0-5.44,3.06-9.24,8.66-9.24,1.8,0,3.8.26,5.18.58l-.58,5.86c-.64-.37-1.53-.95-3.06-.95-2.38,0-3.12,2.06-3.12,4.17v3.38h6.18v5.18h-6.18v22.02h-7.08v-22.02Z"/>
    <path class="cls-2" d="M428.47,310.1c-2.59,1.43-5.54,2.17-9.35,2.17-8.98,0-14.21-5.18-14.21-14.11,0-7.86,4.17-14.36,12.62-14.36,10.09,0,12.94,6.92,12.94,16.43h-18.81c.32,4.38,3.38,6.87,7.77,6.87,3.43,0,6.39-1.27,9.03-2.75v5.76ZM423.71,295.37c-.21-3.44-1.8-6.39-5.76-6.39s-5.97,2.74-6.29,6.39h12.04Z"/>
    <path class="cls-2" d="M471.16,281.53c-2.33-1-4.92-1.58-7.5-1.58s-5.81,1.11-5.81,5.12c0,6.39,16.16,3.7,16.16,16.06,0,8.08-6.39,11.15-13.84,11.15-4.01,0-5.81-.53-9.46-1.43l.69-6.65c2.54,1.37,5.45,2.27,8.35,2.27s6.55-1.43,6.55-4.75c0-7.02-16.17-4.12-16.17-16.32,0-8.24,6.39-11.25,12.89-11.25,3.17,0,6.12.42,8.82,1.32l-.69,6.08Z"/>
    <path class="cls-2" d="M497.74,290.3c-1.27-.59-2.65-1-4.81-1-4.38,0-7.18,3.49-7.18,8.61s2.38,8.88,7.34,8.88c2,0,4.22-.74,5.44-1.27l.32,5.86c-2.07.63-4.17.9-7.08.9-8.93,0-13.42-6.08-13.42-14.37s4.65-14.1,13.15-14.1c2.85,0,4.91.32,6.87.9l-.64,5.6Z"/>
    <path class="cls-2" d="M503.71,272.71h7.08v6.76h-7.08v-6.76ZM503.71,284.43h7.08v27.2h-7.08v-27.2Z"/>
    <path class="cls-2" d="M540.06,310.1c-2.59,1.43-5.54,2.17-9.35,2.17-8.98,0-14.21-5.18-14.21-14.11,0-7.86,4.17-14.36,12.62-14.36,10.09,0,12.94,6.92,12.94,16.43h-18.81c.32,4.38,3.38,6.87,7.77,6.87,3.43,0,6.39-1.27,9.03-2.75v5.76ZM535.31,295.37c-.21-3.44-1.8-6.39-5.76-6.39s-5.97,2.74-6.29,6.39h12.04Z"/>
    <path class="cls-2" d="M547.62,284.43h6.71v3.69h.11c2.22-3.11,5.23-4.33,8.93-4.33,6.44,0,9.24,4.54,9.24,10.67v17.16h-7.08v-14.53c0-3.32-.05-7.81-4.6-7.81-5.12,0-6.23,5.54-6.23,9.03v13.31h-7.08v-27.2Z"/>
    <path class="cls-2" d="M597.54,290.3c-1.27-.59-2.65-1-4.81-1-4.38,0-7.18,3.49-7.18,8.61s2.38,8.88,7.34,8.88c2,0,4.22-.74,5.44-1.27l.32,5.86c-2.07.63-4.17.9-7.08.9-8.93,0-13.42-6.08-13.42-14.37s4.65-14.1,13.15-14.1c2.85,0,4.91.32,6.87.9l-.64,5.6Z"/>
    <path class="cls-2" d="M625.17,310.1c-2.59,1.43-5.54,2.17-9.35,2.17-8.98,0-14.21-5.18-14.21-14.11,0-7.86,4.17-14.36,12.62-14.36,10.09,0,12.94,6.92,12.94,16.43h-18.81c.32,4.38,3.38,6.87,7.77,6.87,3.43,0,6.39-1.27,9.03-2.75v5.76ZM620.42,295.37c-.21-3.44-1.8-6.39-5.76-6.39s-5.97,2.74-6.29,6.39h12.04Z"/>
    <path class="cls-2" d="M501.62,221.19h10.09c11.3,0,21.28,3.8,21.28,18.43s-9.98,18.44-21.28,18.44h-10.09v-36.87ZM509.02,252.25h4.12c6.18,0,12.15-4.59,12.15-12.62s-5.97-12.62-12.15-12.62h-4.12v25.25Z"/>
    <path class="cls-2" d="M537.99,219.04h7.08v6.76h-7.08v-6.76ZM537.99,230.76h7.08v27.2h-7.08v-27.2Z"/>
    <path class="cls-2" d="M576.87,218.84h7.08v6.76h-7.08v-6.76ZM576.87,230.57h7.08v27.2h-7.08v-27.2Z"/>
    <path class="cls-2" d="M611.88,218.87h7.08v6.76h-7.08v-6.76ZM611.88,230.6h7.08v27.2h-7.08v-27.2Z"/>
    <path class="cls-2" d="M637.24,230.13c8.08,0,14.26,5.44,14.26,14.42,0,7.81-5.23,14.05-14.26,14.05s-14.21-6.24-14.21-14.05c0-8.98,6.18-14.42,14.21-14.42ZM637.24,253.11c5.44,0,6.87-4.86,6.87-9.41,0-4.17-2.22-8.08-6.87-8.08s-6.82,4.01-6.82,8.08c0,4.49,1.43,9.41,6.82,9.41Z"/>
    <path class="cls-1" d="M558.09,257.11l-9.21-25.77h5.64l6.52,19.07,6.31-19.07h5.52l-9.23,25.77h-5.55Z"/>
    <path class="cls-2" d="M606.39,236.27c-2.16-.74-3.76-1.16-6.34-1.16-1.9,0-4.18.69-4.18,3.01,0,4.33,12.31,1.58,12.31,11.41,0,6.34-5.65,8.88-11.41,8.88-2.69,0-5.44-.48-8.03-1.17l.42-5.81c2.22,1.11,4.54,1.8,6.97,1.8,1.8,0,4.65-.69,4.65-3.33,0-5.33-12.31-1.69-12.31-11.51,0-5.86,5.12-8.45,10.67-8.45,3.32,0,5.49.53,7.71,1l-.47,5.33Z"/>
  </g>
  <g>
    <g>
      <rect class="cls-3" x="112.19" y="64.07" width="13.14" height="52.07"/>
      <rect class="cls-3" x="144.05" y="76.47" width="10.54" height="52.07"/>
      <rect class="cls-3" x="129.02" y="70.27" width="11.95" height="52.07"/>
      <rect class="cls-3" x="93.83" y="57.88" width="14.06" height="52.07"/>
      <rect class="cls-3" x="29.38" y="31.43" width="6.23" height="52.08"/>
      <rect class="cls-3" x="157.05" y="82.66" width="8.88" height="52.07"/>
      <rect class="cls-3" x="15.95" y="20.54" width="3.33" height="52.07"/>
      <rect class="cls-3" width="1.85" height="52.07"/>
      <rect class="cls-3" x="75.47" y="51.67" width="13.44" height="52.07"/>
      <rect class="cls-3" x="43.61" y="38.97" width="8.87" height="52.07"/>
      <rect class="cls-3" x="58.64" y="45.35" width="11.29" height="52.07"/>
      <rect class="cls-3" x="175.9" y="95.06" width="4.55" height="52.07"/>
      <path class="cls-3" d="M181.07,101.68s0,52.86,0,52.07,1.66,0,1.66,0v-52.07h-1.66Z"/>
      <rect class="cls-3" x="167.77" y="88.86" width="6.91" height="52.07"/>
    </g>
    <g>
      <g>
        <path class="cls-3" d="M0,153.75c0,2.05.69,4.1,1.97,6.17,1.32,2.12,3.27,4.26,5.73,6.36,2.32,2.01,5.08,3.99,8.2,5.94,3.32,2.08,7.04,4.14,11.02,6.15,4.19,2.11,8.67,4.16,13.3,6.15,5,2.14,10.17,4.2,15.33,6.15,5.81,2.19,11.61,4.26,17.14,6.15,6.77,2.32,13.16,4.4,18.67,6.15,5.51,1.77,11.9,3.83,18.67,6.17,5.54,1.88,11.33,3.95,17.14,6.14,5.17,1.97,10.34,4.02,15.33,6.17,4.64,1.98,9.12,4.05,13.31,6.15,3.99,2.01,7.7,4.06,11.03,6.15,3.22,2.02,6.07,4.09,8.44,6.15,2.34,2.04,4.2,4.1,5.47,6.15,1.28,2.06,1.97,4.12,1.97,6.15v-52.07c0-2.04-.69-4.1-1.97-6.15-1.27-2.05-3.13-4.12-5.47-6.15-2.37-2.08-5.22-4.13-8.44-6.15-3.32-2.09-7.04-4.14-11.03-6.15-4.19-2.12-8.67-4.17-13.31-6.15-4.99-2.15-10.16-4.21-15.33-6.17-5.81-2.19-11.6-4.26-17.14-6.15-6.77-2.32-13.16-4.39-18.67-6.15-5.51-1.75-11.9-3.83-18.67-6.15-5.54-1.9-11.34-3.96-17.14-6.15-5.16-1.95-10.33-4.02-15.33-6.15-4.63-1.99-9.12-4.05-13.3-6.15-3.98-2.01-7.7-4.07-11.02-6.15-3.12-1.95-5.88-3.93-8.2-5.94-2.45-2.11-4.41-4.24-5.73-6.38-1.28-2.05-1.97-4.1-1.97-6.15v52.07Z"/>
        <path class="cls-2" d="M182.73,252.22c0,2.05-.69,4.1-1.97,6.15-1.32,2.14-3.27,4.27-5.74,6.38-2.31,1.99-5.08,3.97-8.19,5.94-3.32,2.08-7.04,4.14-11.03,6.15-4.18,2.11-8.66,4.16-13.3,6.15-4.99,2.14-10.16,4.2-15.33,6.15-5.81,2.19-11.61,4.26-17.14,6.15-6.78,2.32-13.16,4.4-18.67,6.15-5.51,1.77-11.9,3.83-18.68,6.15-5.53,1.9-11.32,3.96-17.14,6.15-5.16,1.95-10.33,4.02-15.33,6.15-4.63,1.99-9.12,4.05-13.3,6.15-3.99,2.01-7.7,4.07-11.03,6.17-3.22,2.02-6.08,4.07-8.45,6.15-2.33,2.04-4.19,4.1-5.47,6.15-1.27,2.05-1.97,4.12-1.97,6.15v-52.07c0-2.04.69-4.1,1.97-6.15,1.28-2.07,3.14-4.12,5.47-6.15,2.37-2.08,5.23-4.13,8.45-6.17,3.32-2.08,7.04-4.14,11.03-6.15,4.19-2.11,8.67-4.16,13.3-6.15,5-2.14,10.17-4.2,15.33-6.15,5.81-2.19,11.61-4.26,17.14-6.15,6.78-2.32,13.17-4.4,18.68-6.15,5.51-1.75,11.89-3.83,18.67-6.15,5.53-1.9,11.33-3.96,17.14-6.15,5.16-1.95,10.33-4.02,15.33-6.15,4.64-1.99,9.12-4.05,13.3-6.15,3.99-2.01,7.7-4.07,11.03-6.15,3.11-1.97,5.88-3.95,8.19-5.94,2.46-2.11,4.41-4.24,5.74-6.38,1.28-2.05,1.97-4.12,1.97-6.15v52.07Z"/>
      </g>
      <path class="cls-2" d="M182.73,153.75c0,2.05-.69,4.1-1.97,6.17-1.32,2.12-3.27,4.26-5.74,6.36-2.31,1.99-5.08,3.99-8.19,5.94-3.32,2.08-7.04,4.14-11.03,6.15-4.18,2.11-8.66,4.16-13.3,6.15-4.99,2.14-10.16,4.2-15.33,6.15-5.81,2.19-11.61,4.26-17.14,6.15-6.78,2.32-13.16,4.4-18.67,6.15-5.51,1.77-11.9,3.83-18.68,6.17-5.53,1.88-11.32,3.95-17.14,6.14-5.16,1.97-10.33,4.02-15.33,6.17-4.63,1.98-9.12,4.05-13.3,6.15-3.99,2.01-7.7,4.06-11.03,6.15-3.22,2.02-6.08,4.09-8.45,6.15-2.33,2.04-4.19,4.1-5.47,6.15-1.27,2.05-1.97,4.12-1.97,6.15v-52.07c0-2.04.69-4.1,1.97-6.15,1.28-2.05,3.14-4.12,5.47-6.15,2.37-2.08,5.23-4.13,8.45-6.15,3.32-2.09,7.04-4.14,11.03-6.15,4.19-2.12,8.67-4.17,13.3-6.17,5-2.14,10.17-4.2,15.33-6.15,5.81-2.19,11.61-4.26,17.14-6.15,6.78-2.32,13.17-4.39,18.68-6.15,5.51-1.75,11.89-3.83,18.67-6.15,5.53-1.9,11.33-3.96,17.14-6.15,5.16-1.95,10.33-4.02,15.33-6.15,4.64-1.99,9.12-4.05,13.3-6.15,3.99-2.01,7.7-4.07,11.03-6.15,3.11-1.97,5.88-3.93,8.19-5.94,2.46-2.11,4.41-4.24,5.74-6.38,1.28-2.05,1.97-4.1,1.97-6.15v52.07Z"/>
      <g>
        <rect class="cls-2" x="57.4" y="64.07" width="13.14" height="52.07"/>
        <rect class="cls-2" x="28.15" y="76.47" width="10.54" height="52.07"/>
        <rect class="cls-2" x="41.76" y="70.27" width="11.95" height="52.07"/>
        <rect class="cls-2" x="74.85" y="57.88" width="14.06" height="52.07"/>
        <rect class="cls-2" x="147.12" y="31.43" width="6.23" height="52.08"/>
        <rect class="cls-2" x="16.81" y="82.66" width="8.88" height="52.07"/>
        <rect class="cls-2" x="163.45" y="20.54" width="3.33" height="52.07"/>
        <rect class="cls-2" x="180.89" width="1.85" height="52.07"/>
        <rect class="cls-2" x="93.83" y="51.67" width="13.44" height="52.07"/>
        <rect class="cls-2" x="130.26" y="38.97" width="8.87" height="52.07"/>
        <rect class="cls-2" x="112.8" y="45.35" width="11.29" height="52.07"/>
        <rect class="cls-2" x="2.28" y="95.06" width="4.55" height="52.07"/>
        <path class="cls-2" d="M1.66,101.68s0,52.86,0,52.07-1.66,0-1.66,0v-52.07h1.66Z"/>
        <rect class="cls-2" x="8.06" y="88.86" width="6.91" height="52.07"/>
      </g>
    </g>
  </g>
</svg>