<svg xmlns="http://www.w3.org/2000/svg" viewBox="0 0 798.09 353.81"><defs><style>.cls-1,.cls-3{fill:#040000;}.cls-2,.cls-3{opacity:0.4;}</style></defs><title>logo_en_m</title><g id="レイヤー_2" data-name="レイヤー 2"><g id="レイヤー_1-2" data-name="レイヤー 1"><path class="cls-1" d="M254.08,64.59H293.9c40,0,71.9,24.74,71.9,66.3,0,45.23-27.44,68.62-71.9,68.62H254.08ZM273.41,182.5H293.7c33.25,0,51.61-16.05,51.61-50.84,0-31.51-21.46-50.06-49.29-50.06H273.41Z"/><path class="cls-1" d="M393.66,64.59h36.53c28,0,47.36,9.08,47.36,34,0,18.56-10.82,27.84-27.83,32.1v.38c18.36,1.54,31.31,13.53,31.31,32.47,0,29-24,36-51.42,36H393.66ZM413,122.19h10.63c18.75,0,34.6-1.74,34.6-21.65,0-16-13.72-20.1-24.93-20.1H413Zm0,61.46h14.5c17.39,0,33.05-3.67,33.05-21.84,0-20.87-18.36-23.77-35-23.77H413Z"/><path class="cls-1" d="M606.11,86.81a54.27,54.27,0,0,0-27.83-7.53c-31.12,0-51.8,22.42-51.8,52.77,0,31.7,22.8,52.76,50.83,52.76,9.67,0,22.62-2.5,29.38-6.56L607.85,197c-10.24,4.25-22.81,4.84-30.73,4.84-42.72,0-71.13-27.45-71.13-70.36,0-41.56,30.15-69.2,71.32-69.2,10.44,0,20.68,1.55,30.35,5.8Z"/><path class="cls-1" d="M630.87,64.59H650.2V182.5h56.44v17H630.87Z"/><path class="cls-1" d="M789,84.89c-9.85-3.87-15.26-5.61-25.32-5.61-10.82,0-23.58,3.86-23.58,18,0,25.9,58,19.9,58,64.36,0,28.8-22.23,40.21-49.29,40.21-9.47,0-18.75-2.71-27.64-5.61l1.93-18c6.57,2.7,18.17,6.56,28,6.56,11,0,26.48-6.18,26.48-22,0-30.16-58-21.84-58-63.79,0-24,18.93-36.72,43.29-36.72a90.27,90.27,0,0,1,28.81,4.83Z"/><path class="cls-1" d="M258.1,221.13h10.07c11.29,0,21.25,3.8,21.25,18.4s-10,18.41-21.25,18.41H258.1Zm7.38,31h4.11c6.17,0,12.13-4.58,12.13-12.6s-6-12.61-12.13-12.61h-4.11Z"/><path class="cls-1" d="M296.76,232.2a24.25,24.25,0,0,1,9.44-2.06c8.28,0,11.71,3.43,11.71,11.45v3.48c0,2.74.06,4.8.11,6.8s.15,3.95.31,6.07h-6.22a31.6,31.6,0,0,1-.32-4.06h-.1a9.72,9.72,0,0,1-8.39,4.69c-4.79,0-9.49-2.9-9.49-8.07a8,8,0,0,1,4.64-7.75c2.69-1.32,6.17-1.58,9.12-1.58h3.91c0-4.38-2-5.86-6.12-5.86a14.25,14.25,0,0,0-8.39,2.95ZM305,253.4a6,6,0,0,0,5-2.43,9,9,0,0,0,1.48-5.59h-3.06c-3.16,0-7.86.53-7.86,4.7C300.56,252.4,302.51,253.4,305,253.4Z"/><path class="cls-1" d="M327.2,236H322v-5.17h5.22v-5.44l7.07-2.26v7.7h6.28V236h-6.28V248.6c0,2.32.63,4.49,3.32,4.49a6.26,6.26,0,0,0,3.22-.75l.21,5.6a18.71,18.71,0,0,1-5.23.63c-5.53,0-8.59-3.43-8.59-8.81Z"/><path class="cls-1" d="M346.61,232.2a24.25,24.25,0,0,1,9.44-2.06c8.29,0,11.71,3.43,11.71,11.45v3.48c0,2.74.06,4.8.11,6.8s.15,3.95.31,6.07H362a29.63,29.63,0,0,1-.31-4.06h-.11a9.72,9.72,0,0,1-8.39,4.69c-4.79,0-9.49-2.9-9.49-8.07a8,8,0,0,1,4.64-7.75c2.69-1.32,6.17-1.58,9.12-1.58h3.91c0-4.38-1.95-5.86-6.12-5.86a14.25,14.25,0,0,0-8.39,2.95Zm8.28,21.2a6,6,0,0,0,5-2.43,9,9,0,0,0,1.48-5.59h-3.06c-3.16,0-7.86.53-7.86,4.7C350.41,252.4,352.36,253.4,354.89,253.4Z"/><path class="cls-1" d="M374.73,218.38h7.07v15.88h.1a9.52,9.52,0,0,1,8.12-4.12c8.34,0,11.4,6.65,11.4,14.14s-3.06,14.29-11.4,14.29a9.94,9.94,0,0,1-8.33-4h-.1v3.33h-6.86Zm13.34,34.71c4.64,0,6-5.07,6-8.81s-1.26-8.65-5.85-8.65-6.33,4.85-6.33,8.65S383.38,253.09,388.07,253.09Z"/><path class="cls-1" d="M408.18,232.2a24.21,24.21,0,0,1,9.44-2.06c8.28,0,11.7,3.43,11.7,11.45v3.48c0,2.74.06,4.8.11,6.8s.16,3.95.32,6.07h-6.22a31.6,31.6,0,0,1-.32-4.06h-.11a9.69,9.69,0,0,1-8.38,4.69c-4.8,0-9.49-2.9-9.49-8.07a8,8,0,0,1,4.63-7.75c2.69-1.32,6.18-1.58,9.13-1.58h3.9c0-4.38-1.95-5.86-6.11-5.86a14.23,14.23,0,0,0-8.39,2.95Zm8.28,21.2a6,6,0,0,0,5-2.43,9,9,0,0,0,1.47-5.59h-3.06c-3.16,0-7.85.53-7.85,4.7C412,252.4,413.92,253.4,416.46,253.4Z"/><path class="cls-1" d="M452.44,236.47a17.56,17.56,0,0,0-6.33-1.16c-1.9,0-4.17.69-4.17,3,0,4.32,12.29,1.58,12.29,11.39,0,6.33-5.64,8.86-11.4,8.86a31.9,31.9,0,0,1-8-1.16l.42-5.8a15.48,15.48,0,0,0,7,1.79c1.8,0,4.64-.68,4.64-3.32,0-5.33-12.28-1.69-12.28-11.5,0-5.85,5.11-8.44,10.65-8.44a32.28,32.28,0,0,1,7.7,1Z"/><path class="cls-1" d="M481.5,256.4a18.62,18.62,0,0,1-9.34,2.17c-9,0-14.18-5.17-14.18-14.09,0-7.85,4.16-14.34,12.6-14.34,10.07,0,12.92,6.91,12.92,16.41H464.73c.32,4.37,3.37,6.85,7.75,6.85a18.4,18.4,0,0,0,9-2.74Zm-4.75-14.7c-.21-3.44-1.79-6.39-5.74-6.39s-6,2.74-6.28,6.39Z"/><path class="cls-1" d="M531.14,257.41a37.61,37.61,0,0,1-8.38,1.16c-11.92,0-20.21-6-20.21-18.41s7.7-19.67,20.21-19.67a24.21,24.21,0,0,1,8.33,1.53l-.53,6.22a15.23,15.23,0,0,0-8-1.94c-7.59,0-12.34,5.79-12.34,13.33s4.65,13.14,12.51,13.14a20.65,20.65,0,0,0,8.06-1.53Z"/><path class="cls-1" d="M557.73,256.4a18.62,18.62,0,0,1-9.34,2.17c-9,0-14.18-5.17-14.18-14.09,0-7.85,4.16-14.34,12.6-14.34,10.07,0,12.92,6.91,12.92,16.41H541c.32,4.37,3.37,6.85,7.75,6.85a18.4,18.4,0,0,0,9-2.74ZM553,241.7c-.21-3.44-1.79-6.39-5.74-6.39s-6,2.74-6.28,6.39Z"/><path class="cls-1" d="M565.28,230.78H572v3.69h.1a10.14,10.14,0,0,1,8.91-4.33c6.44,0,9.23,4.54,9.23,10.66v17.14h-7.06V243.43c0-3.32,0-7.8-4.59-7.8-5.12,0-6.23,5.54-6.23,9v13.29h-7.06Z"/><path class="cls-1" d="M599.83,236h-5.21v-5.17h5.21v-5.44l7.07-2.26v7.7h6.28V236H606.9V248.6c0,2.32.63,4.49,3.32,4.49a6.26,6.26,0,0,0,3.22-.75l.21,5.6a18.63,18.63,0,0,1-5.22.63c-5.54,0-8.6-3.43-8.6-8.81Z"/><path class="cls-1" d="M639.81,256.4a18.56,18.56,0,0,1-9.33,2.17c-9,0-14.19-5.17-14.19-14.09,0-7.85,4.17-14.34,12.61-14.34,10.07,0,12.92,6.91,12.92,16.41H623c.32,4.37,3.38,6.85,7.76,6.85a18.36,18.36,0,0,0,9-2.74Zm-4.74-14.7c-.21-3.44-1.8-6.39-5.75-6.39s-6,2.74-6.28,6.39Z"/><path class="cls-1" d="M647.52,230.78h6.28v6.16h.1c.32-2.52,3.22-6.8,7.44-6.8a7.39,7.39,0,0,1,2.16.22v7.11a7.32,7.32,0,0,0-3.16-.58c-5.75,0-5.75,7.18-5.75,11.08v10h-7.07Z"/><path class="cls-1" d="M260,290.73h-5.21v-5.17H260v-3.8c0-5.43,3.06-9.23,8.65-9.23a24.64,24.64,0,0,1,5.17.58l-.58,5.85a5.55,5.55,0,0,0-3-.94c-2.38,0-3.12,2.05-3.12,4.16v3.38h6.17v5.17h-6.17v22H260Z"/><path class="cls-1" d="M290.43,284.92c8.07,0,14.24,5.43,14.24,14.4,0,7.8-5.23,14-14.24,14s-14.19-6.23-14.19-14C276.24,290.35,282.41,284.92,290.43,284.92Zm0,22.94c5.43,0,6.85-4.85,6.85-9.39,0-4.16-2.21-8.06-6.85-8.06s-6.81,4-6.81,8.06C283.62,303,285.05,307.86,290.43,307.86Z"/><path class="cls-1" d="M310.38,285.56h6.27v6.16h.1c.32-2.53,3.22-6.8,7.44-6.8a7.72,7.72,0,0,1,2.16.21v7.12a7.29,7.29,0,0,0-3.16-.58c-5.75,0-5.75,7.18-5.75,11.07v10h-7.06Z"/><path class="cls-1" d="M346,275.91h7.39v31h14.29v5.81H346Z"/><path class="cls-1" d="M371.93,273.85H379v6.75h-7.07Zm0,11.71H379v27.16h-7.07Z"/><path class="cls-1" d="M389,290.73H383.8v-5.17H389v-3.8c0-5.43,3.06-9.23,8.65-9.23a24.72,24.72,0,0,1,5.17.58l-.58,5.85a5.59,5.59,0,0,0-3.06-.94c-2.37,0-3.11,2.05-3.11,4.16v3.38h6.17v5.17h-6.17v22H389Z"/><path class="cls-1" d="M428.74,311.18a18.62,18.62,0,0,1-9.34,2.17c-9,0-14.18-5.17-14.18-14.09,0-7.85,4.16-14.34,12.6-14.34,10.07,0,12.92,6.91,12.92,16.41H412c.32,4.37,3.37,6.85,7.75,6.85a18.4,18.4,0,0,0,9-2.74ZM424,296.47c-.21-3.43-1.79-6.38-5.74-6.38s-6,2.74-6.28,6.38Z"/><path class="cls-1" d="M471.37,282.66a19,19,0,0,0-7.5-1.59c-2.52,0-5.79,1.11-5.79,5.12,0,6.38,16.13,3.69,16.13,16,0,8.07-6.38,11.13-13.82,11.13a32.42,32.42,0,0,1-9.44-1.43l.69-6.64a17.78,17.78,0,0,0,8.34,2.27c2.79,0,6.53-1.43,6.53-4.75,0-7-16.14-4.12-16.14-16.3,0-8.22,6.39-11.23,12.88-11.23a27.66,27.66,0,0,1,8.8,1.32Z"/><path class="cls-1" d="M497.9,291.41a10.66,10.66,0,0,0-4.8-1c-4.38,0-7.17,3.48-7.17,8.59s2.38,8.86,7.33,8.86a15.13,15.13,0,0,0,5.43-1.26l.32,5.85a23.15,23.15,0,0,1-7.07.9c-8.91,0-13.39-6.06-13.39-14.35,0-7.86,4.64-14.08,13.13-14.08a23.05,23.05,0,0,1,6.86.9Z"/><path class="cls-1" d="M503.87,273.85h7.07v6.75h-7.07Zm0,11.71h7.07v27.16h-7.07Z"/><path class="cls-1" d="M540.15,311.18a18.56,18.56,0,0,1-9.33,2.17c-9,0-14.19-5.17-14.19-14.09,0-7.85,4.17-14.34,12.61-14.34,10.07,0,12.92,6.91,12.92,16.41H523.38c.32,4.37,3.38,6.85,7.76,6.85a18.36,18.36,0,0,0,9-2.74Zm-4.74-14.71c-.21-3.43-1.79-6.38-5.75-6.38s-6,2.74-6.28,6.38Z"/><path class="cls-1" d="M547.7,285.56h6.7v3.68h.11a10.17,10.17,0,0,1,8.91-4.32c6.43,0,9.23,4.54,9.23,10.66v17.14h-7.07V298.21c0-3.32-.05-7.8-4.59-7.8-5.11,0-6.22,5.54-6.22,9v13.29H547.7Z"/><path class="cls-1" d="M597.55,291.41a10.66,10.66,0,0,0-4.8-1c-4.38,0-7.17,3.48-7.17,8.59s2.38,8.86,7.33,8.86a15.13,15.13,0,0,0,5.43-1.26l.32,5.85a23.11,23.11,0,0,1-7.07.9c-8.91,0-13.39-6.06-13.39-14.35,0-7.86,4.64-14.08,13.13-14.08a23.05,23.05,0,0,1,6.86.9Z"/><path class="cls-1" d="M625.14,311.18a18.58,18.58,0,0,1-9.33,2.17c-9,0-14.19-5.17-14.19-14.09,0-7.85,4.17-14.34,12.6-14.34,10.07,0,12.93,6.91,12.93,16.41H608.37c.32,4.37,3.38,6.85,7.75,6.85a18.37,18.37,0,0,0,9-2.74Zm-4.75-14.71c-.21-3.43-1.79-6.38-5.74-6.38s-6,2.74-6.28,6.38Z"/><g class="cls-2"><rect class="cls-1" x="113.19" y="64.64" width="13.26" height="52.53"/><rect class="cls-1" x="145.33" y="77.14" width="10.63" height="52.53"/><rect class="cls-1" x="130.16" y="70.89" width="12.06" height="52.53"/><polygon class="cls-1" points="94.66 58.38 94.66 110.92 108.84 110.92 108.84 58.39 94.66 58.38"/><rect class="cls-1" x="29.65" y="31.71" width="6.28" height="52.53"/><rect class="cls-1" x="158.44" y="83.38" width="8.95" height="52.54"/><rect class="cls-1" x="16.09" y="20.72" width="3.37" height="52.53"/><rect class="cls-1" width="1.86" height="52.53"/><rect class="cls-1" x="76.14" y="52.11" width="13.56" height="52.54"/><polygon class="cls-1" points="43.99 39.3 43.99 91.84 52.94 91.84 52.94 39.31 43.99 39.3"/><polygon class="cls-1" points="59.16 45.75 59.16 98.28 70.55 98.28 70.55 45.74 59.16 45.75"/><rect class="cls-1" x="177.46" y="95.91" width="4.59" height="52.53"/><path class="cls-1" d="M182.68,102.59v52.53c0-.79,1.67,0,1.67,0V102.59Z"/><rect class="cls-1" x="169.26" y="89.64" width="6.97" height="52.53"/></g><path class="cls-3" d="M0,155.12a11.74,11.74,0,0,0,2,6.2,28.79,28.79,0,0,0,5.78,6.44,68.43,68.43,0,0,0,8.27,6c3.35,2.1,7.1,4.18,11.12,6.21,4.22,2.13,8.74,4.19,13.42,6.21,5,2.15,10.26,4.24,15.47,6.2,5.85,2.22,11.7,4.3,17.29,6.21,6.84,2.34,13.28,4.44,18.84,6.21s12,3.87,18.83,6.21c5.59,1.91,11.43,4,17.29,6.2,5.22,2,10.43,4.06,15.48,6.21,4.67,2,9.19,4.08,13.42,6.22,4,2,7.77,4.1,11.12,6.21a66,66,0,0,1,8.52,6.21,28.09,28.09,0,0,1,5.52,6.21,11.74,11.74,0,0,1,2,6.2V201.93a11.77,11.77,0,0,0-2-6.2,27.65,27.65,0,0,0-5.52-6.21,67,67,0,0,0-8.52-6.22c-3.35-2.1-7.1-4.17-11.12-6.21-4.23-2.13-8.75-4.19-13.42-6.21-5.05-2.15-10.26-4.23-15.48-6.2-5.86-2.22-11.7-4.3-17.29-6.21-6.83-2.34-13.27-4.43-18.83-6.21s-12-3.87-18.84-6.21c-5.59-1.91-11.44-4-17.29-6.2-5.21-2-10.43-4.06-15.47-6.21-4.68-2-9.2-4.08-13.42-6.21-4-2-7.77-4.11-11.12-6.21a68.43,68.43,0,0,1-8.27-6A28.79,28.79,0,0,1,2,108.79a11.69,11.69,0,0,1-2-6.2Z"/><path class="cls-1" d="M184.35,254.46a11.75,11.75,0,0,1-2,6.21,28.76,28.76,0,0,1-5.78,6.44,69.22,69.22,0,0,1-8.27,6c-3.35,2.11-7.09,4.19-11.12,6.22-4.22,2.12-8.74,4.19-13.41,6.2-5.05,2.16-10.26,4.24-15.47,6.21-5.87,2.21-11.72,4.3-17.3,6.21-6.84,2.34-13.27,4.42-18.83,6.21s-12,3.86-18.85,6.2c-5.58,1.92-11.42,4-17.28,6.21-5.21,2-10.43,4.05-15.47,6.21-4.68,2-9.2,4.08-13.42,6.21-4,2-7.77,4.11-11.13,6.2a68.72,68.72,0,0,0-8.52,6.23A28.15,28.15,0,0,0,2,347.6a11.87,11.87,0,0,0-2,6.21V301.28a11.82,11.82,0,0,1,2-6.21,28.67,28.67,0,0,1,5.53-6.22,69.73,69.73,0,0,1,8.52-6.2c3.36-2.1,7.1-4.19,11.13-6.21,4.22-2.13,8.74-4.2,13.42-6.21,5-2.15,10.26-4.24,15.47-6.21,5.86-2.21,11.7-4.29,17.28-6.2,6.85-2.34,13.29-4.44,18.85-6.21s12-3.87,18.83-6.21c5.58-1.91,11.43-4,17.3-6.21,5.21-2,10.42-4.05,15.47-6.2,4.67-2,9.19-4.08,13.41-6.23,4-2,7.77-4.09,11.12-6.19a70.36,70.36,0,0,0,8.27-6,28.54,28.54,0,0,0,5.78-6.44,11.77,11.77,0,0,0,2-6.21Z"/><path class="cls-1" d="M184.35,155.12a11.74,11.74,0,0,1-2,6.2,28.54,28.54,0,0,1-5.78,6.44,70.36,70.36,0,0,1-8.27,6c-3.35,2.1-7.09,4.18-11.12,6.21-4.22,2.13-8.74,4.19-13.41,6.21-5.05,2.15-10.26,4.24-15.47,6.2-5.87,2.22-11.72,4.3-17.3,6.21-6.84,2.34-13.27,4.44-18.83,6.21s-12,3.87-18.85,6.21c-5.58,1.91-11.42,4-17.28,6.2-5.21,2-10.43,4.06-15.47,6.21-4.68,2-9.2,4.08-13.42,6.22-4,2-7.77,4.1-11.13,6.21a66.71,66.71,0,0,0-8.52,6.21A28.41,28.41,0,0,0,2,248.26a11.81,11.81,0,0,0-2,6.2V201.93a11.84,11.84,0,0,1,2-6.2,28,28,0,0,1,5.53-6.21A67.7,67.7,0,0,1,16,183.3c3.36-2.1,7.1-4.17,11.13-6.21,4.22-2.13,8.74-4.19,13.42-6.21,5-2.15,10.26-4.23,15.47-6.2,5.86-2.22,11.7-4.3,17.28-6.21,6.85-2.34,13.29-4.43,18.85-6.21s12-3.87,18.83-6.21c5.58-1.91,11.43-4,17.3-6.2,5.21-2,10.42-4.06,15.47-6.21,4.67-2,9.19-4.08,13.41-6.21,4-2,7.77-4.11,11.12-6.21a70.36,70.36,0,0,0,8.27-6,28.54,28.54,0,0,0,5.78-6.44,11.74,11.74,0,0,0,2-6.2Z"/><rect class="cls-1" x="57.91" y="64.64" width="13.26" height="52.53"/><rect class="cls-1" x="28.4" y="77.14" width="10.63" height="52.53"/><rect class="cls-1" x="42.13" y="70.89" width="12.06" height="52.53"/><polygon class="cls-1" points="89.69 58.38 89.69 110.92 75.51 110.92 75.51 58.39 89.69 58.38"/><rect class="cls-1" x="148.43" y="31.71" width="6.29" height="52.53"/><rect class="cls-1" x="16.96" y="83.38" width="8.95" height="52.54"/><rect class="cls-1" x="164.9" y="20.72" width="3.36" height="52.53"/><rect class="cls-1" x="182.49" width="1.86" height="52.53"/><rect class="cls-1" x="94.66" y="52.11" width="13.56" height="52.54"/><polygon class="cls-1" points="140.36 39.3 140.36 91.84 131.41 91.84 131.41 39.31 140.36 39.3"/><polygon class="cls-1" points="125.2 45.75 125.2 98.28 113.8 98.28 113.8 45.74 125.2 45.75"/><rect class="cls-1" x="2.3" y="95.91" width="4.59" height="52.53"/><path class="cls-1" d="M1.68,102.59v52.53c0-.79-1.68,0-1.68,0V102.59Z"/><rect class="cls-1" x="8.13" y="89.64" width="6.97" height="52.53"/></g></g></svg>