<svg xmlns="http://www.w3.org/2000/svg" viewBox="0 0 1995.83 350.6"><defs><style>.cls-1{fill:#004098;}.cls-2{fill:#97bdc0;}</style></defs><title>logo_ja_c</title><g id="レイヤー_2" data-name="レイヤー 2"><g id="レイヤー_1-2" data-name="レイヤー 1"><path class="cls-1" d="M302.7,234.15c-3.1,27.19-13.19,47.39-57.68,51.91l-3.27-7.35c25.87-2.39,47.13-8.95,51.56-37.13H231.2v-7.43Zm-5-21.18v7.44H237.58V213Z"/><path class="cls-1" d="M363.83,286.68h-8.51V242.91a184.76,184.76,0,0,1-35.53,17.81l-4.87-6.82c12.75-4.52,44.3-17.37,65.83-44.21l7.8,5.22A236,236,0,0,1,363.83,237Z"/><path class="cls-1" d="M476.68,216.16c-1.86,21.7-7.88,59.62-58,69l-3.19-7.53c45.1-7.54,49.44-38.55,51.48-54H406.78v-7.53Z"/><path class="cls-1" d="M545.69,209.34h8.24v17.45h15.85v7.62H553.93v9.92c0,7.18-1.86,21.62-12.14,30.31-9.75,8.23-22.95,10.45-29.5,11.51L509,278.62c18.52-2.39,36.68-8.51,36.68-34.2v-10H514.41v24.36h-8.24V234.41H490.58v-7.62h15.59v-17h8.24v17h31.28Z"/><path class="cls-1" d="M628.69,286.68h-8.5V242.91a185.1,185.1,0,0,1-35.53,17.81l-4.88-6.82c12.76-4.52,44.3-17.37,65.83-44.21l7.8,5.22A233.92,233.92,0,0,1,628.69,237Z"/><path class="cls-1" d="M740.4,217.49v7.7H711.78v46.7h33.58v7.79H670.05v-7.79h33.14v-46.7H675.1v-7.7Z"/><path class="cls-1" d="M786.37,235.47c-7.26-5.67-20.73-11.16-27.19-13l4-7.09c1.51.44,16,4.61,28.17,12.4Zm-26.76,39.7c25-1.78,52.63-9.4,66.46-53.87l8,3.54c-7.09,20.38-18.61,53.52-71.32,59.09Z"/><path class="cls-1" d="M842.62,278.79c14.88-5.93,40.75-22.94,52.89-56.78H847.23v-7.63h59.18a102.1,102.1,0,0,1-17.55,37,373.94,373.94,0,0,1,30.84,27.38l-6.56,6.55c-5-5.58-11.43-12.57-29-27.9-10,11.87-22.25,21.88-36.6,28Z"/><path class="cls-1" d="M961.15,218.46a211.55,211.55,0,0,1-17.36,26.13c3.72-.17,7.7-.35,11.34-.7-1.33-3.28-1.59-3.9-2.39-5.58l5.58-2.4a118.33,118.33,0,0,1,6.91,15.86l-6.38,2.57c-.36-1.15-1.16-3.63-1.59-4.78-2,.27-5.14.53-7.27.8V289h-6.83V250.8c-8.06.53-10.45.62-14.17.71l-.44-6.38c1.86,0,2.39,0,7.44-.27,2.75-3.54,3.9-5.22,5-6.82A94.37,94.37,0,0,0,928,226l3.64-5.58c2,1.5,2.39,1.86,3.28,2.57a95.87,95.87,0,0,0,8.86-16l6.47,2.47a141.9,141.9,0,0,1-10.37,18,61.27,61.27,0,0,1,5,4.88c5.67-8.87,8.15-13.3,9.83-16.49Zm-32.87,62.11a86.67,86.67,0,0,0,4.43-23.39l6.38,1a117,117,0,0,1-4.34,24.71Zm28.88-4.79a64.79,64.79,0,0,0-3.36-17.54l5.58-1.59a64.48,64.48,0,0,1,4.34,17.63Zm-.61,7.18c15.41-6.46,17.27-16.57,17.54-33.22H981c-.53,19.13-2.84,31.27-20.11,39.25Zm41.9-57.85A78.33,78.33,0,0,1,1013,244.69l-6.47,3.63a48.5,48.5,0,0,0-2.39-4.88c-17.45,1.78-26.66,2.4-39.16,2.93l-.7-6.91c4.6-.09,5.14-.09,6.1-.17a82,82,0,0,0,7.45-17.11H962.93v-6.82h20.64V207h7.26v8.41h21.09v6.82h-26.4a115,115,0,0,1-7.8,16.84c7.53-.27,15.06-.71,22.5-1.42a69.33,69.33,0,0,0-7.61-8.95Zm-1.33,54.4c0,1.15.45,1.86,2.31,1.86h3.45c1.42,0,2-.71,2.22-2.66s.26-8.6.26-11.61l6.65,2.22c.09,14.88-.8,18.87-7.26,18.87h-8.42c-2.92,0-6.12-1.07-6.12-5.94V249.74h6.91Z"/><path class="cls-1" d="M1085.62,238.57h-45V232.1a105.31,105.31,0,0,1-15.51,8.25l-4.25-7.36c14.18-5,29-13.82,38.27-27h7.36c11.16,13.65,23.48,20.91,38.63,27l-4.17,7.36a93.83,93.83,0,0,1-15.32-8.25Zm9,10V289h-7.44v-4.08h-48.37V289h-7.45V248.58Zm-7.44,6.83h-48.37v22.85h48.37Zm-2-23.57a104.91,104.91,0,0,1-22.41-19.67A83.1,83.1,0,0,1,1041,231.84Z"/><path class="cls-1" d="M1190.15,236v7.44h-29.77c-.17,27.56-12.58,38.28-36.05,43.07l-3.29-7.09c20.38-3.9,31.45-10.72,30.92-36h-35.7V236Zm-14.35-22.95v7.18h-51.57v-7.18Zm5,7.36a57,57,0,0,0-4-12.93l5.58-1.42a54.19,54.19,0,0,1,4.26,12.93Zm10.19-1.15a80.22,80.22,0,0,0-4.52-13.11l5.23-1.6a65.09,65.09,0,0,1,4.69,12.94Z"/><path class="cls-1" d="M1283.52,243.44V252h-78.67v-8.52Z"/><path class="cls-1" d="M1324.7,239.55a106.45,106.45,0,0,1,22.68,14.17,60.56,60.56,0,0,0,12.14-26.22h-34.11c-10.36,14.62-20,20.47-24,22.77l-5.14-6a64.85,64.85,0,0,0,30-35.17l8.5,1.59a90,90,0,0,1-4.6,9.57h39.33c-2.92,15.86-11.07,54-62.72,66.63l-4.52-7c16-3.28,28.08-9,39.69-20a104.21,104.21,0,0,0-22.5-14.71Z"/><path class="cls-1" d="M1381.48,252.92c3.55-3.81,18.08-21.7,21.26-25.16,2.4-2.65,6.21-5.93,11-5.93,2.75,0,5.85.35,13.12,7.62l39,38.8-6.56,6.92L1419,233.43c-.62-.61-3-3.19-5.67-3.19-2.92,0-5.85,4-9.3,8.51-2.22,2.92-11.79,16.22-13.91,18.78-.8.89-1.95,2.22-2.3,2.57Zm64.77-22.14a101.78,101.78,0,0,0-9-12.59l5.23-3.36a94.52,94.52,0,0,1,9.13,12Zm11-6.12a97.92,97.92,0,0,0-9-12l5-3.46a82.37,82.37,0,0,1,9.21,11.6Z"/><path class="cls-1" d="M1555,243.44V252h-78.68v-8.52Z"/><path class="cls-1" d="M1566.63,278.79c14.88-5.93,40.75-22.94,52.89-56.78h-48.28v-7.63h59.17a101.91,101.91,0,0,1-17.54,37,375.58,375.58,0,0,1,30.84,27.38l-6.56,6.55c-5-5.58-11.43-12.57-29.06-27.9-10,11.87-22.24,21.88-36.59,28Z"/><path class="cls-1" d="M1731.05,225.9c-2.83,19.23-10.19,29.15-26.84,37.4l-5-6.47c6.3-2.58,17.64-7.63,21.62-22.95l-37.38,3v29.86c0,8.32,1.23,10.18,11.87,10.18h17.89a101.1,101.1,0,0,0,16.39-1.59l.09,8.16a124.38,124.38,0,0,1-15.86,1h-19.4c-14.26,0-19.31-4.15-19.31-17.36V237.6l-19.32,1.5-.53-7.61,19.85-1.51V210h8.33v19.4Z"/><path class="cls-1" d="M1772,235.47c-7.26-5.67-20.73-11.16-27.19-13l4-7.09c1.51.44,16,4.61,28.18,12.4Zm-26.76,39.7c25-1.78,52.63-9.4,66.46-53.87l8,3.54c-7.09,20.38-18.61,53.52-71.32,59.09Z"/><path class="cls-1" d="M1857.72,239.55a106.45,106.45,0,0,1,22.68,14.17,60.56,60.56,0,0,0,12.14-26.22h-34.11c-10.37,14.62-20,20.47-24,22.77l-5.14-6a64.9,64.9,0,0,0,30-35.17l8.5,1.59a88.54,88.54,0,0,1-4.61,9.57h39.34c-2.92,15.86-11.07,54-62.72,66.63l-4.52-7c16-3.28,28.08-9,39.69-20a104.21,104.21,0,0,0-22.5-14.71Z"/><path class="cls-1" d="M1995.83,243.44V252h-78.67v-8.52Z"/><path class="cls-1" d="M250.37,68.4h4.14V79.79h19.81v3.86H255.16c2.88,12.19,8.23,19,19.81,23.77l-2.6,3.9C262.7,106.77,256,100.26,252.92,89c-4.22,14.47-15,20-19.85,22.23l-2.23-4c6.93-2.7,16.83-8.42,19.3-23.58H231.25V79.79h19.12Z"/><path class="cls-1" d="M315,86.62a52.18,52.18,0,0,1-11.81,7.58v1h19.34v3.57H303.23v9.17c0,3.07-2.42,3.58-3.82,3.58H291l-.74-4,7.57,0c1.45,0,1.54-.37,1.54-1.44V98.76H279.51V95.19h19.81V91.33h2a27.15,27.15,0,0,0,7.54-4.42H287V83.46h28Zm-4.51-10.78A69.61,69.61,0,0,0,314,68.16l4,1.35a46.8,46.8,0,0,1-3.3,6.33h6.75V86.12h-3.82V79.28H284.44v6.84h-3.81V75.84h6.74a27.76,27.76,0,0,0-3.21-6.14l3.44-1.35a25.52,25.52,0,0,1,3.58,6.6l-2.32.89Zm-10.19,0a40.19,40.19,0,0,0-3.53-6.61l3.58-1.43a36.08,36.08,0,0,1,3.53,6.78Z"/><path class="cls-1" d="M369.44,80.49h-9.68V92.72H371v3.77H327.86V92.72h11.35V80.49h-9.77V76.72h9.77V68.44H343v8.28H355.9V68.44h3.86v8.28h9.68Zm-25.12,20.09a39.1,39.1,0,0,1-12.83,11.16l-2.94-3.25c5.87-2.93,8.57-5.07,12.38-9.77ZM355.9,80.49H343V92.72H355.9Zm11.54,31.25a49.45,49.45,0,0,1-12.61-11.07L358,98.53a43.18,43.18,0,0,0,12.33,9.86Z"/><path class="cls-1" d="M417.51,107.33c0,2.78-1.12,4.13-4.7,4.13h-6.65l-.65-3.95,6.42,0c1,0,1.62,0,1.62-1.48V73.65H382v37.81h-3.95V70h39.44Zm-6.14-29.26v3.39H384.11V78.07Zm-3,7.76v17H387v-17Zm-3.62,3.4H390.67V99.51h14.05Z"/><path class="cls-1" d="M438.7,80.81H447v3.63h-8.23a38.45,38.45,0,0,0,7.63,10.1l-2.05,3.39a33.75,33.75,0,0,1-5.67-8.33v22h-4V90.3A40.23,40.23,0,0,1,426,103.09l-1.81-4.23a45.43,45.43,0,0,0,10.19-14.42H424.6V80.81h10.14V74.07c-3.2.37-6.37.61-8.83.74l-.79-3.54c1.86-.09,12.51-.45,20.32-3l1.63,3.35a57.46,57.46,0,0,1-8.37,1.9Zm15.39,21.11h-3.95V71.83h3.95Zm12.28,5.54c0,3.54-2.75,4.05-4.28,4.05h-7.35l-.83-4.14,6.7.14c1.39,0,1.67-.09,1.67-1.4V68.4h4.09Z"/><path class="cls-1" d="M513.46,107.6c0,3.4-2.09,3.91-3.67,3.91h-6.28l-.47-3.86,5.45.09c.79,0,1.06-.56,1.06-1.26V97.09H497v14h-3.67v-14h-12c-.83,6.74-3.39,11.49-6,14.32L472.67,108a18.1,18.1,0,0,0,3.72-6.6,39.25,39.25,0,0,0,1.5-9.63V70.35h35.57ZM493.33,85.42H481.75v5.76a23.52,23.52,0,0,1-.05,2.42h11.63Zm0-11.44H481.75v7.9h11.58Zm16.22,0H497v7.9h12.55Zm0,11.44H497V93.6h12.55Z"/><path class="cls-1" d="M552,72.26c.56.46.7.6.94.78A46.38,46.38,0,0,0,556,68.21l2.83,1.11a52.15,52.15,0,0,1-3.9,5.63c.51.52,1.39,1.39,1.9,2,2.65-3.44,2.88-3.77,3.49-4.69l2.51,1.34A106,106,0,0,1,555,83.32c3.67-.23,3.9-.23,5.39-.37-.32-1-.56-1.58-.88-2.37l2.65-1a46.93,46.93,0,0,1,2.46,6.94l-2.88,1.21a22.58,22.58,0,0,0-.56-2.33c-1,.14-4.84.51-5.21.56a42.57,42.57,0,0,1,4.23,2.65l-1.67,2h5.86v3.25h-12.6A29.46,29.46,0,0,0,554,101a22.77,22.77,0,0,0,4.52-5.72l3.2,1.49a29.47,29.47,0,0,1-5.95,7.44c1.59,2.56,2.94,3.68,3.63,3.68.93,0,1.58-1.26,2.7-5.77l3,2.28c-1.26,4.79-2.51,7.11-5.49,7.11-3.3,0-6-3.81-6.75-5a36.24,36.24,0,0,1-9.9,4.7l-1.58-3.21a27.71,27.71,0,0,0,9.76-4.6,46.31,46.31,0,0,1-2.88-9.59h-8.93c0,1.07,0,1.26-.1,3a31,31,0,0,1,7.77,4.7l-2,3a26.88,26.88,0,0,0-6-4.37c-.65,6.28-2.42,9.07-4.19,11.39L532,108.86c2.84-3.86,3.59-7.26,3.68-15h-1.91V91.09L532,93.69a26.69,26.69,0,0,1-2.18-4.78v22.6h-3.45V90.39A40.32,40.32,0,0,1,522.61,101l-2-4.55a42.58,42.58,0,0,0,5.45-15.54h-4.75V77.33h5v-9h3.45v9h3.67v3.53h-3.67V83a29.88,29.88,0,0,0,4.27,7.63l0,0h13.53a143.78,143.78,0,0,1-1.67-22.33h3.72a141.36,141.36,0,0,0,.75,15.21h1c1.16-1.21,2.84-3.31,3.54-4.14A38.37,38.37,0,0,0,550,74.48Zm-8.5,8.18a34.09,34.09,0,0,1,2.42,7.07l-2.85,1c-.18-.93-.27-1.35-.46-2-1.63.18-9.48.78-9.91.83l-.42-2.92a7.5,7.5,0,0,0,1.31-.05c.6-.65,1.67-1.86,3.91-4.65a56.79,56.79,0,0,0-5.31-5.07l2-2.19c.56.42.7.51,1.12.84a31.5,31.5,0,0,0,3.63-5.07l2.83,1.07a38.09,38.09,0,0,1-4.42,5.86,24.05,24.05,0,0,1,2,2.14,46.84,46.84,0,0,0,3.54-4.89L545.31,74c-2.33,3.25-6.33,8.23-8.19,10.28,1.63-.05,2.79-.1,4.65-.24a16.6,16.6,0,0,0-1-2.56ZM555.54,86c-1.72.15-3.16.24-4.89.38.14,1.16.42,3,.61,4.28h6.65c-.56-.38-2.46-1.63-4-2.47Z"/><path class="cls-1" d="M588.82,69.84V84.91H575.09v26.6h-3.67V69.84Zm-3.64,2.88H575.09V76h10.09Zm0,5.86H575.09v3.49h10.09Zm15.44,30.65a20,20,0,0,1-9.53-8.47c-1.71,3.68-5.25,7.22-11.16,9.17L578,106.77c6.24-1.64,8.8-4.85,9.81-6.75h-9.76v-3h10.84a14.49,14.49,0,0,0,.37-3.63H579.19V90.48h5.21c-.75-1.76-1.08-2.51-1.73-3.81l3.59-.6a35.39,35.39,0,0,1,1.62,4.41h6.52a29.88,29.88,0,0,0,1.35-4.32l3.62.46a25.17,25.17,0,0,1-1.53,3.86h5.39v2.94H592.81a24.07,24.07,0,0,1-.46,3.63h11.91v3H594a16.55,16.55,0,0,0,8.33,6ZM611,69.84V108c0,1.07-.37,3.49-3.25,3.49h-5l-1-3.67,4.28,0c.93,0,1.26-.33,1.26-1.54V84.91H593.51V69.84Zm-3.67,2.88H597.14V76h10.14Zm0,5.86H597.14v3.49h10.14Z"/><path class="cls-1" d="M617.4,107.84a64.32,64.32,0,0,0,8.88-15.3l3.12,2.36c-1.91,4.47-5.81,12-9.44,16.51Zm7.72-18.66a26,26,0,0,0-7.63-4.92L619.35,81a28.21,28.21,0,0,1,8.14,4.79Zm2.19-12.28a30.37,30.37,0,0,0-7.91-5.11l2.1-3.16a35.45,35.45,0,0,1,8.23,4.84Zm24.32,18.47A64.86,64.86,0,0,1,661.08,110l-3.59,1.91a36.78,36.78,0,0,0-1.9-4,175.63,175.63,0,0,1-25.77,2.13l-.6-3.72h3.48c2.8-4.93,5.81-11.72,6.7-15.11h-9.58V87.7h13.53V79H631.73V75.37h11.62V68.3h3.91v7.07H659.4V79H647.26V87.7h13.82v3.58H643.77a127.93,127.93,0,0,1-6.83,15c4.46-.18,11.76-.51,16.92-1.25a60.51,60.51,0,0,0-5.44-7.68Z"/><path class="cls-1" d="M690.07,68.44v5.63a44.21,44.21,0,0,0,4.56,19.12c3,5.67,7.86,10.64,15.58,14.55l-2.75,3.72C694.31,104.35,690,94,688,85.37c-2.65,13-10.19,21.21-19.77,25.91l-2.65-3.59c8.51-4.18,13.86-9.67,16.56-16.09A53.71,53.71,0,0,0,685.89,74V68.44Z"/><path class="cls-1" d="M736,77.89c0,1.44,0,8.18-1.68,13l-3.06-1.57c1.35-3.4,1.76-8.7,1.67-11.59Zm5.63-9.54v43.2h-3.82V68.35ZM744,83a34.94,34.94,0,0,0-2.1-5.77l2.8-1.11a39.77,39.77,0,0,1,2.22,5.63Zm18.46-5.63h10.88V80.2H762.46v3.12h12.69v3H745.9v-3h12.79V80.2h-10.6V77.37h10.6V74.25H746.92v-3h11.77V68.35h3.77v2.88h11.81v3H762.46ZM773,107.28c0,3.16-.65,4.27-4.42,4.27h-4.93l-.75-3.53h5.21c1.21,0,1.21-.84,1.21-1.44v-3.35H752v8.32h-3.72V88.86H773Zm-3.68-15.54H752v2.93h17.35Zm0,5.72H752v2.93h17.35Z"/><path class="cls-1" d="M793.28,68.35v4h8v3.44h-8v4.93h9.16v3.39h-2.93c-.42,2.15-1.21,5.17-1.63,6.52H802v3.44h-8.74v5.44h8V103h-8v8.56h-3.67V103h-8V99.51h8V94.07h-8.75V90.63h4.38a46,46,0,0,0-1.73-6.52h-3.07V80.72h9.17V75.79h-8V72.35h8v-4Zm1.11,22.28a32.36,32.36,0,0,0,1.35-6.52H787.1a52.49,52.49,0,0,1,1.57,6.52Zm27.31,20.88a33,33,0,0,1-5.91-5.73,28.69,28.69,0,0,1-5.26,5.59l-2.32-3.12a24.17,24.17,0,0,0,5.3-5.53,35.94,35.94,0,0,1-5-10.38l3.26-1a45.23,45.23,0,0,0,3.72,8,36.78,36.78,0,0,0,3-9.49H807.42v21.68h-3.63V69.84h18c0,5.34-.6,10.56-1.25,12-.33.74-1,2.09-3.86,2.09h-5.16l-.66-3.58,4.52.05c2,0,2.6-.7,2.83-7H807.42V86.44h15a41.52,41.52,0,0,1-4.56,16.09,43,43,0,0,0,6,5.54Z"/><path class="cls-1" d="M837.87,89.93a4,4,0,1,1-4-4A3.95,3.95,0,0,1,837.87,89.93Z"/><path class="cls-1" d="M858.83,90.86a54.83,54.83,0,0,0-13.21-5.49l1.91-3.72A53.94,53.94,0,0,1,860.78,87ZM848,104.07c19.25-1.3,27.12-9.49,32.46-26l4,1.77c-5.85,16.41-13.11,26.37-35.43,28.7Zm14.65-24a60.89,60.89,0,0,0-13.53-5.48l1.9-3.58a54.73,54.73,0,0,1,13.54,5.2Z"/><path class="cls-1" d="M889.23,106.07c7.82-3.12,21.4-12,27.77-29.82H891.65v-4h31.07a53.62,53.62,0,0,1-9.21,19.39A198.56,198.56,0,0,1,929.7,106l-3.45,3.44c-2.6-2.93-6-6.6-15.25-14.65a52.33,52.33,0,0,1-19.21,14.7Z"/><path class="cls-1" d="M974.65,83.74v4.05H958.84c-.47,13.21-5.35,19.67-18.84,22.37l-1.86-3.63c11.77-2,16.05-7.44,16.23-18.74H935.81V83.74Zm-3.86-12.18v4H939.67v-4Z"/><path class="cls-1" d="M1009.42,86.86a93.59,93.59,0,0,1,12,21.21l-4.46,1.86a40.28,40.28,0,0,0-1.68-4.51c-6.13.88-17.76,2-33.9,2.74l-.42-4.47c1.81,0,2.84,0,4.37,0,5.21-12.92,8.74-27.06,10.33-33.39l5.07.65a288.51,288.51,0,0,1-10.89,32.61c14.38-.56,22.23-1.35,23.86-1.54a82.71,82.71,0,0,0-8-13.39Z"/><path class="cls-1" d="M1042.05,83.41v23.45h-8.46v3.72h-3.45V92.07a15.91,15.91,0,0,1-2.51,3.12L1026,91c1.76-2.14,5.44-6.42,6.09-17.3h-5.39V70.12h16.18V73.7h-7.16a46.07,46.07,0,0,1-1.72,9.71Zm-3.3,3.36h-5.16v16.65h5.16Zm25.39-1.26h5.4v3.67h-5.4v22.23h-3.81V89.18h-7.53v2.7c0,12.24-4.52,17.44-6.33,19.53l-3.35-2.69a17.72,17.72,0,0,0,4.33-6.89A35.17,35.17,0,0,0,1049,91.69V89.18h-5V85.51h5V73.7h-4.23V70.12h24V73.7h-4.7Zm-3.81-11.81h-7.53V85.51h7.53Z"/><path class="cls-1" d="M1074.73,108c13.35-3.4,15.25-10.1,16-13.31h-13.53V91h14.23a40.33,40.33,0,0,0,.42-5.16h3.81a49.1,49.1,0,0,1-.46,5.16h13.06v15c0,.93.1,1.26,1.17,1.26h3.11c1.54,0,1.68-1.3,1.77-6.66l3.58.84c-.14,7.26-.55,9.44-3.86,9.44H1108c-3.39,0-3.39-2.51-3.39-3.86V94.67h-10c-.79,3.49-2.89,12.37-18,17.07Zm27.85-21.45c-2.37,0-3.62-.6-3.62-3.16V75.84h-6.61c-.84,3.86-3,9.39-14.28,12.6l-1.34-3.58c9.06-1.77,11.11-6.23,12-9h-8.8v5.71h-3.81v-9.2h18.33v-4h3.81v4h18.42v8.37H1115c-.33,4.14-1.08,5.81-3.77,5.81ZM1113,80.16V75.84h-10.65V82c0,.65,0,1.16,1.26,1.16h6.19c1.53,0,1.57-1,1.76-3.39Z"/><path class="cls-1" d="M1153.86,72.26c.56.46.7.6.94.78a46.38,46.38,0,0,0,3.07-4.83l2.83,1.11a52.15,52.15,0,0,1-3.9,5.63c.51.52,1.39,1.39,1.91,2,2.64-3.44,2.88-3.77,3.48-4.69l2.51,1.34a104.27,104.27,0,0,1-7.76,9.72c3.67-.23,3.9-.23,5.4-.37-.33-1-.56-1.58-.89-2.37l2.65-1a45.73,45.73,0,0,1,2.46,6.94l-2.88,1.21a20.21,20.21,0,0,0-.56-2.33c-1,.14-4.84.51-5.2.56a44,44,0,0,1,4.22,2.65l-1.67,2h5.86v3.25h-12.6a28.82,28.82,0,0,0,2.14,7.16,22.93,22.93,0,0,0,4.51-5.72l3.21,1.49a29.52,29.52,0,0,1-6,7.44c1.59,2.56,2.94,3.68,3.63,3.68.93,0,1.58-1.26,2.7-5.77l3,2.28c-1.26,4.79-2.51,7.11-5.49,7.11-3.3,0-6-3.81-6.74-5a36.39,36.39,0,0,1-9.91,4.7l-1.58-3.21a27.64,27.64,0,0,0,9.76-4.6,46.31,46.31,0,0,1-2.88-9.59h-8.93c0,1.07-.05,1.26-.1,3a31.28,31.28,0,0,1,7.78,4.7l-2,3a27.37,27.37,0,0,0-6-4.37c-.66,6.28-2.43,9.07-4.19,11.39l-2.75-2.69c2.84-3.86,3.59-7.26,3.68-15h-1.91V91.09l-1.77,2.6a26.69,26.69,0,0,1-2.18-4.78v22.6h-3.45V90.39a40.32,40.32,0,0,1-3.76,10.56l-2-4.55A42.18,42.18,0,0,0,1128,80.86h-4.75V77.33h5v-9h3.45v9h3.67v3.53h-3.67V83a29.55,29.55,0,0,0,4.28,7.63l0,0h13.54a143.79,143.79,0,0,1-1.68-22.33h3.72a144.19,144.19,0,0,0,.75,15.21h1c1.16-1.21,2.84-3.31,3.54-4.14a38.37,38.37,0,0,0-4.89-4.89Zm-8.5,8.18a33.47,33.47,0,0,1,2.42,7.07l-2.84,1c-.19-.93-.28-1.35-.46-2-1.64.18-9.49.78-9.92.83l-.41-2.92a7.43,7.43,0,0,0,1.3-.05c.61-.65,1.67-1.86,3.91-4.65a55.48,55.48,0,0,0-5.31-5.07l2-2.19c.55.42.69.51,1.11.84a31.5,31.5,0,0,0,3.63-5.07l2.83,1.07a38.13,38.13,0,0,1-4.41,5.86,27.42,27.42,0,0,1,2,2.14,47.74,47.74,0,0,0,3.53-4.89l2.47,1.59c-2.33,3.25-6.33,8.23-8.19,10.28,1.63-.05,2.79-.1,4.65-.24a16.6,16.6,0,0,0-1-2.56ZM1157.45,86c-1.73.15-3.16.24-4.89.38.15,1.16.42,3,.61,4.28h6.65c-.56-.38-2.46-1.63-4-2.47Z"/><path class="cls-1" d="M1184.78,95.05a44.91,44.91,0,0,1-3.5-6.1v22.46h-3.67V89.88a39.27,39.27,0,0,1-5.21,11.3l-1.67-4.93c2.83-3.71,5.16-8.09,6.65-15.35h-5.77V77.46h6V68.35h3.67v9.11h4.8V80.9h-4.8v1.73a30.84,30.84,0,0,0,5.68,9Zm13.62-9.17h-12.84V83.05h7.21v-3.4H1188V77h4.74V74h-6.13V71.14h6.13V68.35h3.35v2.79h8V68.35h3.39v2.79h6V74h-6v3H1212v2.65h-4.51v3.4h7.12v2.83h-13v2.84h10.18v12.14h2.84v2.88h-2.84v4.37c0,2.09-.65,3.3-3.53,3.3h-5.58l-.42-3.53,4.7.05c1.25,0,1.44-.24,1.44-1.26v-2.93h-16.65v7.67h-3.35v-7.67h-3.49v-2.88h3.49V88.72h10Zm0,5.58h-6.65v3.3h6.65Zm0,6h-6.65v3.45h6.65ZM1204.12,74h-8v3h8Zm0,5.62h-8v3.4h8Zm-2.51,15.11h6.79v-3.3h-6.79Zm0,6.1h6.79V97.41h-6.79Z"/><path class="cls-1" d="M270.8,148.76v3.91H255.18c-.09,14.46-6.6,20.09-18.93,22.6l-1.72-3.72c10.69-2,16.51-5.63,16.23-18.88H232v-3.91Zm-7.53-12v3.77H236.2v-3.77Zm2.61,3.86a29.93,29.93,0,0,0-2.1-6.79l2.93-.75a28.26,28.26,0,0,1,2.24,6.8Zm5.34-.61a40.94,40.94,0,0,0-2.37-6.88l2.75-.84a34.21,34.21,0,0,1,2.46,6.79Z"/><path class="cls-1" d="M319.82,152.67v4.47H278.51v-4.47Z"/><path class="cls-1" d="M341.42,150.62a56.69,56.69,0,0,1,11.91,7.44,31.82,31.82,0,0,0,6.37-13.76H341.79c-5.44,7.67-10.51,10.74-12.61,11.95l-2.69-3.17a34,34,0,0,0,15.72-18.46l4.47.84a50.18,50.18,0,0,1-2.42,5H364.9c-1.53,8.32-5.81,28.36-32.92,35l-2.37-3.67c8.37-1.73,14.74-4.75,20.83-10.52a54.56,54.56,0,0,0-11.81-7.72Z"/><path class="cls-1" d="M401.48,134.77h4.33v9.16h8.33v4h-8.33v5.21c0,3.77-1,11.35-6.37,15.91-5.12,4.33-12.05,5.49-15.49,6.05l-1.72-4c9.72-1.26,19.25-4.47,19.25-18v-5.26H385.07v12.79h-4.32V147.92h-8.19v-4h8.19V135h4.32v8.93h16.41Z"/><path class="cls-1" d="M445.05,175.36h-4.46v-23a97.57,97.57,0,0,1-18.65,9.35l-2.56-3.59c6.69-2.36,23.25-9.11,34.55-23.2l4.1,2.74a123.17,123.17,0,0,1-13,11.58Z"/><path class="cls-1" d="M503.68,139v4.05h-15V167.6h17.63v4.09H466.75V167.6h17.4V143.09H469.4V139Z"/><path class="cls-1" d="M527.8,148.48c-3.82-3-10.88-5.86-14.28-6.83l2.09-3.72a61.12,61.12,0,0,1,14.79,6.51Zm-14,20.84c13.12-.93,27.63-4.93,34.89-28.28l4.18,1.86c-3.72,10.7-9.76,28.09-37.43,31Z"/><path class="cls-1" d="M557.31,171.23c7.82-3.12,21.4-12,27.77-29.82H559.73v-4H590.8a53.62,53.62,0,0,1-9.21,19.39,198.56,198.56,0,0,1,16.19,14.37l-3.45,3.44c-2.6-2.93-6-6.6-15.25-14.65a52.33,52.33,0,0,1-19.21,14.7Z"/><path class="cls-1" d="M644.64,145.65H635v12.23h11.25v3.77H603.06v-3.77h11.35V145.65h-9.77v-3.77h9.77V133.6h3.81v8.28H631.1V133.6H635v8.28h9.67Zm-25.12,20.09a39.1,39.1,0,0,1-12.83,11.16l-2.93-3.25c5.86-2.93,8.56-5.07,12.37-9.77Zm11.58-20.09H618.22v12.23H631.1Zm11.54,31.25A49.41,49.41,0,0,1,630,165.83l3.16-2.14a43.46,43.46,0,0,0,12.33,9.86Z"/><path class="cls-1" d="M692.71,172.49c0,2.78-1.12,4.13-4.7,4.13h-6.65l-.65-4,6.42,0c1,0,1.63,0,1.63-1.48V138.81H657.22v37.81h-4V135.18h39.44Zm-6.14-29.26v3.39H659.32v-3.39Zm-3,7.76v17H662.2V151Zm-3.62,3.4h-14v10.28h14Z"/><path class="cls-1" d="M713.9,146h8.33v3.63H714a38,38,0,0,0,7.63,10.1l-2.06,3.39a33.75,33.75,0,0,1-5.67-8.33v22H710V155.46a40.4,40.4,0,0,1-8.79,12.79L699.35,164a45.34,45.34,0,0,0,10.18-14.42h-9.72V146H710v-6.74c-3.21.37-6.38.61-8.84.74l-.79-3.54c1.86-.09,12.51-.46,20.32-3l1.64,3.35a57.7,57.7,0,0,1-8.38,1.9Zm15.4,21.11h-4V137h4Zm12.28,5.54c0,3.53-2.75,4-4.29,4H730l-.84-4.14,6.7.14c1.39,0,1.67-.09,1.67-1.4V133.56h4.1Z"/><path class="cls-1" d="M788.67,172.76c0,3.39-2.1,3.91-3.68,3.91h-6.28l-.47-3.86,5.45.09c.79,0,1.07-.56,1.07-1.26v-9.39H772.2v14h-3.67v-14h-12c-.83,6.74-3.39,11.49-6,14.32l-2.65-3.39a18.37,18.37,0,0,0,3.72-6.61,39.53,39.53,0,0,0,1.49-9.62V135.51h35.58Zm-20.14-22.19H757v5.77a23.52,23.52,0,0,1-.05,2.42h11.63Zm0-11.43H757V147h11.58Zm16.23,0H772.2V147h12.56Zm0,11.43H772.2v8.19h12.56Z"/><path class="cls-1" d="M838.6,140h-6.74v14.51h7.63v3.21h-9.17a24.62,24.62,0,0,0,9.58,7.49l-2,3.25a32.59,32.59,0,0,1-11.81-10.74h-16A29.5,29.5,0,0,1,798,168.43l-1.9-3.21a23.28,23.28,0,0,0,9.76-7.53h-9.34v-3.21h7.81V140h-6.75v-3.25h6.75v-3.16h3.77v3.16H828v-3.16h3.82v3.16h6.74Zm-22.42,31.72v-5.44H806V163h10.19v-3.82H820V163h10.32v3.25H820v5.44h17.86V175H798.27v-3.35ZM828,140h-19.9v3H828Zm0,5.68h-19.9v2.83H828Zm0,5.58h-19.9v3.25H828Z"/><path class="cls-1" d="M856.39,155.41h-2.74v-6.28c-.47.05-2.52.19-2.94.24-.41,7.77-2.74,10.78-3.81,12.18l-2.7-2.79c2-2.7,2.79-4.79,3.21-9.16-1.21.05-1.62.09-2.51.14l-.09-3.12c2,0,2.18,0,2.74-.09v-9.9H853c.09-.29.61-2.1.88-3.17l3.82.1a26,26,0,0,1-1.07,3.07h6.51v8.64c.74,0,.93-.09,1.82-.18V148c-1.26.19-1.4.19-1.82.23V157c0,2.14-1,3.16-3.44,3.16h-4l-.83-3.44,3.77.05c.79,0,1.25,0,1.25-1.21v-6.89l-3.58.33Zm31.49,20h-43V172h3.81v-9.86h35.21V172h4Zm-37-29c2.27-.14,3-.19,9.11-.75v-6.09h-9.11Zm8.42,19h-6.89V172h6.89Zm-3.77-19.81a33.21,33.21,0,0,0-3-3.82l2.42-1.76a41.56,41.56,0,0,1,3,3.77Zm14.14,19.81h-6.94V172h6.94Zm17-4.56A43.17,43.17,0,0,1,875.83,157a43.48,43.48,0,0,1-10.09,3.81l-1.68-3.39a31.56,31.56,0,0,0,8.47-2.47,25,25,0,0,1-4.7-4.33l2.79-1.76a21.57,21.57,0,0,0,5.16,4.42,22.7,22.7,0,0,0,5.31-4.56H866.3v-2.88h19.21v2.88a25.66,25.66,0,0,1-6.38,6.28,35.76,35.76,0,0,0,9.16,2.28ZM882,139.64c0,.7.09,1.08.84,1.08h.88c.51,0,1.07,0,1.26-3.49L888,138c-.33,3.3-.94,5.53-3.4,5.53H880.9c-1.91,0-2.42-1.06-2.42-2.32v-3.68h-6.32c-.47,3.08-1.44,5-5.26,7L865,142c3.16-1.73,3.71-3.3,3.81-7.45H882Zm-1.72,25.68h-7.12V172h7.12Z"/><path class="cls-1" d="M920.28,133.92a22.35,22.35,0,0,1-1.77,4.42h17.63v3.45H916.37a30.77,30.77,0,0,1-5.49,6l-2.37-2.89a21.61,21.61,0,0,0,1.91-1.58h-9.35v6.14h8.28c-.09,11.67-.38,22.23-1.63,25.07-.47,1-1.26,2-4.47,2h-3.57l-.7-3.72h3.67c.84,0,1.58,0,2-1.25.56-1.77,1-12.56,1-18.56h-4.6v.89c0,8.78-1.54,16.41-5.72,22.46l-2.65-3.07c1.72-2.74,4.83-7.67,4.83-19.44V143.32h-4.18v-3.58H900v-6.09h3.77v6.09h6.7v3.49a26.28,26.28,0,0,0,6.09-9.81Zm2,16.7V143.7h3.48v6l8.79-2.23c-.13,12.51-.13,13.85-.56,15.3-.36,1.25-1.11,2.28-3.9,2.28h-2.83l-.52-3.54,2.61,0c.78,0,1.39-.19,1.53-1.68.14-1.16.14-5.72.14-7.85l-5.26,1.3v15.06h-3.48V154.25l-4.79,1.21V170c0,2,.7,2.27,2.32,2.27h9.86c2.19,0,2.88,0,2.88-5.72l3.68,1.07c-.37,6.51-.93,8.19-5,8.19H918.37c-2.37,0-4.46-.56-4.46-3.72V156.29l-2.8.7-.6-3.35,3.4-.88v-6.55h3.58v5.62Z"/><path class="cls-1" d="M959,141.46v3.35H941.51v-3.35Zm-1.57-6.56v3.3H943v-3.3Zm0,13.12v3.35H943V148Zm0,6.61V158H943v-3.34Zm0,6.69v13.26h-11v2.09H943V161.32Zm-3.4,3.12H946.4v6.93H954Zm29.67,12.23a39.36,39.36,0,0,1-12.09-5.91,33.33,33.33,0,0,1-12.14,5.91l-2-3.63a29.83,29.83,0,0,0,11.11-4.7,25.19,25.19,0,0,1-6.37-9l3.16-1.34a22.06,22.06,0,0,0,6,8.09,28.33,28.33,0,0,0,6.55-9.16H960.2v-3.67h21.68v3.62a30.08,30.08,0,0,1-7.44,11.4,40.55,40.55,0,0,0,11,4.69Zm-5.77-41.77v10.28a1.06,1.06,0,0,0,1.12,1.21h1.07c.65,0,.93-.28,1.12-1a45.72,45.72,0,0,0,.55-5.07l3.49.85c-.14,8.6-2.46,8.88-4.14,8.88h-3.72a2.74,2.74,0,0,1-3.12-3v-8.56h-7.43c-.42,7-1.72,9.86-5.45,12.84l-2.78-2.84c3.3-2.09,4.64-6,4.64-11.49,0-.83,0-1.39,0-2.09Z"/><rect class="cls-2" x="112.16" y="64.06" width="13.14" height="52.05"/><rect class="cls-2" x="144.01" y="76.44" width="10.53" height="52.05"/><rect class="cls-2" x="128.98" y="70.25" width="11.95" height="52.05"/><rect class="cls-2" x="93.8" y="57.86" width="14.06" height="52.05"/><rect class="cls-2" x="29.37" y="31.43" width="6.23" height="52.05"/><rect class="cls-2" x="157" y="82.64" width="8.87" height="52.05"/><rect class="cls-2" x="15.94" y="20.53" width="3.33" height="52.07"/><rect class="cls-2" width="1.85" height="52.05"/><rect class="cls-2" x="75.45" y="51.65" width="13.43" height="52.05"/><rect class="cls-2" x="43.59" y="38.96" width="8.87" height="52.05"/><rect class="cls-2" x="58.62" y="45.33" width="11.29" height="52.05"/><rect class="cls-2" x="175.86" y="95.04" width="4.55" height="52.05"/><path class="cls-2" d="M181,101.66v52.06c0-.79,1.66,0,1.66,0V101.66Z"/><rect class="cls-2" x="167.72" y="88.83" width="6.91" height="52.05"/><path class="cls-2" d="M0,153.72a11.66,11.66,0,0,0,2,6.15,29.19,29.19,0,0,0,5.73,6.38,68.69,68.69,0,0,0,8.19,5.92c3.32,2.1,7,4.15,11,6.16,4.18,2.1,8.67,4.15,13.3,6.15,5,2.15,10.16,4.2,15.33,6.15,5.8,2.2,11.61,4.25,17.14,6.15,6.77,2.33,13.15,4.4,18.66,6.16s11.89,3.82,18.67,6.16c5.52,1.89,11.32,3.94,17.13,6.15,5.17,1.95,10.34,4,15.33,6.15,4.63,2,9.12,4,13.29,6.15,4,2,7.71,4.06,11,6.15a67.57,67.57,0,0,1,8.45,6.15,28.54,28.54,0,0,1,5.47,6.15,11.81,11.81,0,0,1,2,6.15V200.1a11.81,11.81,0,0,0-2-6.15,28.54,28.54,0,0,0-5.47-6.15,67.57,67.57,0,0,0-8.45-6.15c-3.32-2.09-7-4.14-11-6.15-4.17-2.11-8.66-4.17-13.29-6.15-5-2.15-10.16-4.2-15.33-6.17C121.33,161,115.53,158.92,110,157c-6.78-2.33-13.16-4.39-18.67-6.16s-11.89-3.83-18.66-6.15c-5.53-1.9-11.34-4-17.14-6.15-5.17-2-10.34-4-15.33-6.15-4.63-2-9.12-4.05-13.3-6.16-4-2-7.7-4-11-6.15a66.55,66.55,0,0,1-8.19-5.94A28.68,28.68,0,0,1,2,107.82a11.67,11.67,0,0,1-2-6.16Z"/><path class="cls-1" d="M182.68,252.15a11.7,11.7,0,0,1-2,6.15,28.77,28.77,0,0,1-5.73,6.38,67.62,67.62,0,0,1-8.19,5.94c-3.33,2.08-7,4.14-11,6.15-4.17,2.11-8.66,4.16-13.29,6.15-5,2.14-10.16,4.2-15.33,6.15-5.81,2.2-11.61,4.26-17.13,6.16-6.78,2.31-13.16,4.39-18.67,6.15s-11.89,3.83-18.66,6.16c-5.53,1.88-11.33,3.95-17.14,6.14-5.17,2-10.34,4-15.33,6.16-4.63,2-9.12,4.05-13.3,6.15-4,2-7.7,4.06-11,6.16a66.57,66.57,0,0,0-8.45,6.15A28.34,28.34,0,0,0,2,344.45a11.64,11.64,0,0,0-2,6.15V298.55a11.64,11.64,0,0,1,2-6.15,28.34,28.34,0,0,1,5.47-6.15,65.61,65.61,0,0,1,8.45-6.15c3.32-2.1,7-4.16,11-6.16,4.18-2.12,8.67-4.17,13.3-6.16,5-2.14,10.16-4.2,15.33-6.15,5.81-2.19,11.61-4.26,17.14-6.15,6.77-2.32,13.15-4.39,18.66-6.15s11.89-3.84,18.67-6.16c5.52-1.89,11.32-4,17.13-6.15,5.17-2,10.34-4,15.33-6.15,4.63-2,9.12-4,13.29-6.15,4-2,7.7-4.07,11-6.15a68.71,68.71,0,0,0,8.19-5.94,28.77,28.77,0,0,0,5.73-6.38,11.7,11.7,0,0,0,2-6.15Z"/><path class="cls-1" d="M182.68,153.72a11.75,11.75,0,0,1-2,6.15,29.45,29.45,0,0,1-5.73,6.38,68.69,68.69,0,0,1-8.19,5.92c-3.33,2.1-7,4.15-11,6.16-4.17,2.1-8.66,4.15-13.29,6.15-5,2.13-10.16,4.2-15.33,6.15-5.81,2.2-11.61,4.25-17.13,6.15-6.78,2.33-13.16,4.4-18.67,6.15s-11.89,3.83-18.66,6.17C67.15,211,61.35,213,55.54,215.25c-5.17,1.95-10.34,4-15.33,6.15-4.63,2-9.12,4-13.3,6.15-4,2-7.7,4.06-11,6.15a67.57,67.57,0,0,0-8.45,6.15A28.58,28.58,0,0,0,2,246a11.72,11.72,0,0,0-2,6.15V200.1A11.66,11.66,0,0,1,2,194a28.58,28.58,0,0,1,5.47-6.15,67.57,67.57,0,0,1,8.45-6.15c3.32-2.09,7-4.14,11-6.15,4.18-2.11,8.67-4.17,13.3-6.15,5-2.15,10.16-4.2,15.33-6.17,5.81-2.19,11.61-4.26,17.14-6.14,6.77-2.33,13.15-4.39,18.66-6.16s11.89-3.83,18.67-6.15c5.52-1.9,11.32-4,17.13-6.15,5.17-2,10.34-4,15.33-6.15,4.63-2,9.12-4.05,13.29-6.16,4-2,7.7-4.07,11-6.15a66.55,66.55,0,0,0,8.19-5.94,28.93,28.93,0,0,0,5.73-6.36,11.76,11.76,0,0,0,2-6.16Z"/><rect class="cls-1" x="57.39" y="64.06" width="13.13" height="52.05"/><rect class="cls-1" x="28.14" y="76.44" width="10.53" height="52.05"/><rect class="cls-1" x="41.75" y="70.25" width="11.95" height="52.05"/><rect class="cls-1" x="74.82" y="57.86" width="14.06" height="52.05"/><rect class="cls-1" x="147.08" y="31.43" width="6.22" height="52.05"/><rect class="cls-1" x="16.81" y="82.64" width="8.87" height="52.05"/><rect class="cls-1" x="163.4" y="20.53" width="3.34" height="52.07"/><rect class="cls-1" x="180.84" width="1.85" height="52.05"/><rect class="cls-1" x="93.8" y="51.65" width="13.43" height="52.05"/><rect class="cls-1" x="130.21" y="38.96" width="8.88" height="52.05"/><rect class="cls-1" x="112.77" y="45.33" width="11.29" height="52.05"/><rect class="cls-1" x="2.28" y="95.04" width="4.55" height="52.05"/><path class="cls-1" d="M1.66,101.66v52.06c0-.79-1.66,0-1.66,0V101.66Z"/><rect class="cls-1" x="8.06" y="88.83" width="6.9" height="52.05"/></g></g></svg>