<svg xmlns="http://www.w3.org/2000/svg" viewBox="0 0 1493.29 351.33"><defs><style>.cls-1{fill:#003e8d;}.cls-2{fill:#95b8bb;}</style></defs><title>アセット 1</title><g id="レイヤー_2" data-name="レイヤー 2"><g id="レイヤー_1-2" data-name="レイヤー 1"><path class="cls-1" d="M254,19.69h40c40.16,0,72.16,24.82,72.16,66.53,0,45.38-27.54,68.85-72.16,68.85H254ZM273.38,138h20.36c33.36,0,51.79-16.1,51.79-51,0-31.61-21.53-50.23-49.46-50.23H273.38Z"/><path class="cls-1" d="M394,19.69H430.7c28.12,0,47.52,9.12,47.52,34.13,0,18.62-10.87,27.93-27.93,32.21v.38C468.71,88,481.71,100,481.71,119c0,29.1-24.06,36.08-51.59,36.08H394Zm19.4,57.8H424.1c18.82,0,34.72-1.74,34.72-21.72,0-16.1-13.77-20.18-25-20.18H413.44Zm0,61.67H428c17.45,0,33.17-3.68,33.17-21.91,0-21-18.43-23.86-35.11-23.86h-12.6Z"/><path class="cls-1" d="M607.21,42a54.54,54.54,0,0,0-27.93-7.56c-31.22,0-52,22.5-52,53,0,31.81,22.88,53,51,53,9.7,0,22.7-2.52,29.48-6.59L609,152.55c-10.27,4.26-22.88,4.85-30.83,4.85-42.86,0-71.37-27.55-71.37-70.6,0-41.7,30.25-69.43,71.56-69.43,10.48,0,20.75,1.55,30.45,5.81Z"/><path class="cls-1" d="M632.06,19.69h19.39V138h56.64v17.07h-76Z"/><path class="cls-1" d="M790.73,40.06c-9.89-3.88-15.32-5.63-25.41-5.63-10.86,0-23.66,3.88-23.66,18,0,26,58.19,20,58.19,64.59,0,28.89-22.31,40.34-49.46,40.34-9.51,0-18.82-2.72-27.74-5.63l1.94-18c6.59,2.71,18.24,6.59,28.13,6.59,11,0,26.56-6.21,26.56-22.11,0-30.26-58.18-21.92-58.18-64,0-24,19-36.84,43.45-36.84a90.54,90.54,0,0,1,28.9,4.84Z"/><rect class="cls-2" x="112.4" y="64.19" width="13.16" height="52.16"/><rect class="cls-2" x="144.31" y="76.6" width="10.56" height="52.16"/><rect class="cls-2" x="129.25" y="70.4" width="11.97" height="52.16"/><rect class="cls-2" x="94" y="57.98" width="14.08" height="52.16"/><rect class="cls-2" x="29.43" y="31.49" width="6.24" height="52.17"/><rect class="cls-2" x="157.33" y="82.81" width="8.89" height="52.16"/><rect class="cls-2" x="15.98" y="20.57" width="3.34" height="52.16"/><rect class="cls-2" width="1.85" height="52.16"/><rect class="cls-2" x="75.6" y="51.76" width="13.46" height="52.16"/><rect class="cls-2" x="43.69" y="39.04" width="8.88" height="52.16"/><rect class="cls-2" x="58.74" y="45.43" width="11.31" height="52.16"/><rect class="cls-2" x="176.22" y="95.24" width="4.56" height="52.16"/><path class="cls-2" d="M181.4,101.87V154c0-.78,1.66,0,1.66,0V101.87Z"/><rect class="cls-2" x="168.07" y="89.02" width="6.92" height="52.16"/><path class="cls-2" d="M0,154a11.69,11.69,0,0,0,2,6.18,28.75,28.75,0,0,0,5.74,6.37,65.37,65.37,0,0,0,8.21,5.95c3.32,2.09,7.05,4.16,11,6.17,4.19,2.11,8.68,4.16,13.32,6.16,5,2.14,10.19,4.21,15.36,6.16,5.82,2.2,11.63,4.27,17.18,6.17,6.78,2.32,13.18,4.41,18.7,6.16s11.92,3.84,18.71,6.18c5.54,1.89,11.35,3.95,17.16,6.15,5.18,2,10.36,4,15.36,6.18,4.65,2,9.14,4,13.34,6.16,4,2,7.71,4.07,11,6.17a66.73,66.73,0,0,1,8.46,6.16,27.89,27.89,0,0,1,5.48,6.16,11.68,11.68,0,0,1,2,6.17V200.52a11.66,11.66,0,0,0-2-6.17,27.89,27.89,0,0,0-5.48-6.16,65.77,65.77,0,0,0-8.46-6.16c-3.33-2.1-7-4.15-11-6.17-4.2-2.12-8.69-4.18-13.34-6.16-5-2.15-10.18-4.22-15.36-6.18-5.81-2.2-11.62-4.26-17.16-6.16-6.79-2.33-13.19-4.4-18.71-6.17s-11.92-3.84-18.7-6.16c-5.55-1.9-11.36-4-17.18-6.16-5.17-2-10.35-4-15.36-6.17-4.64-2-9.13-4-13.32-6.16-4-2-7.72-4.08-11-6.17a65.37,65.37,0,0,1-8.21-6A28.38,28.38,0,0,1,2,108a11.57,11.57,0,0,1-2-6.16Z"/><path class="cls-1" d="M183.06,252.68a11.57,11.57,0,0,1-2,6.16,28.38,28.38,0,0,1-5.74,6.39,68.23,68.23,0,0,1-8.21,5.95c-3.33,2.09-7,4.16-11,6.17-4.19,2.11-8.68,4.16-13.33,6.16-5,2.14-10.18,4.21-15.35,6.17-5.82,2.19-11.63,4.26-17.17,6.16-6.8,2.32-13.19,4.41-18.71,6.16s-11.92,3.84-18.71,6.17c-5.54,1.9-11.34,4-17.17,6.16-5.17,2-10.35,4-15.36,6.17-4.64,2-9.13,4.05-13.32,6.16-4,2-7.72,4.08-11,6.18A66.62,66.62,0,0,0,7.45,339,28.48,28.48,0,0,0,2,345.17a11.67,11.67,0,0,0-2,6.16V299.17A11.67,11.67,0,0,1,2,293a28.25,28.25,0,0,1,5.48-6.17,69.71,69.71,0,0,1,8.47-6.18c3.33-2.08,7-4.15,11-6.16,4.19-2.11,8.68-4.17,13.32-6.16,5-2.14,10.19-4.21,15.36-6.17,5.83-2.19,11.63-4.26,17.17-6.16,6.79-2.32,13.19-4.41,18.71-6.16s11.91-3.85,18.71-6.17c5.54-1.9,11.35-4,17.17-6.16,5.17-2,10.35-4,15.35-6.17,4.65-2,9.14-4,13.33-6.16,4-2,7.71-4.08,11-6.17a68.23,68.23,0,0,0,8.21-6,28.38,28.38,0,0,0,5.74-6.39,11.6,11.6,0,0,0,2-6.16Z"/><path class="cls-1" d="M183.06,154a11.69,11.69,0,0,1-2,6.18,28.75,28.75,0,0,1-5.74,6.37,67.16,67.16,0,0,1-8.21,5.95c-3.33,2.09-7,4.16-11,6.17-4.19,2.11-8.68,4.16-13.33,6.16-5,2.14-10.18,4.21-15.35,6.16-5.82,2.2-11.63,4.27-17.17,6.17-6.8,2.32-13.19,4.41-18.71,6.16s-11.92,3.84-18.71,6.18c-5.54,1.89-11.34,3.95-17.17,6.15-5.17,2-10.35,4-15.36,6.18-4.64,2-9.13,4-13.32,6.16-4,2-7.72,4.07-11,6.17a67.61,67.61,0,0,0-8.47,6.16A28.68,28.68,0,0,0,2,246.51a11.73,11.73,0,0,0-2,6.17V200.52a11.73,11.73,0,0,1,2-6.17,28.68,28.68,0,0,1,5.48-6.16A66.62,66.62,0,0,1,15.92,182c3.33-2.1,7-4.15,11-6.17,4.19-2.12,8.68-4.18,13.32-6.18,5-2.13,10.19-4.2,15.36-6.16,5.83-2.2,11.63-4.26,17.17-6.16C79.61,155,86,153,91.53,151.19s11.91-3.84,18.71-6.16c5.54-1.9,11.35-4,17.17-6.16,5.17-2,10.35-4,15.35-6.17,4.65-2,9.14-4,13.33-6.16,4-2,7.71-4.08,11-6.17a68.23,68.23,0,0,0,8.21-6,28.38,28.38,0,0,0,5.74-6.39,11.57,11.57,0,0,0,2-6.16Z"/><rect class="cls-1" x="57.5" y="64.19" width="13.16" height="52.16"/><rect class="cls-1" x="28.2" y="76.6" width="10.56" height="52.16"/><rect class="cls-1" x="41.84" y="70.4" width="11.97" height="52.16"/><rect class="cls-1" x="74.98" y="57.98" width="14.08" height="52.16"/><rect class="cls-1" x="147.39" y="31.49" width="6.24" height="52.17"/><rect class="cls-1" x="16.84" y="82.81" width="8.89" height="52.16"/><rect class="cls-1" x="163.75" y="20.57" width="3.34" height="52.16"/><rect class="cls-1" x="181.21" width="1.85" height="52.16"/><rect class="cls-1" x="94" y="51.76" width="13.46" height="52.16"/><rect class="cls-1" x="130.49" y="39.04" width="8.88" height="52.16"/><rect class="cls-1" x="113.01" y="45.43" width="11.32" height="52.16"/><rect class="cls-1" x="2.28" y="95.24" width="4.56" height="52.16"/><path class="cls-1" d="M1.67,101.87V154c0-.78-1.67,0-1.67,0V101.87Z"/><rect class="cls-1" x="8.07" y="89.02" width="6.92" height="52.16"/><path class="cls-1" d="M258.9,177.6h10.47c10.52,0,18.91,6.5,18.91,17.43,0,11.88-7.22,18-18.91,18H258.9Zm5.08,31h5.35c8.73,0,13.56-4.21,13.56-13.36,0-8.28-5.64-13.16-13-13.16H264Z"/><path class="cls-1" d="M298,189a16.55,16.55,0,0,1,8.54-2.44c7.42,0,10.41,3.66,10.41,10.72V208a38.59,38.59,0,0,0,.21,5.08H312.7v-3.35h-.11a9.59,9.59,0,0,1-8,4c-5.59,0-9.51-2.43-9.51-8.07,0-6.51,7.12-8.54,12.05-8.54,1.88,0,3.19,0,5.08.1,0-4.47-1.63-6.76-6.41-6.76a12.17,12.17,0,0,0-7.51,2.64Zm14.18,11.73c-1,0-2-.09-3.05-.09-2.59,0-9,.4-9,5,0,2.74,2.65,4.21,4.83,4.21,4.73,0,7.22-2.95,7.22-6.81Z"/><path class="cls-1" d="M340.17,191h-6.86v14.18c0,3,1.83,4.62,4,4.62a6,6,0,0,0,3.25-.91V213a14.79,14.79,0,0,1-4.07.71c-4.93,0-8-2.34-8-7.51V191h-5.84v-3.86h5.84v-6l4.78-1.52v7.52h6.86Z"/><path class="cls-1" d="M347.73,189a16.53,16.53,0,0,1,8.54-2.44c7.41,0,10.41,3.66,10.41,10.72V208a38.59,38.59,0,0,0,.21,5.08h-4.48v-3.35h-.1a9.61,9.61,0,0,1-8,4c-5.59,0-9.5-2.43-9.5-8.07,0-6.51,7.11-8.54,12-8.54,1.88,0,3.2,0,5.08.1,0-4.47-1.62-6.76-6.4-6.76A12.22,12.22,0,0,0,348,193Zm14.17,11.73c-1,0-2-.09-3-.09-2.59,0-9,.4-9,5,0,2.74,2.64,4.21,4.83,4.21,4.72,0,7.21-2.95,7.21-6.81Z"/><path class="cls-1" d="M376.12,175h4.77V190.7h.1c1.48-2.38,4.07-4.16,8.59-4.16,7.52,0,11.18,6.15,11.18,13.11s-3.3,14-11.13,14a10.43,10.43,0,0,1-8.84-4.26h-.1v3.65h-4.57Zm12.45,15.45c-5.19,0-7.68,4.93-7.68,9.75,0,4.33,2.23,9.66,7.63,9.66,5.13,0,7.26-5.74,7.16-9.8C395.78,195.33,393.74,190.4,388.57,190.4Z"/><path class="cls-1" d="M409.74,189a16.49,16.49,0,0,1,8.53-2.44c7.42,0,10.42,3.66,10.42,10.72V208a41.54,41.54,0,0,0,.2,5.08h-4.47v-3.35h-.1a9.61,9.61,0,0,1-8,4c-5.59,0-9.5-2.43-9.5-8.07,0-6.51,7.11-8.54,12-8.54,1.88,0,3.2,0,5.08.1,0-4.47-1.63-6.76-6.4-6.76A12.22,12.22,0,0,0,410,193Zm14.17,11.73c-1,0-2-.09-3-.09-2.6,0-9,.4-9,5,0,2.74,2.64,4.21,4.82,4.21,4.73,0,7.22-2.95,7.22-6.81Z"/><path class="cls-1" d="M436.19,208a12.81,12.81,0,0,0,5.95,1.83c2.18,0,4.88-.91,4.88-3.71,0-4.73-11.23-4.32-11.23-11.58,0-5.39,4-8,9.14-8a19.92,19.92,0,0,1,5.95,1l-.41,4.16a14,14,0,0,0-5-1.32c-2.44,0-4.57,1-4.57,3.15,0,5.29,11.23,3.76,11.23,12,0,5.53-4.42,8.07-9.05,8.07a14.87,14.87,0,0,1-7.11-1.42Z"/><path class="cls-1" d="M478.11,212a19.72,19.72,0,0,1-8.19,1.68c-9.19,0-13.41-5.59-13.41-14,0-7.67,4.83-13.11,12.14-13.11,8.64,0,11.44,6.3,11.44,14.63h-18.5a8.49,8.49,0,0,0,8.54,8.64,15.29,15.29,0,0,0,8-2.59ZM475,197.62c0-4-2.33-7.22-6.44-7.22-4.68,0-6.62,3.86-7,7.22Z"/><path class="cls-1" d="M527.26,183.44a14.24,14.24,0,0,0-7.32-2c-8.17,0-13.61,5.89-13.61,13.87,0,8.33,6,13.87,13.36,13.87a17.47,17.47,0,0,0,7.73-1.73l.3,4.93a22.12,22.12,0,0,1-8.08,1.27c-11.23,0-18.7-7.21-18.7-18.49,0-10.92,7.93-18.19,18.75-18.19a19.52,19.52,0,0,1,8,1.52Z"/><path class="cls-1" d="M554.59,212a19.68,19.68,0,0,1-8.19,1.68c-9.19,0-13.41-5.59-13.41-14,0-7.67,4.83-13.11,12.15-13.11,8.63,0,11.43,6.3,11.43,14.63h-18.5a8.49,8.49,0,0,0,8.54,8.64,15.29,15.29,0,0,0,8-2.59Zm-3.11-14.37c0-4-2.33-7.22-6.44-7.22-4.68,0-6.61,3.86-7,7.22Z"/><path class="cls-1" d="M564.33,187.15H569v4.11h.11c1.42-2.94,4.87-4.72,8.48-4.72,6.71,0,9.7,4.16,9.7,11.13v15.39h-4.77V199.65c0-6.05-1.32-9-5.49-9.25-5.44,0-7.87,4.37-7.87,10.67v12h-4.78Z"/><path class="cls-1" d="M610.5,191h-6.86v14.18c0,3,1.83,4.62,4,4.62a6,6,0,0,0,3.26-.91V213a14.86,14.86,0,0,1-4.07.71c-4.93,0-8-2.34-8-7.51V191H593v-3.86h5.84v-6l4.78-1.52v7.52h6.86Z"/><path class="cls-1" d="M637.72,212a19.68,19.68,0,0,1-8.19,1.68c-9.19,0-13.41-5.59-13.41-14,0-7.67,4.83-13.11,12.14-13.11,8.64,0,11.44,6.3,11.44,14.63H621.2a8.49,8.49,0,0,0,8.54,8.64,15.29,15.29,0,0,0,8-2.59Zm-3.11-14.37c0-4-2.33-7.22-6.44-7.22-4.68,0-6.61,3.86-7,7.22Z"/><path class="cls-1" d="M646.44,187.15h4.48v4H651a7.91,7.91,0,0,1,6.76-4.62,13.75,13.75,0,0,1,3.16.35v4.27a7.23,7.23,0,0,0-2.65-.46c-4.27,0-7.06,4.07-7.06,10.57v11.79h-4.78Z"/><path class="cls-1" d="M686.16,191h-6.1v-3.86h6.1v-2.39c0-6.3,1.63-10.42,8.69-10.42a19.6,19.6,0,0,1,3.19.31l-.19,3.86a7.39,7.39,0,0,0-2.29-.3c-4.12,0-4.63,2.64-4.63,6.15v2.79h6.87V191h-6.87v22.05h-4.77Z"/><path class="cls-1" d="M715.67,186.54c7.87,0,13.16,5.69,13.16,13.57,0,7.41-5.39,13.56-13.16,13.56s-13.21-6.15-13.21-13.56C702.46,192.23,707.74,186.54,715.67,186.54Zm0,23.27c5.59,0,8.08-5.08,8.08-9.7,0-4.93-3-9.71-8.08-9.71s-8.13,4.78-8.13,9.71C707.54,204.73,710,209.81,715.67,209.81Z"/><path class="cls-1" d="M736.59,187.15h4.47v4h.1a7.88,7.88,0,0,1,6.76-4.62,13.72,13.72,0,0,1,3.15.35v4.27a7.21,7.21,0,0,0-2.64-.46c-4.28,0-7.07,4.07-7.07,10.57v11.79h-4.77Z"/><path class="cls-1" d="M773.61,177.6h5.08v31h14.84v4.47H773.61Z"/><path class="cls-1" d="M805.66,181.36h-5.39V176h5.39Zm-5.08,5.79h4.77v25.91h-4.77Z"/><path class="cls-1" d="M818.55,191h-6.09v-3.86h6.09v-2.39c0-6.3,1.63-10.42,8.7-10.42a19.6,19.6,0,0,1,3.19.31l-.2,3.86a7.33,7.33,0,0,0-2.28-.3c-4.12,0-4.63,2.64-4.63,6.15v2.79h6.86V191h-6.86v22.05h-4.78Z"/><path class="cls-1" d="M856.45,212a19.66,19.66,0,0,1-8.18,1.68c-9.2,0-13.41-5.59-13.41-14,0-7.67,4.82-13.11,12.14-13.11,8.64,0,11.43,6.3,11.43,14.63H839.94a8.48,8.48,0,0,0,8.53,8.64,15.26,15.26,0,0,0,8-2.59Zm-3.1-14.37c0-4-2.33-7.22-6.45-7.22-4.68,0-6.61,3.86-7,7.22Z"/><path class="cls-1" d="M898.25,182.93a15.77,15.77,0,0,0-6.66-1.47c-2.85,0-6.2,1-6.2,4.72,0,6.81,15.24,5.24,15.24,16.92,0,7.58-5.84,10.57-13,10.57a23.76,23.76,0,0,1-7.26-1.47l.51-4.73a21.25,21.25,0,0,0,7.36,1.73c2.9,0,7-1.63,7-5.79,0-7.92-15.25-5.74-15.25-16.77,0-6.3,5-9.65,11.39-9.65a23.68,23.68,0,0,1,7.56,1.26Z"/><path class="cls-1" d="M924.91,191.52a13.89,13.89,0,0,0-5.18-1.12c-5.34,0-8.33,4.78-8.33,9.71,0,4.62,2.48,9.7,8.63,9.7a10,10,0,0,0,5.13-1.47l.36,4.26a14.49,14.49,0,0,1-6,1.07c-7.82,0-13.2-6.15-13.2-13.56,0-7.88,5.27-13.57,13.2-13.57a17.89,17.89,0,0,1,5.8,1Z"/><path class="cls-1" d="M938.06,181.36h-5.39V176h5.39ZM933,187.15h4.77v25.91H933Z"/><path class="cls-1" d="M967.72,212a19.66,19.66,0,0,1-8.18,1.68c-9.2,0-13.41-5.59-13.41-14,0-7.67,4.82-13.11,12.14-13.11,8.64,0,11.43,6.3,11.43,14.63H951.21a8.48,8.48,0,0,0,8.53,8.64,15.26,15.26,0,0,0,8-2.59Zm-3.1-14.37c0-4-2.33-7.22-6.45-7.22-4.68,0-6.61,3.86-7,7.22Z"/><path class="cls-1" d="M977.46,187.15h4.62v4.11h.11c1.42-2.94,4.87-4.72,8.48-4.72,6.71,0,9.71,4.16,9.71,11.13v15.39H995.6V199.65c0-6.05-1.32-9-5.48-9.25-5.44,0-7.88,4.37-7.88,10.67v12h-4.78Z"/><path class="cls-1" d="M1026.32,191.52a13.89,13.89,0,0,0-5.18-1.12c-5.33,0-8.33,4.78-8.33,9.71,0,4.62,2.49,9.7,8.64,9.7a10.05,10.05,0,0,0,5.13-1.47l.36,4.26a14.55,14.55,0,0,1-6,1.07c-7.83,0-13.21-6.15-13.21-13.56,0-7.88,5.28-13.57,13.21-13.57a17.82,17.82,0,0,1,5.79,1Z"/><path class="cls-1" d="M1053.65,212a19.68,19.68,0,0,1-8.19,1.68c-9.19,0-13.41-5.59-13.41-14,0-7.67,4.83-13.11,12.15-13.11,8.63,0,11.43,6.3,11.43,14.63h-18.5a8.49,8.49,0,0,0,8.54,8.64,15.29,15.29,0,0,0,8-2.59Zm-3.11-14.37c0-4-2.33-7.22-6.44-7.22-4.68,0-6.61,3.86-7,7.22Z"/><path class="cls-1" d="M255.76,262.81a9,9,0,0,0,3.19.51c4.58,0,5.8-2.59,5.8-6.9v-24.7h5.08V258c0,5-2.29,9.76-10,9.76a12,12,0,0,1-4.11-.61Z"/><path class="cls-1" d="M291.37,240.66c7.87,0,13.15,5.7,13.15,13.57,0,7.42-5.38,13.57-13.15,13.57s-13.22-6.15-13.22-13.57C278.15,246.36,283.44,240.66,291.37,240.66Zm0,23.27c5.59,0,8.07-5.08,8.07-9.7,0-4.93-3-9.71-8.07-9.71s-8.14,4.78-8.14,9.71C283.23,258.85,285.73,263.93,291.37,263.93Z"/><path class="cls-1" d="M318,235.48h-5.38V230.1H318Zm-5.08,5.79h4.78v25.92h-4.78Z"/><path class="cls-1" d="M327.77,241.27h4.62v4.12h.1c1.43-2.95,4.88-4.73,8.49-4.73,6.71,0,9.7,4.17,9.7,11.13v15.4h-4.77V253.77c0-6.05-1.32-9-5.49-9.25-5.44,0-7.88,4.37-7.88,10.67v12h-4.77Z"/><path class="cls-1" d="M373.94,245.13h-6.86v14.18c0,3,1.82,4.62,4,4.62a6,6,0,0,0,3.26-.91v4.07a15.25,15.25,0,0,1-4.07.71c-4.93,0-8-2.34-8-7.52V245.13h-5.84v-3.86h5.84v-6l4.78-1.52v7.52h6.86Z"/><path class="cls-1" d="M410.3,237.05a15.7,15.7,0,0,0-6.66-1.47c-2.84,0-6.2,1-6.2,4.73,0,6.8,15.25,5.23,15.25,16.91,0,7.58-5.85,10.58-13,10.58a23.54,23.54,0,0,1-7.27-1.48l.51-4.72a21.6,21.6,0,0,0,7.37,1.72c2.9,0,7-1.63,7-5.79,0-7.92-15.25-5.74-15.25-16.76,0-6.31,5-9.66,11.38-9.66a23.53,23.53,0,0,1,7.57,1.27Z"/><path class="cls-1" d="M443.42,267.19H438.8v-4.12h-.11c-1.42,2.95-4.87,4.73-8.48,4.73-6.71,0-9.71-4.17-9.71-11.14V241.27h4.78v13.42c0,6,1.32,9,5.48,9.24,5.45,0,7.88-4.37,7.88-10.67v-12h4.78Z"/><path class="cls-1" d="M453.92,241.27h4.57v3.66h.1a10.38,10.38,0,0,1,8.79-4.27c7.52,0,11.18,6.15,11.18,13.11,0,7.12-3.3,14-11.13,14-4.57,0-7.16-1.78-8.64-4.17h-.1v14.23h-4.77Zm12.45,3.25c-5.19,0-7.68,4.93-7.68,9.76,0,4.32,2.23,9.65,7.63,9.65,5.13,0,7.26-5.74,7.16-9.8C473.58,249.45,471.54,244.52,466.37,244.52Z"/><path class="cls-1" d="M486.32,241.27h4.57v3.66h.1a10.38,10.38,0,0,1,8.79-4.27c7.52,0,11.18,6.15,11.18,13.11,0,7.12-3.3,14-11.13,14-4.57,0-7.16-1.78-8.64-4.17h-.1v14.23h-4.77Zm12.45,3.25c-5.19,0-7.68,4.93-7.68,9.76,0,4.32,2.23,9.65,7.63,9.65,5.13,0,7.26-5.74,7.16-9.8C506,249.45,503.94,244.52,498.77,244.52Z"/><path class="cls-1" d="M530.21,240.66c7.87,0,13.16,5.7,13.16,13.57,0,7.42-5.39,13.57-13.16,13.57S517,261.65,517,254.23C517,246.36,522.28,240.66,530.21,240.66Zm0,23.27c5.58,0,8.08-5.08,8.08-9.7,0-4.93-3-9.71-8.08-9.71s-8.13,4.78-8.13,9.71C522.08,258.85,524.57,263.93,530.21,263.93Z"/><path class="cls-1" d="M551.12,241.27h4.47v4h.1a7.9,7.9,0,0,1,6.76-4.63,14.33,14.33,0,0,1,3.16.35v4.28a7,7,0,0,0-2.65-.46c-4.27,0-7.06,4.06-7.06,10.57v11.79h-4.78Z"/><path class="cls-1" d="M587,245.13h-6.86v14.18c0,3,1.83,4.62,4,4.62a6,6,0,0,0,3.25-.91v4.07a15.18,15.18,0,0,1-4.07.71c-4.93,0-8-2.34-8-7.52V245.13h-5.85v-3.86h5.85v-6l4.77-1.52v7.52H587Z"/><path class="cls-1" d="M595.31,251.58h13.05v3.87H595.31Z"/><path class="cls-1" d="M643.71,237.56a14.27,14.27,0,0,0-7.32-2c-8.17,0-13.62,5.89-13.62,13.87,0,8.33,6,13.87,13.37,13.87a17.47,17.47,0,0,0,7.73-1.72l.3,4.93a22.12,22.12,0,0,1-8.08,1.27c-11.23,0-18.7-7.22-18.7-18.5,0-10.92,7.93-18.19,18.75-18.19a19.52,19.52,0,0,1,8,1.52Z"/><path class="cls-1" d="M671,266.12a19.83,19.83,0,0,1-8.18,1.68c-9.2,0-13.42-5.59-13.42-14,0-7.67,4.83-13.11,12.15-13.11,8.64,0,11.43,6.31,11.43,14.64h-18.5a8.48,8.48,0,0,0,8.54,8.63,15.26,15.26,0,0,0,8-2.59Zm-3.1-14.38c0-4-2.33-7.22-6.45-7.22-4.68,0-6.61,3.86-7,7.22Z"/><path class="cls-1" d="M680.77,241.27h4.62v4.12h.11c1.42-2.95,4.87-4.73,8.48-4.73,6.71,0,9.7,4.17,9.7,11.13v15.4h-4.77V253.77c0-6.05-1.32-9-5.48-9.25-5.45,0-7.88,4.37-7.88,10.67v12h-4.78Z"/><path class="cls-1" d="M726.94,245.13h-6.85v14.18c0,3,1.82,4.62,4,4.62a6,6,0,0,0,3.26-.91v4.07a15.25,15.25,0,0,1-4.07.71c-4.93,0-8-2.34-8-7.52V245.13h-5.84v-3.86h5.84v-6l4.78-1.52v7.52h6.85Z"/><path class="cls-1" d="M754.17,266.12A19.89,19.89,0,0,1,746,267.8c-9.19,0-13.41-5.59-13.41-14,0-7.67,4.82-13.11,12.14-13.11,8.64,0,11.44,6.31,11.44,14.64h-18.5a8.48,8.48,0,0,0,8.54,8.63,15.29,15.29,0,0,0,8-2.59Zm-3.11-14.38c0-4-2.33-7.22-6.45-7.22-4.67,0-6.61,3.86-7,7.22Z"/><path class="cls-1" d="M763.91,241.27h4.47v4h.1a7.87,7.87,0,0,1,6.76-4.63,14.3,14.3,0,0,1,3.15.35v4.28a7,7,0,0,0-2.64-.46c-4.28,0-7.07,4.06-7.07,10.57v11.79h-4.77Z"/><path class="cls-1" d="M799.56,245.13h-6.09v-3.86h6.09v-2.39c0-6.3,1.63-10.41,8.69-10.41a19.91,19.91,0,0,1,3.2.3l-.2,3.86a7.66,7.66,0,0,0-2.29-.3c-4.12,0-4.63,2.64-4.63,6.15v2.79h6.87v3.86h-6.87v22.06h-4.77Z"/><path class="cls-1" d="M829.07,240.66c7.88,0,13.16,5.7,13.16,13.57,0,7.42-5.38,13.57-13.16,13.57s-13.21-6.15-13.21-13.57C815.86,246.36,821.15,240.66,829.07,240.66Zm0,23.27c5.59,0,8.08-5.08,8.08-9.7,0-4.93-3-9.71-8.08-9.71s-8.13,4.78-8.13,9.71C820.94,258.85,823.44,263.93,829.07,263.93Z"/><path class="cls-1" d="M850,241.27h4.47v4h.1a7.89,7.89,0,0,1,6.76-4.63,14.3,14.3,0,0,1,3.15.35v4.28a7,7,0,0,0-2.64-.46c-4.27,0-7.07,4.06-7.07,10.57v11.79H850Z"/><path class="cls-1" d="M883.71,231.72h10.47c10.51,0,18.9,6.5,18.9,17.43,0,11.89-7.22,18-18.9,18H883.71Zm5.08,31h5.33c8.74,0,13.57-4.22,13.57-13.37,0-8.28-5.64-13.16-13-13.16h-6Z"/><path class="cls-1" d="M922.82,243.1a16.49,16.49,0,0,1,8.53-2.44c7.42,0,10.42,3.66,10.42,10.73v10.72a41.8,41.8,0,0,0,.2,5.08H937.5v-3.36h-.1a9.61,9.61,0,0,1-8,4c-5.59,0-9.5-2.44-9.5-8.08,0-6.51,7.11-8.54,12-8.54,1.88,0,3.2,0,5.08.1,0-4.47-1.63-6.76-6.4-6.76a12.22,12.22,0,0,0-7.52,2.64ZM937,254.84c-1,0-2-.1-3-.1-2.6,0-9,.4-9,5,0,2.74,2.64,4.21,4.82,4.21,4.73,0,7.22-2.94,7.22-6.8Z"/><path class="cls-1" d="M965,245.13h-6.86v14.18c0,3,1.83,4.62,4,4.62a6,6,0,0,0,3.25-.91v4.07a15.17,15.17,0,0,1-4.06.71c-4.94,0-8-2.34-8-7.52V245.13h-5.85v-3.86h5.85v-6l4.77-1.52v7.52H965Z"/><path class="cls-1" d="M975.58,243.1a16.53,16.53,0,0,1,8.54-2.44c7.41,0,10.41,3.66,10.41,10.73v10.72a38.83,38.83,0,0,0,.21,5.08h-4.47v-3.36h-.11a9.61,9.61,0,0,1-8,4c-5.59,0-9.5-2.44-9.5-8.08,0-6.51,7.11-8.54,12-8.54,1.87,0,3.19,0,5.08.1,0-4.47-1.63-6.76-6.41-6.76a12.22,12.22,0,0,0-7.52,2.64Zm14.18,11.74c-1,0-2-.1-3-.1-2.59,0-9,.4-9,5,0,2.74,2.64,4.21,4.83,4.21,4.72,0,7.22-2.94,7.22-6.8Z"/><path class="cls-1" d="M1036,237.05a15.73,15.73,0,0,0-6.66-1.47c-2.84,0-6.2,1-6.2,4.73,0,6.8,15.25,5.23,15.25,16.91,0,7.58-5.85,10.58-13,10.58a23.54,23.54,0,0,1-7.27-1.48l.51-4.72a21.6,21.6,0,0,0,7.37,1.72c2.9,0,7-1.63,7-5.79,0-7.92-15.24-5.74-15.24-16.76,0-6.31,5-9.66,11.38-9.66a23.53,23.53,0,0,1,7.57,1.27Z"/><path class="cls-1" d="M1063.69,245.64a13.8,13.8,0,0,0-5.17-1.12c-5.34,0-8.34,4.78-8.34,9.71,0,4.62,2.49,9.7,8.64,9.7a10,10,0,0,0,5.13-1.47l.35,4.27a14.42,14.42,0,0,1-6,1.07c-7.82,0-13.21-6.15-13.21-13.57,0-7.87,5.28-13.57,13.21-13.57a17.94,17.94,0,0,1,5.8,1Z"/><path class="cls-1" d="M1078.88,235.48h-5.39V230.1h5.39Zm-5.08,5.79h4.77v25.92h-4.77Z"/><path class="cls-1" d="M1109.56,266.12a19.83,19.83,0,0,1-8.18,1.68c-9.2,0-13.41-5.59-13.41-14,0-7.67,4.82-13.11,12.14-13.11,8.64,0,11.44,6.31,11.44,14.64h-18.5a8.47,8.47,0,0,0,8.53,8.63,15.26,15.26,0,0,0,8-2.59Zm-3.1-14.38c0-4-2.33-7.22-6.45-7.22-4.67,0-6.61,3.86-7,7.22Z"/><path class="cls-1" d="M1119.3,241.27h4.62v4.12h.1c1.43-2.95,4.88-4.73,8.48-4.73,6.71,0,9.71,4.17,9.71,11.13v15.4h-4.78V253.77c0-6.05-1.31-9-5.48-9.25-5.44,0-7.88,4.37-7.88,10.67v12h-4.77Z"/><path class="cls-1" d="M1168.16,245.64a13.85,13.85,0,0,0-5.18-1.12c-5.33,0-8.33,4.78-8.33,9.71,0,4.62,2.49,9.7,8.64,9.7a10.05,10.05,0,0,0,5.13-1.47l.36,4.27a14.52,14.52,0,0,1-6,1.07c-7.82,0-13.21-6.15-13.21-13.57,0-7.87,5.28-13.57,13.21-13.57a17.82,17.82,0,0,1,5.79,1Z"/><path class="cls-1" d="M1195.49,266.12a19.83,19.83,0,0,1-8.18,1.68c-9.2,0-13.42-5.59-13.42-14,0-7.67,4.83-13.11,12.15-13.11,8.63,0,11.43,6.31,11.43,14.64H1179a8.48,8.48,0,0,0,8.54,8.63,15.29,15.29,0,0,0,8-2.59Zm-3.1-14.38c0-4-2.34-7.22-6.45-7.22-4.68,0-6.61,3.86-7,7.22Z"/><path class="cls-1" d="M1220.87,231.72h8.69c7,0,13.77,1.12,13.77,9.61,0,4.31-3.21,7.36-7.32,8.07v.1c1.58.61,2.34,1.38,3.46,3.56l6.71,14.13h-5.8l-5.43-12.3c-1.58-3.45-3.26-3.45-6-3.45h-3v15.75h-5.08ZM1226,247h4.32c4.82,0,7.67-2.14,7.67-5.55,0-3.2-2.43-5.23-7.11-5.23H1226Z"/><path class="cls-1" d="M1273,266.12a19.79,19.79,0,0,1-8.18,1.68c-9.19,0-13.41-5.59-13.41-14,0-7.67,4.82-13.11,12.14-13.11,8.64,0,11.44,6.31,11.44,14.64h-18.5a8.48,8.48,0,0,0,8.54,8.63,15.22,15.22,0,0,0,8-2.59Zm-3.1-14.38c0-4-2.33-7.22-6.45-7.22-4.67,0-6.61,3.86-7,7.22Z"/><path class="cls-1" d="M1280.79,262.11a12.9,12.9,0,0,0,6,1.82c2.19,0,4.88-.91,4.88-3.71,0-4.72-11.23-4.31-11.23-11.58,0-5.39,4-8,9.15-8a19.91,19.91,0,0,1,5.94,1l-.4,4.17a14,14,0,0,0-5-1.33c-2.45,0-4.58,1-4.58,3.15,0,5.29,11.23,3.77,11.23,12.05,0,5.53-4.42,8.08-9,8.08a14.88,14.88,0,0,1-7.11-1.43Z"/><path class="cls-1" d="M1323.72,266.12a19.83,19.83,0,0,1-8.18,1.68c-9.2,0-13.41-5.59-13.41-14,0-7.67,4.82-13.11,12.14-13.11,8.64,0,11.43,6.31,11.43,14.64h-18.49a8.47,8.47,0,0,0,8.53,8.63,15.26,15.26,0,0,0,8-2.59Zm-3.1-14.38c0-4-2.33-7.22-6.45-7.22-4.68,0-6.61,3.86-7,7.22Z"/><path class="cls-1" d="M1334.68,243.1a16.55,16.55,0,0,1,8.54-2.44c7.42,0,10.41,3.66,10.41,10.73v10.72a38.83,38.83,0,0,0,.21,5.08h-4.47v-3.36h-.11a9.6,9.6,0,0,1-8,4c-5.59,0-9.5-2.44-9.5-8.08,0-6.51,7.12-8.54,12-8.54,1.88,0,3.19,0,5.08.1,0-4.47-1.63-6.76-6.41-6.76a12.17,12.17,0,0,0-7.51,2.64Zm14.18,11.74c-1,0-2-.1-3-.1-2.59,0-9,.4-9,5,0,2.74,2.65,4.21,4.83,4.21,4.72,0,7.22-2.94,7.22-6.8Z"/><path class="cls-1" d="M1364.08,241.27h4.47v4h.1a7.9,7.9,0,0,1,6.76-4.63,14.4,14.4,0,0,1,3.16.35v4.28a7,7,0,0,0-2.65-.46c-4.27,0-7.06,4.06-7.06,10.57v11.79h-4.78Z"/><path class="cls-1" d="M1401.77,245.64a13.89,13.89,0,0,0-5.18-1.12c-5.34,0-8.33,4.78-8.33,9.71,0,4.62,2.48,9.7,8.63,9.7a10,10,0,0,0,5.13-1.47l.36,4.27a14.49,14.49,0,0,1-6,1.07c-7.82,0-13.2-6.15-13.2-13.57,0-7.87,5.28-13.57,13.2-13.57a17.84,17.84,0,0,1,5.8,1Z"/><path class="cls-1" d="M1409.23,229.08H1414V245h.1a9.53,9.53,0,0,1,8.34-4.32c6.7,0,9.7,4.17,9.7,11.13v15.4h-4.77V253.77c0-6.05-1.32-9-5.49-9.25-5.44,0-7.88,4.37-7.88,10.67v12h-4.77Z"/><path class="cls-1" d="M258.9,284h8.7c7,0,13.76,1.12,13.76,9.6,0,4.32-3.2,7.37-7.32,8.08v.1c1.58.61,2.34,1.38,3.46,3.56l6.71,14.12h-5.79L273,307.15c-1.57-3.46-3.25-3.46-5.94-3.46H264v15.75H258.9ZM264,299.22h4.32c4.83,0,7.68-2.14,7.68-5.54,0-3.2-2.44-5.23-7.12-5.23H264Z"/><path class="cls-1" d="M311,318.37a19.66,19.66,0,0,1-8.18,1.68c-9.2,0-13.41-5.59-13.41-14,0-7.67,4.82-13.11,12.14-13.11,8.64,0,11.43,6.3,11.43,14.64H294.51a8.47,8.47,0,0,0,8.53,8.63,15.26,15.26,0,0,0,8-2.59ZM307.92,304c0-4-2.33-7.22-6.45-7.22-4.68,0-6.61,3.86-7,7.22Z"/><path class="cls-1" d="M318.83,314.36a12.74,12.74,0,0,0,5.94,1.83c2.19,0,4.88-.91,4.88-3.71,0-4.73-11.23-4.31-11.23-11.58,0-5.39,4-8,9.15-8a20,20,0,0,1,5.95,1l-.41,4.16a14.22,14.22,0,0,0-5-1.32c-2.43,0-4.57,1-4.57,3.15,0,5.29,11.23,3.76,11.23,12.05,0,5.53-4.42,8.07-9,8.07a14.91,14.91,0,0,1-7.12-1.42Z"/><path class="cls-1" d="M361.76,318.37a19.68,19.68,0,0,1-8.19,1.68c-9.19,0-13.41-5.59-13.41-14,0-7.67,4.83-13.11,12.14-13.11,8.64,0,11.44,6.3,11.44,14.64h-18.5a8.48,8.48,0,0,0,8.54,8.63,15.29,15.29,0,0,0,8-2.59ZM358.65,304c0-4-2.33-7.22-6.44-7.22-4.68,0-6.61,3.86-7,7.22Z"/><path class="cls-1" d="M372.72,295.36a16.49,16.49,0,0,1,8.53-2.44c7.42,0,10.42,3.66,10.42,10.73v10.71a41.54,41.54,0,0,0,.2,5.08H387.4v-3.35h-.1a9.61,9.61,0,0,1-8,4c-5.59,0-9.5-2.43-9.5-8.07,0-6.51,7.11-8.54,12-8.54,1.88,0,3.2,0,5.08.1,0-4.47-1.63-6.76-6.4-6.76a12.22,12.22,0,0,0-7.52,2.64Zm14.17,11.74c-1,0-2-.1-3-.1-2.6,0-9,.4-9,5,0,2.74,2.64,4.21,4.82,4.21,4.73,0,7.22-2.94,7.22-6.81Z"/><path class="cls-1" d="M401.11,293.53h4.47v4h.1a7.88,7.88,0,0,1,6.75-4.62,13.75,13.75,0,0,1,3.16.35v4.27a7.23,7.23,0,0,0-2.65-.46c-4.27,0-7.06,4.07-7.06,10.58v11.78h-4.77Z"/><path class="cls-1" d="M438.79,297.9a13.85,13.85,0,0,0-5.18-1.12c-5.33,0-8.33,4.78-8.33,9.71,0,4.62,2.49,9.7,8.64,9.7a10.05,10.05,0,0,0,5.13-1.47l.36,4.26a14.36,14.36,0,0,1-6,1.07c-7.83,0-13.21-6.15-13.21-13.56,0-7.88,5.28-13.57,13.21-13.57a17.82,17.82,0,0,1,5.79,1Z"/><path class="cls-1" d="M446.25,281.33H451v15.91h.1a9.5,9.5,0,0,1,8.33-4.32c6.71,0,9.7,4.16,9.7,11.13v15.39h-4.77V306c0-6-1.32-9-5.48-9.25-5.45,0-7.88,4.37-7.88,10.67v12h-4.78Z"/><path class="cls-1" d="M504.77,283.37c10.77,0,17.07,7.82,17.07,18.34,0,10.77-6.25,18.34-17.07,18.34s-17.08-7.57-17.08-18.34C487.69,291.19,494,283.37,504.77,283.37Zm0,32.21c8.18,0,11.68-6.81,11.68-13.87s-3.86-13.92-11.68-13.87-11.69,6.66-11.69,13.87S496.58,315.58,504.77,315.58Z"/><path class="cls-1" d="M528.93,293.53h4.47v4h.1a7.88,7.88,0,0,1,6.76-4.62,13.72,13.72,0,0,1,3.15.35v4.27a7.21,7.21,0,0,0-2.64-.46c-4.28,0-7.07,4.07-7.07,10.58v11.78h-4.77Z"/><path class="cls-1" d="M574,318.33c0,7.87-4.06,12.39-13.37,12.39a26.16,26.16,0,0,1-9.29-1.77l.5-4.43c3.66,1.68,5.85,2.34,9.35,2.34,5,0,8-3.4,8-8.89v-2.54h-.1a10.78,10.78,0,0,1-8.69,4c-7.42,0-11.07-6-11.07-12.75s3.76-13.77,11.58-13.77c4.58,0,7.11,1.68,8.54,4.47h.1v-3.86H574Zm-4.78-11.54c0-5.38-2.49-10-7.57-10-4.83,0-7.21,5.24-7.21,9.66,0,4.87,2.74,9.14,7.21,9.14S569.21,311.62,569.21,306.79Z"/><path class="cls-1" d="M584.69,295.36a16.55,16.55,0,0,1,8.54-2.44c7.42,0,10.41,3.66,10.41,10.73v10.71a38.59,38.59,0,0,0,.21,5.08h-4.47v-3.35h-.11a9.59,9.59,0,0,1-8,4c-5.59,0-9.51-2.43-9.51-8.07,0-6.51,7.12-8.54,12-8.54,1.88,0,3.19,0,5.08.1,0-4.47-1.63-6.76-6.41-6.76a12.17,12.17,0,0,0-7.51,2.64Zm14.18,11.74c-1,0-2-.1-3-.1-2.59,0-9,.4-9,5,0,2.74,2.65,4.21,4.83,4.21,4.73,0,7.22-2.94,7.22-6.81Z"/><path class="cls-1" d="M613.08,293.53h4.62v4.11h.11c1.42-2.94,4.87-4.72,8.48-4.72,6.71,0,9.7,4.16,9.7,11.13v15.39h-4.77V306c0-6-1.32-9-5.48-9.25-5.45,0-7.88,4.37-7.88,10.67v12h-4.78Z"/><path class="cls-1" d="M650.15,287.74h-5.38v-5.39h5.38Zm-5.08,5.79h4.78v25.91h-4.78Z"/><path class="cls-1" d="M659.08,315.28,674,297.39H659.8v-3.86h19.77v4.16l-14.94,17.89h15.5v3.86h-21Z"/><path class="cls-1" d="M690,295.36a16.53,16.53,0,0,1,8.54-2.44c7.41,0,10.41,3.66,10.41,10.73v10.71a38.59,38.59,0,0,0,.21,5.08h-4.47v-3.35h-.11a9.61,9.61,0,0,1-8,4c-5.59,0-9.5-2.43-9.5-8.07,0-6.51,7.11-8.54,12.05-8.54,1.87,0,3.19,0,5.08.1,0-4.47-1.63-6.76-6.41-6.76a12.22,12.22,0,0,0-7.52,2.64Zm14.18,11.74c-1,0-2-.1-3-.1-2.59,0-9,.4-9,5,0,2.74,2.64,4.21,4.83,4.21,4.72,0,7.22-2.94,7.22-6.81Z"/><path class="cls-1" d="M732.12,297.39h-6.85v14.18c0,3,1.82,4.62,4,4.62a5.94,5.94,0,0,0,3.25-.91v4.07a15.2,15.2,0,0,1-4.06.7c-4.93,0-8-2.33-8-7.51V297.39h-5.84v-3.86h5.84v-6l4.78-1.52v7.52h6.85Z"/><path class="cls-1" d="M746.19,287.74H740.8v-5.39h5.39Zm-5.08,5.79h4.77v25.91h-4.77Z"/><path class="cls-1" d="M766.46,292.92c7.87,0,13.15,5.69,13.15,13.57,0,7.41-5.38,13.56-13.15,13.56s-13.22-6.15-13.22-13.56C753.24,298.61,758.53,292.92,766.46,292.92Zm0,23.27c5.59,0,8.07-5.08,8.07-9.7,0-4.93-3-9.71-8.07-9.71s-8.14,4.78-8.14,9.71C758.32,311.11,760.82,316.19,766.46,316.19Z"/><path class="cls-1" d="M786.36,293.53H791v4.11h.11c1.42-2.94,4.87-4.72,8.48-4.72,6.71,0,9.7,4.16,9.7,11.13v15.39H804.5V306c0-6-1.32-9-5.49-9.25-5.44,0-7.88,4.37-7.88,10.67v12h-4.77Z"/><path class="cls-1" d="M840.65,292.92c7.87,0,13.16,5.69,13.16,13.57,0,7.41-5.39,13.56-13.16,13.56s-13.21-6.15-13.21-13.56C827.44,298.61,832.72,292.92,840.65,292.92Zm0,23.27c5.59,0,8.08-5.08,8.08-9.7,0-4.93-3-9.71-8.08-9.71s-8.13,4.78-8.13,9.71C832.52,311.11,835,316.19,840.65,316.19Z"/><path class="cls-1" d="M864.66,297.39h-6.09v-3.86h6.09v-2.39c0-6.3,1.63-10.41,8.7-10.41a19.78,19.78,0,0,1,3.19.3l-.2,3.86a7.66,7.66,0,0,0-2.29-.3c-4.11,0-4.62,2.64-4.62,6.15v2.79h6.86v3.86h-6.86v22.05h-4.78Z"/><path class="cls-1" d="M897.62,284h5.08v35.46h-5.08Z"/><path class="cls-1" d="M912.66,293.53h4.62v4.11h.1c1.43-2.94,4.88-4.72,8.48-4.72,6.71,0,9.71,4.16,9.71,11.13v15.39h-4.78V306c0-6-1.31-9-5.48-9.25-5.44,0-7.88,4.37-7.88,10.67v12h-4.77Z"/><path class="cls-1" d="M948.16,297.39h-6.09v-3.86h6.09v-2.39c0-6.3,1.63-10.41,8.69-10.41a19.91,19.91,0,0,1,3.2.3l-.2,3.86a7.66,7.66,0,0,0-2.29-.3c-4.12,0-4.63,2.64-4.63,6.15v2.79h6.87v3.86h-6.87v22.05h-4.77Z"/><path class="cls-1" d="M976.66,292.92c7.87,0,13.15,5.69,13.15,13.57,0,7.41-5.38,13.56-13.15,13.56s-13.22-6.15-13.22-13.56C963.44,298.61,968.73,292.92,976.66,292.92Zm0,23.27c5.59,0,8.07-5.08,8.07-9.7,0-4.93-3-9.71-8.07-9.71s-8.14,4.78-8.14,9.71C968.52,311.11,971,316.19,976.66,316.19Z"/><path class="cls-1" d="M997.57,293.53H1002v4h.1a7.91,7.91,0,0,1,6.76-4.62,13.72,13.72,0,0,1,3.15.35v4.27a7.18,7.18,0,0,0-2.64-.46c-4.27,0-7.06,4.07-7.06,10.58v11.78h-4.78Z"/><path class="cls-1" d="M1019.66,293.53h4.47v3.76h.1c1.83-3,4.42-4.37,8.23-4.37a7.65,7.65,0,0,1,7.37,5,9.24,9.24,0,0,1,8-5c6.6,0,9,4.27,9,9.91v16.61h-4.78V304c0-3.2-.75-7.22-4.61-7.22-4.89,0-6.81,4.78-6.81,9.61v13.05h-4.79V304c0-3.2-.75-7.22-4.62-7.22-4.88,0-6.8,4.78-6.8,9.61v13.05h-4.78Z"/><path class="cls-1" d="M1067.45,295.36a16.53,16.53,0,0,1,8.54-2.44c7.41,0,10.41,3.66,10.41,10.73v10.71a38.59,38.59,0,0,0,.21,5.08h-4.47v-3.35H1082a9.61,9.61,0,0,1-8,4c-5.59,0-9.5-2.43-9.5-8.07,0-6.51,7.12-8.54,12-8.54,1.87,0,3.19,0,5.08.1,0-4.47-1.63-6.76-6.41-6.76a12.22,12.22,0,0,0-7.52,2.64Zm14.18,11.74c-1,0-2-.1-3.05-.1-2.59,0-9,.4-9,5,0,2.74,2.64,4.21,4.83,4.21,4.72,0,7.22-2.94,7.22-6.81Z"/><path class="cls-1" d="M1108.59,297.39h-6.86v14.18c0,3,1.83,4.62,4,4.62a6,6,0,0,0,3.25-.91v4.07a15.2,15.2,0,0,1-4.06.7c-4.94,0-8-2.33-8-7.51V297.39h-5.85v-3.86H1097v-6l4.77-1.52v7.52h6.86Z"/><path class="cls-1" d="M1121.64,287.74h-5.38v-5.39h5.38Zm-5.08,5.79h4.78v25.91h-4.78Z"/><path class="cls-1" d="M1141.91,292.92c7.87,0,13.15,5.69,13.15,13.57,0,7.41-5.38,13.56-13.15,13.56s-13.22-6.15-13.22-13.56C1128.69,298.61,1134,292.92,1141.91,292.92Zm0,23.27c5.59,0,8.07-5.08,8.07-9.7,0-4.93-3-9.71-8.07-9.71s-8.14,4.78-8.14,9.71C1133.77,311.11,1136.27,316.19,1141.91,316.19Z"/><path class="cls-1" d="M1162.83,293.53h4.62v4.11h.1c1.43-2.94,4.88-4.72,8.48-4.72,6.71,0,9.71,4.16,9.71,11.13v15.39H1181V306c0-6-1.31-9-5.48-9.25-5.44,0-7.88,4.37-7.88,10.67v12h-4.77Z"/><path class="cls-1" d="M1205.84,295.36a16.55,16.55,0,0,1,8.54-2.44c7.42,0,10.41,3.66,10.41,10.73v10.71a38.59,38.59,0,0,0,.21,5.08h-4.47v-3.35h-.11a9.59,9.59,0,0,1-8,4c-5.59,0-9.5-2.43-9.5-8.07,0-6.51,7.12-8.54,12-8.54,1.87,0,3.19,0,5.08.1,0-4.47-1.63-6.76-6.41-6.76a12.17,12.17,0,0,0-7.51,2.64ZM1220,307.1c-1,0-2-.1-3-.1-2.59,0-9,.4-9,5,0,2.74,2.65,4.21,4.83,4.21,4.72,0,7.22-2.94,7.22-6.81Z"/><path class="cls-1" d="M1233.21,293.53h4.62v4.11h.11c1.42-2.94,4.87-4.72,8.48-4.72,6.71,0,9.7,4.16,9.7,11.13v15.39h-4.77V306c0-6-1.32-9-5.49-9.25-5.44,0-7.88,4.37-7.88,10.67v12h-4.77Z"/><path class="cls-1" d="M1282.94,315.79h-.11a10.38,10.38,0,0,1-8.83,4.26c-7.83,0-11.13-6.95-11.13-14s3.65-13.11,11.18-13.11c4.52,0,7.11,1.78,8.58,4.16h.1V281.33h4.78v38.11h-4.57Zm-7.83.4c5.39,0,7.62-5.33,7.62-9.65,0-4.83-2.48-9.76-7.67-9.76s-7.21,4.88-7.11,9.61C1267.85,310.45,1270,316.19,1275.11,316.19Z"/><path class="cls-1" d="M1324,289.31a15.77,15.77,0,0,0-6.66-1.47c-2.85,0-6.2,1-6.2,4.72,0,6.81,15.24,5.24,15.24,16.92,0,7.58-5.84,10.57-13,10.57a23.46,23.46,0,0,1-7.26-1.47l.51-4.73a21.25,21.25,0,0,0,7.36,1.73c2.9,0,7-1.63,7-5.79,0-7.92-15.25-5.74-15.25-16.77,0-6.3,5-9.65,11.39-9.65a23.43,23.43,0,0,1,7.56,1.27Z"/><path class="cls-1" d="M1331.22,326.46a7.46,7.46,0,0,0,2.24.4c4.27,0,5.69-5.89,5.69-6.4a14.74,14.74,0,0,0-.91-2.74l-8.8-24.19h5.24l7,21.44h.1l7.12-21.44h4.82L1344.13,320c-1.78,5-3.65,10.72-10,10.72a15.9,15.9,0,0,1-3.25-.35Z"/><path class="cls-1" d="M1359,314.36a12.81,12.81,0,0,0,6,1.83c2.19,0,4.88-.91,4.88-3.71,0-4.73-11.23-4.31-11.23-11.58,0-5.39,4-8,9.15-8a19.91,19.91,0,0,1,5.94,1l-.4,4.16a14.22,14.22,0,0,0-5-1.32c-2.44,0-4.57,1-4.57,3.15,0,5.29,11.23,3.76,11.23,12.05,0,5.53-4.42,8.07-9.05,8.07a14.87,14.87,0,0,1-7.11-1.42Z"/><path class="cls-1" d="M1396.84,297.39H1390v14.18c0,3,1.82,4.62,4,4.62a6,6,0,0,0,3.26-.91v4.07a15.28,15.28,0,0,1-4.07.7c-4.93,0-8-2.33-8-7.51V297.39h-5.84v-3.86h5.84v-6L1390,286v7.52h6.85Z"/><path class="cls-1" d="M1424.07,318.37a19.66,19.66,0,0,1-8.18,1.68c-9.2,0-13.41-5.59-13.41-14,0-7.67,4.82-13.11,12.14-13.11,8.64,0,11.44,6.3,11.44,14.64h-18.5a8.47,8.47,0,0,0,8.53,8.63,15.26,15.26,0,0,0,8-2.59ZM1421,304c0-4-2.33-7.22-6.45-7.22-4.67,0-6.61,3.86-7,7.22Z"/><path class="cls-1" d="M1432.74,293.53h4.47v3.76h.1c1.83-3,4.42-4.37,8.24-4.37a7.67,7.67,0,0,1,7.37,5,9.21,9.21,0,0,1,8-5c6.61,0,9,4.27,9,9.91v16.61h-4.77V304c0-3.2-.76-7.22-4.62-7.22-4.88,0-6.81,4.78-6.81,9.61v13.05H1449V304c0-3.2-.76-7.22-4.62-7.22-4.88,0-6.81,4.78-6.81,9.61v13.05h-4.78Z"/><path class="cls-1" d="M1477.38,314.36a12.77,12.77,0,0,0,5.94,1.83c2.19,0,4.89-.91,4.89-3.71,0-4.73-11.23-4.31-11.23-11.58,0-5.39,4-8,9.14-8a20,20,0,0,1,6,1l-.41,4.16a14.23,14.23,0,0,0-5-1.32c-2.44,0-4.57,1-4.57,3.15,0,5.29,11.23,3.76,11.23,12.05,0,5.53-4.43,8.07-9,8.07a14.91,14.91,0,0,1-7.12-1.42Z"/></g></g></svg>