<svg xmlns="http://www.w3.org/2000/svg" viewBox="0 0 1493.88 353.81"><defs><style>.cls-1,.cls-3{fill:#040000;}.cls-2,.cls-3{opacity:0.4;}</style></defs><title>logo_ja_m</title><g id="レイヤー_2" data-name="レイヤー 2"><g id="レイヤー_1-2" data-name="レイヤー 1"><path class="cls-1" d="M155.58,821.2h39.95c40.15,0,72.15,24.83,72.15,66.53,0,45.39-27.54,68.85-72.15,68.85H155.58ZM175,939.51h20.36c33.36,0,51.78-16.09,51.78-51,0-31.61-21.53-50.23-49.46-50.23H175Z" transform="translate(99 -801)"/><path class="cls-1" d="M295.63,821.2h36.66c28.12,0,47.52,9.12,47.52,34.14,0,18.62-10.86,27.93-27.93,32.2v.38c18.43,1.55,31.42,13.58,31.42,32.59,0,29.09-24.05,36.07-51.59,36.07H295.63ZM315,879H325.7c18.81,0,34.71-1.74,34.71-21.72,0-16.1-13.76-20.17-25-20.17H315Zm0,61.68h14.55c17.45,0,33.16-3.69,33.16-21.92,0-21-18.42-23.85-35.1-23.85H315Z" transform="translate(99 -801)"/><path class="cls-1" d="M508.81,843.51A54.44,54.44,0,0,0,480.88,836c-31.23,0-52,22.49-52,52.94,0,31.81,22.89,53,51,53,9.7,0,22.69-2.52,29.48-6.59l1.16,18.81c-10.27,4.26-22.88,4.85-30.83,4.85-42.87,0-71.38-27.54-71.38-70.6,0-41.7,30.26-69.43,71.57-69.43,10.48,0,20.75,1.55,30.45,5.81Z" transform="translate(99 -801)"/><path class="cls-1" d="M533.65,821.2h19.4V939.51h56.63v17.07h-76Z" transform="translate(99 -801)"/><path class="cls-1" d="M692.32,841.57c-9.89-3.88-15.32-5.62-25.4-5.62-10.87,0-23.67,3.87-23.67,18,0,26,58.19,20,58.19,64.59,0,28.89-22.3,40.34-49.46,40.34-9.5,0-18.81-2.72-27.73-5.62l1.93-18c6.6,2.71,18.24,6.59,28.13,6.59,11.05,0,26.57-6.21,26.57-22.11,0-30.26-58.18-21.92-58.18-64,0-24.05,19-36.85,43.44-36.85a90.54,90.54,0,0,1,28.9,4.84Z" transform="translate(99 -801)"/><path class="cls-1" d="M160.5,979.11H171c10.51,0,18.9,6.5,18.9,17.43,0,11.89-7.22,18-18.9,18H160.5Zm5.08,31h5.34c8.74,0,13.56-4.22,13.56-13.37,0-8.28-5.64-13.16-12.95-13.16h-5.95Z" transform="translate(99 -801)"/><path class="cls-1" d="M199.61,990.49a16.53,16.53,0,0,1,8.54-2.44c7.41,0,10.41,3.66,10.41,10.73v10.72a38.83,38.83,0,0,0,.21,5.08h-4.48v-3.35h-.1a9.64,9.64,0,0,1-8,4c-5.59,0-9.5-2.44-9.5-8.08,0-6.5,7.11-8.54,12-8.54,1.88,0,3.2,0,5.08.1,0-4.47-1.62-6.76-6.4-6.76a12.22,12.22,0,0,0-7.52,2.64Zm14.17,11.74c-1,0-2-.1-3-.1-2.59,0-9,.4-9,5,0,2.74,2.64,4.21,4.83,4.21,4.72,0,7.21-2.94,7.21-6.8Z" transform="translate(99 -801)"/><path class="cls-1" d="M241.76,992.52h-6.85v14.18c0,3,1.82,4.62,4,4.62a5.94,5.94,0,0,0,3.25-.91v4.07a15.17,15.17,0,0,1-4.06.71c-4.93,0-8-2.34-8-7.52V992.52h-5.85v-3.86h5.85v-6l4.78-1.53v7.52h6.85Z" transform="translate(99 -801)"/><path class="cls-1" d="M249.32,990.49a16.55,16.55,0,0,1,8.54-2.44c7.42,0,10.42,3.66,10.42,10.73v10.72a39.67,39.67,0,0,0,.2,5.08H264v-3.35h-.11a9.61,9.61,0,0,1-8,4c-5.59,0-9.5-2.44-9.5-8.08,0-6.5,7.11-8.54,12-8.54,1.88,0,3.2,0,5.08.1,0-4.47-1.63-6.76-6.4-6.76a12.2,12.2,0,0,0-7.52,2.64Zm14.18,11.74c-1,0-2-.1-3.05-.1-2.59,0-9,.4-9,5,0,2.74,2.64,4.21,4.82,4.21,4.73,0,7.22-2.94,7.22-6.8Z" transform="translate(99 -801)"/><path class="cls-1" d="M277.71,976.47h4.78v15.75h.1c1.47-2.39,4.06-4.17,8.58-4.17,7.53,0,11.18,6.15,11.18,13.11,0,7.12-3.3,14-11.13,14a10.39,10.39,0,0,1-8.83-4.27h-.11v3.66h-4.57Zm12.45,15.44c-5.19,0-7.67,4.93-7.67,9.76,0,4.32,2.23,9.65,7.62,9.65,5.13,0,7.26-5.73,7.16-9.8C297.37,996.84,295.34,991.91,290.16,991.91Z" transform="translate(99 -801)"/><path class="cls-1" d="M311.33,990.49a16.55,16.55,0,0,1,8.54-2.44c7.42,0,10.41,3.66,10.41,10.73v10.72a38.83,38.83,0,0,0,.21,5.08H326v-3.35h-.11a9.62,9.62,0,0,1-8,4c-5.59,0-9.5-2.44-9.5-8.08,0-6.5,7.12-8.54,12.05-8.54,1.88,0,3.19,0,5.08.1,0-4.47-1.63-6.76-6.41-6.76a12.17,12.17,0,0,0-7.51,2.64Zm14.18,11.74c-1,0-2-.1-3.05-.1-2.59,0-9,.4-9,5,0,2.74,2.65,4.21,4.83,4.21,4.72,0,7.22-2.94,7.22-6.8Z" transform="translate(99 -801)"/><path class="cls-1" d="M337.79,1009.5a12.71,12.71,0,0,0,5.94,1.82c2.19,0,4.88-.91,4.88-3.71,0-4.72-11.23-4.31-11.23-11.58,0-5.39,4-8,9.15-8a19.85,19.85,0,0,1,5.94,1l-.4,4.17a14,14,0,0,0-5-1.33c-2.45,0-4.58,1-4.58,3.15,0,5.29,11.23,3.77,11.23,12.05,0,5.53-4.42,8.08-9.05,8.08a14.9,14.9,0,0,1-7.11-1.43Z" transform="translate(99 -801)"/><path class="cls-1" d="M379.7,1013.51a19.83,19.83,0,0,1-8.18,1.68c-9.2,0-13.41-5.59-13.41-14,0-7.67,4.82-13.11,12.14-13.11,8.64,0,11.43,6.31,11.43,14.64H363.19a8.47,8.47,0,0,0,8.53,8.63,15.26,15.26,0,0,0,8-2.59Zm-3.1-14.38c0-4-2.33-7.22-6.45-7.22-4.68,0-6.61,3.86-7,7.22Z" transform="translate(99 -801)"/><path class="cls-1" d="M428.86,985a14.29,14.29,0,0,0-7.32-2c-8.18,0-13.62,5.9-13.62,13.87,0,8.33,6,13.88,13.37,13.88A17.43,17.43,0,0,0,429,1009l.31,4.93a22.17,22.17,0,0,1-8.09,1.27c-11.23,0-18.69-7.22-18.69-18.5,0-10.92,7.92-18.19,18.75-18.19a19.58,19.58,0,0,1,8,1.52Z" transform="translate(99 -801)"/><path class="cls-1" d="M456.18,1013.51a19.79,19.79,0,0,1-8.18,1.68c-9.2,0-13.41-5.59-13.41-14,0-7.67,4.82-13.11,12.14-13.11,8.64,0,11.44,6.31,11.44,14.64h-18.5a8.48,8.48,0,0,0,8.54,8.63,15.25,15.25,0,0,0,8-2.59Zm-3.1-14.38c0-4-2.33-7.22-6.45-7.22-4.67,0-6.61,3.86-7,7.22Z" transform="translate(99 -801)"/><path class="cls-1" d="M465.93,988.66h4.61v4.12h.11c1.43-2.95,4.88-4.73,8.48-4.73,6.71,0,9.71,4.17,9.71,11.13v15.4h-4.78v-13.42c0-6-1.31-9-5.48-9.25-5.44,0-7.88,4.37-7.88,10.67v12h-4.77Z" transform="translate(99 -801)"/><path class="cls-1" d="M512.09,992.52h-6.86v14.18c0,3,1.83,4.62,4,4.62a6,6,0,0,0,3.25-.91v4.07a15.17,15.17,0,0,1-4.06.71c-4.94,0-8-2.34-8-7.52V992.52h-5.85v-3.86h5.85v-6l4.77-1.53v7.52h6.86Z" transform="translate(99 -801)"/><path class="cls-1" d="M539.31,1013.51a19.83,19.83,0,0,1-8.18,1.68c-9.2,0-13.41-5.59-13.41-14,0-7.67,4.82-13.11,12.14-13.11,8.64,0,11.44,6.31,11.44,14.64H522.8a8.47,8.47,0,0,0,8.53,8.63,15.26,15.26,0,0,0,8-2.59Zm-3.1-14.38c0-4-2.33-7.22-6.45-7.22-4.67,0-6.61,3.86-7,7.22Z" transform="translate(99 -801)"/><path class="cls-1" d="M548,988.66h4.47v4h.1a7.9,7.9,0,0,1,6.76-4.63,14.3,14.3,0,0,1,3.15.35v4.28a7,7,0,0,0-2.64-.46c-4.27,0-7.06,4.06-7.06,10.57v11.79H548Z" transform="translate(99 -801)"/><path class="cls-1" d="M587.75,992.52h-6.09v-3.86h6.09v-2.39c0-6.3,1.63-10.41,8.7-10.41a19.78,19.78,0,0,1,3.19.3l-.2,3.86a7.66,7.66,0,0,0-2.29-.3c-4.11,0-4.62,2.64-4.62,6.15v2.79h6.86v3.86h-6.86v22.06h-4.78Z" transform="translate(99 -801)"/><path class="cls-1" d="M617.27,988.05c7.87,0,13.15,5.7,13.15,13.57,0,7.42-5.38,13.57-13.15,13.57s-13.22-6.15-13.22-13.57C604.05,993.75,609.34,988.05,617.27,988.05Zm0,23.27c5.59,0,8.07-5.08,8.07-9.7,0-4.93-3-9.71-8.07-9.71s-8.14,4.78-8.14,9.71C609.13,1006.24,611.63,1011.32,617.27,1011.32Z" transform="translate(99 -801)"/><path class="cls-1" d="M638.18,988.66h4.47v4h.1a7.9,7.9,0,0,1,6.76-4.63,14.23,14.23,0,0,1,3.15.35v4.28a6.94,6.94,0,0,0-2.64-.46c-4.27,0-7.06,4.06-7.06,10.57v11.79h-4.78Z" transform="translate(99 -801)"/><path class="cls-1" d="M675.2,979.11h5.08v31h14.84v4.47H675.2Z" transform="translate(99 -801)"/><path class="cls-1" d="M707.25,982.87h-5.38v-5.38h5.38Zm-5.08,5.79H707v25.92h-4.78Z" transform="translate(99 -801)"/><path class="cls-1" d="M720.15,992.52h-6.09v-3.86h6.09v-2.39c0-6.3,1.63-10.41,8.69-10.41a19.91,19.91,0,0,1,3.2.3l-.2,3.86a7.66,7.66,0,0,0-2.29-.3c-4.12,0-4.63,2.64-4.63,6.15v2.79h6.87v3.86h-6.87v22.06h-4.77Z" transform="translate(99 -801)"/><path class="cls-1" d="M758.05,1013.51a19.84,19.84,0,0,1-8.19,1.68c-9.19,0-13.41-5.59-13.41-14,0-7.67,4.83-13.11,12.15-13.11,8.63,0,11.43,6.31,11.43,14.64h-18.5a8.48,8.48,0,0,0,8.54,8.63,15.29,15.29,0,0,0,8-2.59Zm-3.11-14.38c0-4-2.33-7.22-6.44-7.22-4.68,0-6.61,3.86-7,7.22Z" transform="translate(99 -801)"/><path class="cls-1" d="M799.84,984.44a15.73,15.73,0,0,0-6.66-1.47c-2.84,0-6.2,1-6.2,4.73,0,6.8,15.25,5.23,15.25,16.92,0,7.57-5.85,10.57-13,10.57a23.54,23.54,0,0,1-7.27-1.48l.51-4.72a21.59,21.59,0,0,0,7.37,1.73c2.9,0,7-1.63,7-5.8,0-7.92-15.24-5.74-15.24-16.76,0-6.31,5-9.66,11.38-9.66a23.53,23.53,0,0,1,7.57,1.27Z" transform="translate(99 -801)"/><path class="cls-1" d="M826.5,993a13.85,13.85,0,0,0-5.18-1.12c-5.33,0-8.33,4.78-8.33,9.71,0,4.62,2.49,9.7,8.64,9.7a10.05,10.05,0,0,0,5.13-1.47l.36,4.27a14.52,14.52,0,0,1-6,1.07c-7.82,0-13.21-6.15-13.21-13.57,0-7.87,5.28-13.57,13.21-13.57a17.82,17.82,0,0,1,5.79,1Z" transform="translate(99 -801)"/><path class="cls-1" d="M839.65,982.87h-5.38v-5.38h5.38Zm-5.08,5.79h4.78v25.92h-4.78Z" transform="translate(99 -801)"/><path class="cls-1" d="M869.32,1013.51a19.84,19.84,0,0,1-8.19,1.68c-9.19,0-13.41-5.59-13.41-14,0-7.67,4.83-13.11,12.14-13.11,8.64,0,11.44,6.31,11.44,14.64H852.8a8.48,8.48,0,0,0,8.54,8.63,15.29,15.29,0,0,0,8-2.59Zm-3.11-14.38c0-4-2.33-7.22-6.44-7.22-4.68,0-6.61,3.86-7,7.22Z" transform="translate(99 -801)"/><path class="cls-1" d="M879.06,988.66h4.62v4.12h.1c1.43-2.95,4.88-4.73,8.48-4.73,6.71,0,9.71,4.17,9.71,11.13v15.4H897.2v-13.42c0-6-1.32-9-5.49-9.25-5.44,0-7.88,4.37-7.88,10.67v12h-4.77Z" transform="translate(99 -801)"/><path class="cls-1" d="M927.92,993a13.89,13.89,0,0,0-5.18-1.12c-5.34,0-8.33,4.78-8.33,9.71,0,4.62,2.48,9.7,8.63,9.7a10,10,0,0,0,5.13-1.47l.36,4.27a14.49,14.49,0,0,1-6,1.07c-7.82,0-13.2-6.15-13.2-13.57,0-7.87,5.27-13.57,13.2-13.57a17.89,17.89,0,0,1,5.8,1Z" transform="translate(99 -801)"/><path class="cls-1" d="M955.24,1013.51a19.79,19.79,0,0,1-8.18,1.68c-9.2,0-13.41-5.59-13.41-14,0-7.67,4.82-13.11,12.14-13.11,8.64,0,11.44,6.31,11.44,14.64h-18.5a8.48,8.48,0,0,0,8.54,8.63,15.25,15.25,0,0,0,8-2.59Zm-3.1-14.38c0-4-2.33-7.22-6.45-7.22-4.67,0-6.61,3.86-7,7.22Z" transform="translate(99 -801)"/><path class="cls-1" d="M157.35,1064.33a9.23,9.23,0,0,0,3.2.51c4.58,0,5.79-2.6,5.79-6.91v-24.7h5.08v26.32c0,5-2.28,9.76-9.95,9.76a12.1,12.1,0,0,1-4.12-.61Z" transform="translate(99 -801)"/><path class="cls-1" d="M193,1042.17c7.87,0,13.16,5.7,13.16,13.57,0,7.42-5.39,13.57-13.16,13.57s-13.21-6.15-13.21-13.57C179.75,1047.87,185,1042.17,193,1042.17Zm0,23.28c5.59,0,8.08-5.08,8.08-9.71,0-4.92-3-9.71-8.08-9.71s-8.13,4.79-8.13,9.71C184.83,1060.37,187.32,1065.45,193,1065.45Z" transform="translate(99 -801)"/><path class="cls-1" d="M219.57,1037h-5.39v-5.38h5.39Zm-5.08,5.79h4.77v25.92h-4.77Z" transform="translate(99 -801)"/><path class="cls-1" d="M229.36,1042.78H234v4.12h.11c1.42-3,4.87-4.73,8.48-4.73,6.71,0,9.71,4.17,9.71,11.13v15.4H247.5v-13.41c0-6-1.32-9-5.48-9.26-5.44,0-7.88,4.38-7.88,10.67v12h-4.78Z" transform="translate(99 -801)"/><path class="cls-1" d="M275.53,1046.64h-6.86v14.18c0,3,1.83,4.63,4,4.63a5.87,5.87,0,0,0,3.25-.92v4.07a15.18,15.18,0,0,1-4.07.71c-4.93,0-8-2.34-8-7.52v-15.15h-5.85v-3.86h5.85v-6l4.77-1.53v7.52h6.86Z" transform="translate(99 -801)"/><path class="cls-1" d="M311.9,1038.57a15.63,15.63,0,0,0-6.66-1.48c-2.84,0-6.2,1-6.2,4.73,0,6.81,15.25,5.23,15.25,16.92,0,7.57-5.85,10.57-13,10.57a23.54,23.54,0,0,1-7.27-1.48l.51-4.72a21.53,21.53,0,0,0,7.37,1.73c2.89,0,7-1.63,7-5.8,0-7.92-15.25-5.74-15.25-16.76,0-6.31,5-9.66,11.39-9.66a23.8,23.8,0,0,1,7.57,1.27Z" transform="translate(99 -801)"/><path class="cls-1" d="M345,1068.7h-4.62v-4.12h-.1c-1.43,3-4.88,4.73-8.48,4.73-6.71,0-9.71-4.17-9.71-11.13v-15.4h4.78v13.42c0,6,1.31,9,5.48,9.25,5.44,0,7.88-4.37,7.88-10.67v-12H345Z" transform="translate(99 -801)"/><path class="cls-1" d="M355.51,1042.78h4.57v3.66h.11a10.36,10.36,0,0,1,8.78-4.27c7.53,0,11.18,6.15,11.18,13.12s-3.3,14-11.13,14c-4.57,0-7.16-1.78-8.63-4.17h-.1v14.23h-4.78ZM368,1046c-5.18,0-7.67,4.94-7.67,9.76,0,4.32,2.23,9.66,7.62,9.66,5.13,0,7.26-5.74,7.16-9.81C375.17,1051,373.14,1046,368,1046Z" transform="translate(99 -801)"/><path class="cls-1" d="M387.91,1042.78h4.57v3.66h.11a10.36,10.36,0,0,1,8.78-4.27c7.53,0,11.18,6.15,11.18,13.12s-3.3,14-11.13,14c-4.57,0-7.16-1.78-8.63-4.17h-.1v14.23h-4.78Zm12.45,3.25c-5.19,0-7.67,4.94-7.67,9.76,0,4.32,2.23,9.66,7.62,9.66,5.13,0,7.26-5.74,7.16-9.81C407.57,1051,405.54,1046,400.36,1046Z" transform="translate(99 -801)"/><path class="cls-1" d="M431.8,1042.17c7.88,0,13.16,5.7,13.16,13.57,0,7.42-5.38,13.57-13.16,13.57s-13.21-6.15-13.21-13.57C418.59,1047.87,423.88,1042.17,431.8,1042.17Zm0,23.28c5.59,0,8.08-5.08,8.08-9.71,0-4.92-3-9.71-8.08-9.71s-8.13,4.79-8.13,9.71C423.67,1060.37,426.16,1065.45,431.8,1065.45Z" transform="translate(99 -801)"/><path class="cls-1" d="M452.72,1042.78h4.47v4h.1a7.9,7.9,0,0,1,6.76-4.63,13.66,13.66,0,0,1,3.15.36v4.27a7,7,0,0,0-2.64-.46c-4.27,0-7.07,4.07-7.07,10.57v11.79h-4.77Z" transform="translate(99 -801)"/><path class="cls-1" d="M488.63,1046.64h-6.86v14.18c0,3,1.83,4.63,4,4.63a5.91,5.91,0,0,0,3.26-.92v4.07a15.25,15.25,0,0,1-4.07.71c-4.93,0-8-2.34-8-7.52v-15.15h-5.84v-3.86H477v-6l4.78-1.53v7.52h6.86Z" transform="translate(99 -801)"/><path class="cls-1" d="M496.9,1053.1H510V1057H496.9Z" transform="translate(99 -801)"/><path class="cls-1" d="M545.31,1039.08a14.21,14.21,0,0,0-7.32-2c-8.18,0-13.62,5.9-13.62,13.88,0,8.33,6,13.87,13.37,13.87a17.43,17.43,0,0,0,7.72-1.73l.31,4.93a22.17,22.17,0,0,1-8.09,1.27c-11.23,0-18.7-7.21-18.7-18.49,0-10.93,7.93-18.2,18.76-18.2a19.59,19.59,0,0,1,8,1.53Z" transform="translate(99 -801)"/><path class="cls-1" d="M572.63,1067.63a19.72,19.72,0,0,1-8.19,1.68c-9.19,0-13.41-5.59-13.41-14,0-7.68,4.83-13.12,12.14-13.12,8.64,0,11.44,6.31,11.44,14.64h-18.5a8.49,8.49,0,0,0,8.54,8.64,15.28,15.28,0,0,0,8-2.6Zm-3.11-14.38c0-4-2.33-7.22-6.45-7.22-4.67,0-6.61,3.87-7,7.22Z" transform="translate(99 -801)"/><path class="cls-1" d="M582.37,1042.78H587v4.12h.1c1.43-3,4.88-4.73,8.48-4.73,6.71,0,9.71,4.17,9.71,11.13v15.4H600.5v-13.41c0-6-1.31-9-5.48-9.26-5.44,0-7.88,4.38-7.88,10.67v12h-4.77Z" transform="translate(99 -801)"/><path class="cls-1" d="M628.54,1046.64h-6.86v14.18c0,3,1.83,4.63,4,4.63a5.87,5.87,0,0,0,3.25-.92v4.07a15.18,15.18,0,0,1-4.07.71c-4.93,0-8-2.34-8-7.52v-15.15h-5.85v-3.86h5.85v-6l4.77-1.53v7.52h6.86Z" transform="translate(99 -801)"/><path class="cls-1" d="M655.76,1067.63a19.66,19.66,0,0,1-8.18,1.68c-9.2,0-13.41-5.59-13.41-14,0-7.68,4.82-13.12,12.14-13.12,8.64,0,11.43,6.31,11.43,14.64H639.25a8.48,8.48,0,0,0,8.53,8.64,15.25,15.25,0,0,0,8-2.6Zm-3.1-14.38c0-4-2.33-7.22-6.45-7.22-4.68,0-6.61,3.87-7,7.22Z" transform="translate(99 -801)"/><path class="cls-1" d="M665.5,1042.78H670v4h.1a7.92,7.92,0,0,1,6.76-4.63,13.6,13.6,0,0,1,3.15.36v4.27a6.94,6.94,0,0,0-2.64-.46c-4.27,0-7.06,4.07-7.06,10.57v11.79H665.5Z" transform="translate(99 -801)"/><path class="cls-1" d="M701.15,1046.64h-6.09v-3.86h6.09v-2.39c0-6.29,1.63-10.41,8.7-10.41a20.86,20.86,0,0,1,3.19.3l-.2,3.87a7.31,7.31,0,0,0-2.28-.31c-4.12,0-4.63,2.64-4.63,6.15v2.79h6.86v3.86h-6.86v22.06h-4.78Z" transform="translate(99 -801)"/><path class="cls-1" d="M730.67,1042.17c7.87,0,13.16,5.7,13.16,13.57,0,7.42-5.39,13.57-13.16,13.57s-13.21-6.15-13.21-13.57C717.46,1047.87,722.74,1042.17,730.67,1042.17Zm0,23.28c5.59,0,8.08-5.08,8.08-9.71,0-4.92-3-9.71-8.08-9.71s-8.13,4.79-8.13,9.71C722.54,1060.37,725,1065.45,730.67,1065.45Z" transform="translate(99 -801)"/><path class="cls-1" d="M751.59,1042.78h4.47v4h.09a7.92,7.92,0,0,1,6.76-4.63,13.69,13.69,0,0,1,3.16.36v4.27a7,7,0,0,0-2.65-.46c-4.27,0-7.06,4.07-7.06,10.57v11.79h-4.77Z" transform="translate(99 -801)"/><path class="cls-1" d="M785.3,1033.23h10.47c10.52,0,18.91,6.51,18.91,17.43,0,11.89-7.22,18-18.91,18H785.3Zm5.08,31h5.34c8.74,0,13.57-4.22,13.57-13.36,0-8.29-5.64-13.17-13-13.17h-6Z" transform="translate(99 -801)"/><path class="cls-1" d="M824.41,1044.62a16.47,16.47,0,0,1,8.54-2.45c7.42,0,10.41,3.67,10.41,10.73v10.72a38.71,38.71,0,0,0,.21,5.08H839.1v-3.35H839a9.61,9.61,0,0,1-8,4c-5.59,0-9.51-2.44-9.51-8.08,0-6.5,7.12-8.54,12-8.54,1.88,0,3.19,0,5.08.1,0-4.47-1.63-6.76-6.41-6.76a12.12,12.12,0,0,0-7.51,2.65Zm14.18,11.73c-1,0-2-.1-3.05-.1-2.59,0-9,.4-9,5,0,2.74,2.65,4.22,4.83,4.22,4.72,0,7.22-3,7.22-6.81Z" transform="translate(99 -801)"/><path class="cls-1" d="M866.57,1046.64h-6.86v14.18c0,3,1.83,4.63,4,4.63a5.9,5.9,0,0,0,3.25-.92v4.07a15.25,15.25,0,0,1-4.07.71c-4.93,0-8-2.34-8-7.52v-15.15h-5.84v-3.86h5.84v-6l4.78-1.53v7.52h6.86Z" transform="translate(99 -801)"/><path class="cls-1" d="M877.17,1044.62a16.47,16.47,0,0,1,8.54-2.45c7.42,0,10.42,3.67,10.42,10.73v10.72a41.67,41.67,0,0,0,.2,5.08h-4.47v-3.35h-.11a9.6,9.6,0,0,1-8,4c-5.59,0-9.5-2.44-9.5-8.08,0-6.5,7.11-8.54,12-8.54,1.88,0,3.2,0,5.08.1,0-4.47-1.63-6.76-6.4-6.76a12.15,12.15,0,0,0-7.52,2.65Zm14.18,11.73c-1,0-2-.1-3.05-.1-2.59,0-9,.4-9,5,0,2.74,2.64,4.22,4.82,4.22,4.73,0,7.22-3,7.22-6.81Z" transform="translate(99 -801)"/><path class="cls-1" d="M937.62,1038.57a15.63,15.63,0,0,0-6.66-1.48c-2.85,0-6.2,1-6.2,4.73,0,6.81,15.24,5.23,15.24,16.92,0,7.57-5.84,10.57-13,10.57a23.47,23.47,0,0,1-7.26-1.48l.51-4.72a21.47,21.47,0,0,0,7.36,1.73c2.9,0,7-1.63,7-5.8,0-7.92-15.25-5.74-15.25-16.76,0-6.31,5-9.66,11.39-9.66a23.7,23.7,0,0,1,7.56,1.27Z" transform="translate(99 -801)"/><path class="cls-1" d="M965.29,1047.15a14.09,14.09,0,0,0-5.18-1.12c-5.33,0-8.33,4.79-8.33,9.71,0,4.63,2.49,9.71,8.64,9.71a9.91,9.91,0,0,0,5.12-1.48l.36,4.27a14.48,14.48,0,0,1-6,1.07c-7.83,0-13.21-6.15-13.21-13.57,0-7.87,5.28-13.57,13.21-13.57a17.82,17.82,0,0,1,5.79,1Z" transform="translate(99 -801)"/><path class="cls-1" d="M980.47,1037h-5.38v-5.38h5.38Zm-5.08,5.79h4.78v25.92h-4.78Z" transform="translate(99 -801)"/><path class="cls-1" d="M1011.16,1067.63a19.68,19.68,0,0,1-8.19,1.68c-9.19,0-13.41-5.59-13.41-14,0-7.68,4.83-13.12,12.15-13.12,8.63,0,11.43,6.31,11.43,14.64h-18.5a8.49,8.49,0,0,0,8.54,8.64,15.28,15.28,0,0,0,8-2.6Zm-3.11-14.38c0-4-2.33-7.22-6.44-7.22-4.68,0-6.61,3.87-7,7.22Z" transform="translate(99 -801)"/><path class="cls-1" d="M1020.89,1042.78h4.62v4.12h.11c1.42-3,4.87-4.73,8.48-4.73,6.71,0,9.71,4.17,9.71,11.13v15.4H1039v-13.41c0-6-1.32-9-5.48-9.26-5.44,0-7.88,4.38-7.88,10.67v12h-4.78Z" transform="translate(99 -801)"/><path class="cls-1" d="M1069.76,1047.15a14.09,14.09,0,0,0-5.18-1.12c-5.34,0-8.33,4.79-8.33,9.71,0,4.63,2.48,9.71,8.63,9.71A9.91,9.91,0,0,0,1070,1064l.36,4.27a14.49,14.49,0,0,1-6,1.07c-7.82,0-13.2-6.15-13.2-13.57,0-7.87,5.28-13.57,13.2-13.57a17.89,17.89,0,0,1,5.8,1Z" transform="translate(99 -801)"/><path class="cls-1" d="M1097.08,1067.63a19.62,19.62,0,0,1-8.18,1.68c-9.19,0-13.41-5.59-13.41-14,0-7.68,4.82-13.12,12.14-13.12,8.64,0,11.44,6.31,11.44,14.64h-18.5a8.49,8.49,0,0,0,8.54,8.64,15.21,15.21,0,0,0,8-2.6Zm-3.1-14.38c0-4-2.33-7.22-6.45-7.22-4.67,0-6.61,3.87-7,7.22Z" transform="translate(99 -801)"/><path class="cls-1" d="M1122.46,1033.23h8.7c7,0,13.76,1.12,13.76,9.61,0,4.31-3.2,7.36-7.32,8.08v.09c1.58.61,2.34,1.38,3.46,3.56l6.71,14.13H1142l-5.44-12.3c-1.57-3.45-3.25-3.45-5.94-3.45h-3.06v15.75h-5.08Zm5.08,15.25h4.32c4.83,0,7.68-2.14,7.68-5.54,0-3.2-2.44-5.24-7.12-5.24h-4.88Z" transform="translate(99 -801)"/><path class="cls-1" d="M1174.58,1067.63a19.66,19.66,0,0,1-8.18,1.68c-9.2,0-13.41-5.59-13.41-14,0-7.68,4.82-13.12,12.14-13.12,8.64,0,11.43,6.31,11.43,14.64h-18.49a8.48,8.48,0,0,0,8.53,8.64,15.25,15.25,0,0,0,8-2.6Zm-3.1-14.38c0-4-2.33-7.22-6.45-7.22-4.68,0-6.61,3.87-7,7.22Z" transform="translate(99 -801)"/><path class="cls-1" d="M1182.39,1063.62a12.74,12.74,0,0,0,5.94,1.83c2.19,0,4.88-.92,4.88-3.72,0-4.72-11.23-4.31-11.23-11.58,0-5.38,4-8,9.15-8a20,20,0,0,1,5.95,1l-.41,4.17a14,14,0,0,0-5-1.33c-2.44,0-4.58,1-4.58,3.16,0,5.28,11.23,3.76,11.23,12,0,5.53-4.42,8.08-9,8.08a14.92,14.92,0,0,1-7.12-1.43Z" transform="translate(99 -801)"/><path class="cls-1" d="M1225.32,1067.63a19.72,19.72,0,0,1-8.19,1.68c-9.19,0-13.41-5.59-13.41-14,0-7.68,4.83-13.12,12.14-13.12,8.64,0,11.44,6.31,11.44,14.64h-18.5a8.49,8.49,0,0,0,8.54,8.64,15.28,15.28,0,0,0,8-2.6Zm-3.11-14.38c0-4-2.33-7.22-6.44-7.22-4.68,0-6.62,3.87-7,7.22Z" transform="translate(99 -801)"/><path class="cls-1" d="M1236.28,1044.62a16.4,16.4,0,0,1,8.53-2.45c7.42,0,10.42,3.67,10.42,10.73v10.72a41.67,41.67,0,0,0,.2,5.08H1251v-3.35h-.1a9.64,9.64,0,0,1-8,4c-5.59,0-9.5-2.44-9.5-8.08,0-6.5,7.11-8.54,12-8.54,1.88,0,3.2,0,5.08.1,0-4.47-1.63-6.76-6.4-6.76a12.17,12.17,0,0,0-7.52,2.65Zm14.17,11.73c-1,0-2-.1-3-.1-2.6,0-9,.4-9,5,0,2.74,2.64,4.22,4.82,4.22,4.73,0,7.22-3,7.22-6.81Z" transform="translate(99 -801)"/><path class="cls-1" d="M1265.68,1042.78h4.47v4h.1a7.9,7.9,0,0,1,6.76-4.63,13.66,13.66,0,0,1,3.15.36v4.27a7,7,0,0,0-2.64-.46c-4.27,0-7.07,4.07-7.07,10.57v11.79h-4.77Z" transform="translate(99 -801)"/><path class="cls-1" d="M1303.36,1047.15a14,14,0,0,0-5.18-1.12c-5.33,0-8.33,4.79-8.33,9.71,0,4.63,2.49,9.71,8.64,9.71a9.94,9.94,0,0,0,5.13-1.48l.36,4.27a14.49,14.49,0,0,1-6,1.07c-7.82,0-13.21-6.15-13.21-13.57,0-7.87,5.28-13.57,13.21-13.57a17.82,17.82,0,0,1,5.79,1Z" transform="translate(99 -801)"/><path class="cls-1" d="M1310.82,1030.59h4.78v15.9h.1a9.51,9.51,0,0,1,8.33-4.32c6.71,0,9.71,4.17,9.71,11.13v15.4H1329v-13.41c0-6-1.32-9-5.48-9.26-5.44,0-7.88,4.38-7.88,10.67v12h-4.78Z" transform="translate(99 -801)"/><path class="cls-1" d="M160.5,1085.49h8.69c7,0,13.77,1.12,13.77,9.61,0,4.31-3.2,7.36-7.32,8.07v.1c1.58.61,2.34,1.38,3.46,3.56l6.71,14.13H180l-5.43-12.3c-1.58-3.45-3.26-3.45-6-3.45h-3V1121H160.5Zm5.08,15.25h4.32c4.83,0,7.67-2.14,7.67-5.54,0-3.21-2.43-5.24-7.11-5.24h-4.88Z" transform="translate(99 -801)"/><path class="cls-1" d="M212.62,1119.89a19.89,19.89,0,0,1-8.19,1.68c-9.19,0-13.41-5.59-13.41-14,0-7.68,4.83-13.12,12.14-13.12,8.64,0,11.44,6.31,11.44,14.64H196.1a8.49,8.49,0,0,0,8.54,8.64,15.28,15.28,0,0,0,8-2.6Zm-3.11-14.38c0-4-2.33-7.22-6.44-7.22-4.68,0-6.62,3.86-7,7.22Z" transform="translate(99 -801)"/><path class="cls-1" d="M220.42,1115.88a12.81,12.81,0,0,0,6,1.83c2.19,0,4.88-.92,4.88-3.72,0-4.72-11.23-4.31-11.23-11.58,0-5.39,4-8,9.15-8a19.91,19.91,0,0,1,5.94,1l-.4,4.17a14,14,0,0,0-5-1.33c-2.44,0-4.57,1-4.57,3.16,0,5.28,11.23,3.76,11.23,12,0,5.53-4.42,8.08-9.05,8.08a14.88,14.88,0,0,1-7.11-1.43Z" transform="translate(99 -801)"/><path class="cls-1" d="M263.35,1119.89a19.83,19.83,0,0,1-8.18,1.68c-9.2,0-13.41-5.59-13.41-14,0-7.68,4.82-13.12,12.14-13.12,8.64,0,11.44,6.31,11.44,14.64h-18.5a8.48,8.48,0,0,0,8.53,8.64,15.25,15.25,0,0,0,8-2.6Zm-3.1-14.38c0-4-2.33-7.22-6.45-7.22-4.68,0-6.61,3.86-7,7.22Z" transform="translate(99 -801)"/><path class="cls-1" d="M274.31,1096.88a16.47,16.47,0,0,1,8.54-2.45c7.42,0,10.41,3.66,10.41,10.73v10.72a38.71,38.71,0,0,0,.21,5.08H289v-3.35h-.11a9.61,9.61,0,0,1-8,4c-5.59,0-9.51-2.44-9.51-8.08,0-6.5,7.12-8.54,12.05-8.54,1.88,0,3.19,0,5.08.1,0-4.47-1.63-6.76-6.41-6.76a12.12,12.12,0,0,0-7.51,2.65Zm14.18,11.73c-1,0-2-.1-3.05-.1-2.59,0-9,.4-9,5,0,2.74,2.65,4.22,4.83,4.22,4.73,0,7.22-3,7.22-6.81Z" transform="translate(99 -801)"/><path class="cls-1" d="M302.7,1095h4.47v4h.1a7.92,7.92,0,0,1,6.76-4.63,13.66,13.66,0,0,1,3.15.36v4.27a6.94,6.94,0,0,0-2.64-.46c-4.27,0-7.06,4.06-7.06,10.57V1121H302.7Z" transform="translate(99 -801)"/><path class="cls-1" d="M340.39,1099.41a13.89,13.89,0,0,0-5.18-1.12c-5.34,0-8.33,4.79-8.33,9.71,0,4.63,2.48,9.71,8.63,9.71a9.94,9.94,0,0,0,5.13-1.48l.36,4.27a14.49,14.49,0,0,1-6,1.07c-7.82,0-13.2-6.15-13.2-13.57,0-7.87,5.27-13.57,13.2-13.57a17.89,17.89,0,0,1,5.8,1Z" transform="translate(99 -801)"/><path class="cls-1" d="M347.85,1082.85h4.77v15.9h.1a9.52,9.52,0,0,1,8.33-4.32c6.71,0,9.71,4.17,9.71,11.13V1121H366v-13.41c0-6-1.31-9-5.48-9.26-5.44,0-7.88,4.37-7.88,10.67v12h-4.77Z" transform="translate(99 -801)"/><path class="cls-1" d="M406.36,1084.88c10.77,0,17.08,7.82,17.08,18.34,0,10.77-6.26,18.35-17.08,18.35s-17.07-7.58-17.07-18.35C389.29,1092.7,395.59,1084.88,406.36,1084.88Zm0,32.22c8.19,0,11.69-6.81,11.69-13.88s-3.87-13.92-11.69-13.87-11.69,6.66-11.69,13.87S398.18,1117.1,406.36,1117.1Z" transform="translate(99 -801)"/><path class="cls-1" d="M430.52,1095H435v4h.1a7.92,7.92,0,0,1,6.76-4.63,13.66,13.66,0,0,1,3.15.36v4.27a6.94,6.94,0,0,0-2.64-.46c-4.27,0-7.06,4.06-7.06,10.57V1121h-4.78Z" transform="translate(99 -801)"/><path class="cls-1" d="M475.58,1119.84c0,7.88-4.06,12.4-13.36,12.4a26.3,26.3,0,0,1-9.3-1.78l.51-4.42c3.66,1.68,5.84,2.34,9.35,2.34,5,0,8-3.41,8-8.9v-2.54h-.1a10.82,10.82,0,0,1-8.7,4c-7.41,0-11.07-6-11.07-12.76s3.76-13.77,11.58-13.77c4.58,0,7.12,1.68,8.54,4.47h.1V1095h4.42Zm-4.77-11.54c0-5.38-2.49-10-7.58-10-4.82,0-7.21,5.24-7.21,9.66,0,4.87,2.74,9.15,7.21,9.15S470.81,1113.14,470.81,1108.3Z" transform="translate(99 -801)"/><path class="cls-1" d="M486.29,1096.88a16.44,16.44,0,0,1,8.54-2.45c7.41,0,10.41,3.66,10.41,10.73v10.72a38.71,38.71,0,0,0,.21,5.08H501v-3.35h-.1a9.64,9.64,0,0,1-8,4c-5.59,0-9.5-2.44-9.5-8.08,0-6.5,7.11-8.54,12-8.54,1.88,0,3.2,0,5.08.1,0-4.47-1.62-6.76-6.4-6.76a12.17,12.17,0,0,0-7.52,2.65Zm14.17,11.73c-1,0-2-.1-3-.1-2.59,0-9,.4-9,5,0,2.74,2.64,4.22,4.83,4.22,4.72,0,7.21-3,7.21-6.81Z" transform="translate(99 -801)"/><path class="cls-1" d="M514.68,1095h4.62v4.12h.1c1.43-3,4.88-4.73,8.48-4.73,6.71,0,9.71,4.17,9.71,11.13V1121h-4.78v-13.41c0-6-1.31-9-5.48-9.26-5.44,0-7.88,4.37-7.88,10.67v12h-4.77Z" transform="translate(99 -801)"/><path class="cls-1" d="M551.75,1089.25h-5.39v-5.38h5.39Zm-5.08,5.79h4.77V1121h-4.77Z" transform="translate(99 -801)"/><path class="cls-1" d="M560.68,1116.79l14.94-17.89H561.4V1095h19.76v4.17l-14.94,17.89h15.5V1121h-21Z" transform="translate(99 -801)"/><path class="cls-1" d="M591.56,1096.88a16.47,16.47,0,0,1,8.54-2.45c7.42,0,10.42,3.66,10.42,10.73v10.72a41.67,41.67,0,0,0,.2,5.08h-4.47v-3.35h-.11a9.6,9.6,0,0,1-8,4c-5.59,0-9.5-2.44-9.5-8.08,0-6.5,7.11-8.54,12-8.54,1.88,0,3.2,0,5.08.1,0-4.47-1.63-6.76-6.4-6.76a12.15,12.15,0,0,0-7.52,2.65Zm14.18,11.73c-1,0-2-.1-3-.1-2.59,0-9,.4-9,5,0,2.74,2.64,4.22,4.82,4.22,4.73,0,7.22-3,7.22-6.81Z" transform="translate(99 -801)"/><path class="cls-1" d="M633.72,1098.9h-6.86v14.18c0,3,1.83,4.63,4,4.63a5.9,5.9,0,0,0,3.25-.92v4.07a15.18,15.18,0,0,1-4.07.71c-4.93,0-8-2.34-8-7.52V1098.9h-5.85V1095h5.85v-6l4.77-1.53V1095h6.86Z" transform="translate(99 -801)"/><path class="cls-1" d="M647.78,1089.25H642.4v-5.38h5.38ZM642.7,1095h4.78V1121H642.7Z" transform="translate(99 -801)"/><path class="cls-1" d="M668.05,1094.43c7.87,0,13.16,5.7,13.16,13.57,0,7.42-5.38,13.57-13.16,13.57s-13.21-6.15-13.21-13.57C654.84,1100.13,660.12,1094.43,668.05,1094.43Zm0,23.28c5.59,0,8.08-5.08,8.08-9.71,0-4.92-3-9.71-8.08-9.71s-8.13,4.79-8.13,9.71C659.92,1112.63,662.41,1117.71,668.05,1117.71Z" transform="translate(99 -801)"/><path class="cls-1" d="M688,1095h4.62v4.12h.11c1.42-3,4.87-4.73,8.48-4.73,6.71,0,9.71,4.17,9.71,11.13V1121h-4.78v-13.41c0-6-1.32-9-5.48-9.26-5.44,0-7.88,4.37-7.88,10.67v12H688Z" transform="translate(99 -801)"/><path class="cls-1" d="M742.25,1094.43c7.87,0,13.15,5.7,13.15,13.57,0,7.42-5.38,13.57-13.15,13.57S729,1115.42,729,1108C729,1100.13,734.32,1094.43,742.25,1094.43Zm0,23.28c5.59,0,8.07-5.08,8.07-9.71,0-4.92-3-9.71-8.07-9.71s-8.14,4.79-8.14,9.71C734.11,1112.63,736.61,1117.71,742.25,1117.71Z" transform="translate(99 -801)"/><path class="cls-1" d="M766.26,1098.9h-6.09V1095h6.09v-2.39c0-6.3,1.63-10.41,8.69-10.41a19.91,19.91,0,0,1,3.2.3l-.2,3.86a7.71,7.71,0,0,0-2.29-.3c-4.12,0-4.63,2.64-4.63,6.15V1095h6.87v3.86H771V1121h-4.77Z" transform="translate(99 -801)"/><path class="cls-1" d="M799.22,1085.49h5.08V1121h-5.08Z" transform="translate(99 -801)"/><path class="cls-1" d="M814.25,1095h4.62v4.12H819c1.42-3,4.87-4.73,8.48-4.73,6.71,0,9.7,4.17,9.7,11.13V1121h-4.77v-13.41c0-6-1.32-9-5.48-9.26-5.45,0-7.88,4.37-7.88,10.67v12h-4.78Z" transform="translate(99 -801)"/><path class="cls-1" d="M849.75,1098.9h-6.09V1095h6.09v-2.39c0-6.3,1.63-10.41,8.7-10.41a19.67,19.67,0,0,1,3.19.3l-.2,3.86a7.59,7.59,0,0,0-2.28-.3c-4.12,0-4.63,2.64-4.63,6.15V1095h6.87v3.86h-6.87V1121h-4.78Z" transform="translate(99 -801)"/><path class="cls-1" d="M878.25,1094.43c7.87,0,13.16,5.7,13.16,13.57,0,7.42-5.39,13.57-13.16,13.57S865,1115.42,865,1108C865,1100.13,870.32,1094.43,878.25,1094.43Zm0,23.28c5.59,0,8.08-5.08,8.08-9.71,0-4.92-3-9.71-8.08-9.71s-8.13,4.79-8.13,9.71C870.12,1112.63,872.61,1117.71,878.25,1117.71Z" transform="translate(99 -801)"/><path class="cls-1" d="M899.17,1095h4.47v4h.1a7.89,7.89,0,0,1,6.75-4.63,13.69,13.69,0,0,1,3.16.36v4.27a7,7,0,0,0-2.65-.46c-4.27,0-7.06,4.06-7.06,10.57V1121h-4.77Z" transform="translate(99 -801)"/><path class="cls-1" d="M921.26,1095h4.47v3.76h.1c1.82-3,4.42-4.37,8.23-4.37a7.66,7.66,0,0,1,7.37,5,9.25,9.25,0,0,1,8-5c6.61,0,9,4.27,9,9.91V1121h-4.78v-15.45c0-3.2-.76-7.22-4.62-7.22-4.88,0-6.81,4.79-6.81,9.61V1121h-4.78v-15.45c0-3.2-.76-7.22-4.62-7.22-4.88,0-6.81,4.79-6.81,9.61V1121h-4.77Z" transform="translate(99 -801)"/><path class="cls-1" d="M969,1096.88a16.47,16.47,0,0,1,8.54-2.45c7.42,0,10.42,3.66,10.42,10.73v10.72a41.67,41.67,0,0,0,.2,5.08h-4.47v-3.35h-.1a9.64,9.64,0,0,1-8,4c-5.59,0-9.5-2.44-9.5-8.08,0-6.5,7.11-8.54,12-8.54,1.88,0,3.2,0,5.08.1,0-4.47-1.63-6.76-6.4-6.76a12.15,12.15,0,0,0-7.52,2.65Zm14.18,11.73c-1,0-2-.1-3-.1-2.6,0-9,.4-9,5,0,2.74,2.64,4.22,4.82,4.22,4.73,0,7.22-3,7.22-6.81Z" transform="translate(99 -801)"/><path class="cls-1" d="M1010.19,1098.9h-6.86v14.18c0,3,1.83,4.63,4,4.63a5.9,5.9,0,0,0,3.25-.92v4.07a15.25,15.25,0,0,1-4.07.71c-4.93,0-8-2.34-8-7.52V1098.9h-5.84V1095h5.84v-6l4.78-1.53V1095h6.86Z" transform="translate(99 -801)"/><path class="cls-1" d="M1023.24,1089.25h-5.39v-5.38h5.39Zm-5.08,5.79h4.77V1121h-4.77Z" transform="translate(99 -801)"/><path class="cls-1" d="M1043.5,1094.43c7.87,0,13.16,5.7,13.16,13.57,0,7.42-5.39,13.57-13.16,13.57s-13.21-6.15-13.21-13.57C1030.29,1100.13,1035.57,1094.43,1043.5,1094.43Zm0,23.28c5.59,0,8.08-5.08,8.08-9.71,0-4.92-3-9.71-8.08-9.71s-8.13,4.79-8.13,9.71C1035.37,1112.63,1037.86,1117.71,1043.5,1117.71Z" transform="translate(99 -801)"/><path class="cls-1" d="M1064.42,1095H1069v4.12h.11c1.42-3,4.87-4.73,8.48-4.73,6.71,0,9.71,4.17,9.71,11.13V1121h-4.78v-13.41c0-6-1.32-9-5.48-9.26-5.44,0-7.88,4.37-7.88,10.67v12h-4.78Z" transform="translate(99 -801)"/><path class="cls-1" d="M1107.44,1096.88a16.4,16.4,0,0,1,8.53-2.45c7.42,0,10.42,3.66,10.42,10.73v10.72a41.67,41.67,0,0,0,.2,5.08h-4.47v-3.35h-.1a9.64,9.64,0,0,1-8,4c-5.59,0-9.5-2.44-9.5-8.08,0-6.5,7.11-8.54,12-8.54,1.88,0,3.2,0,5.08.1,0-4.47-1.63-6.76-6.4-6.76a12.17,12.17,0,0,0-7.52,2.65Zm14.17,11.73c-1,0-2-.1-3-.1-2.6,0-9,.4-9,5,0,2.74,2.64,4.22,4.82,4.22,4.73,0,7.22-3,7.22-6.81Z" transform="translate(99 -801)"/><path class="cls-1" d="M1134.81,1095h4.61v4.12h.11c1.42-3,4.88-4.73,8.48-4.73,6.71,0,9.71,4.17,9.71,11.13V1121h-4.78v-13.41c0-6-1.32-9-5.48-9.26-5.44,0-7.88,4.37-7.88,10.67v12h-4.77Z" transform="translate(99 -801)"/><path class="cls-1" d="M1184.53,1117.3h-.1a10.41,10.41,0,0,1-8.84,4.27c-7.83,0-11.13-7-11.13-14s3.66-13.12,11.18-13.12c4.52,0,7.12,1.78,8.59,4.17h.1v-15.75h4.77V1121h-4.57Zm-7.82.41c5.39,0,7.62-5.34,7.62-9.66,0-4.83-2.49-9.76-7.67-9.76s-7.22,4.88-7.12,9.61C1169.44,1112,1171.58,1117.71,1176.71,1117.71Z" transform="translate(99 -801)"/><path class="cls-1" d="M1225.57,1090.83a15.6,15.6,0,0,0-6.66-1.48c-2.84,0-6.2,1-6.2,4.73,0,6.81,15.25,5.23,15.25,16.92,0,7.57-5.85,10.57-13,10.57a23.54,23.54,0,0,1-7.27-1.48l.51-4.72a21.59,21.59,0,0,0,7.37,1.73c2.9,0,7-1.63,7-5.8,0-7.92-15.24-5.74-15.24-16.76,0-6.31,5-9.66,11.38-9.66a23.53,23.53,0,0,1,7.57,1.27Z" transform="translate(99 -801)"/><path class="cls-1" d="M1232.82,1128a7.39,7.39,0,0,0,2.24.41c4.26,0,5.69-5.9,5.69-6.41a14.15,14.15,0,0,0-.92-2.74L1231,1095h5.24l7,21.45h.11l7.11-21.45h4.83l-9.55,26.48c-1.78,5-3.66,10.72-10,10.72a15.88,15.88,0,0,1-3.26-.36Z" transform="translate(99 -801)"/><path class="cls-1" d="M1260.6,1115.88a12.77,12.77,0,0,0,5.94,1.83c2.19,0,4.88-.92,4.88-3.72,0-4.72-11.22-4.31-11.22-11.58,0-5.39,4-8,9.14-8a20,20,0,0,1,6,1l-.41,4.17a14,14,0,0,0-5-1.33c-2.43,0-4.56,1-4.56,3.16,0,5.28,11.22,3.76,11.22,12,0,5.53-4.42,8.08-9,8.08a14.92,14.92,0,0,1-7.12-1.43Z" transform="translate(99 -801)"/><path class="cls-1" d="M1298.44,1098.9h-6.86v14.18c0,3,1.83,4.63,4,4.63a5.87,5.87,0,0,0,3.25-.92v4.07a15.18,15.18,0,0,1-4.07.71c-4.93,0-8-2.34-8-7.52V1098.9H1281V1095h5.85v-6l4.77-1.53V1095h6.86Z" transform="translate(99 -801)"/><path class="cls-1" d="M1325.67,1119.89a19.84,19.84,0,0,1-8.19,1.68c-9.19,0-13.41-5.59-13.41-14,0-7.68,4.83-13.12,12.15-13.12,8.63,0,11.43,6.31,11.43,14.64h-18.5a8.49,8.49,0,0,0,8.54,8.64,15.28,15.28,0,0,0,8-2.6Zm-3.11-14.38c0-4-2.33-7.22-6.44-7.22-4.68,0-6.61,3.86-7,7.22Z" transform="translate(99 -801)"/><path class="cls-1" d="M1334.34,1095h4.47v3.76h.1c1.83-3,4.42-4.37,8.23-4.37a7.65,7.65,0,0,1,7.37,5,9.26,9.26,0,0,1,8-5c6.6,0,9,4.27,9,9.91V1121h-4.78v-15.45c0-3.2-.75-7.22-4.62-7.22-4.88,0-6.8,4.79-6.8,9.61V1121h-4.79v-15.45c0-3.2-.76-7.22-4.62-7.22-4.88,0-6.81,4.79-6.81,9.61V1121h-4.77Z" transform="translate(99 -801)"/><path class="cls-1" d="M1379,1115.88a12.74,12.74,0,0,0,5.94,1.83c2.19,0,4.88-.92,4.88-3.72,0-4.72-11.23-4.31-11.23-11.58,0-5.39,4-8,9.15-8a19.91,19.91,0,0,1,5.94,1l-.4,4.17a14,14,0,0,0-5-1.33c-2.44,0-4.57,1-4.57,3.16,0,5.28,11.23,3.76,11.23,12,0,5.53-4.42,8.08-9.05,8.08a14.9,14.9,0,0,1-7.11-1.43Z" transform="translate(99 -801)"/><g class="cls-2"><rect class="cls-1" x="113.19" y="64.64" width="13.26" height="52.53"/><rect class="cls-1" x="145.33" y="77.14" width="10.63" height="52.53"/><rect class="cls-1" x="130.16" y="70.89" width="12.06" height="52.53"/><polygon class="cls-1" points="94.66 58.38 94.66 110.92 108.84 110.92 108.84 58.39 94.66 58.38"/><rect class="cls-1" x="29.65" y="31.71" width="6.28" height="52.53"/><rect class="cls-1" x="158.44" y="83.38" width="8.95" height="52.54"/><rect class="cls-1" x="16.09" y="20.72" width="3.37" height="52.53"/><rect class="cls-1" width="1.86" height="52.53"/><rect class="cls-1" x="76.14" y="52.11" width="13.56" height="52.54"/><polygon class="cls-1" points="43.99 39.3 43.99 91.84 52.94 91.84 52.94 39.31 43.99 39.3"/><polygon class="cls-1" points="59.16 45.75 59.16 98.28 70.55 98.28 70.55 45.74 59.16 45.75"/><rect class="cls-1" x="177.46" y="95.91" width="4.59" height="52.53"/><path class="cls-1" d="M83.68,903.59v52.53c0-.79,1.67,0,1.67,0V903.59Z" transform="translate(99 -801)"/><rect class="cls-1" x="169.26" y="89.64" width="6.97" height="52.53"/></g><path class="cls-3" d="M-99,956.12a11.74,11.74,0,0,0,2,6.2,28.79,28.79,0,0,0,5.78,6.44,68.43,68.43,0,0,0,8.27,6c3.35,2.1,7.1,4.18,11.12,6.21,4.22,2.13,8.74,4.19,13.42,6.21,5,2.15,10.26,4.24,15.47,6.2,5.85,2.22,11.7,4.3,17.29,6.21,6.84,2.34,13.28,4.44,18.84,6.21s12,3.87,18.83,6.21c5.59,1.91,11.43,4,17.29,6.2,5.22,2,10.43,4.06,15.48,6.21,4.67,2,9.19,4.08,13.42,6.22,4,2,7.77,4.1,11.12,6.21a66,66,0,0,1,8.52,6.21,28.09,28.09,0,0,1,5.52,6.21,11.74,11.74,0,0,1,2,6.2v-52.53a11.77,11.77,0,0,0-2-6.2,27.65,27.65,0,0,0-5.52-6.21,67,67,0,0,0-8.52-6.22c-3.35-2.1-7.1-4.17-11.12-6.21C54,976,49.45,973.9,44.78,971.88c-5.05-2.15-10.26-4.23-15.48-6.2-5.86-2.22-11.7-4.3-17.29-6.21C5.18,957.13-1.26,955-6.82,953.26s-12-3.87-18.84-6.21c-5.59-1.91-11.44-4-17.29-6.2-5.21-2-10.43-4.06-15.47-6.21-4.68-2-9.2-4.08-13.42-6.21-4-2-7.77-4.11-11.12-6.21a68.43,68.43,0,0,1-8.27-6A28.79,28.79,0,0,1-97,909.79a11.69,11.69,0,0,1-2-6.2Z" transform="translate(99 -801)"/><path class="cls-1" d="M85.35,1055.46a11.75,11.75,0,0,1-2,6.21,28.76,28.76,0,0,1-5.78,6.44,69.22,69.22,0,0,1-8.27,6c-3.35,2.11-7.09,4.19-11.12,6.22-4.22,2.12-8.74,4.19-13.41,6.2-5.05,2.16-10.26,4.24-15.47,6.21-5.87,2.21-11.72,4.3-17.3,6.21-6.84,2.34-13.27,4.42-18.83,6.21s-12,3.86-18.85,6.2c-5.58,1.92-11.42,4-17.28,6.21-5.21,2-10.43,4-15.47,6.21-4.68,2-9.2,4.08-13.42,6.21-4,2-7.77,4.11-11.13,6.2a68.72,68.72,0,0,0-8.52,6.23,28.15,28.15,0,0,0-5.53,6.2,11.87,11.87,0,0,0-2,6.21v-52.53a11.82,11.82,0,0,1,2-6.21,28.67,28.67,0,0,1,5.53-6.22,69.73,69.73,0,0,1,8.52-6.2c3.36-2.1,7.1-4.19,11.13-6.21,4.22-2.13,8.74-4.2,13.42-6.21,5-2.15,10.26-4.24,15.47-6.21,5.86-2.21,11.7-4.29,17.28-6.2,6.85-2.34,13.29-4.44,18.85-6.21s12-3.87,18.83-6.21c5.58-1.91,11.43-4,17.3-6.21,5.21-2,10.42-4,15.47-6.2,4.67-2,9.19-4.08,13.41-6.23,4-2,7.77-4.09,11.12-6.19a70.36,70.36,0,0,0,8.27-6,28.54,28.54,0,0,0,5.78-6.44,11.77,11.77,0,0,0,2-6.21Z" transform="translate(99 -801)"/><path class="cls-1" d="M85.35,956.12a11.74,11.74,0,0,1-2,6.2,28.54,28.54,0,0,1-5.78,6.44,70.36,70.36,0,0,1-8.27,6c-3.35,2.1-7.09,4.18-11.12,6.21-4.22,2.13-8.74,4.19-13.41,6.21-5.05,2.15-10.26,4.24-15.47,6.2-5.87,2.22-11.72,4.3-17.3,6.21-6.84,2.34-13.27,4.44-18.83,6.21s-12,3.87-18.85,6.21c-5.58,1.91-11.42,4-17.28,6.2-5.21,2-10.43,4.06-15.47,6.21-4.68,2-9.2,4.08-13.42,6.22-4,2-7.77,4.1-11.13,6.21a66.71,66.71,0,0,0-8.52,6.21,28.41,28.41,0,0,0-5.53,6.21,11.81,11.81,0,0,0-2,6.2v-52.53a11.84,11.84,0,0,1,2-6.2,28,28,0,0,1,5.53-6.21A67.7,67.7,0,0,1-83,984.3c3.36-2.1,7.1-4.17,11.13-6.21,4.22-2.13,8.74-4.19,13.42-6.21,5-2.15,10.26-4.23,15.47-6.2,5.86-2.22,11.7-4.3,17.28-6.21,6.85-2.34,13.29-4.43,18.85-6.21s12-3.87,18.83-6.21c5.58-1.91,11.43-4,17.3-6.2,5.21-2,10.42-4.06,15.47-6.21,4.67-2,9.19-4.08,13.41-6.21,4-2,7.77-4.11,11.12-6.21a70.36,70.36,0,0,0,8.27-6,28.54,28.54,0,0,0,5.78-6.44,11.74,11.74,0,0,0,2-6.2Z" transform="translate(99 -801)"/><rect class="cls-1" x="57.91" y="64.64" width="13.26" height="52.53"/><rect class="cls-1" x="28.4" y="77.14" width="10.63" height="52.53"/><rect class="cls-1" x="42.13" y="70.89" width="12.06" height="52.53"/><polygon class="cls-1" points="89.69 58.38 89.69 110.92 75.51 110.92 75.51 58.39 89.69 58.38"/><rect class="cls-1" x="148.43" y="31.71" width="6.29" height="52.53"/><rect class="cls-1" x="16.96" y="83.38" width="8.95" height="52.54"/><rect class="cls-1" x="164.9" y="20.72" width="3.36" height="52.53"/><rect class="cls-1" x="182.49" width="1.86" height="52.53"/><rect class="cls-1" x="94.66" y="52.11" width="13.56" height="52.54"/><polygon class="cls-1" points="140.36 39.3 140.36 91.84 131.41 91.84 131.41 39.31 140.36 39.3"/><polygon class="cls-1" points="125.2 45.75 125.2 98.28 113.8 98.28 113.8 45.74 125.2 45.75"/><rect class="cls-1" x="2.3" y="95.91" width="4.59" height="52.53"/><path class="cls-1" d="M-97.32,903.59v52.53c0-.79-1.68,0-1.68,0V903.59Z" transform="translate(99 -801)"/><rect class="cls-1" x="8.13" y="89.64" width="6.97" height="52.53"/></g></g></svg>