<svg xmlns="http://www.w3.org/2000/svg" viewBox="0 0 1525.88 355.54"><defs><style>.cls-1,.cls-2{fill:#040000;}.cls-1{opacity:0.4;}</style></defs><title>logo_en_full_m</title><g id="レイヤー_2" data-name="レイヤー 2"><g id="レイヤー_1-2" data-name="レイヤー 1"><rect class="cls-1" x="113.74" y="64.96" width="13.32" height="52.79"/><rect class="cls-1" x="146.04" y="77.52" width="10.68" height="52.79"/><rect class="cls-1" x="130.8" y="71.24" width="12.12" height="52.78"/><rect class="cls-1" x="95.12" y="58.68" width="14.25" height="52.79"/><rect class="cls-1" x="29.79" y="31.88" width="6.31" height="52.78"/><rect class="cls-1" x="159.21" y="83.8" width="9" height="52.79"/><rect class="cls-1" x="16.17" y="20.82" width="3.38" height="52.8"/><rect class="cls-1" width="1.87" height="52.78"/><rect class="cls-1" x="76.51" y="52.38" width="13.62" height="52.79"/><rect class="cls-1" x="44.21" y="39.51" width="9" height="52.79"/><rect class="cls-1" x="59.45" y="45.97" width="11.45" height="52.78"/><rect class="cls-1" x="178.34" y="96.38" width="4.61" height="52.79"/><path class="cls-1" d="M183.57,103.09v52.8c0-.8,1.68,0,1.68,0v-52.8Z"/><rect class="cls-1" x="170.08" y="90.08" width="7" height="52.78"/><path class="cls-1" d="M0,155.89a11.86,11.86,0,0,0,2,6.24,29.51,29.51,0,0,0,5.81,6.47,69,69,0,0,0,8.31,6c3.37,2.12,7.13,4.2,11.17,6.24,4.24,2.14,8.79,4.22,13.48,6.24,5.07,2.18,10.31,4.26,15.54,6.24,5.89,2.24,11.77,4.32,17.38,6.24C80.57,201.92,87,204,92.63,205.8s12.06,3.87,18.93,6.24c5.61,1.92,11.49,4,17.37,6.24,5.24,2,10.49,4.06,15.55,6.24,4.7,2,9.24,4.1,13.48,6.24,4,2,7.82,4.12,11.19,6.24a67.88,67.88,0,0,1,8.56,6.24,29,29,0,0,1,5.55,6.24,11.93,11.93,0,0,1,2,6.24V202.92a11.93,11.93,0,0,0-2-6.24,29,29,0,0,0-5.55-6.24,68,68,0,0,0-8.56-6.24C165.78,182.09,162,180,158,178c-4.24-2.14-8.78-4.23-13.48-6.24-5.06-2.18-10.31-4.26-15.55-6.25-5.89-2.22-11.77-4.32-17.37-6.22-6.87-2.37-13.34-4.46-18.93-6.25s-12.06-3.89-18.93-6.24c-5.61-1.92-11.49-4-17.38-6.24-5.24-2-10.48-4.07-15.54-6.24-4.7-2-9.24-4.1-13.48-6.24-4-2-7.81-4.12-11.17-6.24a67.49,67.49,0,0,1-8.31-6A29.16,29.16,0,0,1,2,109.34a11.86,11.86,0,0,1-2-6.25Z"/><path class="cls-2" d="M185.26,255.71a11.85,11.85,0,0,1-2,6.24,29.26,29.26,0,0,1-5.81,6.47,69.35,69.35,0,0,1-8.31,6c-3.37,2.11-7.13,4.2-11.18,6.24-4.24,2.14-8.78,4.22-13.48,6.24-5.06,2.17-10.31,4.26-15.54,6.24-5.89,2.22-11.77,4.32-17.38,6.24-6.88,2.35-13.34,4.46-18.93,6.24s-12.06,3.89-18.93,6.25c-5.61,1.91-11.49,4-17.38,6.22-5.24,2-10.48,4.07-15.54,6.25-4.7,2-9.25,4.1-13.48,6.24-4,2-7.81,4.12-11.18,6.24a68.67,68.67,0,0,0-8.57,6.24A28.89,28.89,0,0,0,2,349.3a11.85,11.85,0,0,0-2,6.24V302.76a11.85,11.85,0,0,1,2-6.24,28.87,28.87,0,0,1,5.55-6.24A67.22,67.22,0,0,1,16.11,284c3.37-2.12,7.14-4.22,11.18-6.24,4.24-2.15,8.79-4.23,13.48-6.25,5.07-2.17,10.31-4.26,15.54-6.24,5.89-2.22,11.77-4.32,17.38-6.24,6.87-2.35,13.34-4.45,18.93-6.24s12.05-3.89,18.93-6.24c5.61-1.92,11.49-4,17.38-6.24,5.23-2,10.48-4.07,15.54-6.24,4.7-2,9.24-4.1,13.48-6.24,4-2,7.81-4.13,11.18-6.24a69.35,69.35,0,0,0,8.31-6,29.25,29.25,0,0,0,5.81-6.47,11.85,11.85,0,0,0,2-6.24Z"/><path class="cls-2" d="M185.26,155.89a11.93,11.93,0,0,1-2,6.24,29.9,29.9,0,0,1-5.81,6.47,69.26,69.26,0,0,1-8.31,6c-3.37,2.12-7.13,4.2-11.18,6.24-4.24,2.14-8.78,4.22-13.48,6.24-5.06,2.17-10.31,4.26-15.54,6.24-5.89,2.24-11.77,4.32-17.38,6.24-6.88,2.37-13.34,4.46-18.93,6.24S80.57,209.68,73.7,212c-5.61,1.92-11.49,4-17.38,6.24-5.24,2-10.48,4.06-15.54,6.24-4.7,2-9.25,4.1-13.48,6.24-4,2-7.81,4.12-11.18,6.24a68.52,68.52,0,0,0-8.57,6.24A28.87,28.87,0,0,0,2,249.47a11.88,11.88,0,0,0-2,6.24V202.92a11.85,11.85,0,0,1,2-6.24,28.89,28.89,0,0,1,5.55-6.24,68.67,68.67,0,0,1,8.57-6.24c3.37-2.12,7.14-4.2,11.18-6.24,4.24-2.14,8.79-4.23,13.48-6.24,5.07-2.18,10.31-4.26,15.54-6.25,5.89-2.22,11.77-4.32,17.38-6.22C80.57,156.89,87,154.8,92.63,153s12.05-3.89,18.93-6.24c5.61-1.92,11.49-4,17.38-6.24,5.23-2,10.48-4.07,15.54-6.24,4.7-2,9.24-4.1,13.48-6.24,4-2,7.81-4.13,11.18-6.24a67.77,67.77,0,0,0,8.31-6,29.53,29.53,0,0,0,5.81-6.45,11.93,11.93,0,0,0,2-6.25Z"/><rect class="cls-2" x="58.2" y="64.96" width="13.31" height="52.79"/><rect class="cls-2" x="28.54" y="77.52" width="10.68" height="52.79"/><rect class="cls-2" x="42.33" y="71.24" width="12.12" height="52.78"/><rect class="cls-2" x="75.88" y="58.68" width="14.25" height="52.79"/><rect class="cls-2" x="149.16" y="31.88" width="6.31" height="52.78"/><rect class="cls-2" x="17.04" y="83.8" width="9" height="52.79"/><rect class="cls-2" x="165.7" y="20.82" width="3.38" height="52.8"/><rect class="cls-2" x="183.38" width="1.87" height="52.78"/><rect class="cls-2" x="95.12" y="52.38" width="13.62" height="52.79"/><rect class="cls-2" x="132.05" y="39.51" width="9.01" height="52.79"/><rect class="cls-2" x="114.36" y="45.97" width="11.45" height="52.78"/><rect class="cls-2" x="2.31" y="96.38" width="4.61" height="52.79"/><path class="cls-2" d="M1.68,103.09v52.8c0-.8-1.68,0-1.68,0v-52.8Z"/><rect class="cls-2" x="8.17" y="90.08" width="7" height="52.78"/><path class="cls-2" d="M254.25,21.36h34c49.07,0,68.5,28.26,68.5,68.31,0,49.66-33.18,68.69-78.51,68.69H254.25ZM267.8,146.58H279c38.87,0,64.18-15.7,64.18-57.7,0-41.81-24.93-55.74-55.55-55.74H267.8Z"/><path class="cls-2" d="M385.19,21.36h32.58c22.38,0,43.38,7.46,43.38,33.76,0,17.47-8,27.87-24.92,31.2v.39c17.27,3.14,29,14.53,29,32.58,0,29.83-24.34,39.06-52.8,39.06H385.19Zm13.54,125.22h14.13c18.25,0,38.86-4.9,38.86-26.69,0-24.34-21-26.89-41-26.89h-12Zm.39-65.35h15.11c14.33,0,33.36-3.74,33.36-25.52,0-19.82-18.25-22.57-29.83-22.57H399.13Z"/><path class="cls-2" d="M589.54,36.66c-8.64-4.51-21-5.89-30.62-5.89-35.52,0-55.55,25.12-55.55,59.08,0,34.54,19.43,59.08,55.55,59.08,9,0,22.77-1.18,30.62-5.89l.78,11.77c-7.46,4.52-22.76,5.89-31.4,5.89-43.18,0-69.09-28.46-69.09-70.86,0-41.61,26.69-70.85,69.09-70.85,8.05,0,24.34,1.37,31.4,5.1Z"/><path class="cls-2" d="M625.28,21.36h13.54V146.58h55v11.78h-68.5Z"/><path class="cls-2" d="M709.88,140.89c8,5.1,17.47,8,30.23,8,16.88,0,30.82-8.64,30.82-28.07,0-26.89-62.81-30.22-62.81-66.14,0-22,19.23-35.72,43.38-35.72,6.67,0,17.47,1,26.89,4.51l-2.16,12.37c-6.09-3.33-15.7-5.1-24.93-5.1-14.13,0-29.63,5.89-29.63,23.55,0,27.48,62.81,27.68,62.81,67.72,0,27.67-23.75,38.67-44.95,38.67-13.35,0-23.75-2.75-31-5.89Z"/><path class="cls-2" d="M250.23,180.9h10.23c11.46,0,21.57,3.86,21.57,18.68s-10.12,18.69-21.57,18.69H250.23Zm7.5,31.48h4.17c6.27,0,12.32-4.65,12.32-12.8s-6.05-12.8-12.32-12.8h-4.17Z"/><path class="cls-2" d="M289.49,192.14a24.73,24.73,0,0,1,9.59-2.09c8.41,0,11.89,3.48,11.89,11.62v3.53c0,2.78.06,4.87.11,6.9s.16,4,.32,6.16h-6.32a32.18,32.18,0,0,1-.32-4.12h-.11a9.85,9.85,0,0,1-8.52,4.77c-4.87,0-9.64-2.95-9.64-8.2a8.1,8.1,0,0,1,4.71-7.87c2.73-1.34,6.27-1.61,9.26-1.61h4c0-4.45-2-5.94-6.21-5.94a14.43,14.43,0,0,0-8.52,3Zm8.41,21.53a6.1,6.1,0,0,0,5-2.47,9.15,9.15,0,0,0,1.5-5.68h-3.1c-3.21,0-8,.54-8,4.77C293.35,212.66,295.33,213.67,297.9,213.67Z"/><path class="cls-2" d="M320.4,196h-5.3V190.7h5.3v-5.52l7.18-2.3v7.82H334V196h-6.37V208.8c0,2.36.64,4.55,3.37,4.55a6.36,6.36,0,0,0,3.27-.75l.22,5.68a18.83,18.83,0,0,1-5.31.65c-5.62,0-8.73-3.48-8.73-8.95Z"/><path class="cls-2" d="M340.11,192.14a24.73,24.73,0,0,1,9.59-2.09c8.41,0,11.89,3.48,11.89,11.62v3.53c0,2.78.06,4.87.11,6.9s.16,4,.32,6.16H355.7a32.18,32.18,0,0,1-.32-4.12h-.11a9.85,9.85,0,0,1-8.52,4.77c-4.87,0-9.64-2.95-9.64-8.2a8.1,8.1,0,0,1,4.71-7.87c2.73-1.34,6.27-1.61,9.26-1.61h4c0-4.45-2-5.94-6.21-5.94a14.43,14.43,0,0,0-8.52,3Zm8.41,21.53a6.1,6.1,0,0,0,5-2.47,9.15,9.15,0,0,0,1.5-5.68h-3.1c-3.21,0-8,.54-8,4.77C344,212.66,345.95,213.67,348.52,213.67Z"/><path class="cls-2" d="M368.66,178.11h7.18v16.13h.11a9.65,9.65,0,0,1,8.25-4.18c8.46,0,11.57,6.75,11.57,14.35s-3.11,14.51-11.57,14.51a10.08,10.08,0,0,1-8.46-4h-.11v3.38h-7Zm13.55,35.24c4.71,0,6.05-5.14,6.05-8.94s-1.28-8.78-5.94-8.78-6.42,4.93-6.42,8.78S377.45,213.35,382.21,213.35Z"/><path class="cls-2" d="M402.62,192.14a24.73,24.73,0,0,1,9.59-2.09c8.41,0,11.89,3.48,11.89,11.62v3.53c0,2.78.06,4.87.11,6.9s.16,4,.32,6.16h-6.32a32.18,32.18,0,0,1-.32-4.12h-.11a9.85,9.85,0,0,1-8.52,4.77c-4.87,0-9.64-2.95-9.64-8.2a8.1,8.1,0,0,1,4.71-7.87c2.73-1.34,6.27-1.61,9.26-1.61h4c0-4.45-2-5.94-6.21-5.94a14.43,14.43,0,0,0-8.52,3ZM411,213.67a6.1,6.1,0,0,0,5-2.47,9.15,9.15,0,0,0,1.5-5.68h-3.1c-3.21,0-8,.54-8,4.77C406.48,212.66,408.45,213.67,411,213.67Z"/><path class="cls-2" d="M447.56,196.48a17.69,17.69,0,0,0-6.42-1.18c-1.93,0-4.24.7-4.24,3.05,0,4.39,12.48,1.61,12.48,11.57,0,6.42-5.73,9-11.57,9a32.21,32.21,0,0,1-8.14-1.18l.43-5.89a15.75,15.75,0,0,0,7.07,1.82c1.82,0,4.71-.7,4.71-3.38,0-5.41-12.48-1.71-12.48-11.67,0-5.94,5.19-8.57,10.82-8.57a33.14,33.14,0,0,1,7.82,1Z"/><path class="cls-2" d="M477.07,216.72a18.91,18.91,0,0,1-9.48,2.2c-9.11,0-14.4-5.25-14.4-14.3,0-8,4.23-14.56,12.8-14.56,10.22,0,13.12,7,13.12,16.66H460c.32,4.45,3.43,7,7.87,7a18.61,18.61,0,0,0,9.16-2.79Zm-4.82-14.93c-.22-3.48-1.82-6.48-5.84-6.48s-6.05,2.78-6.37,6.48Z"/><path class="cls-2" d="M527.48,217.74a37.81,37.81,0,0,1-8.51,1.18c-12.1,0-20.51-6.05-20.51-18.69,0-12.8,7.82-20,20.51-20a24.61,24.61,0,0,1,8.46,1.56l-.54,6.32a15.43,15.43,0,0,0-8.09-2c-7.71,0-12.53,5.89-12.53,13.54S511,213,519,213a20.83,20.83,0,0,0,8.19-1.56Z"/><path class="cls-2" d="M554.47,216.72a18.91,18.91,0,0,1-9.48,2.2c-9.11,0-14.4-5.25-14.4-14.3,0-8,4.23-14.56,12.8-14.56,10.22,0,13.12,7,13.12,16.66H537.44c.32,4.45,3.43,7,7.87,7a18.64,18.64,0,0,0,9.16-2.79Zm-4.82-14.93c-.22-3.48-1.82-6.48-5.84-6.48s-6.05,2.78-6.37,6.48Z"/><path class="cls-2" d="M562.13,190.7h6.8v3.74H569c2.24-3.15,5.3-4.39,9-4.39,6.53,0,9.37,4.6,9.37,10.82v17.4h-7.18V203.55c0-3.37-.05-7.92-4.66-7.92-5.19,0-6.32,5.62-6.32,9.16v13.49h-7.18Z"/><path class="cls-2" d="M597.22,196h-5.3V190.7h5.3v-5.52l7.18-2.3v7.82h6.37V196H604.4V208.8c0,2.36.64,4.55,3.37,4.55a6.36,6.36,0,0,0,3.27-.75l.22,5.68a18.83,18.83,0,0,1-5.31.65c-5.62,0-8.73-3.48-8.73-8.95Z"/><path class="cls-2" d="M637.82,216.72a18.91,18.91,0,0,1-9.48,2.2c-9.11,0-14.4-5.25-14.4-14.3,0-8,4.23-14.56,12.8-14.56,10.22,0,13.12,7,13.12,16.66H620.79c.32,4.45,3.43,7,7.87,7a18.61,18.61,0,0,0,9.16-2.79ZM633,201.79c-.22-3.48-1.82-6.48-5.84-6.48s-6.05,2.78-6.37,6.48Z"/><path class="cls-2" d="M645.65,190.7H652V197h.1c.32-2.57,3.27-6.9,7.56-6.9a7.8,7.8,0,0,1,2.19.22v7.23a7.35,7.35,0,0,0-3.21-.59c-5.84,0-5.84,7.28-5.84,11.24v10.12h-7.18Z"/><path class="cls-2" d="M683.84,196h-5.3V190.7h5.3v-3.86c0-5.51,3.1-9.37,8.78-9.37a25.22,25.22,0,0,1,5.25.59l-.59,5.94a5.6,5.6,0,0,0-3.1-1c-2.41,0-3.16,2.09-3.16,4.23v3.43h6.27V196H691v22.33h-7.18Z"/><path class="cls-2" d="M714.69,190.06c8.2,0,14.46,5.51,14.46,14.62,0,7.92-5.31,14.25-14.46,14.25s-14.4-6.32-14.4-14.25C700.28,195.57,706.55,190.06,714.69,190.06Zm0,23.3c5.51,0,7-4.93,7-9.54,0-4.23-2.25-8.19-7-8.19s-6.91,4.07-6.91,8.19C707.78,208.37,709.23,213.35,714.69,213.35Z"/><path class="cls-2" d="M734.94,190.7h6.37V197h.1c.32-2.57,3.27-6.9,7.56-6.9a7.8,7.8,0,0,1,2.19.22v7.23a7.35,7.35,0,0,0-3.21-.59c-5.84,0-5.84,7.28-5.84,11.24v10.12h-7.18Z"/><path class="cls-2" d="M771.15,180.9h7.5v31.48h14.51v5.89h-22Z"/><path class="cls-2" d="M797.45,178.81h7.18v6.85h-7.18Zm0,11.89h7.18v27.58h-7.18Z"/><path class="cls-2" d="M814.8,196h-5.3V190.7h5.3v-3.86c0-5.51,3.1-9.37,8.78-9.37a25.22,25.22,0,0,1,5.25.59l-.59,5.94a5.6,5.6,0,0,0-3.1-1c-2.41,0-3.16,2.09-3.16,4.23v3.43h6.27V196H822v22.33H814.8Z"/><path class="cls-2" d="M855.13,216.72a18.91,18.91,0,0,1-9.48,2.2c-9.11,0-14.4-5.25-14.4-14.3,0-8,4.23-14.56,12.8-14.56,10.22,0,13.12,7,13.12,16.66H838.1c.32,4.45,3.43,7,7.87,7a18.64,18.64,0,0,0,9.16-2.79Zm-4.82-14.93c-.22-3.48-1.82-6.48-5.84-6.48s-6.05,2.78-6.37,6.48Z"/><path class="cls-2" d="M898.42,187.76a19.37,19.37,0,0,0-7.61-1.61c-2.57,0-5.89,1.13-5.89,5.19,0,6.48,16.38,3.75,16.38,16.28,0,8.19-6.48,11.3-14,11.3a33,33,0,0,1-9.59-1.45l.7-6.75a18.09,18.09,0,0,0,8.47,2.3c2.83,0,6.64-1.45,6.64-4.82,0-7.12-16.39-4.18-16.39-16.55,0-8.35,6.48-11.41,13.07-11.41a28.2,28.2,0,0,1,8.94,1.34Z"/><path class="cls-2" d="M925.36,196.65a10.76,10.76,0,0,0-4.88-1c-4.45,0-7.28,3.53-7.28,8.73s2.41,9,7.44,9a15.34,15.34,0,0,0,5.51-1.28l.32,5.94a23.55,23.55,0,0,1-7.18.91c-9,0-13.6-6.16-13.6-14.57,0-8,4.71-14.3,13.34-14.3a23.42,23.42,0,0,1,7,.91Z"/><path class="cls-2" d="M931.42,178.81h7.18v6.85h-7.18Zm0,11.89h7.18v27.58h-7.18Z"/><path class="cls-2" d="M968.27,216.72a18.91,18.91,0,0,1-9.48,2.2c-9.11,0-14.4-5.25-14.4-14.3,0-8,4.23-14.56,12.8-14.56,10.22,0,13.12,7,13.12,16.66H951.24c.32,4.45,3.43,7,7.87,7a18.61,18.61,0,0,0,9.16-2.79Zm-4.82-14.93c-.22-3.48-1.82-6.48-5.84-6.48s-6.05,2.78-6.37,6.48Z"/><path class="cls-2" d="M975.92,190.7h6.8v3.74h.11c2.24-3.15,5.3-4.39,9-4.39,6.53,0,9.37,4.6,9.37,10.82v17.4h-7.18V203.55c0-3.37-.05-7.92-4.66-7.92-5.19,0-6.32,5.62-6.32,9.16v13.49h-7.18Z"/><path class="cls-2" d="M1026.54,196.65a10.76,10.76,0,0,0-4.88-1c-4.45,0-7.28,3.53-7.28,8.73s2.41,9,7.44,9a15.34,15.34,0,0,0,5.51-1.28l.32,5.94a23.55,23.55,0,0,1-7.18.91c-9,0-13.6-6.16-13.6-14.57,0-8,4.71-14.3,13.34-14.3a23.42,23.42,0,0,1,7,.91Z"/><path class="cls-2" d="M1054.56,216.72a18.91,18.91,0,0,1-9.48,2.2c-9.11,0-14.4-5.25-14.4-14.3,0-8,4.23-14.56,12.8-14.56,10.22,0,13.12,7,13.12,16.66h-19.06c.32,4.45,3.43,7,7.87,7a18.64,18.64,0,0,0,9.16-2.79Zm-4.82-14.93c-.22-3.48-1.82-6.48-5.84-6.48s-6.05,2.78-6.37,6.48Z"/><path class="cls-2" d="M247.07,267.37a9.85,9.85,0,0,0,3.59.64c4.87,0,4.87-3.91,4.87-6.58v-24.9H263V265c0,4-2.57,9.54-10.23,9.54a21.48,21.48,0,0,1-5.73-.7Z"/><path class="cls-2" d="M283.06,245.68c8.2,0,14.46,5.51,14.46,14.62,0,7.92-5.31,14.25-14.46,14.25s-14.4-6.32-14.4-14.25C268.66,251.19,274.92,245.68,283.06,245.68Zm0,23.3c5.51,0,7-4.93,7-9.54,0-4.23-2.25-8.19-7-8.19s-6.91,4.07-6.91,8.19C276.15,264,277.6,269,283.06,269Z"/><path class="cls-2" d="M303.32,234.44h7.18v6.85h-7.18Zm0,11.89h7.18V273.9h-7.18Z"/><path class="cls-2" d="M318,246.33h6.8v3.74H325c2.24-3.15,5.3-4.39,9-4.39,6.53,0,9.37,4.6,9.37,10.82v17.4H336.2V259.17c0-3.37-.05-7.92-4.66-7.92-5.19,0-6.32,5.62-6.32,9.16V273.9H318Z"/><path class="cls-2" d="M353.12,251.57h-5.3v-5.25h5.3v-5.52l7.18-2.3v7.82h6.37v5.25H360.3v12.85c0,2.36.64,4.55,3.37,4.55a6.36,6.36,0,0,0,3.27-.75l.22,5.68a18.83,18.83,0,0,1-5.31.65c-5.62,0-8.73-3.48-8.73-8.95Z"/><path class="cls-2" d="M407.22,243.38a19.37,19.37,0,0,0-7.61-1.61c-2.57,0-5.89,1.13-5.89,5.19,0,6.48,16.38,3.75,16.38,16.28,0,8.19-6.48,11.3-14,11.3a33,33,0,0,1-9.59-1.45l.7-6.75a18.09,18.09,0,0,0,8.47,2.3c2.83,0,6.64-1.45,6.64-4.82,0-7.12-16.39-4.18-16.39-16.55,0-8.35,6.48-11.41,13.07-11.41a28.2,28.2,0,0,1,8.94,1.34Z"/><path class="cls-2" d="M441.61,273.9h-6.8v-3.75h-.11a11.51,11.51,0,0,1-9.06,4.4c-6.53,0-9.37-4.61-9.37-10.82v-17.4h7.18v14.73c0,3.37.06,7.92,4.66,7.92,5.19,0,6.32-5.62,6.32-9.16V246.33h7.18Z"/><path class="cls-2" d="M449,246.33h6.85v3.91H456c1.61-2.68,4.34-4.55,8.57-4.55,8.46,0,11.57,6.75,11.57,14.35s-3.11,14.51-11.73,14.51a9.43,9.43,0,0,1-8.09-3.81h-.11v14.4H449ZM456.24,260c0,3.91,1.55,8.94,6.32,8.94s6.05-5.14,6.05-8.94-1.28-8.78-5.94-8.78S456.24,256.18,456.24,260Z"/><path class="cls-2" d="M481.73,246.33h6.85v3.91h.11c1.61-2.68,4.34-4.55,8.57-4.55,8.46,0,11.57,6.75,11.57,14.35s-3.11,14.51-11.73,14.51a9.43,9.43,0,0,1-8.09-3.81h-.11v14.4h-7.18ZM489,260c0,3.91,1.55,8.94,6.32,8.94s6.05-5.14,6.05-8.94-1.28-8.78-5.94-8.78S489,256.18,489,260Z"/><path class="cls-2" d="M527.1,245.68c8.2,0,14.46,5.51,14.46,14.62,0,7.92-5.31,14.25-14.46,14.25s-14.4-6.32-14.4-14.25C512.7,251.19,519,245.68,527.1,245.68Zm0,23.3c5.51,0,7-4.93,7-9.54,0-4.23-2.25-8.19-7-8.19s-6.9,4.07-6.9,8.19C520.2,264,521.64,269,527.1,269Z"/><path class="cls-2" d="M547.36,246.33h6.37v6.26h.1c.32-2.57,3.27-6.9,7.56-6.9a7.8,7.8,0,0,1,2.19.22v7.23a7.35,7.35,0,0,0-3.21-.59c-5.84,0-5.84,7.28-5.84,11.24V273.9h-7.18Z"/><path class="cls-2" d="M570.39,251.57h-5.3v-5.25h5.3v-5.52l7.18-2.3v7.82h6.37v5.25h-6.37v12.85c0,2.36.64,4.55,3.37,4.55a6.36,6.36,0,0,0,3.27-.75l.22,5.68a18.83,18.83,0,0,1-5.31.65c-5.62,0-8.73-3.48-8.73-8.95Z"/><path class="cls-2" d="M587,262.44v-5.89h14.09v5.89Z"/><path class="cls-2" d="M634.55,273.36a37.81,37.81,0,0,1-8.51,1.18c-12.1,0-20.51-6.05-20.51-18.69,0-12.8,7.82-20,20.51-20a24.61,24.61,0,0,1,8.46,1.56l-.54,6.32a15.43,15.43,0,0,0-8.09-2c-7.71,0-12.53,5.89-12.53,13.54s4.72,13.34,12.7,13.34a20.83,20.83,0,0,0,8.19-1.56Z"/><path class="cls-2" d="M661.55,272.35a18.91,18.91,0,0,1-9.48,2.2c-9.11,0-14.4-5.25-14.4-14.3,0-8,4.23-14.56,12.8-14.56,10.22,0,13.12,7,13.12,16.66H644.52c.32,4.45,3.43,7,7.87,7a18.64,18.64,0,0,0,9.16-2.79Zm-4.82-14.93c-.22-3.48-1.82-6.48-5.84-6.48s-6.05,2.78-6.37,6.48Z"/><path class="cls-2" d="M669.21,246.33H676v3.74h.11c2.24-3.15,5.3-4.39,9-4.39,6.53,0,9.37,4.6,9.37,10.82v17.4h-7.18V259.17c0-3.37-.05-7.92-4.66-7.92-5.19,0-6.32,5.62-6.32,9.16V273.9h-7.18Z"/><path class="cls-2" d="M704.3,251.57H699v-5.25h5.3v-5.52l7.18-2.3v7.82h6.37v5.25h-6.37v12.85c0,2.36.64,4.55,3.37,4.55a6.36,6.36,0,0,0,3.27-.75l.22,5.68a18.83,18.83,0,0,1-5.31.65c-5.62,0-8.73-3.48-8.73-8.95Z"/><path class="cls-2" d="M744.9,272.35a18.91,18.91,0,0,1-9.48,2.2c-9.11,0-14.4-5.25-14.4-14.3,0-8,4.23-14.56,12.8-14.56,10.22,0,13.12,7,13.12,16.66H727.87c.32,4.45,3.43,7,7.87,7a18.61,18.61,0,0,0,9.16-2.79Zm-4.82-14.93c-.22-3.48-1.82-6.48-5.84-6.48s-6.05,2.78-6.37,6.48Z"/><path class="cls-2" d="M752.73,246.33h6.37v6.26h.1c.32-2.57,3.27-6.9,7.56-6.9a7.8,7.8,0,0,1,2.19.22v7.23a7.35,7.35,0,0,0-3.21-.59c-5.84,0-5.84,7.28-5.84,11.24V273.9h-7.18Z"/><path class="cls-2" d="M790.91,251.57h-5.3v-5.25h5.3v-3.86c0-5.51,3.1-9.37,8.78-9.37a25.22,25.22,0,0,1,5.25.59l-.59,5.94a5.6,5.6,0,0,0-3.1-1c-2.41,0-3.16,2.09-3.16,4.23v3.43h6.27v5.25h-6.27V273.9h-7.18Z"/><path class="cls-2" d="M821.76,245.68c8.2,0,14.46,5.51,14.46,14.62,0,7.92-5.31,14.25-14.46,14.25s-14.4-6.32-14.4-14.25C807.36,251.19,813.63,245.68,821.76,245.68Zm0,23.3c5.51,0,7-4.93,7-9.54,0-4.23-2.25-8.19-7-8.19s-6.91,4.07-6.91,8.19C814.85,264,816.3,269,821.76,269Z"/><path class="cls-2" d="M842,246.33h6.37v6.26h.1c.32-2.57,3.27-6.9,7.56-6.9a7.8,7.8,0,0,1,2.19.22v7.23a7.35,7.35,0,0,0-3.21-.59c-5.84,0-5.84,7.28-5.84,11.24V273.9H842Z"/><path class="cls-2" d="M878.23,236.53h10.23c11.46,0,21.57,3.86,21.57,18.68s-10.12,18.69-21.57,18.69H878.23Zm7.5,31.48h4.17c6.27,0,12.32-4.65,12.32-12.8s-6.05-12.8-12.32-12.8h-4.17Z"/><path class="cls-2" d="M917.49,247.77a24.73,24.73,0,0,1,9.59-2.09c8.41,0,11.89,3.48,11.89,11.62v3.53c0,2.78.06,4.87.11,6.9s.16,4,.32,6.16h-6.32a32.18,32.18,0,0,1-.32-4.12h-.11a9.85,9.85,0,0,1-8.52,4.77c-4.87,0-9.64-2.95-9.64-8.2a8.1,8.1,0,0,1,4.71-7.87c2.73-1.34,6.27-1.61,9.26-1.61h4c0-4.45-2-5.94-6.21-5.94a14.43,14.43,0,0,0-8.52,3Zm8.41,21.53a6.1,6.1,0,0,0,5-2.47,9.15,9.15,0,0,0,1.5-5.68h-3.1c-3.21,0-8,.54-8,4.77C921.35,268.28,923.33,269.3,925.9,269.3Z"/><path class="cls-2" d="M948.39,251.57h-5.3v-5.25h5.3v-5.52l7.18-2.3v7.82h6.37v5.25h-6.37v12.85c0,2.36.64,4.55,3.37,4.55a6.36,6.36,0,0,0,3.27-.75l.22,5.68a18.83,18.83,0,0,1-5.31.65c-5.62,0-8.73-3.48-8.73-8.95Z"/><path class="cls-2" d="M968.11,247.77a24.73,24.73,0,0,1,9.59-2.09c8.41,0,11.89,3.48,11.89,11.62v3.53c0,2.78.06,4.87.11,6.9s.16,4,.32,6.16H983.7a32.18,32.18,0,0,1-.32-4.12h-.11a9.85,9.85,0,0,1-8.52,4.77c-4.87,0-9.64-2.95-9.64-8.2a8.1,8.1,0,0,1,4.71-7.87c2.73-1.34,6.27-1.61,9.26-1.61h4c0-4.45-2-5.94-6.21-5.94a14.43,14.43,0,0,0-8.52,3Zm8.41,21.53a6.1,6.1,0,0,0,5-2.47,9.15,9.15,0,0,0,1.5-5.68h-3.1c-3.21,0-8,.54-8,4.77C972,268.28,973.95,269.3,976.52,269.3Z"/><path class="cls-2" d="M1032.27,243.38a19.37,19.37,0,0,0-7.61-1.61c-2.57,0-5.89,1.13-5.89,5.19,0,6.48,16.38,3.75,16.38,16.28,0,8.19-6.48,11.3-14,11.3a33,33,0,0,1-9.59-1.45l.7-6.75a18.09,18.09,0,0,0,8.46,2.3c2.84,0,6.65-1.45,6.65-4.82,0-7.12-16.39-4.18-16.39-16.55,0-8.35,6.48-11.41,13.07-11.41a28.2,28.2,0,0,1,8.94,1.34Z"/><path class="cls-2" d="M1059.22,252.27a10.76,10.76,0,0,0-4.88-1c-4.45,0-7.28,3.53-7.28,8.73s2.42,9,7.45,9a15.34,15.34,0,0,0,5.51-1.28l.32,5.94a23.55,23.55,0,0,1-7.18.91c-9,0-13.6-6.16-13.6-14.57,0-8,4.71-14.3,13.34-14.3a23.42,23.42,0,0,1,7,.91Z"/><path class="cls-2" d="M1065.28,234.44h7.18v6.85h-7.18Zm0,11.89h7.18V273.9h-7.18Z"/><path class="cls-2" d="M1102.12,272.35a18.91,18.91,0,0,1-9.48,2.2c-9.11,0-14.4-5.25-14.4-14.3,0-8,4.23-14.56,12.8-14.56,10.22,0,13.12,7,13.12,16.66h-19.06c.32,4.45,3.43,7,7.87,7a18.64,18.64,0,0,0,9.16-2.79Zm-4.82-14.93c-.22-3.48-1.82-6.48-5.84-6.48s-6.05,2.78-6.37,6.48Z"/><path class="cls-2" d="M1109.79,246.33h6.8v3.74h.11c2.24-3.15,5.3-4.39,9-4.39,6.53,0,9.37,4.6,9.37,10.82v17.4h-7.18V259.17c0-3.37-.05-7.92-4.66-7.92-5.19,0-6.32,5.62-6.32,9.16V273.9h-7.18Z"/><path class="cls-2" d="M1160.4,252.27a10.76,10.76,0,0,0-4.88-1c-4.45,0-7.28,3.53-7.28,8.73s2.42,9,7.45,9a15.34,15.34,0,0,0,5.51-1.28l.32,5.94a23.55,23.55,0,0,1-7.18.91c-9,0-13.6-6.16-13.6-14.57,0-8,4.71-14.3,13.34-14.3a23.42,23.42,0,0,1,7,.91Z"/><path class="cls-2" d="M1188.41,272.35a18.91,18.91,0,0,1-9.48,2.2c-9.11,0-14.4-5.25-14.4-14.3,0-8,4.23-14.56,12.8-14.56,10.22,0,13.12,7,13.12,16.66h-19.06c.32,4.45,3.43,7,7.87,7a18.61,18.61,0,0,0,9.16-2.79Zm-4.82-14.93c-.22-3.48-1.82-6.48-5.84-6.48s-6.05,2.78-6.37,6.48Z"/><path class="cls-2" d="M1211,236.53h8.09c8,0,17.62-.27,17.62,10.12a8.54,8.54,0,0,1-7.71,8.68v.11c2,.16,3.21,2.2,4,3.86l6,14.62h-8.35l-4.5-11.67c-1.08-2.79-2-3.86-5.2-3.86h-2.41V273.9H1211Zm7.5,16h2.47c3.69,0,7.92-.53,7.92-5.19,0-4.5-4.18-4.88-7.92-4.88h-2.47Z"/><path class="cls-2" d="M1265.82,272.35a18.91,18.91,0,0,1-9.48,2.2c-9.11,0-14.4-5.25-14.4-14.3,0-8,4.23-14.56,12.8-14.56,10.22,0,13.12,7,13.12,16.66h-19.06c.32,4.45,3.43,7,7.87,7a18.61,18.61,0,0,0,9.16-2.79ZM1261,257.41c-.22-3.48-1.82-6.48-5.84-6.48s-6.05,2.78-6.37,6.48Z"/><path class="cls-2" d="M1289.87,252.11a17.67,17.67,0,0,0-6.42-1.18c-1.93,0-4.23.7-4.23,3.05,0,4.39,12.48,1.61,12.48,11.57,0,6.42-5.73,9-11.57,9a32.21,32.21,0,0,1-8.14-1.18l.43-5.89a15.75,15.75,0,0,0,7.07,1.82c1.82,0,4.71-.7,4.71-3.38,0-5.41-12.48-1.71-12.48-11.67,0-5.94,5.19-8.57,10.82-8.57a33.14,33.14,0,0,1,7.82,1Z"/><path class="cls-2" d="M1319.38,272.35a18.91,18.91,0,0,1-9.48,2.2c-9.11,0-14.4-5.25-14.4-14.3,0-8,4.23-14.56,12.8-14.56,10.22,0,13.12,7,13.12,16.66h-19.06c.32,4.45,3.43,7,7.87,7a18.64,18.64,0,0,0,9.16-2.79Zm-4.82-14.93c-.22-3.48-1.82-6.48-5.84-6.48s-6.05,2.78-6.37,6.48Z"/><path class="cls-2" d="M1328.27,247.77a24.7,24.7,0,0,1,9.59-2.09c8.41,0,11.89,3.48,11.89,11.62v3.53c0,2.78.06,4.87.11,6.9s.16,4,.32,6.16h-6.32a32.18,32.18,0,0,1-.32-4.12h-.11a9.85,9.85,0,0,1-8.52,4.77c-4.87,0-9.64-2.95-9.64-8.2a8.1,8.1,0,0,1,4.71-7.87c2.73-1.34,6.27-1.61,9.26-1.61h4c0-4.45-2-5.94-6.21-5.94a14.43,14.43,0,0,0-8.52,3Zm8.41,21.53a6.1,6.1,0,0,0,5-2.47,9.15,9.15,0,0,0,1.5-5.68h-3.1c-3.21,0-8,.54-8,4.77C1332.13,268.28,1334.11,269.3,1336.68,269.3Z"/><path class="cls-2" d="M1357,246.33h6.37v6.26h.1c.32-2.57,3.27-6.9,7.56-6.9a7.8,7.8,0,0,1,2.19.22v7.23a7.35,7.35,0,0,0-3.21-.59c-5.84,0-5.84,7.28-5.84,11.24V273.9H1357Z"/><path class="cls-2" d="M1394.59,252.27a10.76,10.76,0,0,0-4.88-1c-4.45,0-7.28,3.53-7.28,8.73s2.41,9,7.44,9a15.34,15.34,0,0,0,5.51-1.28l.32,5.94a23.55,23.55,0,0,1-7.18.91c-9,0-13.6-6.16-13.6-14.57,0-8,4.71-14.3,13.34-14.3a23.42,23.42,0,0,1,7,.91Z"/><path class="cls-2" d="M1400.48,233.74h7.18v16.33h.11a10.27,10.27,0,0,1,8.68-4.39c6.53,0,9.37,4.6,9.37,10.82v17.4h-7.18V259.17c0-3.37-.05-7.92-4.66-7.92-5.19,0-6.32,5.62-6.32,9.16V273.9h-7.18Z"/><path class="cls-2" d="M249.58,292.15h8.09c8,0,17.62-.27,17.62,10.12a8.54,8.54,0,0,1-7.71,8.68V311c2,.16,3.21,2.2,4,3.86l6,14.62h-8.35l-4.5-11.67c-1.08-2.79-2-3.86-5.2-3.86h-2.41v15.53h-7.5Zm7.5,16h2.47c3.69,0,7.92-.53,7.92-5.19,0-4.5-4.18-4.88-7.92-4.88h-2.47Z"/><path class="cls-2" d="M304.43,328a18.91,18.91,0,0,1-9.48,2.2c-9.11,0-14.4-5.25-14.4-14.3,0-8,4.23-14.56,12.8-14.56,10.22,0,13.12,7,13.12,16.66H287.41c.32,4.45,3.43,7,7.87,7a18.61,18.61,0,0,0,9.16-2.79ZM299.62,313c-.22-3.48-1.82-6.48-5.84-6.48s-6.05,2.78-6.37,6.48Z"/><path class="cls-2" d="M328.48,307.73a17.69,17.69,0,0,0-6.42-1.18c-1.93,0-4.24.7-4.24,3.05,0,4.39,12.48,1.61,12.48,11.57,0,6.42-5.73,9-11.57,9a32.21,32.21,0,0,1-8.14-1.18l.43-5.89a15.75,15.75,0,0,0,7.07,1.82c1.82,0,4.71-.7,4.71-3.38,0-5.41-12.48-1.71-12.48-11.67,0-5.94,5.19-8.57,10.82-8.57a33.14,33.14,0,0,1,7.82,1Z"/><path class="cls-2" d="M358,328a18.91,18.91,0,0,1-9.48,2.2c-9.11,0-14.4-5.25-14.4-14.3,0-8,4.23-14.56,12.8-14.56,10.22,0,13.12,7,13.12,16.66H341c.32,4.45,3.43,7,7.87,7a18.61,18.61,0,0,0,9.16-2.79ZM353.18,313c-.22-3.48-1.82-6.48-5.84-6.48s-6.05,2.78-6.37,6.48Z"/><path class="cls-2" d="M366.89,303.39a24.7,24.7,0,0,1,9.59-2.09c8.41,0,11.89,3.48,11.89,11.62v3.53c0,2.78.06,4.87.11,6.9s.16,4,.32,6.16h-6.32a32.18,32.18,0,0,1-.32-4.12H382a9.85,9.85,0,0,1-8.52,4.77c-4.87,0-9.64-2.95-9.64-8.2a8.1,8.1,0,0,1,4.71-7.87c2.73-1.34,6.27-1.61,9.26-1.61h4c0-4.45-2-5.94-6.21-5.94a14.43,14.43,0,0,0-8.52,3Zm8.41,21.53a6.1,6.1,0,0,0,5-2.47,9.15,9.15,0,0,0,1.5-5.68h-3.1c-3.21,0-8,.54-8,4.77C370.75,323.9,372.73,324.92,375.3,324.92Z"/><path class="cls-2" d="M395.61,302H402v6.26h.1c.32-2.57,3.27-6.9,7.56-6.9a7.8,7.8,0,0,1,2.19.22v7.23a7.35,7.35,0,0,0-3.21-.59c-5.84,0-5.84,7.28-5.84,11.24v10.12h-7.18Z"/><path class="cls-2" d="M433.21,307.89a10.76,10.76,0,0,0-4.88-1c-4.45,0-7.28,3.53-7.28,8.73s2.41,9,7.44,9a15.34,15.34,0,0,0,5.51-1.28l.32,5.94a23.55,23.55,0,0,1-7.18.91c-9,0-13.6-6.16-13.6-14.57,0-8,4.71-14.3,13.34-14.3a23.42,23.42,0,0,1,7,.91Z"/><path class="cls-2" d="M439.1,289.36h7.18v16.33h.11a10.27,10.27,0,0,1,8.68-4.39c6.53,0,9.37,4.6,9.37,10.82v17.4h-7.18V314.8c0-3.37-.05-7.92-4.66-7.92-5.19,0-6.32,5.62-6.32,9.16v13.49H439.1Z"/><path class="cls-2" d="M503.85,291.5c11.73,0,18.32,7.93,18.32,19.22s-6.48,19.44-18.32,19.44c-12,0-18.31-8-18.31-19.44S492,291.5,503.85,291.5Zm0,32.77c7.66,0,10.5-6.8,10.5-13.55,0-6.58-3.05-13.33-10.5-13.33s-10.5,6.75-10.5,13.33C493.35,317.48,496.19,324.28,503.85,324.28Z"/><path class="cls-2" d="M528.56,302h6.37v6.26h.1c.32-2.57,3.27-6.9,7.56-6.9a7.8,7.8,0,0,1,2.19.22v7.23a7.35,7.35,0,0,0-3.21-.59c-5.84,0-5.84,7.28-5.84,11.24v10.12h-7.18Z"/><path class="cls-2" d="M574.56,302v24.9c0,7.49-3,14.56-14.56,14.56a24.34,24.34,0,0,1-9.54-1.87l.59-6.11a20.65,20.65,0,0,0,8,2.41c7.92,0,8.3-5.94,8.3-10.7h-.11c-1.33,2.35-4.55,4.39-8.57,4.39-8.14,0-11.24-6.53-11.24-13.92,0-6.64,3.43-14.3,11.67-14.3,3.64,0,6.48,1.23,8.46,4.39h.11V302Zm-7.18,13.49c0-4.72-1.82-8.57-6-8.57-4.88,0-6.43,4.5-6.43,8.73,0,3.75,2,8.35,6.11,8.35C565.56,324,567.38,320,567.38,315.44Z"/><path class="cls-2" d="M583.19,303.39a24.73,24.73,0,0,1,9.59-2.09c8.41,0,11.89,3.48,11.89,11.62v3.53c0,2.78.06,4.87.11,6.9s.16,4,.32,6.16h-6.32a32.18,32.18,0,0,1-.32-4.12h-.11a9.85,9.85,0,0,1-8.52,4.77c-4.87,0-9.64-2.95-9.64-8.2a8.1,8.1,0,0,1,4.71-7.87c2.73-1.34,6.27-1.61,9.26-1.61h4c0-4.45-2-5.94-6.21-5.94a14.43,14.43,0,0,0-8.52,3Zm8.41,21.53a6.1,6.1,0,0,0,5-2.47,9.15,9.15,0,0,0,1.5-5.68H595c-3.21,0-8,.54-8,4.77C587,323.9,589,324.92,591.6,324.92Z"/><path class="cls-2" d="M611.74,302h6.8v3.74h.11c2.24-3.15,5.3-4.39,9-4.39,6.53,0,9.37,4.6,9.37,10.82v17.4h-7.18V314.8c0-3.37-.05-7.92-4.66-7.92-5.19,0-6.32,5.62-6.32,9.16v13.49h-7.18Z"/><path class="cls-2" d="M644.63,290.06h7.18v6.85h-7.18Zm0,11.89h7.18v27.58h-7.18Z"/><path class="cls-2" d="M658.18,302H680v5.89L666.32,324h14.2v5.57H657.59v-5.84l14-16.18H658.18Z"/><path class="cls-2" d="M687.37,303.39a24.7,24.7,0,0,1,9.59-2.09c8.41,0,11.89,3.48,11.89,11.62v3.53c0,2.78.06,4.87.11,6.9s.16,4,.32,6.16H703a32.18,32.18,0,0,1-.32-4.12h-.11a9.85,9.85,0,0,1-8.52,4.77c-4.87,0-9.64-2.95-9.64-8.2a8.1,8.1,0,0,1,4.71-7.87c2.73-1.34,6.27-1.61,9.26-1.61h4c0-4.45-2-5.94-6.21-5.94a14.43,14.43,0,0,0-8.52,3Zm8.41,21.53a6.1,6.1,0,0,0,5-2.47,9.15,9.15,0,0,0,1.5-5.68h-3.1c-3.21,0-8,.54-8,4.77C691.23,323.9,693.21,324.92,695.78,324.92Z"/><path class="cls-2" d="M718.28,307.2H713V302h5.3v-5.52l7.18-2.3V302h6.37v5.25h-6.37V320c0,2.36.64,4.55,3.37,4.55a6.36,6.36,0,0,0,3.27-.75l.22,5.68a18.83,18.83,0,0,1-5.31.65c-5.62,0-8.73-3.48-8.73-8.95Z"/><path class="cls-2" d="M736.92,290.06h7.18v6.85h-7.18Zm0,11.89h7.18v27.58h-7.18Z"/><path class="cls-2" d="M764.29,301.31c8.2,0,14.46,5.51,14.46,14.62,0,7.92-5.31,14.25-14.46,14.25s-14.4-6.32-14.4-14.25C749.89,306.82,756.15,301.31,764.29,301.31Zm0,23.3c5.51,0,7-4.93,7-9.54,0-4.23-2.25-8.19-7-8.19s-6.91,4.07-6.91,8.19C757.38,319.62,758.83,324.6,764.29,324.6Z"/><path class="cls-2" d="M784.38,302h6.8v3.74h.11c2.25-3.15,5.3-4.39,9-4.39,6.53,0,9.37,4.6,9.37,10.82v17.4h-7.18V314.8c0-3.37-.05-7.92-4.66-7.92-5.19,0-6.32,5.62-6.32,9.16v13.49h-7.18Z"/><path class="cls-2" d="M844.64,301.31c8.2,0,14.46,5.51,14.46,14.62,0,7.92-5.31,14.25-14.46,14.25s-14.4-6.32-14.4-14.25C830.23,306.82,836.5,301.31,844.64,301.31Zm0,23.3c5.51,0,7-4.93,7-9.54,0-4.23-2.25-8.19-7-8.19s-6.91,4.07-6.91,8.19C837.72,319.62,839.17,324.6,844.64,324.6Z"/><path class="cls-2" d="M867.35,307.2h-5.3V302h5.3v-3.86c0-5.51,3.11-9.37,8.78-9.37a25.22,25.22,0,0,1,5.25.59l-.59,5.94a5.6,5.6,0,0,0-3.1-1c-2.41,0-3.16,2.09-3.16,4.23V302h6.27v5.25h-6.27v22.33h-7.18Z"/><path class="cls-2" d="M900.45,292.15H908v37.38h-7.5Z"/><path class="cls-2" d="M915.35,302h6.8v3.74h.11c2.25-3.15,5.3-4.39,9-4.39,6.53,0,9.37,4.6,9.37,10.82v17.4H933.5V314.8c0-3.37-.05-7.92-4.66-7.92-5.19,0-6.32,5.62-6.32,9.16v13.49h-7.18Z"/><path class="cls-2" d="M950.7,307.2h-5.3V302h5.3v-3.86c0-5.51,3.1-9.37,8.78-9.37a25.22,25.22,0,0,1,5.25.59l-.59,5.94a5.6,5.6,0,0,0-3.1-1c-2.41,0-3.16,2.09-3.16,4.23V302h6.27v5.25h-6.27v22.33H950.7Z"/><path class="cls-2" d="M981.55,301.31c8.2,0,14.46,5.51,14.46,14.62,0,7.92-5.31,14.25-14.46,14.25s-14.4-6.32-14.4-14.25C967.15,306.82,973.41,301.31,981.55,301.31Zm0,23.3c5.51,0,7-4.93,7-9.54,0-4.23-2.25-8.19-7-8.19s-6.91,4.07-6.91,8.19C974.64,319.62,976.09,324.6,981.55,324.6Z"/><path class="cls-2" d="M1001.8,302h6.37v6.26h.1c.32-2.57,3.27-6.9,7.56-6.9a7.8,7.8,0,0,1,2.19.22v7.23a7.35,7.35,0,0,0-3.21-.59c-5.84,0-5.84,7.28-5.84,11.24v10.12h-7.18Z"/><path class="cls-2" d="M1022.37,302h6.7v3.85h.11a9.72,9.72,0,0,1,8.2-4.5c3.85,0,6.58,1.45,8.14,4.88a9.45,9.45,0,0,1,8.62-4.88c6.8,0,8.73,4.66,8.73,10.82v17.4h-7.18V313.09c0-2.57,0-6.21-4.12-6.21-4.77,0-5.36,5.67-5.36,9.26v13.39H1039V313.09c0-2.57,0-6.21-4.12-6.21-4.77,0-5.36,5.67-5.36,9.26v13.39h-7.18Z"/><path class="cls-2" d="M1071.33,303.39a24.73,24.73,0,0,1,9.59-2.09c8.41,0,11.89,3.48,11.89,11.62v3.53c0,2.78.06,4.87.11,6.9s.16,4,.32,6.16h-6.32a32.18,32.18,0,0,1-.32-4.12h-.11a9.85,9.85,0,0,1-8.52,4.77c-4.87,0-9.64-2.95-9.64-8.2a8.1,8.1,0,0,1,4.71-7.87c2.73-1.34,6.27-1.61,9.26-1.61h4c0-4.45-2-5.94-6.21-5.94a14.43,14.43,0,0,0-8.52,3Zm8.41,21.53a6.1,6.1,0,0,0,5-2.47,9.15,9.15,0,0,0,1.5-5.68h-3.1c-3.21,0-8,.54-8,4.77C1075.18,323.9,1077.16,324.92,1079.74,324.92Z"/><path class="cls-2" d="M1102.24,307.2h-5.3V302h5.3v-5.52l7.18-2.3V302h6.37v5.25h-6.37V320c0,2.36.64,4.55,3.37,4.55a6.36,6.36,0,0,0,3.27-.75l.22,5.68a18.83,18.83,0,0,1-5.31.65c-5.62,0-8.73-3.48-8.73-8.95Z"/><path class="cls-2" d="M1120.88,290.06h7.18v6.85h-7.18Zm0,11.89h7.18v27.58h-7.18Z"/><path class="cls-2" d="M1148.25,301.31c8.2,0,14.46,5.51,14.46,14.62,0,7.92-5.31,14.25-14.46,14.25s-14.4-6.32-14.4-14.25C1133.84,306.82,1140.11,301.31,1148.25,301.31Zm0,23.3c5.51,0,7-4.93,7-9.54,0-4.23-2.25-8.19-7-8.19s-6.9,4.07-6.9,8.19C1141.34,319.62,1142.78,324.6,1148.25,324.6Z"/><path class="cls-2" d="M1168.34,302h6.8v3.74h.11c2.24-3.15,5.3-4.39,9-4.39,6.53,0,9.37,4.6,9.37,10.82v17.4h-7.18V314.8c0-3.37-.05-7.92-4.66-7.92-5.19,0-6.32,5.62-6.32,9.16v13.49h-7.18Z"/><path class="cls-2" d="M1217.18,303.39a24.7,24.7,0,0,1,9.59-2.09c8.41,0,11.89,3.48,11.89,11.62v3.53c0,2.78.06,4.87.11,6.9s.16,4,.32,6.16h-6.32a32.18,32.18,0,0,1-.32-4.12h-.11a9.85,9.85,0,0,1-8.52,4.77c-4.87,0-9.64-2.95-9.64-8.2a8.1,8.1,0,0,1,4.71-7.87c2.73-1.34,6.27-1.61,9.26-1.61h4c0-4.45-2-5.94-6.21-5.94a14.43,14.43,0,0,0-8.52,3Zm8.41,21.53a6.1,6.1,0,0,0,5-2.47,9.15,9.15,0,0,0,1.5-5.68H1229c-3.21,0-8,.54-8,4.77C1221,323.9,1223,324.92,1225.59,324.92Z"/><path class="cls-2" d="M1245.73,302h6.8v3.74h.11c2.25-3.15,5.3-4.39,9-4.39,6.53,0,9.37,4.6,9.37,10.82v17.4h-7.18V314.8c0-3.37-.05-7.92-4.66-7.92-5.19,0-6.32,5.62-6.32,9.16v13.49h-7.18Z"/><path class="cls-2" d="M1296.83,326.42h-.11a10.25,10.25,0,0,1-8.46,3.75c-8.46,0-11.57-7-11.57-14.51s3.1-14.35,11.57-14.35a9.79,9.79,0,0,1,8.25,3.86h.11v-15.8h7.18v40.17h-7Zm-6.59-1.82c4.77,0,6.32-5,6.32-8.94s-1.82-8.78-6.42-8.78-6,5.08-6,8.78S1285.53,324.6,1290.25,324.6Z"/><path class="cls-2" d="M1346.81,299a19.37,19.37,0,0,0-7.61-1.61c-2.57,0-5.89,1.13-5.89,5.19,0,6.48,16.38,3.75,16.38,16.28,0,8.19-6.48,11.3-14,11.3a33,33,0,0,1-9.59-1.45l.7-6.75a18.09,18.09,0,0,0,8.47,2.3c2.83,0,6.64-1.45,6.64-4.82,0-7.12-16.39-4.18-16.39-16.55,0-8.35,6.48-11.41,13.07-11.41a28.2,28.2,0,0,1,8.94,1.34Z"/><path class="cls-2" d="M1367.33,322.08h.11l6.64-20.13h7.28L1371,329.31c-2.3,6.11-4,12.1-11.46,12.1a18.37,18.37,0,0,1-5.09-.75l.48-5.31a10.57,10.57,0,0,0,3.7.48c2.89,0,4.65-2,4.65-4.93l-10.55-29h7.93Z"/><path class="cls-2" d="M1402,307.73a17.67,17.67,0,0,0-6.42-1.18c-1.93,0-4.23.7-4.23,3.05,0,4.39,12.48,1.61,12.48,11.57,0,6.42-5.73,9-11.57,9a32.21,32.21,0,0,1-8.14-1.18l.43-5.89a15.75,15.75,0,0,0,7.07,1.82c1.82,0,4.71-.7,4.71-3.38,0-5.41-12.48-1.71-12.48-11.67,0-5.94,5.19-8.57,10.82-8.57a33.14,33.14,0,0,1,7.82,1Z"/><path class="cls-2" d="M1411.79,307.2h-5.3V302h5.3v-5.52l7.18-2.3V302h6.37v5.25H1419V320c0,2.36.64,4.55,3.37,4.55a6.36,6.36,0,0,0,3.27-.75l.22,5.68a18.83,18.83,0,0,1-5.31.65c-5.62,0-8.73-3.48-8.73-8.95Z"/><path class="cls-2" d="M1452.39,328a18.91,18.91,0,0,1-9.48,2.2c-9.11,0-14.4-5.25-14.4-14.3,0-8,4.23-14.56,12.8-14.56,10.22,0,13.12,7,13.12,16.66h-19.06c.32,4.45,3.43,7,7.87,7a18.64,18.64,0,0,0,9.16-2.79ZM1447.57,313c-.22-3.48-1.82-6.48-5.84-6.48s-6.05,2.78-6.37,6.48Z"/><path class="cls-2" d="M1459.94,302h6.7v3.85h.11a9.72,9.72,0,0,1,8.2-4.5c3.85,0,6.58,1.45,8.14,4.88a9.45,9.45,0,0,1,8.62-4.88c6.8,0,8.73,4.66,8.73,10.82v17.4h-7.18V313.09c0-2.57,0-6.21-4.12-6.21-4.77,0-5.36,5.67-5.36,9.26v13.39h-7.18V313.09c0-2.57,0-6.21-4.12-6.21-4.77,0-5.36,5.67-5.36,9.26v13.39h-7.18Z"/><path class="cls-2" d="M1524.06,307.73a17.67,17.67,0,0,0-6.42-1.18c-1.93,0-4.23.7-4.23,3.05,0,4.39,12.48,1.61,12.48,11.57,0,6.42-5.73,9-11.57,9a32.21,32.21,0,0,1-8.14-1.18l.43-5.89a15.75,15.75,0,0,0,7.07,1.82c1.82,0,4.71-.7,4.71-3.38,0-5.41-12.48-1.71-12.48-11.67,0-5.94,5.19-8.57,10.82-8.57a33.14,33.14,0,0,1,7.82,1Z"/></g></g></svg>