<svg xmlns="http://www.w3.org/2000/svg" viewBox="0 0 423.93 496.19"><defs><style>.cls-1,.cls-3{opacity:0.4;}.cls-2,.cls-3{fill:#040000;}</style></defs><title>logo_m</title><g id="レイヤー_2" data-name="レイヤー 2"><g id="レイヤー_1-2" data-name="レイヤー 1"><g class="cls-1"><rect class="cls-2" x="224.19" y="64.64" width="13.26" height="52.53"/><rect class="cls-2" x="256.32" y="77.14" width="10.63" height="52.53"/><rect class="cls-2" x="241.16" y="70.89" width="12.06" height="52.53"/><polygon class="cls-2" points="205.66 58.38 205.66 110.92 219.84 110.92 219.84 58.39 205.66 58.38"/><rect class="cls-2" x="140.64" y="31.71" width="6.28" height="52.53"/><rect class="cls-2" x="269.44" y="83.38" width="8.95" height="52.54"/><rect class="cls-2" x="127.09" y="20.72" width="3.37" height="52.53"/><rect class="cls-2" x="111" width="1.86" height="52.53"/><rect class="cls-2" x="187.14" y="52.11" width="13.56" height="52.54"/><polygon class="cls-2" points="154.99 39.3 154.99 91.84 163.94 91.84 163.94 39.31 154.99 39.3"/><polygon class="cls-2" points="170.16 45.75 170.16 98.28 181.55 98.28 181.55 45.74 170.16 45.75"/><rect class="cls-2" x="288.46" y="95.91" width="4.59" height="52.53"/><path class="cls-2" d="M293.68,102.59v52.53c0-.79,1.67,0,1.67,0V102.59Z"/><rect class="cls-2" x="280.26" y="89.64" width="6.97" height="52.53"/></g><path class="cls-3" d="M111,155.12a11.74,11.74,0,0,0,2,6.2,28.54,28.54,0,0,0,5.78,6.44,68.43,68.43,0,0,0,8.27,6c3.34,2.1,7.1,4.18,11.11,6.21,4.23,2.13,8.75,4.19,13.43,6.21,5,2.15,10.26,4.24,15.46,6.2,5.86,2.22,11.71,4.3,17.3,6.21,6.83,2.34,13.28,4.44,18.84,6.21s12,3.87,18.83,6.21c5.59,1.91,11.43,4,17.29,6.2,5.22,2,10.43,4.06,15.48,6.21,4.67,2,9.19,4.08,13.42,6.22,4,2,7.77,4.1,11.12,6.21a66.71,66.71,0,0,1,8.52,6.21,28.09,28.09,0,0,1,5.52,6.21,11.74,11.74,0,0,1,2,6.2V201.93a11.77,11.77,0,0,0-2-6.2,27.65,27.65,0,0,0-5.52-6.21,67.7,67.7,0,0,0-8.52-6.22c-3.35-2.1-7.1-4.17-11.12-6.21-4.23-2.13-8.75-4.19-13.42-6.21-5.05-2.15-10.26-4.23-15.48-6.2-5.86-2.22-11.7-4.3-17.29-6.21-6.83-2.34-13.28-4.43-18.83-6.21s-12-3.87-18.84-6.21c-5.59-1.91-11.44-4-17.3-6.2-5.2-2-10.42-4.06-15.46-6.21-4.68-2-9.2-4.08-13.43-6.21-4-2-7.77-4.11-11.11-6.21a68.43,68.43,0,0,1-8.27-6,28.54,28.54,0,0,1-5.78-6.44,11.69,11.69,0,0,1-2-6.2Z"/><path class="cls-2" d="M295.35,254.46a11.75,11.75,0,0,1-2,6.21,28.76,28.76,0,0,1-5.78,6.44,69.22,69.22,0,0,1-8.27,6c-3.35,2.11-7.1,4.19-11.12,6.22-4.22,2.12-8.74,4.19-13.41,6.2-5.05,2.16-10.26,4.24-15.47,6.21-5.87,2.21-11.72,4.3-17.3,6.21-6.84,2.34-13.28,4.42-18.83,6.21s-12,3.86-18.85,6.2c-5.58,1.92-11.42,4-17.29,6.21-5.2,2-10.42,4.05-15.46,6.21-4.68,2-9.2,4.08-13.43,6.21-4,2-7.77,4.11-11.12,6.2a69.64,69.64,0,0,0-8.53,6.23,28.35,28.35,0,0,0-5.52,6.2,11.87,11.87,0,0,0-2,6.21V301.28a11.82,11.82,0,0,1,2-6.21,28.87,28.87,0,0,1,5.52-6.22,70.67,70.67,0,0,1,8.53-6.2c3.35-2.1,7.1-4.19,11.12-6.21,4.23-2.13,8.75-4.2,13.43-6.21,5-2.15,10.26-4.24,15.46-6.21,5.87-2.21,11.71-4.29,17.29-6.2,6.84-2.34,13.29-4.44,18.85-6.21s12-3.87,18.83-6.21c5.58-1.91,11.43-4,17.3-6.21,5.21-2,10.42-4.05,15.47-6.2,4.67-2,9.19-4.08,13.41-6.23,4-2,7.77-4.09,11.12-6.19a70.36,70.36,0,0,0,8.27-6,28.54,28.54,0,0,0,5.78-6.44,11.77,11.77,0,0,0,2-6.21Z"/><path class="cls-2" d="M295.35,155.12a11.74,11.74,0,0,1-2,6.2,28.54,28.54,0,0,1-5.78,6.44,70.36,70.36,0,0,1-8.27,6c-3.35,2.1-7.1,4.18-11.12,6.21-4.22,2.13-8.74,4.19-13.41,6.21-5.05,2.15-10.26,4.24-15.47,6.2-5.87,2.22-11.72,4.3-17.3,6.21-6.84,2.34-13.28,4.44-18.83,6.21s-12,3.87-18.85,6.21c-5.58,1.91-11.42,4-17.29,6.2-5.2,2-10.42,4.06-15.46,6.21-4.68,2-9.2,4.08-13.43,6.22-4,2-7.77,4.1-11.12,6.21a67.58,67.58,0,0,0-8.53,6.21,28.61,28.61,0,0,0-5.52,6.21,11.81,11.81,0,0,0-2,6.2V201.93a11.84,11.84,0,0,1,2-6.2,28.15,28.15,0,0,1,5.52-6.21A68.59,68.59,0,0,1,127,183.3c3.35-2.1,7.1-4.17,11.12-6.21,4.23-2.13,8.75-4.19,13.43-6.21,5-2.15,10.26-4.23,15.46-6.2,5.87-2.22,11.71-4.3,17.29-6.21,6.84-2.34,13.29-4.43,18.85-6.21s12-3.87,18.83-6.21c5.58-1.91,11.43-4,17.3-6.2,5.21-2,10.42-4.06,15.47-6.21,4.67-2,9.19-4.08,13.41-6.21,4-2,7.77-4.11,11.12-6.21a70.36,70.36,0,0,0,8.27-6,28.54,28.54,0,0,0,5.78-6.44,11.74,11.74,0,0,0,2-6.2Z"/><rect class="cls-2" x="168.91" y="64.64" width="13.26" height="52.53"/><rect class="cls-2" x="139.4" y="77.14" width="10.63" height="52.53"/><rect class="cls-2" x="153.13" y="70.89" width="12.06" height="52.53"/><polygon class="cls-2" points="200.69 58.38 200.69 110.92 186.51 110.92 186.51 58.39 200.69 58.38"/><rect class="cls-2" x="259.43" y="31.71" width="6.29" height="52.53"/><rect class="cls-2" x="127.96" y="83.38" width="8.95" height="52.54"/><rect class="cls-2" x="275.9" y="20.72" width="3.36" height="52.53"/><rect class="cls-2" x="293.49" width="1.86" height="52.53"/><rect class="cls-2" x="205.66" y="52.11" width="13.56" height="52.54"/><polygon class="cls-2" points="251.36 39.3 251.36 91.84 242.41 91.84 242.41 39.31 251.36 39.3"/><polygon class="cls-2" points="236.2 45.75 236.2 98.28 224.8 98.28 224.8 45.74 236.2 45.75"/><rect class="cls-2" x="113.3" y="95.91" width="4.59" height="52.53"/><path class="cls-2" d="M112.68,102.59v52.53c0-.79-1.68,0-1.68,0V102.59Z"/><rect class="cls-2" x="119.13" y="89.64" width="6.97" height="52.53"/><path class="cls-2" d="M0,389.26H31c31.17,0,56,19.28,56,51.65,0,35.25-21.38,53.47-56,53.47H0Zm15.06,91.87H30.88c25.9,0,40.21-12.5,40.21-39.61,0-24.55-16.71-39-38.4-39H15.06Z"/><path class="cls-2" d="M108.77,389.26h28.47c21.84,0,36.9,7.08,36.9,26.5,0,14.46-8.44,21.69-21.69,25v.3c14.31,1.21,24.41,10.55,24.41,25.31,0,22.59-18.68,28-40.07,28h-28Zm15.07,44.88h8.28c14.61,0,27-1.36,27-16.87,0-12.5-10.69-15.66-19.43-15.66H123.84Zm0,47.89h11.29c13.56,0,25.76-2.86,25.76-17,0-16.27-14.31-18.53-27.27-18.53h-9.78Z"/><path class="cls-2" d="M274.32,406.57a42.3,42.3,0,0,0-21.68-5.87c-24.26,0-40.37,17.48-40.37,41.12,0,24.7,17.77,41.12,39.61,41.12,7.53,0,17.62-2,22.9-5.12l.9,14.61c-8,3.31-17.77,3.76-24,3.76-33.28,0-55.42-21.38-55.42-54.82,0-32.38,23.49-53.93,55.57-53.93A57.92,57.92,0,0,1,275.53,392Z"/><path class="cls-2" d="M293.63,389.26h15.06v91.87h44v13.25h-59Z"/><path class="cls-2" d="M416.85,405.07c-7.68-3-11.9-4.37-19.73-4.37-8.43,0-18.37,3-18.37,14,0,20.18,45.18,15.51,45.18,50.16,0,22.44-17.32,31.32-38.4,31.32-7.39,0-14.62-2.11-21.55-4.37l1.51-14c5.12,2.11,14.16,5.12,21.84,5.12,8.58,0,20.64-4.82,20.64-17.17,0-23.5-45.19-17-45.19-49.71,0-18.67,14.76-28.62,33.74-28.62A70.16,70.16,0,0,1,419,391.21Z"/></g></g></svg>