<svg xmlns="http://www.w3.org/2000/svg" viewBox="0 0 781.89 353.38"><defs><style>.cls-1,.cls-3{fill:#040000;}.cls-2,.cls-3{opacity:0.4;}</style></defs><title>logo_en_m</title><g id="レイヤー_2" data-name="レイヤー 2"><g id="レイヤー_1-2" data-name="レイヤー 1"><path class="cls-1" d="M254.88,63.59h33.75c48.77,0,68.09,28.09,68.09,67.89,0,49.36-33,68.28-78,68.28h-23.8Zm13.46,124.46h11.12c38.63,0,63.8-15.61,63.8-57.35,0-41.55-24.78-55.4-55.21-55.4h-19.7Z"/><path class="cls-1" d="M385,63.59h32.38c22.24,0,43.11,7.42,43.11,33.56,0,17.36-8,27.7-24.77,31v.39c17.16,3.12,28.87,14.44,28.87,32.38,0,29.65-24.19,38.82-52.48,38.82H385Zm13.46,124.46h14c18.14,0,38.63-4.87,38.63-26.52,0-24.19-20.87-26.73-40.77-26.73h-11.9Zm.39-65h15c14.24,0,33.16-3.71,33.16-25.36,0-19.7-18.14-22.43-29.65-22.43H398.88Z"/><path class="cls-1" d="M588.14,78.81C579.55,74.32,567.26,73,557.7,73c-35.3,0-55.21,25-55.21,58.72,0,34.34,19.31,58.72,55.21,58.72,9,0,22.63-1.17,30.44-5.85l.78,11.7c-7.41,4.49-22.63,5.86-31.21,5.86-42.92,0-68.67-28.29-68.67-70.43,0-41.35,26.53-70.42,68.67-70.42,8,0,24.19,1.36,31.21,5.07Z"/><path class="cls-1" d="M623.66,63.59h13.46V188.05h54.62v11.71H623.66Z"/><path class="cls-1" d="M707.75,182.4c8,5.07,17.36,8,30,8,16.78,0,30.63-8.59,30.63-27.9,0-26.72-62.43-30-62.43-65.74,0-21.85,19.11-35.5,43.11-35.5,6.63,0,17.36,1,26.72,4.48L773.7,78C767.64,74.72,758.09,73,748.92,73c-14,0-29.45,5.85-29.45,23.41,0,27.32,62.43,27.51,62.43,67.31,0,27.5-23.61,38.43-44.68,38.43-13.27,0-23.61-2.74-30.83-5.86Z"/><path class="cls-1" d="M259.52,221.58h10.17c11.39,0,21.44,3.83,21.44,18.57s-10.06,18.58-21.44,18.58H259.52ZM267,252.88h4.15c6.23,0,12.24-4.63,12.24-12.72s-6-12.72-12.24-12.72H267Z"/><path class="cls-1" d="M298.55,232.76a24.58,24.58,0,0,1,9.53-2.07c8.36,0,11.82,3.46,11.82,11.55v3.51c0,2.77.06,4.84.11,6.86s.16,4,.32,6.12H314a32,32,0,0,1-.32-4.1h-.11a9.79,9.79,0,0,1-8.47,4.74c-4.84,0-9.58-2.93-9.58-8.15a8.06,8.06,0,0,1,4.68-7.82c2.72-1.33,6.23-1.6,9.21-1.6h3.94c0-4.42-2-5.91-6.17-5.91a14.34,14.34,0,0,0-8.47,3Zm8.36,21.4a6.06,6.06,0,0,0,5-2.45,9.1,9.1,0,0,0,1.49-5.64h-3.09c-3.19,0-7.93.53-7.93,4.74C302.38,253.15,304.35,254.16,306.91,254.16Z"/><path class="cls-1" d="M329.27,236.54H324v-5.22h5.27v-5.49l7.13-2.29v7.77h6.34v5.22H336.4v12.77c0,2.34.63,4.53,3.35,4.53a6.32,6.32,0,0,0,3.25-.75l.21,5.64a18.71,18.71,0,0,1-5.27.64c-5.59,0-8.67-3.46-8.67-8.89Z"/><path class="cls-1" d="M348.86,232.76a24.58,24.58,0,0,1,9.53-2.07c8.36,0,11.82,3.46,11.82,11.55v3.51c0,2.77.06,4.84.11,6.86s.16,4,.32,6.12h-6.28a32,32,0,0,1-.32-4.1h-.11a9.79,9.79,0,0,1-8.47,4.74c-4.84,0-9.58-2.93-9.58-8.15a8.06,8.06,0,0,1,4.68-7.82c2.72-1.33,6.23-1.6,9.21-1.6h3.94c0-4.42-2-5.91-6.17-5.91a14.34,14.34,0,0,0-8.47,3Zm8.36,21.4a6.06,6.06,0,0,0,5-2.45,9.1,9.1,0,0,0,1.49-5.64h-3.09c-3.19,0-7.93.53-7.93,4.74C352.69,253.15,354.66,254.16,357.22,254.16Z"/><path class="cls-1" d="M377.24,218.81h7.13v16h.11a9.59,9.59,0,0,1,8.2-4.15c8.41,0,11.5,6.71,11.5,14.27s-3.09,14.42-11.5,14.42a10,10,0,0,1-8.41-4h-.11v3.36h-6.92Zm13.47,35c4.68,0,6-5.11,6-8.89s-1.28-8.73-5.91-8.73-6.39,4.9-6.39,8.73S386,253.84,390.71,253.84Z"/><path class="cls-1" d="M411,232.76a24.58,24.58,0,0,1,9.53-2.07c8.36,0,11.82,3.46,11.82,11.55v3.51c0,2.77.06,4.84.11,6.86s.16,4,.32,6.12h-6.28a32,32,0,0,1-.32-4.1h-.11a9.79,9.79,0,0,1-8.47,4.74c-4.84,0-9.58-2.93-9.58-8.15a8.06,8.06,0,0,1,4.68-7.82c2.72-1.33,6.23-1.6,9.21-1.6h3.94c0-4.42-2-5.91-6.17-5.91a14.34,14.34,0,0,0-8.47,3Zm8.36,21.4a6.06,6.06,0,0,0,5-2.45,9.1,9.1,0,0,0,1.49-5.64h-3.09c-3.19,0-7.93.53-7.93,4.74C414.82,253.15,416.79,254.16,419.35,254.16Z"/><path class="cls-1" d="M455.66,237.07a17.59,17.59,0,0,0-6.39-1.17c-1.92,0-4.21.69-4.21,3,0,4.36,12.41,1.6,12.41,11.49,0,6.39-5.69,8.94-11.5,8.94a32,32,0,0,1-8.09-1.18l.43-5.85a15.65,15.65,0,0,0,7,1.81c1.81,0,4.68-.69,4.68-3.36,0-5.37-12.4-1.7-12.4-11.6,0-5.91,5.16-8.52,10.75-8.52a32.94,32.94,0,0,1,7.77,1Z"/><path class="cls-1" d="M485,257.19a18.8,18.8,0,0,1-9.42,2.19c-9.05,0-14.32-5.22-14.32-14.22,0-7.92,4.2-14.47,12.72-14.47,10.16,0,13,7,13,16.55H468.06c.32,4.42,3.41,6.92,7.82,6.92a18.5,18.5,0,0,0,9.1-2.77Zm-4.79-14.84c-.21-3.46-1.81-6.44-5.8-6.44s-6,2.77-6.34,6.44Z"/><path class="cls-1" d="M535.09,258.2a37.58,37.58,0,0,1-8.46,1.18c-12,0-20.39-6-20.39-18.58,0-12.72,7.77-19.85,20.39-19.85a24.46,24.46,0,0,1,8.41,1.55l-.53,6.28a15.34,15.34,0,0,0-8-2c-7.66,0-12.46,5.85-12.46,13.46s4.69,13.26,12.62,13.26a20.71,20.71,0,0,0,8.14-1.55Z"/><path class="cls-1" d="M561.92,257.19a18.8,18.8,0,0,1-9.42,2.19c-9.05,0-14.32-5.22-14.32-14.22,0-7.92,4.2-14.47,12.72-14.47,10.16,0,13,7,13,16.55H545c.32,4.42,3.41,6.92,7.82,6.92a18.52,18.52,0,0,0,9.1-2.77Zm-4.79-14.84c-.21-3.46-1.81-6.44-5.8-6.44s-6,2.77-6.34,6.44Z"/><path class="cls-1" d="M569.54,231.33h6.76V235h.11c2.23-3.14,5.27-4.36,9-4.36,6.49,0,9.31,4.58,9.31,10.75v17.3h-7.13V244.1c0-3.35,0-7.87-4.63-7.87-5.16,0-6.28,5.59-6.28,9.1v13.41h-7.13Z"/><path class="cls-1" d="M604.41,236.54h-5.27v-5.22h5.27v-5.49l7.13-2.29v7.77h6.34v5.22h-6.34v12.77c0,2.34.63,4.53,3.35,4.53a6.32,6.32,0,0,0,3.25-.75l.21,5.64a18.71,18.71,0,0,1-5.27.64c-5.59,0-8.67-3.46-8.67-8.89Z"/><path class="cls-1" d="M644.76,257.19a18.8,18.8,0,0,1-9.42,2.19c-9.05,0-14.32-5.22-14.32-14.22,0-7.92,4.2-14.47,12.72-14.47,10.16,0,13,7,13,16.55H627.84c.32,4.42,3.41,6.92,7.82,6.92a18.5,18.5,0,0,0,9.1-2.77ZM640,242.34c-.21-3.46-1.81-6.44-5.8-6.44s-6,2.77-6.34,6.44Z"/><path class="cls-1" d="M652.55,231.33h6.34v6.22h.1c.32-2.55,3.25-6.86,7.51-6.86a7.76,7.76,0,0,1,2.18.21v7.18a7.31,7.31,0,0,0-3.19-.58c-5.8,0-5.8,7.24-5.8,11.17v10.06h-7.13Z"/><path class="cls-1" d="M261.49,291.83h-5.27v-5.22h5.27v-3.83c0-5.48,3.09-9.31,8.73-9.31a25.07,25.07,0,0,1,5.22.58l-.58,5.91a5.57,5.57,0,0,0-3.09-1c-2.39,0-3.14,2.07-3.14,4.2v3.41h6.23v5.22h-6.23V314h-7.13Z"/><path class="cls-1" d="M292.16,286c8.15,0,14.37,5.48,14.37,14.53,0,7.87-5.27,14.16-14.37,14.16s-14.32-6.29-14.32-14.16C277.84,291.45,284.07,286,292.16,286Zm0,23.15c5.48,0,6.92-4.9,6.92-9.48,0-4.2-2.24-8.14-6.92-8.14s-6.87,4-6.87,8.14C285.29,304.17,286.72,309.13,292.16,309.13Z"/><path class="cls-1" d="M312.29,286.61h6.34v6.22h.1c.32-2.55,3.25-6.86,7.51-6.86a7.76,7.76,0,0,1,2.18.21v7.18a7.31,7.31,0,0,0-3.19-.58c-5.8,0-5.8,7.24-5.8,11.17V314h-7.13Z"/><path class="cls-1" d="M348.28,276.87h7.45v31.29h14.42V314H348.28Z"/><path class="cls-1" d="M374.42,274.8h7.13v6.81h-7.13Zm0,11.82h7.13V314h-7.13Z"/><path class="cls-1" d="M391.66,291.83H386.4v-5.22h5.27v-3.83c0-5.48,3.09-9.31,8.73-9.31a25.07,25.07,0,0,1,5.22.58L405,280a5.57,5.57,0,0,0-3.09-1c-2.39,0-3.14,2.07-3.14,4.2v3.41H405v5.22H398.8V314h-7.13Z"/><path class="cls-1" d="M431.75,312.47a18.8,18.8,0,0,1-9.42,2.19c-9.05,0-14.32-5.22-14.32-14.22,0-7.92,4.2-14.47,12.72-14.47,10.16,0,13,7,13,16.55H414.82c.32,4.42,3.41,6.92,7.82,6.92a18.52,18.52,0,0,0,9.1-2.77ZM427,297.63c-.21-3.46-1.81-6.44-5.8-6.44s-6,2.77-6.34,6.44Z"/><path class="cls-1" d="M474.77,283.68a19.25,19.25,0,0,0-7.56-1.6c-2.55,0-5.85,1.12-5.85,5.16,0,6.44,16.28,3.73,16.28,16.18,0,8.14-6.44,11.23-13.95,11.23a32.78,32.78,0,0,1-9.53-1.44l.69-6.71a18,18,0,0,0,8.42,2.29c2.81,0,6.6-1.44,6.6-4.79,0-7.08-16.29-4.15-16.29-16.45,0-8.3,6.44-11.34,13-11.34a28,28,0,0,1,8.89,1.33Z"/><path class="cls-1" d="M501.55,292.52a10.7,10.7,0,0,0-4.85-1c-4.42,0-7.23,3.51-7.23,8.67s2.39,8.94,7.4,8.94a15.25,15.25,0,0,0,5.48-1.28l.32,5.91a23.41,23.41,0,0,1-7.13.91c-9,0-13.52-6.12-13.52-14.48,0-7.93,4.68-14.21,13.26-14.21a23.28,23.28,0,0,1,6.92.91Z"/><path class="cls-1" d="M507.57,274.8h7.13v6.81h-7.13Zm0,11.82h7.13V314h-7.13Z"/><path class="cls-1" d="M544.2,312.47a18.8,18.8,0,0,1-9.42,2.19c-9.05,0-14.32-5.22-14.32-14.22,0-7.92,4.2-14.47,12.72-14.47,10.16,0,13,7,13,16.55H527.27c.32,4.42,3.41,6.92,7.82,6.92a18.5,18.5,0,0,0,9.1-2.77Zm-4.79-14.84c-.21-3.46-1.81-6.44-5.8-6.44s-6,2.77-6.34,6.44Z"/><path class="cls-1" d="M551.81,286.61h6.76v3.72h.11c2.24-3.14,5.27-4.36,9-4.36,6.49,0,9.31,4.58,9.31,10.75V314h-7.13V299.38c0-3.35,0-7.87-4.63-7.87-5.16,0-6.28,5.59-6.28,9.1V314h-7.13Z"/><path class="cls-1" d="M602.12,292.52a10.7,10.7,0,0,0-4.85-1c-4.42,0-7.23,3.51-7.23,8.67s2.39,8.94,7.4,8.94a15.25,15.25,0,0,0,5.48-1.28l.32,5.91a23.41,23.41,0,0,1-7.13.91c-9,0-13.52-6.12-13.52-14.48,0-7.93,4.68-14.21,13.26-14.21a23.28,23.28,0,0,1,6.92.91Z"/><path class="cls-1" d="M630,312.47a18.8,18.8,0,0,1-9.42,2.19c-9.05,0-14.32-5.22-14.32-14.22,0-7.92,4.2-14.47,12.72-14.47,10.16,0,13,7,13,16.55H613c.32,4.42,3.41,6.92,7.82,6.92a18.52,18.52,0,0,0,9.1-2.77Zm-4.79-14.84c-.21-3.46-1.81-6.44-5.8-6.44s-6,2.77-6.34,6.44Z"/><g class="cls-2"><rect class="cls-1" x="113.05" y="64.57" width="13.24" height="52.47"/><rect class="cls-1" x="145.15" y="77.05" width="10.62" height="52.46"/><rect class="cls-1" x="130.01" y="70.81" width="12.04" height="52.46"/><rect class="cls-1" x="94.55" y="58.32" width="14.17" height="52.46"/><rect class="cls-1" x="29.6" y="31.67" width="6.28" height="52.48"/><rect class="cls-1" x="158.25" y="83.29" width="8.94" height="52.47"/><rect class="cls-1" x="16.07" y="20.69" width="3.36" height="52.47"/><rect class="cls-1" width="1.86" height="52.46"/><rect class="cls-1" x="76.05" y="52.07" width="13.54" height="52.47"/><rect class="cls-1" x="43.94" y="39.27" width="8.94" height="52.47"/><rect class="cls-1" x="59.09" y="45.69" width="11.38" height="52.46"/><rect class="cls-1" x="177.25" y="95.79" width="4.59" height="52.47"/><path class="cls-1" d="M182.46,102.46v52.46c0-.78,1.67,0,1.67,0V102.46Z"/><rect class="cls-1" x="169.05" y="89.54" width="6.96" height="52.46"/></g><path class="cls-3" d="M0,154.93a11.8,11.8,0,0,0,2,6.21,29,29,0,0,0,5.77,6.41,66.8,66.8,0,0,0,8.26,6c3.34,2.1,7.09,4.18,11.1,6.2,4.22,2.12,8.74,4.19,13.4,6.2,5,2.15,10.25,4.23,15.45,6.2,5.85,2.21,11.69,4.29,17.27,6.2,6.83,2.34,13.26,4.43,18.81,6.2s12,3.86,18.81,6.21c5.58,1.9,11.42,4,17.27,6.19,5.21,2,10.42,4,15.45,6.21,4.67,2,9.19,4.08,13.41,6.2,4,2,7.76,4.09,11.11,6.2a68.07,68.07,0,0,1,8.51,6.2,28.24,28.24,0,0,1,5.52,6.2,11.78,11.78,0,0,1,2,6.2V201.69a11.75,11.75,0,0,0-2-6.2,28.26,28.26,0,0,0-5.52-6.2,66.7,66.7,0,0,0-8.51-6.2c-3.35-2.11-7.09-4.18-11.11-6.2-4.22-2.14-8.74-4.2-13.41-6.2-5-2.17-10.24-4.25-15.45-6.21-5.85-2.21-11.69-4.29-17.27-6.2-6.83-2.34-13.26-4.42-18.81-6.2s-12-3.86-18.81-6.2c-5.58-1.91-11.42-4-17.27-6.2-5.2-2-10.41-4-15.45-6.2-4.67-2-9.19-4.08-13.4-6.2-4-2-7.76-4.1-11.1-6.2a66.8,66.8,0,0,1-8.26-6A28.74,28.74,0,0,1,2,108.66a11.72,11.72,0,0,1-2-6.2Z"/><path class="cls-1" d="M184.13,254.16a11.71,11.71,0,0,1-2,6.2,28.61,28.61,0,0,1-5.78,6.43,69.85,69.85,0,0,1-8.25,6c-3.35,2.1-7.09,4.18-11.11,6.2-4.21,2.12-8.73,4.19-13.4,6.2-5,2.15-10.24,4.23-15.44,6.2-5.86,2.21-11.7,4.29-17.27,6.2-6.83,2.34-13.26,4.43-18.81,6.2s-12,3.86-18.82,6.2c-5.57,1.91-11.41,4-17.27,6.2-5.2,2-10.41,4-15.45,6.2-4.67,2-9.19,4.08-13.4,6.2-4,2-7.76,4.1-11.11,6.21A66.81,66.81,0,0,0,7.5,341,28.64,28.64,0,0,0,2,347.18a11.8,11.8,0,0,0-2,6.2V300.92a11.8,11.8,0,0,1,2-6.2,28.29,28.29,0,0,1,5.52-6.2A68.27,68.27,0,0,1,16,282.31c3.35-2.1,7.09-4.18,11.11-6.2,4.22-2.12,8.74-4.19,13.4-6.2,5-2.15,10.25-4.23,15.45-6.2,5.86-2.21,11.69-4.29,17.27-6.2,6.83-2.34,13.27-4.43,18.82-6.2s12-3.86,18.81-6.2c5.57-1.91,11.42-4,17.27-6.2,5.2-2,10.41-4,15.44-6.2,4.67-2,9.19-4.08,13.4-6.2,4-2,7.76-4.1,11.11-6.2a69.77,69.77,0,0,0,8.25-6,28.57,28.57,0,0,0,5.78-6.43,11.75,11.75,0,0,0,2-6.2Z"/><path class="cls-1" d="M184.13,154.93a11.8,11.8,0,0,1-2,6.21,28.85,28.85,0,0,1-5.78,6.41,68.16,68.16,0,0,1-8.25,6c-3.35,2.1-7.09,4.18-11.11,6.2-4.21,2.12-8.73,4.19-13.4,6.2-5,2.15-10.24,4.23-15.44,6.2-5.86,2.21-11.7,4.29-17.27,6.2-6.83,2.34-13.26,4.43-18.81,6.2s-12,3.86-18.82,6.21c-5.57,1.9-11.41,4-17.27,6.19-5.2,2-10.41,4-15.45,6.21-4.67,2-9.19,4.08-13.4,6.2-4,2-7.76,4.09-11.11,6.2a68.18,68.18,0,0,0-8.52,6.2A28.62,28.62,0,0,0,2,248a11.8,11.8,0,0,0-2,6.2V201.69a11.8,11.8,0,0,1,2-6.2,28.64,28.64,0,0,1,5.52-6.2,66.81,66.81,0,0,1,8.52-6.2c3.35-2.11,7.09-4.18,11.11-6.2,4.22-2.14,8.74-4.2,13.4-6.21,5-2.15,10.25-4.23,15.45-6.2,5.86-2.21,11.69-4.29,17.27-6.2,6.83-2.34,13.27-4.42,18.82-6.2s12-3.86,18.81-6.2c5.57-1.91,11.42-4,17.27-6.2,5.2-2,10.41-4,15.44-6.2,4.67-2,9.19-4.08,13.4-6.2,4-2,7.76-4.1,11.11-6.2a68.16,68.16,0,0,0,8.25-6,28.59,28.59,0,0,0,5.78-6.43,11.71,11.71,0,0,0,2-6.2Z"/><rect class="cls-1" x="57.84" y="64.57" width="13.24" height="52.47"/><rect class="cls-1" x="28.36" y="77.05" width="10.62" height="52.46"/><rect class="cls-1" x="42.08" y="70.81" width="12.04" height="52.46"/><rect class="cls-1" x="75.42" y="58.32" width="14.17" height="52.46"/><rect class="cls-1" x="148.25" y="31.67" width="6.28" height="52.48"/><rect class="cls-1" x="16.94" y="83.29" width="8.94" height="52.47"/><rect class="cls-1" x="164.71" y="20.69" width="3.36" height="52.47"/><rect class="cls-1" x="182.27" width="1.86" height="52.46"/><rect class="cls-1" x="94.55" y="52.07" width="13.54" height="52.47"/><rect class="cls-1" x="131.25" y="39.27" width="8.94" height="52.47"/><rect class="cls-1" x="113.67" y="45.69" width="11.38" height="52.46"/><rect class="cls-1" x="2.29" y="95.79" width="4.59" height="52.47"/><path class="cls-1" d="M1.67,102.46v52.46c0-.78-1.67,0-1.67,0V102.46Z"/><rect class="cls-1" x="8.12" y="89.54" width="6.96" height="52.46"/></g></g></svg>