<svg xmlns="http://www.w3.org/2000/svg" viewBox="0 0 1994.04 350.28"><defs><style>.cls-1,.cls-3{fill:#040000;}.cls-2,.cls-3{opacity:0.4;}</style></defs><title>logo_ja_m</title><g id="レイヤー_2" data-name="レイヤー 2"><g id="レイヤー_1-2" data-name="レイヤー 1"><path class="cls-1" d="M302.43,168.83c-3.09,27.17-13.18,47.36-57.63,51.87l-3.27-7.35c25.85-2.39,47.09-8.94,51.52-37.09H231v-7.43Zm-5-21.16v7.43H237.37v-7.43Z"/><path class="cls-1" d="M363.5,221.32H355V177.59a184.65,184.65,0,0,1-35.49,17.79l-4.87-6.82c12.74-4.51,44.26-17.35,65.77-44.17l7.79,5.22a235,235,0,0,1-24.7,22Z"/><path class="cls-1" d="M476.25,150.86c-1.86,21.69-7.88,59.57-58,69l-3.19-7.52c45.06-7.53,49.4-38.51,51.43-53.91H406.41v-7.52Z"/><path class="cls-1" d="M545.2,144h8.24v17.44h15.84v7.61H553.43V179c0,7.17-1.86,21.59-12.13,30.28-9.74,8.23-22.93,10.44-29.48,11.51l-3.28-7.53c18.5-2.39,36.65-8.5,36.65-34.17v-10H513.95v24.34h-8.23V169.09H490.14v-7.61h15.58v-17h8.23v17H545.2Z"/><path class="cls-1" d="M628.13,221.32h-8.5V177.59a184.8,184.8,0,0,1-35.5,17.79l-4.87-6.82C592,184.05,623.52,171.22,645,144.4l7.79,5.22a234.22,234.22,0,0,1-24.7,22Z"/><path class="cls-1" d="M739.74,152.19v7.7H711.14v46.65h33.55v7.79H669.45v-7.79h33.11V159.89H674.5v-7.7Z"/><path class="cls-1" d="M785.67,170.16c-7.26-5.67-20.72-11.15-27.17-13l4-7.09c1.5.45,16,4.61,28.14,12.39Zm-26.74,39.66c25-1.77,52.58-9.39,66.39-53.82l8,3.54c-7.09,20.36-18.59,53.47-71.26,59Z"/><path class="cls-1" d="M841.86,213.44c14.87-5.93,40.72-22.92,52.84-56.74H846.47v-7.61h59.12A102.06,102.06,0,0,1,888.06,186a374.19,374.19,0,0,1,30.81,27.35l-6.55,6.55c-5-5.57-11.42-12.57-29-27.88-10,11.86-22.22,21.86-36.56,28Z"/><path class="cls-1" d="M960.29,153.16a211.68,211.68,0,0,1-17.35,26.11c3.72-.18,7.7-.35,11.33-.71-1.33-3.27-1.59-3.89-2.39-5.57l5.57-2.39a117.38,117.38,0,0,1,6.91,15.84L958,189c-.35-1.15-1.15-3.63-1.59-4.78-2,.27-5.14.53-7.26.8v38.6h-6.82V185.47c-8.05.53-10.44.61-14.16.71l-.44-6.37c1.86,0,2.39,0,7.43-.27,2.75-3.54,3.9-5.22,5-6.82a94,94,0,0,0-12.93-12l3.63-5.58c1.95,1.5,2.39,1.86,3.28,2.57a94.53,94.53,0,0,0,8.85-16l6.46,2.47a140.54,140.54,0,0,1-10.36,18,62.71,62.71,0,0,1,5,4.87c5.67-8.86,8.14-13.28,9.83-16.47Zm-32.84,62a86.72,86.72,0,0,0,4.43-23.37l6.37,1a117.13,117.13,0,0,1-4.34,24.7Zm28.86-4.78a64.94,64.94,0,0,0-3.36-17.53l5.58-1.59a64.89,64.89,0,0,1,4.34,17.61Zm-.61,7.17c15.4-6.46,17.26-16.55,17.53-33.19h6.9c-.53,19.12-2.83,31.25-20.09,39.22Zm41.87-57.8a78.49,78.49,0,0,1,14.52,19.56l-6.46,3.63a50,50,0,0,0-2.39-4.87c-17.44,1.77-26.64,2.39-39.13,2.92l-.71-6.9c4.6-.09,5.14-.09,6.1-.18a82,82,0,0,0,7.44-17.09H962.06v-6.82h20.63v-8.41h7.25v8.41H1011v6.82H984.63a114.64,114.64,0,0,1-7.78,16.82c7.52-.27,15-.71,22.48-1.42a68.68,68.68,0,0,0-7.61-8.94Zm-1.33,54.35c0,1.15.45,1.86,2.3,1.86H1002c1.42,0,2-.71,2.22-2.66s.26-8.59.26-11.6l6.64,2.22c.09,14.87-.8,18.85-7.25,18.85h-8.41c-2.92,0-6.11-1.07-6.11-5.93V184.41h6.91Z"/><path class="cls-1" d="M1084.64,173.25h-45v-6.46a104,104,0,0,1-15.49,8.24l-4.25-7.35c14.16-5,28.94-13.81,38.24-27h7.35c11.15,13.63,23.46,20.89,38.6,27L1100,175a93.25,93.25,0,0,1-15.31-8.24Zm9,10v40.37h-7.43v-4.08H1037.9v4.08h-7.44V183.26Zm-7.43,6.82H1037.9v22.84h48.33Zm-1.95-23.54a105,105,0,0,1-22.39-19.65A82.91,82.91,0,0,1,1040,166.53Z"/><path class="cls-1" d="M1189.08,170.69v7.43h-29.74c-.18,27.54-12.57,38.24-36,43l-3.28-7.09c20.36-3.89,31.42-10.71,30.89-35.94h-35.67v-7.43Zm-14.34-22.93v7.17h-51.52v-7.17Zm5,7.35a57.07,57.07,0,0,0-4-12.92l5.57-1.42a53.89,53.89,0,0,1,4.25,12.93Zm10.18-1.15a80.33,80.33,0,0,0-4.51-13.1l5.22-1.6a65.16,65.16,0,0,1,4.69,12.93Z"/><path class="cls-1" d="M1282.36,178.12v8.5h-78.6v-8.5Z"/><path class="cls-1" d="M1323.51,174.23a106.9,106.9,0,0,1,22.66,14.16,60.61,60.61,0,0,0,12.13-26.2h-34.08c-10.36,14.61-20,20.45-24,22.75l-5.14-6A64.83,64.83,0,0,0,1325,143.78l8.5,1.6a91.6,91.6,0,0,1-4.61,9.56h39.3c-2.92,15.84-11.06,54-62.67,66.57l-4.51-7c15.94-3.28,28.06-9,39.66-20a103.91,103.91,0,0,0-22.48-14.69Z"/><path class="cls-1" d="M1380.24,187.59c3.54-3.81,18.06-21.69,21.24-25.14,2.39-2.65,6.2-5.93,11-5.93,2.75,0,5.84.35,13.1,7.61l39,38.77-6.56,6.91-40.27-41.7c-.62-.61-3-3.19-5.67-3.19-2.92,0-5.85,4-9.3,8.5-2.22,2.92-11.78,16.2-13.9,18.77-.79.88-1.94,2.21-2.3,2.56Zm64.71-22.12A101.09,101.09,0,0,0,1436,152.9l5.23-3.36a94.36,94.36,0,0,1,9.12,12Zm11-6.11a97.35,97.35,0,0,0-9-12l5-3.45a82.27,82.27,0,0,1,9.2,11.59Z"/><path class="cls-1" d="M1553.55,178.12v8.5h-78.61v-8.5Z"/><path class="cls-1" d="M1565.22,213.44c14.87-5.93,40.72-22.92,52.84-56.74h-48.24v-7.61h59.12A102.06,102.06,0,0,1,1611.42,186a374.19,374.19,0,0,1,30.81,27.35l-6.55,6.55c-5-5.57-11.42-12.57-29-27.88-10,11.86-22.22,21.86-36.56,28Z"/><path class="cls-1" d="M1729.49,160.59c-2.83,19.21-10.18,29.12-26.82,37.36l-5-6.46c6.29-2.57,17.62-7.61,21.6-22.93l-37.35,3V201.4c0,8.32,1.24,10.18,11.86,10.18h17.88a101.79,101.79,0,0,0,16.37-1.59l.09,8.14a124.22,124.22,0,0,1-15.84,1h-19.38c-14.25,0-19.3-4.15-19.3-17.35V172.28l-19.3,1.5-.53-7.61,19.83-1.5v-20H1682V164Z"/><path class="cls-1" d="M1770.38,170.16c-7.26-5.67-20.72-11.15-27.17-13l4-7.09c1.5.45,16,4.61,28.15,12.39Zm-26.74,39.66c25-1.77,52.58-9.39,66.39-53.82l8,3.54c-7.09,20.36-18.59,53.47-71.26,59Z"/><path class="cls-1" d="M1856.05,174.23a106.7,106.7,0,0,1,22.66,14.16,60.61,60.61,0,0,0,12.13-26.2h-34.08c-10.36,14.61-20,20.45-24,22.75l-5.14-6a64.83,64.83,0,0,0,29.92-35.14l8.5,1.6a91.6,91.6,0,0,1-4.61,9.56h39.3c-2.92,15.84-11.06,54-62.67,66.57l-4.51-7c15.94-3.28,28.06-9,39.66-20a103.91,103.91,0,0,0-22.48-14.69Z"/><path class="cls-1" d="M1994,178.12v8.5h-78.6v-8.5Z"/><path class="cls-1" d="M250.15,75.57h4.13V86.95h19.79V90.8H254.93c2.88,12.18,8.22,19,19.79,23.75l-2.6,3.9c-9.66-4.55-16.4-11.05-19.43-22.3-4.22,14.45-15,20-19.84,22.21l-2.23-4c6.92-2.69,16.82-8.41,19.28-23.56H231V86.95h19.1Z"/><path class="cls-1" d="M314.76,93.78a52.63,52.63,0,0,1-11.8,7.57v1h19.33v3.57H303v9.15c0,3.07-2.42,3.58-3.81,3.58h-8.46l-.74-4,7.57,0c1.44,0,1.53-.37,1.53-1.44v-7.34H279.26v-3.57H299V98.47h2a27,27,0,0,0,7.53-4.41H286.74V90.62h28ZM310.25,83a68.62,68.62,0,0,0,3.49-7.66l4,1.35a47.28,47.28,0,0,1-3.3,6.32h6.74V93.27H317.4V86.44H284.18v6.83h-3.81V83h6.74a27.82,27.82,0,0,0-3.21-6.13l3.43-1.35a25.36,25.36,0,0,1,3.58,6.6L288.6,83Zm-10.17,0a40.19,40.19,0,0,0-3.53-6.6l3.57-1.43a36.61,36.61,0,0,1,3.53,6.78Z"/><path class="cls-1" d="M369.11,87.65h-9.67V99.87h11.25v3.77H327.57V99.87H338.9V87.65h-9.76V83.88h9.76V75.61h3.81v8.27h12.87V75.61h3.86v8.27h9.67ZM344,107.72a39,39,0,0,1-12.82,11.15l-2.93-3.25c5.86-2.92,8.55-5.06,12.36-9.76Zm11.57-20.08H342.71V99.87h12.87Zm11.53,31.22a49.35,49.35,0,0,1-12.59-11.05l3.16-2.14A43.38,43.38,0,0,0,370,115.53Z"/><path class="cls-1" d="M417.13,114.46c0,2.78-1.12,4.13-4.69,4.13h-6.65l-.65-3.95,6.41,0c1,0,1.62,0,1.62-1.48V80.82h-31.5v37.78h-3.95V77.19h39.4ZM411,85.23v3.39H383.77V85.23ZM408,93v17H386.65V93Zm-3.62,3.4h-14v10.26h14Z"/><path class="cls-1" d="M438.31,88h8.31v3.62H438.4A38,38,0,0,0,446,101.68l-2,3.39a33.48,33.48,0,0,1-5.67-8.32v21.93h-4V97.45a40.34,40.34,0,0,1-8.78,12.78L423.76,106a45.15,45.15,0,0,0,10.17-14.4h-9.71V88h10.13V81.23c-3.2.37-6.36.61-8.82.74l-.79-3.53c1.86-.09,12.5-.46,20.3-3l1.63,3.35a57.88,57.88,0,0,1-8.36,1.9Zm15.38,21.09h-3.95V79h3.95ZM466,114.59c0,3.53-2.75,4-4.28,4h-7.34l-.83-4.14,6.69.14c1.39,0,1.67-.09,1.67-1.4V75.57H466Z"/><path class="cls-1" d="M513,114.74c0,3.39-2.09,3.91-3.67,3.91h-6.27l-.47-3.86,5.44.09c.79,0,1.07-.56,1.07-1.26v-9.39H496.55v14h-3.67v-14h-12c-.83,6.74-3.39,11.48-6,14.31l-2.65-3.39a18.24,18.24,0,0,0,3.72-6.6,39.38,39.38,0,0,0,1.49-9.62V77.52H513ZM492.88,92.57H481.31v5.76a23.72,23.72,0,0,1,0,2.42h11.62Zm0-11.43H481.31V89h11.57Zm16.21,0H496.55V89h12.55Zm0,11.43H496.55v8.18h12.55Z"/><path class="cls-1" d="M551.46,79.42c.56.46.7.6.93.78a45,45,0,0,0,3.07-4.83l2.83,1.12a52.83,52.83,0,0,1-3.9,5.62c.51.52,1.39,1.39,1.9,2,2.65-3.44,2.88-3.77,3.49-4.69l2.51,1.34a106.45,106.45,0,0,1-7.76,9.71c3.67-.23,3.9-.23,5.39-.37-.32-1-.56-1.58-.88-2.37l2.65-1a46.76,46.76,0,0,1,2.46,6.93l-2.88,1.21a20.75,20.75,0,0,0-.56-2.32c-1,.13-4.83.51-5.2.56a41.27,41.27,0,0,1,4.22,2.65l-1.67,2h5.86V101H551.32a29.07,29.07,0,0,0,2.13,7.16,22.64,22.64,0,0,0,4.51-5.71l3.21,1.49a29.55,29.55,0,0,1-5.95,7.43c1.58,2.56,2.93,3.67,3.62,3.67.93,0,1.58-1.26,2.7-5.76l3,2.28c-1.26,4.78-2.51,7.11-5.48,7.11-3.3,0-6-3.81-6.74-5a36.07,36.07,0,0,1-9.9,4.7l-1.58-3.21a27.53,27.53,0,0,0,9.76-4.6A46,46,0,0,1,547.7,101h-8.92c0,1.07,0,1.26-.1,3a31.36,31.36,0,0,1,7.76,4.7l-2,3a27.16,27.16,0,0,0-5.95-4.37c-.65,6.28-2.42,9.06-4.18,11.39L531.52,116c2.84-3.86,3.58-7.25,3.67-15h-1.91V98.24l-1.77,2.6a26.92,26.92,0,0,1-2.18-4.78v22.58H525.9V97.54a40.45,40.45,0,0,1-3.76,10.55l-2-4.55A42.33,42.33,0,0,0,525.62,88h-4.74V84.49h5v-9h3.44v9H533V88h-3.67v2.09a29.89,29.89,0,0,0,4.27,7.61l0,0h13.52a143.7,143.7,0,0,1-1.67-22.31h3.72a143.4,143.4,0,0,0,.75,15.2h1c1.16-1.21,2.83-3.31,3.53-4.14a37.68,37.68,0,0,0-4.88-4.88ZM543,87.6a33.15,33.15,0,0,1,2.42,7.06l-2.84,1c-.18-.93-.28-1.35-.46-2-1.63.18-9.48.78-9.9.83l-.42-2.92a7.47,7.47,0,0,0,1.3,0c.61-.65,1.67-1.86,3.91-4.65a56.1,56.1,0,0,0-5.3-5.06l2-2.18c.56.42.7.51,1.12.83a31.08,31.08,0,0,0,3.62-5.06l2.83,1.07a38.39,38.39,0,0,1-4.41,5.85,27,27,0,0,1,2,2.14,47.49,47.49,0,0,0,3.53-4.88l2.47,1.58c-2.32,3.25-6.32,8.22-8.18,10.27,1.62,0,2.79-.09,4.65-.23a16.64,16.64,0,0,0-1-2.56ZM555,93.13l-4.88.37c.14,1.16.42,3,.61,4.27h6.64c-.56-.37-2.46-1.62-4-2.47Z"/><path class="cls-1" d="M588.29,77V92.06H574.58v26.58H570.9V77Zm-3.63,2.88H574.58v3.26h10.08Zm0,5.86H574.58v3.49h10.08Zm15.43,30.62a20,20,0,0,1-9.52-8.46c-1.72,3.67-5.25,7.21-11.15,9.15l-1.91-3.16c6.23-1.63,8.79-4.84,9.8-6.74h-9.76v-3h10.83a14.54,14.54,0,0,0,.37-3.62H578.67V97.63h5.21c-.75-1.77-1.07-2.51-1.72-3.81l3.58-.61a36.6,36.6,0,0,1,1.62,4.41h6.51a28.76,28.76,0,0,0,1.35-4.32l3.62.47a25.52,25.52,0,0,1-1.53,3.86h5.39v2.93H592.28a24.81,24.81,0,0,1-.46,3.62h11.9v3H593.49c1.07,1.58,3.4,4.22,8.32,6ZM610.4,77v38.14c0,1.07-.37,3.49-3.26,3.49h-5l-1-3.67,4.27,0c.93,0,1.26-.32,1.26-1.53V92.06H593V77Zm-3.67,2.88H596.6v3.26h10.13Zm0,5.86H596.6v3.49h10.13Z"/><path class="cls-1" d="M616.85,115a64.13,64.13,0,0,0,8.87-15.29l3.12,2.37c-1.91,4.46-5.81,12-9.43,16.49Zm7.71-18.63a26.11,26.11,0,0,0-7.62-4.92l1.86-3.26a28.3,28.3,0,0,1,8.13,4.79Zm2.18-12.27a30,30,0,0,0-7.9-5.11l2.09-3.16a35.24,35.24,0,0,1,8.22,4.83ZM651,102.52a64.85,64.85,0,0,1,9.44,14.64l-3.58,1.91a37,37,0,0,0-1.9-3.95,174.88,174.88,0,0,1-25.75,2.13l-.6-3.72h3.48c2.79-4.92,5.81-11.71,6.69-15.1h-9.57V94.85h13.52V86.11H631.16V82.53h11.61V75.47h3.91v7.06h12.13v3.58H646.68v8.74h13.8v3.57H643.2a128.25,128.25,0,0,1-6.83,15c4.46-.18,11.75-.51,16.91-1.25a60.31,60.31,0,0,0-5.44-7.67Z"/><path class="cls-1" d="M689.45,75.61v5.62a44.06,44.06,0,0,0,4.56,19.1c3,5.67,7.86,10.64,15.57,14.54l-2.75,3.72c-13.15-7.11-17.47-17.47-19.42-26.07-2.65,13-10.18,21.18-19.75,25.88L665,114.83c8.5-4.18,13.85-9.66,16.54-16.08a53.66,53.66,0,0,0,3.72-17.56V75.61Z"/><path class="cls-1" d="M735.29,85c0,1.44,0,8.17-1.67,13l-3.07-1.58c1.35-3.39,1.77-8.69,1.67-11.57Zm5.62-9.53v43.17H737.1V75.52Zm2.42,14.64a35.32,35.32,0,0,0-2.09-5.76L744,83.28a39.24,39.24,0,0,1,2.23,5.62Zm18.44-5.62h10.88v2.83H761.77v3.12h12.69v3H745.23v-3H758V87.36h-10.6V84.53H758V81.42H746.25v-3H758V75.52h3.76V78.4h11.8v3h-11.8Zm10.55,29.88c0,3.16-.65,4.27-4.41,4.27H763l-.75-3.53h5.21c1.21,0,1.21-.83,1.21-1.44v-3.34H751.32v8.31H747.6V96h24.72Zm-3.67-15.52H751.32v2.92h17.33Zm0,5.71H751.32v2.92h17.33Z"/><path class="cls-1" d="M792.57,75.52v4h8V83h-8v4.92h9.15v3.39h-2.92c-.42,2.14-1.21,5.16-1.62,6.51h4.13v3.44h-8.73v5.43h8v3.44h-8v8.55H788.9v-8.55h-8v-3.44h8v-5.43h-8.74V97.78h4.37a45.19,45.19,0,0,0-1.72-6.51h-3.07V87.88h9.15V83h-8V79.52h8v-4Zm1.11,22.26A32.65,32.65,0,0,0,795,91.27h-8.64A52.88,52.88,0,0,1,788,97.78ZM821,118.64a32.82,32.82,0,0,1-5.91-5.72,28.68,28.68,0,0,1-5.25,5.58l-2.32-3.12a24.28,24.28,0,0,0,5.3-5.53,35.7,35.7,0,0,1-5-10.36l3.26-1a45.64,45.64,0,0,0,3.72,8,36.5,36.5,0,0,0,3-9.48H806.69v21.66h-3.62V77H821c0,5.34-.6,10.55-1.25,12-.32.74-1,2.09-3.86,2.09h-5.16l-.66-3.58,4.51,0c2,0,2.6-.7,2.83-7H806.69V93.59h15a41.61,41.61,0,0,1-4.56,16.08,43.3,43.3,0,0,0,6,5.53Z"/><path class="cls-1" d="M837.11,97.08a3.95,3.95,0,1,1-3.95-3.95A3.94,3.94,0,0,1,837.11,97.08Z"/><path class="cls-1" d="M858.06,98a54.94,54.94,0,0,0-13.2-5.48l1.9-3.72A54.2,54.2,0,0,1,860,94.1Zm-10.78,13.2c19.23-1.3,27.09-9.48,32.43-26L883.66,87c-5.85,16.4-13.1,26.35-35.4,28.67Zm14.64-23.93a60.81,60.81,0,0,0-13.52-5.48l1.9-3.57a54.83,54.83,0,0,1,13.53,5.2Z"/><path class="cls-1" d="M888.43,113.2c7.81-3.12,21.38-12,27.74-29.79H890.85v-4h31a53.58,53.58,0,0,1-9.2,19.38,198.23,198.23,0,0,1,16.17,14.35l-3.44,3.44c-2.6-2.92-6-6.6-15.24-14.64A52.3,52.3,0,0,1,891,116.64Z"/><path class="cls-1" d="M973.77,90.9v4H958c-.47,13.2-5.35,19.65-18.83,22.35l-1.86-3.62c11.76-2,16-7.44,16.22-18.73H935v-4Zm-3.86-12.17v4H938.83v-4Z"/><path class="cls-1" d="M1008.51,94a93.67,93.67,0,0,1,12,21.19l-4.46,1.86a40.73,40.73,0,0,0-1.67-4.51c-6.13.88-17.75,2-33.87,2.74l-.42-4.46c1.82,0,2.84,0,4.37,0,5.21-12.91,8.73-27,10.31-33.36l5.06.65A288.31,288.31,0,0,1,989,110.7c14.36-.56,22.21-1.35,23.83-1.53a82.63,82.63,0,0,0-8-13.39Z"/><path class="cls-1" d="M1041.11,90.57V114h-8.46v3.72h-3.44V99.22a15.61,15.61,0,0,1-2.51,3.12L1025,98.15c1.77-2.14,5.44-6.41,6.09-17.29h-5.39V77.28h16.17v3.58h-7.16a45.54,45.54,0,0,1-1.72,9.71Zm-3.3,3.35h-5.16v16.64h5.16Zm25.37-1.26h5.39v3.67h-5.39v22.21h-3.81V96.33h-7.53V99c0,12.22-4.51,17.42-6.32,19.51l-3.34-2.69a17.74,17.74,0,0,0,4.32-6.88,35.39,35.39,0,0,0,1.58-10.13V96.33h-5V92.66h5V80.86h-4.22V77.28h24v3.58h-4.69Zm-3.81-11.8h-7.53v11.8h7.53Z"/><path class="cls-1" d="M1073.76,115.11c13.34-3.4,15.24-10.09,16-13.29h-13.52V98.19h14.22a41.06,41.06,0,0,0,.42-5.16h3.81a48.44,48.44,0,0,1-.46,5.16h13.05v15c0,.93.09,1.26,1.17,1.26h3.11c1.53,0,1.67-1.3,1.77-6.65l3.58.84c-.14,7.25-.56,9.43-3.86,9.43H1107c-3.39,0-3.39-2.51-3.39-3.86V101.82h-10c-.79,3.49-2.88,12.36-18,17.05Zm27.83-21.42c-2.37,0-3.62-.6-3.62-3.16V83h-6.6c-.84,3.86-3,9.39-14.27,12.59L1075.76,92c9.06-1.77,11.1-6.22,12-9H1079v5.71h-3.81v-9.2h18.31v-4h3.81v4h18.4v8.36H1114c-.32,4.13-1.07,5.81-3.77,5.81ZM1112,87.32V83h-10.64v6.18c0,.65,0,1.16,1.26,1.16h6.18c1.53,0,1.58-1,1.77-3.39Z"/><path class="cls-1" d="M1152.83,79.42c.56.46.7.6.93.78a45,45,0,0,0,3.07-4.83l2.83,1.12a52.83,52.83,0,0,1-3.9,5.62c.51.52,1.39,1.39,1.91,2,2.64-3.44,2.88-3.77,3.48-4.69l2.51,1.34a106.45,106.45,0,0,1-7.76,9.71c3.67-.23,3.9-.23,5.39-.37-.32-1-.56-1.58-.88-2.37l2.65-1a46.76,46.76,0,0,1,2.46,6.93l-2.88,1.21a20.75,20.75,0,0,0-.56-2.32c-1,.13-4.83.51-5.2.56a41.28,41.28,0,0,1,4.22,2.65l-1.67,2h5.86V101h-12.59a29.07,29.07,0,0,0,2.13,7.16,22.64,22.64,0,0,0,4.51-5.71l3.21,1.49a29.55,29.55,0,0,1-5.95,7.43c1.58,2.56,2.93,3.67,3.62,3.67.93,0,1.58-1.26,2.7-5.76l3,2.28c-1.26,4.78-2.51,7.11-5.48,7.11-3.3,0-6-3.81-6.74-5a36.07,36.07,0,0,1-9.9,4.7l-1.58-3.21a27.53,27.53,0,0,0,9.76-4.6,46,46,0,0,1-2.88-9.58h-8.92c0,1.07,0,1.26-.1,3a31.36,31.36,0,0,1,7.76,4.7l-2,3a27.51,27.51,0,0,0-5.95-4.37c-.66,6.28-2.42,9.06-4.19,11.39l-2.74-2.69c2.84-3.86,3.58-7.25,3.67-15h-1.91V98.24l-1.77,2.6a26.92,26.92,0,0,1-2.18-4.78v22.58h-3.44V97.54a40.45,40.45,0,0,1-3.76,10.55l-2-4.55A42.33,42.33,0,0,0,1127,88h-4.74V84.49h5v-9h3.44v9h3.67V88h-3.67v2.09a29.89,29.89,0,0,0,4.27,7.61l0,0h13.52a143.7,143.7,0,0,1-1.67-22.31h3.72a143.4,143.4,0,0,0,.75,15.2h1c1.16-1.21,2.83-3.31,3.53-4.14a37.68,37.68,0,0,0-4.88-4.88Zm-8.5,8.17a33.15,33.15,0,0,1,2.42,7.06l-2.84,1c-.18-.93-.28-1.35-.46-2-1.63.18-9.48.78-9.9.83l-.42-2.92a7.47,7.47,0,0,0,1.3,0c.61-.65,1.67-1.86,3.91-4.65a56.1,56.1,0,0,0-5.3-5.06l2-2.18c.56.42.7.51,1.12.83a31.08,31.08,0,0,0,3.62-5.06l2.83,1.07a38.39,38.39,0,0,1-4.41,5.85,27,27,0,0,1,2,2.14,47.49,47.49,0,0,0,3.53-4.88l2.47,1.58c-2.32,3.25-6.32,8.22-8.18,10.27,1.62,0,2.79-.09,4.65-.23a16.64,16.64,0,0,0-1-2.56Zm12.08,5.53-4.88.37c.14,1.16.42,3,.61,4.27h6.64c-.56-.37-2.46-1.62-4-2.47Z"/><path class="cls-1" d="M1183.71,102.19a45,45,0,0,1-3.49-6.09v22.44h-3.67V97a39.7,39.7,0,0,1-5.21,11.29l-1.67-4.92c2.83-3.72,5.16-8.09,6.65-15.34h-5.76V84.62h6V75.52h3.67v9.11H1185v3.44h-4.79v1.72a30.83,30.83,0,0,0,5.67,9ZM1197.32,93h-12.83V90.2h7.21V86.81H1187V84.16h4.74v-3h-6.13V78.31h6.13V75.52H1195v2.79h8V75.52h3.39v2.79h6v2.88h-6v3h4.51v2.65h-4.51V90.2h7.11V93h-13v2.83h10.17V108h2.84v2.88h-2.84v4.37c0,2.09-.65,3.3-3.52,3.3h-5.58l-.42-3.53,4.69,0c1.26,0,1.44-.23,1.44-1.26v-2.92h-16.64v7.66h-3.34v-7.66h-3.49V108h3.49V95.87h10Zm0,5.57h-6.65v3.3h6.65Zm0,5.95h-6.65V108h6.65ZM1203,81.19h-8v3h8Zm0,5.62h-8V90.2h8Zm-2.51,15.1h6.78v-3.3h-6.78Zm0,6.09h6.78v-3.44h-6.78Z"/><path class="cls-1" d="M1276,90.76v3.9H1260.4c-.09,14.45-6.6,20.08-18.91,22.58l-1.72-3.72c10.69-2,16.5-5.62,16.22-18.87h-18.73v-3.9Zm-7.52-12v3.77h-27V78.72Zm2.6,3.86A30.06,30.06,0,0,0,1269,75.8l2.92-.75a28.34,28.34,0,0,1,2.23,6.79Zm5.34-.61a41.66,41.66,0,0,0-2.37-6.87l2.74-.84a34.25,34.25,0,0,1,2.47,6.79Z"/><path class="cls-1" d="M1325,94.66v4.46h-41.27V94.66Z"/><path class="cls-1" d="M1346.56,92.62a56.46,56.46,0,0,1,11.9,7.43,31.82,31.82,0,0,0,6.36-13.75h-17.89c-5.43,7.67-10.5,10.74-12.59,11.95l-2.69-3.16a34,34,0,0,0,15.7-18.44l4.46.83a48.93,48.93,0,0,1-2.42,5H1370c-1.53,8.31-5.81,28.34-32.9,34.95l-2.37-3.67c8.36-1.72,14.73-4.74,20.82-10.5a54.74,54.74,0,0,0-11.8-7.71Z"/><path class="cls-1" d="M1406.57,76.77h4.32v9.15h8.32v4h-8.32v5.21c0,3.77-1,11.34-6.36,15.89-5.11,4.32-12,5.48-15.48,6l-1.72-3.95c9.71-1.26,19.23-4.46,19.23-17.94V89.92h-16.4V102.7h-4.32V89.92h-8.18v-4h8.18V77h4.32v8.92h16.4Z"/><path class="cls-1" d="M1450.1,117.34h-4.46v-23a97.51,97.51,0,0,1-18.63,9.34l-2.56-3.58C1431.14,97.78,1447.68,91,1459,77l4.09,2.74a122.6,122.6,0,0,1-13,11.57Z"/><path class="cls-1" d="M1508.67,81v4h-15v24.49h17.61v4.09h-39.5v-4.09h17.38V85.09h-14.74V81Z"/><path class="cls-1" d="M1532.77,90.48c-3.81-3-10.87-5.86-14.27-6.83l2.09-3.72a61.49,61.49,0,0,1,14.78,6.51Zm-14,20.82c13.1-.93,27.61-4.92,34.85-28.25l4.18,1.86c-3.72,10.69-9.76,28.06-37.4,31Z"/><path class="cls-1" d="M1562.26,113.2c7.81-3.12,21.38-12,27.74-29.79h-25.32v-4h31a53.58,53.58,0,0,1-9.2,19.38,198.23,198.23,0,0,1,16.17,14.35l-3.44,3.44c-2.6-2.92-6-6.6-15.24-14.64a52.3,52.3,0,0,1-19.19,14.69Z"/><path class="cls-1" d="M1649.51,87.65h-9.67V99.87h11.25v3.77H1608V99.87h11.34V87.65h-9.76V83.88h9.76V75.61h3.81v8.27H1636V75.61h3.86v8.27h9.67Zm-25.1,20.08a39,39,0,0,1-12.82,11.15l-2.93-3.25c5.86-2.92,8.55-5.06,12.36-9.76ZM1636,87.65h-12.87V99.87H1636Zm11.53,31.22a49.35,49.35,0,0,1-12.59-11.05l3.16-2.14a43.38,43.38,0,0,0,12.32,9.85Z"/><path class="cls-1" d="M1697.53,114.46c0,2.78-1.12,4.13-4.69,4.13h-6.65l-.65-3.95,6.41,0c1,0,1.62,0,1.62-1.48V80.82h-31.5v37.78h-3.95V77.19h39.4Zm-6.13-29.23v3.39h-27.23V85.23Zm-3,7.76v17H1667V93Zm-3.62,3.4h-14v10.26h14Z"/><path class="cls-1" d="M1718.71,88H1727v3.62h-8.22a38,38,0,0,0,7.62,10.09l-2,3.39a33.48,33.48,0,0,1-5.67-8.32v21.93h-4V97.45a40.34,40.34,0,0,1-8.78,12.78l-1.81-4.23a45.15,45.15,0,0,0,10.17-14.4h-9.71V88h10.13V81.23c-3.2.37-6.36.61-8.82.74l-.79-3.53c1.86-.09,12.5-.46,20.3-3l1.63,3.35a57.88,57.88,0,0,1-8.36,1.9Zm15.38,21.09h-3.95V79h3.95Zm12.27,5.53c0,3.53-2.75,4-4.28,4h-7.34l-.83-4.14,6.69.14c1.39,0,1.67-.09,1.67-1.4V75.57h4.09Z"/><path class="cls-1" d="M1793.4,114.74c0,3.39-2.09,3.91-3.67,3.91h-6.27l-.47-3.86,5.44.09c.79,0,1.07-.56,1.07-1.26v-9.39h-12.55v14h-3.67v-14h-12c-.83,6.74-3.39,11.48-6,14.31l-2.65-3.39a18.24,18.24,0,0,0,3.72-6.6,39.38,39.38,0,0,0,1.49-9.62V77.52h35.55Zm-20.12-22.17h-11.57v5.76a23.72,23.72,0,0,1,0,2.42h11.62Zm0-11.43h-11.57V89h11.57Zm16.21,0h-12.55V89h12.55Zm0,11.43h-12.55v8.18h12.55Z"/><path class="cls-1" d="M1843.29,82h-6.74v14.5h7.62v3.21H1835a24.6,24.6,0,0,0,9.57,7.48l-2,3.25a32.73,32.73,0,0,1-11.8-10.73h-15.94a29.54,29.54,0,0,1-12.09,10.73l-1.9-3.21a23.33,23.33,0,0,0,9.76-7.52h-9.34V96.48h7.81V82h-6.74V78.72h6.74V75.57h3.77v3.16h19.88V75.57h3.81v3.16h6.74Zm-22.4,31.7v-5.44h-10.18V105h10.18v-3.81h3.77V105H1835v3.25h-10.31v5.44h17.84V117H1803v-3.34ZM1832.74,82h-19.88v3h19.88Zm0,5.67h-19.88v2.83h19.88Zm0,5.57h-19.88v3.26h19.88Z"/><path class="cls-1" d="M1861.07,97.4h-2.74V91.13c-.47,0-2.51.19-2.93.23-.42,7.76-2.74,10.78-3.81,12.18l-2.7-2.79c2-2.7,2.79-4.79,3.21-9.15-1.21,0-1.62.09-2.51.14l-.09-3.12c1.95,0,2.18,0,2.74-.09v-9.9h5.48c.09-.28.61-2.09.88-3.16l3.81.1a25.59,25.59,0,0,1-1.07,3.07h6.51v8.64c.74,0,.93-.09,1.82-.18V90c-1.26.19-1.4.19-1.82.23v8.69c0,2.14-1,3.16-3.44,3.16h-3.95l-.83-3.44,3.77,0c.79,0,1.25,0,1.25-1.21V90.62l-3.57.32Zm31.46,19.93h-42.93V114h3.81v-9.85h35.18V114h3.95Zm-37-29c2.27-.14,3-.19,9.11-.75V81.51h-9.11Zm8.41,19h-6.88V114h6.88Zm-3.77-19.79a33.83,33.83,0,0,0-3-3.81l2.42-1.77a41.93,41.93,0,0,1,3,3.77Zm14.13,19.79h-6.93V114h6.93Zm17-4.55a43.26,43.26,0,0,1-10.79-3.81,43.14,43.14,0,0,1-10.08,3.81l-1.67-3.39a31.37,31.37,0,0,0,8.46-2.47,25.14,25.14,0,0,1-4.69-4.32l2.79-1.77a21.27,21.27,0,0,0,5.16,4.41,22.34,22.34,0,0,0,5.3-4.55H1871V87.79h19.19v2.88a25.56,25.56,0,0,1-6.37,6.27,36,36,0,0,0,9.15,2.27Zm-4.65-21.1c0,.7.09,1.07.83,1.07h.88c.51,0,1.07,0,1.26-3.49l3.07.79c-.32,3.3-.93,5.53-3.39,5.53h-3.72c-1.9,0-2.42-1.07-2.42-2.32V79.56h-6.32c-.47,3.07-1.44,5-5.26,7l-1.9-2.56c3.16-1.72,3.72-3.3,3.81-7.44h13.15Zm-1.72,25.65h-7.11V114h7.11Z"/><path class="cls-1" d="M1924.9,75.93a22.26,22.26,0,0,1-1.77,4.41h17.61v3.44H1921a30.67,30.67,0,0,1-5.48,6l-2.37-2.88a20.88,20.88,0,0,0,1.9-1.58h-9.34v6.13H1914c-.09,11.66-.37,22.22-1.62,25-.47,1-1.26,2-4.46,2h-3.57l-.7-3.72h3.67c.83,0,1.58,0,2-1.25.56-1.77,1-12.55,1-18.54h-4.6v.88c0,8.78-1.53,16.4-5.71,22.44l-2.65-3.07c1.72-2.74,4.83-7.66,4.83-19.43V85.32H1898V81.75h6.69V75.66h3.77v6.09h6.69v3.48a26.2,26.2,0,0,0,6.09-9.8Zm2,16.68V85.7h3.48v6l8.78-2.23c-.13,12.5-.13,13.85-.56,15.29-.37,1.26-1.11,2.28-3.9,2.28h-2.83l-.52-3.53,2.61,0c.78,0,1.39-.18,1.53-1.67.13-1.16.13-5.71.13-7.85l-5.25,1.3v15.05h-3.48V96.24l-4.79,1.21V112c0,2,.7,2.27,2.32,2.27h9.85c2.18,0,2.88,0,2.88-5.71l3.67,1.07c-.37,6.51-.93,8.18-5,8.18H1923c-2.37,0-4.46-.56-4.46-3.72V98.28l-2.79.7-.61-3.35,3.4-.88V88.2h3.57v5.62Z"/><path class="cls-1" d="M1963.58,83.46v3.35h-17.47V83.46ZM1962,76.91v3.3h-14.41v-3.3Zm0,13.1v3.35h-14.41V90Zm0,6.6V100h-14.41V96.62Zm0,6.69v13.24h-11v2.09h-3.4V103.31Zm-3.4,3.12H1951v6.92h7.61Zm29.65,12.22a39.42,39.42,0,0,1-12.08-5.91,33.24,33.24,0,0,1-12.13,5.91l-1.95-3.63a29.69,29.69,0,0,0,11.1-4.69,25.05,25.05,0,0,1-6.36-9L1970,100a22,22,0,0,0,5.95,8.08,28.17,28.17,0,0,0,6.55-9.15h-17.7V95.27h21.66v3.62a30.12,30.12,0,0,1-7.44,11.39,40.48,40.48,0,0,0,11,4.69Zm-5.76-41.73V87.18a1.06,1.06,0,0,0,1.12,1.21h1.07c.65,0,.93-.28,1.12-1a45.4,45.4,0,0,0,.55-5.06l3.49.84c-.14,8.6-2.47,8.87-4.14,8.87H1982a2.73,2.73,0,0,1-3.12-3V80.49h-7.43c-.42,7-1.72,9.85-5.44,12.82l-2.78-2.83c3.3-2.09,4.64-6,4.64-11.48,0-.83,0-1.39,0-2.09Z"/><g class="cls-2"><rect class="cls-1" x="112.06" y="64" width="13.12" height="52"/><rect class="cls-1" x="143.88" y="76.37" width="10.53" height="52"/><rect class="cls-1" x="128.87" y="70.19" width="11.94" height="52"/><rect class="cls-1" x="93.72" y="57.81" width="14.04" height="52"/><rect class="cls-1" x="29.35" y="31.41" width="6.22" height="52"/><rect class="cls-1" x="156.86" y="82.56" width="8.87" height="52"/><rect class="cls-1" x="15.93" y="20.51" width="3.33" height="52.02"/><rect class="cls-1" width="1.84" height="52"/><rect class="cls-1" x="75.38" y="51.61" width="13.42" height="52"/><rect class="cls-1" x="43.55" y="38.92" width="8.87" height="52"/><rect class="cls-1" x="58.57" y="45.29" width="11.28" height="52"/><rect class="cls-1" x="175.7" y="94.95" width="4.54" height="52"/><path class="cls-1" d="M180.86,101.56v52c0-.79,1.66,0,1.66,0v-52Z"/><rect class="cls-1" x="167.57" y="88.75" width="6.9" height="52"/></g><path class="cls-3" d="M0,153.58a11.69,11.69,0,0,0,2,6.15,29.07,29.07,0,0,0,5.72,6.37A67.94,67.94,0,0,0,15.88,172c3.32,2.09,7,4.14,11,6.15,4.18,2.1,8.66,4.15,13.28,6.15,5,2.15,10.15,4.2,15.31,6.15,5.8,2.2,11.6,4.25,17.12,6.15,6.77,2.33,13.15,4.39,18.65,6.16s11.88,3.81,18.65,6.15c5.52,1.89,11.32,3.94,17.12,6.15,5.16,2,10.33,4,15.32,6.15,4.63,2,9.11,4,13.28,6.15,4,2,7.7,4.06,11,6.15a66.87,66.87,0,0,1,8.43,6.15,28.52,28.52,0,0,1,5.47,6.15,11.75,11.75,0,0,1,2,6.15v-52a11.76,11.76,0,0,0-2-6.15,28.52,28.52,0,0,0-5.47-6.15,67,67,0,0,0-8.43-6.15c-3.32-2.09-7-4.14-11-6.15-4.17-2.1-8.65-4.17-13.28-6.15-5-2.15-10.16-4.2-15.32-6.16-5.8-2.19-11.59-4.25-17.12-6.13-6.77-2.33-13.15-4.39-18.65-6.16s-11.88-3.83-18.65-6.15c-5.52-1.89-11.32-4-17.12-6.15-5.16-2-10.32-4-15.31-6.15-4.63-2-9.11-4-13.28-6.15-4-2-7.69-4.06-11-6.15a66.49,66.49,0,0,1-8.19-5.93A28.72,28.72,0,0,1,2,107.72a11.69,11.69,0,0,1-2-6.16Z"/><path class="cls-1" d="M182.52,251.93a11.68,11.68,0,0,1-2,6.15,28.83,28.83,0,0,1-5.72,6.37,68.33,68.33,0,0,1-8.19,5.93c-3.32,2.08-7,4.14-11,6.15-4.17,2.1-8.65,4.15-13.28,6.15-5,2.13-10.16,4.2-15.31,6.15-5.81,2.19-11.6,4.25-17.12,6.15-6.77,2.32-13.15,4.39-18.65,6.15s-11.88,3.83-18.65,6.16c-5.52,1.88-11.32,3.94-17.12,6.13-5.16,2-10.32,4-15.31,6.16-4.63,2-9.11,4-13.28,6.15-4,2-7.7,4.05-11,6.15A67.66,67.66,0,0,0,7.43,338,28.46,28.46,0,0,0,2,344.14a11.67,11.67,0,0,0-2,6.15v-52a11.67,11.67,0,0,1,2-6.15A28.44,28.44,0,0,1,7.43,286a66.22,66.22,0,0,1,8.44-6.15c3.32-2.09,7-4.15,11-6.15,4.17-2.12,8.66-4.17,13.28-6.16,5-2.13,10.15-4.2,15.31-6.15,5.81-2.19,11.6-4.25,17.12-6.15,6.77-2.32,13.15-4.38,18.65-6.15s11.87-3.83,18.65-6.15c5.52-1.89,11.32-4,17.12-6.15,5.16-1.95,10.33-4,15.31-6.15,4.63-2,9.11-4,13.28-6.15,4-2,7.69-4.07,11-6.15a68.33,68.33,0,0,0,8.19-5.93,28.82,28.82,0,0,0,5.72-6.37,11.68,11.68,0,0,0,2-6.15Z"/><path class="cls-1" d="M182.52,153.58a11.76,11.76,0,0,1-2,6.15,29.45,29.45,0,0,1-5.72,6.37,68.23,68.23,0,0,1-8.19,5.92c-3.32,2.09-7,4.14-11,6.15-4.17,2.1-8.65,4.15-13.28,6.15-5,2.13-10.16,4.2-15.31,6.15-5.81,2.2-11.6,4.25-17.12,6.15-6.77,2.33-13.15,4.39-18.65,6.15s-11.88,3.83-18.65,6.16c-5.52,1.89-11.32,3.94-17.12,6.15-5.16,2-10.32,4-15.31,6.15-4.63,2-9.11,4-13.28,6.15-4,2-7.7,4.06-11,6.15a67.51,67.51,0,0,0-8.44,6.15A28.44,28.44,0,0,0,2,245.78a11.71,11.71,0,0,0-2,6.15v-52a11.67,11.67,0,0,1,2-6.15,28.46,28.46,0,0,1,5.46-6.15,67.66,67.66,0,0,1,8.44-6.15c3.32-2.09,7-4.14,11-6.15,4.17-2.1,8.66-4.17,13.28-6.15,5-2.15,10.15-4.2,15.31-6.16,5.81-2.19,11.6-4.25,17.12-6.13,6.77-2.33,13.15-4.39,18.65-6.16s11.87-3.83,18.65-6.15c5.52-1.89,11.32-4,17.12-6.15,5.16-2,10.33-4,15.31-6.15,4.63-2,9.11-4,13.28-6.15,4-2,7.69-4.07,11-6.15a66.77,66.77,0,0,0,8.19-5.93,29.1,29.1,0,0,0,5.72-6.36,11.76,11.76,0,0,0,2-6.16Z"/><rect class="cls-1" x="57.34" y="64" width="13.12" height="52"/><rect class="cls-1" x="28.11" y="76.37" width="10.53" height="52"/><rect class="cls-1" x="41.71" y="70.19" width="11.94" height="52"/><rect class="cls-1" x="74.76" y="57.81" width="14.04" height="52"/><rect class="cls-1" x="146.95" y="31.41" width="6.22" height="52"/><rect class="cls-1" x="16.79" y="82.56" width="8.87" height="52"/><rect class="cls-1" x="163.25" y="20.51" width="3.33" height="52.02"/><rect class="cls-1" x="180.67" width="1.84" height="52"/><rect class="cls-1" x="93.72" y="51.61" width="13.42" height="52"/><rect class="cls-1" x="130.1" y="38.92" width="8.87" height="52"/><rect class="cls-1" x="112.67" y="45.29" width="11.28" height="52"/><rect class="cls-1" x="2.27" y="94.95" width="4.55" height="52"/><path class="cls-1" d="M1.66,101.56v52c0-.79-1.66,0-1.66,0v-52Z"/><rect class="cls-1" x="8.05" y="88.75" width="6.9" height="52"/></g></g></svg>