<?xml version="1.0" encoding="utf-8"?>
<!-- Generator: Adobe Illustrator 23.0.1, SVG Export Plug-In . SVG Version: 6.00 Build 0)  -->
<svg version="1.1" id="レイヤー_1" xmlns="http://www.w3.org/2000/svg" xmlns:xlink="http://www.w3.org/1999/xlink" x="0px"
	 y="0px" width="503.06"
   height="146.61" viewBox="0 0 503.06 146.61" style="enable-background:new 0 0 503.06 146.61;" xml:space="preserve">
<style type="text/css">
	.st0{fill:#004098;}
	.st1{fill:#595757;}
</style>
<g>
	<g>
		<g>
			<g>
				<polygon class="st0" points="70.02,98 70.02,92.49 51.92,92.49 51.92,24.25 46.4,24.25 46.4,118.72 70.02,118.72 70.02,113.21 
					51.92,113.21 51.92,108.36 70.02,108.36 70.02,102.85 51.92,102.85 51.92,98 				"/>
				<rect x="25.68" y="24.25" class="st0" width="5.51" height="94.47"/>
				<rect x="36.04" y="24.25" class="st0" width="5.51" height="94.47"/>
			</g>
		</g>
		<path class="st0" d="M75.53,24.25v94.47h5.51v-21h33.59v21h5.51V24.25H75.53z M114.63,29.77v4.85H81.05v-4.85H114.63z
			 M81.05,71.49v-21h33.59v21H81.05z M114.63,77v4.85H81.05V77H114.63z M81.05,44.98v-4.85h33.59v4.85H81.05z M81.05,92.21v-4.85
			h33.59v4.85H81.05z"/>
	</g>
	<g>
		<g>
			<path class="st1" d="M161.17,28.7c-0.32,3.42-1.52,7.47-4.54,9.61c-1.28,0.9-3.87,2.31-9.35,2.82l-0.86-2.7
				c5.58-0.32,10.18-1.67,11.38-7.1H144.1V28.7H161.17z M159.85,23.63v2.61h-14.21v-2.61H159.85z"/>
		</g>
		<path class="st1" d="M182.96,41.17h-3.04v-9.05c-3.44,2.14-6.27,3.1-7.47,3.49l-1.41-2.52c9.09-2.85,13.97-8.75,15.28-10.36
			l2.57,1.78c-0.83,0.92-2.87,3.21-5.93,5.52V41.17z"/>
		<path class="st1" d="M216.92,24.29c-0.34,5.52-1.35,14.25-13.78,16.78l-1.24-2.67c9.2-1.73,11.1-6.44,11.77-11.3h-13.39v-2.8
			H216.92z"/>
		<path class="st1" d="M245.73,26.75v2.7h-3.42v2.16c0,7.27-5.58,8.99-10.23,9.65l-1.07-2.67c6.78-0.66,8.41-3.49,8.41-7v-2.14
			h-6.16v5.26h-2.87v-5.26h-3.29v-2.7h3.29v-3.7h2.87v3.7h6.16v-3.77h2.89v3.77H245.73z"/>
		<path class="st1" d="M265.39,41.17h-3.04v-9.05c-3.44,2.14-6.27,3.1-7.47,3.49l-1.41-2.52c9.09-2.85,13.97-8.75,15.28-10.36
			l2.57,1.78c-0.83,0.92-2.87,3.21-5.93,5.52V41.17z"/>
		<path class="st1" d="M291.8,36.92h7.45v2.78h-17.76v-2.78h7.36v-9.59h-6.29v-2.78h15.62v2.78h-6.38V36.92z"/>
		<path class="st1" d="M317.27,29.73c-0.94-0.64-3.14-2.05-6.63-3.19l1.3-2.46c1.56,0.47,3.96,1.26,6.87,3.02L317.27,29.73z
			 M311.04,37.75c6.36-0.51,12.3-2.63,15.04-12.67l2.5,1.75c-2.55,7.9-6.95,12.92-16.9,14.01L311.04,37.75z"/>
		<path class="st1" d="M353.08,23.95c-0.88,4.34-2.46,7-3.83,8.9c3.25,2.57,4.41,3.51,6.95,6.03l-2.4,2.31
			c-1.3-1.45-3.12-3.45-6.31-6.23c-2.01,2.25-5.07,4.75-8.32,6.18l-1.63-2.37c3.1-1.33,5.28-2.82,7.58-5.31
			c2.31-2.5,3.44-4.79,4.19-6.83h-10.59v-2.7H353.08z"/>
	</g>
	<g>
		<path class="st1" d="M370.54,72.24c-4.83,11.55-12.24,15.43-22.39,16.59V57.6h-5.29v36.79c19.47-0.82,27.68-8.02,33.19-22.15
			H370.54z"/>
		<polygon class="st1" points="444.77,73.66 427.83,73.66 427.83,78.06 440.37,78.06 440.37,89.57 423.85,89.57 423.85,94.41 
			450.88,94.41 450.88,89.57 444.77,89.57 		"/>
		<rect x="454.42" y="73.66" class="st1" width="22.96" height="4.62"/>
		<g>
			<path class="st1" d="M417.44,66.9c0.95-0.44,1.92-0.9,2.93-1.39l-2.33-4.67c-0.92,0.48-1.8,0.92-2.66,1.36L417.44,66.9z"/>
			<g>
				<path class="st1" d="M412.41,69.15c0.95-0.42,1.94-0.86,2.96-1.33l-2.04-4.63c-1.03,0.5-1.99,0.97-2.93,1.41L412.41,69.15z"/>
				<path class="st1" d="M395.7,89.56c-4.44,0-5.07-0.36-5.07-3.23v-9.54c2.79-0.6,8.51-1.91,19.54-6.63l-1.98-4.5
					c-9.18,4.2-13.96,5.39-17.55,6.24V57.6h-5.16v29.86c0,5.97,3.5,6.95,9.38,6.95c0,0,20.66,0,20.74,0v-4.86
					C415.14,89.56,395.7,89.56,395.7,89.56z"/>
			</g>
		</g>
	</g>
	<g>
		<path class="st1" d="M150.78,118l1.2-1.7c0.05-0.08,0.18-0.21,0.32-0.21c0.18,0,0.22,0.11,0.22,0.21c0,0.08-0.11,0.37-0.22,0.67
			l-0.58,1.57c-0.27,0.75-0.27,0.77-0.45,0.77c-0.16,0-0.32-0.29-0.5-0.59h-4.21c-0.16,0-0.64,0.02-1.1,0.02
			c-0.46,0-0.93,0.03-1.09,0.03c-0.27,0-0.38-0.06-0.38-0.21c0-0.24,0.14-0.26,0.26-0.27c0.98-0.08,0.98-0.24,0.98-1.41v-5.94
			c0-1.01,0-1.18-0.94-1.28c-0.16,0-0.3-0.03-0.3-0.21c0-0.21,0.21-0.24,0.34-0.24c0.4,0,0.82,0.05,1.81,0.05
			c0.86,0,1.87-0.05,2-0.05c0.1,0,0.34,0,0.34,0.24c0,0.16-0.13,0.19-0.54,0.26c-0.58,0.1-0.69,0.21-0.69,1.18V118H150.78z"/>
		<path class="st1" d="M157.06,114.9c0.05,0.66,0.16,3.02,2.21,3.02c0.53,0,0.98-0.16,1.6-0.51c0.03-0.02,0.21-0.11,0.35-0.11
			c0.1,0,0.22,0.1,0.22,0.21c0,0.3-1.38,1.46-3.2,1.46c-2.26,0-3.14-1.67-3.14-3.3c0-1.92,1.09-3.76,3.35-3.76
			c2.03,0,2.79,1.57,2.79,2.51c0,0.48-0.27,0.48-0.86,0.48H157.06z M158.42,114.35c0.69,0,0.99-0.02,0.99-0.56
			c0-0.46-0.24-1.34-1.09-1.34c-0.78,0-1.15,0.78-1.26,1.9H158.42z"/>
		<path class="st1" d="M167.56,114.43c0-0.88-0.03-1.1-0.38-1.46c-0.21-0.21-0.43-0.29-0.75-0.29c-0.51,0-0.96,0.3-0.96,0.77
			c0,0.06,0.03,0.34,0.02,0.4c-0.1,0.3-0.9,0.46-1.09,0.46c-0.21,0-0.32-0.24-0.32-0.48c0-0.38,0.13-0.61,0.98-1.12
			c1.3-0.79,1.94-0.82,2.34-0.82c1.07,0,1.54,0.58,1.71,0.85c0.19,0.3,0.22,0.64,0.22,1.28v2.37c0,1.5,0,1.52,0.85,1.6
			c0.1,0.02,0.27,0.03,0.27,0.21c0,0.19-0.1,0.22-0.42,0.3l-1.6,0.4c-0.22,0.05-0.24,0.05-0.29,0.05s-0.38-0.11-0.58-1.02
			c-0.91,0.61-1.54,1.02-2.13,1.02c-0.51,0-1.49-0.62-1.49-1.83c0-1.01,0.67-1.33,1.33-1.58c0.35-0.14,1.95-0.62,2.29-0.74V114.43z
			 M167.56,115.41c-1.2,0.34-1.89,0.59-1.89,1.42c0,0.66,0.53,0.9,0.85,0.9c0.24,0,0.53-0.13,1.04-0.37V115.41z"/>
		<path class="st1" d="M177.11,110.19c0-0.53-0.02-0.58-0.34-0.7c-0.66-0.26-0.78-0.35-0.78-0.5c0-0.19,0.27-0.29,0.62-0.38
			l1.71-0.5c0.05-0.02,0.24-0.06,0.35-0.06c0.24,0,0.24,0.06,0.24,0.64v8.45c0,0.53,0,0.58,0.19,0.59c0.13,0.02,0.67,0,0.77,0.06
			c0.06,0.03,0.1,0.11,0.1,0.19c0,0.18-0.05,0.19-0.61,0.38l-1.58,0.53c-0.32,0.11-0.35,0.11-0.45,0.11c-0.22,0-0.22-0.18-0.22-0.56
			v-0.78c-0.51,0.45-1.86,1.3-2.43,1.3c-0.96,0-2.34-1.14-2.34-3.19c0-2,1.39-3.87,3.76-3.87c0.54,0,0.77,0.08,1.01,0.16V110.19z
			 M177.11,113.03c-0.27-0.18-0.74-0.48-1.39-0.48c-0.91,0-1.57,0.83-1.57,2.18c0,1.47,0.72,2.72,1.87,2.72
			c0.46,0,0.82-0.21,1.09-0.4V113.03z"/>
		<path class="st1" d="M185.48,116.72c0,1.25,0,1.5,0.58,1.57c0.46,0.05,0.53,0.08,0.53,0.26c0,0.19-0.08,0.22-0.34,0.22
			c-0.35,0-1.2-0.05-1.67-0.05c-0.5,0-1.33,0.05-1.68,0.05c-0.22,0-0.4,0-0.4-0.22c0-0.18,0.08-0.19,0.61-0.24
			c0.54-0.05,0.56-0.34,0.56-1.58v-2.56c0-0.54-0.06-0.56-0.58-0.77c-0.51-0.21-0.53-0.19-0.53-0.35c0-0.18,0.27-0.29,0.5-0.37
			l1.62-0.64c0.1-0.03,0.42-0.13,0.53-0.13c0.27,0,0.27,0.14,0.27,0.56V116.72z M184.61,110.85c-0.58,0-1.06-0.46-1.06-1.06
			s0.46-1.07,1.06-1.07c0.59,0,1.07,0.46,1.07,1.09C185.69,110.4,185.19,110.85,184.61,110.85z"/>
		<path class="st1" d="M191.77,117.19c0,0.67-0.02,1.04,0.66,1.12c0.13,0.02,0.29,0.08,0.29,0.26c0,0.19-0.16,0.21-0.29,0.21
			c-0.35,0-1.14-0.05-1.68-0.05c-0.48,0-1.25,0.05-1.54,0.05c-0.24,0-0.32-0.05-0.32-0.26c0-0.18,0.06-0.18,0.54-0.24
			c0.43-0.06,0.53-0.27,0.53-0.94v-2.98c0-0.67,0-0.74-0.4-0.9c-0.67-0.27-0.67-0.26-0.67-0.4c0-0.13,0.1-0.22,0.4-0.34l1.83-0.69
			c0.21-0.1,0.34-0.13,0.45-0.13c0.22,0,0.21,0.24,0.21,0.45v0.72c1.04-0.67,1.73-1.17,2.54-1.17c0.45,0,0.96,0.26,1.28,0.61
			c0.32,0.35,0.51,0.58,0.51,1.75v2.71c0,1.02,0.02,1.25,0.46,1.33c0.53,0.1,0.56,0.14,0.56,0.27c0,0.14-0.08,0.21-0.27,0.21
			c-0.35,0-1.1-0.05-1.71-0.05c-0.66,0-1.41,0.05-1.63,0.05c-0.21,0-0.35,0-0.35-0.21s0.24-0.24,0.45-0.26
			c0.64-0.05,0.69-0.35,0.69-1.01v-2.56c0-0.64-0.21-1.5-1.22-1.5c-0.51,0-1.01,0.27-1.31,0.45V117.19z"/>
		<path class="st1" d="M206.76,112.8c0,0.26,0,0.37-0.16,0.37c-0.05,0-0.62-0.03-0.74-0.03c-0.18,0-0.38,0.02-0.54,0.03
			c0.11,0.19,0.29,0.46,0.29,1.09c0,2.19-2.26,2.59-2.85,2.69c-0.4,0.06-1.22,0.21-1.22,0.66c0,0.48,0.59,0.5,2.45,0.56
			c0.78,0.02,2.61,0.08,2.61,1.68c0,0.83-0.78,2.87-4.43,2.87c-2.82,0-3.11-1.34-3.11-1.7c0-0.99,1.14-1.25,1.83-1.39
			c-0.26-0.18-0.75-0.51-1.1-1.17c-0.16-0.3-0.26-0.61-0.26-0.74c0-0.16,0.05-0.18,0.53-0.32c0.74-0.21,1.04-0.38,1.39-0.59
			c-0.77-0.18-1.71-0.91-1.71-2.24c0-1.34,1.09-2.66,3.1-2.66c1.42,0,1.92,0.56,2.21,0.9c0.29-0.27,0.59-0.48,0.88-0.62
			c0.29-0.14,0.53-0.21,0.67-0.21c0.16,0,0.16,0.1,0.16,0.26V112.8z M200.69,120.84c0,0.59,0.5,1.28,1.92,1.28
			c1.04,0,2.54-0.37,2.54-1.41c0-0.62-0.56-0.75-1.9-0.78c-1.15-0.03-1.3-0.03-1.86-0.14C201.17,119.91,200.69,120.16,200.69,120.84
			z M202.57,112.42c-0.67,0-0.96,0.51-0.96,1.62c0,0.54,0.11,1.55,0.45,2.02c0.14,0.24,0.37,0.42,0.72,0.42
			c0.93,0,0.93-1.18,0.93-1.62C203.7,114.05,203.59,112.42,202.57,112.42z"/>
		<path class="st1" d="M221.56,114.96l-0.72,1.99c-0.38,1.06,0.08,1.2,1.01,1.36c0.1,0.02,0.22,0.06,0.22,0.24
			c0,0.26-0.21,0.22-0.42,0.22c-0.29,0-1.09-0.05-1.44-0.05c-0.34,0-0.99,0.05-1.41,0.05c-0.19,0-0.35,0-0.35-0.22
			c0-0.19,0.13-0.22,0.27-0.26c1.04-0.18,1.33-1.04,1.68-2l2.02-5.57c0.08-0.22,0.42-1.38,0.45-1.44c0.06-0.11,0.16-0.16,0.38-0.16
			h1.22c0.34,0,0.38,0.1,0.54,0.69l1.7,6.12c0.53,1.92,0.72,2.27,1.62,2.37c0.1,0.02,0.35,0.05,0.35,0.26s-0.03,0.22-0.43,0.22
			c-0.53,0-1.58-0.05-1.7-0.05c-0.66,0-2.26,0.05-2.43,0.05c-0.16,0-0.34-0.03-0.34-0.22c0-0.19,0.18-0.26,0.35-0.27
			c1.06-0.1,1.14-0.46,0.86-1.44l-0.53-1.87H221.56z M224.29,114.32l-1.07-3.92h-0.03l-1.39,3.92H224.29z"/>
		<path class="st1" d="M236.34,113.67c0-0.42-0.02-0.99-0.69-1.04c-0.64-0.05-0.72-0.03-0.72-0.26c0-0.22,0.16-0.22,0.56-0.22
			c0.26,0,1.02,0,1.2-0.02c0.19,0,1.02-0.08,1.2-0.08c0.26,0,0.26,0.08,0.26,0.46v5.04c0,0.35,0.05,0.35,0.5,0.37
			c0.26,0.02,0.54,0.02,0.54,0.22c0,0.24-0.43,0.34-0.62,0.38l-1.76,0.38c-0.21,0.05-0.24,0.05-0.27,0.05
			c-0.19,0-0.19-0.08-0.19-0.42v-0.58c-0.24,0.1-1.26,0.62-1.47,0.72c-0.48,0.19-0.82,0.27-1.17,0.27c-0.56,0-1.1-0.29-1.41-0.77
			c-0.29-0.45-0.29-1.1-0.29-1.62v-2.9c0-0.61,0-1.01-0.62-1.04c-0.3-0.02-0.5-0.02-0.5-0.26s0.26-0.24,0.46-0.24
			c0.22,0,0.9-0.02,1.26-0.03c0.45-0.02,0.77-0.08,0.94-0.08c0.26,0,0.26,0.1,0.26,0.5v3.34c0,0.98,0.03,1.78,1.18,1.78
			c0.54,0,0.96-0.14,1.34-0.27V113.67z"/>
		<path class="st1" d="M244.63,115.92c0,0.77,0,0.96,0.14,1.22c0.13,0.19,0.46,0.43,0.83,0.43c0.18,0,0.34-0.05,0.82-0.24
			c0.06-0.03,0.11-0.03,0.16-0.03c0.16,0,0.24,0.13,0.24,0.24c0,0.19-0.18,0.3-0.62,0.59c-0.91,0.59-1.28,0.75-1.73,0.75
			c-0.77,0-1.34-0.61-1.46-0.72c-0.21-0.26-0.19-0.61-0.19-1.26v-3.97h-0.58c-0.19,0-0.43,0-0.43-0.21c0-0.13,0.18-0.29,0.43-0.51
			l1.7-1.44c0.32-0.27,0.35-0.29,0.45-0.29c0.24,0,0.24,0.19,0.24,0.59v1.04h1.91c0.29,0,0.29,0.03,0.29,0.32
			c0,0.18-0.02,0.29-0.08,0.34c-0.05,0.02-0.45,0.02-0.54,0.02h-1.57V115.92z"/>
		<path class="st1" d="M252.16,116.58c0.03,1.04,0.03,1.17,0.05,1.22c0.08,0.42,0.24,0.46,0.59,0.51c0.14,0.02,0.3,0.06,0.3,0.22
			c0,0.13-0.1,0.24-0.37,0.24c-0.13,0-0.45-0.02-0.79-0.03c-0.32,0-0.64-0.02-0.75-0.02c-0.13,0-0.48,0.02-0.82,0.02
			c-0.35,0.02-0.69,0.03-0.82,0.03c-0.11,0-0.3-0.05-0.3-0.22c0-0.21,0.18-0.22,0.42-0.24c0.61-0.06,0.67-0.18,0.67-1.76v-6.31
			c0-0.46,0-0.51-0.05-0.61c-0.03-0.06-0.06-0.08-0.45-0.26l-0.29-0.11c-0.26-0.11-0.34-0.14-0.34-0.29c0-0.19,0.06-0.21,0.62-0.37
			l1.52-0.45c0.18-0.05,0.45-0.11,0.53-0.11c0.26,0,0.26,0.14,0.26,0.69v4.24c0.82-0.83,1.58-1.07,2.26-1.07
			c0.72,0,1.52,0.3,1.89,1.15c0.13,0.29,0.18,0.42,0.18,1.78v2.02c0,1.15,0.03,1.36,0.56,1.42c0.26,0.03,0.48,0.06,0.48,0.27
			c0,0.22-0.24,0.22-0.29,0.22c-0.13,0-0.51-0.02-0.9-0.03c-0.37,0-0.74-0.02-0.86-0.02s-0.48,0.02-0.82,0.02
			c-0.35,0.02-0.69,0.03-0.82,0.03c-0.1,0-0.29-0.03-0.29-0.24c0-0.19,0.16-0.21,0.51-0.24c0.61-0.05,0.61-0.29,0.61-1.89v-1.28
			c0-0.82,0-1.98-1.17-1.98c-0.16,0-0.69,0-1.34,0.58V116.58z"/>
		<path class="st1" d="M263.21,118.96c-2.26,0-3.52-1.58-3.52-3.51c0-2.11,1.55-3.55,3.67-3.55c2.45,0,3.55,1.7,3.55,3.5
			C266.9,117.38,265.59,118.96,263.21,118.96z M263.25,112.45c-1.28,0-1.44,1.58-1.44,2.91c0,1.87,0.32,3.06,1.49,3.06
			c1.28,0,1.47-1.67,1.47-2.93C264.77,114.11,264.57,112.45,263.25,112.45z"/>
		<path class="st1" d="M273,116.95c0,0.78,0,1.3,0.78,1.34c0.59,0.03,0.74,0.03,0.74,0.26c0,0.19-0.11,0.22-0.3,0.22
			c-0.48,0-1.5-0.05-2.22-0.05c-0.29,0-1.12,0.05-1.58,0.05c-0.13,0-0.32-0.02-0.32-0.22c0-0.19,0.06-0.22,0.64-0.3
			c0.4-0.05,0.46-0.45,0.46-1.5v-2.42c0-0.45,0-0.66-0.19-0.75c-0.58-0.21-0.8-0.29-0.85-0.35c-0.05-0.03-0.05-0.11-0.05-0.14
			c0-0.18,0.1-0.21,0.48-0.37l1.62-0.64c0.16-0.06,0.42-0.16,0.58-0.16c0.22,0,0.22,0.18,0.22,0.51v0.48
			c0.48-0.27,1.1-0.62,1.47-0.8c0.26-0.13,0.42-0.19,0.66-0.19c0.59,0,0.69,0.69,0.69,1.33c0,0.24,0,0.88-0.45,0.88
			c-0.19,0-0.3-0.11-0.48-0.37c-0.11-0.18-0.35-0.53-0.75-0.53c-0.37,0-0.8,0.21-1.14,0.37V116.95z"/>
		<path class="st1" d="M281.92,113.99c-0.03,0.1-0.13,0.18-0.22,0.18c-0.13,0-0.22-0.06-0.26-0.18l-0.77-2.82
			c-0.11-0.38-0.16-0.74-0.16-1.01c0-0.69,0.51-1.2,1.15-1.2c0.72,0,1.17,0.56,1.17,1.17c0,0.32-0.16,0.91-0.19,1.04L281.92,113.99z
			"/>
		<path class="st1" d="M287.44,117.16c0-0.26,0.02-0.53,0.26-0.53c0.14,0,0.21,0.08,0.29,0.37c0.1,0.37,0.42,1.42,1.63,1.42
			c0.51,0,0.99-0.38,0.99-0.96c0-0.61-0.35-0.91-1.6-1.66c-1.1-0.67-1.49-1.2-1.49-1.95c0-0.78,0.48-1.94,2.56-1.94
			c0.54,0,1.66,0.08,1.79,0.29c0.06,0.11,0.11,1.3,0.11,1.52c0,0.1,0,0.29-0.22,0.29c-0.16,0-0.24-0.05-0.38-0.54
			c-0.18-0.61-0.62-1.01-1.28-1.01c-0.64,0-0.93,0.46-0.93,0.82c0,0.54,0.54,0.88,1.34,1.33c1.01,0.56,1.7,1.06,1.7,2.16
			c0,0.78-0.42,2.21-2.8,2.21c-0.56,0-1.65-0.1-1.87-0.22c-0.13-0.06-0.14-0.14-0.13-0.5L287.44,117.16z"/>
	</g>
	<g>
		<path class="st1" d="M160.54,64.99c-2.32-1.47-4.36-3.17-6.96-6.3c-2.08,3.74-3.6,5.59-4.88,6.96h13.12v4.83h-14.07v-3.6
			c-1.56,1.85-1.99,2.23-2.42,2.65l-4.17-3.93c3.17-2.51,6.77-6.16,9.14-12.88l4.97,0.47c0.43,0.05,1.37,0.19,1.37,0.95
			c0,0.19-0.09,0.33-0.14,0.43c2.51,2.89,4.74,4.83,7.72,6.82L160.54,64.99z M155.57,90.56l-1.89-4.59v8.29h-5.16V77.78h-4.41V72.9
			h18.66v14.16C162.77,90.61,158.27,90.61,155.57,90.56z M158.04,77.78h-4.36v7.96c0.62,0.1,1.04,0.14,2.51,0.14
			c0.95,0,1.85,0,1.85-1.42V77.78z M182.05,94.83c-3.6-1.37-6.2-3.17-8.9-5.78l3.27-3.22h-7.39l3.46,2.6
			c0.14,0.09,0.57,0.47,0.57,0.81c0,0.28-0.38,0.28-0.76,0.38c-0.1,0.05-0.81,0.09-0.95,0.19c-3.32,3.22-5.54,4.64-7.15,5.68
			l-4.17-3.74c3.65-1.85,6.06-3.65,7.77-5.92h-3.31V61.44h5.21c0.57-1.33,0.57-1.37,0.95-2.37h-8.19v-4.55h22.35v4.55h-8.05
			c-0.05,0-0.95,1.99-1.14,2.37h8.1v24.39h-6.53c3.03,2.89,5.59,4.12,8.48,4.92L182.05,94.83z M178.64,65.42h-9.14v2.6h9.14V65.42z
			 M178.64,72.05h-9.14v2.6h9.14V72.05z M178.64,78.63h-9.14v2.84h9.14V78.63z"/>
		<path class="st1" d="M218.69,84.36c-4.31,1.75-9.14,3.31-9.9,3.55c-2.23,0.66-2.46,0.76-2.89,1.09c-0.62,0.47-0.66,0.52-0.95,0.52
			c-0.43,0-0.57-0.52-0.62-0.85l-0.62-4.17c-3.74,1.94-4.93,2.46-7.58,3.79c-0.9,0.43-1.09,0.57-1.61,1.52
			c-0.43,0.76-0.62,0.99-0.95,0.99c-0.47,0-0.66-0.57-0.71-0.85l-1.52-5.97c1.14-0.38,1.71-0.57,4.93-1.8V69.3h-3.79v-5.64h3.79
			v-9.71l5.11,0.71c0.19,0.05,1.14,0.19,1.14,0.81c0,0.28-0.1,0.38-0.28,0.57c-0.71,0.71-0.81,0.76-0.81,0.99v6.63h4.21v5.64h-4.21
			v10.8c1.23-0.47,2.32-0.95,4.4-1.89v5.16c-0.52,0.28-0.66,0.33-1.18,0.62c3.27-0.66,7.06-1.47,14.49-4.36L218.69,84.36z
			 M229.3,93.64c-1.04,0-3.6-0.71-6.16-6.58c-2.18,2.27-4.5,4.36-9.95,7.29l-4.03-4.07c6.63-2.84,9.42-5.21,11.98-8.57
			c-1.23-4.97-1.71-9.05-1.8-17.67h-13.4v-4.73h13.4c0.05-1.61,0.1-5.54,0.1-5.59l5.21,0.43c0.24,0,0.81,0.1,0.81,0.47
			c0,0.28-0.24,0.47-0.28,0.52c-0.38,0.33-0.66,0.52-0.71,0.71c-0.14,0.33-0.28,2.89-0.33,3.46h4.21c-0.9-1.09-1.61-1.75-2.89-2.75
			l2.98-2.84c0.9,0.66,2.32,1.85,3.69,3.41l-2.51,2.18h3.41v4.73h-9.05c0,6.11,0.09,8.29,0.57,11.79c1.56-3.74,2.18-6.35,2.7-10.13
			l5.02,1.42c0.85,0.24,0.95,0.47,0.95,0.66c0,0.33-0.1,0.38-0.81,0.81c-0.43,0.24-0.62,0.47-0.76,0.9
			c-1.94,6.68-2.56,8.86-5.35,13.4c0.38,0.81,1.37,3.22,2.18,3.22c0.76,0,1.42-2.56,1.71-3.74l3.93,2.89
			C233.79,87.25,232.56,93.64,229.3,93.64z M206.33,79.86V66.32h11.98v13.54H206.33z M213.81,70.67h-2.84v4.73h2.84V70.67z"/>
		<path class="st1" d="M242.9,58.74V54.1h22.78v4.64H242.9z M279.55,94.59c0-1.23-0.1-2.32-0.38-4.4
			c-2.37,0.43-4.45,0.85-11.22,2.08c-0.47,0.14-0.66,0.19-1.09,0.95c-0.28,0.57-0.57,0.76-0.81,0.76c-0.43,0-0.66-0.57-0.95-1.47
			l-0.9-2.98v1.66c0,3.36-4.26,3.5-5.87,3.55l-1.94-5.16c0.66,0.19,1.42,0.33,2.08,0.33c1.04,0,1.37-0.14,1.37-1.28v-4.78h-4.4
			c-0.85,0-1.28-0.71-1.28-1.23v-5.07H251l2.23,0.85c0.14,0.1,0.62,0.24,0.62,0.62c0,0.24-0.19,0.28-0.71,0.47
			c-0.66,2.04-1.47,3.17-2.84,4.55l-2.51-1.51v11.7h-4.59V73.32h21.03v14.73c2.89-0.14,5.87-0.52,7.25-0.71v-8.71h-1.94v1.89h-4.45
			v-19.8h6.39v-7.1l4.97,0.33c1.04,0.05,1.18,0.28,1.18,0.62c0,0.24-0.19,0.43-0.57,0.66s-0.57,0.43-0.57,0.81v4.69h7.01v17.9h-7.01
			v8.05c0.47-0.05,1.09-0.09,1.99-0.28c-0.62-3.03-0.95-4.21-1.42-5.45l4.83-1.09c1.66,4.64,2.56,8.81,2.75,13.64L279.55,94.59z
			 M245.08,71.15V60.59h18.09v10.56H245.08z M247.78,77.54v4.55c1.42-1.18,2.37-2.7,2.51-4.55H247.78z M255.68,88.15v5.49h-4.4
			v-5.49h-2.46v-3.46h9.33v3.46H255.68z M258.34,64.19h-8.48v3.46h8.48V64.19z M259.85,77.54h-2.23v2.37c0,0.47,0.14,0.52,0.62,0.52
			h1.61V77.54z M271.45,65.18h-1.94v8.67h1.94V65.18z M278.7,65.18h-2.23v8.67h2.23V65.18z"/>
		<path class="st1" d="M330.09,72.95c-2.98-1.23-5.4-2.42-8.95-4.88v3.84H302.1v-2.94c-4.26,3.08-6.77,4.17-8.43,4.93l-3.98-4.03
			c6.01-2.7,14.68-7.86,19.61-16.96l5.54,1.09c0.43,0.1,0.66,0.38,0.66,0.52c0,0.19-0.43,0.57-0.71,0.76
			c1.09,1.47,3.12,4.36,7.48,7.43c5.02,3.5,9.57,4.83,11.89,5.49L330.09,72.95z M320.38,93.78v-1.42h-17.14v1.61h-5.16V75.6h27.66
			v18.19H320.38z M320.38,80.24h-17.14v7.25h17.14V80.24z M311.66,59.21c-1.09,1.61-2.75,4.07-7.1,7.86h15.2
			C317.39,65.18,314.98,63.19,311.66,59.21z"/>
	</g>
</g>
</svg>
