<svg xmlns="http://www.w3.org/2000/svg" viewBox="0 0 304.598 63.78"><path d="M98.142 3.577c0-.424-.021-.808-.101-1.192h2.363c-.06.405-.101.768-.101 1.192v.243h5.738c.848 0 1.414-.041 2.02-.121v1.979c-.646-.08-1.131-.101-2.02-.101H92.667c-.89 0-1.354.021-2 .101V3.699c.606.08 1.191.121 2.101.121h5.374v-.243zm-6.93 9.536c0-.667-.02-1.151-.081-1.757.606.06 1.212.08 2.02.08h12.546c.93 0 1.374-.02 1.919-.08-.06.586-.08 1.07-.08 1.737v4.95c0 .949-.101 1.333-.465 1.656-.384.344-.97.465-2.343.465-.405 0-.505 0-1.112-.041-.302 0-.302 0-.626-.02-.04-.868-.141-1.313-.404-1.939.99.121 1.899.182 2.424.182.364 0 .465-.081.465-.404v-4.829H93.273v5.152c0 .99.02 1.474.101 2.141h-2.283c.08-.424.121-1.212.121-2.141v-5.152zm2.404-5.434c0-.607-.02-.95-.06-1.394.525.04 1.009.06 1.899.06h8.04c.828 0 1.212-.02 1.737-.06-.04.485-.06.787-.06 1.414v1.657c0 .727.02.969.06 1.414a20.472 20.472 0 00-1.838-.061h-8c-.808 0-1.293.02-1.838.061.04-.384.06-.788.06-1.414V7.679zm9.899 9.01c0 .566.021.949.061 1.313-.344-.04-1.111-.06-1.616-.06h-4.889v.969h-2c.06-.364.08-.808.08-1.575v-2.243c0-.546-.02-.929-.06-1.273.485.04.869.061 1.576.061H102c.728 0 .909 0 1.576-.061-.04.384-.061.667-.061 1.253v1.616zm-7.879-7.596h7.495V7.921h-7.495v1.172zm1.435 7.313h4.586v-1.051h-4.586v1.051zM118.627 9.84c.505.081.828.102 1.555.102h1.394c.586 0 1.031-.021 1.495-.082-.06.566-.081 1.071-.081 2.122v4.101c1.092 1.555 1.96 1.899 4.849 1.899 3.818 0 6.627-.122 8.89-.404-.384 1.071-.425 1.232-.586 2.303-1.738.061-4.162.101-6.122.101-3.212 0-4.687-.101-5.616-.404-1.031-.323-1.616-.748-2.404-1.758-.91.849-1.233 1.132-2.061 1.718-.404.282-.626.464-.829.606l-.949-2.202c.727-.304 1.919-1.112 2.788-1.879V11.86h-1.01c-.566 0-.829.021-1.313.102V9.84zm1.576-7.172c1.394 1.253 2.222 2.142 3.353 3.536l-1.616 1.575c-1.03-1.434-1.899-2.403-3.273-3.676l1.536-1.435zm5.313 3.294c-.849 0-1.233.02-1.798.101V4.002c.586.101 1.091.121 2.141.121h2.789v-.445c0-.464-.041-.868-.102-1.232h2.183c-.081.364-.102.707-.102 1.131v.546h3.414c1.071 0 1.435-.02 2.102-.121v2.061c-.607-.081-.91-.101-1.758-.101h-3.758v.989h2.909c.828 0 1.253-.02 1.859-.081-.061.566-.08.97-.08 1.738v1.818c0 .809.019 1.212.08 1.798-.485-.06-.97-.081-1.899-.081h-1.879c.768.667 1.01.869 1.636 1.253 1.132.748 1.939 1.111 3.313 1.576-.585.868-.626.97-1.05 1.919-1.212-.546-1.818-.909-2.848-1.656-.95-.688-1.374-1.071-2.102-1.92.041.343.061.728.061 1.374v1.414c0 .526.021.889.102 1.313h-2.183c.061-.384.102-.787.102-1.333v-1.414c0-.182 0-.626.04-1.293-1.051 1.252-2.263 2.222-4.223 3.354-.404-.768-.626-1.092-1.212-1.738 1.859-.768 3.151-1.596 4.505-2.849h-1.656c-.91 0-1.313.021-1.899.081.06-.566.08-1.01.08-1.758V8.669c0-.768-.02-1.233-.08-1.799.626.061 1.05.081 1.919.081h2.526v-.989h-3.132zm.727 4.444h2.404V8.689h-2.404v1.717zm4.384 0h2.688V8.689h-2.688v1.717zM148.976 4.891c0-.95-.041-1.576-.121-2.162h2.262c-.101.626-.122 1.151-.122 2.162v2.707h.202c.647 0 .93-.02 1.293-.061v2c-.545-.04-.848-.06-1.252-.06h-.243v5.07c.607-.262.769-.323 1.476-.646l.04 2c-1.819.829-2.546 1.152-4.505 1.919-.364.142-.647.283-.869.384l-.405-2.242c.446-.061 1.132-.263 2.244-.647V9.477h-.647c-.505 0-.889.02-1.353.08v-2.04a9.78 9.78 0 001.373.081h.627V4.891zm14.909 12.949c.363 0 .667-.02.971-.08v2.141a21.064 21.064 0 00-2.143-.101h-9.253c-.868 0-1.515.04-2.101.101V17.78c.364.04.687.06 1.212.06h.465v-3.05c0-.97-.02-1.293-.081-1.899.607.04.707.04 1.859.04h7.049c1.152 0 1.274 0 1.861-.04-.041.525-.062.969-.062 1.859v3.09h.223zm-10.081-9.535v-.384c-.223.202-.283.283-.546.525a5.243 5.243 0 00-1.373-1.576c1.05-.868 1.737-1.677 2.323-2.727.323-.626.606-1.374.707-1.879l2.183.586c-.121.222-.121.222-.648 1.313h5.82c.948 0 1.615-.04 2.18-.121v2.081a20.824 20.824 0 00-2.16-.101h-6.93a12.06 12.06 0 01-.828 1.091c.324.02.484.02.746.02h6.324c.768 0 1.092-.02 1.555-.04a10.15 10.15 0 00-.059 1.212v2.465c0 .545.02.909.059 1.232-.586-.04-.686-.04-1.473-.04h-6.406c-.767 0-.969 0-1.534.04.04-.323.061-.707.061-1.192V8.305zm1.07 9.535h1.213v-3.151h-1.213v3.151zm.869-7.575h5.354V8.83h-5.354v1.435zm1.98 7.575h1.213v-3.151h-1.213v3.151zm2.847 0h1.214v-3.151h-1.214v3.151zM178.591 4.002c0-.768-.021-1.011-.103-1.414h2.244a8.612 8.612 0 00-.102 1.414h6.081c-.021-.768-.04-1.051-.101-1.414h2.242c-.08.403-.101.727-.101 1.414h1.293c.909 0 1.556-.041 2.121-.122v1.96a22.866 22.866 0 00-2.121-.101h-1.293v5.455h1.556c.768 0 1.535-.041 2.141-.122v1.96c-.565-.081-1.213-.121-2.08-.121h-1.98c1.192 1.01 2.606 1.657 4.606 2.141a8.958 8.958 0 00-.931 2.041c-1.373-.525-2.322-.99-3.474-1.757v1.313c-.565-.061-.929-.081-1.776-.081h-2.244v1.354h4.728c.909 0 1.556-.041 2.162-.122v2.122c-.627-.082-1.334-.122-2.323-.122H178.35c-.951 0-1.678.04-2.324.122V17.82c.545.061 1.211.102 2.201.102h4.324v-1.354h-1.939c-.809 0-1.273.02-1.778.081v-1.334c-1.131.808-1.979 1.253-3.454 1.818-.223-.747-.425-1.191-.95-2.02 1.899-.444 3.313-1.131 4.485-2.202h-1.879c-.869 0-1.475.04-2.102.121v-1.96c.566.081 1.232.122 2.082.122h1.575V5.739h-1.051c-.808 0-1.476.04-2.142.101V3.88c.586.081 1.252.122 2.142.122h1.051zm2.828 8.909c-.586.747-1.01 1.172-1.839 1.839.324.02.546.02 1.031.02h1.939c0-.626-.021-.95-.102-1.334h2.223c-.081.424-.102.708-.102 1.334h2.244c.504 0 .707 0 .969-.02-.889-.667-1.334-1.112-1.939-1.839h-4.424zm5.293-7.172h-6.081v.808h6.081v-.808zm0 2.344h-6.081v.768h6.081v-.768zm0 2.282h-6.081v.829h6.081v-.829zM205.208 4.911c-.828 0-1.597.04-2.101.081V2.931c.625.081 1.332.121 2.121.121h4.748c.828 0 1.515-.04 2.182-.121v2.061c-.547-.061-1.273-.081-1.96-.081h-.626v1.596h.262c1.031 0 1.436-.021 2.02-.061a31.23 31.23 0 00-.06 2.121v9.314c0 .97.021 1.515.081 2.142h-1.879v-.728h-4.586v1.071h-1.939c.082-.727.121-1.495.121-2.647v-8.97c0-.97-.021-1.656-.08-2.303.564.04.989.061 1.979.061h.403V4.911h-.686zm.202 9.374h4.607V12.79h-.547c-1.253 0-1.453-.121-1.453-.869V8.143h-.547v.222c0 1.152-.162 2.687-.384 3.637-.182.768-.344 1.172-.849 2.061-.242-.586-.424-.91-.828-1.414v1.636zm0-1.859c.545-1.091.707-2.04.768-4.283h-.768v4.283zm0 5.051h4.605v-1.515h-4.605v1.515zm2.061-10.97h.547V4.911h-.547v1.596zm1.818 4.323c0 .303.04.323.729.343v-3.03h-.729v2.687zm10.627-1.596c0 .808.02 1.313.08 1.899a17.99 17.99 0 00-1.939-.081h-3.131v6.344c0 .343.04.464.161.526.162.101.687.161 1.374.161 1.434 0 1.818-.121 2-.606.143-.404.223-1.414.223-2.869.808.444 1.312.647 2.041.808-.121 2.283-.304 3.273-.707 3.798-.486.606-1.436.829-3.678.829-3.029 0-3.475-.263-3.475-2.02v-7.092c0-.929-.02-1.353-.081-1.919.586.06 1.11.081 1.94.081h3.129l-.019-4.081h-3.071c-.99 0-1.535.02-2.121.101V2.931c.627.081 1.272.121 2.142.121h3.212c.85 0 1.436-.02 2-.081-.061.728-.08 1.031-.08 1.96v4.303zM234.531 10.628c1.051.707 1.676 1.172 2.242 1.697.465-1.172.627-1.798.848-3.313h-2.767c-.828 1.859-1.737 3.192-3.192 4.687-.363-.869-.627-1.334-1.151-1.94 1.839-1.717 2.93-3.838 3.414-6.606h-1.03c-.646 0-1.191.04-1.798.101v-2.04c.586.08 1.11.1 2.04.1h5.273c.889 0 1.515-.04 2.101-.1v2.02a20.987 20.987 0 00-2.06-.081h-2.506a16.38 16.38 0 01-.465 2.061h2.809c.828 0 1.09-.021 1.617-.061-.021.141-.021.141-.082.626-.283 2.465-.869 4.829-1.556 6.324-.647 1.374-1.637 2.788-2.707 3.838-1.03 1.011-1.677 1.516-2.97 2.364-.465-.868-.707-1.172-1.354-1.778 2.262-1.333 3.616-2.566 4.646-4.343-.809-.829-1.535-1.435-2.344-1.96l.992-1.596zm9.072-6.627c-.081.586-.103 1.172-.103 2.364v7.092c0 1.292.021 1.797.103 2.323h-2.243c.081-.546.102-1.01.102-2.263V6.365c0-1.131-.021-1.717-.102-2.364h2.243zm4.202-1.232c-.081.728-.122 1.556-.122 2.626v12.506c0 1.899-.505 2.243-3.333 2.243-.344 0-.344 0-1.15-.021-.345-.02-.345-.02-.607-.02-.02-.97-.141-1.576-.404-2.182.768.121 1.455.182 2.223.182 1.09 0 1.211-.061 1.211-.566V5.395c0-.888-.039-1.858-.121-2.626h2.303zM268.451 8.709c-.787 0-.99 0-1.576.06V7.88c-.908.687-1.069.808-1.838 1.253-.303-.687-.403-.848-.646-1.212-.402-.02-.424-.02-.666-.02h-.484c.424 1.131.949 2.02 1.979 3.293-.384.606-.627 1.131-.89 1.858-.787-1.394-.787-1.394-1.293-2.626.041.566.08 1.455.08 2.586v5.01c0 1.031.043 1.778.123 2.384h-2.223c.08-.626.121-1.414.121-2.384v-4c0-.667.04-1.616.121-2.566-.564 1.778-.626 1.94-.949 2.748-.081.162-.344.747-.829 1.757-.403-1.01-.647-1.474-1.11-2.06 1.03-1.455 2.162-4.101 2.565-6h-.769c-.586 0-.989.02-1.312.08V5.86c.344.061.688.081 1.312.081h.949V4.426c0-.97-.02-1.536-.1-2.02h2.202c-.081.545-.103 1.07-.103 2v1.535h.586c.465 0 .688-.02 1.031-.081v1.111c.707-.444 1.374-.97 2.061-1.576 1.051-.949 1.656-1.676 2.304-2.828h2.142c.545.949 1.17 1.616 2.282 2.505 1.132.889 2.121 1.475 3.414 2a7.61 7.61 0 00-1.01 1.92c-.89-.445-1.253-.647-2.161-1.273v1.05a15.34 15.34 0 00-1.557-.06h-1.029v1.192h2.545c.788 0 1.253-.021 1.718-.061-.041.546-.062.97-.062 1.495v2.384c0 .687.021.99.062 1.475-.567-.061-1.03-.081-1.839-.081h-1.98c1.172 1.596 2.91 2.667 5.172 3.152-.545.747-.848 1.333-1.07 2.081-1.454-.506-2.85-1.314-3.879-2.284-.729-.666-1.172-1.232-1.616-2.02-.929 2.041-2.526 3.374-5.192 4.283-.383-.889-.646-1.333-1.231-1.939 2.524-.566 3.817-1.455 4.707-3.273h-1.536c-.747 0-1.232.02-1.757.081.021-.445.04-.808.04-1.233v-2.788c0-.525-.02-.848-.061-1.313.545.041.707.041 1.656.041h2.385V8.709h-.789zm-1.272 2.829v1.919h1.858c.102-.586.123-.868.162-1.919h-2.02zm5.03-4.626h.465c-1.051-.849-1.656-1.495-2.444-2.627-.769 1.132-1.354 1.859-2.182 2.627h4.161zm-1.07 4.626c-.04.889-.081 1.313-.161 1.919h2.464v-1.919h-2.303zM293.467 16.689c-1.414 1.494-2.627 2.323-4.729 3.313-.564-.809-.949-1.233-1.596-1.718 1.152-.343 1.84-.666 2.788-1.252.829-.505 1.192-.808 1.758-1.475l1.779 1.132zm-5.899-3.354c.605.081 1.715.121 3.353.121.403 0 .403 0 2.728-.04.081-.061.1-.081.202-.142-1.758-1.192-2.384-1.596-3.819-2.343l1.233-1.515c.646.343.929.504 1.333.727.525-.546.788-.848 1.172-1.414h-4.102v2.222h-2.221c.06-.485.08-.828.08-1.333V8.225c0-.728-.021-.97-.062-1.394.769.06 1.272.08 2.062.08h5.09V5.659h-4.989c-1.173 0-1.697.02-2.363.101V3.679c.545.081 1.312.121 2.384.121h4.969v-.121c0-.425-.041-.828-.121-1.273h2.385a8.723 8.723 0 00-.102 1.273V3.8h5.252c1.072 0 1.859-.04 2.405-.121V5.76a23.205 23.205 0 00-2.364-.101h-5.293v1.252h5.354c.929 0 1.476-.02 2.101-.08-.061.424-.061.606-.061 1.293v1.474c0 .546.021.97.081 1.374h-2.243V8.729h-5.777c-.748.989-1.252 1.596-2.08 2.424.484.323.605.424 1.211.849 1.313-1.253 2-2.061 2.525-2.95l2.182.929c-.201.182-.343.323-.605.586-1.03 1.091-2 1.98-3.051 2.788 1.516-.04 1.839-.06 4.102-.202a33.123 33.123 0 00-1.193-1.192l1.597-1.05c1.435 1.353 2.627 2.646 3.677 4.02l-1.695 1.313c-.506-.747-.688-1.01-1.031-1.454-3.254.242-3.254.242-5.071.343v3.273c0 .929.021 1.373.121 1.959h-2.444c.1-.566.121-1.03.121-1.959v-3.172c-2.646.101-4.223.162-4.729.162-1.172.02-1.574.04-2.039.121l-.265-2.182zm11.858 1.94c1.898 1.435 3.152 2.122 5.152 2.788-.668.667-.969 1.091-1.435 1.879-1.819-.808-3.03-1.556-5.253-3.313l1.536-1.354zM108.989 57.086c-2.545 2.634-5.581 3.617-8.974 3.617-3.483 0-6.34-1.252-8.572-3.483-3.215-3.215-3.125-7.188-3.125-12.681 0-5.491-.09-9.465 3.125-12.679 2.232-2.232 5-3.482 8.572-3.482 7.367 0 11.117 4.821 11.966 10.18h-6.251c-.715-2.991-2.545-4.644-5.715-4.644-1.696 0-3.081.67-3.973 1.697-1.206 1.338-1.518 2.812-1.518 8.928 0 6.117.312 7.636 1.518 8.975.892 1.027 2.277 1.652 3.973 1.652 1.875 0 3.393-.67 4.42-1.786 1.027-1.16 1.429-2.589 1.429-4.241v-1.205h-5.849v-5.18h12.01v4.645c0 4.598-.804 7.365-3.036 9.687M137.344 57.086c-2.545 2.634-5.581 3.617-8.975 3.617-3.482 0-6.339-1.252-8.572-3.483-3.214-3.215-3.125-7.188-3.125-12.681 0-5.491-.089-9.465 3.125-12.679 2.233-2.232 5.001-3.482 8.572-3.482 7.368 0 11.118 4.821 11.966 10.18h-6.251c-.714-2.991-2.545-4.644-5.715-4.644-1.696 0-3.08.67-3.973 1.697-1.205 1.338-1.518 2.812-1.518 8.928 0 6.117.313 7.636 1.518 8.975.893 1.027 2.277 1.652 3.973 1.652 1.875 0 3.394-.67 4.42-1.786 1.028-1.16 1.429-2.589 1.429-4.241v-1.205h-5.849v-5.18h12.011v4.645c0 4.598-.804 7.365-3.036 9.687"/><path fill="#3B82C5" d="M165.697 57.086c-2.545 2.634-5.581 3.617-8.975 3.617-3.481 0-6.338-1.252-8.571-3.483-3.215-3.215-3.126-7.188-3.126-12.681 0-5.491-.089-9.465 3.126-12.679 2.233-2.232 5-3.482 8.571-3.482 7.367 0 11.119 4.821 11.966 10.18h-6.25c-.716-2.991-2.546-4.644-5.716-4.644-1.696 0-3.081.67-3.973 1.697-1.206 1.338-1.519 2.812-1.519 8.928 0 6.117.313 7.636 1.519 8.975.892 1.027 2.276 1.652 3.973 1.652 1.875 0 3.394-.67 4.42-1.786 1.027-1.16 1.43-2.589 1.43-4.241v-1.205h-5.85v-5.18h12.011v4.645c0 4.598-.803 7.365-3.036 9.687M178.719 50.612c0 2.992 1.83 5.18 5.091 5.18 2.545 0 3.795-.714 5.269-2.188l3.526 3.438c-2.366 2.367-4.644 3.661-8.84 3.661-5.491 0-10.761-2.5-10.761-11.92 0-7.591 4.108-11.878 10.136-11.878 6.474 0 10.135 4.734 10.135 11.117v2.59h-14.556zm8.304-6.473c-.625-1.385-1.919-2.412-3.884-2.412-1.966 0-3.261 1.027-3.886 2.412-.355.848-.49 1.473-.535 2.5h8.841c-.044-1.027-.178-1.652-.536-2.5M211.562 60.435V46.371c0-3.17-2.009-4.241-3.84-4.241-1.83 0-3.884 1.071-3.884 4.241v14.064h-5.805V37.174h5.672v2.143c1.517-1.607 3.66-2.411 5.803-2.411 2.322 0 4.197.759 5.492 2.054 1.875 1.875 2.367 4.062 2.367 6.607v14.868h-5.805zM239.139 57.846c-1.429 1.518-3.795 2.856-7.232 2.856-3.438 0-5.76-1.339-7.188-2.856-2.099-2.188-2.634-4.822-2.634-9.064 0-4.196.535-6.831 2.634-9.02 1.429-1.517 3.75-2.856 7.188-2.856 3.438 0 5.804 1.34 7.232 2.856 2.098 2.188 2.635 4.823 2.635 9.02-.001 4.242-.538 6.876-2.635 9.064m-4.509-14.689c-.67-.67-1.563-1.027-2.724-1.027-1.162 0-2.01.357-2.678 1.027-1.207 1.205-1.341 3.214-1.341 5.625 0 2.41.134 4.465 1.341 5.67.668.67 1.516 1.027 2.678 1.027 1.16 0 2.054-.357 2.724-1.027 1.205-1.205 1.339-3.26 1.339-5.67 0-2.411-.134-4.42-1.339-5.625M273.802 60.435V46.371c0-3.17-2.009-4.241-3.84-4.241-1.786 0-3.884 1.071-3.884 4.107v14.198h-5.805V46.371c0-3.17-2.009-4.241-3.84-4.241-1.83 0-3.884 1.071-3.884 4.241v14.064h-5.806V37.174h5.672v2.143c1.518-1.562 3.66-2.411 5.804-2.411 2.59 0 4.688.938 6.161 2.946 1.965-2.053 4.064-2.946 6.965-2.946 2.322 0 4.421.759 5.715 2.054 1.876 1.875 2.545 4.062 2.545 6.607v14.868h-5.803zM289.922 50.612c0 2.992 1.83 5.18 5.091 5.18 2.545 0 3.795-.714 5.269-2.188l3.526 3.438c-2.366 2.367-4.644 3.661-8.84 3.661-5.491 0-10.761-2.5-10.761-11.92 0-7.591 4.108-11.878 10.136-11.878 6.474 0 10.135 4.734 10.135 11.117v2.59h-14.556zm8.305-6.473c-.625-1.385-1.919-2.412-3.884-2.412-1.966 0-3.261 1.027-3.886 2.412-.355.848-.49 1.473-.535 2.5h8.841c-.045-1.027-.179-1.652-.536-2.5"/><path fill="#FDD23E" d="M31.384 38.359c-.102-.071-.211-.151-.313-.223a88.277 88.277 0 01-1.458-1.038c-.39-.282-.784-.582-1.181-.88-.356-.269-.713-.533-1.067-.81-.505-.396-1.013-.819-1.523-1.242-.258-.215-.519-.42-.775-.641a52.924 52.924 0 01-2.268-2.066c-.032-.031-.065-.069-.096-.1a26.22 26.22 0 01-1.046-1.084l-.003-.003-.014-.016a32.435 32.435 0 01-.927-1.066c-.152-.182-.305-.374-.457-.564a37.898 37.898 0 01-1.061-1.373 52.9 52.9 0 01-.502-.699c-.174-.245-.348-.484-.521-.738l-.002-.002-.016.003-.584-.894c-.107-.165-.224-.355-.336-.53a.008.008 0 00-.002-.004l-.146-.23-.002-.003a53.01 53.01 0 01-1.007-1.673l-.115-.203a57.93 57.93 0 01-.97-1.77l-.001-.002-.075-.148-.002-.003c-.183-.352-.363-.73-.545-1.101a52.044 52.044 0 01-1.674-3.784c-.094-.24-.189-.478-.282-.723v-.001c-.12-.319-.241-.637-.356-.96-.079-.226-.154-.458-.23-.689a47.735 47.735 0 01-.505-1.569v-.003c-.014-.048-.031-.093-.045-.141l-.395-1.455-.001-.001c-.143-.561-.26-1.128-.379-1.694C4.052 14.072 0 22.507 0 31.89c0 14.599 9.814 26.897 23.202 30.683.144-3.884.931-8.718 2.791-13.349 1.461-3.636 3.456-7.309 5.391-10.865"/><path fill="#1BB8CE" d="M34.644.126c.519.949 1.02 1.965 1.499 3.037v.001l.012-.004.205.497c.201.462.394.931.584 1.412l.03.076a49.01 49.01 0 011.522 4.517c.005.021.012.042.018.062a45.565 45.565 0 011.354 6.602l.002.01v.001c.097.763.171 1.528.225 2.296l.007.073.082 1.21-.008.002a32.915 32.915 0 01-.243 5.334 25.142 25.142 0 01-.268 1.781c.177-.914.023-.114.003-.008-.083.43-.194.873-.325 1.327-.031.109-.073.224-.107.335-.107.349-.22.701-.352 1.064-.049.133-.105.271-.157.406-.132.348-.27.7-.422 1.06-.064.152-.134.307-.201.46-.152.348-.309.7-.477 1.057-.081.175-.166.352-.25.527a70.5 70.5 0 01-.81 1.635 93.573 93.573 0 01-.865 1.662l-.463.865c.834.56 1.667 1.121 2.503 1.674.994.659 1.988 1.317 2.978 1.987.323.218.664.455 1.019.712.473.342.969.716 1.478 1.112.492.383.999.791 1.512 1.213.004-.002.012 0 .023.008l.026.017.588.494c.111.093.222.194.333.288a87.272 87.272 0 011.064.919l.305.269h.001c.892.793 1.8 1.631 2.702 2.504l.038.037a79.753 79.753 0 013.526 3.64c.515.569 1.02 1.144 1.506 1.722 5.531-5.734 8.938-13.531 8.938-22.128 0-16.685-12.813-30.368-29.135-31.765"/><path fill="#FDD23E" d="M31.384 38.359a94.616 94.616 0 01-3.106-2.258c-.305-.229-.61-.456-.913-.692a61.407 61.407 0 01-4.566-3.949c-.185-.179-.377-.391-.566-.586-.192-.198-.381-.383-.576-.598l-.003-.003-.014-.016a32.59 32.59 0 01-.927-1.066c-.041-.049-.081-.101-.122-.151a41.356 41.356 0 01-1.295-1.653l-.101-.133v-.001a46.757 46.757 0 01-.502-.697v-.001c-.174-.245-.348-.484-.521-.738l-.002-.002-.016.003-.584-.894c-.107-.165-.224-.355-.336-.53l-.15-.237a59.168 59.168 0 01-.496-.806 59.622 59.622 0 01-.447-.758l-.064-.109-.001-.001a58.4 58.4 0 01-1.084-1.972l-.001-.002-.025-.049a52.749 52.749 0 01-1.112-2.267c-.116-.25-.227-.514-.341-.771l-.025-.056c-.102-.232-.206-.456-.307-.694-.092-.217-.184-.432-.273-.65-.073-.179-.142-.366-.213-.549-.094-.24-.189-.478-.282-.723-.078-.207-.154-.415-.231-.623-.041-.113-.085-.224-.125-.338-.079-.226-.154-.458-.23-.689v-.001c-.027-.084-.056-.166-.084-.25a46.086 46.086 0 01-.421-1.321c-.014-.048-.031-.093-.045-.141l-.395-1.455-.001-.001c-.143-.561-.26-1.128-.379-1.694C4.052 14.072 0 22.507 0 31.89c0 14.599 9.814 26.897 23.202 30.683.144-3.884.931-8.718 2.791-13.349 1.461-3.636 3.456-7.309 5.391-10.865"/><path fill="#3B82C5" d="M28.223 51.67a37.511 37.511 0 00-1.296 4.65l20.799-5.572a81.736 81.736 0 00-3.64-3.329l-7.241 1.94-8.622 2.311zM28.223 51.67c.158-.45.162-.461 0 0M35.701 10.637a46.783 46.783 0 00-1.302-3.947L14.555 12a45.391 45.391 0 001.498 3.902l11.034-2.957 8.614-2.308zM16.053 15.901l.007.016-.007-.016M37.061 17.702a39.772 39.772 0 00-.646-4.13l-8.546 2.289-10.507 2.816a51.081 51.081 0 002.104 3.74l17.595-4.715zM52.692 56.049a63.5 63.5 0 00-2.591-2.887l-23.706 6.353a36.223 36.223 0 00-.267 3.735c1.869.341 3.793.529 5.762.529a31.754 31.754 0 0020.829-7.752l-.027.022zM31.185.018l.006.01c.234-.005.463-.028.699-.028-.237 0-.47.013-.705.018"/><path fill="#3B82C5" d="M31.191.028a31.741 31.741 0 00-18.102 6.108 36.19 36.19 0 00.614 3.04l19.55-5.238a36.807 36.807 0 00-2.062-3.91M39.073 43.526c-.989-.667-1.982-1.324-2.974-1.981-.751-.497-1.51-1.01-2.267-1.518l-.006.013-.001-.001c-1.458 2.679-2.929 5.419-4.158 8.119l6.397-1.714 5.134-1.376a53.869 53.869 0 00-1.127-.843c-.345-.25-.679-.484-.998-.699M30.749 26.748l8.25-2.211-2.016.54c.194-1.434.272-2.898.252-4.371l-16.04 4.298a38.806 38.806 0 001.819 2.351c.06.072.119.137.179.206.242.283.483.561.722.82.056.06.109.111.165.17l-.013-.013 6.682-1.79zM32.791 35.758l.103-.193c.261-.488.511-.967.756-1.438l.264-.507c.306-.598.599-1.184.87-1.752.024-.048.044-.094.067-.143.247-.521.474-1.026.685-1.518.078-.182.145-.357.218-.536.142-.351.276-.697.395-1.031.029-.08.054-.157.08-.236l-4.699 1.259-4.888 1.311c.361.317.372.339.171.169 2.023 1.761 4.077 3.285 5.978 4.615"/><path fill="#C9CACA" d="M42.72 44.661l2.01-.539a61.525 61.525 0 00-2.991-2.324 31.425 31.425 0 00-1.019-.713c-.99-.67-1.984-1.328-2.978-1.986a518.686 518.686 0 01-2.502-1.674l-.127.236-.316.586-.194.359-.771 1.421c.757.509 1.515 1.021 2.267 1.517.992.658 1.985 1.314 2.974 1.982.319.215.653.449.998.699.362.262.74.546 1.127.843l1.522-.407zM36.845 49.36l-.009-.034-.006-.021-.004-.014-.753-2.812-.009-.035-6.397 1.714c-.33.724-.652 1.448-.94 2.164-.18.448-.345.899-.504 1.349l8.622-2.311zM34.408 6.688c.004.016 0 .003-.004-.007l-.007.002a46.567 46.567 0 011.304 3.953l.003-.001 1.339-.358 1.504-.403c.353 1.264-.491-1.94-1.543-4.63l.261.678-2.857.766zM50.101 53.163a62.908 62.908 0 012.591 2.887 31.973 31.973 0 002.149-2.031 61.054 61.054 0 00-1.508-1.721l-3.232.865zM27.087 12.945l-11.034 2.957c.426.981.865 1.908 1.307 2.775l10.509-2.816-.782-2.916zM36.142 3.164A43.218 43.218 0 0034.644.126 32.17 32.17 0 0031.89 0c-.237 0-.47.013-.705.018a36.704 36.704 0 012.068 3.92l2.889-.774zM24.067 28.538c-.007-.007.477.51.782.806 1.491 1.444 2.69 2.418 1.792 1.63l4.889-1.311-.781-2.915-6.682 1.79zM36.983 25.077l2.015-.54 1.02-.273c.139-1.435.208-2.881.158-4.334v-.012l-.188.051-2.753.737a29.92 29.92 0 01-.252 4.371"/><path fill="#FFF" d="M52.483 51.372a79.494 79.494 0 00-2.46-2.498c-.466-.455-.939-.91-1.418-1.356l-.057-.054a88.12 88.12 0 00-1.475-1.344l-.004-.003v-.001h-.001l-.303-.267c-.265-.234-.531-.46-.796-.688-.09-.076-.181-.156-.27-.232-.111-.094-.222-.194-.333-.287l-.588-.495-.025-.017c-.012-.008-.02-.008-.023-.008l-2.01.539-6.656 1.783.009.034h-.001l.754 2.813.004.014.006.021.009.034 7.241-1.941a82.996 82.996 0 013.64 3.33l-20.799 5.572a35.94 35.94 0 011.8-5.999c1.361-3.387 3.249-6.886 5.098-10.282h.001l.777-1.434.194-.359.316-.586.126-.236.463-.865.333-.633a115.863 115.863 0 00.832-1.623c.177-.352.345-.698.51-1.041.085-.176.169-.354.251-.527a46.8 46.8 0 00.476-1.057c.067-.154.137-.309.201-.46.152-.361.29-.712.423-1.06.051-.136.108-.273.156-.407.132-.362.245-.715.352-1.064.035-.111.076-.225.107-.335.131-.453.243-.897.325-1.326.02-.107.174-.907-.002.007.113-.588.195-1.182.267-1.78l.001-.003c.041-.326.079-.665.111-.993l-1.046.28-8.25 2.211.781 2.915 4.7-1.259-.08.236c-.12.334-.253.679-.396 1.031-.073.179-.14.353-.218.536-.211.492-.438.997-.685 1.518l-.067.143a72.617 72.617 0 01-.87 1.752l-.264.508a140.723 140.723 0 01-.859 1.631c-2.521-1.764-5.31-3.866-7.941-6.415a25.617 25.617 0 01-1.657-1.783c-.06-.069-.119-.134-.179-.206a38.806 38.806 0 01-1.819-2.351l18.989-5.088-.082-1.21a41.088 41.088 0 00-.232-2.37l-.002-.009-.01-.074a43.334 43.334 0 00-.316-2.029c-.026-.147-.055-.292-.082-.438a46.796 46.796 0 00-.384-1.839l-.019-.086a48.562 48.562 0 00-.511-1.987l-1.503.403-1.339.359-8.617 2.309.782 2.916 8.546-2.29c.272 1.309.501 2.686.646 4.131l-17.595 4.714c-1.573-2.529-3.492-6.121-4.911-10.416l22.703-6.075c-.048-.129-.093-.262-.142-.389a45.684 45.684 0 00-.451-1.142c-.101-.246-.2-.496-.305-.737l-.205-.496-.012.003-22.44 6.013a36.392 36.392 0 01-.613-3.042 32.065 32.065 0 00-2.588 2.101c.12.567.236 1.134.38 1.696l.395 1.454c.015.048.031.093.045.142l.001.002c.157.527.329 1.048.504 1.568.076.231.151.464.231.69.04.114.083.225.125.338.076.207.152.415.231.622v.001c.092.246.188.483.281.724a53.356 53.356 0 001.674 3.783c.182.371.363.749.545 1.101l.002.003.05.099.027.052a57.522 57.522 0 00.969 1.769l.115.202.065.111a50.516 50.516 0 00.945 1.566l.145.23.002.004c.112.176.229.366.336.53l.584.895.016-.004c.174.254.349.495.523.741.168.236.334.47.502.697.034.046.068.089.101.135.139.185.277.369.415.548.183.237.364.466.545.691.112.14.224.277.335.413.041.05.081.103.122.151.312.373.622.731.927 1.067l.014.015c.197.216.386.401.579.601.157.161.316.336.47.487.031.031.065.069.096.099.661.64 1.329 1.243 1.997 1.827.091.079.181.162.271.24.256.22.518.424.775.64.51.424 1.018.848 1.523 1.242.307.24.609.463.913.692l.155.116c.396.299.791.599 1.18.882.485.352.971.696 1.458 1.036.102.072.211.154.313.224-1.934 3.556-3.929 7.229-5.39 10.865-1.861 4.631-2.647 9.465-2.791 13.348a31.71 31.71 0 002.925.679c.022-1.139.101-2.392.267-3.736l26.94-7.217c-.281-.312-.564-.62-.852-.926"/></svg>