<svg xmlns="http://www.w3.org/2000/svg" viewBox="0 0 304.558 63.78" width="304.558" height="63.78">
  <path
    d="M94.729 60.532c-2.313 0-4.066-1.58-4.066-3.924v-7.525h1.722v7.446c0 1.515.925 2.455 2.345 2.455 1.419 0 2.358-.94 2.358-2.455v-7.446h1.724v7.525c-.001 2.344-1.772 3.924-4.083 3.924M104.212 60.436c-1.547 0-2.216-1.037-2.216-2.232v-9.122h1.626v9.026c0 .621.224.939.877.939h.718v1.389h-1.005zM109.968 60.436c-1.515 0-2.216-1.084-2.216-2.248v-4.449h-.926v-1.243h.926V50.04h1.626v2.456h1.562v1.243h-1.562v4.369c0 .59.287.939.893.939h.67v1.389h-.973zM118.021 54.249c-.366-.367-.653-.541-1.212-.541-.877 0-1.61.7-1.61 1.816v4.912h-1.626v-8.084h1.595v.876c.414-.574 1.243-.972 2.152-.972.781 0 1.371.207 1.929.764l-1.228 1.229zM125.964 60.435v-.733c-.59.59-1.147.83-2.152.83s-1.675-.24-2.169-.734c-.414-.43-.638-1.053-.638-1.738 0-1.355.94-2.328 2.791-2.328h2.136v-.574c0-1.021-.51-1.515-1.77-1.515-.893 0-1.323.207-1.77.782l-1.068-1.004c.765-.895 1.562-1.164 2.901-1.164 2.217 0 3.333.939 3.333 2.773v5.405h-1.594zm-.032-3.572h-1.897c-.956 0-1.45.431-1.45 1.164 0 .734.462 1.149 1.482 1.149.622 0 1.084-.049 1.515-.463.239-.239.351-.621.351-1.196v-.654zM132.543 53.738v6.697h-1.626v-6.697h-.925v-1.243h.925V51.25c0-1.164.701-2.248 2.216-2.248h1.021v1.387h-.717c-.606 0-.894.352-.894.941v1.164h1.61v1.243h-1.61zM141.115 60.435v-.733c-.59.59-1.147.83-2.152.83s-1.675-.24-2.169-.734c-.414-.43-.638-1.053-.638-1.738 0-1.355.94-2.328 2.791-2.328h2.137v-.574c0-1.021-.511-1.515-1.771-1.515-.892 0-1.322.207-1.769.782l-1.068-1.004c.765-.895 1.562-1.164 2.901-1.164 2.217 0 3.333.939 3.333 2.773v5.405h-1.595zm-.031-3.572h-1.898c-.956 0-1.45.431-1.45 1.164 0 .734.462 1.149 1.482 1.149.622 0 1.084-.049 1.514-.463.24-.239.353-.621.353-1.196v-.654zM148.571 60.532c-1.323 0-2.439-.225-3.396-1.164l1.068-1.068c.654.67 1.531.844 2.328.844.989 0 1.771-.35 1.771-1.116 0-.542-.304-.892-1.085-.956l-1.292-.111c-1.515-.127-2.392-.813-2.392-2.232 0-1.579 1.355-2.471 3.045-2.471 1.212 0 2.249.254 2.998.908l-1.021 1.037c-.51-.432-1.228-.591-1.993-.591-.973 0-1.468.431-1.468 1.036 0 .479.256.846 1.117.926l1.275.11c1.515.128 2.408.846 2.408 2.28.003 1.69-1.433 2.568-3.363 2.568M157.143 60.436c-1.515 0-2.216-1.084-2.216-2.248v-4.449h-.926v-1.243h.926V50.04h1.626v2.456h1.562v1.243h-1.562v4.369c0 .59.287.939.893.939h.67v1.389h-.973zM172.607 60.532c-1.323 0-2.439-.225-3.396-1.164l1.068-1.068c.654.67 1.531.844 2.328.844.989 0 1.771-.35 1.771-1.116 0-.542-.303-.892-1.085-.956l-1.291-.111c-1.515-.127-2.392-.813-2.392-2.232 0-1.579 1.355-2.471 3.045-2.471 1.212 0 2.249.254 2.998.908l-1.021 1.037c-.509-.432-1.227-.591-1.992-.591-.973 0-1.468.431-1.468 1.036 0 .479.256.846 1.117.926l1.275.11c1.515.128 2.408.846 2.408 2.28.001 1.69-1.435 2.568-3.365 2.568M179.928 56.863c0 1.388.733 2.265 2.059 2.265.907 0 1.386-.255 1.96-.828l1.036.973c-.829.828-1.61 1.259-3.029 1.259-2.025 0-3.636-1.067-3.636-4.146 0-2.615 1.355-4.129 3.429-4.129 2.168 0 3.428 1.594 3.428 3.891v.716h-5.247zm3.412-2.232c-.255-.605-.829-1.021-1.594-1.021-.766 0-1.355.415-1.611 1.021-.159.366-.19.605-.207 1.1h3.636c-.016-.494-.064-.733-.224-1.1M192.651 63.704v-4.098c-.59.702-1.26.925-2.12.925-.813 0-1.515-.271-1.962-.718-.812-.812-.908-2.2-.908-3.428 0-1.229.096-2.6.908-3.412.447-.447 1.164-.717 1.978-.717.877 0 1.531.222 2.137.955v-.859h1.595v11.352h-1.628zm-1.673-9.996c-1.467 0-1.689 1.242-1.689 2.678 0 1.435.223 2.695 1.689 2.695s1.674-1.261 1.674-2.695c-.001-1.436-.208-2.678-1.674-2.678M202.36 60.436v-.813c-.558.606-1.34.909-2.152.909-.828 0-1.515-.272-1.994-.734-.621-.605-.812-1.371-.812-2.28v-5.165h1.626v4.926c0 1.261.718 1.803 1.627 1.803s1.674-.559 1.674-1.803v-4.926h1.627v8.084h-1.596zM208.384 56.863c0 1.388.733 2.265 2.059 2.265.907 0 1.386-.255 1.959-.828l1.037.973c-.83.828-1.61 1.259-3.029 1.259-2.025 0-3.636-1.067-3.636-4.146 0-2.615 1.355-4.129 3.429-4.129 2.168 0 3.428 1.594 3.428 3.891v.716h-5.247zm3.412-2.232c-.255-.605-.829-1.021-1.594-1.021-.766 0-1.355.415-1.611 1.021-.159.366-.191.605-.207 1.1h3.636c-.016-.494-.064-.733-.224-1.1M221.344 60.436v-4.928c0-1.26-.718-1.802-1.627-1.802-.908 0-1.674.558-1.674 1.802v4.928h-1.626v-8.084h1.594v.812c.559-.606 1.34-.909 2.153-.909.829 0 1.515.271 1.993.733.623.605.812 1.371.812 2.281v5.166h-1.625zM229.305 60.532c-1.817 0-3.604-1.117-3.604-4.146 0-3.03 1.787-4.129 3.604-4.129 1.116 0 1.897.318 2.663 1.131l-1.116 1.084c-.51-.557-.909-.764-1.547-.764-.622 0-1.147.254-1.499.717-.351.445-.479 1.02-.479 1.961s.128 1.531.479 1.977c.352.463.877.719 1.499.719.638 0 1.037-.207 1.547-.767l1.116 1.069c-.766.812-1.547 1.148-2.663 1.148M235.589 56.863c0 1.388.733 2.265 2.059 2.265.907 0 1.386-.255 1.959-.828l1.037.973c-.83.828-1.61 1.259-3.029 1.259-2.025 0-3.636-1.067-3.636-4.146 0-2.615 1.355-4.129 3.429-4.129 2.168 0 3.428 1.594 3.428 3.891v.716h-5.247zm3.412-2.232c-.255-.605-.829-1.021-1.594-1.021-.766 0-1.355.415-1.611 1.021-.159.366-.191.605-.207 1.1h3.636c-.016-.494-.064-.733-.224-1.1M255.406 60.532c-1.323 0-2.438-.225-3.396-1.164l1.067-1.068c.654.67 1.531.844 2.328.844.989 0 1.771-.35 1.771-1.116 0-.542-.304-.892-1.085-.956l-1.291-.111c-1.516-.127-2.393-.813-2.393-2.232 0-1.579 1.355-2.471 3.045-2.471 1.212 0 2.249.254 2.998.908l-1.021 1.037c-.51-.432-1.228-.591-1.993-.591-.973 0-1.467.431-1.467 1.036 0 .479.255.846 1.116.926l1.275.11c1.515.128 2.408.846 2.408 2.28.003 1.69-1.432 2.568-3.362 2.568M262.727 56.863c0 1.388.733 2.265 2.058 2.265.908 0 1.387-.255 1.961-.828l1.036.973c-.829.828-1.61 1.259-3.029 1.259-2.025 0-3.636-1.067-3.636-4.146 0-2.615 1.355-4.129 3.429-4.129 2.168 0 3.428 1.594 3.428 3.891v.716h-5.247zm3.412-2.232c-.255-.605-.829-1.021-1.594-1.021-.766 0-1.355.415-1.611 1.021-.159.366-.191.605-.207 1.1h3.636c-.016-.494-.064-.733-.224-1.1M275.22 60.435v-.733c-.59.59-1.147.83-2.152.83s-1.675-.24-2.169-.734c-.414-.43-.638-1.053-.638-1.738 0-1.355.94-2.328 2.791-2.328h2.136v-.574c0-1.021-.51-1.515-1.771-1.515-.892 0-1.322.207-1.769.782l-1.068-1.004c.765-.895 1.562-1.164 2.901-1.164 2.217 0 3.333.939 3.333 2.773v5.405h-1.594zm-.032-3.572h-1.897c-.957 0-1.45.431-1.45 1.164 0 .734.462 1.149 1.482 1.149.622 0 1.084-.049 1.515-.463.239-.239.351-.621.351-1.196v-.654zM284.396 54.249c-.366-.367-.653-.541-1.212-.541-.877 0-1.61.7-1.61 1.816v4.912h-1.626v-8.084h1.595v.876c.414-.574 1.243-.972 2.152-.972.781 0 1.371.207 1.929.764l-1.228 1.229zM290.783 60.532c-1.817 0-3.604-1.117-3.604-4.146 0-3.03 1.787-4.129 3.604-4.129 1.116 0 1.897.318 2.663 1.131l-1.116 1.084c-.51-.557-.909-.764-1.547-.764-.622 0-1.147.254-1.499.717-.351.445-.479 1.02-.479 1.961s.128 1.531.479 1.977c.352.463.877.719 1.499.719.638 0 1.037-.207 1.547-.767l1.116 1.069c-.765.812-1.547 1.148-2.663 1.148M300.886 60.436v-4.959c0-1.229-.717-1.771-1.626-1.771s-1.643.558-1.643 1.771v4.959h-1.626V49.082h1.626v4.083a2.78 2.78 0 012.089-.909c1.802 0 2.807 1.212 2.807 2.966v5.215h-1.627zM109.071 37.352c-2.545 2.635-5.581 3.616-8.974 3.616-3.482 0-6.34-1.25-8.572-3.481-3.215-3.215-3.126-7.188-3.126-12.681 0-5.491-.089-9.465 3.126-12.68 2.232-2.232 5-3.482 8.572-3.482 7.366 0 11.117 4.822 11.965 10.18h-6.25c-.715-2.992-2.545-4.644-5.715-4.644-1.697 0-3.081.67-3.974 1.696-1.206 1.34-1.519 2.814-1.519 8.93 0 6.117.312 7.635 1.519 8.976.893 1.025 2.276 1.65 3.974 1.65 1.875 0 3.393-.67 4.42-1.785 1.026-1.161 1.429-2.59 1.429-4.242V28.2h-5.849v-5.18h12.01v4.644c0 4.598-.803 7.368-3.036 9.688M137.425 37.352c-2.545 2.635-5.581 3.616-8.974 3.616-3.482 0-6.34-1.25-8.572-3.481-3.215-3.215-3.126-7.188-3.126-12.681 0-5.491-.089-9.465 3.126-12.68 2.232-2.232 5-3.482 8.572-3.482 7.366 0 11.117 4.822 11.965 10.18h-6.25c-.715-2.992-2.545-4.644-5.715-4.644-1.697 0-3.081.67-3.974 1.696-1.206 1.34-1.519 2.814-1.519 8.93 0 6.117.312 7.635 1.519 8.976.893 1.025 2.276 1.65 3.974 1.65 1.875 0 3.393-.67 4.42-1.785 1.026-1.161 1.429-2.59 1.429-4.242V28.2h-5.849v-5.18h12.01v4.644c0 4.598-.804 7.368-3.036 9.688" />
  <path fill="#3B82C5"
    d="M165.778 37.352c-2.545 2.635-5.581 3.616-8.975 3.616-3.481 0-6.339-1.25-8.571-3.481-3.215-3.215-3.126-7.188-3.126-12.681 0-5.491-.089-9.465 3.126-12.68 2.232-2.232 5-3.482 8.571-3.482 7.367 0 11.118 4.822 11.966 10.18h-6.25c-.716-2.992-2.545-4.644-5.716-4.644-1.696 0-3.08.67-3.973 1.696-1.206 1.34-1.519 2.814-1.519 8.93 0 6.117.312 7.635 1.519 8.976.893 1.025 2.276 1.65 3.973 1.65 1.875 0 3.394-.67 4.421-1.785 1.026-1.161 1.429-2.59 1.429-4.242V28.2h-5.85v-5.18h12.011v4.644c0 4.598-.803 7.368-3.036 9.688M178.801 30.879c0 2.991 1.83 5.178 5.09 5.178 2.545 0 3.795-.714 5.269-2.188l3.526 3.438c-2.366 2.367-4.644 3.661-8.84 3.661-5.491 0-10.761-2.5-10.761-11.92 0-7.59 4.108-11.876 10.136-11.876 6.474 0 10.135 4.732 10.135 11.117v2.59h-14.555zm8.303-6.474c-.625-1.385-1.919-2.411-3.884-2.411s-3.261 1.026-3.886 2.411c-.355.848-.489 1.473-.534 2.5h8.84c-.044-1.027-.178-1.652-.536-2.5M211.642 40.702V26.638c0-3.17-2.009-4.243-3.84-4.243-1.83 0-3.884 1.073-3.884 4.243v14.063h-5.805V17.44h5.671v2.143c1.518-1.608 3.661-2.411 5.804-2.411 2.322 0 4.197.758 5.491 2.053 1.875 1.875 2.367 4.064 2.367 6.609v14.868h-5.804zM239.219 38.111c-1.429 1.519-3.795 2.858-7.232 2.858-3.438 0-5.76-1.34-7.188-2.858-2.099-2.187-2.634-4.821-2.634-9.063 0-4.196.535-6.831 2.634-9.019 1.429-1.517 3.75-2.857 7.188-2.857 3.438 0 5.804 1.34 7.232 2.857 2.099 2.188 2.635 4.823 2.635 9.019 0 4.242-.537 6.876-2.635 9.063m-4.509-14.688c-.67-.67-1.563-1.027-2.724-1.027-1.161 0-2.01.357-2.679 1.027-1.206 1.205-1.34 3.215-1.34 5.625 0 2.411.134 4.464 1.34 5.671.669.668 1.518 1.025 2.679 1.025 1.16 0 2.054-.357 2.724-1.025 1.205-1.207 1.339-3.261 1.339-5.671s-.134-4.421-1.339-5.625M273.882 40.702V26.638c0-3.17-2.009-4.243-3.84-4.243-1.786 0-3.884 1.073-3.884 4.108v14.199h-5.805V26.638c0-3.17-2.009-4.243-3.84-4.243-1.83 0-3.884 1.073-3.884 4.243v14.063h-5.805V17.44h5.671v2.143c1.518-1.563 3.661-2.411 5.804-2.411 2.59 0 4.688.937 6.161 2.947 1.965-2.054 4.063-2.947 6.965-2.947 2.322 0 4.421.758 5.715 2.053 1.876 1.875 2.545 4.064 2.545 6.609v14.868h-5.803zM290.003 30.879c0 2.991 1.83 5.178 5.09 5.178 2.545 0 3.795-.714 5.269-2.188l3.526 3.438c-2.366 2.367-4.643 3.661-8.84 3.661-5.491 0-10.76-2.5-10.76-11.92 0-7.59 4.107-11.876 10.135-11.876 6.474 0 10.135 4.732 10.135 11.117v2.59h-14.555zm8.304-6.474c-.625-1.385-1.919-2.411-3.884-2.411s-3.26 1.026-3.885 2.411c-.356.848-.491 1.473-.535 2.5h8.84c-.045-1.027-.179-1.652-.536-2.5" />
  <path fill="#FDD23E"
    d="M31.385 38.359c-.103-.071-.211-.151-.313-.223a88.206 88.206 0 01-1.457-1.038c-.391-.282-.785-.582-1.182-.88-.355-.269-.713-.533-1.066-.81-.506-.396-1.014-.819-1.523-1.242-.258-.215-.52-.42-.775-.641a53.549 53.549 0 01-2.269-2.066c-.031-.031-.064-.069-.096-.1-.342-.335-.69-.694-1.046-1.084l-.002-.003-.015-.016a33.676 33.676 0 01-.928-1.066c-.151-.182-.304-.374-.456-.564a42.837 42.837 0 01-1.062-1.373 52.9 52.9 0 01-.502-.699c-.174-.245-.348-.484-.521-.738a.002.002 0 00-.002-.002l-.015.003-.585-.894c-.107-.165-.224-.355-.336-.53a.008.008 0 00-.002-.004l-.146-.23-.002-.003a51.181 51.181 0 01-1.007-1.673l-.115-.203a55.84 55.84 0 01-.97-1.77l-.001-.002-.076-.148-.002-.003c-.183-.352-.363-.73-.545-1.101a52.482 52.482 0 01-1.674-3.784c-.094-.24-.188-.478-.281-.723v-.001c-.121-.319-.242-.637-.356-.96-.079-.226-.154-.458-.229-.689a43.383 43.383 0 01-.505-1.569v-.003l-.046-.141-.396-1.455c-.143-.561-.261-1.128-.38-1.694C4.053 14.072 0 22.507 0 31.89c0 14.599 9.814 26.897 23.203 30.683.144-3.884.931-8.718 2.791-13.349 1.461-3.636 3.456-7.309 5.391-10.865" />
  <path fill="#1BB8CE"
    d="M34.645.126c.519.949 1.02 1.965 1.498 3.037l.001.001.012-.004.205.497c.2.462.395.931.584 1.412l.029.076a49.01 49.01 0 011.522 4.517c.005.021.012.042.018.062a45.432 45.432 0 011.354 6.602l.002.01v.001c.097.763.171 1.528.225 2.296l.008.073.081 1.21-.007.002a33.143 33.143 0 01-.243 5.334 24.58 24.58 0 01-.269 1.781c.177-.914.023-.114.002-.008-.082.43-.192.873-.323 1.327-.031.109-.073.224-.107.335-.108.349-.221.701-.353 1.064-.049.133-.104.271-.156.406-.133.348-.271.7-.423 1.06-.063.152-.133.307-.2.46a41.192 41.192 0 01-.729 1.584c-.164.344-.332.69-.509 1.042-.098.195-.198.395-.3.593a114.933 114.933 0 01-.865 1.662c-.151.285-.307.575-.463.865.834.56 1.667 1.121 2.503 1.674.994.659 1.988 1.317 2.979 1.987.323.218.664.455 1.019.712.474.342.968.716 1.478 1.112.492.383.999.791 1.513 1.213.004-.002.012 0 .023.008l.025.017.588.494c.111.093.223.194.333.288.351.298.705.604 1.062.918l.001.001.306.269h.001c.893.793 1.8 1.631 2.702 2.504l.038.037a73.318 73.318 0 015.032 5.362c5.531-5.734 8.938-13.531 8.938-22.128C63.779 15.206 50.966 1.523 34.645.126" />
  <path fill="#FDD23E"
    d="M31.385 38.359a93.558 93.558 0 01-3.106-2.258c-.305-.229-.61-.456-.912-.692h-.001a62.062 62.062 0 01-2.569-2.123A52.17 52.17 0 0122.8 31.46c-.184-.179-.377-.391-.565-.586-.191-.198-.381-.383-.576-.598l-.002-.003-.015-.016a33.842 33.842 0 01-.928-1.066l-.121-.151a40.46 40.46 0 01-1.295-1.653 11.801 11.801 0 00-.102-.133v-.001a46.757 46.757 0 01-.502-.697v-.001c-.174-.245-.348-.484-.521-.738a.002.002 0 00-.002-.002l-.015.003-.585-.894c-.107-.165-.224-.355-.336-.53l-.149-.237a50.622 50.622 0 01-.943-1.564l-.063-.109-.001-.001a52.814 52.814 0 01-1.084-1.972l-.001-.002-.025-.049-.053-.102a54.797 54.797 0 01-.864-1.746l-.195-.419c-.115-.25-.228-.514-.341-.771a.673.673 0 01-.024-.056c-.103-.232-.207-.456-.308-.694-.092-.217-.184-.432-.273-.65-.072-.179-.142-.366-.213-.549-.094-.24-.188-.478-.281-.723-.078-.207-.154-.415-.231-.623-.041-.113-.085-.224-.125-.338-.079-.226-.154-.458-.229-.689l-.001-.001-.083-.25c-.146-.439-.29-.877-.421-1.321l-.046-.141-.396-1.455v-.001c-.143-.561-.261-1.128-.38-1.694C4.053 14.072 0 22.507 0 31.89c0 14.599 9.814 26.897 23.203 30.683.144-3.884.931-8.718 2.791-13.349 1.461-3.636 3.456-7.309 5.391-10.865" />
  <path fill="#3B82C5"
    d="M28.224 51.67a37.511 37.511 0 00-1.296 4.65l20.799-5.572a82.316 82.316 0 00-3.641-3.329l-7.241 1.94-8.621 2.311zM28.224 51.67c.158-.45.161-.461 0 0M35.701 10.637a46.426 46.426 0 00-1.302-3.947L14.555 12a46.06 46.06 0 001.498 3.902l11.034-2.957 8.614-2.308zM16.053 15.901l.007.016-.007-.016M17.36 18.677h.002a52.833 52.833 0 01-.002 0M37.061 17.702a39.506 39.506 0 00-.646-4.13l-8.546 2.289-10.507 2.816a50.713 50.713 0 002.104 3.74l17.595-4.715zM52.692 56.049a62.937 62.937 0 00-2.592-2.887l-23.705 6.353a36.523 36.523 0 00-.268 3.735c1.869.341 3.793.529 5.762.529a31.75 31.75 0 0020.829-7.752l-.026.022zM31.186.018l.006.01c.234-.005.462-.028.698-.028-.237 0-.469.013-.704.018M31.191.028a31.741 31.741 0 00-18.102 6.108 36.19 36.19 0 00.614 3.04l19.55-5.238a36.807 36.807 0 00-2.062-3.91M39.073 43.526a403.998 403.998 0 00-2.975-1.981c-.751-.497-1.51-1.01-2.267-1.518l-.006.013-.001-.001c-1.458 2.679-2.93 5.419-4.158 8.119l6.396-1.714 5.134-1.376a56.657 56.657 0 00-1.126-.843c-.344-.25-.677-.484-.997-.699M30.749 26.748l8.25-2.211-2.016.54c.193-1.434.271-2.898.252-4.371l-16.04 4.298a38.406 38.406 0 001.819 2.351c.06.072.119.137.179.206.242.283.482.561.722.82l.165.17-.013-.014 6.682-1.789zM32.791 35.758l.103-.193c.262-.488.512-.967.756-1.438a62.975 62.975 0 001.135-2.259l.066-.143c.248-.521.475-1.026.686-1.518.078-.182.146-.357.218-.536.142-.351.276-.697.396-1.031a5.94 5.94 0 00.079-.236l-4.698 1.259-4.889 1.311c.361.317.372.339.171.169 2.023 1.761 4.077 3.285 5.977 4.615" />
  <path fill="#C9CACA"
    d="M42.72 44.661l2.01-.539a61.525 61.525 0 00-2.99-2.324 31.425 31.425 0 00-1.019-.713c-.99-.67-1.984-1.328-2.979-1.986a641.116 641.116 0 01-2.502-1.674l-.126.236-.316.586-.193.359-.771 1.421c.757.509 1.516 1.021 2.267 1.517.992.658 1.985 1.314 2.975 1.982.319.215.652.449.998.699.361.262.739.546 1.126.843l1.52-.407zM36.845 49.36l-.009-.034-.006-.021-.005-.014-.753-2.812h.001l-.01-.035-6.396 1.714c-.33.724-.652 1.448-.94 2.164-.18.448-.345.899-.503 1.349l8.621-2.311zM34.408 6.688c.004.016-.001.003-.005-.007l-.006.002a46.567 46.567 0 011.304 3.953l.003-.001 1.339-.358 1.504-.403c.354 1.264-.491-1.94-1.543-4.63l.261.678-2.857.766zM50.101 53.163a63.53 63.53 0 012.592 2.887 32.2 32.2 0 002.148-2.031 61.054 61.054 0 00-1.508-1.721l-3.232.865zM27.087 12.945l-11.034 2.957c.427.981.865 1.908 1.308 2.775l10.509-2.816-.783-2.916zM36.143 3.164A43.218 43.218 0 0034.645.126 32.212 32.212 0 0031.89 0c-.236 0-.469.013-.704.018a36.705 36.705 0 012.067 3.92l2.89-.774zM24.067 28.538c-.007-.007.478.51.782.806 1.491 1.444 2.69 2.418 1.792 1.63l4.889-1.311-.781-2.915-6.682 1.79zM36.983 25.077l2.016-.54 1.02-.273c.14-1.435.208-2.881.158-4.334v-.012l-.188.051-2.754.737a29.645 29.645 0 01-.252 4.371" />
  <path fill="#FFF"
    d="M52.483 51.372a80.608 80.608 0 00-2.46-2.498 86.713 86.713 0 00-2.951-2.754l-.004-.003v-.001h-.001l-.304-.267c-.265-.234-.53-.46-.796-.688l-.27-.232c-.11-.094-.222-.194-.333-.287l-.588-.495-.025-.017c-.012-.008-.02-.008-.023-.008l-2.01.539-6.656 1.783.01.034h-.001l.754 2.813.004.014.006.021.009.034 7.241-1.941a83.017 83.017 0 013.641 3.33l-20.799 5.572a35.84 35.84 0 011.799-5.999c1.362-3.387 3.249-6.886 5.099-10.282h.001l.777-1.434.192-.359c.107-.195.212-.392.317-.586l.126-.236c.156-.291.312-.58.463-.865l.333-.633a115.863 115.863 0 00.832-1.623c.177-.352.345-.698.51-1.041.085-.176.169-.354.251-.527.167-.358.324-.709.477-1.057.066-.154.137-.309.2-.46.152-.361.29-.712.423-1.06.052-.136.108-.273.156-.407.132-.362.246-.715.353-1.064.034-.111.076-.225.107-.335.131-.453.242-.897.324-1.326.021-.107.174-.907-.002.007.113-.588.195-1.182.268-1.78v-.004c.042-.326.08-.665.111-.993l-1.046.28-8.25 2.211.781 2.915 4.699-1.259c-.026.078-.051.156-.08.236-.119.334-.253.679-.395 1.031-.073.179-.141.353-.219.536-.211.492-.438.997-.686 1.518l-.066.143a72.617 72.617 0 01-.87 1.752l-.264.508c-.245.472-.495.949-.757 1.438l-.103.193c-2.521-1.764-5.311-3.866-7.941-6.415a25.617 25.617 0 01-1.657-1.783c-.06-.069-.119-.134-.179-.206a38.406 38.406 0 01-1.819-2.351l18.988-5.088-.081-1.21a41.088 41.088 0 00-.232-2.37l-.002-.009-.011-.074a43.345 43.345 0 00-.315-2.029c-.026-.147-.055-.292-.082-.438a46.796 46.796 0 00-.384-1.839l-.02-.086a45.512 45.512 0 00-.511-1.987l-1.503.403-1.339.359-8.617 2.309.782 2.916 8.546-2.29c.272 1.309.501 2.686.646 4.131l-17.595 4.714C17.89 19.887 15.971 16.295 14.551 12l22.703-6.075c-.048-.129-.093-.262-.142-.389a54.985 54.985 0 00-.451-1.142c-.102-.246-.201-.496-.305-.737l-.205-.496-.012.003-22.44 6.013a37.948 37.948 0 01-.609-3.041 32.241 32.241 0 00-2.588 2.101c.12.567.236 1.134.38 1.696l.396 1.454c.015.048.031.093.045.142l.001.002a44.7 44.7 0 00.504 1.568c.076.231.15.464.23.69.04.114.084.225.125.338.077.207.152.415.231.622v.001c.093.246.188.483.281.724a53.356 53.356 0 001.673 3.783c.182.371.362.749.545 1.101l.002.003.051.099.026.052a57.522 57.522 0 00.969 1.769l.115.202.064.111a50.622 50.622 0 00.945 1.566c.048.078.097.153.146.23l.002.004c.112.176.228.366.336.53l.584.895.016-.004c.175.254.349.495.523.741.168.236.334.47.502.697l.101.135c.139.185.277.369.415.548.183.237.364.466.546.691.111.14.223.277.335.413l.12.151c.313.373.623.731.929 1.067l.014.015c.196.216.386.401.579.601.156.161.316.336.47.487.031.031.064.069.096.099.661.64 1.329 1.243 1.997 1.827.091.079.182.162.271.24.256.22.518.424.775.64.509.424 1.018.848 1.522 1.242.308.24.608.463.913.692.052.038.104.077.154.116.396.299.791.599 1.181.882.484.352.971.696 1.458 1.036.103.072.211.154.313.224-1.935 3.556-3.93 7.229-5.391 10.865-1.86 4.631-2.647 9.465-2.791 13.348.957.271 1.933.497 2.925.679a36.22 36.22 0 01.268-3.736l26.939-7.217c-.278-.312-.562-.62-.85-.926" />
</svg>