<svg xmlns="http://www.w3.org/2000/svg" xml:space="preserve" viewBox="0 0 231.676 63.779"><path d="M109.557 40.188c-2.545 2.635-5.581 3.616-8.974 3.616-3.482 0-6.34-1.25-8.572-3.482-3.215-3.214-3.126-7.188-3.126-12.68 0-5.491-.089-9.465 3.126-12.68 2.232-2.232 5-3.482 8.572-3.482 7.366 0 11.117 4.822 11.965 10.18h-6.25c-.715-2.992-2.545-4.645-5.715-4.645-1.697 0-3.081.671-3.974 1.697-1.206 1.34-1.519 2.813-1.519 8.93 0 6.117.312 7.635 1.519 8.975.893 1.026 2.276 1.651 3.974 1.651 1.875 0 3.393-.671 4.42-1.786 1.026-1.16 1.429-2.589 1.429-4.241v-1.205h-5.849v-5.18h12.01V30.5c0 4.597-.803 7.366-3.036 9.688M137.911 40.188c-2.545 2.635-5.581 3.616-8.974 3.616-3.482 0-6.34-1.25-8.572-3.482-3.215-3.214-3.126-7.188-3.126-12.68 0-5.491-.089-9.465 3.126-12.68 2.232-2.232 5-3.482 8.572-3.482 7.366 0 11.117 4.822 11.965 10.18h-6.25c-.715-2.992-2.545-4.645-5.715-4.645-1.697 0-3.081.671-3.974 1.697-1.206 1.34-1.519 2.813-1.519 8.93 0 6.117.312 7.635 1.519 8.975.893 1.026 2.276 1.651 3.974 1.651 1.875 0 3.393-.671 4.42-1.786 1.026-1.16 1.429-2.589 1.429-4.241v-1.205h-5.849v-5.18h12.01V30.5c0 4.597-.804 7.366-3.036 9.688"/><path fill="#EB6143" d="m163.46 43.536-6.206-12.68h-4.465v12.68h-6.205V11.747h12.455c6.475 0 10.314 4.42 10.314 9.732 0 4.466-2.724 7.233-5.804 8.35l7.099 13.707h-7.188zm-4.821-26.253h-5.85v8.396h5.85c2.724 0 4.509-1.744 4.509-4.199s-1.785-4.197-4.509-4.197M194.052 43.536l-12.59-19.512v19.512h-6.206V11.747h5.536l12.59 19.467V11.747h6.206v31.789zM225.188 43.536l-1.875-5.627h-11.296l-1.92 5.627h-6.474l11.563-31.789h4.866l11.608 31.789h-6.472zm-7.412-22.413-4.018 11.563h7.902l-3.884-11.563z"/><path d="M96.279 59.504c-.67.707-1.501 1.005-2.432 1.005-.918 0-1.712-.334-2.319-.942-.869-.868-.856-1.849-.856-3.548 0-1.7-.013-2.68.856-3.547.607-.609 1.377-.944 2.319-.944 1.873 0 2.965 1.229 3.213 2.743h-1.352c-.224-.969-.869-1.539-1.861-1.539a1.78 1.78 0 0 0-1.303.545c-.434.472-.533.968-.533 2.742 0 1.773.1 2.283.533 2.754.311.336.782.533 1.303.533.583 0 1.092-.224 1.439-.619.322-.373.446-.82.446-1.391V56.8h-1.886v-1.142h3.226v1.353c.001 1.141-.21 1.873-.793 2.493M99.958 57.655c0 1.08.57 1.762 1.6 1.762.707 0 1.08-.197 1.526-.644l.807.756c-.646.646-1.253.979-2.357.979-1.575 0-2.828-.83-2.828-3.226 0-2.034 1.054-3.213 2.667-3.213 1.687 0 2.667 1.242 2.667 3.028v.557h-4.082zm2.654-1.736c-.198-.472-.645-.793-1.24-.793s-1.055.321-1.253.793c-.124.285-.149.473-.161.856h2.828c-.013-.383-.05-.571-.174-.856M109.619 60.435v-3.832c0-.98-.558-1.402-1.266-1.402-.707 0-1.302.434-1.302 1.402v3.832h-1.266v-6.289h1.24v.633c.435-.472 1.042-.707 1.675-.707.646 0 1.179.211 1.551.57.484.471.633 1.066.633 1.773v4.02h-1.265zM113.841 57.655c0 1.08.57 1.762 1.6 1.762.707 0 1.08-.197 1.526-.644l.807.756c-.646.646-1.253.979-2.357.979-1.575 0-2.828-.83-2.828-3.226 0-2.034 1.053-3.213 2.667-3.213 1.687 0 2.667 1.242 2.667 3.028v.557h-4.082zm2.655-1.736c-.198-.472-.646-.793-1.24-.793-.596 0-1.055.321-1.253.793-.124.285-.149.473-.161.856h2.828c-.013-.383-.05-.571-.174-.856M128.675 60.435l-.72-.867c-.385.335-1.104.941-2.443.941-1.837 0-2.854-1.029-2.854-2.63 0-1.227.881-1.923 1.749-2.493-.397-.459-.918-1.078-.918-1.898 0-1.128.844-1.959 2.158-1.959 1.253 0 2.097.843 2.097 1.972 0 .694-.385 1.179-.942 1.563 0 0-.435.298-.646.447l1.861 2.221c.322-.459.459-.969.471-1.775h1.216c-.037 1.129-.286 2.023-.881 2.717l1.477 1.762h-1.625zm-3.573-4.254c-.645.445-1.19.854-1.19 1.674 0 .882.682 1.502 1.601 1.502.595 0 1.104-.162 1.687-.684l-2.098-2.492zm.546-3.549c-.546 0-.868.372-.868.868 0 .36.235.694.682 1.216.137-.087.423-.285.423-.285.347-.236.645-.508.645-.918-.001-.496-.362-.881-.882-.881M136.97 60.435c-1.179 0-1.725-.844-1.725-1.748v-3.462h-.719v-.968h.719v-1.91h1.266v1.91h1.216v.968h-1.216v3.398c0 .459.224.733.694.733h.521v1.078h-.756zM142.814 55.621c-.285-.284-.509-.422-.942-.422-.683 0-1.253.546-1.253 1.414v3.821h-1.266v-6.289h1.24v.682c.323-.445.968-.757 1.675-.757.607 0 1.066.161 1.501.597l-.955.954zM148.571 60.435v-.57c-.459.459-.894.646-1.675.646s-1.303-.187-1.688-.571c-.322-.335-.496-.818-.496-1.352 0-1.055.732-1.812 2.171-1.812h1.663v-.446c0-.795-.397-1.18-1.378-1.18-.694 0-1.029.162-1.377.609l-.831-.782c.596-.694 1.216-.906 2.258-.906 1.725 0 2.593.732 2.593 2.159v4.205h-1.24zm-.025-2.78h-1.477c-.744 0-1.128.336-1.128.906 0 .571.358.893 1.152.893.484 0 .844-.037 1.18-.359.186-.186.272-.483.272-.93v-.51zM155.659 60.435v-3.832c0-.98-.558-1.402-1.265-1.402-.708 0-1.303.434-1.303 1.402v3.832h-1.266v-6.289h1.24v.633c.435-.472 1.042-.707 1.675-.707.646 0 1.179.211 1.551.57.483.471.633 1.066.633 1.773v4.02h-1.265zM161.061 60.509c-1.029 0-1.897-.174-2.642-.904l.831-.832c.508.521 1.19.658 1.811.658.77 0 1.377-.273 1.377-.869 0-.422-.235-.695-.843-.744l-1.005-.086c-1.179-.101-1.861-.633-1.861-1.738 0-1.227 1.055-1.922 2.369-1.922.943 0 1.75.199 2.333.707l-.794.806c-.397-.335-.956-.459-1.551-.459-.757 0-1.142.335-1.142.808 0 .371.198.656.868.719l.992.087c1.179.099 1.874.657 1.874 1.774.001 1.313-1.116 1.995-2.617 1.995M167.885 60.509c-1.415 0-2.804-.867-2.804-3.226 0-2.356 1.389-3.212 2.804-3.212.868 0 1.476.248 2.071.88l-.868.844c-.397-.435-.707-.596-1.203-.596-.484 0-.895.2-1.167.559-.272.349-.372.794-.372 1.525 0 .733.1 1.192.372 1.539.272.36.683.558 1.167.558.496 0 .806-.16 1.203-.596l.868.832c-.595.632-1.203.893-2.071.893M174.975 55.621c-.285-.284-.509-.422-.942-.422-.683 0-1.253.546-1.253 1.414v3.821h-1.266v-6.289h1.24v.682c.323-.445.968-.757 1.675-.757.607 0 1.067.161 1.501.597l-.955.954zM177.234 51.565h1.341v1.34h-1.341v-1.34zm.037 2.581h1.267v6.289h-1.267v-6.289zM185.023 59.952c-.348.346-.894.558-1.526.558-.67 0-1.19-.175-1.649-.72v3.188h-1.266v-8.832h1.24v.669c.472-.569.98-.744 1.662-.744.633 0 1.191.212 1.539.56.633.632.707 1.699.707 2.654s-.074 2.033-.707 2.667m-1.861-4.752c-1.141 0-1.314.967-1.314 2.084 0 1.116.174 2.096 1.314 2.096 1.142 0 1.303-.979 1.303-2.096-.001-1.117-.162-2.084-1.303-2.084M189.446 60.435c-1.179 0-1.725-.844-1.725-1.748v-3.462h-.719v-.968h.719v-1.91h1.266v1.91h1.216v.968h-1.216v3.398c0 .459.224.733.694.733h.521v1.078h-.756zM197.073 60.509c-1.029 0-1.897-.174-2.643-.904l.831-.832c.509.521 1.191.658 1.812.658.77 0 1.377-.273 1.377-.869 0-.422-.235-.695-.843-.744l-1.005-.086c-1.179-.101-1.861-.633-1.861-1.738 0-1.227 1.055-1.922 2.369-1.922.942 0 1.75.199 2.333.707l-.794.806c-.397-.335-.956-.459-1.551-.459-.757 0-1.142.335-1.142.808 0 .371.198.656.868.719l.992.087c1.179.099 1.874.657 1.874 1.774.001 1.313-1.116 1.995-2.617 1.995M202.346 57.655c0 1.08.57 1.762 1.6 1.762.707 0 1.08-.197 1.526-.644l.807.756c-.646.646-1.253.979-2.357.979-1.575 0-2.828-.83-2.828-3.226 0-2.034 1.054-3.213 2.667-3.213 1.687 0 2.667 1.242 2.667 3.028v.557h-4.082zM205 55.919c-.198-.472-.645-.793-1.24-.793s-1.055.321-1.253.793c-.124.285-.149.473-.161.856h2.828c-.012-.383-.049-.571-.174-.856M211.644 60.435v-.57c-.459.459-.894.646-1.675.646s-1.303-.187-1.688-.571c-.322-.335-.496-.818-.496-1.352 0-1.055.732-1.812 2.171-1.812h1.662v-.446c0-.795-.396-1.18-1.377-1.18-.694 0-1.029.162-1.377.609l-.831-.782c.596-.694 1.216-.906 2.258-.906 1.725 0 2.593.732 2.593 2.159v4.205h-1.24zm-.025-2.78h-1.476c-.744 0-1.129.336-1.129.906 0 .571.359.893 1.153.893.484 0 .844-.037 1.179-.359.187-.186.272-.483.272-.93v-.51zM218.36 55.621c-.285-.284-.509-.422-.942-.422-.683 0-1.253.546-1.253 1.414v3.821h-1.266v-6.289h1.24v.682c.323-.445.968-.757 1.675-.757.607 0 1.066.161 1.501.597l-.955.954zM222.908 60.509c-1.415 0-2.804-.867-2.804-3.226 0-2.356 1.389-3.212 2.804-3.212.868 0 1.476.248 2.071.88l-.868.844c-.397-.435-.707-.596-1.203-.596-.484 0-.894.2-1.167.559-.272.349-.372.794-.372 1.525 0 .733.1 1.192.372 1.539.273.36.683.558 1.167.558.496 0 .806-.16 1.203-.596l.868.832c-.596.632-1.203.893-2.071.893M230.345 60.435v-3.857c0-.955-.559-1.377-1.266-1.377s-1.277.434-1.277 1.377v3.857h-1.266v-8.832h1.266v3.176a2.16 2.16 0 0 1 1.625-.707c1.401 0 2.184.942 2.184 2.307v4.057h-1.266z"/><path fill="#EB6143" d="M37.382 54.592c1.421 1.203 3.23 2.426 5.103 3.574a77.075 77.075 0 0 0 4.562-2.49c-1.157-.128-2.822-.315-4.462-.499l-1.283-.146c-1.695-.19-3.024-.34-3.92-.439M39.036 49.174c-4.165-.629-5.747-.863-5.837-.867l-.381-.06c.34 1.181.957 2.349 1.853 3.511 1.053.168 4.749.801 8.244 1.403l3.654.63 2.682.463c.141-.101.312-.207.44-.306 1.032-.776 1.878-1.747 2.563-2.778a3204.14 3204.14 0 0 1-8.797-1.326l-1.565-.236-2.856-.434zM33.188 42.777c-.408.994-.655 1.979-.697 2.952 1.872.323 6.76 1.187 11.314 1.994a26149.776 26149.776 0 0 0 9.435 1.673c.56-1.236.876-2.463.949-3.525l-9.846-1.449-4.263-.629c-5.125-.756-6.508-.961-6.892-1.016M40.105 35.803c1.267.269 3.392.738 5.454 1.197l1.276.284c1.594.354 2.821.628 3.749.832-1.771-1.78-3.948-3.345-5.985-4.708-.465.251-.967.514-1.517.799a91.809 91.809 0 0 0-2.977 1.596M34.856 39.828c-.117.155-.189.308-.298.463 1.343.227 5.839 1.064 10.157 1.871l1.049.196c4.027.752 6.911 1.291 8.286 1.539-.271-1.305-.859-2.528-1.668-3.671l-7.168-1.117c-3.312-.517-7.035-1.098-8.244-1.285-.843.637-1.589 1.305-2.114 2.004M35.442 63.57a31.719 31.719 0 0 0 8.676-2.229c-.567-.327-1.138-.656-1.719-1.004a161.281 161.281 0 0 1-6.957 3.233"/><path fill="#EB6143" d="M63.78 31.891c0-12.964-7.747-24.098-18.853-29.084l-.934 1.063c4.242 3.164 8.439 6.481 10.453 9.21 2.948 3.995 2.553 9.482-.961 13.346-1.966 2.161-4.579 4.307-7.094 5.905 4.434 3.038 9.559 7.241 9.727 12.837.093 3.068-1.691 7.591-5.283 10.298-1.559 1.175-3.851 2.509-6.427 3.853.614.357 1.217.703 1.803 1.035C56.623 55.105 63.78 44.345 63.78 31.891M42.464 2.732c.21-.236.408-.463.6-.68a31.435 31.435 0 0 0-2.722-.884l.711.524 1.411 1.04"/><path fill="#FFF" d="M42.4 60.338c.581.349 1.15.676 1.718 1.004a31.761 31.761 0 0 0 2.094-.987c-.586-.333-1.188-.679-1.803-1.037-.654.34-1.325.681-2.009 1.02M41.202 4.163a2603.13 2603.13 0 0 1 1.261-1.43c-.473-.348-.946-.698-1.411-1.039l-.711-.525a31.63 31.63 0 0 0-4.356-.876c1.209.92 2.544 1.903 3.941 2.933.421.307.848.622 1.276.937M42.732 5.299c1.314.979 2.616 1.971 3.853 2.951-.998.244-2.614.66-4.158 1.06l.338 2.024 5.994-1.307a37.8 37.8 0 0 1 2.895 2.711l-8.355 1.786.35 2.093 9.647-1.787c.647 1.062 1.058 2.219 1.175 3.414l-10.26 1.742.359 2.152.443-.062c4.927-.692 8.214-1.152 9.299-1.287a9.1 9.1 0 0 1-1.45 3.348L45.13 25.5l.349 2.086.501-.059c1.818-.21 3.235-.373 4.184-.48-1.711 1.566-3.654 3.031-5.5 4.123-.192.113-.391.255-.58.359-.383.213-.826.445-1.289.687l-.586.304c-2.929 1.518-6.939 3.596-8.871 6.167-4.404 5.867-3.543 11.776 2.493 17.088 1.299 1.144 2.941 2.29 4.656 3.382.678-.33 1.346-.66 1.998-.99-1.872-1.148-3.682-2.371-5.103-3.574a8063.24 8063.24 0 0 1 5.203.585l.33-2.017c-3.496-.602-7.191-1.235-8.245-1.403-.894-1.161-1.512-2.33-1.851-3.509.122.019.221.033.38.059.09.003 1.672.238 5.837.868l2.857.432 1.564.237.348-2.12c-4.555-.808-9.442-1.671-11.314-1.994.042-.973.289-1.958.697-2.952.384.055 1.767.26 6.894 1.016l4.263.629.37-2.26c-4.317-.807-8.812-1.645-10.156-1.871.108-.155.182-.308.299-.463.522-.699 1.269-1.367 2.113-2.004l8.244 1.285.346-2.111c-2.063-.459-4.188-.93-5.454-1.196a88.873 88.873 0 0 1 2.976-1.597 89.928 89.928 0 0 0 1.517-.799c.136-.072.281-.148.406-.219.453-.251.922-.564 1.388-.859 2.515-1.597 5.128-3.744 7.094-5.903 3.514-3.864 3.91-9.353.961-13.347-2.014-2.729-6.21-6.045-10.453-9.211-.231.263-.467.529-.718.812-.171.192-.365.413-.546.618"/><path fill="#C9CACA" d="M41.854 3.424c-.222.25-.433.491-.651.739-4.222 4.783-7.687 8.86-8.297 10.806-1.043 3.326-.87 6.67.473 9.177 1.392 2.594 3.189 3.823 5.678 5.524.521.355 1.078.735 1.678 1.16a72.35 72.35 0 0 0 2.061 1.385c.464-.24.906-.473 1.289-.686.189-.105.388-.245.58-.359l-.595-.391c-.825-.542-1.588-1.041-2.236-1.5-.567-.4-1.088-.757-1.583-1.096 1.273-.141 3.337-.379 5.229-.598l-.349-2.085c-1.969.361-3.892.717-5.207.961l-1.675.309c-1.301-.969-2.262-1.903-3.067-3.325 1.364-.177 5.508-.759 9.388-1.306l-.359-2.151-1.413.24c-2.429.421-4.685.81-6.18 1.062l-2.177.366c-.269-1.009-.326-2.128-.236-3.291.63-.115 5.012-.927 9.443-1.748l-.35-2.093-3.046.651-3.57.774c-.91.197-1.633.351-2.162.462.071-.293.106-.582.198-.876.189-.601.873-1.629 1.789-2.839l6.259-1.363-.338-2.023-1.285.332c-1.208.314-2.105.547-2.771.717a215.997 215.997 0 0 1 4.36-5.061l.545-.617.719-.812c.339-.385.646-.735.932-1.063a31.118 31.118 0 0 0-1.863-.754l-.6.681c-.2.226-.399.449-.611.691M44.409 59.317c2.576-1.342 4.868-2.677 6.427-3.851 3.591-2.707 5.376-7.23 5.283-10.299-.168-5.596-5.293-9.799-9.727-12.838-.466.295-.935.608-1.388.859-.125.07-.271.146-.405.219 2.037 1.363 4.214 2.928 5.984 4.709l-3.749-.832-1.274-.285-.346 2.109 7.167 1.117c.811 1.143 1.398 2.366 1.668 3.671-1.375-.248-4.259-.787-8.284-1.539l-1.051-.196-.369 2.26c3.822.563 7.667 1.13 9.845 1.447-.073 1.064-.389 2.291-.949 3.526l-4.658-.825-4.777-.847-.348 2.12c3.431.52 6.883 1.043 8.796 1.326-.685 1.031-1.53 2.002-2.562 2.779-.129.096-.3.205-.44.305-.571-.098-1.414-.243-2.682-.463l-3.654-.631-.33 2.017 4.462.499a77.45 77.45 0 0 1-4.562 2.49c-.652.33-1.321.66-1.998.99a175.41 175.41 0 0 1-10.23 4.541c.546.027 1.082.082 1.635.082 1.202 0 2.385-.08 3.552-.209a164.887 164.887 0 0 0 6.958-3.232c.681-.338 1.352-.678 2.006-1.019"/><path fill="#EB6143" d="m45.979 27.527-.5.059c-1.894.219-3.956.457-5.229.599.495.339 1.016.695 1.582 1.095.649.459 1.412.959 2.238 1.5l.594.392c1.846-1.095 3.789-2.558 5.5-4.124-.948.106-2.366.27-4.185.479M54.311 20.789c-1.084.135-4.371.595-9.298 1.287-.146.021-.296.043-.443.062-3.88.547-8.023 1.129-9.388 1.306.805 1.423 1.767 2.357 3.067 3.325l1.675-.309c1.313-.243 3.238-.6 5.207-.961l7.73-1.363a9.088 9.088 0 0 0 1.45-3.347M42.732 5.299c-1.329 1.505-2.931 3.333-4.361 5.061.666-.17 1.564-.402 2.772-.717l1.283-.333c1.544-.399 3.16-.815 4.158-1.06a156.223 156.223 0 0 0-3.852-2.951M48.759 10.027l-5.994 1.307-6.259 1.363c-.916 1.21-1.599 2.238-1.788 2.839-.092.294-.128.583-.197.876.528-.111 1.252-.265 2.161-.462l3.569-.774 3.047-.651 8.356-1.785c-.816-.863-1.791-1.771-2.895-2.713M53.296 14.83l-9.648 1.787-9.444 1.748c-.089 1.163-.031 2.283.237 3.291l2.176-.366c1.495-.253 3.751-.642 6.181-1.063l1.413-.239 10.261-1.743c-.119-1.196-.53-2.352-1.176-3.415"/><path fill="#FDD23E" d="M42.208 32.52c.204-.105.393-.203.586-.305a74.648 74.648 0 0 1-2.061-1.384c-.6-.425-1.158-.806-1.678-1.162-2.488-1.701-4.285-2.929-5.678-5.524-1.344-2.506-1.516-5.851-.473-9.177.609-1.944 4.076-6.021 8.296-10.805l-1.274-.938A324.03 324.03 0 0 1 35.985.292C34.642.12 33.281 0 31.89 0 14.278 0 0 14.277 0 31.891a31.668 31.668 0 0 0 3.589 14.688V32.997c0-2.388 1.78-4.347 4.08-4.67V18.011a4.74 4.74 0 0 1 4.736-4.735h17.011v1.836a2.903 2.903 0 0 0-2.899 2.899 2.904 2.904 0 0 0 2.899 2.901h.918v19.115h-4.081v14.986H10.008c5.346 5.043 12.413 8.285 20.248 8.684a173.497 173.497 0 0 0 10.23-4.543c-1.716-1.09-3.357-2.236-4.656-3.379-6.036-5.313-6.897-11.221-2.493-17.088 1.932-2.571 5.942-4.649 8.871-6.167"/><path fill="#FFF" d="M26.253 40.027h4.081V20.912h-.918c-1.599 0-2.899-1.303-2.899-2.901s1.301-2.899 2.899-2.899v-1.836H12.405a4.74 4.74 0 0 0-4.736 4.735v10.315c-2.3.324-4.08 2.283-4.08 4.67v13.582c1.652 3.17 3.844 6.004 6.419 8.435h16.245V40.027z"/><path fill="#1BB8CE" d="M28.498 22.748H12.405a4.713 4.713 0 0 1-2.9-.994v6.506h15.83v1.837a2.902 2.902 0 0 0-2.899 2.899c0 1.6 1.301 2.9 2.899 2.9h.918v2.295h2.245V22.748z"/><path fill="#C9CACA" d="M18.709 18.93v-1.836h6.069a4.712 4.712 0 0 1 .895-1.982H12.405a2.904 2.904 0 0 0-2.9 2.9 2.904 2.904 0 0 0 2.9 2.899h13.268a4.732 4.732 0 0 1-.895-1.981h-6.069zM14.628 33.914v-1.836h6.069a4.72 4.72 0 0 1 .895-1.981H8.325a2.904 2.904 0 0 0-2.9 2.899c0 1.6 1.303 2.9 2.9 2.9h13.267a4.725 4.725 0 0 1-.895-1.982h-6.069z"/><path fill="#1BB8CE" d="M24.417 53.178V37.733H8.325a4.718 4.718 0 0 1-2.9-.993v12.943c.829 1.231 1.768 2.379 2.756 3.479.049.003.096.016.145.016h16.091z"/></svg>