<svg width="183" height="41" viewBox="0 0 183 41" fill="none" xmlns="http://www.w3.org/2000/svg">
	<g clip-path="url(#clip0_921_16805)">
		<path d="M41.2 36.4C35.3 36.4 32.3 40.8 22.2 40.8C9.9 40.8 0 33 0 20.4C0 7.8 9.9 0 22.2 0C32.3 0 35.3 4.4 41.2 4.4C47.1 4.4 50.1 0 60.3 0C72.6 0 82.5 7.8 82.5 20.4C82.5 33 72.6 40.8 60.3 40.8C50.1 40.8 47.1 36.4 41.2 36.4Z" fill="#8FC31F"/>
		<path d="M55.0998 20.4C55.0998 29.2 48.8998 36.4 41.1998 36.4C33.4998 36.4 27.2998 29.3 27.2998 20.4C27.2998 11.5 33.4998 4.4 41.1998 4.4C48.8998 4.4 55.0998 11.6 55.0998 20.4Z" fill="#6FA80C"/>
		<path d="M14.1999 28.1H10.1999V16.1H6.8999V12.7H17.4999V16.1H14.1999V28.1Z" fill="white"/>
		<path d="M37.3002 20.1C37.5002 24.6 33.9002 28.4 29.4002 28.6C29.2002 28.6 29.0002 28.6 28.7002 28.6C24.2002 28.8 20.4002 25.3 20.2002 20.7C20.2002 20.5 20.2002 20.3 20.2002 20C20.2002 15.3 24.3002 12.1 28.7002 12.1C33.1002 12.1 37.3002 15.4 37.3002 20.1Z" fill="white"/>
		<path d="M56.5999 19.5C56.5999 21.7 56.3999 23.7 54.9999 25.6C53.4999 27.6 51.0999 28.7 48.5999 28.6C44.2999 28.8 40.5999 25.5 40.3999 21.2C40.3999 20.9 40.3999 20.7 40.3999 20.4C40.3999 15.4 43.7999 12.1 48.7999 12.1C51.7999 11.9 54.5999 13.7 55.7999 16.4L51.9999 18.1C51.4999 16.6 50.1999 15.6 48.6999 15.7C46.0999 15.7 44.6999 18.2 44.6999 20.6C44.6999 23 46.0999 25.4 48.7999 25.4C50.3999 25.6 51.7999 24.5 51.9999 22.9V22.8H48.6999V19.7H56.5999V19.5V19.5Z" fill="white"/>
		<path d="M76.7998 20.1C76.7998 24.8 72.9998 28.6 68.2998 28.6C63.5998 28.6 59.7998 24.8 59.7998 20.1C59.7998 15.4 63.8998 12.2 68.2998 12.2C72.6998 12.2 76.7998 15.4 76.7998 20.1Z" fill="white"/>
		<path d="M85.7998 29.7L88.3998 14.6H92.2998L95.2998 22.6L98.2998 14.6H102.2L104.8 29.7H100.9L99.4998 21L95.9998 29.7H94.3998L90.9998 21L89.6998 29.7H85.7998Z" fill="#444444"/>
		<path d="M117.2 17.9H112.5V20.4H116.9V23.7H112.5V26.3H117.2V29.6H108.6V14.6H117.2V17.9Z" fill="#444444"/>
		<path d="M121.8 14.6H127.6C128.6 14.6 129.6 14.8 130.5 15.2C132.3 16 133.7 17.4 134.5 19.3C135.3 21.1 135.3 23.2 134.5 25C134.1 25.9 133.6 26.7 132.9 27.4C132.2 28.1 131.4 28.6 130.5 29C129.6 29.4 128.6 29.6 127.6 29.6H121.8V14.6ZM125.7 26.3H126.6C127.2 26.3 127.8 26.2 128.4 26C129.4 25.6 130.2 24.8 130.6 23.8C130.8 23.3 130.9 22.7 130.9 22.1C130.9 21.5 130.8 21 130.6 20.4C130.2 19.4 129.4 18.6 128.4 18.2C127.8 18 127.2 17.9 126.6 17.9H125.7V26.3Z" fill="#444444"/>
		<path d="M142.8 14.6V29.7H138.9V14.6H142.8Z" fill="#444444"/>
		<path d="M151.7 14.6V22.8V24.2C151.7 24.6 151.8 25.1 152 25.4C152.2 25.8 152.4 26.1 152.8 26.3C153.7 26.8 154.9 26.8 155.8 26.3C156.1 26.1 156.4 25.8 156.6 25.4C156.8 25 156.9 24.6 156.9 24.2C156.9 23.7 157 23.3 157 22.8V14.6H160.9V23.3C160.9 25.7 160.4 27.4 159.3 28.4C156.3 30.6 152.3 30.6 149.4 28.4C148.3 27.3 147.8 25.6 147.8 23.3V14.6H151.7Z" fill="#444444"/>
		<path d="M164 29.7L166.6 14.6H170.5L173.5 22.6L176.5 14.6H180.4L183 29.7H179L177.7 21L174.1 29.7H172.5L169.1 21L167.8 29.7H164V29.7Z" fill="#444444"/>
	</g>
	<defs>
		<clipPath id="clip0_921_16805">
			<rect width="183" height="40.8" fill="white"/>
		</clipPath>
	</defs>
</svg>
