<?xml version="1.0" encoding="utf-8"?>
<!-- Generator: Adobe Illustrator 25.4.1, SVG Export Plug-In . SVG Version: 6.00 Build 0)  -->
<svg version="1.1" id="レイヤー_1" xmlns="http://www.w3.org/2000/svg" xmlns:xlink="http://www.w3.org/1999/xlink" width="191"
	height="41" x="0px" y="0px" viewBox="0 0 190 41" style="enable-background:new 0 0 190 41;" xml:space="preserve">
	<style type="text/css">
		.st0 {
			fill: #46B9CC;
		}

		.st1 {
			fill: #249EB3;
		}

		.st2 {
			fill: #FFFFFF;
		}

		.st3 {
			fill: #444444;
		}
	</style>
	<g>
		<g>
			<path class="st0" d="M41.2,36.4c-5.9,0-8.9,4.4-19,4.4C9.9,40.8,0,33,0,20.4S9.9,0,22.2,0c10.1,0,13.1,4.4,19,4.4S50.1,0,60.2,0
			c12.3,0,22.2,7.8,22.2,20.4c0,12.6-9.9,20.4-22.2,20.4C50.1,40.8,47.1,36.4,41.2,36.4z" />
		</g>
		<path class="st1" d="M55.1,20.5c0,8.8-6.2,16-13.9,16s-13.9-7.2-13.9-16s6.2-16,13.9-16S55.1,11.6,55.1,20.5z" />
		<g>
			<path class="st2" d="M14.2,28.2h-4v-12H6.9v-3.4h10.6v3.4h-3.3C14.2,16.2,14.2,28.2,14.2,28.2z" />
			<path class="st2"
				d="M37.3,20.2c0,5-3.6,8.5-8.5,8.5c-5,0-8.5-3.5-8.5-8.5c0-4.7,4.1-7.9,8.5-7.9C33.2,12.2,37.3,15.5,37.3,20.2z" />
			<path class="st2" d="M56.6,19.6c0,2.3-0.2,4.2-1.6,6.1c-1.5,2.1-3.8,3-6.4,3c-4.8,0-8.2-3.3-8.2-8.1c0-5,3.4-8.3,8.4-8.3
			c3.2,0,5.6,1.4,7,4.3L52,18.2c-0.6-1.5-1.7-2.5-3.3-2.5c-2.6,0-4,2.5-4,4.9s1.4,4.8,4.1,4.8c1.7,0,3.1-0.9,3.2-2.7h-3.3v-3.2
			L56.6,19.6L56.6,19.6z" />
			<path class="st2"
				d="M76.8,20.2c0,5-3.6,8.5-8.5,8.5c-5,0-8.5-3.5-8.5-8.5c0-4.7,4.1-7.9,8.5-7.9C72.7,12.2,76.8,15.5,76.8,20.2z" />
		</g>
		<g>
			<path class="st3" d="M101.6,19.6c0,2.3-0.2,4.2-1.6,6.1c-1.5,2.1-3.8,3-6.4,3c-4.8,0-8.2-3.3-8.2-8.1c0-5,3.4-8.3,8.4-8.3
			c3.2,0,5.6,1.4,7,4.3L97,18.2c-0.6-1.5-1.7-2.5-3.3-2.5c-2.6,0-4,2.5-4,4.9s1.4,4.8,4.1,4.8c1.7,0,3.1-0.9,3.2-2.7h-3.3v-3.2
			L101.6,19.6L101.6,19.6z" />
			<path class="st3" d="M109.5,16.1v2.6h4.5v3.4h-4.5v2.7h4.8v3.4h-8.8V12.8h8.8v3.4L109.5,16.1L109.5,16.1z" />
			<path class="st3" d="M118.8,12.7h4l7.3,9.4l0,0v-9.4h4v15.4h-4l-7.3-9.5l0,0v9.5h-4V12.7z" />
			<path class="st3" d="M155.2,20.2c0,5-3.6,8.5-8.5,8.5c-5,0-8.5-3.5-8.5-8.5c0-4.7,4.1-7.9,8.5-7.9
			C151.1,12.2,155.2,15.5,155.2,20.2z M142.3,20.2c0,2.7,2,4.6,4.4,4.6s4.4-1.9,4.4-4.6c0-2.1-2-4.1-4.4-4.1
			C144.2,16.1,142.3,18.1,142.3,20.2z" />
			<path class="st3" d="M160.8,12.7h3.9l3.1,8.2l3.3-8.2h4l2.3,15.4h-4l-1.1-8.9l0,0l-3.7,8.9H167l-3.5-8.9l0,0l-1.3,8.9h-4
			L160.8,12.7z" />
			<path class="st3" d="M185.2,16.1v2.6h4.5v3.4h-4.5v2.7h4.8v3.4h-8.8V12.8h8.8v3.4L185.2,16.1L185.2,16.1z" />
		</g>
	</g>
</svg>