<svg id="レイヤー_1" data-name="レイヤー 1" xmlns="http://www.w3.org/2000/svg" xmlns:xlink="http://www.w3.org/1999/xlink" viewBox="0 0 652 90"><defs><style>.cls-1{fill:none;}.cls-2{clip-path:url(#clip-path);}.cls-3,.cls-7{isolation:isolate;}.cls-4{fill:#333;}.cls-5{fill:#048998;}.cls-6{fill:#fdd365;}.cls-7{fill:#fff;opacity:0.1;}</style><clipPath id="clip-path"><rect class="cls-1" width="652" height="90"/></clipPath></defs><g class="cls-2"><g id="マスクグループ_22" data-name="マスクグループ 22"><g id="グループ_1286" data-name="グループ 1286"><g id="TV" class="cls-3"><g class="cls-3"><path class="cls-4" d="M518.19,84V21.23H501.27V8.29H550V21.23H533V84Z"/><path class="cls-4" d="M614.12,59.15,634.56,8.29h16L617.87,86h-8L577.79,8.29h16.12Z"/></g></g><g id="グループ_1285" data-name="グループ 1285"><g id="グループ_1284" data-name="グループ 1284"><g id="グループ_1283" data-name="グループ 1283"><circle id="楕円形_82" data-name="楕円形 82" class="cls-5" cx="433.37" cy="45" r="44.44"/><circle id="楕円形_83" data-name="楕円形 83" class="cls-5" cx="433.37" cy="45" r="44.44"/><g id="グループ_1282" data-name="グループ 1282"><g id="グループ_1280" data-name="グループ 1280"><path id="パス_8231" data-name="パス 8231" class="cls-6" d="M424.86,29l24,16-24,16Z"/></g><g id="グループ_1281" data-name="グループ 1281"><path id="パス_8232" data-name="パス 8232" class="cls-6" d="M424.86,29l24,16-24,16Z"/></g></g></g><path id="パス_8233" data-name="パス 8233" class="cls-7" d="M433.36.56A44.43,44.43,0,0,0,402.3,76.77l62.84-62.83A44.27,44.27,0,0,0,433.36.56Z"/></g><g id="TOGO" class="cls-3"><g class="cls-3"><path class="cls-4" d="M17.71,82.3V19.51H.79V6.57H49.5V19.51h-17V82.3Z"/><path class="cls-4" d="M111.83,4.87a40.43,40.43,0,0,1,28.61,11.46,38.93,38.93,0,0,1,11.7,28.16,38.71,38.71,0,0,1-11.75,28.16,39.73,39.73,0,0,1-13,8.34,42.8,42.8,0,0,1-16.12,3,40.48,40.48,0,0,1-15.84-3.07A38.68,38.68,0,0,1,74.25,59.76a40.65,40.65,0,0,1-3.06-15.84,37,37,0,0,1,3.18-15.21,38.78,38.78,0,0,1,8.68-12.43A41.5,41.5,0,0,1,111.83,4.87Zm-.22,13.39a23.51,23.51,0,0,0-9.71,2.06,25.93,25.93,0,0,0-8.06,5.58,26.34,26.34,0,0,0-5.45,8.21,25.31,25.31,0,0,0-2,10,27.32,27.32,0,0,0,7.38,18.76,24.84,24.84,0,0,0,8.06,5.64,24.19,24.19,0,0,0,9.88,2,23.81,23.81,0,0,0,9.82-2,24.91,24.91,0,0,0,8-5.64,27.55,27.55,0,0,0,5.4-8.33,27.29,27.29,0,0,0,0-20.41,26.9,26.9,0,0,0-5.4-8.27,25.21,25.21,0,0,0-8-5.58A24.09,24.09,0,0,0,111.61,18.26Z"/><path class="cls-4" d="M256.93,41.65c0,2.81-.08,5.27-.23,7.4s-.38,4.08-.68,5.86a32.88,32.88,0,0,1-1.19,4.9A29.71,29.71,0,0,1,253,64.19a34.56,34.56,0,0,1-13.17,14.75A37.62,37.62,0,0,1,220,84a41.77,41.77,0,0,1-15.89-3,38.26,38.26,0,0,1-12.55-8.12,37.06,37.06,0,0,1-8.29-12.38,40.47,40.47,0,0,1-3-15.72,42,42,0,0,1,3-16.07,37.65,37.65,0,0,1,8.35-12.6,38.49,38.49,0,0,1,12.71-8.29,42.45,42.45,0,0,1,16.13-3,38.85,38.85,0,0,1,18.84,4.44A36.63,36.63,0,0,1,253,22.58L240,29.5q-6.81-11.23-19.64-11.24a24.1,24.1,0,0,0-17.77,7.51,25.16,25.16,0,0,0-5.22,8.42,29.32,29.32,0,0,0-1.87,10.58,27.66,27.66,0,0,0,1.87,10.3,25.21,25.21,0,0,0,5.17,8.19,23,23,0,0,0,7.83,5.41,25,25,0,0,0,9.88,1.93q8.18,0,13.57-4.37a17.14,17.14,0,0,0,6.3-11.64H222.3V41.65Z"/><path class="cls-4" d="M325.62,4.87a40.43,40.43,0,0,1,28.61,11.46,39,39,0,0,1,11.69,28.16,38.71,38.71,0,0,1-11.75,28.16,39.52,39.52,0,0,1-13,8.34,42.76,42.76,0,0,1-16.12,3,40.55,40.55,0,0,1-15.84-3.07A38.7,38.7,0,0,1,288,59.76,40.66,40.66,0,0,1,285,43.92a37,37,0,0,1,3.18-15.21,39,39,0,0,1,8.69-12.43A41.5,41.5,0,0,1,325.62,4.87Zm-.23,13.39a23.5,23.5,0,0,0-9.7,2.06,26,26,0,0,0-8.07,5.58,26.52,26.52,0,0,0-5.45,8.21,25.48,25.48,0,0,0-2,10,27.2,27.2,0,0,0,7.38,18.76,24.73,24.73,0,0,0,8.06,5.64,24.15,24.15,0,0,0,9.88,2,23.81,23.81,0,0,0,9.82-2,25,25,0,0,0,8-5.64,27.33,27.33,0,0,0,5.39-8.33,26,26,0,0,0,2-10.2,26,26,0,0,0-2-10.21,26.69,26.69,0,0,0-5.39-8.27,25.33,25.33,0,0,0-8-5.58A24.1,24.1,0,0,0,325.39,18.26Z"/></g></g></g></g></g></g></svg>