
<svg id="Layer_1" data-name="Layer 1" xmlns="http://www.w3.org/2000/svg" viewBox="0 0 108 38.3"><defs><style>.cls-1{fill:#ff478a;}.cls-2{fill:#e50063;}.cls-3{fill:#fff;}.cls-4{fill:#444;}</style></defs><title>togodb_logo</title><path class="cls-1" d="M38.72,35.15c-5.53,0-8.35,4.15-17.87,4.15C9.33,39.3,0,32,0,20.15S9.33,1,20.85,1c9.52,0,12.34,4.15,17.87,4.15S47.07,1,56.59,1C68.1,1,77.44,8.32,77.44,20.15S68.1,39.3,56.59,39.3C47.07,39.3,44.25,35.15,38.72,35.15Z" transform="translate(0 -1)"/><ellipse class="cls-2" cx="38.72" cy="19.15" rx="13.02" ry="15"/><path class="cls-3" d="M13.37,27.39H9.61V16.09H6.5V12.91h10v3.19H13.37Z" transform="translate(0 -1)"/><path class="cls-3" d="M35.06,19.88a7.7,7.7,0,0,1-8,8,7.7,7.7,0,0,1-8-8c0-4.38,3.84-7.45,8-7.45S35.06,15.5,35.06,19.88Z" transform="translate(0 -1)"/><path class="cls-3" d="M53.17,19.3c0,2.11-.19,3.92-1.48,5.72a7,7,0,0,1-6,2.84A7.32,7.32,0,0,1,38,20.22c0-4.71,3.19-7.8,7.86-7.8a6.73,6.73,0,0,1,6.53,4.05L48.81,18a3.27,3.27,0,0,0-3.13-2.31c-2.48,0-3.76,2.36-3.76,4.57s1.34,4.53,3.82,4.53a2.74,2.74,0,0,0,3-2.52H45.7v-3Z" transform="translate(0 -1)"/><path class="cls-3" d="M72.12,19.88a8,8,0,0,1-16,0c0-4.38,3.84-7.45,8-7.45S72.12,15.5,72.12,19.88Z" transform="translate(0 -1)"/><path class="cls-4" d="M80.57,12.84h5.34a7.25,7.25,0,1,1,0,14.5H80.57Zm3.77,11.3h.85c2.25,0,4.17-1.23,4.17-4.06A3.82,3.82,0,0,0,85.22,16h-.88Z" transform="translate(0 -1)"/><path class="cls-4" d="M96.94,27.34V12.84h5.38c2.58,0,4.31,1,4.31,3.77a3,3,0,0,1-1.6,3v0c2.08.27,3,1.67,3,3.69,0,3-2.6,4-5.25,4Zm3.77-8.81h.42c1,0,2-.17,2-1.4s-1.17-1.4-2.19-1.4h-.27Zm0,5.92h.48c1.11,0,3,.06,3-1.54,0-1.75-1.86-1.58-3.1-1.58h-.38Z" transform="translate(0 -1)"/></svg>