<?xml version="1.0" encoding="utf-8"?>
<!-- Generator: Adobe Illustrator 25.3.1, SVG Export Plug-In . SVG Version: 6.00 Build 0)  -->
<svg version="1.1" id="レイヤー_1" xmlns="http://www.w3.org/2000/svg" xmlns:xlink="http://www.w3.org/1999/xlink" x="0px"
	 y="0px" viewBox="0 0 500 500" style="enable-background:new 0 0 500 500;" xml:space="preserve">
<style type="text/css">
	.st0{fill:#46B9CC;}
	.st1{fill:#249EB3;}
	.st2{fill:#FFFFFF;}
	.st3{fill:#444444;}
</style>
<g>
	<g>
		<path class="st0" d="M233.3,261.7c-4.4,0-6.7,3.3-14.3,3.3c-9.2,0-16.7-5.9-16.7-15.3c0-9.4,7.5-15.3,16.7-15.3
			c7.6,0,9.9,3.3,14.3,3.3c4.4,0,6.7-3.3,14.3-3.3c9.2,0,16.7,5.9,16.7,15.3c0,9.4-7.5,15.3-16.7,15.3
			C240,265,237.7,261.7,233.3,261.7z"/>
	</g>
	<path class="st1" d="M243.7,249.7c0,6.6-4.7,12-10.4,12c-5.7,0-10.4-5.4-10.4-12s4.7-12,10.4-12
		C239.1,237.7,243.7,243.1,243.7,249.7z"/>
	<g>
		<path class="st2" d="M213.1,255.5h-3v-9h-2.5v-2.5h8v2.5h-2.5V255.5z"/>
		<path class="st2" d="M230.4,249.5c0,3.7-2.7,6.4-6.4,6.4c-3.7,0-6.4-2.6-6.4-6.4c0-3.5,3.1-6,6.4-6
			C227.3,243.6,230.4,246,230.4,249.5z"/>
		<path class="st2" d="M244.9,249.1c0,1.7-0.2,3.1-1.2,4.6c-1.1,1.6-2.8,2.3-4.8,2.3c-3.6,0-6.2-2.5-6.2-6.1c0-3.8,2.5-6.2,6.3-6.2
			c2.4,0,4.2,1.1,5.2,3.2l-2.9,1.2c-0.4-1.1-1.3-1.8-2.5-1.8c-2,0-3,1.9-3,3.7c0,1.8,1.1,3.6,3.1,3.6c1.3,0,2.3-0.7,2.4-2h-2.5v-2.4
			H244.9z"/>
		<path class="st2" d="M260,249.5c0,3.7-2.7,6.4-6.4,6.4c-3.7,0-6.4-2.6-6.4-6.4c0-3.5,3.1-6,6.4-6C256.9,243.6,260,246,260,249.5z"
			/>
	</g>
	<g>
		<path class="st3" d="M272.8,255.5h-3v-11.6h3V255.5z"/>
		<path class="st3" d="M276.3,243.9h4.3c3.2,0,5.9,2.5,5.9,5.8c0,3.3-2.7,5.8-5.9,5.8h-4.3V243.9z M279.3,252.9h0.7
			c1.8,0,3.3-1,3.3-3.2c0-2.1-1.4-3.2-3.3-3.2h-0.7V252.9z"/>
	</g>
</g>
</svg>
