<svg id="レイヤー_1" data-name="レイヤー 1" xmlns="http://www.w3.org/2000/svg" xmlns:xlink="http://www.w3.org/1999/xlink" viewBox="0 0 180 84"><defs><style>.cls-1{fill:#fff;}.cls-2{fill:url(#名称未設定グラデーション_4);}.cls-3{fill:url(#名称未設定グラデーション_2);}.cls-4{fill:url(#名称未設定グラデーション_3);}</style><radialGradient id="名称未設定グラデーション_4" cx="235.6427" cy="-14070.14736" r="32.49816" gradientTransform="matrix(0.4243, 0, 0, -0.04213, 22.2546, -537.09155)" gradientUnits="userSpaceOnUse"><stop offset="0" stop-opacity="0.5"/><stop offset="1" stop-opacity="0"/></radialGradient><radialGradient id="名称未設定グラデーション_2" cx="235.45856" cy="-1430.63712" r="50.40649" gradientTransform="matrix(0.4243, 0, 0, -0.4243, 22.2546, -573.6629)" gradientUnits="userSpaceOnUse"><stop offset="0" stop-color="#5c93e0"/><stop offset="0.1168" stop-color="#528ad8"/><stop offset="0.3142" stop-color="#3872c4"/><stop offset="0.5667" stop-color="#0d4ba2"/><stop offset="0.6352" stop-color="#004098"/><stop offset="0.7317" stop-color="#0e499b"/><stop offset="0.9138" stop-color="#3362a2"/><stop offset="1" stop-color="#476fa6"/></radialGradient><linearGradient id="名称未設定グラデーション_3" x1="31.39326" y1="-557.48294" x2="33.17288" y2="-560.16322" gradientTransform="matrix(1, 0, 0, -1, 91, -513.5)" gradientUnits="userSpaceOnUse"><stop offset="0" stop-opacity="0.4"/><stop offset="1" stop-opacity="0"/></linearGradient></defs><title>アートボード 1</title><rect class="cls-1" x="-0.20714" y="0.12493" width="180" height="84"/><path d="M11.73554,54.29408H8.77789V30.45467H1.11649V27.71082H19.50384v2.74385h-7.7683Z"/><path d="M46.586,41.03808A13.862,13.862,0,1,1,32.7242,27.24757,13.77861,13.77861,0,0,1,46.586,41.03808Zm-24.73027-.03564a10.90464,10.90464,0,1,0,10.90412-11.011A11.01892,11.01892,0,0,0,21.85571,41.00245Z"/><path d="M75.34294,40.93118c.07127,3.59907-.32071,6.55673-2.74385,9.37184a13.14029,13.14029,0,0,1-9.83509,4.4543A13.75624,13.75624,0,1,1,74.20264,32.98471l-2.13806,1.99553a10.7915,10.7915,0,0,0-9.12241-5.02445A11.035,11.035,0,0,0,52.07367,41.07372a10.84136,10.84136,0,0,0,3.10019,7.51886,11.243,11.243,0,0,0,7.55449,3.38527c4.63247,0,9.47875-3.38527,9.47875-8.33845H64.29627V40.89554H75.34294Z"/><path d="M105.91725,41.03808A13.862,13.862,0,1,1,92.05547,27.24757,13.77861,13.77861,0,0,1,105.91725,41.03808Zm-24.7659-.03564a10.90465,10.90465,0,1,0,10.90413-11.011A11.01893,11.01893,0,0,0,81.15134,41.00245Z"/><path class="cls-2" d="M136.09957,55.64818c0,.74832-6.27166,1.35411-13.86178,1.35411S108.376,56.39651,108.376,55.64818s6.27166-1.35411,13.86178-1.35411S136.09957,54.89986,136.09957,55.64818Z"/><path class="cls-3" d="M136.09957,41.03808a13.862,13.862,0,1,1-13.86178-13.79051A13.77861,13.77861,0,0,1,136.09957,41.03808Z"/><polygon class="cls-1" points="119.672 36.156 126.906 41.002 119.672 45.849 119.672 36.156"/><polygon class="cls-4" points="119.672 45.849 126.906 41.002 126.906 44.815 119.672 49.662 119.672 45.849"/><polygon points="176.01 27.711 166.282 48.806 156.554 27.711 135.316 27.711 135.316 30.455 143.013 30.455 143.013 54.294 145.97 54.294 145.97 30.455 154.558 30.455 166.282 55.862 179.288 27.711 176.01 27.711"/></svg>