<svg xmlns="http://www.w3.org/2000/svg" viewBox="0 0 359.65 133.5"><defs><style>.cls-1{fill:#004098;}.cls-2{fill:#97bdc0;}</style></defs><title>about_logotype</title><g id="レイヤー_2" data-name="レイヤー 2"><g id="レイヤー_4" data-name="レイヤー 4"><path class="cls-1" d="M287.43,8.71h4.63c6.68,0,9.33,3.85,9.33,9.3,0,6.76-4.52,9.36-10.69,9.36h-3.26Zm1.84,17.06h1.52c5.29,0,8.74-2.14,8.74-7.86s-3.4-7.59-7.57-7.59h-2.7Z"/><path class="cls-1" d="M305.27,8.71h4.44c3,0,5.91,1,5.91,4.6,0,2.38-1.1,3.8-3.39,4.25v.05a4.37,4.37,0,0,1,4,4.44c0,4.06-3.32,5.32-7.19,5.32h-3.72Zm1.84,17.06H309c2.49,0,5.29-.67,5.29-3.63,0-3.32-2.86-3.66-5.59-3.66h-1.63Zm.05-8.9h2.06c2,0,4.54-.51,4.54-3.48,0-2.7-2.49-3.07-4.06-3.07h-2.54Z"/><path class="cls-1" d="M333.1,10.8a9.69,9.69,0,0,0-4.17-.8c-4.84,0-7.57,3.42-7.57,8s2.65,8,7.57,8a9.23,9.23,0,0,0,4.17-.8l.11,1.6a10.07,10.07,0,0,1-4.28.8c-5.88,0-9.41-3.88-9.41-9.65s3.64-9.65,9.41-9.65a12.07,12.07,0,0,1,4.28.69Z"/><path class="cls-1" d="M338,8.71h1.84V25.77h7.49v1.6H338Z"/><path class="cls-1" d="M349.49,25a7.35,7.35,0,0,0,4.12,1.1c2.3,0,4.2-1.18,4.2-3.82,0-3.66-8.55-4.12-8.55-9,0-3,2.62-4.87,5.91-4.87a11.15,11.15,0,0,1,3.66.61l-.29,1.68a7.61,7.61,0,0,0-3.4-.7c-1.92,0-4,.8-4,3.21,0,3.74,8.55,3.77,8.55,9.22,0,3.77-3.24,5.27-6.12,5.27a10.66,10.66,0,0,1-4.22-.8Z"/><path class="cls-1" d="M288.07,30.36h1.39c1.56,0,2.94.53,2.94,2.54s-1.38,2.55-2.94,2.55h-1.39Zm1,4.29h.57a1.74,1.74,0,0,0,0-3.49h-.57Z"/><path class="cls-1" d="M293.41,31.9a3.37,3.37,0,0,1,1.31-.28c1.15,0,1.62.47,1.62,1.58v.48c0,.38,0,.66,0,.94s0,.55,0,.84h-.86a4.38,4.38,0,0,1,0-.56h0a1.34,1.34,0,0,1-1.16.65A1.2,1.2,0,0,1,293,34.43a1.1,1.1,0,0,1,.64-1.07,3,3,0,0,1,1.26-.22h.54c0-.61-.27-.81-.85-.81a2,2,0,0,0-1.16.41Zm1.15,2.93a.83.83,0,0,0,.69-.34,1.25,1.25,0,0,0,.2-.77H295c-.44,0-1.09.07-1.09.65C293.94,34.69,294.21,34.83,294.56,34.83Z"/><path class="cls-1" d="M297.62,32.41h-.72V31.7h.72v-.75l1-.31V31.7h.87v.71h-.87v1.75c0,.32.09.62.46.62a.87.87,0,0,0,.45-.1l0,.77a2.56,2.56,0,0,1-.72.09,1.1,1.1,0,0,1-1.19-1.22Z"/><path class="cls-1" d="M300.31,31.9a3.37,3.37,0,0,1,1.31-.28c1.15,0,1.62.47,1.62,1.58v.48c0,.38,0,.66,0,.94s0,.55,0,.84h-.86a4.38,4.38,0,0,1,0-.56h0a1.34,1.34,0,0,1-1.16.65,1.2,1.2,0,0,1-1.31-1.12,1.1,1.1,0,0,1,.64-1.07,3,3,0,0,1,1.26-.22h.54c0-.61-.27-.81-.85-.81a2,2,0,0,0-1.16.41Zm1.15,2.93a.83.83,0,0,0,.69-.34,1.25,1.25,0,0,0,.2-.77h-.42c-.44,0-1.09.07-1.09.65C300.83,34.69,301.1,34.83,301.45,34.83Z"/><path class="cls-1" d="M304.2,30h1v2.2h0a1.31,1.31,0,0,1,1.12-.57c1.15,0,1.58.92,1.58,2s-.42,2-1.58,2a1.37,1.37,0,0,1-1.15-.55h0v.46h-.95Zm1.85,4.8c.64,0,.82-.7.82-1.22s-.17-1.2-.81-1.2-.87.67-.87,1.2S305.39,34.78,306,34.78Z"/><path class="cls-1" d="M308.82,31.9a3.37,3.37,0,0,1,1.31-.28c1.15,0,1.62.47,1.62,1.58v.48c0,.38,0,.66,0,.94s0,.55,0,.84h-.86a4.38,4.38,0,0,1,0-.56h0a1.34,1.34,0,0,1-1.16.65,1.2,1.2,0,0,1-1.31-1.12,1.1,1.1,0,0,1,.64-1.07,3,3,0,0,1,1.26-.22h.54c0-.61-.27-.81-.85-.81a2,2,0,0,0-1.16.41ZM310,34.83a.83.83,0,0,0,.69-.34,1.25,1.25,0,0,0,.2-.77h-.42c-.44,0-1.09.07-1.09.65C309.35,34.69,309.62,34.83,310,34.83Z"/><path class="cls-1" d="M314.94,32.49a2.41,2.41,0,0,0-.87-.16c-.26,0-.58.09-.58.42,0,.6,1.7.22,1.7,1.58,0,.88-.78,1.23-1.58,1.23a4.39,4.39,0,0,1-1.11-.16l.06-.8a2.14,2.14,0,0,0,1,.25c.25,0,.64-.09.64-.46,0-.74-1.7-.23-1.7-1.59,0-.81.71-1.17,1.47-1.17a4.51,4.51,0,0,1,1.06.14Z"/><path class="cls-1" d="M319,35.24a2.58,2.58,0,0,1-1.29.3,1.78,1.78,0,0,1-2-1.95,1.76,1.76,0,0,1,1.74-2c1.39,0,1.79,1,1.79,2.27h-2.6a1,1,0,0,0,1.07.95,2.54,2.54,0,0,0,1.25-.38Zm-.66-2c0-.47-.25-.88-.79-.88a.85.85,0,0,0-.87.88Z"/><path class="cls-1" d="M325.83,35.38a5.15,5.15,0,0,1-1.16.16c-1.65,0-2.79-.82-2.79-2.55a2.52,2.52,0,0,1,2.79-2.72,3.35,3.35,0,0,1,1.15.21l-.07.86a2.1,2.1,0,0,0-1.1-.27,1.7,1.7,0,0,0-1.71,1.84,1.68,1.68,0,0,0,1.73,1.82,2.84,2.84,0,0,0,1.12-.21Z"/><path class="cls-1" d="M329.51,35.24a2.58,2.58,0,0,1-1.29.3,1.78,1.78,0,0,1-2-1.95,1.76,1.76,0,0,1,1.74-2c1.39,0,1.79,1,1.79,2.27h-2.6a1,1,0,0,0,1.07.95,2.54,2.54,0,0,0,1.25-.38Zm-.66-2c0-.47-.25-.88-.79-.88a.85.85,0,0,0-.87.88Z"/><path class="cls-1" d="M330.55,31.7h.93v.51h0a1.4,1.4,0,0,1,1.23-.6c.89,0,1.28.63,1.28,1.47v2.37h-1v-2c0-.46,0-1.08-.63-1.08s-.86.77-.86,1.25v1.84h-1Z"/><path class="cls-1" d="M335.33,32.41h-.72V31.7h.72v-.75l1-.31V31.7h.87v.71h-.87v1.75c0,.32.09.62.46.62a.87.87,0,0,0,.45-.1l0,.77a2.56,2.56,0,0,1-.72.09,1.1,1.1,0,0,1-1.19-1.22Z"/><path class="cls-1" d="M340.86,35.24a2.58,2.58,0,0,1-1.29.3,1.78,1.78,0,0,1-2-1.95,1.76,1.76,0,0,1,1.74-2c1.39,0,1.79,1,1.79,2.27h-2.6a1,1,0,0,0,1.07.95,2.54,2.54,0,0,0,1.25-.38Zm-.66-2c0-.47-.25-.88-.79-.88a.85.85,0,0,0-.87.88Z"/><path class="cls-1" d="M341.92,31.7h.87v.85h0a1.15,1.15,0,0,1,1-.94,1.06,1.06,0,0,1,.3,0v1a1,1,0,0,0-.44-.08c-.79,0-.79,1-.79,1.53v1.38h-1Z"/><path class="cls-1" d="M288.34,40h-.72v-.71h.72v-.53a1.15,1.15,0,0,1,1.2-1.28,3.43,3.43,0,0,1,.71.08l-.08.81a.76.76,0,0,0-.42-.13c-.33,0-.43.28-.43.58v.47h.85V40h-.85v3h-1Z"/><path class="cls-1" d="M292.54,39.19a1.88,1.88,0,0,1,2,2,2,2,0,0,1-3.93,0A1.88,1.88,0,0,1,292.54,39.19Zm0,3.17c.75,0,.95-.67.95-1.3a1,1,0,1,0-1.89,0C291.6,41.68,291.79,42.36,292.54,42.36Z"/><path class="cls-1" d="M295.3,39.28h.87v.85h0a1.15,1.15,0,0,1,1-.94,1.06,1.06,0,0,1,.3,0v1a1,1,0,0,0-.44-.08c-.79,0-.79,1-.79,1.53V43h-1Z"/><path class="cls-1" d="M300.23,37.94h1v4.29h2V43h-3Z"/><path class="cls-1" d="M303.81,37.66h1v.93h-1Zm0,1.62h1V43h-1Z"/><path class="cls-1" d="M306.17,40h-.72v-.71h.72v-.53a1.15,1.15,0,0,1,1.2-1.28,3.43,3.43,0,0,1,.71.08l-.08.81a.76.76,0,0,0-.42-.13c-.33,0-.43.28-.43.58v.47H308V40h-.85v3h-1Z"/><path class="cls-1" d="M311.67,42.82a2.58,2.58,0,0,1-1.29.3,1.78,1.78,0,0,1-2-1.95,1.76,1.76,0,0,1,1.74-2c1.39,0,1.79,1,1.79,2.27h-2.6a1,1,0,0,0,1.07.95,2.54,2.54,0,0,0,1.25-.38Zm-.66-2c0-.47-.25-.88-.79-.88a.85.85,0,0,0-.87.88Z"/><path class="cls-1" d="M317.56,38.87a2.64,2.64,0,0,0-1-.22.71.71,0,0,0-.8.71c0,.88,2.23.51,2.23,2.22,0,1.12-.88,1.54-1.91,1.54a4.49,4.49,0,0,1-1.31-.2l.09-.92a2.46,2.46,0,0,0,1.15.31c.39,0,.9-.2.9-.66,0-1-2.23-.57-2.23-2.25,0-1.14.88-1.55,1.78-1.55a3.84,3.84,0,0,1,1.22.18Z"/><path class="cls-1" d="M321.23,40.09a1.47,1.47,0,0,0-.66-.14c-.61,0-1,.48-1,1.19s.33,1.23,1,1.23a2.09,2.09,0,0,0,.75-.17l0,.81a3.21,3.21,0,0,1-1,.12,2,2,0,0,1,0-3.93,3.19,3.19,0,0,1,.95.12Z"/><path class="cls-1" d="M322.06,37.66h1v.93h-1Zm0,1.62h1V43h-1Z"/><path class="cls-1" d="M327.08,42.82a2.58,2.58,0,0,1-1.29.3,1.78,1.78,0,0,1-2-1.95,1.76,1.76,0,0,1,1.74-2c1.39,0,1.79,1,1.79,2.27h-2.6a1,1,0,0,0,1.07.95,2.54,2.54,0,0,0,1.25-.38Zm-.66-2c0-.47-.25-.88-.79-.88a.85.85,0,0,0-.87.88Z"/><path class="cls-1" d="M328.12,39.28H329v.51h0a1.4,1.4,0,0,1,1.23-.6c.89,0,1.28.63,1.28,1.47V43h-1V41c0-.46,0-1.08-.63-1.08s-.86.77-.86,1.25V43h-1Z"/><path class="cls-1" d="M335,40.09a1.47,1.47,0,0,0-.66-.14c-.61,0-1,.48-1,1.19s.33,1.23,1,1.23a2.09,2.09,0,0,0,.75-.17l0,.81a3.21,3.21,0,0,1-1,.12,2,2,0,0,1,0-3.93,3.19,3.19,0,0,1,.95.12Z"/><path class="cls-1" d="M338.83,42.82a2.58,2.58,0,0,1-1.29.3,1.78,1.78,0,0,1-2-1.95,1.76,1.76,0,0,1,1.74-2c1.39,0,1.79,1,1.79,2.27h-2.6a1,1,0,0,0,1.07.95,2.54,2.54,0,0,0,1.25-.38Zm-.66-2c0-.47-.25-.88-.79-.88a.85.85,0,0,0-.87.88Z"/><rect class="cls-2" x="268" y="8.85" width="1.81" height="7.19"/><rect class="cls-2" x="272.39" y="10.56" width="1.46" height="7.19"/><rect class="cls-2" x="270.32" y="9.7" width="1.65" height="7.19"/><rect class="cls-2" x="265.46" y="7.99" width="1.94" height="7.19"/><rect class="cls-2" x="256.56" y="4.34" width="0.86" height="7.19"/><rect class="cls-2" x="274.19" y="11.41" width="1.23" height="7.19"/><rect class="cls-2" x="254.71" y="2.84" width="0.46" height="7.19"/><rect class="cls-2" x="252.5" width="0.25" height="7.19"/><rect class="cls-2" x="262.92" y="7.13" width="1.86" height="7.19"/><rect class="cls-2" x="258.52" y="5.38" width="1.22" height="7.19"/><rect class="cls-2" x="260.6" y="6.26" width="1.56" height="7.19"/><rect class="cls-2" x="276.79" y="13.13" width="0.63" height="7.19"/><path class="cls-2" d="M277.51,14v7.19c0-.11.23,0,.23,0V14Z"/><rect class="cls-2" x="275.67" y="12.27" width="0.95" height="7.19"/><path class="cls-2" d="M252.5,21.23a1.62,1.62,0,0,0,.27.85,4,4,0,0,0,.79.88,9.15,9.15,0,0,0,1.13.82c.46.29,1,.57,1.52.85s1.2.57,1.84.85,1.4.58,2.12.85,1.6.59,2.37.85c.94.32,1.82.61,2.58.85s1.64.53,2.58.85c.76.26,1.56.54,2.37.85s1.43.55,2.12.85,1.26.56,1.84.85,1.06.56,1.52.85a9.33,9.33,0,0,1,1.17.85,3.87,3.87,0,0,1,.76.85,1.61,1.61,0,0,1,.27.85V27.64a1.61,1.61,0,0,0-.27-.85,3.87,3.87,0,0,0-.76-.85,9.14,9.14,0,0,0-1.17-.85c-.46-.29-1-.57-1.52-.85s-1.2-.58-1.84-.85-1.4-.58-2.12-.85-1.6-.59-2.37-.85c-.94-.32-1.82-.61-2.58-.85s-1.64-.53-2.58-.85c-.76-.26-1.57-.55-2.37-.85s-1.43-.55-2.12-.85-1.26-.56-1.84-.85-1.06-.56-1.52-.85a9.15,9.15,0,0,1-1.13-.82,3.94,3.94,0,0,1-.79-.88,1.61,1.61,0,0,1-.27-.85Z"/><path class="cls-1" d="M277.74,34.83a1.6,1.6,0,0,1-.27.85,3.92,3.92,0,0,1-.79.88,9.57,9.57,0,0,1-1.13.82c-.46.29-1,.57-1.52.85s-1.2.57-1.84.85-1.4.58-2.12.85-1.6.59-2.37.85c-.94.32-1.82.61-2.58.85s-1.64.53-2.58.85c-.76.26-1.56.55-2.37.85s-1.43.55-2.12.85-1.26.56-1.84.85-1.06.56-1.52.85a9.16,9.16,0,0,0-1.17.85,3.92,3.92,0,0,0-.76.85,1.62,1.62,0,0,0-.27.85V41.24a1.62,1.62,0,0,1,.27-.85,3.88,3.88,0,0,1,.76-.85,9.36,9.36,0,0,1,1.17-.85c.46-.29,1-.57,1.52-.85s1.2-.57,1.84-.85,1.4-.58,2.12-.85,1.6-.59,2.37-.85c.94-.32,1.82-.61,2.58-.85s1.64-.53,2.58-.85c.76-.26,1.56-.55,2.37-.85s1.43-.55,2.12-.85,1.26-.56,1.84-.85,1.06-.56,1.52-.85a9.56,9.56,0,0,0,1.13-.82,3.92,3.92,0,0,0,.79-.88,1.61,1.61,0,0,0,.27-.85Z"/><path class="cls-1" d="M277.74,21.23a1.62,1.62,0,0,1-.27.85,4,4,0,0,1-.79.88,9.34,9.34,0,0,1-1.13.82c-.46.29-1,.57-1.52.85s-1.2.57-1.84.85-1.4.58-2.12.85-1.6.59-2.37.85c-.94.32-1.82.61-2.58.85s-1.64.53-2.58.85c-.76.26-1.56.54-2.37.85s-1.43.55-2.12.85-1.26.56-1.84.85-1.06.56-1.52.85a9.34,9.34,0,0,0-1.17.85,3.92,3.92,0,0,0-.76.85,1.62,1.62,0,0,0-.27.85V27.64a1.62,1.62,0,0,1,.27-.85,3.92,3.92,0,0,1,.76-.85,9.16,9.16,0,0,1,1.17-.85c.46-.29,1-.57,1.52-.85s1.2-.58,1.84-.85,1.4-.58,2.12-.85,1.6-.59,2.37-.85c.94-.32,1.82-.61,2.58-.85s1.64-.53,2.58-.85c.76-.26,1.56-.55,2.37-.85s1.43-.55,2.12-.85,1.26-.56,1.84-.85,1.06-.56,1.52-.85a9.34,9.34,0,0,0,1.13-.82,3.92,3.92,0,0,0,.79-.88,1.6,1.6,0,0,0,.27-.85Z"/><rect class="cls-1" x="260.43" y="8.85" width="1.81" height="7.19"/><rect class="cls-1" x="256.39" y="10.56" width="1.46" height="7.19"/><rect class="cls-1" x="258.27" y="9.7" width="1.65" height="7.19"/><rect class="cls-1" x="262.84" y="7.99" width="1.94" height="7.19"/><rect class="cls-1" x="272.82" y="4.34" width="0.86" height="7.19"/><rect class="cls-1" x="254.82" y="11.41" width="1.23" height="7.19"/><rect class="cls-1" x="275.07" y="2.84" width="0.46" height="7.19"/><rect class="cls-1" x="277.48" width="0.25" height="7.19"/><rect class="cls-1" x="265.46" y="7.13" width="1.86" height="7.19"/><rect class="cls-1" x="270.49" y="5.38" width="1.22" height="7.19"/><rect class="cls-1" x="268.08" y="6.26" width="1.56" height="7.19"/><rect class="cls-1" x="252.82" y="13.13" width="0.63" height="7.19"/><path class="cls-1" d="M252.73,14v7.19c0-.11-.23,0-.23,0V14Z"/><rect class="cls-1" x="253.62" y="12.27" width="0.95" height="7.19"/><rect class="cls-2" x="333.57" y="74.43" width="1.81" height="7.19"/><rect class="cls-2" x="337.97" y="76.14" width="1.46" height="7.19"/><rect class="cls-2" x="335.89" y="75.29" width="1.65" height="7.19"/><rect class="cls-2" x="331.03" y="73.58" width="1.94" height="7.19"/><rect class="cls-2" x="322.13" y="69.92" width="0.86" height="7.19"/><rect class="cls-2" x="339.76" y="77" width="1.23" height="7.19"/><rect class="cls-2" x="320.28" y="68.42" width="0.46" height="7.19"/><rect class="cls-2" x="318.07" y="65.58" width="0.25" height="7.19"/><rect class="cls-2" x="328.5" y="72.72" width="1.86" height="7.19"/><rect class="cls-2" x="324.1" y="70.96" width="1.22" height="7.19"/><rect class="cls-2" x="326.17" y="71.85" width="1.56" height="7.19"/><rect class="cls-2" x="342.36" y="78.71" width="0.63" height="7.19"/><path class="cls-2" d="M343.08,79.63v7.19c0-.11.23,0,.23,0V79.63Z"/><rect class="cls-2" x="341.24" y="77.85" width="0.95" height="7.19"/><path class="cls-2" d="M318.07,86.82a1.6,1.6,0,0,0,.27.85,3.94,3.94,0,0,0,.79.88,9.37,9.37,0,0,0,1.13.82c.46.29,1,.57,1.52.85s1.2.57,1.84.85,1.4.58,2.12.85,1.6.59,2.37.85c.94.32,1.82.61,2.58.85s1.64.53,2.58.85c.76.26,1.56.55,2.37.85s1.43.55,2.12.85,1.26.56,1.84.85,1.06.56,1.52.85a9.13,9.13,0,0,1,1.17.85,3.88,3.88,0,0,1,.76.85,1.61,1.61,0,0,1,.27.85V93.22a1.61,1.61,0,0,0-.27-.85,3.83,3.83,0,0,0-.76-.85,9.33,9.33,0,0,0-1.17-.85c-.46-.29-1-.57-1.52-.85s-1.2-.57-1.84-.85-1.4-.58-2.12-.85-1.6-.59-2.37-.85c-.94-.32-1.82-.61-2.58-.85s-1.64-.53-2.58-.85c-.76-.26-1.57-.55-2.37-.85s-1.43-.55-2.12-.85-1.26-.56-1.84-.85-1.06-.56-1.52-.85a9.36,9.36,0,0,1-1.13-.82,3.93,3.93,0,0,1-.79-.88,1.6,1.6,0,0,1-.27-.85Z"/><path class="cls-1" d="M343.31,100.41a1.61,1.61,0,0,1-.27.85,4,4,0,0,1-.79.88,9.44,9.44,0,0,1-1.13.82c-.46.29-1,.57-1.52.85s-1.2.57-1.84.85-1.4.58-2.12.85-1.6.59-2.37.85c-.94.32-1.82.61-2.58.85s-1.64.53-2.58.85c-.76.26-1.56.55-2.37.85s-1.43.55-2.12.85-1.26.56-1.84.85-1.06.56-1.52.85a9.36,9.36,0,0,0-1.17.85,3.88,3.88,0,0,0-.76.85,1.62,1.62,0,0,0-.27.85v-7.19a1.61,1.61,0,0,1,.27-.85,3.93,3.93,0,0,1,.76-.85,9.54,9.54,0,0,1,1.17-.85c.46-.29,1-.57,1.52-.85s1.2-.57,1.84-.85,1.4-.58,2.12-.85,1.6-.59,2.37-.85c.94-.32,1.82-.61,2.58-.85s1.64-.53,2.58-.85c.76-.26,1.56-.55,2.37-.85s1.43-.55,2.12-.85,1.26-.56,1.84-.85,1.06-.56,1.52-.85a9.67,9.67,0,0,0,1.13-.82,3.94,3.94,0,0,0,.79-.88,1.61,1.61,0,0,0,.27-.85Z"/><path class="cls-1" d="M343.31,86.82a1.61,1.61,0,0,1-.27.85,3.94,3.94,0,0,1-.79.88,9.66,9.66,0,0,1-1.13.82c-.46.29-1,.57-1.52.85s-1.2.57-1.84.85-1.4.58-2.12.85-1.6.59-2.37.85c-.94.32-1.82.61-2.58.85s-1.64.53-2.58.85c-.76.26-1.56.55-2.37.85s-1.43.55-2.12.85-1.26.56-1.84.85-1.06.56-1.52.85a9.16,9.16,0,0,0-1.17.85,3.92,3.92,0,0,0-.76.85,1.62,1.62,0,0,0-.27.85V93.22a1.62,1.62,0,0,1,.27-.85,3.88,3.88,0,0,1,.76-.85,9.36,9.36,0,0,1,1.17-.85c.46-.29,1-.57,1.52-.85s1.2-.57,1.84-.85,1.4-.58,2.12-.85,1.6-.59,2.37-.85c.94-.32,1.82-.61,2.58-.85s1.64-.53,2.58-.85c.76-.26,1.56-.55,2.37-.85s1.43-.55,2.12-.85,1.26-.56,1.84-.85,1.06-.56,1.52-.85a9.66,9.66,0,0,0,1.13-.82,3.94,3.94,0,0,0,.79-.88,1.61,1.61,0,0,0,.27-.85Z"/><rect class="cls-1" x="326" y="74.43" width="1.81" height="7.19"/><rect class="cls-1" x="321.96" y="76.14" width="1.46" height="7.19"/><rect class="cls-1" x="323.84" y="75.29" width="1.65" height="7.19"/><rect class="cls-1" x="328.41" y="73.58" width="1.94" height="7.19"/><rect class="cls-1" x="338.39" y="69.92" width="0.86" height="7.19"/><rect class="cls-1" x="320.4" y="77" width="1.23" height="7.19"/><rect class="cls-1" x="340.64" y="68.42" width="0.46" height="7.19"/><rect class="cls-1" x="343.05" y="65.58" width="0.25" height="7.19"/><rect class="cls-1" x="331.03" y="72.72" width="1.86" height="7.19"/><rect class="cls-1" x="336.06" y="70.96" width="1.22" height="7.19"/><rect class="cls-1" x="333.65" y="71.85" width="1.56" height="7.19"/><rect class="cls-1" x="318.39" y="78.71" width="0.63" height="7.19"/><path class="cls-1" d="M318.3,79.63v7.19c0-.11-.23,0-.23,0V79.63Z"/><rect class="cls-1" x="319.19" y="77.85" width="0.95" height="7.19"/><path class="cls-1" d="M304,118.86h3.57c5.15,0,7.19,3,7.19,7.17,0,5.21-3.48,7.21-8.25,7.21H304ZM305.38,132h1.18c4.08,0,6.74-1.65,6.74-6.06s-2.62-5.85-5.83-5.85h-2.08Z"/><path class="cls-1" d="M317.71,118.86h3.42c2.35,0,4.56.78,4.56,3.54a3,3,0,0,1-2.62,3.28v0a3.37,3.37,0,0,1,3.05,3.42c0,3.13-2.56,4.1-5.54,4.1h-2.87ZM319.13,132h1.48c1.92,0,4.08-.51,4.08-2.8,0-2.56-2.21-2.82-4.31-2.82h-1.26Zm0-6.86h1.59c1.5,0,3.5-.39,3.5-2.68,0-2.08-1.92-2.37-3.13-2.37h-2Z"/><path class="cls-1" d="M339.17,120.47a7.47,7.47,0,0,0-3.22-.62c-3.73,0-5.83,2.64-5.83,6.21s2,6.21,5.83,6.21a7.11,7.11,0,0,0,3.22-.62l.08,1.24a7.76,7.76,0,0,1-3.3.62c-4.54,0-7.26-3-7.26-7.44s2.8-7.44,7.26-7.44a9.31,9.31,0,0,1,3.3.54Z"/><path class="cls-1" d="M342.93,118.86h1.42V132h5.77v1.24h-7.19Z"/><path class="cls-1" d="M351.81,131.42a5.67,5.67,0,0,0,3.17.85c1.77,0,3.24-.91,3.24-2.95,0-2.82-6.6-3.17-6.6-6.95,0-2.31,2-3.75,4.56-3.75a8.58,8.58,0,0,1,2.82.47l-.23,1.3a5.86,5.86,0,0,0-2.62-.54c-1.48,0-3.11.62-3.11,2.47,0,2.89,6.6,2.91,6.6,7.11,0,2.91-2.49,4.06-4.72,4.06a8.21,8.21,0,0,1-3.26-.62Z"/><path class="cls-1" d="M41.81,108.41c-.43,3.76-1.82,6.55-8,7.17l-.45-1c3.57-.33,6.51-1.24,7.12-5.13H31.93v-1Zm-.68-2.92v1H32.82v-1Z"/><path class="cls-1" d="M50.25,115.67H49.08v-6a25.53,25.53,0,0,1-4.91,2.46l-.67-.94A20.86,20.86,0,0,0,52.59,105l1.08.72a32.48,32.48,0,0,1-3.41,3Z"/><path class="cls-1" d="M65.84,105.93c-.26,3-1.09,8.24-8,9.53l-.44-1c6.23-1,6.83-5.32,7.11-7.45H56.19v-1Z"/><path class="cls-1" d="M75.37,105h1.14v2.41H78.7v1.05H76.51v1.37A5.63,5.63,0,0,1,74.83,114a8.37,8.37,0,0,1-4.08,1.59l-.45-1c2.56-.33,5.07-1.17,5.07-4.72v-1.38H71.05v3.37H69.91v-3.37H67.76V107.4h2.15V105h1.14v2.35h4.32Z"/><path class="cls-1" d="M86.84,115.67H85.66v-6a25.55,25.55,0,0,1-4.91,2.46l-.67-.94A20.85,20.85,0,0,0,89.17,105l1.08.72a32.38,32.38,0,0,1-3.41,3Z"/><path class="cls-1" d="M102.27,106.11v1.06h-4v6.45H103v1.08H92.55v-1.08h4.58v-6.45H93.25v-1.06Z"/><path class="cls-1" d="M108.62,108.6a13.59,13.59,0,0,0-3.76-1.8l.55-1a16.23,16.23,0,0,1,3.89,1.71Zm-3.7,5.48c3.45-.25,7.27-1.3,9.18-7.44l1.1.49c-1,2.81-2.57,7.39-9.85,8.16Z"/><path class="cls-1" d="M116.38,114.58a13.34,13.34,0,0,0,7.31-7.84H117v-1.05h8.17a14.11,14.11,0,0,1-2.42,5.1,51.73,51.73,0,0,1,4.26,3.78l-.91.91a39.27,39.27,0,0,0-4-3.85,13.75,13.75,0,0,1-5.05,3.87Z"/><path class="cls-1" d="M132.76,106.25a29.26,29.26,0,0,1-2.4,3.61c.51,0,1.06,0,1.57-.1-.18-.45-.22-.54-.33-.77l.77-.33a16.23,16.23,0,0,1,1,2.19l-.88.36c0-.16-.16-.5-.22-.66l-1,.11V116h-.94v-5.27c-1.11.07-1.44.08-2,.1l-.06-.88c.26,0,.33,0,1,0,.38-.49.54-.72.69-.94a13,13,0,0,0-1.79-1.66l.5-.77.45.36a13.07,13.07,0,0,0,1.22-2.21l.89.34a19.43,19.43,0,0,1-1.43,2.48,8.67,8.67,0,0,1,.68.67c.78-1.22,1.13-1.84,1.36-2.28Zm-4.54,8.58a12,12,0,0,0,.61-3.23l.88.13a16.19,16.19,0,0,1-.6,3.41Zm4-.66a9,9,0,0,0-.46-2.42l.77-.22a9,9,0,0,1,.6,2.43Zm-.08,1c2.13-.89,2.39-2.29,2.42-4.59h1c-.07,2.64-.39,4.32-2.78,5.42Zm5.79-8a10.85,10.85,0,0,1,2,2.7l-.89.5a6.92,6.92,0,0,0-.33-.67c-2.41.25-3.68.33-5.41.4l-.1-1,.84,0a11.33,11.33,0,0,0,1-2.36H133v-.94h2.85v-1.16h1v1.16h2.91v.94h-3.65a15.85,15.85,0,0,1-1.08,2.33c1,0,2.08-.1,3.11-.2a9.5,9.5,0,0,0-1.05-1.24Zm-.18,7.51c0,.16.06.26.32.26h.48c.2,0,.28-.1.31-.37s0-1.19,0-1.6l.92.31c0,2.06-.11,2.61-1,2.61h-1.16a.74.74,0,0,1-.84-.82v-4.49h1Z"/><path class="cls-1" d="M149.95,109h-6.22v-.89a14.38,14.38,0,0,1-2.14,1.14l-.59-1a10.84,10.84,0,0,0,5.29-3.73h1a12.32,12.32,0,0,0,5.34,3.73l-.58,1a12.89,12.89,0,0,1-2.12-1.14Zm1.25,1.38V116h-1v-.56h-6.68V116h-1v-5.58Zm-1,.94h-6.68v3.16h6.68Zm-.27-3.25a14.52,14.52,0,0,1-3.1-2.72,11.46,11.46,0,0,1-3,2.72Z"/><path class="cls-1" d="M164.39,108.67v1h-4.11c0,3.81-1.74,5.29-5,5.95l-.45-1c2.81-.54,4.34-1.48,4.27-5h-4.93v-1Zm-2-3.17v1h-7.12v-1Zm.69,1a7.89,7.89,0,0,0-.55-1.79l.77-.2a7.45,7.45,0,0,1,.59,1.79Zm1.41-.16a11.11,11.11,0,0,0-.62-1.81l.72-.22a9,9,0,0,1,.65,1.79Z"/><path class="cls-1" d="M177.28,109.7v1.18H166.42V109.7Z"/><path class="cls-1" d="M183,109.16a14.78,14.78,0,0,1,3.13,2,8.38,8.38,0,0,0,1.68-3.62h-4.71a10.23,10.23,0,0,1-3.32,3.14l-.71-.83a9,9,0,0,0,4.14-4.86l1.17.22a12.66,12.66,0,0,1-.64,1.32h5.43c-.4,2.19-1.53,7.46-8.66,9.2l-.62-1a10.53,10.53,0,0,0,5.48-2.77,14.37,14.37,0,0,0-3.11-2Z"/><path class="cls-1" d="M190.81,111c.49-.53,2.5-3,2.94-3.48a2.15,2.15,0,0,1,1.52-.82c.38,0,.81,0,1.81,1.05l5.38,5.36-.91,1L196,108.31a1.28,1.28,0,0,0-.78-.44c-.4,0-.81.55-1.29,1.17-.31.4-1.63,2.24-1.92,2.59l-.32.35Zm8.95-3.06a14,14,0,0,0-1.24-1.74l.72-.46a13,13,0,0,1,1.26,1.66Zm1.52-.84a13.46,13.46,0,0,0-1.25-1.66l.7-.48a11.37,11.37,0,0,1,1.27,1.6Z"/><path class="cls-1" d="M214.77,109.7v1.18H203.91V109.7Z"/><path class="cls-1" d="M216.39,114.58a13.34,13.34,0,0,0,7.31-7.84H217v-1.05h8.17a14.11,14.11,0,0,1-2.42,5.1,51.73,51.73,0,0,1,4.26,3.78l-.91.91a39.27,39.27,0,0,0-4-3.85,13.75,13.75,0,0,1-5.05,3.87Z"/><path class="cls-1" d="M239.1,107.27a6,6,0,0,1-3.71,5.17l-.69-.89a4.53,4.53,0,0,0,3-3.17l-5.16.42v4.12c0,1.15.17,1.41,1.64,1.41h2.47a14.07,14.07,0,0,0,2.26-.22v1.13a17.17,17.17,0,0,1-2.19.13H234c-2,0-2.67-.57-2.67-2.4v-4.08l-2.67.21-.07-1.05,2.74-.21v-2.77h1.15v2.68Z"/><path class="cls-1" d="M244.75,108.6a13.59,13.59,0,0,0-3.76-1.8l.55-1a16.25,16.25,0,0,1,3.89,1.71Zm-3.7,5.48c3.45-.25,7.27-1.3,9.18-7.44l1.1.49c-1,2.81-2.57,7.39-9.85,8.16Z"/><path class="cls-1" d="M256.59,109.16a14.75,14.75,0,0,1,3.13,2,8.38,8.38,0,0,0,1.68-3.62h-4.71a10.23,10.23,0,0,1-3.32,3.14l-.71-.83a9,9,0,0,0,4.14-4.86l1.17.22a12.66,12.66,0,0,1-.64,1.32h5.43c-.4,2.19-1.53,7.46-8.66,9.2l-.62-1A10.53,10.53,0,0,0,259,112a14.37,14.37,0,0,0-3.11-2Z"/><path class="cls-1" d="M275.67,109.7v1.18H264.8V109.7Z"/><path class="cls-1" d="M34.58,95.52h.57v1.57h2.74v.53H35.24A4.16,4.16,0,0,0,38,100.91l-.36.54a4.53,4.53,0,0,1-2.69-3.08,4.76,4.76,0,0,1-2.74,3.07l-.31-.55a4,4,0,0,0,2.67-3.26H31.94v-.53h2.64Z"/><path class="cls-1" d="M43.51,98a7.28,7.28,0,0,1-1.63,1v.14h2.67v.49H41.88V101a.47.47,0,0,1-.53.5H40.19l-.1-.55h1c.2,0,.21-.05.21-.2v-1H38.61v-.49h2.74v-.53h.28a3.73,3.73,0,0,0,1-.61h-3V97.6h3.87Zm-.62-1.49a9.49,9.49,0,0,0,.48-1.06l.56.19a6.54,6.54,0,0,1-.46.87h.93V98h-.53V97H39.29V98h-.53V96.55h.93a3.85,3.85,0,0,0-.44-.85l.47-.19a3.51,3.51,0,0,1,.5.91l-.32.12Zm-1.41,0a5.56,5.56,0,0,0-.49-.91l.49-.2a5.06,5.06,0,0,1,.49.94Z"/><path class="cls-1" d="M51,97.19H49.69v1.69h1.55v.52h-6v-.52h1.57V97.19H45.5v-.52h1.35V95.52h.53v1.14h1.78V95.52h.53v1.14H51ZM47.56,100a5.39,5.39,0,0,1-1.77,1.54l-.41-.45a4.37,4.37,0,0,0,1.71-1.35Zm1.6-2.78H47.38v1.69h1.78Zm1.59,4.32A6.82,6.82,0,0,1,49,100l.44-.3a6,6,0,0,0,1.7,1.36Z"/><path class="cls-1" d="M57.67,100.9c0,.38-.15.57-.65.57H56.1l-.09-.55h.89c.13,0,.22,0,.22-.21V96.24H52.77v5.22h-.55V95.74h5.45Zm-.85-4v.47H53.05v-.47Zm-.42,1.07v2.34H53.45V97.93Zm-.5.47H54v1.42H55.9Z"/><path class="cls-1" d="M60.59,97.23h1.15v.5H60.61a5.26,5.26,0,0,0,1.05,1.39l-.28.47a4.63,4.63,0,0,1-.78-1.15v3H60V98.54a5.58,5.58,0,0,1-1.21,1.77l-.25-.58a6.24,6.24,0,0,0,1.41-2H58.65v-.5H60V96.3c-.44.05-.88.08-1.22.1l-.11-.49a11.81,11.81,0,0,0,2.81-.42l.23.46a8,8,0,0,1-1.16.26Zm2.13,2.92h-.55V96h.55Zm1.7.76a.53.53,0,0,1-.59.56h-1l-.12-.57.92,0c.19,0,.23,0,.23-.19V95.52h.57Z"/><path class="cls-1" d="M70.92,100.93c0,.47-.29.54-.51.54h-.87l-.06-.53h.75c.11,0,.15-.08.15-.17v-1.3H68.65v1.93h-.51V99.48H66.48a3.55,3.55,0,0,1-.83,2l-.37-.47a2.52,2.52,0,0,0,.51-.91A5.44,5.44,0,0,0,66,98.75v-3h4.91Zm-2.78-3.06h-1.6v.8a3.28,3.28,0,0,1,0,.33h1.61Zm0-1.58h-1.6v1.09h1.6Zm2.24,0H68.65v1.09h1.73Zm0,1.58H68.65V99h1.73Z"/><path class="cls-1" d="M76.24,96.05l.13.11a6.23,6.23,0,0,0,.42-.67l.39.15a7.3,7.3,0,0,1-.54.78c.07.07.19.19.26.28.37-.48.4-.52.48-.65l.35.19a14.72,14.72,0,0,1-1.07,1.34l.75-.05c0-.14-.08-.22-.12-.33l.37-.14A6.46,6.46,0,0,1,78,98l-.4.17a2.87,2.87,0,0,0-.08-.32l-.72.08a5.71,5.71,0,0,1,.58.37l-.23.28H78V99H76.22a4,4,0,0,0,.29,1,3.13,3.13,0,0,0,.62-.79l.44.21a4.08,4.08,0,0,1-.82,1c.22.35.41.51.5.51s.22-.17.37-.8l.41.32c-.17.66-.35,1-.76,1s-.83-.53-.93-.69a5,5,0,0,1-1.37.65l-.22-.44a3.81,3.81,0,0,0,1.35-.64,6.35,6.35,0,0,1-.4-1.32H74.48c0,.15,0,.17,0,.41a4.34,4.34,0,0,1,1.07.65l-.28.41a3.76,3.76,0,0,0-.82-.6,2.76,2.76,0,0,1-.58,1.57l-.38-.37A3.08,3.08,0,0,0,74,99h-.26v-.38l-.24.36a3.72,3.72,0,0,1-.3-.66v3.12H72.7V98.56a5.59,5.59,0,0,1-.52,1.46l-.27-.63a5.85,5.85,0,0,0,.75-2.15H72v-.49h.69V95.5h.48v1.25h.51v.49h-.51v.29a4.13,4.13,0,0,0,.59,1.05h1.86a19.87,19.87,0,0,1-.23-3.08h.51a19.82,19.82,0,0,0,.1,2.1h.13c.16-.17.39-.46.49-.57a5.21,5.21,0,0,0-.67-.67Zm-1.17,1.13a4.58,4.58,0,0,1,.33,1L75,98.3c0-.13,0-.19-.06-.28l-1.37.12-.06-.4h.18c.08-.09.23-.26.54-.64a7.76,7.76,0,0,0-.73-.7l.28-.3.15.12a4.3,4.3,0,0,0,.5-.7l.39.15a5.31,5.31,0,0,1-.61.81,3.74,3.74,0,0,1,.28.3,6.57,6.57,0,0,0,.49-.67l.34.22c-.32.45-.87,1.14-1.13,1.42l.64,0a2.3,2.3,0,0,0-.13-.35Zm1.67.76-.67.05c0,.16.06.42.08.59h.92c-.08-.05-.34-.22-.56-.34Z"/><path class="cls-1" d="M81.33,95.72V97.8h-1.9v3.67h-.51V95.72Zm-.5.4H79.43v.45h1.39Zm0,.81H79.43v.48h1.39ZM83,101.16A2.76,2.76,0,0,1,81.64,100a2.48,2.48,0,0,1-1.54,1.27l-.26-.44a2,2,0,0,0,1.36-.93H79.84v-.41h1.5a2,2,0,0,0,.05-.5H80v-.41h.72c-.1-.24-.15-.35-.24-.53L81,98a5.06,5.06,0,0,1,.22.61h.9a4,4,0,0,0,.19-.6l.5.06a3.53,3.53,0,0,1-.21.53h.75V99H81.88a3.43,3.43,0,0,1-.06.5h1.64v.41H82a2.28,2.28,0,0,0,1.15.83Zm1.43-5.44V101a.43.43,0,0,1-.45.48h-.69l-.13-.51h.59c.13,0,.17,0,.17-.21v-3H82V95.72Zm-.51.4h-1.4v.45h1.4Zm0,.81h-1.4v.48h1.4Z"/><path class="cls-1" d="M85.28,101a8.87,8.87,0,0,0,1.23-2.11l.43.33a11.16,11.16,0,0,1-1.3,2.28Zm1.07-2.58a3.61,3.61,0,0,0-1.05-.68l.26-.45a3.91,3.91,0,0,1,1.12.66Zm.3-1.7A4.15,4.15,0,0,0,85.55,96l.29-.44a4.87,4.87,0,0,1,1.14.67ZM90,99.24a9,9,0,0,1,1.3,2l-.5.26a5.12,5.12,0,0,0-.26-.55,24.18,24.18,0,0,1-3.56.29l-.08-.51h.48a11.12,11.12,0,0,0,.92-2.09H87v-.49h1.87V97H87.26v-.5h1.61v-1h.54v1h1.68V97H89.4v1.21h1.91v.49H88.92a17.73,17.73,0,0,1-.94,2.07c.62,0,1.63-.07,2.34-.17a8.34,8.34,0,0,0-.75-1.06Z"/><path class="cls-1" d="M95.31,95.52v.78a6.09,6.09,0,0,0,.63,2.64,4.72,4.72,0,0,0,2.15,2l-.38.51A5.12,5.12,0,0,1,95,97.86a4.89,4.89,0,0,1-2.73,3.58l-.37-.5a4.46,4.46,0,0,0,2.29-2.22,7.42,7.42,0,0,0,.51-2.43v-.77Z"/><path class="cls-1" d="M101.65,96.83a6.22,6.22,0,0,1-.23,1.8l-.42-.22a4.68,4.68,0,0,0,.23-1.6Zm.78-1.32v6h-.53v-6Zm.33,2a4.88,4.88,0,0,0-.29-.8l.39-.15a5.42,5.42,0,0,1,.31.78Zm2.55-.78h1.5v.39h-1.5v.43h1.75V98h-4v-.41h1.77v-.43h-1.46v-.39h1.46v-.43h-1.63v-.42h1.63v-.4h.52v.4h1.63v.42h-1.63Zm1.46,4.13c0,.44-.09.59-.61.59h-.68l-.1-.49h.72c.17,0,.17-.12.17-.2v-.46h-2.4v1.15h-.51V98.34h3.42Zm-.51-2.15h-2.4v.4h2.4Zm0,.79h-2.4v.4h2.4Z"/><path class="cls-1" d="M109.57,95.51v.55h1.1v.48h-1.1v.68h1.26v.47h-.4c-.06.3-.17.71-.22.9h.57v.48h-1.21v.75h1.1v.48h-1.1v1.18h-.51v-1.18H108v-.48h1.11v-.75h-1.21v-.48h.6a6.25,6.25,0,0,0-.24-.9h-.42v-.47h1.27v-.68H108v-.48h1.11v-.55Zm.15,3.08a4.51,4.51,0,0,0,.19-.9h-1.19a7.31,7.31,0,0,1,.22.9Zm3.77,2.88a4.54,4.54,0,0,1-.82-.79,4,4,0,0,1-.73.77l-.32-.43a3.36,3.36,0,0,0,.73-.76,4.94,4.94,0,0,1-.69-1.43l.45-.14a6.31,6.31,0,0,0,.51,1.1,5,5,0,0,0,.41-1.31h-1.53v3H111V95.72h2.48a5.78,5.78,0,0,1-.17,1.66c0,.1-.13.29-.53.29h-.71l-.09-.5h.62c.28,0,.36-.1.39-1h-1.48V98h2.08a5.75,5.75,0,0,1-.63,2.22,6,6,0,0,0,.84.76Z"/><path class="cls-1" d="M115.73,98.49a.55.55,0,1,1-.55-.55A.54.54,0,0,1,115.73,98.49Z"/><path class="cls-1" d="M118.62,98.62a7.59,7.59,0,0,0-1.82-.76l.26-.51a7.49,7.49,0,0,1,1.83.73Zm-1.49,1.82c2.66-.18,3.75-1.31,4.48-3.59l.55.24c-.81,2.27-1.81,3.64-4.89,4Zm2-3.31a8.41,8.41,0,0,0-1.87-.76l.26-.49a7.58,7.58,0,0,1,1.87.72Z"/><path class="cls-1" d="M122.82,100.72a7,7,0,0,0,3.83-4.12h-3.5v-.55h4.29a7.41,7.41,0,0,1-1.27,2.68,27.4,27.4,0,0,1,2.24,2l-.48.48a20.51,20.51,0,0,0-2.11-2,7.23,7.23,0,0,1-2.65,2Z"/><path class="cls-1" d="M134.62,97.64v.56h-2.18a2.79,2.79,0,0,1-2.6,3.09l-.26-.5a2.29,2.29,0,0,0,2.24-2.59h-2.56v-.56ZM134.09,96v.55h-4.3V96Z"/><path class="cls-1" d="M139.42,98.07a13,13,0,0,1,1.66,2.93l-.62.26a5.63,5.63,0,0,0-.23-.62c-.85.12-2.45.28-4.68.38l-.06-.62h.6a36.19,36.19,0,0,0,1.43-4.61l.7.09a39.86,39.86,0,0,1-1.5,4.5c2-.08,3.07-.19,3.29-.21a11.42,11.42,0,0,0-1.1-1.85Z"/><path class="cls-1" d="M143.93,97.59v3.24h-1.17v.51h-.48V98.79a2.16,2.16,0,0,1-.35.43l-.23-.58a3.63,3.63,0,0,0,.84-2.39h-.75v-.5H144v.5h-1a6.3,6.3,0,0,1-.24,1.34Zm-.46.46h-.71v2.3h.71Zm3.51-.17h.75v.51H147v3.07h-.53V98.39h-1v.37a3.71,3.71,0,0,1-.87,2.7l-.46-.37a2.45,2.45,0,0,0,.6-1,4.89,4.89,0,0,0,.22-1.4v-.35h-.69v-.51h.69V96.25h-.58v-.5h3.32v.5H147Zm-.53-1.63h-1v1.63h1Z"/><path class="cls-1" d="M148.44,101c1.84-.47,2.11-1.39,2.22-1.84h-1.87v-.5h2a5.68,5.68,0,0,0,.06-.71h.53a6.7,6.7,0,0,1-.06.71h1.8v2.07c0,.13,0,.17.16.17h.43c.21,0,.23-.18.24-.92l.5.12c0,1-.08,1.3-.53,1.3H153c-.47,0-.47-.35-.47-.53V99.15h-1.38c-.11.48-.4,1.71-2.49,2.36Zm3.85-3c-.33,0-.5-.08-.5-.44v-1h-.91c-.12.53-.41,1.3-2,1.74l-.19-.5c1.25-.24,1.54-.86,1.66-1.25h-1.21v.79h-.53V96.06h2.53v-.55h.53v.55h2.54v1.16H154c0,.57-.15.8-.52.8Zm1.44-.88v-.6h-1.47v.85c0,.09,0,.16.17.16h.85c.21,0,.22-.14.24-.47Z"/><path class="cls-1" d="M159.38,96.05l.13.11a6.23,6.23,0,0,0,.42-.67l.39.15a7.3,7.3,0,0,1-.54.78l.26.28c.37-.48.4-.52.48-.65l.35.19a14.72,14.72,0,0,1-1.07,1.34l.75-.05c0-.14-.08-.22-.12-.33l.37-.14a6.46,6.46,0,0,1,.34,1l-.4.17a2.87,2.87,0,0,0-.08-.32l-.72.08a5.71,5.71,0,0,1,.58.37l-.23.28h.81V99h-1.74a4,4,0,0,0,.29,1,3.13,3.13,0,0,0,.62-.79l.44.21a4.08,4.08,0,0,1-.82,1c.22.35.41.51.5.51s.22-.17.37-.8l.41.32c-.17.66-.35,1-.76,1s-.83-.53-.93-.69a5,5,0,0,1-1.37.65l-.22-.44a3.81,3.81,0,0,0,1.35-.64,6.35,6.35,0,0,1-.4-1.32h-1.23c0,.15,0,.17,0,.41a4.34,4.34,0,0,1,1.07.65l-.28.41a3.8,3.8,0,0,0-.82-.6,2.77,2.77,0,0,1-.58,1.57l-.38-.37a3.08,3.08,0,0,0,.51-2.07h-.26v-.38l-.24.36a3.72,3.72,0,0,1-.3-.66v3.12h-.48V98.56a5.59,5.59,0,0,1-.52,1.46l-.27-.63a5.85,5.85,0,0,0,.75-2.15h-.66v-.49h.69V95.5h.48v1.25h.51v.49h-.51v.29a4.13,4.13,0,0,0,.59,1.05h1.86a19.87,19.87,0,0,1-.23-3.08h.51a19.82,19.82,0,0,0,.1,2.1h.13c.16-.17.39-.46.49-.57a5.21,5.21,0,0,0-.67-.67Zm-1.17,1.13a4.58,4.58,0,0,1,.33,1l-.39.14c0-.13,0-.19-.06-.28l-1.37.12-.06-.4h.18c.08-.09.23-.26.54-.64a7.76,7.76,0,0,0-.73-.7l.28-.3.15.12a4.3,4.3,0,0,0,.5-.7l.39.15a5.31,5.31,0,0,1-.61.81,3.74,3.74,0,0,1,.28.3,6.57,6.57,0,0,0,.49-.67l.34.22c-.32.45-.87,1.14-1.13,1.42l.64,0a2.3,2.3,0,0,0-.13-.35Zm1.67.76-.67.05c0,.16.06.42.08.59h.92c-.08-.05-.34-.22-.56-.34Z"/><path class="cls-1" d="M163.64,99.2a6.22,6.22,0,0,1-.48-.84v3.1h-.51v-3a5.49,5.49,0,0,1-.72,1.56l-.23-.68a4.88,4.88,0,0,0,.92-2.12h-.8v-.48h.83V95.51h.51v1.26h.66v.48h-.66v.24a4.26,4.26,0,0,0,.78,1.25Zm1.88-1.27h-1.77v-.39h1v-.47h-.66v-.37h.66V96.3h-.85v-.4h.85v-.39h.46v.39h1.1v-.39h.47v.39h.83v.4h-.83v.41h.62v.37h-.62v.47h1v.39H166v.39h1.41V100h.39v.4h-.39v.6c0,.29-.09.46-.49.46h-.77l-.06-.49h.65c.17,0,.2,0,.2-.17v-.4h-2.3v1.06h-.46V100.4h-.48V100h.48V98.33h1.38Zm0,.77h-.92v.46h.92Zm0,.82h-.92V100h.92Zm.79-3.23h-1.1v.41h1.1Zm0,.78h-1.1v.47h1.1ZM166,99.16h.94V98.7H166Zm0,.84h.94v-.48H166Z"/><path class="cls-1" d="M176.4,97.62v.54h-2.16a2.79,2.79,0,0,1-2.61,3.12l-.24-.51c1.48-.28,2.28-.78,2.24-2.61H171v-.54Zm-1-1.66v.52h-3.74V96Zm.36.53a4.16,4.16,0,0,0-.29-.94l.4-.1a3.92,3.92,0,0,1,.31.94Zm.74-.08a5.76,5.76,0,0,0-.33-1l.38-.12a4.73,4.73,0,0,1,.34.94Z"/><path class="cls-1" d="M183.17,98.16v.62h-5.71v-.62Z"/><path class="cls-1" d="M186.16,97.88a7.8,7.8,0,0,1,1.64,1,4.4,4.4,0,0,0,.88-1.9h-2.47a5.37,5.37,0,0,1-1.74,1.65l-.37-.44a4.7,4.7,0,0,0,2.17-2.55l.62.12a6.76,6.76,0,0,1-.33.69h2.85a5.6,5.6,0,0,1-4.55,4.83l-.33-.51a5.53,5.53,0,0,0,2.88-1.45,7.57,7.57,0,0,0-1.63-1.07Z"/><path class="cls-1" d="M194.45,95.69h.6V97h1.15v.55h-1.15v.72a3,3,0,0,1-.88,2.2,4.39,4.39,0,0,1-2.14.83l-.24-.55c1.34-.17,2.66-.62,2.66-2.48V97.5h-2.27v1.77h-.6V97.5h-1.13V97h1.13V95.72h.6V97h2.27Z"/><path class="cls-1" d="M200.47,101.29h-.62V98.12a13.48,13.48,0,0,1-2.58,1.29l-.35-.5a10.94,10.94,0,0,0,4.77-3.21l.57.38a17,17,0,0,1-1.79,1.6Z"/><path class="cls-1" d="M208.57,96.28v.56H206.5v3.39h2.43v.57h-5.46v-.57h2.4V96.83h-2v-.56Z"/><path class="cls-1" d="M211.9,97.58a7.12,7.12,0,0,0-2-.94l.29-.51a8.5,8.5,0,0,1,2,.9ZM210,100.46c1.81-.13,3.82-.68,4.82-3.91l.58.26a5.49,5.49,0,0,1-5.17,4.28Z"/><path class="cls-1" d="M216,100.72a7,7,0,0,0,3.83-4.12h-3.5v-.55h4.29a7.41,7.41,0,0,1-1.27,2.68,27.4,27.4,0,0,1,2.24,2l-.48.48a20.51,20.51,0,0,0-2.11-2,7.23,7.23,0,0,1-2.65,2Z"/><path class="cls-1" d="M228,97.19H226.7v1.69h1.55v.52h-6v-.52h1.57V97.19h-1.35v-.52h1.35V95.52h.53v1.14h1.78V95.52h.53v1.14H228ZM224.57,100a5.39,5.39,0,0,1-1.77,1.54l-.41-.45a4.37,4.37,0,0,0,1.71-1.35Zm1.6-2.78h-1.78v1.69h1.78Zm1.59,4.32A6.82,6.82,0,0,1,226,100l.44-.3a6,6,0,0,0,1.7,1.36Z"/><path class="cls-1" d="M234.68,100.9c0,.38-.15.57-.65.57h-.92l-.09-.55h.89c.13,0,.22,0,.22-.21V96.24h-4.36v5.22h-.55V95.74h5.45Zm-.85-4v.47h-3.76v-.47Zm-.42,1.07v2.34h-2.95V97.93Zm-.5.47H231v1.42h1.94Z"/><path class="cls-1" d="M237.61,97.23h1.15v.5h-1.14a5.26,5.26,0,0,0,1.05,1.39l-.28.47a4.63,4.63,0,0,1-.78-1.15v3h-.55V98.54a5.58,5.58,0,0,1-1.21,1.77l-.25-.58a6.24,6.24,0,0,0,1.41-2h-1.34v-.5h1.4V96.3c-.44.05-.88.08-1.22.1l-.11-.49a11.81,11.81,0,0,0,2.81-.42l.23.46a8,8,0,0,1-1.16.26Zm2.13,2.92h-.55V96h.55Zm1.7.76a.53.53,0,0,1-.59.56h-1l-.12-.57.92,0c.19,0,.23,0,.23-.19V95.52h.57Z"/><path class="cls-1" d="M247.93,100.93c0,.47-.29.54-.51.54h-.87l-.06-.53h.75c.11,0,.15-.08.15-.17v-1.3h-1.73v1.93h-.51V99.48h-1.66a3.55,3.55,0,0,1-.83,2l-.37-.47a2.52,2.52,0,0,0,.51-.91,5.44,5.44,0,0,0,.21-1.33v-3h4.91Zm-2.78-3.06h-1.6v.8a3.28,3.28,0,0,1,0,.33h1.61Zm0-1.58h-1.6v1.09h1.6Zm2.24,0h-1.73v1.09h1.73Zm0,1.58h-1.73V99h1.73Z"/><path class="cls-1" d="M254.83,96.4h-.93v2H255v.44h-1.27a3.4,3.4,0,0,0,1.32,1l-.28.45a4.53,4.53,0,0,1-1.63-1.48h-2.2a4.08,4.08,0,0,1-1.67,1.48l-.26-.44a3.23,3.23,0,0,0,1.35-1H249v-.44h1.08v-2h-.93V96h.93v-.44h.52V96h2.75v-.44h.53V96h.93Zm-3.1,4.38V100h-1.41v-.45h1.41v-.53h.52v.53h1.43V100h-1.43v.75h2.47v.46h-5.46v-.46Zm1.64-4.38h-2.75v.41h2.75Zm0,.78h-2.75v.39h2.75Zm0,.77h-2.75v.45h2.75Z"/><path class="cls-1" d="M257.29,98.54h-.38v-.87l-.41,0a2.7,2.7,0,0,1-.53,1.68L255.6,99a2.2,2.2,0,0,0,.44-1.27l-.35,0v-.43h.38V95.94h.76s.08-.29.12-.44h.53a3.54,3.54,0,0,1-.15.42h.9v1.19l.25,0v.4l-.25,0v1.2c0,.3-.13.44-.48.44h-.55l-.12-.48h.52c.11,0,.17,0,.17-.17v-1l-.49,0Zm4.35,2.76H255.7v-.46h.53V99.47h4.86v1.36h.55Zm-5.11-4,1.26-.1v-.84h-1.26Zm1.16,2.62h-1v.93h1Zm-.52-2.74a4.68,4.68,0,0,0-.41-.53l.33-.24a5.8,5.8,0,0,1,.42.52Zm2,2.74h-1v.93h1Zm2.34-.63a6,6,0,0,1-1.49-.53,6,6,0,0,1-1.39.53l-.23-.47a4.34,4.34,0,0,0,1.17-.34,3.48,3.48,0,0,1-.65-.6l.39-.24a2.94,2.94,0,0,0,.71.61,3.09,3.09,0,0,0,.73-.63h-2v-.4h2.65v.4a3.53,3.53,0,0,1-.88.87,5,5,0,0,0,1.27.31Zm-.64-2.92c0,.1,0,.15.12.15h.12c.07,0,.15,0,.17-.48l.42.11c0,.46-.13.76-.47.76h-.51c-.26,0-.33-.15-.33-.32v-.51h-.87a1.14,1.14,0,0,1-.73,1l-.26-.35c.44-.24.51-.46.53-1h1.82Zm-.24,3.55h-1v.93h1Z"/><path class="cls-1" d="M266.11,95.57a3.08,3.08,0,0,1-.24.61h2.43v.48h-2.73a4.24,4.24,0,0,1-.76.83l-.33-.4a2.89,2.89,0,0,0,.26-.22h-1.29v.85h1.14a15.71,15.71,0,0,1-.22,3.46c-.06.14-.17.28-.62.28h-.49l-.1-.51h.51c.12,0,.22,0,.28-.17a20.71,20.71,0,0,0,.14-2.56h-.64v.12a5.34,5.34,0,0,1-.79,3.1l-.37-.42a4.46,4.46,0,0,0,.67-2.69V96.87h-.58v-.49h.92v-.84h.52v.84h.92v.48a3.62,3.62,0,0,0,.84-1.36Zm.28,2.31v-1h.48v.83l1.21-.31a11,11,0,0,1-.08,2.11c-.05.17-.15.32-.54.32h-.39l-.07-.49h.36c.11,0,.19,0,.21-.23s0-.79,0-1.08l-.73.18v2.08h-.48v-2l-.66.17v2c0,.28.1.31.32.31h1.36c.3,0,.4,0,.4-.79l.51.15c-.05.9-.13,1.13-.69,1.13h-1.78c-.33,0-.62-.08-.62-.51V98.66l-.39.1-.08-.46.47-.12v-.91h.49V98Z"/><path class="cls-1" d="M271.46,96.61v.46H269v-.46Zm-.22-.91v.46h-2V95.7Zm0,1.81V98h-2v-.46Zm0,.91v.46h-2v-.46Zm0,.92v1.83h-1.52v.29h-.47V99.35Zm-.47.43h-1.05v1h1.05Zm4.1,1.69a5.45,5.45,0,0,1-1.67-.82,4.6,4.6,0,0,1-1.68.82l-.27-.5a4.1,4.1,0,0,0,1.54-.65,3.46,3.46,0,0,1-.88-1.24l.44-.19a3,3,0,0,0,.82,1.12,3.89,3.89,0,0,0,.91-1.27h-2.45v-.51h3v.5a4.16,4.16,0,0,1-1,1.57,5.6,5.6,0,0,0,1.52.65Zm-.8-5.77v1.42a.15.15,0,0,0,.15.17h.15c.09,0,.13,0,.15-.14a6.28,6.28,0,0,0,.08-.7l.48.12c0,1.19-.34,1.23-.57,1.23H274a.38.38,0,0,1-.43-.41V96.2h-1a2,2,0,0,1-.75,1.77l-.38-.39A1.72,1.72,0,0,0,272,96c0-.12,0-.19,0-.29Z"/><rect class="cls-2" x="15.49" y="93.92" width="1.81" height="7.19"/><rect class="cls-2" x="19.89" y="95.63" width="1.46" height="7.19"/><rect class="cls-2" x="17.82" y="94.77" width="1.65" height="7.19"/><rect class="cls-2" x="12.96" y="93.06" width="1.94" height="7.19"/><rect class="cls-2" x="4.06" y="89.41" width="0.86" height="7.19"/><rect class="cls-2" x="21.69" y="96.49" width="1.23" height="7.19"/><rect class="cls-2" x="2.2" y="87.91" width="0.46" height="7.19"/><rect class="cls-2" y="85.07" width="0.25" height="7.19"/><rect class="cls-2" x="10.42" y="92.21" width="1.86" height="7.19"/><rect class="cls-2" x="6.02" y="90.45" width="1.23" height="7.19"/><rect class="cls-2" x="8.1" y="91.33" width="1.56" height="7.19"/><rect class="cls-2" x="24.29" y="98.2" width="0.63" height="7.19"/><path class="cls-2" d="M25,99.11v7.19c0-.11.23,0,.23,0V99.11Z"/><rect class="cls-2" x="23.17" y="97.34" width="0.95" height="7.19"/><path class="cls-2" d="M0,106.3a1.62,1.62,0,0,0,.27.85,4,4,0,0,0,.79.88,9.39,9.39,0,0,0,1.13.82c.46.29,1,.57,1.52.85s1.2.57,1.84.85,1.4.58,2.12.85,1.6.59,2.37.85c.94.32,1.82.61,2.58.85s1.64.53,2.58.85c.76.26,1.56.54,2.37.85s1.43.55,2.12.85,1.26.56,1.84.85,1.06.56,1.52.85a9.24,9.24,0,0,1,1.17.85,3.94,3.94,0,0,1,.76.85,1.62,1.62,0,0,1,.27.85v-7.19a1.63,1.63,0,0,0-.27-.85,3.94,3.94,0,0,0-.76-.85,9.26,9.26,0,0,0-1.17-.85c-.46-.29-1-.57-1.52-.85s-1.2-.58-1.84-.85-1.4-.58-2.12-.85-1.6-.59-2.37-.85c-.94-.32-1.82-.61-2.58-.85s-1.64-.53-2.58-.85c-.76-.26-1.57-.55-2.37-.85s-1.43-.55-2.12-.85-1.26-.56-1.84-.85-1.06-.56-1.52-.85a9.19,9.19,0,0,1-1.13-.82A4,4,0,0,1,.27,100,1.62,1.62,0,0,1,0,99.11Z"/><path class="cls-1" d="M25.23,119.9a1.61,1.61,0,0,1-.27.85,4,4,0,0,1-.79.88,9.45,9.45,0,0,1-1.13.82c-.46.29-1,.57-1.52.85s-1.2.57-1.84.85-1.4.58-2.12.85-1.6.59-2.37.85c-.94.32-1.82.61-2.58.85s-1.64.53-2.58.85c-.76.26-1.56.54-2.37.85s-1.43.55-2.12.85-1.26.56-1.84.85-1.06.56-1.52.85A9.35,9.35,0,0,0,1,131.8a3.93,3.93,0,0,0-.76.85,1.61,1.61,0,0,0-.27.85v-7.19a1.61,1.61,0,0,1,.27-.85,3.93,3.93,0,0,1,.76-.85,9.16,9.16,0,0,1,1.17-.85c.46-.29,1-.57,1.52-.85s1.2-.58,1.84-.85,1.4-.58,2.12-.85,1.6-.59,2.37-.85c.94-.32,1.82-.61,2.58-.85s1.64-.53,2.58-.85c.76-.26,1.56-.55,2.37-.85s1.43-.55,2.12-.85,1.26-.56,1.84-.85,1.06-.56,1.52-.85a9.45,9.45,0,0,0,1.13-.82,4,4,0,0,0,.79-.88,1.61,1.61,0,0,0,.27-.85Z"/><path class="cls-1" d="M25.23,106.3a1.63,1.63,0,0,1-.27.85,4.07,4.07,0,0,1-.79.88,9.43,9.43,0,0,1-1.13.82c-.46.29-1,.57-1.52.85s-1.2.57-1.84.85-1.4.58-2.12.85-1.6.59-2.37.85c-.94.32-1.82.61-2.58.85S11,113.63,10,114c-.76.26-1.56.54-2.37.85s-1.43.55-2.12.85-1.26.56-1.84.85-1.06.56-1.52.85A9.33,9.33,0,0,0,1,118.2a3.93,3.93,0,0,0-.76.85,1.62,1.62,0,0,0-.27.85v-7.19a1.61,1.61,0,0,1,.27-.85A3.93,3.93,0,0,1,1,111a9.35,9.35,0,0,1,1.17-.85c.46-.29,1-.57,1.52-.85s1.2-.58,1.84-.85,1.4-.58,2.12-.85,1.6-.59,2.37-.85c.94-.32,1.82-.61,2.58-.85s1.64-.53,2.58-.85c.76-.26,1.56-.55,2.37-.85s1.43-.55,2.12-.85,1.26-.56,1.84-.85,1.06-.56,1.52-.85a9.23,9.23,0,0,0,1.13-.82A4,4,0,0,0,25,100a1.63,1.63,0,0,0,.27-.85Z"/><rect class="cls-1" x="7.93" y="93.92" width="1.81" height="7.19"/><rect class="cls-1" x="3.89" y="95.63" width="1.46" height="7.19"/><rect class="cls-1" x="5.77" y="94.77" width="1.65" height="7.19"/><rect class="cls-1" x="10.33" y="93.06" width="1.94" height="7.19"/><rect class="cls-1" x="20.32" y="89.41" width="0.86" height="7.19"/><rect class="cls-1" x="2.32" y="96.49" width="1.23" height="7.19"/><rect class="cls-1" x="22.57" y="87.91" width="0.46" height="7.19"/><rect class="cls-1" x="24.98" y="85.07" width="0.25" height="7.19"/><rect class="cls-1" x="12.96" y="92.21" width="1.86" height="7.19"/><rect class="cls-1" x="17.99" y="90.45" width="1.23" height="7.19"/><rect class="cls-1" x="15.58" y="91.33" width="1.56" height="7.19"/><rect class="cls-1" x="0.31" y="98.2" width="0.63" height="7.19"/><path class="cls-1" d="M.23,99.11v7.19c0-.11-.23,0-.23,0V99.11Z"/><rect class="cls-1" x="1.11" y="97.34" width="0.95" height="7.19"/><rect class="cls-2" x="15.49" y="8.85" width="1.81" height="7.19"/><rect class="cls-2" x="19.89" y="10.56" width="1.46" height="7.19"/><rect class="cls-2" x="17.82" y="9.7" width="1.65" height="7.19"/><rect class="cls-2" x="12.96" y="7.99" width="1.94" height="7.19"/><rect class="cls-2" x="4.06" y="4.34" width="0.86" height="7.19"/><rect class="cls-2" x="21.69" y="11.41" width="1.23" height="7.19"/><rect class="cls-2" x="2.2" y="2.84" width="0.46" height="7.19"/><rect class="cls-2" width="0.25" height="7.19"/><rect class="cls-2" x="10.42" y="7.13" width="1.86" height="7.19"/><rect class="cls-2" x="6.02" y="5.38" width="1.23" height="7.19"/><rect class="cls-2" x="8.1" y="6.26" width="1.56" height="7.19"/><rect class="cls-2" x="24.29" y="13.13" width="0.63" height="7.19"/><path class="cls-2" d="M25,14v7.19c0-.11.23,0,.23,0V14Z"/><rect class="cls-2" x="23.17" y="12.27" width="0.95" height="7.19"/><path class="cls-2" d="M0,21.23a1.62,1.62,0,0,0,.27.85,4,4,0,0,0,.79.88,9.39,9.39,0,0,0,1.13.82c.46.29,1,.57,1.52.85s1.2.57,1.84.85,1.4.58,2.12.85,1.6.59,2.37.85c.94.32,1.82.61,2.58.85s1.64.53,2.58.85c.76.26,1.56.54,2.37.85s1.43.55,2.12.85,1.26.56,1.84.85,1.06.56,1.52.85a9.24,9.24,0,0,1,1.17.85A3.94,3.94,0,0,1,25,34a1.62,1.62,0,0,1,.27.85V27.64a1.63,1.63,0,0,0-.27-.85,3.94,3.94,0,0,0-.76-.85A9.26,9.26,0,0,0,23,25.09c-.46-.29-1-.57-1.52-.85s-1.2-.58-1.84-.85-1.4-.58-2.12-.85S16,22,15.19,21.69c-.94-.32-1.82-.61-2.58-.85S11,20.31,10,20c-.76-.26-1.57-.55-2.37-.85s-1.43-.55-2.12-.85-1.26-.56-1.84-.85-1.06-.56-1.52-.85a9.19,9.19,0,0,1-1.13-.82,4,4,0,0,1-.79-.88A1.62,1.62,0,0,1,0,14Z"/><path class="cls-1" d="M25.23,34.83a1.61,1.61,0,0,1-.27.85,4,4,0,0,1-.79.88,9.45,9.45,0,0,1-1.13.82c-.46.29-1,.57-1.52.85s-1.2.57-1.84.85-1.4.58-2.12.85-1.6.59-2.37.85c-.94.32-1.82.61-2.58.85s-1.64.53-2.58.85c-.76.26-1.56.54-2.37.85s-1.43.55-2.12.85-1.26.56-1.84.85-1.06.56-1.52.85A9.35,9.35,0,0,0,1,46.73a3.93,3.93,0,0,0-.76.85,1.61,1.61,0,0,0-.27.85V41.24a1.61,1.61,0,0,1,.27-.85A3.93,3.93,0,0,1,1,39.54a9.16,9.16,0,0,1,1.17-.85c.46-.29,1-.57,1.52-.85s1.2-.58,1.84-.85,1.4-.58,2.12-.85,1.6-.59,2.37-.85c.94-.32,1.82-.61,2.58-.85s1.64-.53,2.58-.85c.76-.26,1.56-.55,2.37-.85s1.43-.55,2.12-.85,1.26-.56,1.84-.85,1.06-.56,1.52-.85a9.45,9.45,0,0,0,1.13-.82,4,4,0,0,0,.79-.88,1.61,1.61,0,0,0,.27-.85Z"/><path class="cls-1" d="M25.23,21.23a1.63,1.63,0,0,1-.27.85,4.07,4.07,0,0,1-.79.88,9.43,9.43,0,0,1-1.13.82c-.46.29-1,.57-1.52.85s-1.2.57-1.84.85-1.4.58-2.12.85-1.6.59-2.37.85c-.94.32-1.82.61-2.58.85s-1.64.53-2.58.85c-.76.26-1.56.54-2.37.85s-1.43.55-2.12.85-1.26.56-1.84.85-1.06.56-1.52.85A9.33,9.33,0,0,0,1,33.13,3.93,3.93,0,0,0,.27,34a1.62,1.62,0,0,0-.27.85V27.64a1.61,1.61,0,0,1,.27-.85A3.93,3.93,0,0,1,1,25.94a9.35,9.35,0,0,1,1.17-.85c.46-.29,1-.57,1.52-.85s1.2-.58,1.84-.85,1.4-.58,2.12-.85S9.27,22,10,21.69c.94-.32,1.82-.61,2.58-.85s1.64-.53,2.58-.85c.76-.26,1.56-.55,2.37-.85s1.43-.55,2.12-.85,1.26-.56,1.84-.85,1.06-.56,1.52-.85a9.23,9.23,0,0,0,1.13-.82,4,4,0,0,0,.79-.88,1.63,1.63,0,0,0,.27-.85Z"/><rect class="cls-1" x="7.93" y="8.85" width="1.81" height="7.19"/><rect class="cls-1" x="3.89" y="10.56" width="1.46" height="7.19"/><rect class="cls-1" x="5.77" y="9.7" width="1.65" height="7.19"/><rect class="cls-1" x="10.33" y="7.99" width="1.94" height="7.19"/><rect class="cls-1" x="20.32" y="4.34" width="0.86" height="7.19"/><rect class="cls-1" x="2.32" y="11.41" width="1.23" height="7.19"/><rect class="cls-1" x="22.57" y="2.84" width="0.46" height="7.19"/><rect class="cls-1" x="24.98" width="0.25" height="7.19"/><rect class="cls-1" x="12.96" y="7.13" width="1.86" height="7.19"/><rect class="cls-1" x="17.99" y="5.38" width="1.23" height="7.19"/><rect class="cls-1" x="15.58" y="6.26" width="1.56" height="7.19"/><rect class="cls-1" x="0.31" y="13.13" width="0.63" height="7.19"/><path class="cls-1" d="M.23,14v7.19c0-.11-.23,0-.23,0V14Z"/><rect class="cls-1" x="1.11" y="12.27" width="0.95" height="7.19"/><path class="cls-1" d="M34.63,2.91h4.63c6.68,0,9.33,3.85,9.33,9.3,0,6.76-4.52,9.36-10.69,9.36H34.63ZM36.47,20H38c5.29,0,8.74-2.14,8.74-7.86s-3.4-7.59-7.57-7.59h-2.7Z"/><path class="cls-1" d="M52.46,2.91H56.9c3,0,5.91,1,5.91,4.6,0,2.38-1.1,3.8-3.39,4.25v.05a4.37,4.37,0,0,1,4,4.44c0,4.06-3.32,5.32-7.19,5.32H52.46ZM54.31,20h1.92c2.49,0,5.29-.67,5.29-3.63,0-3.32-2.86-3.66-5.59-3.66H54.31Zm.05-8.9h2.06c2,0,4.54-.51,4.54-3.48,0-2.7-2.49-3.07-4.06-3.07H54.36Z"/><path class="cls-1" d="M80.3,5a9.69,9.69,0,0,0-4.17-.8c-4.84,0-7.57,3.42-7.57,8s2.65,8,7.57,8a9.23,9.23,0,0,0,4.17-.8l.11,1.6a10.07,10.07,0,0,1-4.28.8c-5.88,0-9.41-3.88-9.41-9.65s3.64-9.65,9.41-9.65a12.07,12.07,0,0,1,4.28.69Z"/><path class="cls-1" d="M85.17,2.91H87V20H94.5v1.6H85.17Z"/><path class="cls-1" d="M96.69,19.19a7.35,7.35,0,0,0,4.12,1.1c2.3,0,4.2-1.18,4.2-3.82,0-3.66-8.55-4.12-8.55-9,0-3,2.62-4.87,5.91-4.87A11.15,11.15,0,0,1,106,3.2l-.29,1.68a7.61,7.61,0,0,0-3.4-.7c-1.92,0-4,.8-4,3.21,0,3.74,8.55,3.77,8.55,9.22,0,3.77-3.24,5.27-6.12,5.27a10.66,10.66,0,0,1-4.22-.8Z"/><path class="cls-1" d="M34.08,24.64h1.39c1.56,0,2.94.53,2.94,2.54S37,29.73,35.48,29.73H34.08Zm1,4.29h.57a1.74,1.74,0,0,0,0-3.49H35.1Z"/><path class="cls-1" d="M39.43,26.17a3.37,3.37,0,0,1,1.31-.28c1.15,0,1.62.47,1.62,1.58V28c0,.38,0,.66,0,.94s0,.55,0,.84h-.86a4.38,4.38,0,0,1,0-.56h0a1.34,1.34,0,0,1-1.16.65A1.2,1.2,0,0,1,39,28.7a1.1,1.1,0,0,1,.64-1.07,3,3,0,0,1,1.26-.22h.54c0-.61-.27-.81-.85-.81a2,2,0,0,0-1.16.41Zm1.15,2.93a.83.83,0,0,0,.69-.34,1.25,1.25,0,0,0,.2-.77H41c-.44,0-1.09.07-1.09.65C40,29,40.22,29.1,40.58,29.1Z"/><path class="cls-1" d="M43.64,26.69h-.72V26h.72v-.75l1-.31V26h.87v.71h-.87v1.75c0,.32.09.62.46.62a.87.87,0,0,0,.45-.1l0,.77a2.56,2.56,0,0,1-.72.09,1.1,1.1,0,0,1-1.19-1.22Z"/><path class="cls-1" d="M46.32,26.17a3.37,3.37,0,0,1,1.31-.28c1.15,0,1.62.47,1.62,1.58V28c0,.38,0,.66,0,.94s0,.55,0,.84h-.86a4.38,4.38,0,0,1,0-.56h0a1.34,1.34,0,0,1-1.16.65,1.2,1.2,0,0,1-1.31-1.12,1.1,1.1,0,0,1,.64-1.07,3,3,0,0,1,1.26-.22h.54c0-.61-.27-.81-.85-.81a2,2,0,0,0-1.16.41Zm1.15,2.93a.83.83,0,0,0,.69-.34,1.25,1.25,0,0,0,.2-.77h-.42c-.44,0-1.09.07-1.09.65C46.85,29,47.12,29.1,47.47,29.1Z"/><path class="cls-1" d="M50.21,24.26h1v2.2h0a1.31,1.31,0,0,1,1.12-.57c1.15,0,1.58.92,1.58,2s-.42,2-1.58,2a1.37,1.37,0,0,1-1.15-.55h0v.46h-.95Zm1.85,4.8c.64,0,.82-.7.82-1.22s-.17-1.2-.81-1.2-.87.67-.87,1.2S51.41,29.06,52.06,29.06Z"/><path class="cls-1" d="M54.84,26.17a3.37,3.37,0,0,1,1.31-.28c1.15,0,1.62.47,1.62,1.58V28c0,.38,0,.66,0,.94s0,.55,0,.84H57a4.38,4.38,0,0,1,0-.56h0a1.34,1.34,0,0,1-1.16.65,1.2,1.2,0,0,1-1.31-1.12,1.1,1.1,0,0,1,.64-1.07,3,3,0,0,1,1.26-.22h.54c0-.61-.27-.81-.85-.81a2,2,0,0,0-1.16.41ZM56,29.1a.83.83,0,0,0,.69-.34,1.25,1.25,0,0,0,.2-.77h-.42c-.44,0-1.09.07-1.09.65C55.36,29,55.63,29.1,56,29.1Z"/><path class="cls-1" d="M61,26.76a2.41,2.41,0,0,0-.87-.16c-.26,0-.58.09-.58.42,0,.6,1.7.22,1.7,1.58,0,.88-.78,1.23-1.58,1.23a4.39,4.39,0,0,1-1.11-.16l.06-.8a2.14,2.14,0,0,0,1,.25c.25,0,.64-.09.64-.46,0-.74-1.7-.23-1.7-1.59,0-.81.71-1.17,1.47-1.17A4.51,4.51,0,0,1,61,26Z"/><path class="cls-1" d="M65,29.52a2.58,2.58,0,0,1-1.29.3,1.78,1.78,0,0,1-2-1.95,1.76,1.76,0,0,1,1.74-2c1.39,0,1.79,1,1.79,2.27h-2.6a1,1,0,0,0,1.07.95A2.54,2.54,0,0,0,65,28.72Zm-.66-2c0-.47-.25-.88-.79-.88a.85.85,0,0,0-.87.88Z"/><path class="cls-1" d="M71.84,29.66a5.15,5.15,0,0,1-1.16.16c-1.65,0-2.79-.82-2.79-2.55a2.52,2.52,0,0,1,2.79-2.72,3.35,3.35,0,0,1,1.15.21l-.07.86a2.1,2.1,0,0,0-1.1-.27A1.7,1.7,0,0,0,69,27.2,1.68,1.68,0,0,0,70.68,29a2.84,2.84,0,0,0,1.12-.21Z"/><path class="cls-1" d="M75.52,29.52a2.58,2.58,0,0,1-1.29.3,1.78,1.78,0,0,1-2-1.95,1.76,1.76,0,0,1,1.74-2c1.39,0,1.79,1,1.79,2.27H73.2a1,1,0,0,0,1.07.95,2.54,2.54,0,0,0,1.25-.38Zm-.66-2c0-.47-.25-.88-.79-.88a.85.85,0,0,0-.87.88Z"/><path class="cls-1" d="M76.56,26h.93v.51h0a1.4,1.4,0,0,1,1.23-.6c.89,0,1.28.63,1.28,1.47v2.37H79v-2c0-.46,0-1.08-.63-1.08s-.86.77-.86,1.25v1.84h-1Z"/><path class="cls-1" d="M81.34,26.69h-.72V26h.72v-.75l1-.31V26h.87v.71h-.87v1.75c0,.32.09.62.46.62a.87.87,0,0,0,.45-.1l0,.77a2.56,2.56,0,0,1-.72.09,1.1,1.1,0,0,1-1.19-1.22Z"/><path class="cls-1" d="M86.87,29.52a2.58,2.58,0,0,1-1.29.3,1.78,1.78,0,0,1-2-1.95,1.76,1.76,0,0,1,1.74-2c1.39,0,1.79,1,1.79,2.27h-2.6a1,1,0,0,0,1.07.95,2.54,2.54,0,0,0,1.25-.38Zm-.66-2c0-.47-.25-.88-.79-.88a.85.85,0,0,0-.87.88Z"/><path class="cls-1" d="M87.94,26h.87v.85h0a1.15,1.15,0,0,1,1-.94,1.06,1.06,0,0,1,.3,0v1a1,1,0,0,0-.44-.08c-.79,0-.79,1-.79,1.53v1.38h-1Z"/><path class="cls-1" d="M93.14,26.69h-.72V26h.72v-.53a1.15,1.15,0,0,1,1.2-1.28,3.43,3.43,0,0,1,.71.08l-.08.81a.76.76,0,0,0-.42-.13c-.33,0-.43.28-.43.58V26H95v.71h-.85v3h-1Z"/><path class="cls-1" d="M97.34,25.89a1.88,1.88,0,0,1,2,2,2,2,0,0,1-3.93,0A1.88,1.88,0,0,1,97.34,25.89Zm0,3.17c.75,0,.95-.67.95-1.3a1,1,0,1,0-1.89,0C96.4,28.38,96.6,29.06,97.34,29.06Z"/><path class="cls-1" d="M100.1,26H101v.85h0a1.15,1.15,0,0,1,1-.94,1.06,1.06,0,0,1,.3,0v1a1,1,0,0,0-.44-.08c-.79,0-.79,1-.79,1.53v1.38h-1Z"/><path class="cls-1" d="M105,24.64h1v4.29h2v.8h-3Z"/><path class="cls-1" d="M108.62,24.36h1v.93h-1Zm0,1.62h1v3.76h-1Z"/><path class="cls-1" d="M111,26.69h-.72V26H111v-.53a1.15,1.15,0,0,1,1.2-1.28,3.43,3.43,0,0,1,.71.08l-.08.81a.76.76,0,0,0-.42-.13c-.33,0-.43.28-.43.58V26h.85v.71H112v3h-1Z"/><path class="cls-1" d="M116.47,29.52a2.58,2.58,0,0,1-1.29.3,1.78,1.78,0,0,1-2-1.95,1.76,1.76,0,0,1,1.74-2c1.39,0,1.79,1,1.79,2.27h-2.6a1,1,0,0,0,1.07.95,2.54,2.54,0,0,0,1.25-.38Zm-.66-2c0-.47-.25-.88-.79-.88a.85.85,0,0,0-.87.88Z"/><path class="cls-1" d="M122.37,25.57a2.64,2.64,0,0,0-1-.22.71.71,0,0,0-.8.71c0,.88,2.23.51,2.23,2.22,0,1.12-.88,1.54-1.91,1.54a4.49,4.49,0,0,1-1.31-.2l.09-.92a2.46,2.46,0,0,0,1.15.31c.39,0,.9-.2.9-.66,0-1-2.23-.57-2.23-2.25,0-1.14.88-1.55,1.78-1.55a3.84,3.84,0,0,1,1.22.18Z"/><path class="cls-1" d="M126,26.78a1.47,1.47,0,0,0-.66-.14c-.61,0-1,.48-1,1.19s.33,1.23,1,1.23a2.09,2.09,0,0,0,.75-.17l0,.81a3.21,3.21,0,0,1-1,.12,1.78,1.78,0,0,1-1.85-2,1.78,1.78,0,0,1,1.82-1.95,3.19,3.19,0,0,1,.95.12Z"/><path class="cls-1" d="M126.86,24.36h1v.93h-1Zm0,1.62h1v3.76h-1Z"/><path class="cls-1" d="M131.88,29.52a2.58,2.58,0,0,1-1.29.3,1.78,1.78,0,0,1-2-1.95,1.76,1.76,0,0,1,1.74-2c1.39,0,1.79,1,1.79,2.27h-2.6a1,1,0,0,0,1.07.95,2.54,2.54,0,0,0,1.25-.38Zm-.66-2c0-.47-.25-.88-.79-.88a.85.85,0,0,0-.87.88Z"/><path class="cls-1" d="M132.92,26h.93v.51h0a1.4,1.4,0,0,1,1.23-.6c.89,0,1.28.63,1.28,1.47v2.37h-1v-2c0-.46,0-1.08-.63-1.08s-.86.77-.86,1.25v1.84h-1Z"/><path class="cls-1" d="M139.82,26.78a1.47,1.47,0,0,0-.66-.14c-.61,0-1,.48-1,1.19s.33,1.23,1,1.23a2.09,2.09,0,0,0,.75-.17l0,.81a3.21,3.21,0,0,1-1,.12,1.78,1.78,0,0,1-1.85-2A1.78,1.78,0,0,1,139,25.89a3.19,3.19,0,0,1,.95.12Z"/><path class="cls-1" d="M143.63,29.52a2.58,2.58,0,0,1-1.29.3,1.78,1.78,0,0,1-2-1.95,1.76,1.76,0,0,1,1.74-2c1.39,0,1.79,1,1.79,2.27h-2.6a1,1,0,0,0,1.07.95,2.54,2.54,0,0,0,1.25-.38Zm-.66-2c0-.47-.25-.88-.79-.88a.85.85,0,0,0-.87.88Z"/><path class="cls-1" d="M33.65,36.42a1.34,1.34,0,0,0,.49.09c.66,0,.66-.53.66-.9V32.22h1V36.1a1.28,1.28,0,0,1-1.39,1.3,2.93,2.93,0,0,1-.78-.09Z"/><path class="cls-1" d="M38.55,33.46a1.88,1.88,0,0,1,2,2,2,2,0,0,1-3.93,0A1.88,1.88,0,0,1,38.55,33.46Zm0,3.17c.75,0,.95-.67.95-1.3a1,1,0,1,0-1.89,0C37.61,36,37.81,36.64,38.55,36.64Z"/><path class="cls-1" d="M41.31,31.93h1v.93h-1Zm0,1.62h1v3.76h-1Z"/><path class="cls-1" d="M43.32,33.55h.93v.51h0a1.4,1.4,0,0,1,1.23-.6c.89,0,1.28.63,1.28,1.47v2.37h-1v-2c0-.46,0-1.08-.63-1.08s-.86.77-.86,1.25v1.84h-1Z"/><path class="cls-1" d="M48.1,34.27h-.72v-.71h.72V32.8l1-.31v1.07h.87v.71h-.87V36c0,.32.09.62.46.62a.87.87,0,0,0,.45-.1l0,.77a2.56,2.56,0,0,1-.72.09,1.1,1.1,0,0,1-1.19-1.22Z"/><path class="cls-1" d="M55.46,33.15a2.64,2.64,0,0,0-1-.22.71.71,0,0,0-.8.71c0,.88,2.23.51,2.23,2.22,0,1.12-.88,1.54-1.91,1.54a4.49,4.49,0,0,1-1.31-.2l.09-.92a2.46,2.46,0,0,0,1.15.31c.39,0,.9-.2.9-.66,0-1-2.23-.57-2.23-2.25,0-1.14.88-1.55,1.78-1.55a3.84,3.84,0,0,1,1.22.18Z"/><path class="cls-1" d="M60.15,37.31h-.93V36.8h0a1.57,1.57,0,0,1-1.23.6c-.89,0-1.28-.63-1.28-1.47V33.55h1v2c0,.46,0,1.08.63,1.08s.86-.77.86-1.25V33.55h1Z"/><path class="cls-1" d="M61.16,33.55h.93v.53h0a1.27,1.27,0,0,1,1.17-.62c1.15,0,1.58.92,1.58,2s-.42,2-1.6,2a1.28,1.28,0,0,1-1.1-.52h0v2h-1Zm1,1.87c0,.53.21,1.22.86,1.22s.82-.7.82-1.22-.17-1.2-.81-1.2S62.14,34.89,62.14,35.42Z"/><path class="cls-1" d="M65.61,33.55h.93v.53h0a1.27,1.27,0,0,1,1.17-.62c1.15,0,1.58.92,1.58,2s-.42,2-1.6,2a1.28,1.28,0,0,1-1.1-.52h0v2h-1Zm1,1.87c0,.53.21,1.22.86,1.22s.82-.7.82-1.22-.17-1.2-.81-1.2S66.6,34.89,66.6,35.42Z"/><path class="cls-1" d="M71.79,33.46a1.88,1.88,0,0,1,2,2,2,2,0,0,1-3.93,0A1.88,1.88,0,0,1,71.79,33.46Zm0,3.17c.75,0,.95-.67.95-1.3a1,1,0,1,0-1.89,0C70.85,36,71,36.64,71.79,36.64Z"/><path class="cls-1" d="M74.55,33.55h.87v.85h0a1.15,1.15,0,0,1,1-.94,1.06,1.06,0,0,1,.3,0v1a1,1,0,0,0-.44-.08c-.79,0-.79,1-.79,1.53v1.38h-1Z"/><path class="cls-1" d="M77.69,34.27H77v-.71h.72V32.8l1-.31v1.07h.87v.71h-.87V36c0,.32.09.62.46.62a.87.87,0,0,0,.45-.1l0,.77a2.56,2.56,0,0,1-.72.09,1.1,1.1,0,0,1-1.19-1.22Z"/><path class="cls-1" d="M80,35.75v-.8h1.92v.8Z"/><path class="cls-1" d="M86.43,37.23a5.15,5.15,0,0,1-1.16.16c-1.65,0-2.79-.82-2.79-2.55a2.52,2.52,0,0,1,2.79-2.72,3.35,3.35,0,0,1,1.15.21l-.07.86a2.1,2.1,0,0,0-1.1-.27,1.7,1.7,0,0,0-1.71,1.84,1.68,1.68,0,0,0,1.73,1.82,2.84,2.84,0,0,0,1.12-.21Z"/><path class="cls-1" d="M90.1,37.09a2.58,2.58,0,0,1-1.29.3,1.78,1.78,0,0,1-2-1.95,1.76,1.76,0,0,1,1.74-2c1.39,0,1.79,1,1.79,2.27h-2.6a1,1,0,0,0,1.07.95,2.54,2.54,0,0,0,1.25-.38Zm-.66-2c0-.47-.25-.88-.79-.88a.85.85,0,0,0-.87.88Z"/><path class="cls-1" d="M91.15,33.55h.93v.51h0a1.4,1.4,0,0,1,1.23-.6c.89,0,1.28.63,1.28,1.47v2.37h-1v-2c0-.46,0-1.08-.63-1.08s-.86.77-.86,1.25v1.84h-1Z"/><path class="cls-1" d="M95.93,34.27h-.72v-.71h.72V32.8l1-.31v1.07h.87v.71h-.87V36c0,.32.09.62.46.62a.87.87,0,0,0,.45-.1l0,.77a2.56,2.56,0,0,1-.72.09,1.1,1.1,0,0,1-1.19-1.22Z"/><path class="cls-1" d="M101.46,37.09a2.58,2.58,0,0,1-1.29.3,1.78,1.78,0,0,1-2-1.95,1.76,1.76,0,0,1,1.74-2c1.39,0,1.79,1,1.79,2.27h-2.6a1,1,0,0,0,1.07.95,2.54,2.54,0,0,0,1.25-.38Zm-.66-2c0-.47-.25-.88-.79-.88a.85.85,0,0,0-.87.88Z"/><path class="cls-1" d="M102.52,33.55h.87v.85h0a1.15,1.15,0,0,1,1-.94,1.06,1.06,0,0,1,.3,0v1a1,1,0,0,0-.44-.08c-.79,0-.79,1-.79,1.53v1.38h-1Z"/><path class="cls-1" d="M107.72,34.27H107v-.71h.72V33a1.15,1.15,0,0,1,1.2-1.28,3.43,3.43,0,0,1,.71.08l-.08.81a.76.76,0,0,0-.42-.13c-.33,0-.43.28-.43.58v.47h.85v.71h-.85v3h-1Z"/><path class="cls-1" d="M111.93,33.46a1.88,1.88,0,0,1,2,2,2,2,0,0,1-3.93,0A1.88,1.88,0,0,1,111.93,33.46Zm0,3.17c.75,0,.95-.67.95-1.3a1,1,0,1,0-1.89,0C111,36,111.18,36.64,111.93,36.64Z"/><path class="cls-1" d="M114.69,33.55h.87v.85h0a1.15,1.15,0,0,1,1-.94,1.06,1.06,0,0,1,.3,0v1a1,1,0,0,0-.44-.08c-.79,0-.79,1-.79,1.53v1.38h-1Z"/><path class="cls-1" d="M119.62,32.22H121c1.56,0,2.94.53,2.94,2.54s-1.38,2.55-2.94,2.55h-1.39Zm1,4.29h.57a1.74,1.74,0,0,0,0-3.49h-.57Z"/><path class="cls-1" d="M125,33.75a3.37,3.37,0,0,1,1.31-.28c1.15,0,1.62.47,1.62,1.58v.48c0,.38,0,.66,0,.94s0,.55,0,.84h-.86a4.38,4.38,0,0,1,0-.56h0a1.34,1.34,0,0,1-1.16.65,1.2,1.2,0,0,1-1.31-1.12,1.1,1.1,0,0,1,.64-1.07,3,3,0,0,1,1.26-.22H127c0-.61-.27-.81-.85-.81a2,2,0,0,0-1.16.41Zm1.15,2.93a.83.83,0,0,0,.69-.34,1.25,1.25,0,0,0,.2-.77h-.42c-.44,0-1.09.07-1.09.65C125.49,36.54,125.76,36.68,126.11,36.68Z"/><path class="cls-1" d="M129.17,34.27h-.72v-.71h.72V32.8l1-.31v1.07H131v.71h-.87V36c0,.32.09.62.46.62a.87.87,0,0,0,.45-.1l0,.77a2.56,2.56,0,0,1-.72.09,1.1,1.1,0,0,1-1.19-1.22Z"/><path class="cls-1" d="M131.86,33.75a3.37,3.37,0,0,1,1.31-.28c1.15,0,1.62.47,1.62,1.58v.48c0,.38,0,.66,0,.94s0,.55,0,.84H134a4.38,4.38,0,0,1,0-.56h0a1.34,1.34,0,0,1-1.16.65,1.2,1.2,0,0,1-1.31-1.12,1.1,1.1,0,0,1,.64-1.07,3,3,0,0,1,1.26-.22h.54c0-.61-.27-.81-.85-.81a2,2,0,0,0-1.16.41ZM133,36.68a.83.83,0,0,0,.69-.34,1.25,1.25,0,0,0,.2-.77h-.42c-.44,0-1.09.07-1.09.65C132.38,36.54,132.65,36.68,133,36.68Z"/><path class="cls-1" d="M140.6,33.15a2.64,2.64,0,0,0-1-.22.71.71,0,0,0-.8.71c0,.88,2.23.51,2.23,2.22,0,1.12-.88,1.54-1.91,1.54a4.49,4.49,0,0,1-1.31-.2l.09-.92a2.46,2.46,0,0,0,1.15.31c.39,0,.91-.2.91-.66,0-1-2.23-.57-2.23-2.25,0-1.14.88-1.55,1.78-1.55a3.84,3.84,0,0,1,1.22.18Z"/><path class="cls-1" d="M144.27,34.36a1.47,1.47,0,0,0-.66-.14c-.61,0-1,.48-1,1.19s.33,1.23,1,1.23a2.09,2.09,0,0,0,.75-.17l0,.81a3.21,3.21,0,0,1-1,.12,1.78,1.78,0,0,1-1.85-2,1.78,1.78,0,0,1,1.82-1.95,3.19,3.19,0,0,1,.95.12Z"/><path class="cls-1" d="M145.09,31.93h1v.93h-1Zm0,1.62h1v3.76h-1Z"/><path class="cls-1" d="M150.11,37.09a2.58,2.58,0,0,1-1.29.3,1.78,1.78,0,0,1-2-1.95,1.76,1.76,0,0,1,1.74-2c1.39,0,1.79,1,1.79,2.27h-2.6a1,1,0,0,0,1.07.95,2.54,2.54,0,0,0,1.25-.38Zm-.66-2c0-.47-.25-.88-.79-.88a.85.85,0,0,0-.87.88Z"/><path class="cls-1" d="M151.16,33.55h.93v.51h0a1.4,1.4,0,0,1,1.23-.6c.89,0,1.28.63,1.28,1.47v2.37h-1v-2c0-.46,0-1.08-.63-1.08s-.86.77-.86,1.25v1.84h-1Z"/><path class="cls-1" d="M158,34.36a1.47,1.47,0,0,0-.66-.14c-.61,0-1,.48-1,1.19s.33,1.23,1,1.23a2.09,2.09,0,0,0,.75-.17l0,.81a3.21,3.21,0,0,1-1,.12,1.78,1.78,0,0,1-1.85-2,1.78,1.78,0,0,1,1.82-1.95,3.19,3.19,0,0,1,.95.12Z"/><path class="cls-1" d="M161.87,37.09a2.58,2.58,0,0,1-1.29.3,1.78,1.78,0,0,1-2-1.95,1.76,1.76,0,0,1,1.74-2c1.39,0,1.79,1,1.79,2.27h-2.6a1,1,0,0,0,1.07.95,2.54,2.54,0,0,0,1.25-.38Zm-.66-2c0-.47-.25-.88-.79-.88a.85.85,0,0,0-.87.88Z"/><path class="cls-1" d="M164.94,32.22H166c1.09,0,2.4,0,2.4,1.38a1.16,1.16,0,0,1-1,1.18h0c.28,0,.44.3.54.53l.82,2h-1.14L167,35.72c-.15-.38-.28-.53-.71-.53H166v2.12h-1Zm1,2.17h.34c.5,0,1.08-.07,1.08-.71s-.57-.66-1.08-.66H166Z"/><path class="cls-1" d="M172.41,37.09a2.58,2.58,0,0,1-1.29.3,1.78,1.78,0,0,1-2-1.95,1.76,1.76,0,0,1,1.74-2c1.39,0,1.79,1,1.79,2.27h-2.6a1,1,0,0,0,1.07.95,2.54,2.54,0,0,0,1.25-.38Zm-.66-2c0-.47-.25-.88-.79-.88a.85.85,0,0,0-.87.88Z"/><path class="cls-1" d="M175.68,34.34a2.41,2.41,0,0,0-.87-.16c-.26,0-.58.09-.58.42,0,.6,1.7.22,1.7,1.58,0,.88-.78,1.23-1.58,1.23a4.39,4.39,0,0,1-1.11-.16l.06-.8a2.14,2.14,0,0,0,1,.25c.25,0,.64-.09.64-.46,0-.74-1.7-.23-1.7-1.59,0-.81.71-1.17,1.47-1.17a4.51,4.51,0,0,1,1.06.14Z"/><path class="cls-1" d="M179.7,37.09a2.58,2.58,0,0,1-1.29.3,1.78,1.78,0,0,1-2-1.95,1.76,1.76,0,0,1,1.74-2c1.39,0,1.79,1,1.79,2.27h-2.6a1,1,0,0,0,1.07.95,2.54,2.54,0,0,0,1.25-.38Zm-.66-2c0-.47-.25-.88-.79-.88a.85.85,0,0,0-.87.88Z"/><path class="cls-1" d="M180.92,33.75a3.36,3.36,0,0,1,1.31-.28c1.15,0,1.62.47,1.62,1.58v.48c0,.38,0,.66,0,.94s0,.55,0,.84H183a4.38,4.38,0,0,1,0-.56h0a1.34,1.34,0,0,1-1.16.65,1.2,1.2,0,0,1-1.31-1.12,1.1,1.1,0,0,1,.64-1.07,3,3,0,0,1,1.26-.22H183c0-.61-.27-.81-.85-.81a2,2,0,0,0-1.16.41Zm1.15,2.93a.83.83,0,0,0,.69-.34,1.25,1.25,0,0,0,.2-.77h-.42c-.44,0-1.09.07-1.09.65C181.44,36.54,181.71,36.68,182.06,36.68Z"/><path class="cls-1" d="M184.83,33.55h.87v.85h0a1.15,1.15,0,0,1,1-.94,1.06,1.06,0,0,1,.3,0v1a1,1,0,0,0-.44-.08c-.79,0-.79,1-.79,1.53v1.38h-1Z"/><path class="cls-1" d="M189.95,34.36a1.47,1.47,0,0,0-.66-.14c-.61,0-1,.48-1,1.19s.33,1.23,1,1.23a2.09,2.09,0,0,0,.75-.17l0,.81a3.21,3.21,0,0,1-1,.12,1.78,1.78,0,0,1-1.85-2,1.78,1.78,0,0,1,1.82-1.95,3.19,3.19,0,0,1,.95.12Z"/><path class="cls-1" d="M190.75,31.84h1v2.22h0a1.4,1.4,0,0,1,1.18-.6c.89,0,1.28.63,1.28,1.47v2.37h-1v-2c0-.46,0-1.08-.63-1.08s-.86.77-.86,1.25v1.84h-1Z"/><path class="cls-1" d="M34,39.79h1.1c1.09,0,2.4,0,2.4,1.38a1.16,1.16,0,0,1-1,1.18h0c.28,0,.44.3.54.53l.82,2H36.66l-.61-1.59c-.15-.38-.28-.53-.71-.53H35v2.12H34ZM35,42h.34c.5,0,1.08-.07,1.08-.71s-.57-.66-1.08-.66H35Z"/><path class="cls-1" d="M41.46,44.67a2.58,2.58,0,0,1-1.29.3,1.78,1.78,0,0,1-2-1.95A1.76,1.76,0,0,1,40,41c1.39,0,1.79,1,1.79,2.27h-2.6a1,1,0,0,0,1.07.95,2.54,2.54,0,0,0,1.25-.38Zm-.66-2c0-.47-.25-.88-.79-.88a.85.85,0,0,0-.87.88Z"/><path class="cls-1" d="M44.74,41.91a2.41,2.41,0,0,0-.87-.16c-.26,0-.58.09-.58.42,0,.6,1.7.22,1.7,1.58,0,.88-.78,1.23-1.58,1.23a4.39,4.39,0,0,1-1.11-.16l.06-.8a2.14,2.14,0,0,0,1,.25c.25,0,.64-.09.64-.46,0-.74-1.7-.23-1.7-1.59,0-.81.71-1.17,1.47-1.17a4.51,4.51,0,0,1,1.06.14Z"/><path class="cls-1" d="M48.76,44.67a2.58,2.58,0,0,1-1.29.3,1.78,1.78,0,0,1-2-1.95,1.76,1.76,0,0,1,1.74-2C48.64,41,49,42,49,43.31h-2.6a1,1,0,0,0,1.07.95,2.54,2.54,0,0,0,1.25-.38Zm-.66-2c0-.47-.25-.88-.79-.88a.85.85,0,0,0-.87.88Z"/><path class="cls-1" d="M50,41.32A3.36,3.36,0,0,1,51.28,41c1.15,0,1.62.47,1.62,1.58v.48c0,.38,0,.66,0,.94s0,.55,0,.84h-.86a4.38,4.38,0,0,1,0-.56h0a1.34,1.34,0,0,1-1.16.65,1.2,1.2,0,0,1-1.31-1.12,1.1,1.1,0,0,1,.64-1.07,3,3,0,0,1,1.26-.22H52c0-.61-.27-.81-.85-.81a2,2,0,0,0-1.16.41Zm1.15,2.93a.83.83,0,0,0,.69-.34,1.25,1.25,0,0,0,.2-.77h-.42c-.44,0-1.09.07-1.09.65C50.5,44.12,50.77,44.26,51.12,44.26Z"/><path class="cls-1" d="M53.88,41.13h.87V42h0a1.15,1.15,0,0,1,1-.94,1.06,1.06,0,0,1,.3,0v1a1,1,0,0,0-.44-.08c-.79,0-.79,1-.79,1.53v1.38h-1Z"/><path class="cls-1" d="M59,41.94a1.47,1.47,0,0,0-.66-.14c-.61,0-1,.48-1,1.19s.33,1.23,1,1.23a2.09,2.09,0,0,0,.75-.17l0,.81a3.21,3.21,0,0,1-1,.12,2,2,0,0,1,0-3.93,3.19,3.19,0,0,1,.95.12Z"/><path class="cls-1" d="M59.81,39.41h1v2.22h0A1.4,1.4,0,0,1,62,41c.89,0,1.28.63,1.28,1.47v2.37h-1v-2c0-.46,0-1.08-.63-1.08s-.86.77-.86,1.25v1.84h-1Z"/><path class="cls-1" d="M68.63,39.7a2.38,2.38,0,0,1,2.5,2.62,2.5,2.5,0,1,1-5,0A2.36,2.36,0,0,1,68.63,39.7Zm0,4.46c1,0,1.43-.93,1.43-1.85s-.42-1.82-1.43-1.82-1.43.92-1.43,1.82S67.58,44.17,68.63,44.17Z"/><path class="cls-1" d="M72,41.13h.87V42h0a1.15,1.15,0,0,1,1-.94,1.06,1.06,0,0,1,.3,0v1a1,1,0,0,0-.44-.08C73,42,73,43,73,43.5v1.38H72Z"/><path class="cls-1" d="M78.26,41.13v3.39a1.76,1.76,0,0,1-2,2,3.31,3.31,0,0,1-1.3-.25l.08-.83a2.81,2.81,0,0,0,1.09.33c1.08,0,1.13-.81,1.13-1.46h0a1.34,1.34,0,0,1-1.17.6c-1.11,0-1.53-.89-1.53-1.9S75,41,76.16,41a1.25,1.25,0,0,1,1.15.6h0v-.51Zm-1,1.84c0-.64-.25-1.17-.82-1.17s-.88.61-.88,1.19.27,1.14.83,1.14S77.28,43.59,77.28,43Z"/><path class="cls-1" d="M79.43,41.32A3.37,3.37,0,0,1,80.74,41c1.15,0,1.62.47,1.62,1.58v.48c0,.38,0,.66,0,.94s0,.55,0,.84h-.86a4.38,4.38,0,0,1,0-.56h0a1.34,1.34,0,0,1-1.16.65A1.2,1.2,0,0,1,79,43.85a1.1,1.1,0,0,1,.64-1.07,3,3,0,0,1,1.26-.22h.54c0-.61-.27-.81-.85-.81a2,2,0,0,0-1.16.41Zm1.15,2.93a.83.83,0,0,0,.69-.34,1.25,1.25,0,0,0,.2-.77H81c-.44,0-1.09.07-1.09.65C80,44.12,80.23,44.26,80.58,44.26Z"/><path class="cls-1" d="M83.32,41.13h.93v.51h0a1.4,1.4,0,0,1,1.23-.6c.89,0,1.28.63,1.28,1.47v2.37h-1v-2c0-.46,0-1.08-.63-1.08s-.86.77-.86,1.25v1.84h-1Z"/><path class="cls-1" d="M87.8,39.51h1v.93h-1Zm0,1.62h1v3.76h-1Z"/><path class="cls-1" d="M89.65,41.13h3v.8l-1.87,2.2h1.93v.76H89.57v-.79l1.9-2.2H89.65Z"/><path class="cls-1" d="M93.62,41.32A3.36,3.36,0,0,1,94.93,41c1.15,0,1.62.47,1.62,1.58v.48c0,.38,0,.66,0,.94s0,.55,0,.84h-.86a4.38,4.38,0,0,1,0-.56h0a1.34,1.34,0,0,1-1.16.65,1.2,1.2,0,0,1-1.31-1.12,1.1,1.1,0,0,1,.64-1.07,3,3,0,0,1,1.26-.22h.54c0-.61-.27-.81-.85-.81a2,2,0,0,0-1.16.41Zm1.15,2.93a.83.83,0,0,0,.69-.34,1.25,1.25,0,0,0,.2-.77h-.42c-.44,0-1.09.07-1.09.65C94.15,44.12,94.42,44.26,94.77,44.26Z"/><path class="cls-1" d="M97.83,41.84h-.72v-.71h.72v-.75l1-.31v1.07h.87v.71h-.87v1.75c0,.32.09.62.46.62a.87.87,0,0,0,.45-.1l0,.77A2.56,2.56,0,0,1,99,45a1.1,1.1,0,0,1-1.19-1.22Z"/><path class="cls-1" d="M100.37,39.51h1v.93h-1Zm0,1.62h1v3.76h-1Z"/><path class="cls-1" d="M104.1,41a1.88,1.88,0,0,1,2,2,2,2,0,0,1-3.93,0A1.88,1.88,0,0,1,104.1,41Zm0,3.17c.75,0,.95-.67.95-1.3a1,1,0,1,0-1.89,0C103.16,43.53,103.35,44.21,104.1,44.21Z"/><path class="cls-1" d="M106.83,41.13h.93v.51h0A1.4,1.4,0,0,1,109,41c.89,0,1.28.63,1.28,1.47v2.37h-1v-2c0-.46,0-1.08-.63-1.08s-.86.77-.86,1.25v1.84h-1Z"/><path class="cls-1" d="M115,41a1.88,1.88,0,0,1,2,2,2,2,0,0,1-3.93,0A1.88,1.88,0,0,1,115,41Zm0,3.17c.75,0,.95-.67.95-1.3a1,1,0,1,0-1.89,0C114.1,43.53,114.3,44.21,115,44.21Z"/><path class="cls-1" d="M118.14,41.84h-.72v-.71h.72V40.6a1.15,1.15,0,0,1,1.2-1.28,3.43,3.43,0,0,1,.71.08l-.08.81a.76.76,0,0,0-.42-.13c-.33,0-.43.28-.43.58v.47H120v.71h-.85v3h-1Z"/><path class="cls-1" d="M122.64,39.79h1v5.09h-1Z"/><path class="cls-1" d="M124.67,41.13h.93v.51h0a1.4,1.4,0,0,1,1.23-.6c.89,0,1.28.63,1.28,1.47v2.37h-1v-2c0-.46,0-1.08-.63-1.08s-.86.77-.86,1.25v1.84h-1Z"/><path class="cls-1" d="M129.49,41.84h-.72v-.71h.72V40.6a1.15,1.15,0,0,1,1.2-1.28,3.43,3.43,0,0,1,.71.08l-.08.81a.76.76,0,0,0-.42-.13c-.33,0-.43.28-.43.58v.47h.85v.71h-.85v3h-1Z"/><path class="cls-1" d="M133.69,41a1.88,1.88,0,0,1,2,2,2,2,0,0,1-3.93,0A1.88,1.88,0,0,1,133.69,41Zm0,3.17c.75,0,.95-.67.95-1.3a1,1,0,1,0-1.89,0C132.75,43.53,132.95,44.21,133.69,44.21Z"/><path class="cls-1" d="M136.45,41.13h.87V42h0a1.15,1.15,0,0,1,1-.94,1.06,1.06,0,0,1,.3,0v1a1,1,0,0,0-.44-.08c-.79,0-.79,1-.79,1.53v1.38h-1Z"/><path class="cls-1" d="M139.25,41.13h.91v.52h0a1.32,1.32,0,0,1,1.12-.61,1.1,1.1,0,0,1,1.11.66,1.29,1.29,0,0,1,1.17-.66c.93,0,1.19.63,1.19,1.47v2.37h-1V42.64c0-.35,0-.85-.56-.85s-.73.77-.73,1.26v1.82h-1V42.64c0-.35,0-.85-.56-.85s-.73.77-.73,1.26v1.82h-1Z"/><path class="cls-1" d="M145.92,41.32a3.37,3.37,0,0,1,1.31-.28c1.15,0,1.62.47,1.62,1.58v.48c0,.38,0,.66,0,.94s0,.55,0,.84H148a4.38,4.38,0,0,1,0-.56h0a1.34,1.34,0,0,1-1.16.65,1.2,1.2,0,0,1-1.31-1.12,1.1,1.1,0,0,1,.64-1.07,3,3,0,0,1,1.26-.22H148c0-.61-.27-.81-.85-.81a2,2,0,0,0-1.16.41Zm1.15,2.93a.83.83,0,0,0,.69-.34,1.25,1.25,0,0,0,.2-.77h-.42c-.44,0-1.09.07-1.09.65C146.44,44.12,146.71,44.26,147.06,44.26Z"/><path class="cls-1" d="M150.13,41.84h-.72v-.71h.72v-.75l1-.31v1.07H152v.71h-.87v1.75c0,.32.09.62.46.62a.87.87,0,0,0,.45-.1l0,.77a2.56,2.56,0,0,1-.72.09,1.1,1.1,0,0,1-1.19-1.22Z"/><path class="cls-1" d="M152.67,39.51h1v.93h-1Zm0,1.62h1v3.76h-1Z"/><path class="cls-1" d="M156.39,41a1.88,1.88,0,0,1,2,2,2,2,0,0,1-3.93,0A1.88,1.88,0,0,1,156.39,41Zm0,3.17c.75,0,.95-.67.95-1.3a1,1,0,1,0-1.89,0C155.45,43.53,155.65,44.21,156.39,44.21Z"/><path class="cls-1" d="M159.13,41.13h.93v.51h0a1.4,1.4,0,0,1,1.23-.6c.89,0,1.28.63,1.28,1.47v2.37h-1v-2c0-.46,0-1.08-.63-1.08s-.86.77-.86,1.25v1.84h-1Z"/><path class="cls-1" d="M165.78,41.32a3.36,3.36,0,0,1,1.31-.28c1.15,0,1.62.47,1.62,1.58v.48c0,.38,0,.66,0,.94s0,.55,0,.84h-.86a4.38,4.38,0,0,1,0-.56h0a1.34,1.34,0,0,1-1.16.65,1.2,1.2,0,0,1-1.31-1.12,1.1,1.1,0,0,1,.64-1.07,3,3,0,0,1,1.26-.22h.54c0-.61-.27-.81-.85-.81a2,2,0,0,0-1.16.41Zm1.15,2.93a.83.83,0,0,0,.69-.34,1.25,1.25,0,0,0,.2-.77h-.42c-.44,0-1.09.07-1.09.65C166.31,44.12,166.58,44.26,166.93,44.26Z"/><path class="cls-1" d="M169.67,41.13h.93v.51h0a1.4,1.4,0,0,1,1.23-.6c.89,0,1.28.63,1.28,1.47v2.37h-1v-2c0-.46,0-1.08-.63-1.08s-.86.77-.86,1.25v1.84h-1Z"/><path class="cls-1" d="M176.63,44.46h0a1.4,1.4,0,0,1-1.15.51c-1.15,0-1.58-.95-1.58-2s.42-2,1.58-2a1.33,1.33,0,0,1,1.12.53h0V39.41h1v5.47h-.95Zm-.9-.25c.65,0,.86-.69.86-1.22s-.25-1.2-.87-1.2-.81.69-.81,1.2S175.09,44.21,175.74,44.21Z"/><path class="cls-1" d="M183.44,40.73a2.64,2.64,0,0,0-1-.22.71.71,0,0,0-.8.71c0,.88,2.23.51,2.23,2.22,0,1.12-.88,1.54-1.91,1.54a4.49,4.49,0,0,1-1.31-.2l.09-.92a2.46,2.46,0,0,0,1.15.31c.39,0,.9-.2.9-.66,0-1-2.23-.57-2.23-2.25,0-1.14.88-1.55,1.78-1.55a3.84,3.84,0,0,1,1.22.18Z"/><path class="cls-1" d="M186.23,43.87h0l.9-2.74h1l-1.41,3.73c-.31.83-.54,1.65-1.56,1.65a2.5,2.5,0,0,1-.69-.1l.07-.72a1.44,1.44,0,0,0,.5.07.61.61,0,0,0,.63-.67l-1.44-3.95h1.08Z"/><path class="cls-1" d="M191,41.91a2.41,2.41,0,0,0-.87-.16c-.26,0-.58.09-.58.42,0,.6,1.7.22,1.7,1.58,0,.88-.78,1.23-1.58,1.23a4.39,4.39,0,0,1-1.11-.16l.06-.8a2.14,2.14,0,0,0,1,.25c.25,0,.64-.09.64-.46,0-.74-1.7-.23-1.7-1.59,0-.81.71-1.17,1.47-1.17a4.51,4.51,0,0,1,1.06.14Z"/><path class="cls-1" d="M192.29,41.84h-.72v-.71h.72v-.75l1-.31v1.07h.87v.71h-.87v1.75c0,.32.09.62.46.62a.87.87,0,0,0,.45-.1l0,.77a2.56,2.56,0,0,1-.72.09,1.1,1.1,0,0,1-1.19-1.22Z"/><path class="cls-1" d="M197.82,44.67a2.58,2.58,0,0,1-1.29.3,1.78,1.78,0,0,1-2-1.95,1.76,1.76,0,0,1,1.74-2c1.39,0,1.79,1,1.79,2.27h-2.6a1,1,0,0,0,1.07.95,2.54,2.54,0,0,0,1.25-.38Zm-.66-2c0-.47-.25-.88-.79-.88a.85.85,0,0,0-.87.88Z"/><path class="cls-1" d="M198.85,41.13h.91v.52h0a1.32,1.32,0,0,1,1.12-.61,1.1,1.1,0,0,1,1.11.66,1.29,1.29,0,0,1,1.17-.66c.93,0,1.19.63,1.19,1.47v2.37h-1V42.64c0-.35,0-.85-.56-.85s-.73.77-.73,1.26v1.82h-1V42.64c0-.35,0-.85-.56-.85s-.73.77-.73,1.26v1.82h-1Z"/><path class="cls-1" d="M207.58,41.91a2.41,2.41,0,0,0-.87-.16c-.26,0-.58.09-.58.42,0,.6,1.7.22,1.7,1.58,0,.88-.78,1.23-1.58,1.23a4.39,4.39,0,0,1-1.11-.16l.06-.8a2.14,2.14,0,0,0,1,.25c.25,0,.64-.09.64-.46,0-.74-1.7-.23-1.7-1.59,0-.81.71-1.17,1.47-1.17a4.51,4.51,0,0,1,1.06.14Z"/></g></g></svg>