<svg xmlns="http://www.w3.org/2000/svg" viewBox="0 0 361.58 133.72"><defs><style>.cls-1{fill:#95b8bb;}.cls-2{fill:#003e8d;}</style></defs><title>about_logotype</title><g id="レイヤー_2" data-name="レイヤー 2"><g id="レイヤー_4" data-name="レイヤー 4"><rect class="cls-1" x="334.24" y="74.66" width="1.81" height="7.19"/><rect class="cls-1" x="338.64" y="76.37" width="1.46" height="7.19"/><rect class="cls-1" x="336.57" y="75.51" width="1.65" height="7.19"/><rect class="cls-1" x="331.71" y="73.8" width="1.94" height="7.19"/><rect class="cls-1" x="322.81" y="70.15" width="0.86" height="7.19"/><rect class="cls-1" x="340.44" y="77.22" width="1.23" height="7.19"/><rect class="cls-1" x="320.95" y="68.64" width="0.46" height="7.19"/><rect class="cls-1" x="318.75" y="65.81" width="0.25" height="7.19"/><rect class="cls-1" x="329.17" y="72.94" width="1.86" height="7.19"/><rect class="cls-1" x="324.77" y="71.19" width="1.22" height="7.19"/><rect class="cls-1" x="326.85" y="72.07" width="1.56" height="7.19"/><rect class="cls-1" x="343.04" y="78.94" width="0.63" height="7.19"/><path class="cls-1" d="M343.75,79.85V87c0-.11.23,0,.23,0V79.85Z"/><rect class="cls-1" x="341.92" y="78.08" width="0.95" height="7.19"/><path class="cls-1" d="M318.75,87a1.66,1.66,0,0,0,.27.85,4.18,4.18,0,0,0,.79.88,8.4,8.4,0,0,0,1.14.82c.45.29,1,.57,1.52.85s1.19.57,1.83.85,1.41.58,2.12.85,1.6.59,2.37.85c.93.32,1.82.61,2.58.85s1.64.53,2.57.85c.77.26,1.57.54,2.37.85s1.43.55,2.12.85,1.26.56,1.84.85a16.47,16.47,0,0,1,1.52.85,8.72,8.72,0,0,1,1.16.85,3.67,3.67,0,0,1,.76.85,1.57,1.57,0,0,1,.27.85V93.45a1.57,1.57,0,0,0-.27-.85,3.67,3.67,0,0,0-.76-.85,8.72,8.72,0,0,0-1.16-.85c-.46-.29-1-.57-1.52-.85s-1.2-.58-1.84-.85-1.41-.58-2.12-.85-1.6-.59-2.37-.85c-.93-.32-1.81-.61-2.57-.85s-1.65-.53-2.58-.85c-.77-.26-1.57-.55-2.37-.85s-1.43-.56-2.12-.85-1.25-.56-1.83-.85-1.07-.56-1.52-.85a8.4,8.4,0,0,1-1.14-.82,4.18,4.18,0,0,1-.79-.88,1.66,1.66,0,0,1-.27-.85Z"/><path class="cls-2" d="M344,100.64a1.6,1.6,0,0,1-.27.85,4.15,4.15,0,0,1-.79.88,10,10,0,0,1-1.13.82c-.46.29-1,.57-1.53.85s-1.19.57-1.83.85-1.41.58-2.12.85-1.6.58-2.37.85c-.93.32-1.81.6-2.57.85s-1.65.53-2.58.85c-.77.26-1.57.54-2.37.85s-1.43.55-2.12.84-1.25.56-1.83.85-1.07.57-1.53.85a9.71,9.71,0,0,0-1.16.86,3.91,3.91,0,0,0-.76.85,1.63,1.63,0,0,0-.27.84v-7.18a1.64,1.64,0,0,1,.27-.85,4.19,4.19,0,0,1,.76-.86,11,11,0,0,1,1.16-.85c.46-.28,1-.57,1.53-.85s1.19-.57,1.83-.84,1.41-.58,2.12-.85,1.6-.59,2.37-.85c.93-.32,1.82-.61,2.58-.85s1.64-.53,2.57-.85c.77-.26,1.57-.55,2.37-.85s1.43-.56,2.12-.85,1.26-.56,1.83-.85,1.07-.56,1.53-.85a10,10,0,0,0,1.13-.82,3.92,3.92,0,0,0,.79-.88,1.6,1.6,0,0,0,.27-.85Z"/><path class="cls-2" d="M344,87a1.57,1.57,0,0,1-.27.85,3.92,3.92,0,0,1-.79.88,8.93,8.93,0,0,1-1.13.82c-.46.29-1,.57-1.53.85s-1.19.57-1.83.85-1.41.58-2.12.85-1.6.59-2.37.85c-.93.32-1.81.61-2.57.85s-1.65.53-2.58.85c-.77.26-1.57.54-2.37.85s-1.43.55-2.12.85-1.25.56-1.83.85a16.68,16.68,0,0,0-1.53.85,8.72,8.72,0,0,0-1.16.85,3.91,3.91,0,0,0-.76.85,1.66,1.66,0,0,0-.27.85V93.45a1.66,1.66,0,0,1,.27-.85,3.91,3.91,0,0,1,.76-.85,8.72,8.72,0,0,1,1.16-.85c.46-.29,1-.57,1.53-.85s1.19-.58,1.83-.85,1.41-.58,2.12-.85,1.6-.59,2.37-.85c.93-.32,1.82-.61,2.58-.85s1.64-.53,2.57-.85c.77-.26,1.57-.55,2.37-.85s1.43-.56,2.12-.85,1.26-.56,1.83-.85,1.07-.56,1.53-.85a8.93,8.93,0,0,0,1.13-.82,3.92,3.92,0,0,0,.79-.88,1.57,1.57,0,0,0,.27-.85Z"/><rect class="cls-2" x="326.68" y="74.66" width="1.81" height="7.19"/><rect class="cls-2" x="322.64" y="76.37" width="1.46" height="7.19"/><rect class="cls-2" x="324.52" y="75.51" width="1.65" height="7.19"/><rect class="cls-2" x="329.09" y="73.8" width="1.94" height="7.19"/><rect class="cls-2" x="339.07" y="70.15" width="0.86" height="7.19"/><rect class="cls-2" x="321.07" y="77.22" width="1.23" height="7.19"/><rect class="cls-2" x="341.32" y="68.64" width="0.46" height="7.19"/><rect class="cls-2" x="343.73" y="65.81" width="0.25" height="7.19"/><rect class="cls-2" x="331.71" y="72.94" width="1.86" height="7.19"/><rect class="cls-2" x="336.74" y="71.19" width="1.22" height="7.19"/><rect class="cls-2" x="334.33" y="72.07" width="1.56" height="7.19"/><rect class="cls-2" x="319.06" y="78.94" width="0.63" height="7.19"/><path class="cls-2" d="M319,79.85V87c0-.11-.23,0-.23,0V79.85Z"/><rect class="cls-2" x="319.86" y="78.08" width="0.95" height="7.19"/><path class="cls-2" d="M303.56,119.09h4.24c4.27,0,7.67,2.64,7.67,7.07,0,4.82-2.92,7.32-7.67,7.32h-4.24Zm2.06,12.57h2.16c3.55,0,5.51-1.71,5.51-5.42A5,5,0,0,0,308,120.9h-2.41Z"/><path class="cls-2" d="M318.45,119.09h3.89c3,0,5.05,1,5.05,3.62,0,2-1.15,3-3,3.43v0a3.36,3.36,0,0,1,3.34,3.46c0,3.09-2.55,3.84-5.48,3.84h-3.83Zm2.06,6.14h1.13c2,0,3.69-.19,3.69-2.31,0-1.71-1.46-2.14-2.66-2.14h-2.16Zm0,6.55h1.54c1.86,0,3.53-.39,3.53-2.32,0-2.23-2-2.54-3.73-2.54h-1.34Z"/><path class="cls-2" d="M341.1,121.46a5.71,5.71,0,0,0-3-.81,5.63,5.63,0,0,0-.11,11.26,7.19,7.19,0,0,0,3.14-.7l.12,2a9,9,0,0,1-3.28.51c-4.55,0-7.58-2.92-7.58-7.5,0-4.43,3.21-7.38,7.6-7.38a7.83,7.83,0,0,1,3.24.62Z"/><path class="cls-2" d="M343.75,119.09h2.06v12.57h6v1.82h-8.08Z"/><path class="cls-2" d="M360.61,121.25a6.38,6.38,0,0,0-2.7-.6c-1.15,0-2.51.41-2.51,1.92,0,2.76,6.18,2.12,6.18,6.87,0,3.07-2.37,4.28-5.26,4.28a9.51,9.51,0,0,1-2.94-.6l.2-1.91a8.71,8.71,0,0,0,3,.7c1.18,0,2.83-.66,2.83-2.35,0-3.22-6.19-2.33-6.19-6.8,0-2.56,2-3.92,4.62-3.92a9.59,9.59,0,0,1,3.07.51Z"/><path class="cls-2" d="M41.81,117.64c-.43,3.75-1.82,6.54-8,7.17l-.45-1c3.57-.33,6.51-1.23,7.12-5.13H31.93v-1Zm-.68-2.93v1H32.82v-1Z"/><path class="cls-2" d="M50.25,124.89H49.08v-6a26.12,26.12,0,0,1-4.91,2.46l-.67-.94a20.89,20.89,0,0,0,9.09-6.11l1.08.72a32.71,32.71,0,0,1-3.42,3Z"/><path class="cls-2" d="M65.84,115.15c-.26,3-1.09,8.24-8,9.54l-.45-1c6.23-1.05,6.83-5.33,7.12-7.46H56.19v-1Z"/><path class="cls-2" d="M75.37,114.21h1.14v2.41H78.7v1H76.51V119a5.63,5.63,0,0,1-1.68,4.19,8.35,8.35,0,0,1-4.07,1.59l-.45-1c2.55-.33,5.06-1.18,5.06-4.72v-1.39H71.05V121H69.91v-3.37H67.76v-1h2.15v-2.35h1.14v2.35h4.32Z"/><path class="cls-2" d="M86.84,124.89H85.66v-6a25.77,25.77,0,0,1-4.91,2.46l-.67-.94a20.89,20.89,0,0,0,9.09-6.11l1.08.72a32.32,32.32,0,0,1-3.41,3Z"/><path class="cls-2" d="M102.27,115.34v1.06h-4v6.45H103v1.08H92.55v-1.08h4.58V116.4H93.25v-1.06Z"/><path class="cls-2" d="M108.62,117.82a13.91,13.91,0,0,0-3.76-1.8l.55-1a16,16,0,0,1,3.89,1.72Zm-3.7,5.48c3.45-.24,7.27-1.29,9.18-7.44l1.1.49c-1,2.82-2.57,7.39-9.85,8.16Z"/><path class="cls-2" d="M116.38,123.8a13.32,13.32,0,0,0,7.31-7.84H117v-1h8.18a14.22,14.22,0,0,1-2.43,5.1,52.75,52.75,0,0,1,4.26,3.78l-.9.91a39.7,39.7,0,0,0-4-3.86,13.68,13.68,0,0,1-5,3.87Z"/><path class="cls-2" d="M132.76,115.47a29.76,29.76,0,0,1-2.4,3.61c.51,0,1.06,0,1.56-.1a7.13,7.13,0,0,0-.33-.77l.78-.33a16.8,16.8,0,0,1,.95,2.19l-.88.36c-.05-.16-.16-.5-.22-.66l-1,.11v5.33h-.94v-5.27c-1.11.07-1.44.08-2,.1l-.06-.89,1,0c.38-.49.54-.72.69-.94a13.32,13.32,0,0,0-1.79-1.67l.5-.77.45.36a13.15,13.15,0,0,0,1.23-2.22l.89.34a20,20,0,0,1-1.43,2.49,6.92,6.92,0,0,1,.68.67c.79-1.22,1.13-1.84,1.36-2.28Zm-4.54,8.58a12.08,12.08,0,0,0,.61-3.23l.88.13a16.31,16.31,0,0,1-.6,3.42Zm4-.66a8.76,8.76,0,0,0-.47-2.42l.77-.22a8.63,8.63,0,0,1,.6,2.43Zm-.09,1c2.13-.89,2.39-2.29,2.42-4.59h1c-.08,2.64-.39,4.32-2.78,5.42Zm5.79-8a11.24,11.24,0,0,1,2,2.7l-.9.51a5.4,5.4,0,0,0-.33-.68c-2.41.25-3.68.33-5.41.41l-.09-1,.84,0a11.58,11.58,0,0,0,1-2.37H133V115h2.85v-1.16h1V115h2.91V116h-3.65a15.17,15.17,0,0,1-1.07,2.33c1,0,2.08-.1,3.1-.2a9.46,9.46,0,0,0-1.05-1.23Zm-.18,7.51c0,.16.06.26.31.26h.48c.2,0,.28-.1.31-.37s0-1.19,0-1.6l.92.31c0,2-.11,2.6-1,2.6h-1.16a.75.75,0,0,1-.85-.82v-4.49h1Z"/><path class="cls-2" d="M150,118.25h-6.22v-.9a13.51,13.51,0,0,1-2.14,1.14l-.59-1a10.91,10.91,0,0,0,5.29-3.73h1a12.47,12.47,0,0,0,5.34,3.73l-.57,1a12.85,12.85,0,0,1-2.12-1.14Zm1.25,1.38v5.58h-1v-.56h-6.68v.56h-1v-5.58Zm-1,.94h-6.68v3.16h6.68Zm-.27-3.25a14.51,14.51,0,0,1-3.1-2.72,11.54,11.54,0,0,1-3,2.72Z"/><path class="cls-2" d="M164.39,117.89v1h-4.11c0,3.81-1.74,5.29-5,6l-.45-1c2.82-.54,4.35-1.48,4.27-5h-4.93v-1Zm-2-3.17v1h-7.12v-1Zm.69,1a7.86,7.86,0,0,0-.55-1.79l.77-.19a7.3,7.3,0,0,1,.59,1.78Zm1.41-.16a10.81,10.81,0,0,0-.63-1.81l.72-.22a8.85,8.85,0,0,1,.65,1.79Z"/><path class="cls-2" d="M177.28,118.92v1.18H166.42v-1.18Z"/><path class="cls-2" d="M183,118.38a14.76,14.76,0,0,1,3.13,2,8.23,8.23,0,0,0,1.68-3.62h-4.71a10.09,10.09,0,0,1-3.32,3.14L179,119a9,9,0,0,0,4.14-4.86l1.17.22a12.21,12.21,0,0,1-.63,1.33h5.43c-.4,2.19-1.53,7.46-8.66,9.2l-.63-1a10.57,10.57,0,0,0,5.49-2.76,14.66,14.66,0,0,0-3.11-2Z"/><path class="cls-2" d="M190.81,120.23c.49-.53,2.5-3,2.94-3.47a2.15,2.15,0,0,1,1.52-.82c.38,0,.81,0,1.81,1l5.38,5.36-.9,1L196,117.54a1.25,1.25,0,0,0-.78-.44c-.41,0-.81.55-1.29,1.17-.3.41-1.63,2.24-1.92,2.6l-.32.35Zm8.95-3.06a13.38,13.38,0,0,0-1.24-1.74l.73-.46a14.28,14.28,0,0,1,1.26,1.66Zm1.52-.84a13.76,13.76,0,0,0-1.25-1.67l.7-.47a11.16,11.16,0,0,1,1.27,1.6Z"/><path class="cls-2" d="M214.77,118.92v1.18H203.91v-1.18Z"/><path class="cls-2" d="M216.39,123.8a13.31,13.31,0,0,0,7.3-7.84H217v-1h8.18a14.05,14.05,0,0,1-2.43,5.1,51.1,51.1,0,0,1,4.26,3.78l-.9.91a39.7,39.7,0,0,0-4-3.86,13.68,13.68,0,0,1-5.05,3.87Z"/><path class="cls-2" d="M239.1,116.5a6,6,0,0,1-3.71,5.16l-.69-.89a4.54,4.54,0,0,0,3-3.17l-5.16.42v4.12c0,1.15.17,1.41,1.64,1.41h2.47a14.3,14.3,0,0,0,2.26-.22v1.12a17.1,17.1,0,0,1-2.19.14H234c-2,0-2.66-.58-2.66-2.4v-4.08l-2.67.21-.08-1,2.75-.21V114.3h1.15V117Z"/><path class="cls-2" d="M244.75,117.82A13.64,13.64,0,0,0,241,116l.55-1a16.18,16.18,0,0,1,3.9,1.72Zm-3.7,5.48c3.45-.24,7.27-1.29,9.18-7.44l1.1.49c-1,2.82-2.57,7.39-9.85,8.16Z"/><path class="cls-2" d="M256.59,118.38a14.93,14.93,0,0,1,3.14,2,8.34,8.34,0,0,0,1.67-3.62h-4.71a10.1,10.1,0,0,1-3.31,3.14l-.71-.83a9,9,0,0,0,4.13-4.86l1.18.22c-.14.33-.3.69-.64,1.33h5.43c-.4,2.19-1.53,7.46-8.66,9.2l-.62-1a10.58,10.58,0,0,0,5.48-2.76,14.66,14.66,0,0,0-3.11-2Z"/><path class="cls-2" d="M275.67,118.92v1.18H264.8v-1.18Z"/><path class="cls-2" d="M34.58,94.74h.57v1.58h2.74v.53H35.24A4.16,4.16,0,0,0,38,100.13l-.36.54a4.54,4.54,0,0,1-2.69-3.08,4.73,4.73,0,0,1-2.74,3.07l-.31-.55a4,4,0,0,0,2.67-3.26H31.94v-.53h2.64Z"/><path class="cls-2" d="M43.51,97.26a6.82,6.82,0,0,1-1.63,1v.13h2.67v.5H41.88v1.26a.47.47,0,0,1-.52.5H40.19l-.11-.55h1.05c.2,0,.21-.05.21-.2v-1H38.61v-.5h2.73v-.53h.28a3.72,3.72,0,0,0,1-.61h-3v-.48h3.87Zm-.62-1.49a8.79,8.79,0,0,0,.48-1.06l.56.19a7.92,7.92,0,0,1-.45.87h.93v1.42h-.53v-.94H39.29v.94h-.53V95.77h.93a4.28,4.28,0,0,0-.44-.85l.47-.18a3.38,3.38,0,0,1,.5.91l-.32.12Zm-1.41,0a5.07,5.07,0,0,0-.48-.92l.49-.2a6.21,6.21,0,0,1,.49.94Z"/><path class="cls-2" d="M51,96.41H49.69V98.1h1.56v.52h-6V98.1h1.56V96.41H45.5v-.52h1.35V94.75h.53v1.14h1.78V94.75h.53v1.14H51Zm-3.47,2.78a5.39,5.39,0,0,1-1.77,1.54l-.41-.45a4.35,4.35,0,0,0,1.71-1.35Zm1.6-2.78H47.38V98.1h1.78Zm1.59,4.32A6.94,6.94,0,0,1,49,99.2l.44-.29a6.1,6.1,0,0,0,1.7,1.36Z"/><path class="cls-2" d="M57.67,100.12c0,.39-.16.57-.65.57H56.1l-.09-.54h.89c.13,0,.22,0,.22-.2V95.47H52.77v5.22h-.55V95h5.45Zm-.85-4v.47H53.05v-.47Zm-.42,1.07V99.5H53.45V97.15Zm-.5.47H54V99H55.9Z"/><path class="cls-2" d="M60.59,96.46h1.15V97H60.61a5,5,0,0,0,1,1.39l-.28.47a4.84,4.84,0,0,1-.79-1.15v3h-.54V97.77a5.55,5.55,0,0,1-1.22,1.77L58.58,99A6.09,6.09,0,0,0,60,97H58.65v-.5h1.4v-.93c-.44,0-.88.08-1.22.1l-.11-.49a11.39,11.39,0,0,0,2.81-.42l.22.47a9.58,9.58,0,0,1-1.16.26Zm2.13,2.91h-.55V95.22h.55Zm1.7.77a.53.53,0,0,1-.59.56h-1l-.11-.57.92,0c.19,0,.23,0,.23-.2V94.74h.57Z"/><path class="cls-2" d="M70.92,100.16c0,.47-.29.54-.51.54h-.86l-.07-.53h.75c.11,0,.15-.08.15-.18V98.71H68.65v1.93h-.51V98.71H66.48a3.55,3.55,0,0,1-.83,2l-.36-.47a2.69,2.69,0,0,0,.51-.92A5.35,5.35,0,0,0,66,98V95h4.91Zm-2.78-3.07h-1.6v.8a2.39,2.39,0,0,1,0,.34h1.61Zm0-1.58h-1.6v1.1h1.6Zm2.24,0H68.65v1.1h1.73Zm0,1.58H68.65v1.14h1.73Z"/><path class="cls-2" d="M76.24,95.28l.13.11a7.2,7.2,0,0,0,.42-.67l.39.15a6.08,6.08,0,0,1-.54.78l.27.28.48-.65.34.18a13.83,13.83,0,0,1-1.07,1.35l.75-.06-.12-.32.36-.15a6.84,6.84,0,0,1,.34,1l-.4.17c0-.17,0-.23-.07-.32l-.72.08a5,5,0,0,1,.58.36l-.23.28H78v.45H76.22a4.23,4.23,0,0,0,.29,1,3.16,3.16,0,0,0,.63-.79l.44.21a4.11,4.11,0,0,1-.82,1c.22.35.4.5.5.5s.22-.17.37-.79l.41.31c-.17.66-.34,1-.75,1s-.83-.52-.94-.68a5.24,5.24,0,0,1-1.36.65l-.22-.45a3.84,3.84,0,0,0,1.35-.63,6,6,0,0,1-.4-1.33H74.48c0,.15,0,.18,0,.41a4.23,4.23,0,0,1,1.07.65l-.28.41a4.1,4.1,0,0,0-.82-.6,2.76,2.76,0,0,1-.58,1.57l-.38-.37A3.07,3.07,0,0,0,74,98.26h-.26v-.38l-.25.36a3.91,3.91,0,0,1-.3-.66v3.12H72.7V97.78a5.39,5.39,0,0,1-.52,1.46l-.27-.63a6.13,6.13,0,0,0,.76-2.14H72V96h.69V94.73h.48V96h.51v.49h-.51v.28a4.37,4.37,0,0,0,.59,1.06h1.86a21.08,21.08,0,0,1-.23-3.08h.52a18.11,18.11,0,0,0,.1,2.1h.13c.16-.17.4-.46.49-.57a4.83,4.83,0,0,0-.67-.68Zm-1.18,1.13a4.69,4.69,0,0,1,.34,1l-.4.14a2,2,0,0,0-.06-.28l-1.37.12L73.51,97h.18c.09-.09.23-.26.54-.65a7.55,7.55,0,0,0-.73-.7l.28-.3.15.12a4.06,4.06,0,0,0,.5-.7l.39.15a4.68,4.68,0,0,1-.61.8,3.71,3.71,0,0,1,.28.3c.32-.4.39-.53.49-.67l.34.21c-.32.45-.87,1.14-1.13,1.42.22,0,.38,0,.64,0-.06-.18-.09-.25-.13-.35Zm1.67.76-.67,0c0,.16.06.42.08.59h.92c-.08,0-.34-.22-.56-.34Z"/><path class="cls-2" d="M81.33,94.94V97h-1.9v3.68h-.5V94.94Zm-.5.4h-1.4v.45h1.4Zm0,.81h-1.4v.48h1.4ZM83,100.38a2.73,2.73,0,0,1-1.32-1.17,2.45,2.45,0,0,1-1.54,1.27l-.26-.44a2,2,0,0,0,1.35-.93H79.84V98.7h1.5a2,2,0,0,0,0-.5H80v-.41h.72c-.1-.24-.15-.34-.24-.52l.5-.09a5.65,5.65,0,0,1,.22.61h.9a5.22,5.22,0,0,0,.19-.59l.5.06a3.34,3.34,0,0,1-.21.53h.74v.41H81.88a3.71,3.71,0,0,1-.06.5h1.64v.41H82.05a2.28,2.28,0,0,0,1.15.84Zm1.43-5.44v5.28a.44.44,0,0,1-.45.48h-.69l-.14-.51h.6c.12,0,.17,0,.17-.22V97H82V94.94Zm-.51.4h-1.4v.45h1.4Zm0,.81h-1.4v.48h1.4Z"/><path class="cls-2" d="M85.28,100.19a8.86,8.86,0,0,0,1.22-2.11l.43.32a11.1,11.1,0,0,1-1.3,2.29Zm1.06-2.58a3.66,3.66,0,0,0-1-.68l.26-.45a3.92,3.92,0,0,1,1.12.67Zm.31-1.69a4.41,4.41,0,0,0-1.1-.71l.29-.43a4.5,4.5,0,0,1,1.14.66ZM90,98.47a9.13,9.13,0,0,1,1.31,2l-.5.27a3.73,3.73,0,0,0-.26-.55,24.2,24.2,0,0,1-3.56.3l-.08-.52h.48a11.38,11.38,0,0,0,.93-2.09H87v-.49h1.87V96.2h-1.6v-.49h1.6v-1h.54v1h1.68v.49H89.4v1.21h1.91v.49H88.92A18.61,18.61,0,0,1,88,100c.61,0,1.62-.07,2.33-.17a7.77,7.77,0,0,0-.75-1.06Z"/><path class="cls-2" d="M95.31,94.75v.78a6.25,6.25,0,0,0,.63,2.64,4.78,4.78,0,0,0,2.16,2l-.38.51A5.11,5.11,0,0,1,95,97.09a4.86,4.86,0,0,1-2.73,3.58l-.36-.5A4.44,4.44,0,0,0,94.22,98a7.3,7.3,0,0,0,.52-2.43v-.77Z"/><path class="cls-2" d="M101.65,96.05a6.27,6.27,0,0,1-.23,1.8l-.42-.22a4.88,4.88,0,0,0,.23-1.6Zm.78-1.31v6h-.53v-6Zm.33,2a4.76,4.76,0,0,0-.29-.8l.39-.15a6.49,6.49,0,0,1,.31.78Zm2.55-.78h1.51v.39h-1.51v.44h1.76v.41h-4v-.41h1.76v-.44h-1.46V96h1.46v-.43h-1.62v-.41h1.62v-.4h.52v.4h1.63v.41h-1.63Zm1.46,4.13c0,.44-.09.59-.61.59h-.68l-.1-.48h.72c.16,0,.16-.12.16-.2v-.46h-2.39v1.14h-.52V97.57h3.42ZM106.26,98h-2.39v.4h2.39Zm0,.79h-2.39v.4h2.39Z"/><path class="cls-2" d="M109.57,94.74v.55h1.1v.48h-1.1v.68h1.26v.46h-.4c-.06.3-.17.72-.22.9h.57v.48h-1.21V99h1.1v.48h-1.1v1.18h-.51V99.52H108V99h1.1v-.75h-1.21v-.48h.61a6.39,6.39,0,0,0-.24-.9h-.42v-.46h1.26v-.68H108v-.48h1.1v-.55Zm.15,3.07a4.45,4.45,0,0,0,.19-.9h-1.19a6.8,6.8,0,0,1,.21.9Zm3.78,2.89a4.59,4.59,0,0,1-.82-.79,3.68,3.68,0,0,1-.73.77l-.32-.43a3.22,3.22,0,0,0,.73-.77,5,5,0,0,1-.68-1.43l.45-.14a7.11,7.11,0,0,0,.51,1.11,5,5,0,0,0,.41-1.32h-1.53v3H111V94.94h2.48a5.7,5.7,0,0,1-.17,1.66c0,.1-.14.29-.54.29h-.71l-.09-.5h.63c.28,0,.35-.1.39-1h-1.49v1.81h2.08a5.74,5.74,0,0,1-.63,2.22,5.8,5.8,0,0,0,.83.76Z"/><path class="cls-2" d="M115.73,97.72a.55.55,0,1,1-.55-.55A.55.55,0,0,1,115.73,97.72Z"/><path class="cls-2" d="M118.62,97.85a7.39,7.39,0,0,0-1.82-.76l.26-.52a7.35,7.35,0,0,1,1.83.74Zm-1.49,1.82c2.66-.18,3.75-1.31,4.49-3.59l.54.24c-.81,2.27-1.81,3.65-4.89,4Zm2-3.31a8.64,8.64,0,0,0-1.87-.76l.26-.49a7.63,7.63,0,0,1,1.87.72Z"/><path class="cls-2" d="M122.82,100a7,7,0,0,0,3.84-4.12h-3.5v-.55h4.29A7.61,7.61,0,0,1,126.18,98a26.08,26.08,0,0,1,2.23,2l-.47.48a19.6,19.6,0,0,0-2.11-2,7.21,7.21,0,0,1-2.65,2Z"/><path class="cls-2" d="M134.62,96.86v.56h-2.18a2.79,2.79,0,0,1-2.61,3.09l-.25-.5a2.29,2.29,0,0,0,2.24-2.59h-2.56v-.56Zm-.53-1.68v.55h-4.3v-.55Z"/><path class="cls-2" d="M139.42,97.29a13.17,13.17,0,0,1,1.67,2.93l-.62.26c-.06-.18-.1-.31-.23-.62-.85.12-2.45.28-4.68.38l-.06-.62h.6A37,37,0,0,0,137.53,95l.7.09a41.68,41.68,0,0,1-1.5,4.5c2-.08,3.07-.19,3.29-.21a11.87,11.87,0,0,0-1.1-1.85Z"/><path class="cls-2" d="M143.93,96.82v3.24h-1.17v.51h-.47V98a2.3,2.3,0,0,1-.35.43l-.23-.57a3.68,3.68,0,0,0,.84-2.39h-.75V95H144v.5h-1a6,6,0,0,1-.24,1.34Zm-.46.46h-.71v2.3h.71Zm3.51-.17h.75v.5H147v3.08h-.52V97.61h-1V98a3.72,3.72,0,0,1-.88,2.7l-.46-.38a2.47,2.47,0,0,0,.6-1,5.36,5.36,0,0,0,.21-1.4v-.35h-.68v-.5h.68V95.48h-.58V95h3.32v.5H147Zm-.52-1.63h-1v1.63h1Z"/><path class="cls-2" d="M148.44,100.21c1.85-.47,2.11-1.39,2.22-1.84h-1.87v-.5h2a5.08,5.08,0,0,0,.05-.71h.53a7,7,0,0,1-.06.71h1.8v2.07c0,.13,0,.17.16.17h.43c.21,0,.23-.18.25-.92l.49.12c0,1-.08,1.3-.53,1.3H153c-.47,0-.47-.34-.47-.53V98.37h-1.38c-.11.48-.4,1.71-2.49,2.36Zm3.85-3c-.33,0-.5-.08-.5-.44v-1h-.91c-.12.53-.41,1.3-2,1.74l-.19-.49c1.25-.25,1.54-.86,1.66-1.25h-1.22v.79h-.52V95.29h2.53v-.55h.52v.55h2.55v1.16H154c0,.57-.15.8-.52.8Zm1.44-.88v-.6h-1.47v.86c0,.09,0,.16.17.16h.86c.21,0,.22-.14.24-.47Z"/><path class="cls-2" d="M159.38,95.28l.12.11a6.14,6.14,0,0,0,.43-.67l.39.15a7.32,7.32,0,0,1-.54.78,3.58,3.58,0,0,1,.26.28c.37-.48.4-.53.49-.65l.34.18a13.83,13.83,0,0,1-1.07,1.35l.74-.06a2,2,0,0,0-.12-.32l.37-.15a6.84,6.84,0,0,1,.34,1l-.4.17a1.81,1.81,0,0,0-.08-.32l-.72.08a4.86,4.86,0,0,1,.59.36l-.23.28h.81v.45h-1.74a3.76,3.76,0,0,0,.29,1,2.87,2.87,0,0,0,.62-.79l.45.21a4.35,4.35,0,0,1-.82,1c.21.35.4.5.5.5s.22-.17.37-.79l.41.31c-.17.66-.35,1-.76,1s-.83-.52-.93-.68a5.26,5.26,0,0,1-1.37.65l-.22-.45a3.69,3.69,0,0,0,1.35-.63,6.52,6.52,0,0,1-.39-1.33h-1.24c0,.15,0,.18,0,.41a4.61,4.61,0,0,1,1.07.65l-.28.41a4.1,4.1,0,0,0-.82-.6,2.76,2.76,0,0,1-.58,1.57l-.38-.37a3.12,3.12,0,0,0,.51-2.07h-.27v-.38l-.24.36a3.91,3.91,0,0,1-.3-.66v3.12h-.48V97.78a5.39,5.39,0,0,1-.52,1.46l-.27-.63a5.83,5.83,0,0,0,.75-2.14h-.65V96h.69V94.73h.48V96h.51v.49h-.51v.28a4.05,4.05,0,0,0,.59,1.06h1.86a19.77,19.77,0,0,1-.23-3.08h.51a19.81,19.81,0,0,0,.11,2.1h.13c.16-.17.39-.46.49-.57a5.5,5.5,0,0,0-.67-.68Zm-1.18,1.13a4,4,0,0,1,.33,1l-.39.14c0-.12,0-.18-.06-.28l-1.37.12-.06-.41h.18c.09-.09.23-.26.54-.65a7.55,7.55,0,0,0-.73-.7l.28-.3.15.12a4.06,4.06,0,0,0,.5-.7l.39.15a5.26,5.26,0,0,1-.61.8,3.71,3.71,0,0,1,.28.3c.32-.4.39-.53.49-.67l.34.21c-.32.45-.88,1.14-1.13,1.42.22,0,.38,0,.64,0a2.27,2.27,0,0,0-.14-.35Zm1.67.76-.67,0c0,.16.05.42.08.59h.92c-.08,0-.34-.22-.56-.34Z"/><path class="cls-2" d="M163.64,98.42a6.57,6.57,0,0,1-.48-.84v3.11h-.5v-3a5.59,5.59,0,0,1-.72,1.56l-.24-.68a4.71,4.71,0,0,0,.92-2.12h-.79V96h.83V94.74h.5V96h.66v.47h-.66v.24A4.39,4.39,0,0,0,164,98Zm1.89-1.26h-1.78v-.39h1V96.3h-.66v-.37h.66v-.41h-.85v-.4h.85v-.38h.46v.38h1.11v-.38h.47v.38h.82v.4h-.82v.41h.62v.37h-.62v.47h1v.39H166v.39h1.41v1.68h.39v.4h-.39v.6c0,.29-.09.46-.49.46h-.77l-.06-.49h.65c.17,0,.2,0,.2-.17v-.4h-2.3v1.06h-.46V99.63h-.49v-.4h.49V97.55h1.38Zm0,.77h-.92v.46h.92Zm0,.82h-.92v.48h.92Zm.79-3.23h-1.11v.41h1.11Zm0,.78h-1.11v.47h1.11ZM166,98.39h.94v-.46H166Zm0,.84h.94v-.48H166Z"/><path class="cls-2" d="M37.4,105.84v.54H35.25a2.8,2.8,0,0,1-2.62,3.13l-.24-.52c1.48-.28,2.28-.78,2.25-2.61H32.05v-.54Zm-1-1.66v.52H32.63v-.52Zm.36.53a3.57,3.57,0,0,0-.29-.93l.41-.11a4.32,4.32,0,0,1,.31.94Zm.74-.08a5.5,5.5,0,0,0-.33-.95l.38-.12a4,4,0,0,1,.34.94Z"/><path class="cls-2" d="M44.17,106.38V107h-5.7v-.62Z"/><path class="cls-2" d="M47.16,106.1a8,8,0,0,1,1.64,1,4.36,4.36,0,0,0,.88-1.9H47.21a5.38,5.38,0,0,1-1.74,1.65l-.37-.44a4.73,4.73,0,0,0,2.17-2.55l.61.12a6.23,6.23,0,0,1-.33.69H50.4a5.59,5.59,0,0,1-4.55,4.83l-.32-.51a5.44,5.44,0,0,0,2.87-1.45,7,7,0,0,0-1.63-1.06Z"/><path class="cls-2" d="M55.45,103.91h.6v1.27H57.2v.55H56.05v.72a2.94,2.94,0,0,1-.88,2.2,4.48,4.48,0,0,1-2.14.83l-.24-.55c1.35-.17,2.66-.61,2.66-2.48v-.72H53.19v1.76h-.6v-1.76H51.46v-.55h1.13v-1.24h.6v1.24h2.26Z"/><path class="cls-2" d="M61.47,109.52h-.61v-3.17a14.13,14.13,0,0,1-2.58,1.29l-.35-.5a11,11,0,0,0,4.77-3.2l.56.37a16.43,16.43,0,0,1-1.79,1.6Z"/><path class="cls-2" d="M69.57,104.5v.56H67.5v3.39h2.43V109H64.47v-.56h2.4v-3.39h-2v-.56Z"/><path class="cls-2" d="M72.9,105.81a7.07,7.07,0,0,0-2-1l.29-.51a8.21,8.21,0,0,1,2,.9ZM71,108.68c1.81-.12,3.82-.68,4.82-3.9l.58.25a5.51,5.51,0,0,1-5.17,4.29Z"/><path class="cls-2" d="M77,109a7,7,0,0,0,3.83-4.12h-3.5v-.55H81.6A7.28,7.28,0,0,1,80.33,107a26.2,26.2,0,0,1,2.24,2l-.48.48a19.6,19.6,0,0,0-2.11-2,7.13,7.13,0,0,1-2.65,2Z"/><path class="cls-2" d="M89,105.41H87.7v1.69h1.56v.52h-6v-.52h1.56v-1.69H83.51v-.52h1.35v-1.14h.53v1.14h1.78v-1.14h.53v1.14H89Zm-3.47,2.78a5.39,5.39,0,0,1-1.77,1.54l-.41-.45a4.28,4.28,0,0,0,1.71-1.35Zm1.6-2.78H85.39v1.69h1.78Zm1.59,4.32A6.94,6.94,0,0,1,87,108.2l.44-.29a6.25,6.25,0,0,0,1.7,1.36Z"/><path class="cls-2" d="M95.68,109.12c0,.39-.16.57-.65.57h-.92l-.09-.54h.89c.13,0,.22,0,.22-.2v-4.48H90.78v5.22h-.55V104h5.45Zm-.85-4v.47H91.07v-.47Zm-.42,1.07v2.35h-3v-2.35Zm-.5.47H92V108h1.94Z"/><path class="cls-2" d="M98.61,105.46h1.15v.5H98.62a5.19,5.19,0,0,0,1,1.39l-.28.47a4.5,4.5,0,0,1-.78-1.15v3h-.55v-2.93a5.69,5.69,0,0,1-1.21,1.77L96.6,108a6.18,6.18,0,0,0,1.4-2H96.66v-.5h1.4v-.93c-.44,0-.88.08-1.22.1l-.11-.49a11.39,11.39,0,0,0,2.81-.42l.22.47a9.27,9.27,0,0,1-1.15.26Zm2.12,2.91h-.54v-4.15h.54Zm1.7.77a.53.53,0,0,1-.59.56h-1l-.11-.57.92,0c.19,0,.23,0,.23-.2v-5.21h.57Z"/><path class="cls-2" d="M108.93,109.16c0,.47-.29.54-.51.54h-.86l-.07-.53h.76c.1,0,.14-.08.14-.18v-1.29h-1.73v1.93h-.51v-1.93h-1.66a3.62,3.62,0,0,1-.82,2l-.37-.47a2.54,2.54,0,0,0,.51-.92A5.35,5.35,0,0,0,104,107v-3h4.91Zm-2.78-3.07h-1.6v.8a2.39,2.39,0,0,1,0,.34h1.61Zm0-1.58h-1.6v1.1h1.6Zm2.24,0h-1.73v1.1h1.73Zm0,1.58h-1.73v1.14h1.73Z"/><path class="cls-2" d="M115.83,104.63h-.93v2h1v.45h-1.26a3.27,3.27,0,0,0,1.32,1l-.28.45a4.54,4.54,0,0,1-1.63-1.48h-2.2a4.11,4.11,0,0,1-1.67,1.48l-.27-.44a3.26,3.26,0,0,0,1.35-1H110v-.45h1.08v-2h-.93v-.45h.93v-.44h.52v.44h2.75v-.44h.53v.44h.93Zm-3.1,4.38v-.75h-1.4v-.45h1.4v-.53h.52v.53h1.43v.45h-1.43V109h2.47v.46h-5.46V109Zm1.64-4.38h-2.75V105h2.75Zm0,.78h-2.75v.4h2.75Zm0,.77h-2.75v.45h2.75Z"/><path class="cls-2" d="M118.29,106.76h-.38v-.86l-.41,0a2.7,2.7,0,0,1-.52,1.68l-.38-.38a2.27,2.27,0,0,0,.45-1.27l-.35,0v-.43h.38v-1.37h.75s.09-.29.13-.44h.52c-.07.23-.08.27-.14.43h.89v1.19l.26,0v.4l-.26,0V107c0,.3-.13.44-.47.44h-.55l-.11-.47h.52c.11,0,.17,0,.17-.16v-1l-.49.05Zm4.35,2.76H116.7v-.46h.53v-1.37h4.86v1.37h.55Zm-5.12-4,1.26-.1v-.84h-1.26Zm1.17,2.62h-1v.93h1Zm-.52-2.74a6,6,0,0,0-.42-.52l.34-.25a6.24,6.24,0,0,1,.41.52Zm2,2.74h-1v.93h1Zm2.34-.63A5.88,5.88,0,0,1,121,107a6.06,6.06,0,0,1-1.39.53l-.23-.47a4.27,4.27,0,0,0,1.17-.34,3.05,3.05,0,0,1-.65-.6l.38-.24a2.84,2.84,0,0,0,.72.61,3.19,3.19,0,0,0,.73-.63h-2v-.4h2.65v.4a3.51,3.51,0,0,1-.88.87,5.1,5.1,0,0,0,1.26.31Zm-.64-2.92c0,.1,0,.15.12.15h.12c.07,0,.15,0,.17-.48l.43.11c0,.46-.13.76-.47.76h-.52c-.26,0-.33-.14-.33-.32v-.5h-.88a1.13,1.13,0,0,1-.72,1l-.26-.36c.43-.24.51-.45.52-1h1.82Zm-.24,3.55h-1v.93h1Z"/><path class="cls-2" d="M127.11,103.79a3.14,3.14,0,0,1-.24.61h2.43v.48h-2.73a4.42,4.42,0,0,1-.76.83l-.32-.4.26-.22h-1.29v.85h1.14a15.8,15.8,0,0,1-.22,3.46c-.07.14-.18.29-.62.29h-.49l-.1-.52h.51c.11,0,.21,0,.27-.17a19.22,19.22,0,0,0,.14-2.56h-.63v.12a5.33,5.33,0,0,1-.79,3.1l-.37-.42a4.44,4.44,0,0,0,.67-2.69v-1.46h-.58v-.49h.93v-.84h.52v.84h.92v.48a3.59,3.59,0,0,0,.84-1.36Zm.28,2.31v-1h.48V106l1.21-.31a13,13,0,0,1-.07,2.11c0,.18-.16.32-.54.32h-.39l-.08-.49h.36c.11,0,.2,0,.22-.23s0-.79,0-1.09l-.72.18v2.08h-.48v-2l-.66.17v2c0,.28.09.31.32.31h1.36c.3,0,.4,0,.4-.79l.5.15c-.05.9-.12,1.13-.68,1.13h-1.78c-.33,0-.62-.07-.62-.51v-2.19l-.38.1-.09-.46.47-.12v-.91h.5v.78Z"/><path class="cls-2" d="M132.46,104.84v.46H130v-.46Zm-.22-.91v.46h-2v-.46Zm0,1.81v.46h-2v-.46Zm0,.91v.47h-2v-.47Zm0,.93v1.83h-1.52v.29h-.47v-2.12Zm-.47.43h-1.05v1h1.05Zm4.1,1.69a5.28,5.28,0,0,1-1.67-.82,4.5,4.5,0,0,1-1.68.82l-.27-.5a4.34,4.34,0,0,0,1.54-.65,3.41,3.41,0,0,1-.88-1.24l.44-.19a3,3,0,0,0,.82,1.12,3.77,3.77,0,0,0,.9-1.27h-2.44v-.5h3v.5a4.09,4.09,0,0,1-1,1.57,5.75,5.75,0,0,0,1.52.65Zm-.8-5.77v1.42a.15.15,0,0,0,.16.17h.15c.09,0,.12,0,.15-.15a6.58,6.58,0,0,0,.08-.7l.48.12c0,1.19-.34,1.23-.57,1.23H135a.38.38,0,0,1-.43-.41v-1.19h-1a2,2,0,0,1-.75,1.78l-.38-.39a1.74,1.74,0,0,0,.64-1.59,2.62,2.62,0,0,0,0-.29Z"/><rect class="cls-1" x="15.49" y="94.14" width="1.81" height="7.19"/><rect class="cls-1" x="19.89" y="95.85" width="1.46" height="7.19"/><rect class="cls-1" x="17.82" y="95" width="1.65" height="7.19"/><rect class="cls-1" x="12.96" y="93.29" width="1.94" height="7.19"/><rect class="cls-1" x="4.06" y="89.64" width="0.86" height="7.19"/><rect class="cls-1" x="21.69" y="96.71" width="1.23" height="7.19"/><rect class="cls-1" x="2.2" y="88.13" width="0.46" height="7.19"/><rect class="cls-1" y="85.3" width="0.25" height="7.19"/><rect class="cls-1" x="10.42" y="92.43" width="1.86" height="7.19"/><rect class="cls-1" x="6.02" y="90.68" width="1.23" height="7.19"/><rect class="cls-1" x="8.1" y="91.56" width="1.56" height="7.19"/><rect class="cls-1" x="24.29" y="98.42" width="0.63" height="7.19"/><path class="cls-1" d="M25,99.34v7.19c0-.11.23,0,.23,0V99.34Z"/><rect class="cls-1" x="23.17" y="97.57" width="0.95" height="7.19"/><path class="cls-1" d="M0,106.53a1.69,1.69,0,0,0,.27.85,4.18,4.18,0,0,0,.79.88,10.22,10.22,0,0,0,1.14.82c.45.29,1,.57,1.52.85s1.19.57,1.83.85,1.41.58,2.12.85,1.6.58,2.37.85c.93.32,1.82.6,2.58.85s1.64.52,2.57.85c.77.26,1.57.54,2.37.85s1.43.55,2.12.85,1.26.56,1.83.85a15.46,15.46,0,0,1,1.53.85,7.92,7.92,0,0,1,1.16.85,3.85,3.85,0,0,1,.76.84,1.6,1.6,0,0,1,.27.85v-7.18a1.55,1.55,0,0,0-.27-.85,3.67,3.67,0,0,0-.76-.85,8.72,8.72,0,0,0-1.16-.85,15.46,15.46,0,0,0-1.53-.85c-.57-.29-1.19-.58-1.83-.85s-1.41-.58-2.12-.85-1.6-.59-2.37-.85c-.93-.32-1.81-.61-2.57-.85s-1.65-.53-2.58-.85c-.77-.27-1.57-.55-2.37-.85s-1.43-.56-2.12-.85-1.26-.56-1.83-.85-1.07-.56-1.52-.85a9.08,9.08,0,0,1-1.14-.82,4.18,4.18,0,0,1-.79-.88A1.69,1.69,0,0,1,0,99.34Z"/><path class="cls-2" d="M25.23,120.12A1.55,1.55,0,0,1,25,121a3.72,3.72,0,0,1-.79.88,9,9,0,0,1-1.13.83c-.46.28-1,.57-1.53.84s-1.19.58-1.83.85-1.41.58-2.12.85-1.6.59-2.37.85c-.93.32-1.81.61-2.57.85s-1.65.53-2.58.85c-.77.26-1.57.55-2.37.85s-1.43.56-2.12.85-1.26.56-1.83.85-1.07.56-1.53.85A9.71,9.71,0,0,0,1,132a4.16,4.16,0,0,0-.76.85,1.69,1.69,0,0,0-.27.85v-7.19a1.69,1.69,0,0,1,.27-.85,4.16,4.16,0,0,1,.76-.85A9.71,9.71,0,0,1,2.19,124c.46-.29,1-.57,1.53-.85s1.19-.57,1.83-.85,1.41-.58,2.12-.85,1.6-.58,2.37-.85c.93-.32,1.82-.6,2.58-.85s1.64-.53,2.57-.85c.77-.26,1.57-.54,2.37-.85s1.43-.55,2.12-.84,1.26-.56,1.83-.85,1.07-.57,1.53-.85a11.48,11.48,0,0,0,1.13-.82,4,4,0,0,0,.79-.89,1.54,1.54,0,0,0,.27-.84Z"/><path class="cls-2" d="M25.23,106.53a1.6,1.6,0,0,1-.27.85,3.92,3.92,0,0,1-.79.88,10,10,0,0,1-1.13.82c-.46.29-1,.57-1.53.85s-1.19.57-1.83.85-1.41.58-2.12.85-1.6.58-2.37.85c-.93.32-1.81.6-2.57.85s-1.65.52-2.58.85c-.77.26-1.57.54-2.37.85s-1.43.55-2.12.85-1.26.56-1.83.85a16.68,16.68,0,0,0-1.53.85,7.92,7.92,0,0,0-1.16.85,4.12,4.12,0,0,0-.76.84,1.69,1.69,0,0,0-.27.85v-7.18a1.64,1.64,0,0,1,.27-.85,3.91,3.91,0,0,1,.76-.85,8.72,8.72,0,0,1,1.16-.85,16.68,16.68,0,0,1,1.53-.85c.57-.29,1.19-.58,1.83-.85s1.41-.58,2.12-.85,1.6-.59,2.37-.85c.93-.32,1.82-.61,2.58-.85s1.64-.53,2.57-.85c.77-.27,1.57-.55,2.37-.85s1.43-.56,2.12-.85,1.26-.56,1.83-.85,1.07-.56,1.53-.85a8.93,8.93,0,0,0,1.13-.82,3.92,3.92,0,0,0,.79-.88,1.6,1.6,0,0,0,.27-.85Z"/><rect class="cls-2" x="7.93" y="94.14" width="1.81" height="7.19"/><rect class="cls-2" x="3.89" y="95.85" width="1.46" height="7.19"/><rect class="cls-2" x="5.77" y="95" width="1.65" height="7.19"/><rect class="cls-2" x="10.33" y="93.29" width="1.94" height="7.19"/><rect class="cls-2" x="20.32" y="89.64" width="0.86" height="7.19"/><rect class="cls-2" x="2.32" y="96.71" width="1.23" height="7.19"/><rect class="cls-2" x="22.57" y="88.13" width="0.46" height="7.19"/><rect class="cls-2" x="24.98" y="85.3" width="0.25" height="7.19"/><rect class="cls-2" x="12.96" y="92.43" width="1.86" height="7.19"/><rect class="cls-2" x="17.99" y="90.68" width="1.23" height="7.19"/><rect class="cls-2" x="15.58" y="91.56" width="1.56" height="7.19"/><rect class="cls-2" x="0.31" y="98.42" width="0.63" height="7.19"/><path class="cls-2" d="M.23,99.34v7.19c0-.11-.23,0-.23,0V99.34Z"/><rect class="cls-2" x="1.11" y="97.57" width="0.95" height="7.19"/><path class="cls-2" d="M35,2.71h5.5c5.54,0,10,3.43,10,9.17,0,6.26-3.8,9.49-10,9.49H35ZM37.68,19h2.81c4.6,0,7.14-2.22,7.14-7a6.51,6.51,0,0,0-6.82-6.92H37.68Z"/><path class="cls-2" d="M54.31,2.71h5.06c3.87,0,6.55,1.26,6.55,4.71,0,2.57-1.5,3.85-3.85,4.44v.05A4.36,4.36,0,0,1,66.4,16.4c0,4-3.32,5-7.11,5h-5Zm2.68,8h1.47c2.59,0,4.78-.24,4.78-3,0-2.22-1.9-2.78-3.45-2.78H57Zm0,8.5h2c2.41,0,4.57-.51,4.57-3,0-2.89-2.54-3.29-4.84-3.29H57Z"/><path class="cls-2" d="M83.7,5.79a7.47,7.47,0,0,0-3.85-1A6.92,6.92,0,0,0,72.68,12a7,7,0,0,0,7,7.3,9.11,9.11,0,0,0,4.07-.91l.16,2.6a11.87,11.87,0,0,1-4.25.67c-5.91,0-9.84-3.8-9.84-9.74,0-5.74,4.17-9.57,9.86-9.57a10.27,10.27,0,0,1,4.2.81Z"/><path class="cls-2" d="M87.12,2.71h2.67V19H97.6v2.35H87.12Z"/><path class="cls-2" d="M109,5.52a8.26,8.26,0,0,0-3.5-.77c-1.5,0-3.26.53-3.26,2.48,0,3.58,8,2.76,8,8.9,0,4-3.08,5.57-6.82,5.57a12.5,12.5,0,0,1-3.82-.78l.26-2.49a11.24,11.24,0,0,0,3.88.91c1.52,0,3.66-.85,3.66-3.05,0-4.17-8-3-8-8.82,0-3.31,2.62-5.08,6-5.08a12.65,12.65,0,0,1,4,.67Z"/><rect class="cls-1" x="15.49" y="8.85" width="1.81" height="7.19"/><rect class="cls-1" x="19.89" y="10.56" width="1.46" height="7.19"/><rect class="cls-1" x="17.82" y="9.7" width="1.65" height="7.19"/><rect class="cls-1" x="12.96" y="7.99" width="1.94" height="7.19"/><rect class="cls-1" x="4.06" y="4.34" width="0.86" height="7.19"/><rect class="cls-1" x="21.69" y="11.41" width="1.23" height="7.19"/><rect class="cls-1" x="2.2" y="2.84" width="0.46" height="7.19"/><rect class="cls-1" width="0.25" height="7.19"/><rect class="cls-1" x="10.42" y="7.13" width="1.86" height="7.19"/><rect class="cls-1" x="6.02" y="5.38" width="1.22" height="7.19"/><rect class="cls-1" x="8.1" y="6.26" width="1.56" height="7.19"/><rect class="cls-1" x="24.29" y="13.13" width="0.63" height="7.19"/><path class="cls-1" d="M25,14v7.19c0-.11.23,0,.23,0V14Z"/><rect class="cls-1" x="23.17" y="12.27" width="0.95" height="7.19"/><path class="cls-1" d="M0,21.23a1.66,1.66,0,0,0,.27.85,4,4,0,0,0,.79.88,8.4,8.4,0,0,0,1.14.82c.45.29,1,.57,1.52.85s1.19.57,1.83.85,1.41.58,2.12.85,1.6.59,2.37.85c.93.32,1.82.61,2.58.85s1.64.53,2.57.85c.77.26,1.57.55,2.37.85s1.43.55,2.12.85,1.26.56,1.84.85,1.06.56,1.52.85a8.72,8.72,0,0,1,1.16.85A3.88,3.88,0,0,1,25,34a1.57,1.57,0,0,1,.27.85V27.64a1.57,1.57,0,0,0-.27-.85,3.88,3.88,0,0,0-.76-.85A8.72,8.72,0,0,0,23,25.09c-.46-.29-1-.57-1.52-.85s-1.2-.58-1.84-.85-1.41-.58-2.12-.85S16,22,15.19,21.69c-.93-.32-1.81-.61-2.57-.85S11,20.31,10,20c-.77-.26-1.57-.55-2.37-.85s-1.43-.55-2.12-.85-1.26-.56-1.83-.85-1.07-.56-1.52-.85a8.4,8.4,0,0,1-1.14-.82,4,4,0,0,1-.79-.88A1.66,1.66,0,0,1,0,14Z"/><path class="cls-2" d="M25.23,34.83a1.6,1.6,0,0,1-.27.85,3.92,3.92,0,0,1-.79.88,10,10,0,0,1-1.13.82c-.46.29-1,.57-1.53.85s-1.19.57-1.83.85-1.41.58-2.12.85-1.6.59-2.37.85c-.93.32-1.81.6-2.57.85s-1.65.53-2.58.85c-.77.26-1.57.54-2.37.85s-1.43.55-2.12.85-1.26.55-1.83.85a16.68,16.68,0,0,0-1.53.85A8.72,8.72,0,0,0,1,46.73a3.91,3.91,0,0,0-.76.85,1.64,1.64,0,0,0-.27.85V41.24a1.64,1.64,0,0,1,.27-.85A3.91,3.91,0,0,1,1,39.54a8.72,8.72,0,0,1,1.16-.85,16.68,16.68,0,0,1,1.53-.85c.57-.3,1.19-.58,1.83-.85s1.41-.58,2.12-.85,1.6-.59,2.37-.85c.93-.32,1.82-.61,2.58-.85s1.64-.53,2.57-.85c.77-.26,1.57-.55,2.37-.85s1.43-.56,2.12-.85,1.26-.56,1.83-.85,1.07-.56,1.53-.85a10,10,0,0,0,1.13-.82,3.92,3.92,0,0,0,.79-.88,1.6,1.6,0,0,0,.27-.85Z"/><path class="cls-2" d="M25.23,21.23a1.57,1.57,0,0,1-.27.85,3.72,3.72,0,0,1-.79.88,8.93,8.93,0,0,1-1.13.82c-.46.29-1,.57-1.53.85s-1.19.57-1.83.85-1.41.58-2.12.85-1.6.59-2.37.85c-.93.32-1.81.61-2.57.85s-1.65.53-2.58.85c-.77.26-1.57.55-2.37.85s-1.43.55-2.12.85-1.26.56-1.83.85-1.07.56-1.53.85A8.72,8.72,0,0,0,1,33.13,4.16,4.16,0,0,0,.27,34a1.66,1.66,0,0,0-.27.85V27.64a1.66,1.66,0,0,1,.27-.85A4.16,4.16,0,0,1,1,25.94a8.72,8.72,0,0,1,1.16-.85c.46-.29,1-.57,1.53-.85s1.19-.58,1.83-.85,1.41-.58,2.12-.85S9.27,22,10,21.69c.93-.32,1.82-.61,2.58-.85s1.64-.53,2.57-.85c.77-.26,1.57-.55,2.37-.85s1.43-.55,2.12-.85,1.26-.56,1.83-.85,1.07-.56,1.53-.85a8.93,8.93,0,0,0,1.13-.82,3.72,3.72,0,0,0,.79-.88,1.57,1.57,0,0,0,.27-.85Z"/><rect class="cls-2" x="7.93" y="8.85" width="1.81" height="7.19"/><rect class="cls-2" x="3.89" y="10.56" width="1.46" height="7.19"/><rect class="cls-2" x="5.77" y="9.7" width="1.65" height="7.19"/><rect class="cls-2" x="10.33" y="7.99" width="1.94" height="7.19"/><rect class="cls-2" x="20.32" y="4.34" width="0.86" height="7.19"/><rect class="cls-2" x="2.32" y="11.41" width="1.23" height="7.19"/><rect class="cls-2" x="22.57" y="2.84" width="0.46" height="7.19"/><rect class="cls-2" x="24.98" width="0.25" height="7.19"/><rect class="cls-2" x="12.96" y="7.13" width="1.86" height="7.19"/><rect class="cls-2" x="17.99" y="5.38" width="1.22" height="7.19"/><rect class="cls-2" x="15.58" y="6.26" width="1.56" height="7.19"/><rect class="cls-2" x="0.31" y="13.13" width="0.63" height="7.19"/><path class="cls-2" d="M.23,14v7.19c0-.11-.23,0-.23,0V14Z"/><rect class="cls-2" x="1.11" y="12.27" width="0.95" height="7.19"/><path class="cls-2" d="M35.69,24.48h1.44a2.39,2.39,0,0,1,2.6,2.4,2.31,2.31,0,0,1-2.6,2.49H35.69Zm.7,4.27h.73A1.64,1.64,0,0,0,39,26.91a1.7,1.7,0,0,0-1.78-1.81h-.82Z"/><path class="cls-2" d="M41.08,26.05a2.23,2.23,0,0,1,1.17-.34c1,0,1.44.51,1.44,1.48v1.48a4.58,4.58,0,0,0,0,.7H43.1v-.46h0a1.36,1.36,0,0,1-1.11.54c-.77,0-1.31-.33-1.31-1.11s1-1.18,1.66-1.18c.26,0,.44,0,.7,0,0-.62-.22-.94-.88-.94a1.67,1.67,0,0,0-1,.37Zm2,1.62-.42,0c-.36,0-1.24.06-1.24.69a.63.63,0,0,0,.67.58A.9.9,0,0,0,43,28Z"/><path class="cls-2" d="M46.89,26.33h-1v2a.57.57,0,0,0,.56.64.72.72,0,0,0,.44-.13v.56a1.75,1.75,0,0,1-.56.1c-.68,0-1.1-.32-1.1-1V26.33h-.8V25.8h.8V25l.66-.21v1h1Z"/><path class="cls-2" d="M47.93,26.05a2.24,2.24,0,0,1,1.18-.34c1,0,1.43.51,1.43,1.48v1.48a6.61,6.61,0,0,0,0,.7H50v-.46h0a1.35,1.35,0,0,1-1.11.54c-.77,0-1.31-.33-1.31-1.11s1-1.18,1.66-1.18c.26,0,.44,0,.7,0,0-.62-.22-.94-.88-.94a1.67,1.67,0,0,0-1,.37Zm2,1.62-.42,0c-.35,0-1.24.06-1.24.69a.63.63,0,0,0,.67.58.9.9,0,0,0,1-.94Z"/><path class="cls-2" d="M51.84,24.11h.66v2.18h0a1.29,1.29,0,0,1,1.19-.58,1.6,1.6,0,0,1,1.54,1.81c0,1-.46,1.93-1.54,1.93a1.41,1.41,0,0,1-1.21-.59h0v.51h-.63Zm1.72,2.13c-.72,0-1.06.68-1.06,1.35s.31,1.33,1,1.33,1-.79,1-1.35S54.27,26.24,53.56,26.24Z"/><path class="cls-2" d="M56.48,26.05a2.23,2.23,0,0,1,1.17-.34c1,0,1.44.51,1.44,1.48v1.48a4.58,4.58,0,0,0,0,.7H58.5v-.46h0a1.36,1.36,0,0,1-1.11.54c-.77,0-1.31-.33-1.31-1.11s1-1.18,1.66-1.18c.26,0,.44,0,.7,0,0-.62-.22-.94-.88-.94a1.67,1.67,0,0,0-1,.37Zm2,1.62-.42,0c-.36,0-1.24.06-1.24.69a.63.63,0,0,0,.67.58.9.9,0,0,0,1-.94Z"/><path class="cls-2" d="M60.12,28.67a1.73,1.73,0,0,0,.82.25c.3,0,.67-.13.67-.51,0-.65-1.54-.6-1.54-1.6,0-.74.55-1.1,1.26-1.1a2.66,2.66,0,0,1,.82.14l-.06.58a2,2,0,0,0-.69-.19c-.34,0-.63.14-.63.44,0,.73,1.54.52,1.54,1.66a1.12,1.12,0,0,1-1.24,1.11,2,2,0,0,1-1-.19Z"/><path class="cls-2" d="M65.9,29.22a2.75,2.75,0,0,1-1.13.23,1.71,1.71,0,0,1-1.85-1.93,1.66,1.66,0,0,1,1.68-1.81c1.19,0,1.57.87,1.57,2H63.62a1.17,1.17,0,0,0,1.18,1.19,2.06,2.06,0,0,0,1.1-.36Zm-.43-2a.9.9,0,0,0-.89-1,1,1,0,0,0-1,1Z"/><path class="cls-2" d="M72.68,25.28a2,2,0,0,0-1-.27,1.92,1.92,0,0,0,0,3.83,2.55,2.55,0,0,0,1.07-.24l0,.68a3.15,3.15,0,0,1-1.12.17,2.4,2.4,0,0,1-2.57-2.55,2.43,2.43,0,0,1,2.58-2.5,2.6,2.6,0,0,1,1.1.21Z"/><path class="cls-2" d="M76.44,29.22a2.75,2.75,0,0,1-1.13.23,1.71,1.71,0,0,1-1.84-1.93,1.66,1.66,0,0,1,1.67-1.81c1.19,0,1.58.87,1.58,2H74.17a1.16,1.16,0,0,0,1.17,1.19,2,2,0,0,0,1.1-.36Zm-.43-2a.9.9,0,0,0-.88-1,1,1,0,0,0-1,1Z"/><path class="cls-2" d="M77.78,25.8h.64v.56h0a1.28,1.28,0,0,1,1.16-.65c.93,0,1.34.58,1.34,1.54v2.12h-.66V27.52c0-.83-.18-1.24-.75-1.28-.75,0-1.09.61-1.09,1.47v1.66h-.66Z"/><path class="cls-2" d="M84.15,26.33h-1v2a.57.57,0,0,0,.56.64.72.72,0,0,0,.44-.13v.56a1.75,1.75,0,0,1-.56.1c-.68,0-1.1-.32-1.1-1V26.33h-.8V25.8h.8V25l.66-.21v1h1Z"/><path class="cls-2" d="M87.9,29.22a2.75,2.75,0,0,1-1.13.23,1.71,1.71,0,0,1-1.85-1.93,1.66,1.66,0,0,1,1.68-1.81c1.19,0,1.57.87,1.57,2H85.62a1.17,1.17,0,0,0,1.18,1.19,2.06,2.06,0,0,0,1.1-.36Zm-.43-2a.9.9,0,0,0-.89-1,1,1,0,0,0-1,1Z"/><path class="cls-2" d="M89.1,25.8h.62v.55h0a1.11,1.11,0,0,1,.93-.64,1.78,1.78,0,0,1,.44.05v.59a1,1,0,0,0-.37-.06c-.58,0-1,.56-1,1.45v1.63H89.1Z"/><path class="cls-2" d="M94.58,26.33h-.84V25.8h.84v-.33c0-.87.22-1.44,1.19-1.44a3,3,0,0,1,.45,0l0,.54a1,1,0,0,0-.32-.05c-.56,0-.64.37-.64.85v.39h1v.53h-1v3h-.65Z"/><path class="cls-2" d="M98.65,25.71a1.76,1.76,0,0,1,1.81,1.87,1.82,1.82,0,1,1-3.64,0A1.77,1.77,0,0,1,98.65,25.71Zm0,3.21a1.2,1.2,0,0,0,1.11-1.34,1.14,1.14,0,1,0-2.24,0A1.2,1.2,0,0,0,98.65,28.92Z"/><path class="cls-2" d="M101.53,25.8h.61v.55h0a1.08,1.08,0,0,1,.93-.64,1.69,1.69,0,0,1,.43.05v.59a.94.94,0,0,0-.36-.06c-.59,0-1,.56-1,1.45v1.63h-.66Z"/><path class="cls-2" d="M106.63,24.48h.7v4.27h2v.62h-2.75Z"/><path class="cls-2" d="M111.05,25h-.74v-.74h.74Zm-.7.8H111v3.57h-.66Z"/><path class="cls-2" d="M112.83,26.33H112V25.8h.84v-.33c0-.87.22-1.44,1.19-1.44a2.76,2.76,0,0,1,.44,0l0,.54a1,1,0,0,0-.32-.05c-.57,0-.64.37-.64.85v.39h1v.53h-1v3h-.65Z"/><path class="cls-2" d="M118.05,29.22a2.75,2.75,0,0,1-1.13.23,1.71,1.71,0,0,1-1.85-1.93,1.66,1.66,0,0,1,1.68-1.81c1.19,0,1.57.87,1.57,2h-2.55A1.17,1.17,0,0,0,117,28.92a2.06,2.06,0,0,0,1.1-.36Zm-.43-2a.9.9,0,0,0-.89-1,1,1,0,0,0-1,1Z"/><path class="cls-2" d="M123.81,25.21a2.15,2.15,0,0,0-.92-.2c-.39,0-.85.14-.85.65,0,.94,2.1.72,2.1,2.33,0,1.05-.81,1.46-1.79,1.46a3.42,3.42,0,0,1-1-.2l.07-.65a2.94,2.94,0,0,0,1,.24.88.88,0,0,0,1-.8c0-1.1-2.1-.79-2.1-2.31,0-.87.68-1.33,1.56-1.33a3.25,3.25,0,0,1,1,.17Z"/><path class="cls-2" d="M127.48,26.4a1.8,1.8,0,0,0-.71-.16,1.23,1.23,0,0,0-1.15,1.34,1.21,1.21,0,0,0,1.19,1.34,1.39,1.39,0,0,0,.71-.2l0,.58a2,2,0,0,1-.83.15,1.81,1.81,0,0,1-1.82-1.87,1.77,1.77,0,0,1,1.82-1.87,2.38,2.38,0,0,1,.8.14Z"/><path class="cls-2" d="M129.3,25h-.74v-.74h.74Zm-.7.8h.66v3.57h-.66Z"/><path class="cls-2" d="M133.39,29.22a2.8,2.8,0,0,1-1.13.23,1.71,1.71,0,0,1-1.85-1.93,1.66,1.66,0,0,1,1.67-1.81c1.19,0,1.58.87,1.58,2h-2.55a1.17,1.17,0,0,0,1.18,1.19,2.06,2.06,0,0,0,1.1-.36Zm-.43-2a.9.9,0,0,0-.89-1,1,1,0,0,0-1,1Z"/><path class="cls-2" d="M134.73,25.8h.64v.56h0a1.3,1.3,0,0,1,1.17-.65c.92,0,1.34.58,1.34,1.54v2.12h-.66V27.52c0-.83-.18-1.24-.76-1.28-.75,0-1.08.61-1.08,1.47v1.66h-.66Z"/><path class="cls-2" d="M141.46,26.4a1.8,1.8,0,0,0-.71-.16,1.22,1.22,0,0,0-1.15,1.34,1.21,1.21,0,0,0,1.19,1.34,1.39,1.39,0,0,0,.71-.2l.05.58a2,2,0,0,1-.83.15,1.81,1.81,0,0,1-1.82-1.87,1.77,1.77,0,0,1,1.82-1.87,2.38,2.38,0,0,1,.8.14Z"/><path class="cls-2" d="M145.23,29.22a2.75,2.75,0,0,1-1.13.23,1.71,1.71,0,0,1-1.85-1.93,1.66,1.66,0,0,1,1.68-1.81c1.19,0,1.57.87,1.57,2H143a1.17,1.17,0,0,0,1.18,1.19,2.06,2.06,0,0,0,1.1-.36Zm-.43-2a.9.9,0,0,0-.89-1,1,1,0,0,0-1,1Z"/><path class="cls-2" d="M35.25,36.23a1.48,1.48,0,0,0,.44.07c.63,0,.8-.36.8-1v-3.4h.7v3.63a1.22,1.22,0,0,1-1.37,1.34,1.86,1.86,0,0,1-.57-.08Z"/><path class="cls-2" d="M40.16,33.17A1.76,1.76,0,0,1,42,35a1.82,1.82,0,1,1-3.63,0A1.77,1.77,0,0,1,40.16,33.17Zm0,3.21A1.2,1.2,0,0,0,41.27,35,1.13,1.13,0,1,0,39,35,1.2,1.2,0,0,0,40.16,36.38Z"/><path class="cls-2" d="M43.83,32.46h-.74v-.74h.74Zm-.7.8h.66v3.57h-.66Z"/><path class="cls-2" d="M45.18,33.26h.63v.56h0A1.3,1.3,0,0,1,47,33.17c.92,0,1.34.58,1.34,1.54v2.12h-.66V35c0-.83-.18-1.24-.76-1.28-.75,0-1.08.61-1.08,1.47v1.66h-.66Z"/><path class="cls-2" d="M51.54,33.79H50.6v2a.56.56,0,0,0,.55.64.78.78,0,0,0,.45-.13v.56a1.81,1.81,0,0,1-.56.1c-.68,0-1.1-.32-1.1-1V33.79h-.81v-.53h.81v-.83l.66-.21v1h.94Z"/><path class="cls-2" d="M56.55,32.67a2.11,2.11,0,0,0-.91-.2c-.4,0-.86.14-.86.65,0,.94,2.1.72,2.1,2.33,0,1-.8,1.46-1.78,1.46a3.35,3.35,0,0,1-1-.2l.07-.65a2.83,2.83,0,0,0,1,.24.88.88,0,0,0,1-.8c0-1.1-2.1-.79-2.1-2.31,0-.87.69-1.33,1.57-1.33a3.19,3.19,0,0,1,1,.17Z"/><path class="cls-2" d="M61.12,36.83h-.64v-.57h0a1.28,1.28,0,0,1-1.17.65c-.93,0-1.34-.57-1.34-1.53V33.26h.66v1.85c0,.83.18,1.23.75,1.27.75,0,1.09-.6,1.09-1.47V33.26h.66Z"/><path class="cls-2" d="M62.57,33.26h.63v.5h0a1.42,1.42,0,0,1,1.21-.59c1,0,1.54.85,1.54,1.81s-.45,1.93-1.53,1.93a1.27,1.27,0,0,1-1.19-.57h0v2h-.65Zm1.71.44c-.71,0-1.06.68-1.06,1.35s.31,1.33,1,1.33,1-.79,1-1.35S65,33.7,64.28,33.7Z"/><path class="cls-2" d="M67,33.26h.63v.5h0a1.41,1.41,0,0,1,1.21-.59A1.6,1.6,0,0,1,70.43,35c0,1-.46,1.93-1.54,1.93a1.28,1.28,0,0,1-1.19-.57h0v2H67Zm1.72.44c-.72,0-1.06.68-1.06,1.35s.31,1.33,1,1.33,1-.79,1-1.35S69.46,33.7,68.75,33.7Z"/><path class="cls-2" d="M73.08,33.17A1.77,1.77,0,0,1,74.9,35a1.82,1.82,0,1,1-3.64,0A1.77,1.77,0,0,1,73.08,33.17Zm0,3.21A1.2,1.2,0,0,0,74.19,35,1.13,1.13,0,1,0,72,35,1.2,1.2,0,0,0,73.08,36.38Z"/><path class="cls-2" d="M76,33.26h.62v.55h0a1.11,1.11,0,0,1,.94-.64,1.75,1.75,0,0,1,.43,0v.59a.94.94,0,0,0-.36-.06c-.59,0-1,.56-1,1.45v1.63H76Z"/><path class="cls-2" d="M80.91,33.79H80v2a.56.56,0,0,0,.55.64.75.75,0,0,0,.45-.13v.56a1.81,1.81,0,0,1-.56.1c-.68,0-1.1-.32-1.1-1V33.79H78.5v-.53h.81v-.83l.66-.21v1h.94Z"/><path class="cls-2" d="M82.05,34.68h1.8v.53h-1.8Z"/><path class="cls-2" d="M88.73,32.74a2,2,0,0,0-1-.27,1.92,1.92,0,0,0,0,3.83,2.55,2.55,0,0,0,1.07-.24l0,.68a3.13,3.13,0,0,1-1.11.17,2.41,2.41,0,0,1-2.58-2.55,2.43,2.43,0,0,1,2.58-2.5,2.75,2.75,0,0,1,1.1.2Z"/><path class="cls-2" d="M92.49,36.68a2.75,2.75,0,0,1-1.13.23A1.71,1.71,0,0,1,89.52,35a1.66,1.66,0,0,1,1.67-1.81c1.19,0,1.58.87,1.58,2H90.22a1.16,1.16,0,0,0,1.17,1.19,2,2,0,0,0,1.1-.36Zm-.43-2a.9.9,0,0,0-.88-1,1,1,0,0,0-1,1Z"/><path class="cls-2" d="M93.83,33.26h.64v.56h0a1.28,1.28,0,0,1,1.16-.65c.93,0,1.34.58,1.34,1.54v2.12h-.66V35c0-.83-.18-1.24-.75-1.28-.75,0-1.09.61-1.09,1.47v1.66h-.66Z"/><path class="cls-2" d="M100.2,33.79h-1v2a.57.57,0,0,0,.56.64.78.78,0,0,0,.45-.13v.56a1.88,1.88,0,0,1-.57.1,1,1,0,0,1-1.09-1V33.79h-.81v-.53h.81v-.83l.65-.21v1h1Z"/><path class="cls-2" d="M104,36.68a2.75,2.75,0,0,1-1.13.23A1.71,1.71,0,0,1,101,35a1.66,1.66,0,0,1,1.68-1.81c1.19,0,1.57.87,1.57,2h-2.55a1.17,1.17,0,0,0,1.18,1.19A2,2,0,0,0,104,36Zm-.43-2a.9.9,0,0,0-.89-1,1,1,0,0,0-1,1Z"/><path class="cls-2" d="M105.29,33.26h.62v.55h0a1.11,1.11,0,0,1,.93-.64,1.78,1.78,0,0,1,.44,0v.59a.94.94,0,0,0-.36-.06c-.59,0-1,.56-1,1.45v1.63h-.66Z"/><path class="cls-2" d="M110.21,33.79h-.84v-.53h.84v-.33c0-.87.22-1.44,1.2-1.44a3,3,0,0,1,.44,0l0,.53a1.39,1.39,0,0,0-.32,0c-.56,0-.63.37-.63.85v.39h.94v.53h-.94v3h-.66Z"/><path class="cls-2" d="M114.28,33.17A1.76,1.76,0,0,1,116.09,35a1.82,1.82,0,1,1-3.64,0A1.77,1.77,0,0,1,114.28,33.17Zm0,3.21A1.2,1.2,0,0,0,115.39,35a1.14,1.14,0,1,0-2.24,0A1.2,1.2,0,0,0,114.28,36.38Z"/><path class="cls-2" d="M117.16,33.26h.61v.55h0a1.08,1.08,0,0,1,.93-.64,1.69,1.69,0,0,1,.43,0v.59a.91.91,0,0,0-.36-.06c-.59,0-1,.56-1,1.45v1.63h-.66Z"/><path class="cls-2" d="M121.81,31.94h1.44a2.39,2.39,0,0,1,2.6,2.4,2.31,2.31,0,0,1-2.6,2.49h-1.44Zm.7,4.27h.73a1.64,1.64,0,0,0,1.87-1.84,1.7,1.7,0,0,0-1.78-1.81h-.82Z"/><path class="cls-2" d="M127.2,33.51a2.23,2.23,0,0,1,1.17-.34c1,0,1.44.51,1.44,1.48v1.48a4.58,4.58,0,0,0,0,.7h-.62v-.46h0a1.36,1.36,0,0,1-1.11.54c-.77,0-1.31-.33-1.31-1.11s1-1.18,1.66-1.18c.26,0,.44,0,.7,0,0-.62-.22-.94-.88-.94a1.67,1.67,0,0,0-1,.37Zm2,1.62-.42,0c-.36,0-1.24.06-1.24.69a.63.63,0,0,0,.67.58.9.9,0,0,0,1-.94Z"/><path class="cls-2" d="M133,33.79h-.95v2a.57.57,0,0,0,.56.64.72.72,0,0,0,.44-.13v.56a1.75,1.75,0,0,1-.56.1c-.68,0-1.1-.32-1.1-1V33.79h-.8v-.53h.8v-.83l.66-.21v1H133Z"/><path class="cls-2" d="M134.47,33.51a2.24,2.24,0,0,1,1.18-.34c1,0,1.43.51,1.43,1.48v1.48a6.61,6.61,0,0,0,0,.7h-.62v-.46h0a1.35,1.35,0,0,1-1.11.54c-.77,0-1.31-.33-1.31-1.11s1-1.18,1.66-1.18c.26,0,.44,0,.7,0,0-.62-.22-.94-.88-.94a1.67,1.67,0,0,0-1,.37Zm1.95,1.62-.42,0c-.35,0-1.24.06-1.24.69a.63.63,0,0,0,.67.58.9.9,0,0,0,1-.94Z"/><path class="cls-2" d="M142.8,32.67a2.15,2.15,0,0,0-.92-.2c-.39,0-.85.14-.85.65,0,.94,2.1.72,2.1,2.33,0,1-.81,1.46-1.79,1.46a3.42,3.42,0,0,1-1-.2l.07-.65a2.94,2.94,0,0,0,1,.24.88.88,0,0,0,1-.8c0-1.1-2.1-.79-2.1-2.31,0-.87.68-1.33,1.56-1.33a3.25,3.25,0,0,1,1.05.17Z"/><path class="cls-2" d="M146.61,33.86a1.8,1.8,0,0,0-.71-.16A1.23,1.23,0,0,0,144.75,35a1.21,1.21,0,0,0,1.19,1.34,1.39,1.39,0,0,0,.71-.2l0,.58a2,2,0,0,1-.83.15A1.81,1.81,0,0,1,144.05,35a1.77,1.77,0,0,1,1.82-1.87,2.38,2.38,0,0,1,.8.14Z"/><path class="cls-2" d="M148.71,32.46H148v-.74h.74Zm-.7.8h.66v3.57H148Z"/><path class="cls-2" d="M152.94,36.68a2.75,2.75,0,0,1-1.13.23A1.71,1.71,0,0,1,150,35a1.66,1.66,0,0,1,1.67-1.81c1.19,0,1.58.87,1.58,2h-2.55a1.17,1.17,0,0,0,1.18,1.19,2.06,2.06,0,0,0,1.1-.36Zm-.43-2a.9.9,0,0,0-.89-1,1,1,0,0,0-1,1Z"/><path class="cls-2" d="M154.28,33.26h.64v.56h0a1.3,1.3,0,0,1,1.17-.65c.92,0,1.34.58,1.34,1.54v2.12h-.66V35c0-.83-.18-1.24-.76-1.28-.75,0-1.08.61-1.08,1.47v1.66h-.66Z"/><path class="cls-2" d="M161,33.86a1.8,1.8,0,0,0-.71-.16A1.22,1.22,0,0,0,159.15,35a1.21,1.21,0,0,0,1.19,1.34,1.39,1.39,0,0,0,.71-.2l0,.58a2,2,0,0,1-.83.15A1.81,1.81,0,0,1,158.45,35a1.77,1.77,0,0,1,1.82-1.87,2.38,2.38,0,0,1,.8.14Z"/><path class="cls-2" d="M164.78,36.68a2.75,2.75,0,0,1-1.13.23A1.71,1.71,0,0,1,161.8,35a1.66,1.66,0,0,1,1.68-1.81c1.19,0,1.57.87,1.57,2H162.5a1.17,1.17,0,0,0,1.18,1.19,2,2,0,0,0,1.1-.36Zm-.43-2a.9.9,0,0,0-.89-1,1,1,0,0,0-1,1Z"/><path class="cls-2" d="M168.28,31.94h1.2c1,0,1.89.15,1.89,1.32a1.14,1.14,0,0,1-1,1.12h0c.21.08.32.19.47.49l.93,1.95H171l-.75-1.7c-.22-.47-.45-.47-.82-.47H169v2.17h-.7ZM169,34h.59c.67,0,1.06-.29,1.06-.76s-.33-.72-1-.72H169Z"/><path class="cls-2" d="M175.46,36.68a2.75,2.75,0,0,1-1.13.23A1.71,1.71,0,0,1,172.49,35a1.66,1.66,0,0,1,1.67-1.81c1.19,0,1.58.87,1.58,2h-2.55a1.16,1.16,0,0,0,1.17,1.19,2,2,0,0,0,1.1-.36Zm-.43-2a.9.9,0,0,0-.88-1,1,1,0,0,0-1,1Z"/><path class="cls-2" d="M176.54,36.13a1.73,1.73,0,0,0,.82.25c.3,0,.67-.13.67-.51,0-.65-1.55-.6-1.55-1.6,0-.74.56-1.1,1.26-1.1a2.66,2.66,0,0,1,.82.14l-.05.58a2,2,0,0,0-.7-.19c-.33,0-.63.14-.63.44,0,.73,1.55.52,1.55,1.66a1.12,1.12,0,0,1-1.25,1.11,2.09,2.09,0,0,1-1-.19Z"/><path class="cls-2" d="M182.46,36.68a2.8,2.8,0,0,1-1.13.23A1.71,1.71,0,0,1,179.48,35a1.66,1.66,0,0,1,1.67-1.81c1.19,0,1.58.87,1.58,2h-2.55a1.17,1.17,0,0,0,1.18,1.19,2.09,2.09,0,0,0,1.1-.36Zm-.43-2a.9.9,0,0,0-.89-1,1,1,0,0,0-1,1Z"/><path class="cls-2" d="M184,33.51a2.23,2.23,0,0,1,1.17-.34c1,0,1.44.51,1.44,1.48v1.48a4.58,4.58,0,0,0,0,.7H186v-.46h0a1.36,1.36,0,0,1-1.11.54c-.77,0-1.31-.33-1.31-1.11s1-1.18,1.66-1.18c.26,0,.44,0,.7,0,0-.62-.22-.94-.88-.94a1.67,1.67,0,0,0-1,.37Zm1.95,1.62-.42,0c-.36,0-1.24.06-1.24.69a.63.63,0,0,0,.67.58.9.9,0,0,0,1-.94Z"/><path class="cls-2" d="M188,33.26h.62v.55h0a1.08,1.08,0,0,1,.93-.64,1.84,1.84,0,0,1,.44,0v.59a1,1,0,0,0-.37-.06c-.59,0-1,.56-1,1.45v1.63H188Z"/><path class="cls-2" d="M193.21,33.86a1.8,1.8,0,0,0-.71-.16A1.22,1.22,0,0,0,191.35,35a1.21,1.21,0,0,0,1.19,1.34,1.39,1.39,0,0,0,.71-.2l.05.58a2,2,0,0,1-.83.15A1.81,1.81,0,0,1,190.65,35a1.77,1.77,0,0,1,1.82-1.87,2.38,2.38,0,0,1,.8.14Z"/><path class="cls-2" d="M194.24,31.57h.66v2.2h0a1.31,1.31,0,0,1,1.15-.6c.93,0,1.34.58,1.34,1.54v2.12h-.66V35c0-.83-.18-1.24-.75-1.28-.75,0-1.09.61-1.09,1.47v1.66h-.66Z"/><path class="cls-2" d="M35.69,39.14h1.19c1,0,1.9.16,1.9,1.33a1.14,1.14,0,0,1-1,1.11h0a.82.82,0,0,1,.48.49l.92,2h-.79l-.75-1.69c-.22-.48-.45-.48-.82-.48h-.42V44h-.7Zm.7,2.1H37c.67,0,1.06-.29,1.06-.76s-.34-.72-1-.72h-.67Z"/><path class="cls-2" d="M42.87,43.88a2.6,2.6,0,0,1-1.13.23,1.71,1.71,0,0,1-1.85-1.93,1.66,1.66,0,0,1,1.68-1.81c1.19,0,1.57.87,1.57,2H40.59a1.17,1.17,0,0,0,1.18,1.19,2.16,2.16,0,0,0,1.1-.35Zm-.43-2a.9.9,0,0,0-.89-1,1,1,0,0,0-1,1Z"/><path class="cls-2" d="M44,43.33a1.73,1.73,0,0,0,.82.25c.3,0,.67-.12.67-.51,0-.65-1.55-.59-1.55-1.6,0-.74.55-1.1,1.26-1.1a2.66,2.66,0,0,1,.82.15l-.06.57a1.91,1.91,0,0,0-.69-.18c-.34,0-.63.14-.63.43,0,.73,1.55.52,1.55,1.66a1.12,1.12,0,0,1-1.25,1.11,2.07,2.07,0,0,1-1-.19Z"/><path class="cls-2" d="M49.86,43.88a2.6,2.6,0,0,1-1.13.23,1.71,1.71,0,0,1-1.84-1.93,1.66,1.66,0,0,1,1.67-1.81c1.19,0,1.58.87,1.58,2H47.59a1.16,1.16,0,0,0,1.17,1.19,2.12,2.12,0,0,0,1.1-.35Zm-.42-2a.91.91,0,0,0-.89-1,1,1,0,0,0-1,1Z"/><path class="cls-2" d="M51.37,40.71a2.37,2.37,0,0,1,1.18-.34c1,0,1.44.51,1.44,1.48v1.48c0,.41,0,.6,0,.7H53.4v-.46h0a1.3,1.3,0,0,1-1.1.54c-.77,0-1.31-.33-1.31-1.11s1-1.18,1.66-1.18c.26,0,.44,0,.7,0,0-.62-.23-.93-.89-.93a1.67,1.67,0,0,0-1,.36Zm2,1.62-.42,0c-.36,0-1.24.06-1.24.69a.62.62,0,0,0,.66.58.9.9,0,0,0,1-.94Z"/><path class="cls-2" d="M55.29,40.46h.61V41h0a1.08,1.08,0,0,1,.93-.64,2.42,2.42,0,0,1,.43.05V41a.94.94,0,0,0-.36-.06c-.59,0-1,.56-1,1.46V44h-.65Z"/><path class="cls-2" d="M60.48,41.06a2,2,0,0,0-.71-.15,1.22,1.22,0,0,0-1.15,1.33,1.21,1.21,0,0,0,1.19,1.34,1.44,1.44,0,0,0,.71-.2l0,.59a2.13,2.13,0,0,1-.83.14,1.8,1.8,0,0,1-1.82-1.87,1.77,1.77,0,0,1,1.82-1.87,2.37,2.37,0,0,1,.8.15Z"/><path class="cls-2" d="M61.51,38.78h.66V41h0a1.31,1.31,0,0,1,1.15-.6c.92,0,1.34.58,1.34,1.54V44H64V42.18c0-.83-.18-1.24-.76-1.27-.75,0-1.08.6-1.08,1.47V44h-.66Z"/><path class="cls-2" d="M69.57,39.06a2.31,2.31,0,0,1,2.36,2.53,2.36,2.36,0,1,1-4.71,0A2.31,2.31,0,0,1,69.57,39.06Zm0,4.44c1.13,0,1.62-.94,1.62-1.91a1.64,1.64,0,1,0-3.23,0C68,42.56,68.45,43.5,69.57,43.5Z"/><path class="cls-2" d="M72.9,40.46h.62V41h0a1.11,1.11,0,0,1,.94-.64,2.42,2.42,0,0,1,.43.05V41a.94.94,0,0,0-.36-.06c-.59,0-1,.56-1,1.46V44H72.9Z"/><path class="cls-2" d="M79.12,43.88c0,1.08-.56,1.71-1.85,1.71A3.59,3.59,0,0,1,76,45.34l.07-.61a2.76,2.76,0,0,0,1.29.32,1.08,1.08,0,0,0,1.11-1.22v-.35h0a1.48,1.48,0,0,1-1.19.55,1.57,1.57,0,0,1-1.53-1.76,1.72,1.72,0,0,1,1.6-1.9,1.17,1.17,0,0,1,1.17.62h0v-.53h.61Zm-.66-1.59c0-.75-.35-1.38-1-1.38s-1,.72-1,1.33.38,1.26,1,1.26A1.12,1.12,0,0,0,78.46,42.29Z"/><path class="cls-2" d="M80.59,40.71a2.34,2.34,0,0,1,1.18-.34c1,0,1.43.51,1.43,1.48v1.48a6.27,6.27,0,0,0,0,.7h-.61v-.46h0a1.31,1.31,0,0,1-1.11.54c-.77,0-1.3-.33-1.3-1.11s1-1.18,1.66-1.18c.25,0,.44,0,.7,0,0-.62-.23-.93-.89-.93a1.67,1.67,0,0,0-1,.36Zm2,1.62-.42,0c-.36,0-1.24.06-1.24.69a.62.62,0,0,0,.66.58.9.9,0,0,0,1-.94Z"/><path class="cls-2" d="M84.5,40.46h.64V41h0a1.27,1.27,0,0,1,1.16-.66c.93,0,1.34.58,1.34,1.54V44H87V42.18c0-.83-.18-1.24-.75-1.27-.75,0-1.09.6-1.09,1.47V44H84.5Z"/><path class="cls-2" d="M89.61,39.66h-.74v-.74h.74Zm-.7.8h.66V44h-.66Z"/><path class="cls-2" d="M90.85,43.46,92.9,41h-2v-.53h2.73V41L91.61,43.5h2.14V44h-2.9Z"/><path class="cls-2" d="M95.1,40.71a2.34,2.34,0,0,1,1.18-.34c1,0,1.43.51,1.43,1.48v1.48a6.27,6.27,0,0,0,0,.7h-.61v-.46h0a1.3,1.3,0,0,1-1.1.54c-.78,0-1.31-.33-1.31-1.11s1-1.18,1.66-1.18c.25,0,.44,0,.7,0,0-.62-.23-.93-.89-.93a1.67,1.67,0,0,0-1,.36Zm2,1.62-.42,0c-.36,0-1.24.06-1.24.69a.62.62,0,0,0,.66.58.9.9,0,0,0,1-.94Z"/><path class="cls-2" d="M100.91,41H100v1.95a.56.56,0,0,0,.55.64.86.86,0,0,0,.45-.12V44a2.19,2.19,0,0,1-.56.09c-.68,0-1.1-.32-1.1-1V41H98.5v-.53h.81v-.83l.66-.21v1h.94Z"/><path class="cls-2" d="M102.85,39.66h-.74v-.74h.74Zm-.7.8h.66V44h-.66Z"/><path class="cls-2" d="M105.65,40.37a1.76,1.76,0,0,1,1.81,1.87,1.82,1.82,0,1,1-3.64,0A1.77,1.77,0,0,1,105.65,40.37Zm0,3.21a1.2,1.2,0,0,0,1.11-1.34,1.14,1.14,0,1,0-1.11,1.34Z"/><path class="cls-2" d="M108.39,40.46H109V41h0a1.29,1.29,0,0,1,1.17-.66c.92,0,1.34.58,1.34,1.54V44h-.66V42.18c0-.83-.18-1.24-.76-1.27-.75,0-1.08.6-1.08,1.47V44h-.66Z"/><path class="cls-2" d="M115.87,40.37a1.77,1.77,0,0,1,1.82,1.87,1.82,1.82,0,1,1-3.64,0A1.77,1.77,0,0,1,115.87,40.37Zm0,3.21A1.2,1.2,0,0,0,117,42.24a1.13,1.13,0,1,0-2.23,0A1.2,1.2,0,0,0,115.87,43.58Z"/><path class="cls-2" d="M119.18,41h-.84v-.53h.84v-.33c0-.87.23-1.44,1.2-1.44a2.67,2.67,0,0,1,.44.05l0,.53a.93.93,0,0,0-.31,0c-.57,0-.64.36-.64.84v.39h1V41h-1v3h-.66Z"/><path class="cls-2" d="M123.72,39.14h.7V44h-.7Z"/><path class="cls-2" d="M125.8,40.46h.63V41h0a1.27,1.27,0,0,1,1.17-.66c.92,0,1.33.58,1.33,1.54V44h-.65V42.18c0-.83-.19-1.24-.76-1.27-.75,0-1.09.6-1.09,1.47V44h-.65Z"/><path class="cls-2" d="M130.69,41h-.84v-.53h.84v-.33c0-.87.22-1.44,1.2-1.44a2.67,2.67,0,0,1,.44.05l0,.53a1,1,0,0,0-.31,0c-.57,0-.64.36-.64.84v.39h.94V41h-.94v3h-.66Z"/><path class="cls-2" d="M134.62,40.37a1.76,1.76,0,0,1,1.81,1.87,1.82,1.82,0,1,1-3.63,0A1.76,1.76,0,0,1,134.62,40.37Zm0,3.21a1.2,1.2,0,0,0,1.11-1.34,1.13,1.13,0,1,0-2.23,0A1.2,1.2,0,0,0,134.62,43.58Z"/><path class="cls-2" d="M137.5,40.46h.62V41h0a1.09,1.09,0,0,1,.93-.64,2.44,2.44,0,0,1,.44.05V41a1,1,0,0,0-.37-.06c-.59,0-1,.56-1,1.46V44h-.66Z"/><path class="cls-2" d="M140.55,40.46h.61V41h0a1.19,1.19,0,0,1,1.13-.61,1.06,1.06,0,0,1,1,.7,1.27,1.27,0,0,1,1.1-.7c.91,0,1.24.59,1.24,1.37V44H145V41.9c0-.44-.1-1-.63-1-.68,0-.94.66-.94,1.32V44h-.66V41.9c0-.44-.11-1-.64-1s-.94.66-.94,1.32V44h-.65Z"/><path class="cls-2" d="M147.13,40.71a2.34,2.34,0,0,1,1.18-.34c1,0,1.43.51,1.43,1.48v1.48a6.27,6.27,0,0,0,0,.7h-.61v-.46h0a1.3,1.3,0,0,1-1.1.54c-.77,0-1.31-.33-1.31-1.11s1-1.18,1.66-1.18c.26,0,.44,0,.7,0,0-.62-.23-.93-.89-.93a1.67,1.67,0,0,0-1,.36Zm2,1.62-.42,0c-.36,0-1.24.06-1.24.69a.62.62,0,0,0,.66.58.9.9,0,0,0,1-.94Z"/><path class="cls-2" d="M152.8,41h-.94v1.95a.56.56,0,0,0,.55.64.86.86,0,0,0,.45-.12V44a2.19,2.19,0,0,1-.56.09c-.68,0-1.1-.32-1.1-1V41h-.81v-.53h.81v-.83l.66-.21v1h.94Z"/><path class="cls-2" d="M154.6,39.66h-.74v-.74h.74Zm-.7.8h.66V44h-.66Z"/><path class="cls-2" d="M157.4,40.37a1.76,1.76,0,0,1,1.81,1.87,1.82,1.82,0,1,1-3.64,0A1.77,1.77,0,0,1,157.4,40.37Zm0,3.21a1.2,1.2,0,0,0,1.11-1.34,1.14,1.14,0,1,0-1.11,1.34Z"/><path class="cls-2" d="M160.28,40.46h.64V41h0a1.29,1.29,0,0,1,1.17-.66c.92,0,1.34.58,1.34,1.54V44h-.66V42.18c0-.83-.18-1.24-.76-1.27-.75,0-1.08.6-1.08,1.47V44h-.66Z"/><path class="cls-2" d="M166.21,40.71a2.33,2.33,0,0,1,1.17-.34c1,0,1.44.51,1.44,1.48v1.48a4.39,4.39,0,0,0,0,.7h-.62v-.46h0a1.34,1.34,0,0,1-1.11.54c-.77,0-1.31-.33-1.31-1.11s1-1.18,1.66-1.18c.26,0,.44,0,.7,0,0-.62-.22-.93-.88-.93a1.72,1.72,0,0,0-1,.36Zm1.95,1.62-.42,0c-.36,0-1.24.06-1.24.69a.63.63,0,0,0,.67.58.9.9,0,0,0,1-.94Z"/><path class="cls-2" d="M170,40.46h.64V41h0a1.29,1.29,0,0,1,1.17-.66c.93,0,1.34.58,1.34,1.54V44h-.66V42.18c0-.83-.18-1.24-.76-1.27-.75,0-1.08.6-1.08,1.47V44H170Z"/><path class="cls-2" d="M176.83,43.53h0a1.44,1.44,0,0,1-1.22.58c-1.08,0-1.53-1-1.53-1.93s.5-1.81,1.54-1.81a1.27,1.27,0,0,1,1.18.58h0V38.78h.65V44h-.63Zm-1.07,0c.74,0,1.05-.73,1.05-1.33s-.35-1.34-1.06-1.34-1,.67-1,1.32S175.05,43.58,175.76,43.58Z"/><path class="cls-2" d="M182.49,39.88a2.17,2.17,0,0,0-.92-.21c-.39,0-.85.14-.85.66,0,.93,2.1.72,2.1,2.33,0,1-.81,1.45-1.79,1.45a3.12,3.12,0,0,1-1-.2l.07-.65a2.94,2.94,0,0,0,1,.24.88.88,0,0,0,1-.8c0-1.09-2.1-.79-2.1-2.31,0-.87.68-1.33,1.57-1.33a3.23,3.23,0,0,1,1,.17Z"/><path class="cls-2" d="M183.49,45a1.34,1.34,0,0,0,.31,0c.59,0,.78-.81.78-.88a2,2,0,0,0-.12-.38l-1.22-3.33H184l1,2.95h0l1-2.95h.67l-1.32,3.65c-.25.68-.5,1.48-1.37,1.48a2.25,2.25,0,0,1-.45-.05Z"/><path class="cls-2" d="M187.32,43.33a1.73,1.73,0,0,0,.82.25c.3,0,.67-.12.67-.51,0-.65-1.55-.59-1.55-1.6,0-.74.56-1.1,1.26-1.1a2.66,2.66,0,0,1,.82.15l-.05.57a2,2,0,0,0-.7-.18c-.33,0-.63.14-.63.43,0,.73,1.55.52,1.55,1.66a1.12,1.12,0,0,1-1.25,1.11,2.09,2.09,0,0,1-1-.19Z"/><path class="cls-2" d="M192.53,41h-.94v1.95a.56.56,0,0,0,.55.64.84.84,0,0,0,.45-.12V44a2.19,2.19,0,0,1-.56.09c-.68,0-1.1-.32-1.1-1V41h-.8v-.53h.8v-.83l.66-.21v1h.94Z"/><path class="cls-2" d="M196.29,43.88a2.6,2.6,0,0,1-1.13.23,1.71,1.71,0,0,1-1.85-1.93A1.66,1.66,0,0,1,195,40.37c1.2,0,1.58.87,1.58,2H194a1.17,1.17,0,0,0,1.18,1.19,2.16,2.16,0,0,0,1.1-.35Zm-.43-2a.9.9,0,0,0-.89-1,1,1,0,0,0-1,1Z"/><path class="cls-2" d="M197.48,40.46h.62V41h0a1.2,1.2,0,0,1,1.14-.61,1,1,0,0,1,1,.7,1.3,1.3,0,0,1,1.11-.7c.91,0,1.24.59,1.24,1.37V44H202V41.9c0-.44-.1-1-.64-1s-.93.66-.93,1.32V44h-.66V41.9c0-.44-.11-1-.64-1s-.94.66-.94,1.32V44h-.66Z"/><path class="cls-2" d="M203.64,43.33a1.73,1.73,0,0,0,.81.25c.31,0,.68-.12.68-.51,0-.65-1.55-.59-1.55-1.6,0-.74.55-1.1,1.26-1.1a2.66,2.66,0,0,1,.82.15l-.06.57a1.91,1.91,0,0,0-.69-.18c-.34,0-.63.14-.63.43,0,.73,1.55.52,1.55,1.66a1.12,1.12,0,0,1-1.25,1.11,2,2,0,0,1-1-.19Z"/><path class="cls-2" d="M286.34,8.71h5.51c5.53,0,9.94,3.43,9.94,9.17,0,6.26-3.79,9.49-9.94,9.49h-5.51ZM289,25h2.8c4.6,0,7.14-2.22,7.14-7a6.51,6.51,0,0,0-6.82-6.92H289Z"/><path class="cls-2" d="M305.65,8.71h5.05c3.88,0,6.55,1.26,6.55,4.71,0,2.57-1.5,3.85-3.85,4.44v.05a4.36,4.36,0,0,1,4.33,4.49c0,4-3.31,5-7.11,5h-5Zm2.67,8h1.47c2.59,0,4.79-.24,4.79-3,0-2.22-1.9-2.78-3.45-2.78h-2.81Zm0,8.5h2c2.4,0,4.57-.51,4.57-3,0-2.89-2.54-3.29-4.84-3.29h-1.74Z"/><path class="cls-2" d="M335,11.79a7.47,7.47,0,0,0-3.85-1A6.92,6.92,0,0,0,324,18a7,7,0,0,0,7,7.3,9.1,9.1,0,0,0,4.06-.91l.16,2.6a11.84,11.84,0,0,1-4.25.67c-5.91,0-9.84-3.8-9.84-9.74,0-5.74,4.17-9.57,9.87-9.57a10.23,10.23,0,0,1,4.19.81Z"/><path class="cls-2" d="M338.45,8.71h2.68V25h7.8v2.35H338.45Z"/><path class="cls-2" d="M360.32,11.52a8.26,8.26,0,0,0-3.5-.77c-1.49,0-3.26.53-3.26,2.48,0,3.58,8,2.76,8,8.9,0,4-3.07,5.57-6.82,5.57a12.5,12.5,0,0,1-3.82-.78l.27-2.49a11.18,11.18,0,0,0,3.88.91c1.52,0,3.66-.85,3.66-3.05,0-4.17-8-3-8-8.82,0-3.31,2.62-5.08,6-5.08a12.54,12.54,0,0,1,4,.67Z"/><path class="cls-2" d="M286.9,30.36h1.39c1.56,0,2.94.53,2.94,2.55s-1.38,2.55-2.94,2.55H286.9Zm1,4.29h.57a1.74,1.74,0,0,0,0-3.48h-.57Z"/><path class="cls-2" d="M292.25,31.9a3.24,3.24,0,0,1,1.3-.29c1.15,0,1.62.47,1.62,1.58v.49c0,.37,0,.66,0,.94s0,.54.05.84h-.86a4.72,4.72,0,0,1-.05-.57h0a1.34,1.34,0,0,1-1.16.65,1.2,1.2,0,0,1-1.31-1.11,1.13,1.13,0,0,1,.64-1.08,3,3,0,0,1,1.26-.21h.54c0-.61-.27-.81-.85-.81a2,2,0,0,0-1.16.4Zm1.14,2.93a.83.83,0,0,0,.69-.34,1.24,1.24,0,0,0,.2-.77h-.42c-.44,0-1.09.07-1.09.65C292.77,34.69,293,34.83,293.39,34.83Z"/><path class="cls-2" d="M296.46,32.41h-.73V31.7h.73V31l1-.32V31.7h.87v.71h-.87v1.75c0,.33.09.62.46.62a.86.86,0,0,0,.45-.1l0,.78a3,3,0,0,1-.73.08,1.1,1.1,0,0,1-1.18-1.22Z"/><path class="cls-2" d="M299.14,31.9a3.29,3.29,0,0,1,1.31-.29c1.14,0,1.61.47,1.61,1.58v.49c0,.37,0,.66,0,.94s0,.54,0,.84h-.86c0-.2,0-.45,0-.57h0a1.32,1.32,0,0,1-1.16.65,1.2,1.2,0,0,1-1.31-1.11,1.13,1.13,0,0,1,.64-1.08,3,3,0,0,1,1.26-.21h.54c0-.61-.26-.81-.84-.81a2,2,0,0,0-1.16.4Zm1.15,2.93a.82.82,0,0,0,.68-.34,1.24,1.24,0,0,0,.2-.77h-.42c-.44,0-1.08.07-1.08.65C299.67,34.69,299.93,34.83,300.29,34.83Z"/><path class="cls-2" d="M303,30h1v2.2h0a1.3,1.3,0,0,1,1.12-.57c1.16,0,1.58.92,1.58,2s-.42,2-1.58,2A1.38,1.38,0,0,1,304,35h0v.46h-1Zm1.84,4.8c.65,0,.83-.7.83-1.21s-.18-1.2-.81-1.2-.88.67-.88,1.2S304.22,34.78,304.87,34.78Z"/><path class="cls-2" d="M307.65,31.9a3.29,3.29,0,0,1,1.31-.29c1.15,0,1.62.47,1.62,1.58v.49c0,.37,0,.66,0,.94s0,.54.05.84h-.86a4.72,4.72,0,0,1,0-.57h0a1.34,1.34,0,0,1-1.16.65,1.2,1.2,0,0,1-1.31-1.11,1.13,1.13,0,0,1,.64-1.08,3,3,0,0,1,1.26-.21h.54c0-.61-.27-.81-.85-.81a2,2,0,0,0-1.16.4Zm1.15,2.93a.83.83,0,0,0,.69-.34,1.24,1.24,0,0,0,.2-.77h-.42c-.44,0-1.09.07-1.09.65C308.18,34.69,308.45,34.83,308.8,34.83Z"/><path class="cls-2" d="M313.78,32.49a2.26,2.26,0,0,0-.88-.16c-.26,0-.58.09-.58.41,0,.6,1.7.22,1.7,1.58,0,.87-.78,1.22-1.57,1.22a4.19,4.19,0,0,1-1.11-.16l.06-.8a2.14,2.14,0,0,0,1,.25c.25,0,.64-.1.64-.46,0-.74-1.7-.24-1.7-1.59,0-.81.71-1.17,1.48-1.17a4.26,4.26,0,0,1,1.06.14Z"/><path class="cls-2" d="M317.8,35.24a2.58,2.58,0,0,1-1.3.3,1.78,1.78,0,0,1-2-1.95,1.76,1.76,0,0,1,1.75-2c1.39,0,1.78,1,1.78,2.27h-2.59a1,1,0,0,0,1.07.95,2.62,2.62,0,0,0,1.25-.38Zm-.66-2c0-.48-.25-.88-.8-.88a.85.85,0,0,0-.86.88Z"/><path class="cls-2" d="M324.66,35.38a5,5,0,0,1-1.16.16c-1.65,0-2.79-.82-2.79-2.54a2.52,2.52,0,0,1,2.79-2.72,3.23,3.23,0,0,1,1.15.21l-.07.86a2.1,2.1,0,0,0-1.1-.27,1.7,1.7,0,0,0-1.71,1.84,1.68,1.68,0,0,0,1.73,1.82,2.94,2.94,0,0,0,1.12-.21Z"/><path class="cls-2" d="M328.34,35.24a2.56,2.56,0,0,1-1.29.3,1.78,1.78,0,0,1-2-1.95,1.75,1.75,0,0,1,1.74-2c1.39,0,1.79,1,1.79,2.27H326a1,1,0,0,0,1.07.95,2.62,2.62,0,0,0,1.25-.38Zm-.66-2c0-.48-.25-.88-.79-.88a.85.85,0,0,0-.87.88Z"/><path class="cls-2" d="M329.38,31.7h.93v.51h0a1.42,1.42,0,0,1,1.24-.6c.89,0,1.27.63,1.27,1.47v2.38h-1v-2c0-.46,0-1.08-.63-1.08s-.86.77-.86,1.25v1.84h-1Z"/><path class="cls-2" d="M334.16,32.41h-.72V31.7h.72V31l1-.32V31.7H336v.71h-.87v1.75c0,.33.09.62.46.62a.82.82,0,0,0,.44-.1l0,.78a2.92,2.92,0,0,1-.72.08,1.1,1.1,0,0,1-1.19-1.22Z"/><path class="cls-2" d="M339.69,35.24a2.56,2.56,0,0,1-1.29.3,1.78,1.78,0,0,1-2-1.95,1.75,1.75,0,0,1,1.74-2c1.39,0,1.79,1,1.79,2.27h-2.6a1,1,0,0,0,1.07.95,2.55,2.55,0,0,0,1.25-.38Zm-.66-2c0-.48-.24-.88-.79-.88a.85.85,0,0,0-.87.88Z"/><path class="cls-2" d="M340.76,31.7h.87v.85h0a1.14,1.14,0,0,1,1-.94,1.09,1.09,0,0,1,.3,0v1a1,1,0,0,0-.44-.08c-.8,0-.8,1-.8,1.54v1.38h-1Z"/><path class="cls-2" d="M287.17,40h-.72v-.71h.72v-.53a1.15,1.15,0,0,1,1.19-1.28,3.77,3.77,0,0,1,.72.08l-.08.81a.77.77,0,0,0-.42-.13c-.33,0-.44.29-.44.58v.47H289V40h-.86v3h-1Z"/><path class="cls-2" d="M291.37,39.19a1.88,1.88,0,0,1,2,2,2,2,0,0,1-3.93,0A1.88,1.88,0,0,1,291.37,39.19Zm0,3.17c.75,0,.95-.67.95-1.3a1,1,0,1,0-1.89,0C290.43,41.68,290.63,42.36,291.37,42.36Z"/><path class="cls-2" d="M294.13,39.28H295v.85h0a1.15,1.15,0,0,1,1-.94,1.05,1.05,0,0,1,.3,0v1a1,1,0,0,0-.44-.08c-.79,0-.79,1-.79,1.53V43h-1Z"/><path class="cls-2" d="M299.06,37.94h1v4.29h2V43h-3Z"/><path class="cls-2" d="M302.64,37.66h1v.93h-1Zm0,1.62h1V43h-1Z"/><path class="cls-2" d="M305,40h-.73v-.71H305v-.53a1.15,1.15,0,0,1,1.19-1.28,3.77,3.77,0,0,1,.72.08l-.08.81a.81.81,0,0,0-.43-.13c-.32,0-.43.29-.43.58v.47h.86V40H306v3h-1Z"/><path class="cls-2" d="M310.5,42.82a2.56,2.56,0,0,1-1.29.3,1.79,1.79,0,0,1-2-1.95,1.75,1.75,0,0,1,1.74-2c1.39,0,1.79,1,1.79,2.27h-2.6a1,1,0,0,0,1.07.94A2.52,2.52,0,0,0,310.5,42Zm-.66-2c0-.48-.25-.89-.79-.89a.85.85,0,0,0-.87.89Z"/><path class="cls-2" d="M316.39,38.87a2.79,2.79,0,0,0-1-.21.7.7,0,0,0-.8.7c0,.89,2.23.51,2.23,2.22,0,1.12-.89,1.54-1.91,1.54a4.28,4.28,0,0,1-1.31-.2l.1-.92a2.45,2.45,0,0,0,1.15.32c.38,0,.9-.2.9-.66,0-1-2.23-.57-2.23-2.25,0-1.14.88-1.56,1.78-1.56a3.67,3.67,0,0,1,1.22.19Z"/><path class="cls-2" d="M320.06,40.08a1.45,1.45,0,0,0-.66-.13c-.61,0-1,.48-1,1.18s.33,1.23,1,1.23a2.08,2.08,0,0,0,.75-.17l.05.81a3.5,3.5,0,0,1-1,.12,2,2,0,0,1,0-3.93,3.19,3.19,0,0,1,.95.12Z"/><path class="cls-2" d="M320.89,37.66h1v.93h-1Zm0,1.62h1V43h-1Z"/><path class="cls-2" d="M325.91,42.82a2.56,2.56,0,0,1-1.29.3,1.79,1.79,0,0,1-2-1.95,1.76,1.76,0,0,1,1.75-2c1.39,0,1.78,1,1.78,2.27h-2.59a1,1,0,0,0,1.07.94,2.52,2.52,0,0,0,1.25-.38Zm-.66-2c0-.48-.25-.89-.79-.89a.85.85,0,0,0-.87.89Z"/><path class="cls-2" d="M327,39.28h.93v.51h0a1.41,1.41,0,0,1,1.24-.6c.88,0,1.27.62,1.27,1.47V43h-1V41c0-.46,0-1.08-.63-1.08s-.86.76-.86,1.24V43h-1Z"/><path class="cls-2" d="M333.85,40.08a1.53,1.53,0,0,0-.67-.13c-.6,0-1,.48-1,1.18s.33,1.23,1,1.23a2.19,2.19,0,0,0,.76-.17l0,.81a3.5,3.5,0,0,1-1,.12,2,2,0,0,1,0-3.93,3.16,3.16,0,0,1,.94.12Z"/><path class="cls-2" d="M337.66,42.82a2.54,2.54,0,0,1-1.29.3,1.79,1.79,0,0,1-2-1.95,1.75,1.75,0,0,1,1.74-2c1.39,0,1.79,1,1.79,2.27h-2.6a1,1,0,0,0,1.07.94,2.45,2.45,0,0,0,1.25-.38Zm-.65-2c0-.48-.25-.89-.8-.89a.86.86,0,0,0-.87.89Z"/><rect class="cls-1" x="266.83" y="8.85" width="1.81" height="7.19"/><rect class="cls-1" x="271.22" y="10.56" width="1.46" height="7.19"/><rect class="cls-1" x="269.15" y="9.7" width="1.65" height="7.19"/><rect class="cls-1" x="264.29" y="7.99" width="1.94" height="7.19"/><rect class="cls-1" x="255.39" y="4.34" width="0.86" height="7.19"/><rect class="cls-1" x="273.02" y="11.41" width="1.23" height="7.19"/><rect class="cls-1" x="253.54" y="2.84" width="0.46" height="7.19"/><rect class="cls-1" x="251.33" width="0.25" height="7.19"/><rect class="cls-1" x="261.76" y="7.13" width="1.86" height="7.19"/><rect class="cls-1" x="257.36" y="5.38" width="1.22" height="7.19"/><rect class="cls-1" x="259.43" y="6.26" width="1.56" height="7.19"/><rect class="cls-1" x="275.62" y="13.13" width="0.63" height="7.19"/><path class="cls-1" d="M276.34,14v7.19c0-.11.23,0,.23,0V14Z"/><rect class="cls-1" x="274.5" y="12.27" width="0.95" height="7.19"/><path class="cls-1" d="M251.33,21.23a1.59,1.59,0,0,0,.28.85,3.72,3.72,0,0,0,.79.88,8.93,8.93,0,0,0,1.13.82c.46.29,1,.57,1.52.85s1.2.57,1.84.85,1.4.58,2.12.85,1.6.59,2.36.85c.94.32,1.82.61,2.58.85s1.64.53,2.58.85c.76.26,1.56.55,2.36.85s1.43.55,2.12.85,1.26.56,1.84.85,1.06.56,1.52.85a8.86,8.86,0,0,1,1.17.85,3.81,3.81,0,0,1,.75.85,1.59,1.59,0,0,1,.28.85V27.64a1.59,1.59,0,0,0-.28-.85,3.81,3.81,0,0,0-.75-.85,8.86,8.86,0,0,0-1.17-.85c-.46-.29-1-.57-1.52-.85s-1.2-.58-1.84-.85-1.4-.58-2.12-.85-1.6-.59-2.36-.85c-.94-.32-1.82-.61-2.58-.85s-1.64-.53-2.58-.85c-.76-.26-1.56-.55-2.36-.85s-1.43-.55-2.12-.85-1.26-.56-1.84-.85-1.06-.56-1.52-.85a8.93,8.93,0,0,1-1.13-.82,3.72,3.72,0,0,1-.79-.88,1.59,1.59,0,0,1-.28-.85Z"/><path class="cls-2" d="M276.57,34.83a1.62,1.62,0,0,1-.28.85,3.92,3.92,0,0,1-.79.88,10,10,0,0,1-1.13.82c-.46.29-1,.57-1.52.85s-1.2.57-1.84.85-1.4.58-2.11.85-1.61.59-2.37.85c-.94.32-1.82.6-2.58.85s-1.64.53-2.58.85c-.76.26-1.56.54-2.36.85s-1.43.55-2.12.85-1.26.55-1.84.85a16.47,16.47,0,0,0-1.52.85,8.86,8.86,0,0,0-1.17.85,3.61,3.61,0,0,0-.75.85,1.56,1.56,0,0,0-.28.85V41.24a1.56,1.56,0,0,1,.28-.85,3.61,3.61,0,0,1,.75-.85,8.86,8.86,0,0,1,1.17-.85,16.47,16.47,0,0,1,1.52-.85c.58-.3,1.2-.58,1.84-.85s1.4-.58,2.12-.85,1.6-.59,2.36-.85c.94-.32,1.82-.61,2.58-.85s1.64-.53,2.58-.85c.76-.26,1.56-.55,2.37-.85s1.42-.56,2.11-.85,1.26-.56,1.84-.85,1.06-.56,1.52-.85a10,10,0,0,0,1.13-.82,3.92,3.92,0,0,0,.79-.88,1.62,1.62,0,0,0,.28-.85Z"/><path class="cls-2" d="M276.57,21.23a1.59,1.59,0,0,1-.28.85,3.72,3.72,0,0,1-.79.88,8.93,8.93,0,0,1-1.13.82c-.46.29-1,.57-1.52.85s-1.2.57-1.84.85-1.4.58-2.11.85-1.61.59-2.37.85c-.94.32-1.82.61-2.58.85s-1.64.53-2.58.85c-.76.26-1.56.55-2.36.85s-1.43.55-2.12.85-1.26.56-1.84.85-1.06.56-1.52.85a8.86,8.86,0,0,0-1.17.85,3.81,3.81,0,0,0-.75.85,1.59,1.59,0,0,0-.28.85V27.64a1.59,1.59,0,0,1,.28-.85,3.81,3.81,0,0,1,.75-.85,8.86,8.86,0,0,1,1.17-.85c.46-.29,1-.57,1.52-.85s1.2-.58,1.84-.85,1.4-.58,2.12-.85,1.6-.59,2.36-.85c.94-.32,1.82-.61,2.58-.85s1.64-.53,2.58-.85c.76-.26,1.56-.55,2.37-.85s1.42-.55,2.11-.85,1.26-.56,1.84-.85,1.06-.56,1.52-.85a8.93,8.93,0,0,0,1.13-.82,3.72,3.72,0,0,0,.79-.88,1.59,1.59,0,0,0,.28-.85Z"/><rect class="cls-2" x="259.26" y="8.85" width="1.81" height="7.19"/><rect class="cls-2" x="255.22" y="10.56" width="1.46" height="7.19"/><rect class="cls-2" x="257.1" y="9.7" width="1.65" height="7.19"/><rect class="cls-2" x="261.67" y="7.99" width="1.94" height="7.19"/><rect class="cls-2" x="271.65" y="4.34" width="0.86" height="7.19"/><rect class="cls-2" x="253.66" y="11.41" width="1.23" height="7.19"/><rect class="cls-2" x="273.9" y="2.84" width="0.46" height="7.19"/><rect class="cls-2" x="276.31" width="0.25" height="7.19"/><rect class="cls-2" x="264.29" y="7.13" width="1.86" height="7.19"/><rect class="cls-2" x="269.32" y="5.38" width="1.22" height="7.19"/><rect class="cls-2" x="266.91" y="6.26" width="1.56" height="7.19"/><rect class="cls-2" x="251.65" y="13.13" width="0.63" height="7.19"/><path class="cls-2" d="M251.56,14v7.19c0-.11-.23,0-.23,0V14Z"/><rect class="cls-2" x="252.45" y="12.27" width="0.95" height="7.19"/></g></g></svg>