<svg xmlns="http://www.w3.org/2000/svg" viewBox="0 0 406.99 496.29"><defs><style>.cls-1,.cls-3{opacity:0.4;}.cls-2,.cls-3{fill:#040000;}</style></defs><title>logo_m_1</title><g id="レイヤー_2" data-name="レイヤー 2"><g id="レイヤー_1-2" data-name="レイヤー 1"><g class="cls-1"><rect class="cls-2" x="216.39" y="64.66" width="13.26" height="52.54"/><rect class="cls-2" x="248.54" y="77.16" width="10.63" height="52.54"/><rect class="cls-2" x="233.37" y="70.91" width="12.06" height="52.54"/><polygon class="cls-2" points="197.86 58.39 197.86 110.94 212.05 110.94 212.05 58.41 197.86 58.39"/><rect class="cls-2" x="132.83" y="31.71" width="6.28" height="52.54"/><rect class="cls-2" x="261.65" y="83.4" width="8.96" height="52.55"/><rect class="cls-2" x="119.27" y="20.72" width="3.37" height="52.54"/><rect class="cls-2" x="103.18" width="1.86" height="52.54"/><rect class="cls-2" x="179.33" y="52.12" width="13.56" height="52.55"/><polygon class="cls-2" points="147.18 39.31 147.18 91.86 156.13 91.86 156.13 39.32 147.18 39.31"/><polygon class="cls-2" points="162.35 45.76 162.35 98.3 173.75 98.3 173.75 45.74 162.35 45.76"/><rect class="cls-2" x="280.68" y="95.93" width="4.6" height="52.54"/><path class="cls-2" d="M285.89,102.61v52.54c0-.78,1.68,0,1.68,0V102.61Z"/><rect class="cls-2" x="272.47" y="89.66" width="6.97" height="52.54"/></g><path class="cls-3" d="M103.18,155.15a11.73,11.73,0,0,0,2,6.21,28.76,28.76,0,0,0,5.78,6.44,68.45,68.45,0,0,0,8.27,6c3.35,2.1,7.1,4.18,11.12,6.21,4.22,2.13,8.75,4.2,13.42,6.21,5,2.16,10.26,4.24,15.47,6.21,5.86,2.21,11.71,4.3,17.3,6.21,6.84,2.34,13.28,4.44,18.84,6.21s12,3.87,18.84,6.21c5.59,1.91,11.43,4,17.29,6.21,5.22,2,10.43,4.05,15.48,6.21,4.67,2,9.2,4.08,13.42,6.22,4,2,7.77,4.1,11.13,6.21a66.74,66.74,0,0,1,8.52,6.21,28.32,28.32,0,0,1,5.52,6.21,11.77,11.77,0,0,1,2,6.21V202a11.77,11.77,0,0,0-2-6.21,28,28,0,0,0-5.52-6.21,68.21,68.21,0,0,0-8.52-6.22c-3.35-2.1-7.1-4.17-11.13-6.21-4.22-2.13-8.75-4.2-13.42-6.21-5-2.16-10.26-4.24-15.48-6.21-5.86-2.21-11.7-4.3-17.29-6.21-6.84-2.34-13.28-4.42-18.84-6.21s-12-3.87-18.84-6.21c-5.59-1.91-11.44-4-17.3-6.21-5.21-2-10.43-4.05-15.47-6.21-4.67-2-9.2-4.08-13.42-6.21-4-2-7.77-4.11-11.12-6.21a68.37,68.37,0,0,1-8.27-6,28.75,28.75,0,0,1-5.78-6.44,11.73,11.73,0,0,1-2-6.21Z"/><path class="cls-2" d="M287.57,254.52a11.73,11.73,0,0,1-2,6.21,29.09,29.09,0,0,1-5.78,6.44,69,69,0,0,1-8.27,6c-3.35,2.11-7.1,4.2-11.13,6.22-4.22,2.13-8.74,4.2-13.42,6.21-5,2.16-10.26,4.24-15.47,6.21-5.87,2.21-11.72,4.3-17.3,6.21-6.84,2.34-13.28,4.42-18.84,6.21s-12,3.87-18.85,6.21c-5.58,1.91-11.43,4-17.29,6.21-5.21,2-10.43,4.05-15.47,6.21-4.67,2-9.2,4.08-13.42,6.21-4,2-7.77,4.11-11.13,6.21a68.37,68.37,0,0,0-8.53,6.22,28.33,28.33,0,0,0-5.52,6.21,11.82,11.82,0,0,0-2,6.21V301.35a11.78,11.78,0,0,1,2-6.21,28.72,28.72,0,0,1,5.52-6.22,69.71,69.71,0,0,1,8.53-6.21c3.35-2.1,7.1-4.18,11.13-6.21,4.22-2.13,8.75-4.2,13.42-6.21,5-2.16,10.26-4.24,15.47-6.21,5.87-2.21,11.71-4.3,17.29-6.21,6.84-2.34,13.29-4.44,18.85-6.21s12-3.87,18.84-6.21c5.58-1.91,11.43-4,17.3-6.21,5.21-2,10.43-4.05,15.47-6.21,4.67-2,9.2-4.08,13.42-6.22,4-2,7.77-4.1,11.13-6.19a70.68,70.68,0,0,0,8.27-6,28.8,28.8,0,0,0,5.78-6.44,11.77,11.77,0,0,0,2-6.21Z"/><path class="cls-2" d="M287.57,155.15a11.73,11.73,0,0,1-2,6.21,28.78,28.78,0,0,1-5.78,6.44,70.6,70.6,0,0,1-8.27,6c-3.35,2.1-7.1,4.18-11.13,6.21-4.22,2.13-8.74,4.2-13.42,6.21-5,2.16-10.26,4.24-15.47,6.21-5.87,2.21-11.72,4.3-17.3,6.21-6.84,2.34-13.28,4.44-18.84,6.21s-12,3.87-18.85,6.21c-5.58,1.91-11.43,4-17.29,6.21-5.21,2-10.43,4.05-15.47,6.21-4.67,2-9.2,4.08-13.42,6.22-4,2-7.77,4.1-11.13,6.21a66.9,66.9,0,0,0-8.53,6.21,28.68,28.68,0,0,0-5.52,6.21,11.82,11.82,0,0,0-2,6.21V202a11.82,11.82,0,0,1,2-6.21,28.33,28.33,0,0,1,5.52-6.21,68.37,68.37,0,0,1,8.53-6.22c3.35-2.1,7.1-4.17,11.13-6.21,4.22-2.13,8.75-4.2,13.42-6.21,5-2.16,10.26-4.24,15.47-6.21,5.87-2.21,11.71-4.3,17.29-6.21,6.84-2.34,13.29-4.42,18.85-6.21s12-3.87,18.84-6.21c5.58-1.91,11.43-4,17.3-6.21,5.21-2,10.43-4.05,15.47-6.21,4.67-2,9.2-4.08,13.42-6.21,4-2,7.77-4.11,11.13-6.21a70.6,70.6,0,0,0,8.27-6,28.77,28.77,0,0,0,5.78-6.44,11.77,11.77,0,0,0,2-6.21Z"/><rect class="cls-2" x="161.1" y="64.66" width="13.26" height="52.54"/><rect class="cls-2" x="131.58" y="77.16" width="10.63" height="52.54"/><rect class="cls-2" x="145.32" y="70.91" width="12.06" height="52.54"/><polygon class="cls-2" points="192.89 58.39 192.89 110.94 178.71 110.94 178.71 58.41 192.89 58.39"/><rect class="cls-2" x="251.64" y="31.71" width="6.29" height="52.54"/><rect class="cls-2" x="120.14" y="83.4" width="8.96" height="52.55"/><rect class="cls-2" x="268.12" y="20.72" width="3.36" height="52.54"/><rect class="cls-2" x="285.71" width="1.86" height="52.54"/><rect class="cls-2" x="197.86" y="52.12" width="13.56" height="52.55"/><polygon class="cls-2" points="243.57 39.31 243.57 91.86 234.62 91.86 234.62 39.32 243.57 39.31"/><polygon class="cls-2" points="228.4 45.76 228.4 98.3 217.01 98.3 217.01 45.74 228.4 45.76"/><rect class="cls-2" x="105.48" y="95.93" width="4.6" height="52.54"/><path class="cls-2" d="M104.86,102.61v52.54c0-.78-1.68,0-1.68,0V102.61Z"/><rect class="cls-2" x="111.31" y="89.66" width="6.97" height="52.54"/><path class="cls-2" d="M0,389.34H26.06c37.66,0,52.57,21.69,52.57,52.42,0,38.11-25.46,52.72-60.26,52.72H0Zm10.39,96.11H19c29.82,0,49.26-12,49.26-44.29,0-32.09-19.13-42.78-42.63-42.78H10.39Z"/><path class="cls-2" d="M100.51,389.34h25c17.17,0,33.29,5.72,33.29,25.91,0,13.41-6.17,21.4-19.13,24v.3c13.26,2.41,22.29,11.15,22.29,25,0,22.9-18.68,30-40.52,30H100.51Zm10.39,96.11h10.85c14,0,29.83-3.76,29.83-20.48,0-18.68-16.12-20.64-31.49-20.64H110.9Zm.31-50.16h11.6c11,0,25.61-2.86,25.61-19.58,0-15.22-14-17.33-22.9-17.33H111.21Z"/><path class="cls-2" d="M257.36,401.08c-6.63-3.46-16.12-4.52-23.5-4.52-27.27,0-42.63,19.28-42.63,45.35,0,26.51,14.92,45.35,42.63,45.35,6.93,0,17.47-.91,23.5-4.52l.6,9c-5.72,3.47-17.47,4.52-24.1,4.52-33.14,0-53-21.84-53-54.38,0-31.94,20.49-54.39,53-54.39,6.17,0,18.68,1.06,24.1,3.92Z"/><path class="cls-2" d="M284.8,389.34h10.39v96.11h42.18v9H284.8Z"/><path class="cls-2" d="M349.75,481.08c6.18,3.92,13.41,6.18,23.2,6.18,13,0,23.65-6.63,23.65-21.55,0-20.64-48.21-23.2-48.21-50.77,0-16.87,14.77-27.42,33.3-27.42A62.7,62.7,0,0,1,402.32,391l-1.66,9.49c-4.67-2.56-12-3.92-19.13-3.92-10.84,0-22.74,4.52-22.74,18.08,0,21.09,48.21,21.24,48.21,52,0,21.24-18.23,29.67-34.5,29.67a60,60,0,0,1-23.8-4.52Z"/></g></g></svg>