<svg xmlns="http://www.w3.org/2000/svg" viewBox="0 0 1996.32 353.81"><defs><style>.cls-1,.cls-3{fill:#040000;}.cls-2,.cls-3{opacity:0.4;}</style></defs><title>logo_ja_m</title><g id="レイヤー_2" data-name="レイヤー 2"><g id="レイヤー_1-2" data-name="レイヤー 1"><path class="cls-1" d="M303.19,234.79c-3.1,27.2-13.19,47.4-57.68,51.92l-3.27-7.36c25.87-2.39,47.14-9,51.56-37.12H231.7v-7.44Zm-5-21.18v7.44H238.07v-7.44Z"/><path class="cls-1" d="M364.32,287.33h-8.51V243.56a185.5,185.5,0,0,1-35.52,17.81l-4.88-6.83c12.75-4.52,44.3-17.36,65.83-44.21l7.8,5.23a235.2,235.2,0,0,1-24.72,22.06Z"/><path class="cls-1" d="M477.18,216.8c-1.86,21.71-7.89,59.63-58,69L416,278.29c45.11-7.54,49.45-38.55,51.48-54H407.27V216.8Z"/><path class="cls-1" d="M546.18,210h8.24v17.46h15.86v7.61H554.42V245c0,7.17-1.86,21.61-12.13,30.3-9.75,8.24-22.95,10.45-29.51,11.52l-3.28-7.54c18.52-2.39,36.68-8.51,36.68-34.2v-10H514.9v24.36h-8.23V235.05H491.08v-7.61h15.59v-17h8.23v17h31.28Z"/><path class="cls-1" d="M629.19,287.33h-8.51V243.56a185.72,185.72,0,0,1-35.53,17.81l-4.88-6.83C593,250,624.58,237.18,646.1,210.33l7.8,5.23a233.75,233.75,0,0,1-24.71,22.06Z"/><path class="cls-1" d="M740.9,218.13v7.71H712.28v46.69h33.57v7.8h-75.3v-7.8h33.13V225.84H675.59v-7.71Z"/><path class="cls-1" d="M786.87,236.12c-7.27-5.67-20.74-11.17-27.2-13l4-7.09c1.51.45,16,4.61,28.17,12.4Zm-26.76,39.69c25-1.77,52.63-9.4,66.45-53.87l8,3.54c-7.09,20.38-18.6,53.52-71.32,59.1Z"/><path class="cls-1" d="M843.11,279.44c14.88-5.93,40.75-22.95,52.89-56.79H847.72V215H906.9A102.4,102.4,0,0,1,889.36,252a375.32,375.32,0,0,1,30.83,27.37l-6.55,6.56c-5-5.58-11.44-12.58-29.06-27.91-10,11.87-22.25,21.88-36.6,28Z"/><path class="cls-1" d="M961.64,219.11a213.07,213.07,0,0,1-17.36,26.13c3.72-.18,7.7-.36,11.34-.71-1.33-3.27-1.59-3.89-2.39-5.58l5.58-2.39a117.63,117.63,0,0,1,6.91,15.85L959.34,255c-.36-1.15-1.15-3.64-1.59-4.79-2,.27-5.14.53-7.27.8v38.63h-6.82V251.45c-8.06.53-10.45.61-14.18.7l-.44-6.37c1.86,0,2.39,0,7.44-.27,2.75-3.55,3.9-5.23,5-6.83a93.88,93.88,0,0,0-12.94-12l3.64-5.59c2,1.51,2.4,1.87,3.28,2.57a94.67,94.67,0,0,0,8.86-16l6.47,2.47a140,140,0,0,1-10.37,18,63.13,63.13,0,0,1,5,4.88c5.67-8.87,8.15-13.29,9.83-16.48Zm-32.87,62.1a87,87,0,0,0,4.44-23.39l6.37,1a117.21,117.21,0,0,1-4.34,24.72Zm28.89-4.78a65.27,65.27,0,0,0-3.37-17.55l5.59-1.59a65.43,65.43,0,0,1,4.34,17.63ZM957,283.6c15.41-6.46,17.27-16.56,17.54-33.22h6.91c-.53,19.14-2.84,31.28-20.11,39.25ZM999,225.75a78.73,78.73,0,0,1,14.52,19.58L1007,249a51.7,51.7,0,0,0-2.39-4.87c-17.46,1.77-26.67,2.39-39.17,2.92l-.7-6.9c4.6-.1,5.14-.1,6.11-.18a82.79,82.79,0,0,0,7.44-17.1H963.42V216h20.64v-8.41h7.26V216h21.09v6.83H986a115.32,115.32,0,0,1-7.79,16.83c7.53-.27,15.06-.71,22.49-1.42a69.33,69.33,0,0,0-7.61-9Zm-1.33,54.4c0,1.15.44,1.86,2.3,1.86h3.45c1.42,0,2-.71,2.22-2.66s.26-8.6.26-11.61l6.65,2.22c.09,14.89-.8,18.87-7.26,18.87h-8.42c-2.92,0-6.12-1.06-6.12-5.94V250.38h6.92Z"/><path class="cls-1" d="M1086.11,239.21h-45v-6.46a104,104,0,0,1-15.51,8.24l-4.25-7.35c14.18-5,29-13.83,38.28-27H1067c11.16,13.65,23.48,20.91,38.63,27l-4.16,7.35a93,93,0,0,1-15.33-8.24Zm9,10v40.4h-7.43v-4.08h-48.38v4.08h-7.44v-40.4Zm-7.43,6.82h-48.38v22.86h48.38Zm-2-23.57a104.91,104.91,0,0,1-22.41-19.67,82.76,82.76,0,0,1-21.89,19.67Z"/><path class="cls-1" d="M1190.64,236.65v7.44h-29.76c-.18,27.56-12.59,38.27-36.06,43.06l-3.28-7.09c20.37-3.9,31.45-10.72,30.91-36h-35.7v-7.44Zm-14.35-23v7.17h-51.56V213.7Zm5,7.35a56.45,56.45,0,0,0-4-12.93l5.58-1.42a53.83,53.83,0,0,1,4.26,12.94Zm10.19-1.15a79.94,79.94,0,0,0-4.52-13.11l5.23-1.6a65.32,65.32,0,0,1,4.69,12.94Z"/><path class="cls-1" d="M1284,244.09v8.51h-78.67v-8.51Z"/><path class="cls-1" d="M1325.2,240.19a106.91,106.91,0,0,1,22.68,14.18A60.77,60.77,0,0,0,1360,228.14H1325.9c-10.36,14.62-20,20.47-24,22.77l-5.14-6a64.82,64.82,0,0,0,30-35.17l8.51,1.6a92.72,92.72,0,0,1-4.61,9.56h39.34c-2.92,15.86-11.08,54.05-62.73,66.63l-4.52-7c16-3.28,28.08-9,39.69-20a103.61,103.61,0,0,0-22.5-14.7Z"/><path class="cls-1" d="M1382,253.57c3.54-3.81,18.07-21.71,21.26-25.17,2.39-2.65,6.2-5.93,11-5.93,2.75,0,5.85.36,13.12,7.62l39,38.81-6.56,6.91-40.3-41.74c-.63-.61-3-3.18-5.67-3.18-2.93,0-5.86,4-9.31,8.5-2.22,2.93-11.79,16.22-13.91,18.79-.8.88-2,2.21-2.3,2.56Zm64.76-22.15a101.12,101.12,0,0,0-9-12.58l5.23-3.37a95.23,95.23,0,0,1,9.13,12.05Zm11-6.11a97.38,97.38,0,0,0-9-12.05l5-3.46a83,83,0,0,1,9.21,11.6Z"/><path class="cls-1" d="M1555.44,244.09v8.51h-78.68v-8.51Z"/><path class="cls-1" d="M1567.12,279.44c14.88-5.93,40.75-22.95,52.89-56.79h-48.28V215h59.18A102.25,102.25,0,0,1,1613.36,252a373.81,373.81,0,0,1,30.84,27.37l-6.56,6.56c-5-5.58-11.43-12.58-29.05-27.91-10,11.87-22.25,21.88-36.6,28Z"/><path class="cls-1" d="M1731.54,226.54c-2.83,19.24-10.18,29.16-26.84,37.4l-5-6.47c6.3-2.57,17.64-7.62,21.63-23l-37.39,3v29.86c0,8.33,1.24,10.19,11.87,10.19h17.89a102.24,102.24,0,0,0,16.39-1.59l.09,8.15a124.58,124.58,0,0,1-15.85,1H1695c-14.27,0-19.32-4.16-19.32-17.37v-29.5l-19.32,1.5-.53-7.61,19.85-1.51v-20H1684V230Z"/><path class="cls-1" d="M1772.47,236.12c-7.27-5.67-20.74-11.17-27.2-13l4-7.09c1.51.45,16,4.61,28.18,12.4Zm-26.76,39.69c25-1.77,52.63-9.4,66.45-53.87l8,3.54c-7.09,20.38-18.6,53.52-71.32,59.1Z"/><path class="cls-1" d="M1858.21,240.19a106.79,106.79,0,0,1,22.69,14.18A60.89,60.89,0,0,0,1893,228.14h-34.12c-10.36,14.62-20,20.47-24,22.77l-5.14-6a64.82,64.82,0,0,0,30-35.17l8.51,1.6a92.72,92.72,0,0,1-4.61,9.56H1903c-2.92,15.86-11.07,54.05-62.72,66.63l-4.52-7c16-3.28,28.08-9,39.69-20a103.61,103.61,0,0,0-22.5-14.7Z"/><path class="cls-1" d="M1996.32,244.09v8.51h-78.67v-8.51Z"/><path class="cls-1" d="M838.36,90.57a4,4,0,1,1-4-3.95A3.95,3.95,0,0,1,838.36,90.57Z"/><path class="cls-1" d="M250.86,69H255V80.43h19.81v3.86H255.65c2.88,12.19,8.23,19,19.81,23.77l-2.6,3.9c-9.67-4.55-16.42-11.06-19.44-22.32-4.23,14.47-15,20-19.86,22.23l-2.23-4c6.93-2.69,16.83-8.41,19.3-23.58H231.75V80.43h19.11Z"/><path class="cls-1" d="M315.54,87.27a52.81,52.81,0,0,1-11.82,7.58v1h19.34v3.58H303.72v9.16c0,3.07-2.42,3.59-3.82,3.59h-8.46l-.74-4,7.58,0c1.44,0,1.53-.37,1.53-1.45V99.41H280V95.83h19.81V92h2a26.89,26.89,0,0,0,7.54-4.42H287.49V84.11h28.05ZM311,76.48a68.59,68.59,0,0,0,3.49-7.67l4,1.35a46.68,46.68,0,0,1-3.3,6.32H322V86.76h-3.82V79.92H284.93v6.84h-3.81V76.48h6.74a27.76,27.76,0,0,0-3.21-6.14L288.09,69a25.68,25.68,0,0,1,3.58,6.6l-2.32.89Zm-10.18,0a41,41,0,0,0-3.54-6.61l3.58-1.44a36.06,36.06,0,0,1,3.53,6.79Z"/><path class="cls-1" d="M369.93,81.13h-9.68V93.36h11.26v3.77H328.35V93.36H339.7V81.13h-9.77V77.36h9.77V69.08h3.81v8.28h12.88V69.08h3.86v8.28h9.68Zm-25.12,20.09A38.88,38.88,0,0,1,332,112.38l-2.93-3.25c5.86-2.93,8.56-5.07,12.37-9.77Zm11.58-20.09H343.51V93.36h12.88Zm11.54,31.25a49.37,49.37,0,0,1-12.6-11.06l3.16-2.15A43.41,43.41,0,0,0,370.82,109Z"/><path class="cls-1" d="M418,108c0,2.79-1.12,4.14-4.7,4.14h-6.65l-.65-4,6.42,0c1,0,1.62,0,1.62-1.49V74.29H382.51v37.82h-3.95V70.67H418Zm-6.14-29.26v3.4H384.6v-3.4Zm-3,7.77v17H387.49v-17Zm-3.62,3.4h-14v10.27h14Z"/><path class="cls-1" d="M439.19,81.46h8.33v3.62h-8.23a38,38,0,0,0,7.62,10.1l-2.05,3.39a33.75,33.75,0,0,1-5.67-8.33v22h-4V90.94a40.1,40.1,0,0,1-8.78,12.79l-1.81-4.23a45.41,45.41,0,0,0,10.18-14.42H425.1V81.46h10.13V74.71c-3.2.38-6.37.61-8.83.74l-.79-3.53c1.86-.09,12.51-.46,20.32-3l1.63,3.35a57.12,57.12,0,0,1-8.37,1.9Zm15.4,21.11h-4V72.48h4Zm12.28,5.53c0,3.54-2.75,4.06-4.29,4.06h-7.34L454.4,108l6.7.14c1.39,0,1.67-.09,1.67-1.4V69h4.1Z"/><path class="cls-1" d="M514,108.25c0,3.39-2.09,3.91-3.67,3.91H504l-.47-3.87,5.45.1c.79,0,1.06-.56,1.06-1.26v-9.4H497.49v14h-3.67v-14h-12c-.83,6.75-3.39,11.49-6,14.33l-2.65-3.4a18.4,18.4,0,0,0,3.72-6.6,39.53,39.53,0,0,0,1.49-9.63V71H514ZM493.82,86.06H482.24v5.77a23.64,23.64,0,0,1-.05,2.42h11.63Zm0-11.44H482.24v7.9h11.58Zm16.22,0H497.49v7.9H510Zm0,11.44H497.49v8.19H510Z"/><path class="cls-1" d="M552.45,72.9l.93.79a46,46,0,0,0,3.07-4.84L559.28,70a52.84,52.84,0,0,1-3.9,5.62c.51.52,1.39,1.4,1.9,2,2.65-3.45,2.89-3.77,3.49-4.7l2.51,1.34A105.59,105.59,0,0,1,555.52,84c3.67-.24,3.9-.24,5.4-.37-.33-1-.56-1.59-.89-2.38l2.65-1a45.36,45.36,0,0,1,2.46,6.93l-2.88,1.21A19.92,19.92,0,0,0,561.7,86c-1,.13-4.84.51-5.2.55a42.72,42.72,0,0,1,4.22,2.66l-1.67,2h5.86v3.25h-12.6a28.66,28.66,0,0,0,2.14,7.16A22.75,22.75,0,0,0,559,96l3.21,1.5a29.67,29.67,0,0,1-6,7.43c1.59,2.56,2.94,3.68,3.63,3.68.93,0,1.58-1.26,2.7-5.77l3,2.28c-1.26,4.79-2.51,7.12-5.49,7.12-3.3,0-6-3.81-6.74-5a36.08,36.08,0,0,1-9.91,4.7l-1.58-3.21a27.45,27.45,0,0,0,9.76-4.6,46.31,46.31,0,0,1-2.88-9.59h-8.93c0,1.08,0,1.26-.1,3a31.28,31.28,0,0,1,7.78,4.7l-2.06,3a27.07,27.07,0,0,0-6-4.38c-.65,6.29-2.42,9.07-4.18,11.4l-2.75-2.7c2.85-3.86,3.59-7.26,3.68-15h-1.91V91.74l-1.77,2.6a26.85,26.85,0,0,1-2.18-4.79v22.61h-3.45V91a40.21,40.21,0,0,1-3.76,10.55l-2-4.55a42.33,42.33,0,0,0,5.44-15.53h-4.74V78h5v-9h3.45v9H534v3.54h-3.67V83.6a29.63,29.63,0,0,0,4.28,7.62l-.05,0h13.54a143.79,143.79,0,0,1-1.68-22.33h3.72a144.62,144.62,0,0,0,.75,15.22h1c1.16-1.22,2.84-3.31,3.54-4.15a37.85,37.85,0,0,0-4.89-4.88Zm-8.51,8.18a33.47,33.47,0,0,1,2.42,7.07l-2.84,1c-.19-.94-.28-1.35-.46-2.05-1.64.19-9.49.79-9.92.84L532.73,85A7.43,7.43,0,0,0,534,85c.61-.65,1.67-1.86,3.91-4.65a55.48,55.48,0,0,0-5.31-5.07l2-2.19c.55.42.7.51,1.11.84a31.5,31.5,0,0,0,3.63-5.07l2.83,1.07a38.13,38.13,0,0,1-4.41,5.86c.74.75,1.44,1.44,2,2.14A49.32,49.32,0,0,0,543.33,73l2.47,1.58c-2.33,3.25-6.33,8.23-8.19,10.28,1.63-.05,2.79-.09,4.65-.23a16.6,16.6,0,0,0-1-2.56ZM556,86.62l-4.89.37c.15,1.16.42,3,.61,4.28h6.65c-.56-.38-2.46-1.63-4-2.47Z"/><path class="cls-1" d="M589.31,70.48V85.55H575.59v26.61h-3.68V70.48Zm-3.63,2.88H575.59v3.26h10.09Zm0,5.86H575.59v3.49h10.09Zm15.44,30.65a20,20,0,0,1-9.53-8.46c-1.72,3.67-5.26,7.21-11.17,9.16l-1.91-3.16c6.24-1.63,8.8-4.84,9.82-6.74h-9.77v-3H589.4a14.45,14.45,0,0,0,.37-3.63H579.68V91.13h5.21c-.75-1.77-1.07-2.51-1.72-3.81l3.58-.61a37.29,37.29,0,0,1,1.63,4.42h6.51a28.67,28.67,0,0,0,1.35-4.33l3.63.47a27.78,27.78,0,0,1-1.54,3.86h5.4v2.93H593.3a23.92,23.92,0,0,1-.46,3.63h11.91v3H594.51a16.61,16.61,0,0,0,8.33,6Zm10.33-39.39v38.18c0,1.08-.38,3.5-3.26,3.5h-5l-1-3.68,4.28,0c.93,0,1.26-.32,1.26-1.53V85.55H594V70.48Zm-3.68,2.88H597.63v3.26h10.14Zm0,5.86H597.63v3.49h10.14Z"/><path class="cls-1" d="M617.89,108.48a64,64,0,0,0,8.88-15.3l3.12,2.37c-1.91,4.47-5.81,12-9.44,16.51Zm7.73-18.65A26,26,0,0,0,618,84.9l1.86-3.26A28.15,28.15,0,0,1,628,86.43Zm2.18-12.28a30.13,30.13,0,0,0-7.9-5.12L622,69.27a35.45,35.45,0,0,1,8.23,4.84ZM652.12,96a65.31,65.31,0,0,1,9.45,14.65L658,112.57a36.78,36.78,0,0,0-1.9-3.95,174.9,174.9,0,0,1-25.77,2.14l-.6-3.72h3.48c2.8-4.93,5.82-11.73,6.7-15.12h-9.58V88.34h13.53V79.6H632.22V76h11.62V68.94h3.91V76h12.14V79.6H647.75v8.74h13.82v3.58h-17.3a127,127,0,0,1-6.84,15c4.46-.18,11.76-.5,16.93-1.25A60.52,60.52,0,0,0,648.91,98Z"/><path class="cls-1" d="M690.56,69.08v5.63a44.18,44.18,0,0,0,4.56,19.12c3,5.67,7.86,10.65,15.59,14.56L708,112.11C694.8,105,690.47,94.62,688.52,86c-2.65,13-10.19,21.2-19.77,25.9l-2.65-3.58c8.51-4.19,13.86-9.68,16.56-16.09a53.8,53.8,0,0,0,3.72-17.58V69.08Z"/><path class="cls-1" d="M736.44,78.53c0,1.44,0,8.18-1.67,13L731.7,90c1.35-3.4,1.76-8.7,1.67-11.58ZM742.07,69V112.2h-3.82V69Zm2.42,14.65a35.3,35.3,0,0,0-2.1-5.77l2.8-1.11a39.77,39.77,0,0,1,2.22,5.63ZM763,78h10.89v2.84H763V84h12.7v3H746.4V84h12.79V80.85H748.58V78h10.61V74.89H747.41v-3h11.78V69H763v2.89h11.81v3H763Zm10.56,29.91c0,3.16-.65,4.28-4.42,4.28h-4.93l-.75-3.54h5.22c1.2,0,1.2-.83,1.2-1.44v-3.34H752.48v8.32h-3.72V89.5h24.75Zm-3.68-15.53H752.48v2.92h17.35Zm0,5.72H752.48V101h17.35Z"/><path class="cls-1" d="M793.77,69v4h8v3.45h-8v4.92h9.16v3.4H800c-.41,2.14-1.21,5.16-1.62,6.51h4.13v3.44h-8.74v5.44h8v3.44h-8v8.57H790.1v-8.57h-8v-3.44h8V94.71h-8.75V91.27h4.38A45.79,45.79,0,0,0,784,84.76h-3.07v-3.4h9.17V76.44h-8V73h8V69Zm1.11,22.28a32.4,32.4,0,0,0,1.35-6.51h-8.64a51.93,51.93,0,0,1,1.57,6.51Zm27.31,20.89a33,33,0,0,1-5.91-5.73A28.89,28.89,0,0,1,811,112l-2.33-3.11a24.49,24.49,0,0,0,5.3-5.54A36.05,36.05,0,0,1,809,93l3.26-1a46.48,46.48,0,0,0,3.72,8,36.6,36.6,0,0,0,3-9.49H807.91v21.68h-3.63V70.48h18c0,5.35-.6,10.56-1.25,12-.32.74-1,2.09-3.86,2.09H812L811.3,81l4.52.05c2,0,2.6-.7,2.83-7H807.91V87.08h15a41.61,41.61,0,0,1-4.56,16.1,43,43,0,0,0,6,5.53Z"/><path class="cls-1" d="M859.32,91.5A55.3,55.3,0,0,0,846.12,86l1.9-3.73a54.19,54.19,0,0,1,13.25,5.3Zm-10.79,13.21c19.26-1.3,27.12-9.49,32.46-26l4,1.77c-5.85,16.42-13.11,26.37-35.43,28.7Zm14.65-23.95a60.37,60.37,0,0,0-13.53-5.49l1.9-3.58a54.86,54.86,0,0,1,13.54,5.21Z"/><path class="cls-1" d="M889.72,106.71c7.82-3.12,21.4-12,27.77-29.81H892.14v-4h31.07A53.54,53.54,0,0,1,914,92.29a200.46,200.46,0,0,1,16.19,14.37l-3.45,3.44c-2.6-2.92-6-6.6-15.25-14.64a52.42,52.42,0,0,1-19.21,14.69Z"/><path class="cls-1" d="M975.14,84.38v4.05H959.33c-.47,13.21-5.35,19.67-18.84,22.37l-1.86-3.62c11.77-2,16-7.45,16.23-18.75H936.3V84.38ZM971.28,72.2v4H940.16v-4Z"/><path class="cls-1" d="M1009.91,87.5a93.59,93.59,0,0,1,12,21.21l-4.46,1.86a42.65,42.65,0,0,0-1.67-4.51c-6.14.88-17.77,2-33.91,2.74l-.42-4.46c1.82,0,2.84,0,4.38,0,5.21-12.93,8.73-27.07,10.32-33.4l5.07.65a290.15,290.15,0,0,1-10.88,32.61c14.37-.56,22.23-1.35,23.85-1.53a82.32,82.32,0,0,0-8-13.4Z"/><path class="cls-1" d="M1042.54,84.06V107.5h-8.46v3.72h-3.45V92.71a15.26,15.26,0,0,1-2.51,3.12l-1.67-4.19c1.77-2.14,5.44-6.42,6.09-17.3h-5.39V70.76h16.18v3.58h-7.16a45.48,45.48,0,0,1-1.72,9.72Zm-3.3,3.35h-5.16v16.65h5.16Zm25.4-1.26H1070v3.68h-5.39v22.23h-3.82V89.83h-7.53v2.7c0,12.23-4.51,17.43-6.33,19.53l-3.34-2.7a17.67,17.67,0,0,0,4.32-6.88,35.25,35.25,0,0,0,1.58-10.14V89.83h-5V86.15h5V74.34h-4.23V70.76h24v3.58h-4.69Zm-3.82-11.81h-7.53V86.15h7.53Z"/><path class="cls-1" d="M1075.22,108.62c13.35-3.4,15.25-10.1,16-13.31h-13.53V91.69H1092a40.47,40.47,0,0,0,.42-5.16h3.81a47,47,0,0,1-.46,5.16h13.07v15c0,.93.09,1.26,1.16,1.26h3.11c1.54,0,1.68-1.3,1.77-6.65l3.59.84c-.15,7.25-.56,9.44-3.86,9.44h-6.1c-3.39,0-3.39-2.51-3.39-3.86V95.31h-10c-.79,3.5-2.88,12.38-18,17.07Zm27.86-21.44c-2.38,0-3.63-.61-3.63-3.16V76.48h-6.6c-.85,3.86-3,9.39-14.29,12.6l-1.34-3.58c9.06-1.77,11.11-6.23,12-9h-8.8V82.2h-3.81V73h18.33V69h3.81v4h18.42v8.37h-1.72c-.33,4.14-1.08,5.82-3.77,5.82Zm10.41-6.37V76.48h-10.65v6.18c0,.66,0,1.16,1.26,1.16h6.19c1.53,0,1.57-1,1.77-3.39Z"/><path class="cls-1" d="M1154.36,72.9c.56.46.7.6.93.79a46,46,0,0,0,3.07-4.84l2.83,1.12a52.84,52.84,0,0,1-3.9,5.62c.51.52,1.39,1.4,1.91,2,2.64-3.45,2.88-3.77,3.49-4.7l2.51,1.34a107.62,107.62,0,0,1-7.77,9.73c3.67-.24,3.91-.24,5.4-.37-.33-1-.56-1.59-.89-2.38l2.65-1a45.36,45.36,0,0,1,2.46,6.93l-2.88,1.21a19.92,19.92,0,0,0-.56-2.32c-1,.13-4.83.51-5.2.55a43.72,43.72,0,0,1,4.23,2.66l-1.68,2h5.86v3.25h-12.6a28.66,28.66,0,0,0,2.14,7.16,22.52,22.52,0,0,0,4.51-5.72l3.21,1.5a29.83,29.83,0,0,1-5.95,7.43c1.58,2.56,2.93,3.68,3.62,3.68.94,0,1.59-1.26,2.7-5.77l3,2.28c-1.26,4.79-2.51,7.12-5.49,7.12-3.3,0-6-3.81-6.74-5a36.08,36.08,0,0,1-9.91,4.7l-1.58-3.21a27.45,27.45,0,0,0,9.76-4.6,46.25,46.25,0,0,1-2.87-9.59h-8.93c0,1.08-.05,1.26-.1,3a31.4,31.4,0,0,1,7.77,4.7l-2,3a27.31,27.31,0,0,0-6-4.38c-.66,6.29-2.42,9.07-4.19,11.4l-2.75-2.7c2.85-3.86,3.59-7.26,3.68-15h-1.91V91.74l-1.77,2.6a26.85,26.85,0,0,1-2.18-4.79v22.61h-3.44V91a40.59,40.59,0,0,1-3.76,10.55l-2-4.55a42.33,42.33,0,0,0,5.44-15.53h-4.74V78h5v-9h3.44v9h3.68v3.54h-3.68V83.6a29.93,29.93,0,0,0,4.28,7.62l0,0H1150a143.79,143.79,0,0,1-1.68-22.33H1152a144.62,144.62,0,0,0,.75,15.22h1c1.16-1.22,2.83-3.31,3.53-4.15a37.54,37.54,0,0,0-4.88-4.88Zm-8.51,8.18a32.87,32.87,0,0,1,2.42,7.07l-2.84,1c-.19-.94-.28-1.35-.46-2.05-1.64.19-9.49.79-9.92.84l-.41-2.93a7.43,7.43,0,0,0,1.3-.05c.61-.65,1.67-1.86,3.91-4.65a56.23,56.23,0,0,0-5.3-5.07l2-2.19c.56.42.7.51,1.11.84a31.5,31.5,0,0,0,3.63-5.07l2.84,1.07a38.75,38.75,0,0,1-4.42,5.86,27.29,27.29,0,0,1,2,2.14,49.32,49.32,0,0,0,3.53-4.88l2.47,1.58c-2.33,3.25-6.33,8.23-8.19,10.28,1.63-.05,2.8-.09,4.66-.23a16.4,16.4,0,0,0-1-2.56Zm12.09,5.54-4.88.37c.14,1.16.41,3,.6,4.28h6.65c-.56-.38-2.46-1.63-4-2.47Z"/><path class="cls-1" d="M1185.27,95.69a43.93,43.93,0,0,1-3.49-6.1v22.47h-3.67V90.53a39.78,39.78,0,0,1-5.22,11.3l-1.67-4.93c2.83-3.72,5.16-8.1,6.65-15.35h-5.77V78.1h6V69h3.67V78.1h4.79v3.45h-4.79v1.72a30.72,30.72,0,0,0,5.67,9Zm13.62-9.16h-12.84V83.69h7.21V80.3h-4.74V77.65h4.74v-3h-6.13V71.78h6.13V69h3.36v2.79h8V69h3.4v2.79h6v2.89h-6v3h4.51V80.3H1208v3.39h7.12v2.84h-13v2.83h10.18V101.5h2.85v2.88h-2.85v4.37c0,2.1-.65,3.31-3.52,3.31h-5.59l-.42-3.54,4.7,0c1.26,0,1.44-.23,1.44-1.26v-2.93h-16.65v7.68h-3.35v-7.68h-3.49V101.5h3.49V89.36h10Zm0,5.57h-6.65v3.31h6.65Zm0,6h-6.65v3.44h6.65Zm5.72-23.39h-8v3h8Zm0,5.63h-8v3.39h8Zm-2.51,15.11h6.79V92.1h-6.79Zm0,6.09h6.79V98.06h-6.79Z"/><path class="cls-1" d="M271.3,149.41v3.9H255.67c-.09,14.47-6.6,20.09-18.93,22.6L235,172.2c10.7-2,16.52-5.63,16.23-18.89H232.51v-3.9Zm-7.53-12v3.77H236.69v-3.77Zm2.6,3.86a30.57,30.57,0,0,0-2.09-6.79l2.92-.75a28.41,28.41,0,0,1,2.24,6.8Zm5.34-.61a41.9,41.9,0,0,0-2.36-6.88l2.74-.84a34.76,34.76,0,0,1,2.47,6.8Z"/><path class="cls-1" d="M320.31,153.31v4.47H279v-4.47Z"/><path class="cls-1" d="M341.91,151.27a56.26,56.26,0,0,1,11.91,7.44,31.86,31.86,0,0,0,6.37-13.77H342.28c-5.44,7.68-10.51,10.75-12.6,12l-2.7-3.17a34,34,0,0,0,15.72-18.46l4.47.83a50.18,50.18,0,0,1-2.42,5h20.64c-1.53,8.32-5.81,28.36-32.92,35l-2.37-3.68c8.37-1.73,14.74-4.75,20.84-10.51a55,55,0,0,0-11.82-7.73Z"/><path class="cls-1" d="M402,135.41h4.32v9.16h8.33v4H406.3v5.21c0,3.77-1,11.35-6.37,15.91-5.12,4.32-12.05,5.48-15.49,6l-1.72-3.95c9.73-1.26,19.26-4.47,19.26-17.95v-5.26H385.56v12.79h-4.32V148.57h-8.19v-4h8.19v-8.93h4.32v8.93H402Z"/><path class="cls-1" d="M445.54,176h-4.46V153a97.78,97.78,0,0,1-18.65,9.34l-2.56-3.58c6.7-2.37,23.25-9.12,34.55-23.21l4.1,2.75a123.17,123.17,0,0,1-13,11.58Z"/><path class="cls-1" d="M504.17,139.69v4h-15v24.51h17.63v4.1H467.24v-4.1h17.4V143.73H469.89v-4Z"/><path class="cls-1" d="M528.29,149.13c-3.81-3-10.88-5.87-14.28-6.84l2.09-3.72a61.38,61.38,0,0,1,14.79,6.51Zm-14,20.83c13.12-.92,27.64-4.93,34.89-28.27l4.18,1.86c-3.71,10.69-9.76,28.09-37.43,31Z"/><path class="cls-1" d="M557.8,171.87c7.82-3.12,21.4-12.05,27.77-29.81H560.22v-4h31.07a53.62,53.62,0,0,1-9.21,19.39,198.56,198.56,0,0,1,16.19,14.37l-3.45,3.44c-2.6-2.92-6-6.6-15.25-14.65a52.33,52.33,0,0,1-19.21,14.7Z"/><path class="cls-1" d="M645.14,146.29h-9.68v12.23h11.25v3.77H603.56v-3.77H614.9V146.29h-9.77v-3.77h9.77v-8.28h3.81v8.28H631.6v-8.28h3.86v8.28h9.68ZM620,166.38a38.92,38.92,0,0,1-12.84,11.16l-2.93-3.25c5.86-2.93,8.56-5.07,12.37-9.77Zm11.58-20.09H618.71v12.23H631.6Zm11.54,31.25a49.24,49.24,0,0,1-12.61-11.06l3.16-2.15A43.55,43.55,0,0,0,646,174.2Z"/><path class="cls-1" d="M693.2,173.13c0,2.78-1.12,4.13-4.7,4.13h-6.65l-.65-3.95,6.42.05c1,0,1.63,0,1.63-1.49V139.45H657.71v37.81h-4V135.83H693.2Zm-6.14-29.26v3.4H659.81v-3.4Zm-3,7.77v17H662.69v-17Zm-3.63,3.4h-14v10.27h14Z"/><path class="cls-1" d="M714.4,146.62h8.32v3.62h-8.23a38,38,0,0,0,7.63,10.1l-2,3.39a33.21,33.21,0,0,1-5.67-8.33v22h-4V156.1a40.4,40.4,0,0,1-8.79,12.79l-1.81-4.23A45.06,45.06,0,0,0,710,150.24H700.3v-3.62h10.14v-6.75c-3.21.38-6.37.61-8.83.74l-.8-3.53c1.86-.09,12.51-.46,20.32-3l1.64,3.35a57.8,57.8,0,0,1-8.37,1.9Zm15.39,21.11h-3.95V137.64h3.95Zm12.28,5.53c0,3.54-2.75,4.05-4.29,4.05h-7.34l-.84-4.14,6.7.14c1.39.05,1.68-.09,1.68-1.4V134.2h4.09Z"/><path class="cls-1" d="M789.16,173.4c0,3.4-2.1,3.91-3.68,3.91H779.2l-.46-3.86,5.44.1c.79,0,1.07-.56,1.07-1.26v-9.4H772.69v14H769v-14H757c-.84,6.75-3.4,11.49-6,14.33l-2.65-3.4a18.25,18.25,0,0,0,3.72-6.6,39.53,39.53,0,0,0,1.49-9.63V136.15h35.58ZM769,151.22H757.44V157a23.64,23.64,0,0,1-.05,2.42H769Zm0-11.44H757.44v7.9H769Zm16.23,0H772.69v7.9h12.56Zm0,11.44H772.69v8.19h12.56Z"/><path class="cls-1" d="M839.09,140.61h-6.74v14.52H840v3.21h-9.16a24.69,24.69,0,0,0,9.58,7.49l-2,3.25a32.79,32.79,0,0,1-11.81-10.74h-16a29.59,29.59,0,0,1-12.1,10.74l-1.9-3.21a23.37,23.37,0,0,0,9.76-7.53h-9.34v-3.21h7.81V140.61h-6.74v-3.25h6.74V134.2h3.77v3.16h19.9V134.2h3.82v3.16h6.74Zm-22.42,31.73v-5.45H806.49v-3.25h10.18v-3.82h3.77v3.82h10.33v3.25H820.44v5.45H838.3v3.34H798.77v-3.34Zm11.86-31.73h-19.9v3h19.9Zm0,5.68h-19.9v2.84h19.9Zm0,5.58h-19.9v3.26h19.9Z"/><path class="cls-1" d="M856.88,156.05h-2.74v-6.27c-.47.05-2.52.19-2.93.23-.42,7.77-2.75,10.79-3.82,12.19l-2.7-2.79c2-2.71,2.8-4.8,3.21-9.17-1.21,0-1.62.09-2.51.14l-.09-3.11c2-.05,2.19-.05,2.75-.1v-9.9h5.48c.09-.28.61-2.09.89-3.17l3.81.1a24.25,24.25,0,0,1-1.07,3.07h6.51v8.65c.74,0,.93-.1,1.82-.19v2.93c-1.26.19-1.4.19-1.82.23v8.7c0,2.14-1,3.17-3.44,3.17h-4l-.83-3.45,3.77.05c.79,0,1.25,0,1.25-1.21v-6.88l-3.58.32Zm31.49,20h-43v-3.35h3.81V162.8h35.21v9.86h4Zm-37-29c2.27-.14,3-.19,9.11-.75v-6.09h-9.11Zm8.42,19h-6.89v6.7h6.89ZM856,146.15a33.15,33.15,0,0,0-3-3.81l2.42-1.77a43.15,43.15,0,0,1,3,3.77ZM870.14,166H863.2v6.7h6.94Zm17-4.55a43.61,43.61,0,0,1-10.8-3.82,43.61,43.61,0,0,1-10.09,3.82l-1.68-3.4a31.36,31.36,0,0,0,8.47-2.46,25.37,25.37,0,0,1-4.7-4.33l2.8-1.77a21.14,21.14,0,0,0,5.16,4.42,22.38,22.38,0,0,0,5.3-4.55H866.79v-2.89H886v2.89a25.49,25.49,0,0,1-6.38,6.27,35.76,35.76,0,0,0,9.16,2.28Zm-4.66-21.12c0,.7.1,1.07.84,1.07h.88c.51,0,1.07,0,1.26-3.49l3.07.79c-.33,3.3-.94,5.54-3.4,5.54h-3.72c-1.9,0-2.42-1.07-2.42-2.33v-3.68h-6.32c-.47,3.08-1.44,5-5.26,7l-1.9-2.56c3.16-1.72,3.72-3.3,3.81-7.44h13.16ZM880.74,166h-7.11v6.7h7.11Z"/><path class="cls-1" d="M920.77,134.57A21.75,21.75,0,0,1,919,139h17.63v3.44H916.86a30.46,30.46,0,0,1-5.49,6L909,145.55a20.11,20.11,0,0,0,1.91-1.59h-9.35v6.14h8.28c-.09,11.67-.38,22.24-1.63,25.07-.46,1-1.26,2.05-4.47,2.05h-3.57l-.7-3.72h3.67c.84,0,1.58,0,2-1.25.56-1.77,1-12.57,1-18.56h-4.6v.88c0,8.79-1.53,16.42-5.72,22.46L893.19,174c1.72-2.74,4.83-7.67,4.83-19.44V144h-4.18v-3.57h6.69v-6.1h3.77v6.1H911v3.48a26.18,26.18,0,0,0,6.09-9.81Zm2,16.7v-6.93h3.49v6l8.78-2.23c-.13,12.51-.13,13.86-.55,15.3-.37,1.26-1.11,2.28-3.91,2.28h-2.83l-.52-3.53,2.61,0c.79,0,1.39-.18,1.54-1.67.13-1.16.13-5.72.13-7.86l-5.25,1.3v15.07h-3.49V154.89L918,156.1v14.56c0,2,.7,2.28,2.32,2.28h9.87c2.18,0,2.87,0,2.87-5.72l3.68,1.07c-.37,6.51-.93,8.18-5,8.18H918.86c-2.37,0-4.46-.56-4.46-3.72V156.94l-2.79.7-.61-3.35,3.4-.89v-6.55H918v5.63Z"/><path class="cls-1" d="M959.49,142.1v3.36H942V142.1Zm-1.58-6.56v3.31H943.49v-3.31Zm0,13.12V152H943.49v-3.35Zm0,6.61v3.34H943.49v-3.34Zm0,6.69v13.26h-11v2.09h-3.4V162Zm-3.4,3.12h-7.62V172h7.62Zm29.67,12.23a39.23,39.23,0,0,1-12.09-5.91A33,33,0,0,1,960,177.31l-2-3.63A29.84,29.84,0,0,0,969.12,169a25,25,0,0,1-6.37-9l3.16-1.35a21.89,21.89,0,0,0,6,8.09,28.11,28.11,0,0,0,6.55-9.16H960.7v-3.67h21.67v3.63a30.14,30.14,0,0,1-7.44,11.39,40.32,40.32,0,0,0,11,4.7Zm-5.77-41.77v10.28a1.06,1.06,0,0,0,1.12,1.21h1.08c.65,0,.92-.27,1.11-1a43.93,43.93,0,0,0,.55-5.07l3.5.84c-.14,8.6-2.47,8.88-4.15,8.88H977.9a2.73,2.73,0,0,1-3.11-3v-8.55h-7.44c-.42,7-1.72,9.85-5.45,12.83l-2.78-2.83c3.3-2.1,4.64-6,4.64-11.49,0-.84,0-1.4,0-2.1Z"/><g class="cls-2"><rect class="cls-1" x="113.19" y="64.64" width="13.26" height="52.53"/><rect class="cls-1" x="145.33" y="77.14" width="10.63" height="52.53"/><rect class="cls-1" x="130.16" y="70.89" width="12.06" height="52.53"/><polygon class="cls-1" points="94.66 58.38 94.66 110.92 108.84 110.92 108.84 58.39 94.66 58.38"/><rect class="cls-1" x="29.65" y="31.71" width="6.28" height="52.53"/><rect class="cls-1" x="158.44" y="83.38" width="8.95" height="52.54"/><rect class="cls-1" x="16.09" y="20.72" width="3.37" height="52.53"/><rect class="cls-1" width="1.86" height="52.53"/><rect class="cls-1" x="76.14" y="52.11" width="13.56" height="52.54"/><polygon class="cls-1" points="43.99 39.3 43.99 91.84 52.94 91.84 52.94 39.31 43.99 39.3"/><polygon class="cls-1" points="59.16 45.75 59.16 98.28 70.55 98.28 70.55 45.74 59.16 45.75"/><rect class="cls-1" x="177.46" y="95.91" width="4.59" height="52.53"/><path class="cls-1" d="M182.68,102.59v52.53c0-.79,1.67,0,1.67,0V102.59Z"/><rect class="cls-1" x="169.26" y="89.64" width="6.97" height="52.53"/></g><path class="cls-3" d="M0,155.12a11.74,11.74,0,0,0,2,6.2,28.79,28.79,0,0,0,5.78,6.44,68.43,68.43,0,0,0,8.27,6c3.35,2.1,7.1,4.18,11.12,6.21,4.22,2.13,8.74,4.19,13.42,6.21,5,2.15,10.26,4.24,15.47,6.2,5.85,2.22,11.7,4.3,17.29,6.21,6.84,2.34,13.28,4.44,18.84,6.21s12,3.87,18.83,6.21c5.59,1.91,11.43,4,17.29,6.2,5.22,2,10.43,4.06,15.48,6.21,4.67,2,9.19,4.08,13.42,6.22,4,2,7.77,4.1,11.12,6.21a66,66,0,0,1,8.52,6.21,28.09,28.09,0,0,1,5.52,6.21,11.74,11.74,0,0,1,2,6.2V201.93a11.77,11.77,0,0,0-2-6.2,27.65,27.65,0,0,0-5.52-6.21,67,67,0,0,0-8.52-6.22c-3.35-2.1-7.1-4.17-11.12-6.21-4.23-2.13-8.75-4.19-13.42-6.21-5.05-2.15-10.26-4.23-15.48-6.2-5.86-2.22-11.7-4.3-17.29-6.21-6.83-2.34-13.27-4.43-18.83-6.21s-12-3.87-18.84-6.21c-5.59-1.91-11.44-4-17.29-6.2-5.21-2-10.43-4.06-15.47-6.21-4.68-2-9.2-4.08-13.42-6.21-4-2-7.77-4.11-11.12-6.21a68.43,68.43,0,0,1-8.27-6A28.79,28.79,0,0,1,2,108.79a11.69,11.69,0,0,1-2-6.2Z"/><path class="cls-1" d="M184.35,254.46a11.75,11.75,0,0,1-2,6.21,28.76,28.76,0,0,1-5.78,6.44,69.22,69.22,0,0,1-8.27,6c-3.35,2.11-7.09,4.19-11.12,6.22-4.22,2.12-8.74,4.19-13.41,6.2-5.05,2.16-10.26,4.24-15.47,6.21-5.87,2.21-11.72,4.3-17.3,6.21-6.84,2.34-13.27,4.42-18.83,6.21s-12,3.86-18.85,6.2c-5.58,1.92-11.42,4-17.28,6.21-5.21,2-10.43,4.05-15.47,6.21-4.68,2-9.2,4.08-13.42,6.21-4,2-7.77,4.11-11.13,6.2a68.72,68.72,0,0,0-8.52,6.23A28.15,28.15,0,0,0,2,347.6a11.87,11.87,0,0,0-2,6.21V301.28a11.82,11.82,0,0,1,2-6.21,28.67,28.67,0,0,1,5.53-6.22,69.73,69.73,0,0,1,8.52-6.2c3.36-2.1,7.1-4.19,11.13-6.21,4.22-2.13,8.74-4.2,13.42-6.21,5-2.15,10.26-4.24,15.47-6.21,5.86-2.21,11.7-4.29,17.28-6.2,6.85-2.34,13.29-4.44,18.85-6.21s12-3.87,18.83-6.21c5.58-1.91,11.43-4,17.3-6.21,5.21-2,10.42-4.05,15.47-6.2,4.67-2,9.19-4.08,13.41-6.23,4-2,7.77-4.09,11.12-6.19a70.36,70.36,0,0,0,8.27-6,28.54,28.54,0,0,0,5.78-6.44,11.77,11.77,0,0,0,2-6.21Z"/><path class="cls-1" d="M184.35,155.12a11.74,11.74,0,0,1-2,6.2,28.54,28.54,0,0,1-5.78,6.44,70.36,70.36,0,0,1-8.27,6c-3.35,2.1-7.09,4.18-11.12,6.21-4.22,2.13-8.74,4.19-13.41,6.21-5.05,2.15-10.26,4.24-15.47,6.2-5.87,2.22-11.72,4.3-17.3,6.21-6.84,2.34-13.27,4.44-18.83,6.21s-12,3.87-18.85,6.21c-5.58,1.91-11.42,4-17.28,6.2-5.21,2-10.43,4.06-15.47,6.21-4.68,2-9.2,4.08-13.42,6.22-4,2-7.77,4.1-11.13,6.21a66.71,66.71,0,0,0-8.52,6.21A28.41,28.41,0,0,0,2,248.26a11.81,11.81,0,0,0-2,6.2V201.93a11.84,11.84,0,0,1,2-6.2,28,28,0,0,1,5.53-6.21A67.7,67.7,0,0,1,16,183.3c3.36-2.1,7.1-4.17,11.13-6.21,4.22-2.13,8.74-4.19,13.42-6.21,5-2.15,10.26-4.23,15.47-6.2,5.86-2.22,11.7-4.3,17.28-6.21,6.85-2.34,13.29-4.43,18.85-6.21s12-3.87,18.83-6.21c5.58-1.91,11.43-4,17.3-6.2,5.21-2,10.42-4.06,15.47-6.21,4.67-2,9.19-4.08,13.41-6.21,4-2,7.77-4.11,11.12-6.21a70.36,70.36,0,0,0,8.27-6,28.54,28.54,0,0,0,5.78-6.44,11.74,11.74,0,0,0,2-6.2Z"/><rect class="cls-1" x="57.91" y="64.64" width="13.26" height="52.53"/><rect class="cls-1" x="28.4" y="77.14" width="10.63" height="52.53"/><rect class="cls-1" x="42.13" y="70.89" width="12.06" height="52.53"/><polygon class="cls-1" points="89.69 58.38 89.69 110.92 75.51 110.92 75.51 58.39 89.69 58.38"/><rect class="cls-1" x="148.43" y="31.71" width="6.29" height="52.53"/><rect class="cls-1" x="16.96" y="83.38" width="8.95" height="52.54"/><rect class="cls-1" x="164.9" y="20.72" width="3.36" height="52.53"/><rect class="cls-1" x="182.49" width="1.86" height="52.53"/><rect class="cls-1" x="94.66" y="52.11" width="13.56" height="52.54"/><polygon class="cls-1" points="140.36 39.3 140.36 91.84 131.41 91.84 131.41 39.31 140.36 39.3"/><polygon class="cls-1" points="125.2 45.75 125.2 98.28 113.8 98.28 113.8 45.74 125.2 45.75"/><rect class="cls-1" x="2.3" y="95.91" width="4.59" height="52.53"/><path class="cls-1" d="M1.68,102.59v52.53c0-.79-1.68,0-1.68,0V102.59Z"/><rect class="cls-1" x="8.13" y="89.64" width="6.97" height="52.53"/></g></g></svg>