<svg xmlns="http://www.w3.org/2000/svg" viewBox="0 0 414.08 504.93"><defs><style>.cls-1{fill:#97bdc0;}.cls-2{fill:#004098;}</style></defs><title>logo_rgb</title><g id="レイヤー_2" data-name="レイヤー 2"><g id="レイヤー_1-2" data-name="レイヤー 1"><rect class="cls-1" x="220.16" y="65.78" width="13.49" height="53.45"/><rect class="cls-1" x="252.86" y="78.5" width="10.82" height="53.45"/><rect class="cls-1" x="237.43" y="72.14" width="12.27" height="53.45"/><polygon class="cls-1" points="201.31 59.41 201.31 112.88 215.74 112.88 215.74 59.42 201.31 59.41"/><rect class="cls-1" x="135.14" y="32.27" width="6.39" height="53.45"/><rect class="cls-1" x="266.21" y="84.85" width="9.11" height="53.47"/><rect class="cls-1" x="121.35" y="21.08" width="3.43" height="53.45"/><rect class="cls-1" x="104.98" width="1.9" height="53.45"/><rect class="cls-1" x="182.46" y="53.03" width="13.8" height="53.47"/><polygon class="cls-1" points="149.75 39.99 149.75 93.46 158.85 93.46 158.85 40.01 149.75 39.99"/><polygon class="cls-1" points="165.18 46.56 165.18 100.01 176.77 100.01 176.77 46.54 165.18 46.56"/><rect class="cls-1" x="285.57" y="97.6" width="4.68" height="53.45"/><path class="cls-1" d="M290.87,104.4v53.45c0-.8,1.71,0,1.71,0V104.4Z"/><rect class="cls-1" x="277.22" y="91.22" width="7.09" height="53.45"/><path class="cls-1" d="M105,157.85a11.93,11.93,0,0,0,2,6.32,29.26,29.26,0,0,0,5.88,6.55,69.64,69.64,0,0,0,8.41,6.1c3.41,2.13,7.22,4.25,11.31,6.32,4.3,2.16,8.9,4.27,13.66,6.32,5.13,2.19,10.44,4.31,15.74,6.32,6,2.25,11.91,4.37,17.6,6.32,7,2.38,13.51,4.52,19.17,6.32s12.21,3.94,19.17,6.32c5.69,1.95,11.63,4.07,17.59,6.32,5.31,2,10.62,4.12,15.75,6.32,4.76,2,9.36,4.15,13.66,6.33,4.1,2,7.91,4.17,11.32,6.32a67.91,67.91,0,0,1,8.67,6.32,28.81,28.81,0,0,1,5.62,6.32,12,12,0,0,1,2,6.32V205.49a12,12,0,0,0-2-6.32,28.46,28.46,0,0,0-5.62-6.32,69.39,69.39,0,0,0-8.67-6.33c-3.41-2.13-7.22-4.24-11.32-6.32-4.3-2.16-8.9-4.27-13.66-6.32-5.13-2.19-10.44-4.31-15.75-6.32-6-2.25-11.91-4.37-17.59-6.32-7-2.38-13.51-4.5-19.17-6.32s-12.21-3.94-19.17-6.32c-5.69-1.95-11.64-4.07-17.6-6.32-5.3-2-10.61-4.12-15.74-6.32-4.76-2-9.36-4.15-13.66-6.32-4.09-2.06-7.91-4.18-11.31-6.32a69.56,69.56,0,0,1-8.41-6.1,29.25,29.25,0,0,1-5.88-6.55,11.93,11.93,0,0,1-2-6.32Z"/><path class="cls-2" d="M292.58,258.95a11.93,11.93,0,0,1-2,6.32,29.59,29.59,0,0,1-5.88,6.55,70.22,70.22,0,0,1-8.41,6.08c-3.41,2.15-7.22,4.27-11.32,6.33-4.29,2.16-8.89,4.27-13.65,6.32-5.13,2.19-10.44,4.31-15.74,6.32-6,2.25-11.92,4.37-17.6,6.32-7,2.38-13.51,4.5-19.17,6.32s-12.21,3.94-19.18,6.32c-5.68,1.95-11.62,4.07-17.59,6.32-5.3,2-10.61,4.12-15.74,6.32-4.76,2-9.36,4.15-13.66,6.32-4.1,2.06-7.91,4.18-11.32,6.32a69.56,69.56,0,0,0-8.68,6.33,28.82,28.82,0,0,0-5.62,6.32,12,12,0,0,0-2,6.32V306.59a12,12,0,0,1,2-6.32,29.22,29.22,0,0,1,5.62-6.33,70.93,70.93,0,0,1,8.68-6.32c3.41-2.14,7.22-4.26,11.32-6.32,4.3-2.16,8.9-4.27,13.66-6.32,5.13-2.19,10.44-4.31,15.74-6.32,6-2.25,11.91-4.37,17.59-6.32,7-2.38,13.52-4.52,19.18-6.32s12.21-3.94,19.17-6.32c5.68-1.95,11.63-4.07,17.6-6.32,5.3-2,10.61-4.12,15.74-6.32,4.76-2,9.36-4.15,13.65-6.33,4.1-2.06,7.91-4.17,11.32-6.3a71.91,71.91,0,0,0,8.41-6.1,29.3,29.3,0,0,0,5.88-6.55,12,12,0,0,0,2-6.32Z"/><path class="cls-2" d="M292.58,157.85a11.93,11.93,0,0,1-2,6.32,29.28,29.28,0,0,1-5.88,6.55,71.83,71.83,0,0,1-8.41,6.1c-3.41,2.13-7.22,4.25-11.32,6.32-4.29,2.16-8.89,4.27-13.65,6.32-5.13,2.19-10.44,4.31-15.74,6.32-6,2.25-11.92,4.37-17.6,6.32-7,2.38-13.51,4.52-19.17,6.32s-12.21,3.94-19.18,6.32C173.92,216.66,168,218.78,162,221c-5.3,2-10.61,4.12-15.74,6.32-4.76,2-9.36,4.15-13.66,6.33-4.1,2-7.91,4.17-11.32,6.32a68.07,68.07,0,0,0-8.68,6.32,29.18,29.18,0,0,0-5.62,6.32,12,12,0,0,0-2,6.32V205.49a12,12,0,0,1,2-6.32,28.82,28.82,0,0,1,5.62-6.32,69.56,69.56,0,0,1,8.68-6.33c3.41-2.13,7.22-4.24,11.32-6.32,4.3-2.16,8.9-4.27,13.66-6.32,5.13-2.19,10.44-4.31,15.74-6.32,6-2.25,11.91-4.37,17.59-6.32,7-2.38,13.52-4.5,19.18-6.32S211,151,217.95,148.63c5.68-1.95,11.63-4.07,17.6-6.32,5.3-2,10.61-4.12,15.74-6.32,4.76-2,9.36-4.15,13.65-6.32,4.1-2.06,7.91-4.18,11.32-6.32a71.83,71.83,0,0,0,8.41-6.1,29.27,29.27,0,0,0,5.88-6.55,12,12,0,0,0,2-6.32Z"/><rect class="cls-2" x="163.9" y="65.78" width="13.49" height="53.45"/><rect class="cls-2" x="133.87" y="78.5" width="10.82" height="53.45"/><rect class="cls-2" x="147.85" y="72.14" width="12.27" height="53.45"/><polygon class="cls-2" points="196.25 59.41 196.25 112.88 181.82 112.88 181.82 59.42 196.25 59.41"/><rect class="cls-2" x="256.02" y="32.27" width="6.4" height="53.45"/><rect class="cls-2" x="122.23" y="84.85" width="9.11" height="53.47"/><rect class="cls-2" x="272.79" y="21.08" width="3.42" height="53.45"/><rect class="cls-2" x="290.68" width="1.9" height="53.45"/><rect class="cls-2" x="201.3" y="53.03" width="13.79" height="53.47"/><polygon class="cls-2" points="247.81 39.99 247.81 93.46 238.71 93.46 238.71 40.01 247.81 39.99"/><polygon class="cls-2" points="232.38 46.56 232.38 100.01 220.78 100.01 220.78 46.54 232.38 46.56"/><rect class="cls-2" x="107.31" y="97.6" width="4.68" height="53.45"/><path class="cls-2" d="M106.68,104.4v53.45c0-.8-1.71,0-1.71,0V104.4Z"/><rect class="cls-2" x="113.25" y="91.22" width="7.09" height="53.45"/><path class="cls-2" d="M0,396.12H26.52c38.32,0,53.49,22.07,53.49,53.34C80,488.23,54.1,503.1,18.7,503.1H0ZM10.57,493.9h8.74c30.34,0,50.11-12.26,50.11-45.06,0-32.64-19.47-43.53-43.38-43.53H10.57Z"/><path class="cls-2" d="M102.26,396.12H127.7c17.47,0,33.87,5.82,33.87,26.36,0,13.64-6.28,21.77-19.47,24.37v.3c13.49,2.45,22.68,11.34,22.68,25.44,0,23.3-19,30.5-41.23,30.5h-21.3Zm10.57,97.78h11c14.25,0,30.35-3.83,30.35-20.84,0-19-16.4-21-32-21h-9.35Zm.31-51h11.8c11.19,0,26.06-2.91,26.06-19.92,0-15.48-14.26-17.63-23.3-17.63H113.14Z"/><path class="cls-2" d="M261.84,408.07c-6.75-3.52-16.4-4.6-23.91-4.6-27.74,0-43.38,19.62-43.38,46.13,0,27,15.17,46.13,43.38,46.13,7.05,0,17.77-.92,23.91-4.6l.61,9.2c-5.82,3.53-17.77,4.6-24.52,4.6-33.72,0-54-22.23-54-55.33,0-32.49,20.85-55.33,54-55.33,6.28,0,19,1.07,24.52,4Z"/><path class="cls-2" d="M289.76,396.12h10.57V493.9h42.92v9.2H289.76Z"/><path class="cls-2" d="M355.84,489.45c6.29,4,13.64,6.29,23.6,6.29,13.19,0,24.06-6.75,24.06-21.92,0-21-49-23.6-49-51.65,0-17.16,15-27.9,33.88-27.9a63.79,63.79,0,0,1,21,3.53l-1.68,9.66c-4.75-2.61-12.26-4-19.47-4-11,0-23.14,4.6-23.14,18.39,0,21.46,49,21.61,49,52.88,0,21.61-18.54,30.19-35.1,30.19a61,61,0,0,1-24.21-4.6Z"/></g></g></svg>