<svg xmlns="http://www.w3.org/2000/svg" viewBox="0 0 775.95 350.7"><defs><style>.cls-1{fill:#004098;}.cls-2{fill:#97bdc0;}</style></defs><title>logo_en_rgb</title><g id="レイヤー_2" data-name="レイヤー 2"><g id="レイヤー_1-2" data-name="レイヤー 1"><path class="cls-1" d="M252.95,63.11h33.49C334.84,63.11,354,91,354,130.49c0,49-32.72,67.76-77.44,67.76H252.95Zm13.36,123.52h11c38.34,0,63.31-15.49,63.31-56.92,0-41.24-24.59-55-54.79-55H266.31Z"/><path class="cls-1" d="M382.1,63.11h32.14c22.07,0,42.79,7.36,42.79,33.3,0,17.23-7.94,27.49-24.58,30.78v.39c17,3.1,28.65,14.33,28.65,32.14,0,29.43-24,38.53-52.08,38.53H382.1Zm13.36,123.52H409.4c18,0,38.33-4.84,38.33-26.32,0-24-20.71-26.53-40.46-26.53H395.46Zm.39-64.46h14.91c14.13,0,32.91-3.68,32.91-25.17,0-19.55-18-22.26-29.43-22.26H395.85Z"/><path class="cls-1" d="M583.67,78.21c-8.52-4.45-20.71-5.81-30.21-5.81-35,0-54.79,24.78-54.79,58.28,0,34.07,19.17,58.28,54.79,58.28,8.91,0,22.46-1.16,30.21-5.81l.77,11.61c-7.36,4.46-22.45,5.81-31,5.81-42.59,0-68.15-28.08-68.15-69.9,0-41,26.33-69.89,68.15-69.89,7.94,0,24,1.35,31,5Z"/><path class="cls-1" d="M618.92,63.11h13.36V186.62h54.21v11.62H618.92Z"/><path class="cls-1" d="M702.37,181c7.94,5,17.23,7.94,29.82,7.94,16.65,0,30.4-8.52,30.4-27.69,0-26.52-62-29.81-62-65.24,0-21.68,19-35.23,42.79-35.23,6.58,0,17.23,1,26.52,4.45l-2.13,12.2c-6-3.29-15.49-5-24.59-5C729.28,72.4,714,78.21,714,95.63c0,27.11,62,27.3,62,66.8,0,27.29-23.43,38.14-44.34,38.14-13.17,0-23.43-2.72-30.59-5.81Z"/><path class="cls-1" d="M257.55,219.9h10.09c11.3,0,21.28,3.8,21.28,18.43s-10,18.44-21.28,18.44H257.55Zm7.4,31.05h4.12c6.18,0,12.15-4.59,12.15-12.62s-6-12.62-12.15-12.62h-4.12Z"/><path class="cls-1" d="M296.28,231a24.39,24.39,0,0,1,9.46-2.06c8.3,0,11.73,3.43,11.73,11.46v3.49c0,2.74.06,4.8.11,6.81s.16,4,.32,6.08h-6.23a31.74,31.74,0,0,1-.32-4.07h-.11a9.72,9.72,0,0,1-8.4,4.7c-4.8,0-9.51-2.91-9.51-8.08a8,8,0,0,1,4.65-7.77c2.69-1.32,6.18-1.58,9.14-1.58H311c0-4.38-2-5.86-6.12-5.86a14.23,14.23,0,0,0-8.4,3Zm8.3,21.24a6,6,0,0,0,5-2.43,9,9,0,0,0,1.48-5.6H308c-3.17,0-7.87.53-7.87,4.7C300.08,251.22,302,252.23,304.57,252.23Z"/><path class="cls-1" d="M326.77,234.74h-5.23v-5.18h5.23v-5.45l7.08-2.27v7.72h6.29v5.18h-6.29v12.67c0,2.33.63,4.49,3.32,4.49a6.27,6.27,0,0,0,3.22-.74l.21,5.6a18.57,18.57,0,0,1-5.23.64c-5.54,0-8.61-3.44-8.61-8.83Z"/><path class="cls-1" d="M346.21,231a24.39,24.39,0,0,1,9.46-2.06c8.3,0,11.73,3.43,11.73,11.46v3.49c0,2.74.06,4.8.11,6.81s.16,4,.32,6.08h-6.23a31.74,31.74,0,0,1-.32-4.07h-.11a9.72,9.72,0,0,1-8.4,4.7c-4.8,0-9.51-2.91-9.51-8.08a8,8,0,0,1,4.65-7.77c2.69-1.32,6.18-1.58,9.14-1.58h3.91c0-4.38-2-5.86-6.12-5.86a14.23,14.23,0,0,0-8.4,3Zm8.3,21.24a6,6,0,0,0,5-2.43,9,9,0,0,0,1.48-5.6h-3.06c-3.17,0-7.87.53-7.87,4.7C350,251.22,352,252.23,354.5,252.23Z"/><path class="cls-1" d="M374.37,217.15h7.08v15.91h.11a9.52,9.52,0,0,1,8.13-4.12c8.35,0,11.41,6.65,11.41,14.16S398,257.4,389.69,257.4a10,10,0,0,1-8.35-4h-.11v3.33h-6.87Zm13.37,34.76c4.65,0,6-5.07,6-8.82s-1.27-8.66-5.86-8.66-6.34,4.86-6.34,8.66S383,251.91,387.74,251.91Z"/><path class="cls-1" d="M407.86,231a24.39,24.39,0,0,1,9.46-2.06c8.3,0,11.73,3.43,11.73,11.46v3.49c0,2.74.06,4.8.11,6.81s.16,4,.32,6.08h-6.23a31.74,31.74,0,0,1-.32-4.07h-.11a9.72,9.72,0,0,1-8.4,4.7c-4.8,0-9.51-2.91-9.51-8.08a8,8,0,0,1,4.65-7.77c2.69-1.32,6.18-1.58,9.14-1.58h3.91c0-4.38-2-5.86-6.12-5.86a14.23,14.23,0,0,0-8.4,3Zm8.3,21.24a6,6,0,0,0,5-2.43,9,9,0,0,0,1.48-5.6h-3.06c-3.17,0-7.87.53-7.87,4.7C411.67,251.22,413.62,252.23,416.16,252.23Z"/><path class="cls-1" d="M452.19,235.27a17.45,17.45,0,0,0-6.34-1.16c-1.9,0-4.18.69-4.18,3,0,4.33,12.31,1.58,12.31,11.41,0,6.34-5.65,8.88-11.41,8.88a31.77,31.77,0,0,1-8-1.17l.42-5.81a15.53,15.53,0,0,0,7,1.8c1.8,0,4.65-.69,4.65-3.33,0-5.33-12.31-1.69-12.31-11.51,0-5.86,5.12-8.45,10.67-8.45a32.69,32.69,0,0,1,7.71,1Z"/><path class="cls-1" d="M481.3,255.23A18.66,18.66,0,0,1,472,257.4c-9,0-14.21-5.18-14.21-14.11,0-7.86,4.17-14.36,12.62-14.36,10.09,0,12.94,6.92,12.94,16.43H464.51c.32,4.38,3.38,6.87,7.77,6.87a18.36,18.36,0,0,0,9-2.75Zm-4.75-14.73c-.21-3.44-1.8-6.39-5.76-6.39s-6,2.74-6.29,6.39Z"/><path class="cls-1" d="M531,256.24a37.3,37.3,0,0,1-8.39,1.17c-11.94,0-20.23-6-20.23-18.44,0-12.62,7.71-19.7,20.23-19.7A24.27,24.27,0,0,1,531,220.8l-.53,6.23a15.22,15.22,0,0,0-8-2c-7.6,0-12.36,5.81-12.36,13.36s4.65,13.15,12.52,13.15a20.55,20.55,0,0,0,8.08-1.53Z"/><path class="cls-1" d="M557.65,255.23a18.66,18.66,0,0,1-9.35,2.17c-9,0-14.21-5.18-14.21-14.11,0-7.86,4.17-14.36,12.62-14.36,10.09,0,12.94,6.92,12.94,16.43H540.85c.32,4.38,3.38,6.87,7.77,6.87a18.38,18.38,0,0,0,9-2.75ZM552.9,240.5c-.21-3.44-1.8-6.39-5.76-6.39s-6,2.74-6.29,6.39Z"/><path class="cls-1" d="M565.21,229.57h6.71v3.69H572c2.21-3.11,5.23-4.33,8.93-4.33,6.44,0,9.24,4.54,9.24,10.67v17.16h-7.08V242.24c0-3.32,0-7.81-4.6-7.81-5.12,0-6.23,5.54-6.23,9v13.31h-7.08Z"/><path class="cls-1" d="M599.82,234.74h-5.23v-5.18h5.23v-5.45l7.08-2.27v7.72h6.29v5.18H606.9v12.67c0,2.33.63,4.49,3.32,4.49a6.27,6.27,0,0,0,3.22-.74l.21,5.6a18.57,18.57,0,0,1-5.23.64c-5.54,0-8.61-3.44-8.61-8.83Z"/><path class="cls-1" d="M639.86,255.23a18.66,18.66,0,0,1-9.35,2.17c-9,0-14.21-5.18-14.21-14.11,0-7.86,4.17-14.36,12.62-14.36,10.09,0,12.94,6.92,12.94,16.43H623.07c.32,4.38,3.38,6.87,7.77,6.87a18.36,18.36,0,0,0,9-2.75Zm-4.75-14.73c-.21-3.44-1.8-6.39-5.76-6.39s-6,2.74-6.29,6.39Z"/><path class="cls-1" d="M647.59,229.57h6.29v6.17h.1c.32-2.53,3.22-6.81,7.45-6.81a7.7,7.7,0,0,1,2.16.21v7.13a7.25,7.25,0,0,0-3.17-.58c-5.76,0-5.76,7.19-5.76,11.09v10h-7.08Z"/><path class="cls-1" d="M259.5,289.61h-5.23v-5.18h5.23v-3.8c0-5.44,3.06-9.24,8.66-9.24a24.88,24.88,0,0,1,5.18.58l-.58,5.86a5.53,5.53,0,0,0-3.06-.95c-2.38,0-3.12,2.06-3.12,4.17v3.38h6.18v5.18h-6.18v22H259.5Z"/><path class="cls-1" d="M289.93,283.8c8.08,0,14.26,5.44,14.26,14.42,0,7.81-5.23,14.05-14.26,14.05s-14.21-6.24-14.21-14.05C275.73,289.24,281.91,283.8,289.93,283.8Zm0,23c5.44,0,6.87-4.86,6.87-9.41,0-4.17-2.22-8.08-6.87-8.08s-6.82,4-6.82,8.08C283.12,301.86,284.55,306.78,289.93,306.78Z"/><path class="cls-1" d="M309.91,284.43h6.29v6.17h.1c.32-2.53,3.22-6.81,7.45-6.81a7.7,7.7,0,0,1,2.16.21v7.13a7.25,7.25,0,0,0-3.17-.58c-5.76,0-5.76,7.19-5.76,11.09v10h-7.08Z"/><path class="cls-1" d="M345.63,274.77H353v31.05h14.31v5.81H345.63Z"/><path class="cls-1" d="M371.57,272.71h7.08v6.76h-7.08Zm0,11.73h7.08v27.2h-7.08Z"/><path class="cls-1" d="M388.68,289.61h-5.23v-5.18h5.23v-3.8c0-5.44,3.06-9.24,8.66-9.24a24.88,24.88,0,0,1,5.18.58l-.58,5.86a5.53,5.53,0,0,0-3.06-.95c-2.38,0-3.12,2.06-3.12,4.17v3.38h6.18v5.18h-6.18v22h-7.08Z"/><path class="cls-1" d="M428.47,310.1a18.66,18.66,0,0,1-9.35,2.17c-9,0-14.21-5.18-14.21-14.11,0-7.86,4.17-14.36,12.62-14.36,10.09,0,12.94,6.92,12.94,16.43H411.67c.32,4.38,3.38,6.87,7.77,6.87a18.38,18.38,0,0,0,9-2.75Zm-4.75-14.73c-.21-3.44-1.8-6.39-5.76-6.39s-6,2.74-6.29,6.39Z"/><path class="cls-1" d="M471.16,281.53a19.11,19.11,0,0,0-7.5-1.58c-2.53,0-5.81,1.11-5.81,5.12,0,6.39,16.16,3.7,16.16,16.06,0,8.08-6.39,11.15-13.84,11.15a32.53,32.53,0,0,1-9.46-1.43l.69-6.65a17.85,17.85,0,0,0,8.35,2.27c2.79,0,6.55-1.43,6.55-4.75,0-7-16.17-4.12-16.17-16.32,0-8.24,6.39-11.25,12.89-11.25a27.81,27.81,0,0,1,8.82,1.32Z"/><path class="cls-1" d="M497.74,290.3a10.61,10.61,0,0,0-4.81-1c-4.38,0-7.18,3.49-7.18,8.61s2.38,8.88,7.34,8.88a15.13,15.13,0,0,0,5.44-1.27l.32,5.86a23.23,23.23,0,0,1-7.08.9c-8.93,0-13.42-6.08-13.42-14.37,0-7.87,4.65-14.1,13.15-14.1a23.11,23.11,0,0,1,6.87.9Z"/><path class="cls-1" d="M503.71,272.71h7.08v6.76h-7.08Zm0,11.73h7.08v27.2h-7.08Z"/><path class="cls-1" d="M540.06,310.1a18.66,18.66,0,0,1-9.35,2.17c-9,0-14.21-5.18-14.21-14.11,0-7.86,4.17-14.36,12.62-14.36,10.09,0,12.94,6.92,12.94,16.43H523.26c.32,4.38,3.38,6.87,7.77,6.87a18.36,18.36,0,0,0,9-2.75Zm-4.75-14.73c-.21-3.44-1.8-6.39-5.76-6.39s-6,2.74-6.29,6.39Z"/><path class="cls-1" d="M547.62,284.43h6.71v3.69h.11a10.17,10.17,0,0,1,8.93-4.33c6.44,0,9.24,4.54,9.24,10.67v17.16h-7.08V297.11c0-3.32,0-7.81-4.6-7.81-5.12,0-6.23,5.54-6.23,9v13.31h-7.08Z"/><path class="cls-1" d="M597.54,290.3a10.61,10.61,0,0,0-4.81-1c-4.38,0-7.18,3.49-7.18,8.61s2.38,8.88,7.34,8.88a15.13,15.13,0,0,0,5.44-1.27l.32,5.86a23.23,23.23,0,0,1-7.08.9c-8.93,0-13.42-6.08-13.42-14.37,0-7.87,4.65-14.1,13.15-14.1a23.11,23.11,0,0,1,6.87.9Z"/><path class="cls-1" d="M625.17,310.1a18.66,18.66,0,0,1-9.35,2.17c-9,0-14.21-5.18-14.21-14.11,0-7.86,4.17-14.36,12.62-14.36,10.09,0,12.94,6.92,12.94,16.43H608.38c.32,4.38,3.38,6.87,7.77,6.87a18.38,18.38,0,0,0,9-2.75Zm-4.75-14.73c-.21-3.44-1.8-6.39-5.76-6.39s-6,2.74-6.29,6.39Z"/><rect class="cls-2" x="112.19" y="64.07" width="13.14" height="52.07"/><rect class="cls-2" x="144.05" y="76.47" width="10.54" height="52.07"/><rect class="cls-2" x="129.02" y="70.27" width="11.95" height="52.07"/><rect class="cls-2" x="93.83" y="57.88" width="14.06" height="52.07"/><rect class="cls-2" x="29.38" y="31.43" width="6.23" height="52.08"/><rect class="cls-2" x="157.05" y="82.66" width="8.88" height="52.07"/><rect class="cls-2" x="15.95" y="20.54" width="3.33" height="52.07"/><rect class="cls-2" width="1.85" height="52.07"/><rect class="cls-2" x="75.47" y="51.67" width="13.44" height="52.07"/><rect class="cls-2" x="43.61" y="38.97" width="8.87" height="52.07"/><rect class="cls-2" x="58.64" y="45.35" width="11.29" height="52.07"/><rect class="cls-2" x="175.9" y="95.06" width="4.55" height="52.07"/><path class="cls-2" d="M181.07,101.68v52.07c0-.78,1.66,0,1.66,0V101.68Z"/><rect class="cls-2" x="167.77" y="88.86" width="6.91" height="52.07"/><path class="cls-2" d="M0,153.75a11.71,11.71,0,0,0,2,6.17,28.78,28.78,0,0,0,5.73,6.36,66.29,66.29,0,0,0,8.2,5.94c3.32,2.08,7,4.14,11,6.15,4.19,2.11,8.67,4.16,13.3,6.15,5,2.14,10.17,4.2,15.33,6.15,5.81,2.19,11.61,4.26,17.14,6.15,6.77,2.32,13.16,4.4,18.67,6.15s11.9,3.83,18.67,6.17c5.54,1.88,11.33,3.95,17.14,6.14,5.17,2,10.34,4,15.33,6.17,4.64,2,9.12,4,13.31,6.15,4,2,7.7,4.06,11,6.15a67.55,67.55,0,0,1,8.44,6.15,28,28,0,0,1,5.47,6.15,11.69,11.69,0,0,1,2,6.15V200.16a11.66,11.66,0,0,0-2-6.15,28,28,0,0,0-5.47-6.15,66.2,66.2,0,0,0-8.44-6.15c-3.32-2.09-7-4.14-11-6.15-4.19-2.12-8.67-4.17-13.31-6.15-5-2.15-10.16-4.21-15.33-6.17-5.81-2.19-11.6-4.26-17.14-6.15-6.77-2.32-13.16-4.39-18.67-6.15s-11.9-3.83-18.67-6.15c-5.54-1.9-11.34-4-17.14-6.15-5.16-2-10.33-4-15.33-6.15-4.63-2-9.12-4-13.3-6.15-4-2-7.7-4.07-11-6.15a66.3,66.3,0,0,1-8.2-5.94A28.52,28.52,0,0,1,2,107.84a11.63,11.63,0,0,1-2-6.15Z"/><path class="cls-1" d="M182.73,252.22a11.62,11.62,0,0,1-2,6.15,28.39,28.39,0,0,1-5.74,6.38,69.32,69.32,0,0,1-8.19,5.94c-3.32,2.08-7,4.14-11,6.15-4.18,2.11-8.66,4.16-13.3,6.15-5,2.14-10.16,4.2-15.33,6.15-5.81,2.19-11.61,4.26-17.14,6.15-6.78,2.32-13.16,4.4-18.67,6.15s-11.9,3.83-18.68,6.15c-5.53,1.9-11.32,4-17.14,6.15-5.16,2-10.33,4-15.33,6.15-4.63,2-9.12,4-13.3,6.15-4,2-7.7,4.07-11,6.17a66.3,66.3,0,0,0-8.45,6.15A28.42,28.42,0,0,0,2,344.55a11.71,11.71,0,0,0-2,6.15V298.63a11.71,11.71,0,0,1,2-6.15,28.07,28.07,0,0,1,5.47-6.15,67.76,67.76,0,0,1,8.45-6.17c3.32-2.08,7-4.14,11-6.15,4.19-2.11,8.67-4.16,13.3-6.15,5-2.14,10.17-4.2,15.33-6.15,5.81-2.19,11.61-4.26,17.14-6.15,6.78-2.32,13.17-4.4,18.68-6.15s11.89-3.83,18.67-6.15c5.53-1.9,11.33-4,17.14-6.15,5.16-2,10.33-4,15.33-6.15,4.64-2,9.12-4,13.3-6.15,4-2,7.7-4.07,11-6.15a69.24,69.24,0,0,0,8.19-5.94,28.36,28.36,0,0,0,5.74-6.38,11.66,11.66,0,0,0,2-6.15Z"/><path class="cls-1" d="M182.73,153.75a11.71,11.71,0,0,1-2,6.17,28.63,28.63,0,0,1-5.74,6.36,67.64,67.64,0,0,1-8.19,5.94c-3.32,2.08-7,4.14-11,6.15-4.18,2.11-8.66,4.16-13.3,6.15-5,2.14-10.16,4.2-15.33,6.15-5.81,2.19-11.61,4.26-17.14,6.15-6.78,2.32-13.16,4.4-18.67,6.15s-11.9,3.83-18.68,6.17c-5.53,1.88-11.32,3.95-17.14,6.14-5.16,2-10.33,4-15.33,6.17-4.63,2-9.12,4-13.3,6.15-4,2-7.7,4.06-11,6.15a67.66,67.66,0,0,0-8.45,6.15A28.41,28.41,0,0,0,2,246.07a11.71,11.71,0,0,0-2,6.15V200.16A11.71,11.71,0,0,1,2,194a28.42,28.42,0,0,1,5.47-6.15,66.3,66.3,0,0,1,8.45-6.15c3.32-2.09,7-4.14,11-6.15,4.19-2.12,8.67-4.17,13.3-6.17,5-2.14,10.17-4.2,15.33-6.15,5.81-2.19,11.61-4.26,17.14-6.15,6.78-2.32,13.17-4.39,18.68-6.15s11.89-3.83,18.67-6.15c5.53-1.9,11.33-4,17.14-6.15,5.16-2,10.33-4,15.33-6.15,4.64-2,9.12-4,13.3-6.15,4-2,7.7-4.07,11-6.15a67.64,67.64,0,0,0,8.19-5.94,28.37,28.37,0,0,0,5.74-6.38,11.62,11.62,0,0,0,2-6.15Z"/><rect class="cls-1" x="57.4" y="64.07" width="13.14" height="52.07"/><rect class="cls-1" x="28.15" y="76.47" width="10.54" height="52.07"/><rect class="cls-1" x="41.76" y="70.27" width="11.95" height="52.07"/><rect class="cls-1" x="74.85" y="57.88" width="14.06" height="52.07"/><rect class="cls-1" x="147.12" y="31.43" width="6.23" height="52.08"/><rect class="cls-1" x="16.81" y="82.66" width="8.88" height="52.07"/><rect class="cls-1" x="163.45" y="20.54" width="3.33" height="52.07"/><rect class="cls-1" x="180.89" width="1.85" height="52.07"/><rect class="cls-1" x="93.83" y="51.67" width="13.44" height="52.07"/><rect class="cls-1" x="130.26" y="38.97" width="8.87" height="52.07"/><rect class="cls-1" x="112.8" y="45.35" width="11.29" height="52.07"/><rect class="cls-1" x="2.28" y="95.06" width="4.55" height="52.07"/><path class="cls-1" d="M1.66,101.68v52.07c0-.78-1.66,0-1.66,0V101.68Z"/><rect class="cls-1" x="8.06" y="88.86" width="6.91" height="52.07"/></g></g></svg>