<svg xmlns="http://www.w3.org/2000/svg" viewBox="0 0 1997.42 350.88"><defs><style>.cls-1{fill:#004098;}.cls-2{fill:#97bdc0;}</style></defs><title>logo_ja_rgb</title><g id="レイヤー_2" data-name="レイヤー 2"><g id="レイヤー_1-2" data-name="レイヤー 1"><path class="cls-1" d="M302.94,169.12c-3.1,27.22-13.2,47.44-57.73,52l-3.28-7.36c25.89-2.39,47.17-9,51.6-37.16H231.39v-7.44Zm-5-21.19v7.44H237.77v-7.44Z"/><path class="cls-1" d="M364.12,221.7H355.6V177.89A185,185,0,0,1,320,195.72l-4.88-6.83c12.76-4.52,44.34-17.38,65.88-44.25l7.8,5.23A235.37,235.37,0,0,1,364.12,172Z"/><path class="cls-1" d="M477.06,151.12c-1.86,21.72-7.89,59.67-58.08,69.07l-3.19-7.54c45.14-7.54,49.48-38.58,51.52-54H407.1v-7.54Z"/><path class="cls-1" d="M546.12,144.29h8.25v17.47h15.86v7.62H554.37v9.93c0,7.18-1.87,21.63-12.15,30.33-9.76,8.24-23,10.46-29.53,11.53l-3.28-7.54c18.53-2.39,36.71-8.51,36.71-34.23v-10h-31.3v24.38h-8.24V169.38H491v-7.62h15.6v-17h8.24v17h31.3Z"/><path class="cls-1" d="M629.2,221.7h-8.51V177.89a185.12,185.12,0,0,1-35.56,17.82l-4.88-6.83c12.77-4.52,44.34-17.38,65.88-44.25l7.8,5.23A234.62,234.62,0,0,1,629.2,172Z"/><path class="cls-1" d="M741,152.45v7.71H712.35v46.73H746v7.8H670.59v-7.8h33.16V160.16H675.64v-7.71Z"/><path class="cls-1" d="M787,170.45c-7.27-5.67-20.75-11.17-27.22-13l4-7.1c1.51.45,16,4.61,28.19,12.41Zm-26.78,39.72c25-1.78,52.67-9.4,66.51-53.91l8,3.55c-7.1,20.39-18.62,53.56-71.38,59.14Z"/><path class="cls-1" d="M843.29,213.8c14.89-5.94,40.79-23,52.93-56.83H847.9v-7.63h59.23a102.23,102.23,0,0,1-17.56,37,374.83,374.83,0,0,1,30.86,27.4l-6.56,6.56c-5-5.58-11.44-12.59-29.08-27.93-10,11.88-22.26,21.9-36.62,28Z"/><path class="cls-1" d="M961.92,153.42a212,212,0,0,1-17.38,26.15c3.72-.18,7.71-.35,11.35-.71-1.33-3.28-1.59-3.9-2.39-5.58l5.58-2.4A117.58,117.58,0,0,1,966,186.76l-6.39,2.58c-.35-1.15-1.15-3.64-1.59-4.79-2,.27-5.14.53-7.27.8V224h-6.83V185.79c-8.07.53-10.46.62-14.19.71l-.44-6.38c1.86,0,2.39,0,7.44-.27,2.75-3.55,3.91-5.23,5-6.83A94.13,94.13,0,0,0,928.75,161l3.64-5.59c2,1.51,2.4,1.87,3.28,2.58a94.69,94.69,0,0,0,8.87-16l6.47,2.48a140.78,140.78,0,0,1-10.37,18,62.82,62.82,0,0,1,5,4.88c5.67-8.87,8.16-13.3,9.84-16.49ZM929,215.58a86.87,86.87,0,0,0,4.44-23.41l6.38,1a117.33,117.33,0,0,1-4.34,24.74Zm28.91-4.79a65.05,65.05,0,0,0-3.37-17.56l5.59-1.59a65,65,0,0,1,4.34,17.64Zm-.62,7.18c15.43-6.47,17.29-16.58,17.56-33.25h6.91c-.53,19.15-2.84,31.3-20.12,39.29Zm41.94-57.89a78.63,78.63,0,0,1,14.54,19.59l-6.47,3.64a50.12,50.12,0,0,0-2.39-4.88c-17.47,1.78-26.69,2.4-39.19,2.93l-.71-6.91c4.61-.09,5.14-.09,6.11-.18a82.11,82.11,0,0,0,7.45-17.12H963.69v-6.83h20.66V141.9h7.27v8.42h21.11v6.83H986.3A114.83,114.83,0,0,1,978.5,174c7.54-.27,15.07-.71,22.52-1.42a68.8,68.8,0,0,0-7.62-9Zm-1.33,54.44c0,1.15.45,1.86,2.31,1.86h3.45c1.42,0,2-.71,2.22-2.66s.26-8.6.26-11.62l6.65,2.22c.09,14.89-.8,18.89-7.27,18.89h-8.43c-2.92,0-6.12-1.07-6.12-5.94V184.72h6.92Z"/><path class="cls-1" d="M1086.48,173.55h-45v-6.47a104.23,104.23,0,0,1-15.52,8.25l-4.25-7.36c14.19-5,29-13.83,38.3-27h7.36c11.17,13.66,23.5,20.92,38.66,27l-4.17,7.36a93.41,93.41,0,0,1-15.34-8.25Zm9,10V224h-7.44v-4.08h-48.41V224h-7.45V183.57Zm-7.44,6.83h-48.41v22.88h48.41Zm-2-23.58a105.19,105.19,0,0,1-22.43-19.69,83.06,83.06,0,0,1-21.91,19.69Z"/><path class="cls-1" d="M1191.1,171v7.44h-29.79c-.18,27.58-12.6,38.31-36.09,43.1l-3.28-7.1c20.39-3.9,31.47-10.73,30.94-36h-35.73V171Zm-14.36-23v7.18h-51.6V148Zm5,7.36a57.17,57.17,0,0,0-4-12.94l5.58-1.42a54,54,0,0,1,4.26,12.95Zm10.2-1.15a80.47,80.47,0,0,0-4.52-13.12l5.23-1.6a65.27,65.27,0,0,1,4.7,12.95Z"/><path class="cls-1" d="M1284.54,178.42v8.52h-78.73v-8.52Z"/><path class="cls-1" d="M1325.76,174.52a107.08,107.08,0,0,1,22.7,14.19,60.71,60.71,0,0,0,12.15-26.24h-34.14c-10.37,14.63-20,20.48-24,22.78l-5.14-6a64.94,64.94,0,0,0,30-35.2l8.51,1.6a91.76,91.76,0,0,1-4.61,9.57h39.37c-2.92,15.87-11.08,54.09-62.78,66.68l-4.52-7c16-3.28,28.11-9,39.72-20a104.09,104.09,0,0,0-22.52-14.72Z"/><path class="cls-1" d="M1382.59,187.91c3.55-3.81,18.09-21.72,21.28-25.18,2.4-2.65,6.21-5.94,11-5.94,2.75,0,5.85.35,13.13,7.63l39,38.83-6.57,6.92L1420.1,168.4c-.62-.62-3-3.19-5.67-3.19-2.93,0-5.86,4-9.31,8.51-2.22,2.93-11.8,16.23-13.93,18.8-.79.88-1.95,2.21-2.3,2.57Zm64.82-22.16a101.26,101.26,0,0,0-9-12.6l5.24-3.37a94.53,94.53,0,0,1,9.13,12.06Zm11-6.12a97.51,97.51,0,0,0-9-12.06l5.05-3.46a82.41,82.41,0,0,1,9.22,11.61Z"/><path class="cls-1" d="M1556.19,178.42v8.52h-78.74v-8.52Z"/><path class="cls-1" d="M1567.88,213.8c14.89-5.94,40.79-23,52.93-56.83h-48.32v-7.63h59.23a102.23,102.23,0,0,1-17.56,37,374.83,374.83,0,0,1,30.86,27.4l-6.56,6.56c-5-5.58-11.44-12.59-29.08-27.93-10,11.88-22.26,21.9-36.62,28Z"/><path class="cls-1" d="M1732.43,160.87c-2.84,19.25-10.2,29.17-26.87,37.42l-5-6.47c6.3-2.58,17.65-7.63,21.64-23l-37.42,3v29.88c0,8.34,1.24,10.2,11.88,10.2h17.91a102,102,0,0,0,16.4-1.59l.09,8.16a124.44,124.44,0,0,1-15.87,1h-19.42c-14.28,0-19.33-4.16-19.33-17.38V172.57l-19.33,1.51-.53-7.62,19.86-1.51v-20h8.34v19.42Z"/><path class="cls-1" d="M1773.39,170.45c-7.27-5.67-20.75-11.17-27.22-13l4-7.1c1.51.45,16,4.61,28.2,12.41Zm-26.78,39.72c25-1.78,52.67-9.4,66.51-53.91l8,3.55c-7.1,20.39-18.62,53.56-71.38,59.14Z"/><path class="cls-1" d="M1859.2,174.52a106.88,106.88,0,0,1,22.7,14.19,60.71,60.71,0,0,0,12.15-26.24h-34.14c-10.37,14.63-20,20.48-24,22.78l-5.14-6a64.94,64.94,0,0,0,30-35.2l8.51,1.6a91.76,91.76,0,0,1-4.61,9.57H1904c-2.92,15.87-11.08,54.09-62.78,66.68l-4.52-7c16-3.28,28.11-9,39.72-20a104.09,104.09,0,0,0-22.52-14.72Z"/><path class="cls-1" d="M1997.42,178.42v8.52h-78.73v-8.52Z"/><path class="cls-1" d="M250.57,75.7h4.14v11.4h19.83V91H255.36c2.89,12.2,8.24,19,19.83,23.79l-2.6,3.91c-9.68-4.56-16.43-11.07-19.46-22.34-4.23,14.48-15,20-19.87,22.25l-2.24-4c6.93-2.7,16.85-8.42,19.32-23.6h-18.9V87.09h19.13Z"/><path class="cls-1" d="M315.29,93.94a52.72,52.72,0,0,1-11.82,7.59v1h19.36v3.58H303.47v9.17c0,3.07-2.42,3.59-3.82,3.59h-8.47l-.74-4,7.59,0c1.44,0,1.54-.37,1.54-1.44v-7.35H279.73v-3.58h19.83V98.64h2a27,27,0,0,0,7.54-4.42H287.22V90.77h28.07Zm-4.52-10.8a68.74,68.74,0,0,0,3.5-7.68l4,1.35a47.36,47.36,0,0,1-3.3,6.33h6.75V93.43h-3.82V86.58H284.66v6.84h-3.81V83.14h6.75A27.87,27.87,0,0,0,284.39,77l3.44-1.35a25.41,25.41,0,0,1,3.59,6.61l-2.33.88Zm-10.19,0A40.26,40.26,0,0,0,297,76.48L300.63,75a36.67,36.67,0,0,1,3.54,6.79Z"/><path class="cls-1" d="M369.74,87.79H360V100h11.26v3.77H328.12V100h11.36V87.79H329.7V84h9.78V75.74h3.81V84h12.89V75.74H360V84h9.69ZM344.6,107.9a39.06,39.06,0,0,1-12.84,11.17l-2.94-3.25c5.87-2.93,8.57-5.07,12.38-9.77Zm11.59-20.11H343.29V100h12.89Zm11.55,31.28A49.44,49.44,0,0,1,355.12,108l3.16-2.14a43.45,43.45,0,0,0,12.34,9.87Z"/><path class="cls-1" d="M417.84,114.66c0,2.79-1.12,4.14-4.7,4.14h-6.66l-.65-4,6.42,0c1,0,1.63,0,1.63-1.49V81H382.32v37.84h-4V77.32h39.47ZM411.7,85.37v3.4H384.42v-3.4Zm-3,7.77v17H387.31v-17ZM405,96.55H391v10.28H405Z"/><path class="cls-1" d="M439.05,88.12h8.33v3.63h-8.24a38.1,38.1,0,0,0,7.63,10.1l-2.05,3.4a33.53,33.53,0,0,1-5.67-8.34v22h-4V97.62a40.41,40.41,0,0,1-8.8,12.8l-1.81-4.24a45.23,45.23,0,0,0,10.19-14.43h-9.73V88.12h10.15V81.37c-3.21.38-6.38.61-8.84.74l-.79-3.54c1.86-.09,12.52-.46,20.34-3l1.63,3.35a58,58,0,0,1-8.38,1.9Zm15.4,21.13h-4V79.13h4Zm12.29,5.54c0,3.54-2.75,4.05-4.29,4.05h-7.35l-.83-4.15,6.7.14c1.39,0,1.68-.09,1.68-1.4V75.7h4.1Z"/><path class="cls-1" d="M513.87,114.93c0,3.4-2.09,3.91-3.68,3.91h-6.28l-.47-3.86,5.45.09c.79,0,1.07-.56,1.07-1.26v-9.4H497.39v14h-3.67v-14h-12c-.83,6.75-3.4,11.5-6,14.34l-2.65-3.4a18.27,18.27,0,0,0,3.72-6.61,39.45,39.45,0,0,0,1.49-9.64V77.65h35.61Zm-20.15-22.2H482.13V98.5a23.76,23.76,0,0,1,0,2.42h11.64Zm0-11.45H482.13v7.91h11.59Zm16.24,0H497.39v7.91H510Zm0,11.45H497.39v8.19H510Z"/><path class="cls-1" d="M552.39,79.56c.56.46.7.6.93.79a45.12,45.12,0,0,0,3.07-4.84l2.84,1.12a52.92,52.92,0,0,1-3.91,5.63c.51.52,1.39,1.39,1.9,2,2.65-3.45,2.89-3.77,3.5-4.7l2.51,1.34a106.63,106.63,0,0,1-7.77,9.73c3.67-.23,3.91-.23,5.4-.37-.33-1-.56-1.58-.88-2.38l2.65-1a46.83,46.83,0,0,1,2.46,6.94L562.21,95a20.79,20.79,0,0,0-.56-2.33c-1,.13-4.84.51-5.21.56a41.35,41.35,0,0,1,4.23,2.65l-1.68,2h5.87v3.25H552.26a29.12,29.12,0,0,0,2.14,7.17,22.68,22.68,0,0,0,4.51-5.72l3.21,1.49a29.6,29.6,0,0,1-6,7.44c1.58,2.56,2.94,3.68,3.63,3.68.93,0,1.58-1.26,2.7-5.77l3,2.29c-1.26,4.79-2.51,7.12-5.49,7.12-3.3,0-6-3.81-6.75-5a36.13,36.13,0,0,1-9.91,4.71l-1.58-3.21a27.58,27.58,0,0,0,9.77-4.61,46,46,0,0,1-2.88-9.59h-8.94c0,1.08,0,1.26-.1,3a31.41,31.41,0,0,1,7.78,4.71l-2.05,3a27.21,27.21,0,0,0-6-4.38c-.65,6.29-2.42,9.08-4.19,11.41l-2.75-2.7c2.84-3.86,3.59-7.27,3.68-15h-1.91V98.41l-1.77,2.6a27,27,0,0,1-2.19-4.79v22.62h-3.45V97.71A40.52,40.52,0,0,1,523,108.27l-2-4.56a42.4,42.4,0,0,0,5.45-15.55h-4.75V84.63h5v-9h3.45v9h3.68v3.54h-3.68v2.09a29.94,29.94,0,0,0,4.28,7.63l0,0H548a143.94,143.94,0,0,1-1.68-22.35h3.72a143.64,143.64,0,0,0,.75,15.23h1c1.16-1.22,2.84-3.31,3.54-4.15a37.75,37.75,0,0,0-4.89-4.89Zm-8.51,8.19a33.21,33.21,0,0,1,2.42,7.08l-2.84,1c-.18-.93-.28-1.35-.46-2-1.63.18-9.5.79-9.92.83l-.42-2.93a7.48,7.48,0,0,0,1.3,0c.61-.65,1.68-1.86,3.91-4.66a56.19,56.19,0,0,0-5.31-5.07l2-2.19c.56.42.7.51,1.12.83a31.13,31.13,0,0,0,3.63-5.07l2.84,1.08a38.45,38.45,0,0,1-4.42,5.86,27.08,27.08,0,0,1,2,2.14,47.57,47.57,0,0,0,3.54-4.89l2.47,1.58c-2.33,3.25-6.33,8.24-8.19,10.29,1.63,0,2.79-.09,4.66-.23a16.67,16.67,0,0,0-1-2.56ZM556,93.29l-4.89.38c.14,1.16.42,3,.61,4.28h6.65c-.56-.38-2.46-1.63-4-2.47Z"/><path class="cls-1" d="M589.29,77.14V92.22H575.55v26.63h-3.68V77.14ZM585.65,80h-10.1v3.26h10.1Zm0,5.87h-10.1v3.5h10.1Zm15.45,30.67a20,20,0,0,1-9.54-8.47c-1.72,3.68-5.26,7.22-11.17,9.17l-1.91-3.16c6.24-1.63,8.8-4.85,9.82-6.75h-9.77v-3h10.85a14.56,14.56,0,0,0,.37-3.63h-10.1V97.8h5.21c-.75-1.77-1.08-2.51-1.73-3.81l3.59-.61a36.66,36.66,0,0,1,1.63,4.42h6.52a28.81,28.81,0,0,0,1.35-4.33l3.63.47a25.56,25.56,0,0,1-1.54,3.86h5.4v2.94H593.29a24.85,24.85,0,0,1-.46,3.63h11.92v3H594.5c1.08,1.58,3.4,4.23,8.34,6Zm10.34-39.42v38.21c0,1.08-.38,3.5-3.26,3.5h-5l-1-3.68,4.28,0c.93,0,1.26-.33,1.26-1.54V92.22H594V77.14ZM607.76,80H597.62v3.26h10.15Zm0,5.87H597.62v3.5h10.15Z"/><path class="cls-1" d="M617.9,115.16a64.24,64.24,0,0,0,8.89-15.31l3.12,2.37c-1.91,4.47-5.82,12.06-9.45,16.52Zm7.73-18.67A26.15,26.15,0,0,0,618,91.57l1.86-3.26A28.35,28.35,0,0,1,628,93.1Zm2.19-12.29a30,30,0,0,0-7.91-5.12L622,75.93a35.3,35.3,0,0,1,8.24,4.84Zm24.34,18.48a65,65,0,0,1,9.45,14.66L658,119.26a37.11,37.11,0,0,0-1.9-4,175.18,175.18,0,0,1-25.79,2.14l-.6-3.72h3.49c2.79-4.93,5.82-11.73,6.7-15.13h-9.59V95h13.54V86.26H632.23V82.67h11.63V75.6h3.91v7.08h12.15v3.59H647.78V95H661.6v3.58H644.29a128.46,128.46,0,0,1-6.84,15c4.46-.18,11.77-.51,16.94-1.25a60.41,60.41,0,0,0-5.45-7.68Z"/><path class="cls-1" d="M690.62,75.74v5.63a44.14,44.14,0,0,0,4.56,19.13c3,5.67,7.87,10.66,15.6,14.57L708,118.79c-13.17-7.12-17.5-17.5-19.45-26.11-2.65,13-10.2,21.22-19.78,25.93L666.14,115c8.52-4.19,13.87-9.68,16.57-16.1a53.75,53.75,0,0,0,3.72-17.59V75.74Z"/><path class="cls-1" d="M736.54,85.19c0,1.44,0,8.19-1.68,13l-3.07-1.58c1.35-3.4,1.77-8.7,1.68-11.59Zm5.63-9.55v43.24h-3.82V75.65Zm2.42,14.66a35.38,35.38,0,0,0-2.09-5.77l2.79-1.11a39.31,39.31,0,0,1,2.23,5.63Zm18.48-5.63H774v2.84h-10.9v3.12h12.71v3H746.5v-3h12.8V87.51H748.69V84.67H759.3V81.55H747.52v-3H759.3V75.65h3.76v2.89h11.82v3H763.06Zm10.57,29.93c0,3.16-.65,4.28-4.42,4.28h-4.93l-.75-3.54h5.21c1.21,0,1.21-.83,1.21-1.44v-3.35H752.59v8.33h-3.72V96.17h24.77ZM770,99.06H752.59V102H770Zm0,5.72H752.59v2.93H770Z"/><path class="cls-1" d="M793.91,75.65v4h8V83.1h-8V88h9.16v3.4h-2.93c-.42,2.14-1.21,5.17-1.63,6.52h4.14v3.45h-8.75v5.44h8v3.45h-8v8.57h-3.68v-8.57h-8v-3.45h8v-5.44h-8.75V97.94h4.38a45.27,45.27,0,0,0-1.73-6.52h-3.07V88h9.17V83.1h-8V79.65h8v-4ZM795,97.94a32.71,32.71,0,0,0,1.35-6.52h-8.65a53,53,0,0,1,1.58,6.52Zm27.33,20.9a32.87,32.87,0,0,1-5.92-5.73,28.73,28.73,0,0,1-5.26,5.59l-2.33-3.12a24.32,24.32,0,0,0,5.31-5.54,35.76,35.76,0,0,1-5-10.38l3.26-1a45.72,45.72,0,0,0,3.72,8,36.56,36.56,0,0,0,3-9.5H808.06v21.69h-3.63V77.14h18c0,5.35-.6,10.56-1.25,12-.33.74-1,2.09-3.86,2.09h-5.17l-.66-3.59,4.52,0c2,0,2.6-.7,2.84-7H808.06V93.75h15a41.68,41.68,0,0,1-4.56,16.1,43.37,43.37,0,0,0,6.06,5.54Z"/><path class="cls-1" d="M838.54,97.24a4,4,0,1,1-4-4A3.95,3.95,0,0,1,838.54,97.24Z"/><path class="cls-1" d="M859.52,98.18a55,55,0,0,0-13.22-5.49L848.2,89a54.3,54.3,0,0,1,13.27,5.31Zm-10.8,13.22c19.27-1.3,27.14-9.5,32.49-26l4,1.77c-5.86,16.43-13.13,26.39-35.46,28.72Zm14.66-24a60.91,60.91,0,0,0-13.54-5.49l1.9-3.58a54.92,54.92,0,0,1,13.55,5.21Z"/><path class="cls-1" d="M889.94,113.4c7.82-3.12,21.41-12.06,27.79-29.84H892.36v-4h31.09A53.68,53.68,0,0,1,914.24,99a198.57,198.57,0,0,1,16.2,14.38L927,116.79c-2.6-2.93-6-6.61-15.26-14.66a52.39,52.39,0,0,1-19.23,14.71Z"/><path class="cls-1" d="M975.43,91V95.1H959.6c-.47,13.22-5.36,19.69-18.86,22.39l-1.86-3.63c11.78-2,16.06-7.45,16.25-18.76H936.56V91Zm-3.86-12.19v4H940.42v-4Z"/><path class="cls-1" d="M1010.22,94.17a93.82,93.82,0,0,1,12.05,21.23l-4.46,1.86a40.8,40.8,0,0,0-1.68-4.51c-6.14.88-17.78,2-33.93,2.75l-.42-4.47c1.82,0,2.84,0,4.38,0,5.21-12.93,8.75-27.09,10.33-33.42l5.07.65a288.8,288.8,0,0,1-10.89,32.63c14.39-.56,22.25-1.35,23.87-1.54a82.77,82.77,0,0,0-8-13.41Z"/><path class="cls-1" d="M1042.88,90.72v23.46h-8.47v3.72H1031V99.39a15.64,15.64,0,0,1-2.51,3.12l-1.68-4.19c1.77-2.14,5.45-6.42,6.1-17.31h-5.4V77.41h16.2V81h-7.17a45.62,45.62,0,0,1-1.72,9.72Zm-3.3,3.35h-5.17v16.66h5.17ZM1065,92.82h5.4V96.5H1065v22.25h-3.81V96.5h-7.54v2.7c0,12.24-4.51,17.45-6.33,19.54L1044,116a17.77,17.77,0,0,0,4.33-6.89A35.45,35.45,0,0,0,1049.86,99V96.5h-5V92.82h5V81h-4.23V77.41h24.06V81H1065ZM1061.18,81h-7.54V92.82h7.54Z"/><path class="cls-1" d="M1075.58,115.31c13.36-3.4,15.26-10.1,16.06-13.32H1078.1V98.36h14.24a41.13,41.13,0,0,0,.42-5.17h3.81a48.52,48.52,0,0,1-.46,5.17h13.08v15c0,.93.09,1.26,1.17,1.26h3.11c1.54,0,1.68-1.3,1.77-6.66l3.59.84c-.14,7.26-.56,9.45-3.86,9.45h-6.1c-3.4,0-3.4-2.51-3.4-3.86V102h-10c-.79,3.5-2.89,12.38-18,17.08Zm27.88-21.46c-2.38,0-3.63-.6-3.63-3.16V83.14h-6.61c-.84,3.86-3,9.4-14.29,12.62l-1.34-3.59c9.07-1.77,11.12-6.23,12-9h-8.8v5.72H1077V79.65h18.34v-4h3.81v4h18.43V88h-1.72c-.33,4.14-1.08,5.82-3.77,5.82Zm10.42-6.38V83.14h-10.66v6.19c0,.65,0,1.16,1.26,1.16h6.19c1.54,0,1.58-1,1.77-3.4Z"/><path class="cls-1" d="M1154.79,79.56c.56.46.7.6.93.79a45.12,45.12,0,0,0,3.07-4.84l2.84,1.12a52.92,52.92,0,0,1-3.91,5.63c.51.52,1.39,1.39,1.91,2,2.65-3.45,2.88-3.77,3.49-4.7l2.51,1.34a106.63,106.63,0,0,1-7.77,9.73c3.67-.23,3.91-.23,5.4-.37-.33-1-.56-1.58-.88-2.38l2.65-1a46.84,46.84,0,0,1,2.46,6.94L1164.61,95a20.79,20.79,0,0,0-.56-2.33c-1,.13-4.84.51-5.21.56a41.35,41.35,0,0,1,4.23,2.65l-1.68,2h5.87v3.25h-12.61a29.12,29.12,0,0,0,2.14,7.17,22.68,22.68,0,0,0,4.51-5.72l3.21,1.49a29.6,29.6,0,0,1-6,7.44c1.58,2.56,2.94,3.68,3.63,3.68.93,0,1.58-1.26,2.7-5.77l3,2.29c-1.26,4.79-2.51,7.12-5.49,7.12-3.3,0-6-3.81-6.75-5a36.13,36.13,0,0,1-9.91,4.71l-1.58-3.21a27.58,27.58,0,0,0,9.77-4.61,46,46,0,0,1-2.88-9.59h-8.94c0,1.08,0,1.26-.1,3a31.41,31.41,0,0,1,7.78,4.71l-2,3a27.56,27.56,0,0,0-6-4.38c-.66,6.29-2.43,9.08-4.2,11.41l-2.75-2.7c2.84-3.86,3.59-7.27,3.68-15h-1.91V98.41l-1.77,2.6a27,27,0,0,1-2.19-4.79v22.62h-3.45V97.71a40.52,40.52,0,0,1-3.76,10.56l-2-4.56a42.4,42.4,0,0,0,5.45-15.55h-4.75V84.63h5v-9h3.45v9h3.68v3.54h-3.68v2.09a29.94,29.94,0,0,0,4.28,7.63l0,0h13.54a143.94,143.94,0,0,1-1.68-22.35h3.72a143.64,143.64,0,0,0,.75,15.23h1c1.16-1.22,2.84-3.31,3.54-4.15a37.75,37.75,0,0,0-4.89-4.89Zm-8.51,8.19a33.21,33.21,0,0,1,2.42,7.08l-2.84,1c-.18-.93-.28-1.35-.46-2-1.63.18-9.5.79-9.92.83l-.42-2.93a7.48,7.48,0,0,0,1.3,0c.61-.65,1.68-1.86,3.91-4.66a56.19,56.19,0,0,0-5.31-5.07l2-2.19c.56.42.7.51,1.12.83a31.13,31.13,0,0,0,3.63-5.07l2.84,1.08a38.45,38.45,0,0,1-4.42,5.86,27.08,27.08,0,0,1,2,2.14,47.57,47.57,0,0,0,3.54-4.89l2.47,1.58c-2.33,3.25-6.33,8.24-8.19,10.29,1.63,0,2.79-.09,4.66-.23a16.67,16.67,0,0,0-1-2.56Zm12.1,5.54-4.89.38c.14,1.16.42,3,.61,4.28h6.65c-.56-.38-2.46-1.63-4-2.47Z"/><path class="cls-1" d="M1185.72,102.36a45,45,0,0,1-3.5-6.1v22.48h-3.67V97.2a39.77,39.77,0,0,1-5.21,11.31l-1.68-4.93c2.84-3.72,5.17-8.1,6.66-15.36h-5.77V84.77h6V75.65h3.67v9.12h4.8v3.45h-4.8v1.73a30.88,30.88,0,0,0,5.68,9Zm13.64-9.17h-12.85V90.36h7.22V87H1189V84.31h4.75v-3h-6.14V78.44h6.14V75.65h3.35v2.79h8V75.65h3.4v2.79h6v2.89h-6v3H1213V87h-4.51v3.4h7.13v2.84h-13V96h10.19v12.15h2.84v2.89h-2.84v4.37c0,2.09-.65,3.3-3.53,3.3h-5.59l-.42-3.54,4.7,0c1.26,0,1.44-.23,1.44-1.26v-2.93H1192.7v7.68h-3.35v-7.68h-3.5v-2.89h3.5V96h10Zm0,5.58h-6.66v3.3h6.66Zm0,6h-6.66v3.45h6.66Zm5.72-23.41h-8v3h8Zm0,5.63h-8v3.4h8Zm-2.51,15.12h6.79v-3.3h-6.79Zm0,6.1h6.79v-3.45h-6.79Z"/><path class="cls-1" d="M1278.17,90.92v3.91h-15.64c-.09,14.48-6.61,20.11-18.94,22.62l-1.73-3.72c10.71-2,16.53-5.63,16.25-18.9h-18.76V90.92Zm-7.54-12.06v3.77h-27.09V78.86Zm2.6,3.86a30.11,30.11,0,0,0-2.09-6.79l2.93-.75a28.39,28.39,0,0,1,2.24,6.8Zm5.35-.61a41.73,41.73,0,0,0-2.37-6.88l2.75-.84a34.31,34.31,0,0,1,2.47,6.8Z"/><path class="cls-1" d="M1327.22,94.82v4.47h-41.34V94.82Z"/><path class="cls-1" d="M1348.85,92.78a56.55,56.55,0,0,1,11.92,7.44,31.87,31.87,0,0,0,6.38-13.78h-17.92c-5.44,7.68-10.52,10.76-12.62,12l-2.7-3.17a34,34,0,0,0,15.73-18.48l4.47.83a49,49,0,0,1-2.42,5h20.66c-1.54,8.33-5.82,28.39-33,35L1337,114c8.38-1.73,14.75-4.75,20.85-10.52a54.83,54.83,0,0,0-11.82-7.73Z"/><path class="cls-1" d="M1409,76.91h4.33v9.17h8.34v4h-8.34v5.21c0,3.77-1,11.36-6.38,15.92-5.12,4.33-12.06,5.49-15.5,6l-1.72-4c9.73-1.26,19.27-4.47,19.27-18V90.07h-16.43v12.8h-4.32V90.07H1380v-4h8.19V77.14h4.32v8.94H1409Z"/><path class="cls-1" d="M1452.56,117.53h-4.46v-23a97.68,97.68,0,0,1-18.67,9.35l-2.56-3.59c6.7-2.37,23.27-9.12,34.58-23.22l4.1,2.75a122.81,122.81,0,0,1-13,11.59Z"/><path class="cls-1" d="M1511.23,81.19v4h-15v24.53h17.64v4.1h-39.57v-4.1h17.41V85.23h-14.76v-4Z"/><path class="cls-1" d="M1535.38,90.63c-3.82-3-10.89-5.87-14.29-6.84l2.09-3.72a61.6,61.6,0,0,1,14.8,6.52Zm-14.06,20.85c13.13-.93,27.65-4.93,34.91-28.3l4.19,1.86c-3.72,10.71-9.77,28.11-37.47,31Z"/><path class="cls-1" d="M1564.91,113.4c7.82-3.12,21.41-12.06,27.79-29.84h-25.37v-4h31.09A53.68,53.68,0,0,1,1589.21,99a198.57,198.57,0,0,1,16.2,14.38l-3.45,3.45c-2.6-2.93-6-6.61-15.26-14.66a52.39,52.39,0,0,1-19.23,14.71Z"/><path class="cls-1" d="M1652.31,87.79h-9.69V100h11.26v3.77H1610.7V100h11.36V87.79h-9.78V84h9.78V75.74h3.81V84h12.89V75.74h3.86V84h9.69Zm-25.14,20.11a39.06,39.06,0,0,1-12.84,11.17l-2.94-3.25c5.87-2.93,8.57-5.07,12.38-9.77Zm11.59-20.11h-12.89V100h12.89Zm11.55,31.28A49.44,49.44,0,0,1,1637.69,108l3.16-2.14a43.45,43.45,0,0,0,12.34,9.87Z"/><path class="cls-1" d="M1700.41,114.66c0,2.79-1.12,4.14-4.7,4.14h-6.66l-.65-4,6.42,0c1,0,1.63,0,1.63-1.49V81H1664.9v37.84h-4V77.32h39.47Zm-6.14-29.28v3.4H1667v-3.4Zm-3,7.77v17h-21.36v-17Zm-3.63,3.4h-14.05v10.28h14.05Z"/><path class="cls-1" d="M1721.63,88.12H1730v3.63h-8.24a38.1,38.1,0,0,0,7.63,10.1l-2.05,3.4a33.53,33.53,0,0,1-5.67-8.34v22h-4V97.62a40.41,40.41,0,0,1-8.8,12.8l-1.81-4.24a45.23,45.23,0,0,0,10.19-14.43h-9.73V88.12h10.15V81.37c-3.21.38-6.38.61-8.84.74l-.79-3.54c1.86-.09,12.52-.46,20.34-3l1.63,3.35a58,58,0,0,1-8.38,1.9Zm15.4,21.13h-4V79.13h4Zm12.29,5.54c0,3.54-2.75,4.05-4.29,4.05h-7.35l-.83-4.15,6.7.14c1.39,0,1.68-.09,1.68-1.4V75.7h4.1Z"/><path class="cls-1" d="M1796.45,114.93c0,3.4-2.09,3.91-3.68,3.91h-6.28L1786,115l5.45.09c.79,0,1.07-.56,1.07-1.26v-9.4H1780v14h-3.67v-14h-12c-.83,6.75-3.4,11.5-6,14.34l-2.65-3.4a18.27,18.27,0,0,0,3.72-6.61,39.45,39.45,0,0,0,1.49-9.64V77.65h35.61Zm-20.15-22.2h-11.59V98.5a23.76,23.76,0,0,1,0,2.42h11.64Zm0-11.45h-11.59v7.91h11.59Zm16.24,0H1780v7.91h12.57Zm0,11.45H1780v8.19h12.57Z"/><path class="cls-1" d="M1846.43,82.11h-6.75V96.64h7.63v3.21h-9.17a24.65,24.65,0,0,0,9.59,7.49l-2,3.25a32.79,32.79,0,0,1-11.82-10.75h-16a29.6,29.6,0,0,1-12.11,10.75l-1.9-3.21a23.37,23.37,0,0,0,9.77-7.54h-9.35V96.64h7.82V82.11h-6.75V78.86h6.75V75.7h3.77v3.16h19.92V75.7h3.82v3.16h6.75ZM1824,113.86v-5.45h-10.2v-3.25H1824v-3.82h3.77v3.82h10.33v3.25h-10.33v5.45h17.87v3.35h-39.57v-3.35Zm11.87-31.75h-19.92v3h19.92Zm0,5.68h-19.92v2.84h19.92Zm0,5.58h-19.92v3.26h19.92Z"/><path class="cls-1" d="M1864.23,97.57h-2.75V91.28c-.47,0-2.52.19-2.94.23-.42,7.78-2.75,10.8-3.81,12.2l-2.7-2.79c2-2.7,2.79-4.8,3.21-9.17-1.21,0-1.63.09-2.51.14l-.09-3.12c2,0,2.19,0,2.75-.09V78.77h5.49c.09-.28.61-2.09.88-3.17l3.82.1a25.64,25.64,0,0,1-1.08,3.07H1871v8.65c.74,0,.93-.09,1.82-.18v2.93c-1.26.19-1.4.19-1.82.23v8.7c0,2.14-1,3.17-3.45,3.17h-4l-.83-3.45,3.77,0c.79,0,1.25,0,1.25-1.21V90.77l-3.58.33Zm31.51,20h-43v-3.35h3.81v-9.87h35.24v9.87h4Zm-37-29c2.28-.14,3-.19,9.12-.75V81.65h-9.12Zm8.43,19h-6.89v6.71h6.89Zm-3.77-19.83a33.88,33.88,0,0,0-3-3.81l2.42-1.77a42,42,0,0,1,3,3.77Zm14.15,19.83h-6.94v6.71h6.94Zm17-4.56a43.33,43.33,0,0,1-10.8-3.82,43.21,43.21,0,0,1-10.1,3.82l-1.68-3.4a31.42,31.42,0,0,0,8.47-2.47,25.18,25.18,0,0,1-4.7-4.33l2.79-1.77a21.3,21.3,0,0,0,5.17,4.42,22.38,22.38,0,0,0,5.31-4.56h-14.8V87.94h19.23v2.89a25.61,25.61,0,0,1-6.38,6.28,36.06,36.06,0,0,0,9.17,2.28Zm-4.66-21.14c0,.7.09,1.08.83,1.08h.88c.51,0,1.07,0,1.26-3.5l3.07.79c-.33,3.3-.93,5.54-3.4,5.54h-3.73c-1.9,0-2.42-1.07-2.42-2.33V79.69H1880c-.47,3.08-1.44,5-5.26,7l-1.9-2.56c3.16-1.73,3.72-3.3,3.81-7.45h13.18Zm-1.73,25.69H1881v6.71h7.12Z"/><path class="cls-1" d="M1928.17,76.06a22.29,22.29,0,0,1-1.77,4.42H1944v3.45h-19.78a30.73,30.73,0,0,1-5.49,6l-2.37-2.89a20.92,20.92,0,0,0,1.9-1.58h-9.35v6.14h8.29c-.09,11.68-.38,22.25-1.63,25.09-.47,1-1.26,2-4.47,2h-3.58l-.7-3.72h3.68c.83,0,1.58,0,2-1.25.56-1.77,1-12.57,1-18.57h-4.61v.88c0,8.8-1.54,16.43-5.72,22.48l-2.65-3.07c1.72-2.75,4.84-7.68,4.84-19.46V85.47h-4.19V81.89h6.7v-6.1h3.77v6.1h6.7v3.49a26.24,26.24,0,0,0,6.1-9.82Zm2,16.71V85.84h3.49v6l8.8-2.24c-.13,12.52-.13,13.87-.56,15.31-.37,1.26-1.11,2.29-3.91,2.29h-2.84l-.52-3.54,2.61,0c.79,0,1.39-.18,1.54-1.68.13-1.16.13-5.72.13-7.86l-5.26,1.3V110.6h-3.49V96.41l-4.8,1.21v14.57c0,2,.7,2.28,2.33,2.28h9.87c2.19,0,2.88,0,2.88-5.72l3.68,1.07c-.37,6.52-.93,8.19-5,8.19h-12.89c-2.37,0-4.46-.56-4.46-3.72V98.45l-2.79.7-.61-3.35,3.4-.88V88.35h3.58V94Z"/><path class="cls-1" d="M1966.91,83.61V87h-17.5V83.61ZM1965.34,77v3.3H1950.9V77Zm0,13.13v3.35H1950.9V90.17Zm0,6.62v3.35H1950.9V96.78Zm0,6.7v13.27h-11v2.09h-3.4V103.48Zm-3.4,3.12h-7.63v6.93h7.63Zm29.7,12.24a39.49,39.49,0,0,1-12.1-5.92,33.3,33.3,0,0,1-12.15,5.92l-2-3.64a29.74,29.74,0,0,0,11.12-4.7,25.1,25.1,0,0,1-6.38-9l3.16-1.34a22,22,0,0,0,6,8.09,28.22,28.22,0,0,0,6.56-9.17h-17.73V95.43h21.69v3.63a30.17,30.17,0,0,1-7.45,11.41,40.55,40.55,0,0,0,11,4.7ZM1985.86,77V87.33a1.06,1.06,0,0,0,1.12,1.21H1988c.65,0,.93-.28,1.12-1a45.48,45.48,0,0,0,.55-5.07l3.5.84c-.14,8.61-2.47,8.89-4.15,8.89h-3.72a2.74,2.74,0,0,1-3.12-3V80.63h-7.44c-.42,7-1.72,9.86-5.45,12.84l-2.79-2.84c3.3-2.09,4.65-6,4.65-11.5,0-.83,0-1.39,0-2.09Z"/><rect class="cls-2" x="112.25" y="64.11" width="13.15" height="52.09"/><rect class="cls-2" x="144.12" y="76.5" width="10.54" height="52.09"/><rect class="cls-2" x="129.09" y="70.31" width="11.96" height="52.09"/><rect class="cls-2" x="93.88" y="57.91" width="14.07" height="52.09"/><rect class="cls-2" x="29.4" y="31.46" width="6.23" height="52.09"/><rect class="cls-2" x="157.13" y="82.7" width="8.88" height="52.09"/><rect class="cls-2" x="15.96" y="20.55" width="3.34" height="52.11"/><rect class="cls-2" width="1.85" height="52.09"/><rect class="cls-2" x="75.51" y="51.7" width="13.44" height="52.09"/><rect class="cls-2" x="43.63" y="38.99" width="8.88" height="52.09"/><rect class="cls-2" x="58.67" y="45.37" width="11.3" height="52.09"/><rect class="cls-2" x="176" y="95.11" width="4.55" height="52.09"/><path class="cls-2" d="M181.16,101.74v52.11c0-.79,1.66,0,1.66,0V101.74Z"/><rect class="cls-2" x="167.85" y="88.9" width="6.91" height="52.09"/><path class="cls-2" d="M0,153.84A11.71,11.71,0,0,0,2,160a29.12,29.12,0,0,0,5.73,6.38,68.06,68.06,0,0,0,8.2,5.93c3.32,2.09,7,4.15,11,6.16,4.19,2.11,8.67,4.16,13.31,6.16,5,2.15,10.17,4.2,15.34,6.16C61.39,193,67.2,195,72.73,196.94c6.78,2.34,13.17,4.4,18.68,6.17s11.9,3.82,18.68,6.16c5.53,1.9,11.34,3.95,17.14,6.16,5.17,2,10.35,4,15.35,6.16,4.63,2,9.12,4,13.3,6.16,4,2,7.71,4.06,11,6.16a67,67,0,0,1,8.45,6.16,28.57,28.57,0,0,1,5.48,6.16,11.77,11.77,0,0,1,2,6.16V200.26a11.78,11.78,0,0,0-2-6.16,28.57,28.57,0,0,0-5.48-6.16,67.13,67.13,0,0,0-8.45-6.16c-3.33-2.09-7-4.15-11-6.16-4.18-2.11-8.67-4.17-13.3-6.16-5-2.15-10.18-4.2-15.35-6.17-5.81-2.19-11.61-4.26-17.14-6.14-6.78-2.34-13.17-4.4-18.68-6.17s-11.9-3.84-18.68-6.16c-5.53-1.9-11.34-4-17.15-6.16-5.17-2-10.34-4-15.34-6.16-4.63-2-9.12-4-13.31-6.16-4-2-7.71-4.06-11-6.16a66.6,66.6,0,0,1-8.2-5.94A28.77,28.77,0,0,1,2,107.91a11.71,11.71,0,0,1-2-6.17Z"/><path class="cls-1" d="M182.83,252.35a11.7,11.7,0,0,1-2,6.16,28.88,28.88,0,0,1-5.73,6.38,68.45,68.45,0,0,1-8.2,5.94c-3.33,2.08-7,4.15-11,6.16-4.18,2.11-8.67,4.16-13.3,6.16-5,2.14-10.18,4.2-15.34,6.16-5.82,2.19-11.62,4.26-17.15,6.16-6.79,2.32-13.17,4.4-18.68,6.16s-11.9,3.84-18.68,6.17c-5.53,1.88-11.34,3.95-17.15,6.14-5.17,2-10.34,4-15.34,6.17-4.63,2-9.12,4-13.31,6.16-4,2-7.71,4.06-11,6.16a67.77,67.77,0,0,0-8.46,6.16A28.51,28.51,0,0,0,2,344.72a11.69,11.69,0,0,0-2,6.16V298.79a11.69,11.69,0,0,1,2-6.16,28.49,28.49,0,0,1,5.47-6.16,66.34,66.34,0,0,1,8.46-6.16c3.33-2.09,7-4.16,11-6.16C31.12,272,35.61,270,40.24,268c5-2.14,10.17-4.2,15.34-6.16,5.82-2.19,11.62-4.26,17.15-6.16,6.78-2.32,13.17-4.39,18.68-6.16s11.89-3.84,18.68-6.16c5.53-1.9,11.34-4,17.15-6.16,5.17-2,10.34-4,15.34-6.16,4.63-2,9.12-4,13.3-6.16,4-2,7.71-4.08,11-6.16a68.44,68.44,0,0,0,8.2-5.94,28.87,28.87,0,0,0,5.73-6.38,11.7,11.7,0,0,0,2-6.16Z"/><path class="cls-1" d="M182.83,153.84a11.78,11.78,0,0,1-2,6.16,29.5,29.5,0,0,1-5.73,6.38,68.35,68.35,0,0,1-8.2,5.93c-3.33,2.09-7,4.15-11,6.16-4.18,2.11-8.67,4.16-13.3,6.16-5,2.14-10.18,4.2-15.34,6.16-5.82,2.21-11.62,4.26-17.15,6.16-6.79,2.34-13.17,4.4-18.68,6.16s-11.9,3.83-18.68,6.17c-5.53,1.9-11.34,3.95-17.15,6.16-5.17,2-10.34,4-15.34,6.16-4.63,2-9.12,4-13.31,6.16-4,2-7.71,4.06-11,6.16A67.63,67.63,0,0,0,7.44,240,28.49,28.49,0,0,0,2,246.2a11.73,11.73,0,0,0-2,6.16V200.26a11.69,11.69,0,0,1,2-6.16,28.51,28.51,0,0,1,5.47-6.16,67.77,67.77,0,0,1,8.46-6.16c3.33-2.09,7-4.15,11-6.16,4.18-2.11,8.67-4.17,13.31-6.16,5-2.15,10.17-4.2,15.34-6.17,5.82-2.19,11.62-4.26,17.15-6.14,6.78-2.34,13.17-4.4,18.68-6.17s11.89-3.84,18.68-6.16c5.53-1.9,11.34-4,17.15-6.16,5.17-2,10.34-4,15.34-6.16,4.63-2,9.12-4,13.3-6.16,4-2,7.71-4.08,11-6.16a66.88,66.88,0,0,0,8.2-5.94,29.15,29.15,0,0,0,5.73-6.37,11.78,11.78,0,0,0,2-6.17Z"/><rect class="cls-1" x="57.43" y="64.11" width="13.14" height="52.09"/><rect class="cls-1" x="28.16" y="76.5" width="10.54" height="52.09"/><rect class="cls-1" x="41.78" y="70.31" width="11.96" height="52.09"/><rect class="cls-1" x="74.88" y="57.91" width="14.07" height="52.09"/><rect class="cls-1" x="147.2" y="31.46" width="6.23" height="52.09"/><rect class="cls-1" x="16.82" y="82.7" width="8.88" height="52.09"/><rect class="cls-1" x="163.53" y="20.55" width="3.34" height="52.11"/><rect class="cls-1" x="180.98" width="1.85" height="52.09"/><rect class="cls-1" x="93.88" y="51.7" width="13.44" height="52.09"/><rect class="cls-1" x="130.32" y="38.99" width="8.89" height="52.09"/><rect class="cls-1" x="112.86" y="45.37" width="11.3" height="52.09"/><rect class="cls-1" x="2.28" y="95.11" width="4.55" height="52.09"/><path class="cls-1" d="M1.66,101.74v52.11c0-.79-1.66,0-1.66,0V101.74Z"/><rect class="cls-1" x="8.06" y="88.9" width="6.91" height="52.09"/></g></g></svg>