<svg xmlns="http://www.w3.org/2000/svg" viewBox="0 0 1498.87 349.25"><defs><style>.cls-1{fill:#97bdc0;}.cls-2{fill:#004098;}</style></defs><title>logo_en_full_rgb</title><g id="レイヤー_2" data-name="レイヤー 2"><g id="レイヤー_1-2" data-name="レイヤー 1"><rect class="cls-1" x="111.73" y="63.81" width="13.09" height="51.85"/><rect class="cls-1" x="143.45" y="76.15" width="10.49" height="51.85"/><rect class="cls-1" x="128.49" y="69.98" width="11.9" height="51.85"/><rect class="cls-1" x="93.44" y="57.64" width="14" height="51.85"/><rect class="cls-1" x="29.26" y="31.31" width="6.2" height="51.85"/><rect class="cls-1" x="156.4" y="82.32" width="8.84" height="51.85"/><rect class="cls-1" x="15.88" y="20.45" width="3.32" height="51.86"/><rect class="cls-1" width="1.84" height="51.85"/><rect class="cls-1" x="75.16" y="51.46" width="13.38" height="51.85"/><rect class="cls-1" x="43.42" y="38.81" width="8.84" height="51.85"/><rect class="cls-1" x="58.39" y="45.16" width="11.25" height="51.85"/><rect class="cls-1" x="175.18" y="94.67" width="4.53" height="51.85"/><path class="cls-1" d="M180.32,101.26v51.86c0-.79,1.66,0,1.66,0V101.26Z"/><rect class="cls-1" x="167.07" y="88.49" width="6.88" height="51.85"/><path class="cls-1" d="M0,153.13a11.65,11.65,0,0,0,2,6.13,29,29,0,0,0,5.7,6.35,67.74,67.74,0,0,0,8.16,5.9c3.31,2.09,7,4.13,11,6.13,4.17,2.1,8.63,4.14,13.24,6.13,5,2.14,10.12,4.18,15.27,6.13,5.78,2.2,11.56,4.24,17.07,6.13,6.75,2.32,13.11,4.38,18.59,6.14s11.85,3.8,18.59,6.13c5.51,1.89,11.28,3.93,17.07,6.13,5.15,1.94,10.3,4,15.28,6.13,4.61,2,9.08,4,13.24,6.13,4,2,7.68,4,11,6.13a66.67,66.67,0,0,1,8.41,6.13,28.43,28.43,0,0,1,5.45,6.13,11.72,11.72,0,0,1,2,6.13V199.33a11.72,11.72,0,0,0-2-6.13,28.43,28.43,0,0,0-5.45-6.13,66.82,66.82,0,0,0-8.41-6.13c-3.31-2.09-7-4.13-11-6.13-4.16-2.1-8.63-4.16-13.24-6.13-5-2.14-10.13-4.18-15.28-6.14-5.78-2.18-11.56-4.24-17.07-6.11-6.75-2.32-13.11-4.38-18.59-6.14s-11.85-3.82-18.59-6.13c-5.51-1.89-11.29-3.94-17.07-6.13-5.15-1.94-10.29-4-15.27-6.13-4.61-2-9.08-4-13.24-6.13-4-2-7.67-4-11-6.13a66.3,66.3,0,0,1-8.16-5.92A28.64,28.64,0,0,1,2,107.41a11.65,11.65,0,0,1-2-6.14Z"/><path class="cls-2" d="M182,251.18a11.64,11.64,0,0,1-2,6.13,28.75,28.75,0,0,1-5.71,6.35,68.13,68.13,0,0,1-8.16,5.92c-3.31,2.07-7,4.13-11,6.13-4.16,2.1-8.63,4.14-13.24,6.13C137,284,131.8,286,126.65,288c-5.79,2.18-11.56,4.24-17.07,6.13-6.75,2.31-13.11,4.38-18.59,6.13S79.14,304,72.4,306.36c-5.51,1.87-11.28,3.93-17.07,6.11-5.15,2-10.29,4-15.27,6.14-4.61,2-9.08,4-13.24,6.13-4,2-7.67,4-11,6.13A67.46,67.46,0,0,0,7.41,337,28.38,28.38,0,0,0,2,343.12a11.64,11.64,0,0,0-2,6.13V297.4a11.64,11.64,0,0,1,2-6.13,28.36,28.36,0,0,1,5.45-6.13A66,66,0,0,1,15.83,279c3.31-2.09,7-4.14,11-6.13,4.16-2.11,8.63-4.15,13.24-6.14,5-2.13,10.12-4.18,15.27-6.13,5.79-2.18,11.56-4.24,17.07-6.13,6.75-2.31,13.11-4.37,18.59-6.13s11.84-3.82,18.59-6.13c5.51-1.89,11.28-3.94,17.07-6.13,5.14-1.94,10.3-4,15.27-6.13,4.61-2,9.08-4,13.24-6.13,4-2,7.67-4.06,11-6.13a68.13,68.13,0,0,0,8.16-5.92,28.73,28.73,0,0,0,5.71-6.35,11.64,11.64,0,0,0,2-6.13Z"/><path class="cls-2" d="M182,153.13a11.72,11.72,0,0,1-2,6.13,29.37,29.37,0,0,1-5.71,6.35,68,68,0,0,1-8.16,5.9c-3.31,2.09-7,4.13-11,6.13-4.16,2.1-8.63,4.14-13.24,6.13-5,2.13-10.13,4.18-15.27,6.13-5.79,2.2-11.56,4.24-17.07,6.13-6.75,2.32-13.11,4.38-18.59,6.13S79.14,206,72.4,208.29c-5.51,1.89-11.28,3.93-17.07,6.13-5.15,1.94-10.29,4-15.27,6.13-4.61,2-9.08,4-13.24,6.13-4,2-7.67,4-11,6.13a67.31,67.31,0,0,0-8.42,6.13A28.36,28.36,0,0,0,2,245.05a11.67,11.67,0,0,0-2,6.13V199.33a11.64,11.64,0,0,1,2-6.13,28.38,28.38,0,0,1,5.45-6.13,67.46,67.46,0,0,1,8.42-6.13c3.31-2.09,7-4.13,11-6.13,4.16-2.1,8.63-4.16,13.24-6.13,5-2.14,10.12-4.18,15.27-6.14,5.79-2.18,11.56-4.24,17.07-6.11,6.75-2.32,13.11-4.38,18.59-6.14s11.84-3.82,18.59-6.13c5.51-1.89,11.28-3.94,17.07-6.13,5.14-1.94,10.3-4,15.27-6.13,4.61-2,9.08-4,13.24-6.13,4-2,7.67-4.06,11-6.13a66.57,66.57,0,0,0,8.16-5.92,29,29,0,0,0,5.71-6.34,11.72,11.72,0,0,0,2-6.14Z"/><rect class="cls-2" x="57.17" y="63.81" width="13.08" height="51.85"/><rect class="cls-2" x="28.03" y="76.15" width="10.49" height="51.85"/><rect class="cls-2" x="41.59" y="69.98" width="11.91" height="51.85"/><rect class="cls-2" x="74.54" y="57.64" width="14" height="51.85"/><rect class="cls-2" x="146.52" y="31.31" width="6.2" height="51.85"/><rect class="cls-2" x="16.74" y="82.32" width="8.84" height="51.85"/><rect class="cls-2" x="162.77" y="20.45" width="3.32" height="51.86"/><rect class="cls-2" x="180.14" width="1.84" height="51.85"/><rect class="cls-2" x="93.44" y="51.46" width="13.38" height="51.85"/><rect class="cls-2" x="129.71" y="38.81" width="8.85" height="51.85"/><rect class="cls-2" x="112.34" y="45.16" width="11.25" height="51.85"/><rect class="cls-2" x="2.27" y="94.67" width="4.53" height="51.85"/><path class="cls-2" d="M1.66,101.26v51.86c0-.79-1.66,0-1.66,0V101.26Z"/><rect class="cls-2" x="8.03" y="88.49" width="6.88" height="51.85"/><path class="cls-2" d="M249.75,21h33.36c48.2,0,67.29,27.76,67.29,67.1,0,48.78-32.59,67.48-77.12,67.48H249.75Zm13.3,123h11c38.18,0,63-15.42,63-56.68,0-41.07-24.49-54.75-54.56-54.75H263.06Z"/><path class="cls-2" d="M378.37,21h32c22,0,42.61,7.33,42.61,33.17,0,17.16-7.9,27.38-24.48,30.65v.39c17,3.08,28.53,14.27,28.53,32,0,29.31-23.91,38.37-51.86,38.37h-26.8Zm13.3,123h13.88c17.93,0,38.17-4.82,38.17-26.21,0-23.91-20.63-26.42-40.29-26.42H391.68Zm.39-64.2h14.85c14.07,0,32.77-3.67,32.77-25.07,0-19.47-17.93-22.17-29.31-22.17H392.06Z"/><path class="cls-2" d="M579.11,36c-8.49-4.43-20.63-5.78-30.08-5.78-34.89,0-54.56,24.68-54.56,58,0,33.93,19.09,58,54.56,58,8.87,0,22.37-1.16,30.08-5.78l.77,11.56c-7.32,4.44-22.36,5.79-30.85,5.79-42.41,0-67.87-28-67.87-69.61,0-40.87,26.22-69.6,67.87-69.6,7.91,0,23.91,1.35,30.85,5Z"/><path class="cls-2" d="M614.21,21h13.3V144h54v11.57H614.21Z"/><path class="cls-2" d="M697.32,138.4c7.9,5,17.16,7.9,29.69,7.9,16.58,0,30.27-8.49,30.27-27.57,0-26.41-61.7-29.69-61.7-65,0-21.59,18.89-35.09,42.61-35.09,6.55,0,17.16,1,26.41,4.43l-2.12,12.15c-6-3.28-15.42-5-24.49-5-13.88,0-29.11,5.78-29.11,23.14,0,27,61.7,27.19,61.7,66.52,0,27.18-23.33,38-44.15,38-13.11,0-23.33-2.7-30.47-5.79Z"/><path class="cls-2" d="M245.8,177.7h10.05c11.25,0,21.19,3.79,21.19,18.35s-9.94,18.36-21.19,18.36H245.8Zm7.37,30.93h4.1c6.16,0,12.1-4.57,12.1-12.57s-5.94-12.57-12.1-12.57h-4.1Z"/><path class="cls-2" d="M284.37,188.74a24.29,24.29,0,0,1,9.42-2c8.26,0,11.68,3.42,11.68,11.42v3.47c0,2.73.06,4.78.11,6.78s.15,3.94.32,6h-6.2a31.61,31.61,0,0,1-.32-4h-.11a9.68,9.68,0,0,1-8.37,4.68c-4.78,0-9.47-2.89-9.47-8.05a8,8,0,0,1,4.63-7.73c2.68-1.32,6.16-1.58,9.1-1.58H299c0-4.37-1.94-5.84-6.1-5.84a14.17,14.17,0,0,0-8.37,2.94Zm8.26,21.15a6,6,0,0,0,4.94-2.42,9,9,0,0,0,1.47-5.58h-3c-3.16,0-7.84.53-7.84,4.68C288.16,208.89,290.1,209.89,292.63,209.89Z"/><path class="cls-2" d="M314.73,192.48h-5.2v-5.16h5.2V181.9l7.05-2.26v7.68H328v5.16h-6.26V205.1c0,2.32.63,4.47,3.31,4.47a6.24,6.24,0,0,0,3.21-.74l.21,5.58a18.49,18.49,0,0,1-5.21.63c-5.52,0-8.57-3.42-8.57-8.79Z"/><path class="cls-2" d="M334.09,188.74a24.29,24.29,0,0,1,9.42-2c8.26,0,11.68,3.42,11.68,11.42v3.47c0,2.73.06,4.78.11,6.78s.15,3.94.32,6h-6.2a31.61,31.61,0,0,1-.32-4H349a9.68,9.68,0,0,1-8.37,4.68c-4.78,0-9.47-2.89-9.47-8.05a8,8,0,0,1,4.63-7.73c2.68-1.32,6.16-1.58,9.1-1.58h3.89c0-4.37-1.94-5.84-6.1-5.84a14.17,14.17,0,0,0-8.37,2.94Zm8.26,21.15a6,6,0,0,0,4.94-2.42,9,9,0,0,0,1.47-5.58h-3c-3.16,0-7.84.53-7.84,4.68C337.88,208.89,339.83,209.89,342.35,209.89Z"/><path class="cls-2" d="M362.14,175h7.05V190.8h.11a9.48,9.48,0,0,1,8.1-4.11c8.31,0,11.37,6.63,11.37,14.1S385.7,215,377.39,215a9.91,9.91,0,0,1-8.31-4H369v3.32h-6.84Zm13.31,34.62c4.63,0,5.94-5,5.94-8.78s-1.26-8.63-5.84-8.63-6.31,4.84-6.31,8.63S370.77,209.58,375.45,209.58Z"/><path class="cls-2" d="M395.49,188.74a24.29,24.29,0,0,1,9.42-2c8.26,0,11.68,3.42,11.68,11.42v3.47c0,2.73.06,4.78.11,6.78s.15,3.94.32,6h-6.2a31.61,31.61,0,0,1-.32-4h-.11A9.68,9.68,0,0,1,402,215c-4.78,0-9.47-2.89-9.47-8.05a8,8,0,0,1,4.63-7.73c2.68-1.32,6.16-1.58,9.1-1.58h3.89c0-4.37-1.94-5.84-6.1-5.84a14.17,14.17,0,0,0-8.37,2.94Zm8.26,21.15a6,6,0,0,0,4.94-2.42,9,9,0,0,0,1.47-5.58h-3c-3.16,0-7.84.53-7.84,4.68C399.28,208.89,401.23,209.89,403.76,209.89Z"/><path class="cls-2" d="M439.64,193a17.38,17.38,0,0,0-6.31-1.16c-1.89,0-4.16.68-4.16,3,0,4.31,12.26,1.58,12.26,11.36,0,6.31-5.63,8.84-11.37,8.84a31.64,31.64,0,0,1-8-1.16l.42-5.78a15.47,15.47,0,0,0,6.94,1.79c1.79,0,4.63-.68,4.63-3.32,0-5.31-12.25-1.68-12.25-11.47,0-5.84,5.1-8.42,10.63-8.42a32.55,32.55,0,0,1,7.68,1Z"/><path class="cls-2" d="M468.63,212.89a18.58,18.58,0,0,1-9.31,2.16c-8.94,0-14.15-5.16-14.15-14.05,0-7.83,4.16-14.3,12.57-14.3,10,0,12.89,6.89,12.89,16.36H451.9c.32,4.37,3.37,6.84,7.73,6.84a18.28,18.28,0,0,0,9-2.74Zm-4.73-14.67c-.21-3.42-1.79-6.37-5.73-6.37s-5.94,2.73-6.26,6.37Z"/><path class="cls-2" d="M518.14,213.89a37.14,37.14,0,0,1-8.36,1.16c-11.89,0-20.15-5.94-20.15-18.36,0-12.57,7.68-19.62,20.15-19.62a24.17,24.17,0,0,1,8.31,1.53l-.53,6.2a15.16,15.16,0,0,0-7.94-1.94c-7.57,0-12.31,5.78-12.31,13.3s4.63,13.1,12.47,13.1a20.46,20.46,0,0,0,8-1.53Z"/><path class="cls-2" d="M544.66,212.89a18.58,18.58,0,0,1-9.31,2.16c-8.94,0-14.15-5.16-14.15-14.05,0-7.83,4.16-14.3,12.57-14.3,10,0,12.89,6.89,12.89,16.36H527.93c.32,4.37,3.37,6.84,7.73,6.84a18.31,18.31,0,0,0,9-2.74Zm-4.73-14.67c-.21-3.42-1.79-6.37-5.73-6.37s-5.94,2.73-6.26,6.37Z"/><path class="cls-2" d="M552.19,187.33h6.68V191H559c2.2-3.1,5.2-4.31,8.89-4.31,6.42,0,9.21,4.52,9.21,10.63v17.09H570V199.95c0-3.31,0-7.78-4.58-7.78-5.1,0-6.2,5.52-6.2,9v13.25h-7.05Z"/><path class="cls-2" d="M586.66,192.48h-5.2v-5.16h5.2V181.9l7.05-2.26v7.68H600v5.16h-6.26V205.1c0,2.32.63,4.47,3.31,4.47a6.24,6.24,0,0,0,3.21-.74l.21,5.58a18.49,18.49,0,0,1-5.21.63c-5.52,0-8.57-3.42-8.57-8.79Z"/><path class="cls-2" d="M626.53,212.89a18.58,18.58,0,0,1-9.31,2.16c-8.94,0-14.15-5.16-14.15-14.05,0-7.83,4.16-14.3,12.57-14.3,10,0,12.89,6.89,12.89,16.36H609.81c.32,4.37,3.37,6.84,7.73,6.84a18.28,18.28,0,0,0,9-2.74Zm-4.73-14.67c-.21-3.42-1.79-6.37-5.73-6.37s-5.94,2.73-6.26,6.37Z"/><path class="cls-2" d="M634.22,187.33h6.26v6.15h.1c.32-2.52,3.21-6.78,7.42-6.78a7.67,7.67,0,0,1,2.16.21V194a7.22,7.22,0,0,0-3.16-.58c-5.73,0-5.73,7.16-5.73,11v9.94h-7.05Z"/><path class="cls-2" d="M671.74,192.48h-5.2v-5.16h5.2v-3.79c0-5.42,3-9.21,8.63-9.21a24.77,24.77,0,0,1,5.16.58l-.58,5.84a5.5,5.5,0,0,0-3-.94c-2.37,0-3.11,2-3.11,4.16v3.37h6.16v5.16h-6.16v21.93h-7.05Z"/><path class="cls-2" d="M702,186.69c8.05,0,14.21,5.42,14.21,14.36,0,7.78-5.21,14-14.21,14s-14.15-6.21-14.15-14C687.89,192.11,694,186.69,702,186.69Zm0,22.88c5.42,0,6.84-4.84,6.84-9.37,0-4.16-2.21-8-6.84-8s-6.79,4-6.79,8C695.25,204.68,696.67,209.58,702,209.58Z"/><path class="cls-2" d="M721.94,187.33h6.26v6.15h.1c.32-2.52,3.21-6.78,7.42-6.78a7.67,7.67,0,0,1,2.16.21V194a7.22,7.22,0,0,0-3.16-.58c-5.73,0-5.73,7.16-5.73,11v9.94h-7.05Z"/><path class="cls-2" d="M757.51,177.7h7.37v30.93h14.26v5.79H757.51Z"/><path class="cls-2" d="M783.34,175.65h7.05v6.73h-7.05Zm0,11.68h7.05v27.09h-7.05Z"/><path class="cls-2" d="M800.38,192.48h-5.2v-5.16h5.2v-3.79c0-5.42,3-9.21,8.63-9.21a24.77,24.77,0,0,1,5.16.58l-.58,5.84a5.5,5.5,0,0,0-3-.94c-2.37,0-3.11,2-3.11,4.16v3.37h6.16v5.16h-6.16v21.93h-7.05Z"/><path class="cls-2" d="M840,212.89a18.58,18.58,0,0,1-9.31,2.16c-8.94,0-14.15-5.16-14.15-14.05,0-7.83,4.16-14.3,12.57-14.3,10,0,12.89,6.89,12.89,16.36H823.27c.32,4.37,3.37,6.84,7.73,6.84a18.31,18.31,0,0,0,9-2.74Zm-4.73-14.67c-.21-3.42-1.79-6.37-5.73-6.37s-5.94,2.73-6.26,6.37Z"/><path class="cls-2" d="M882.52,184.43a19,19,0,0,0-7.47-1.58c-2.52,0-5.78,1.11-5.78,5.1,0,6.37,16.09,3.68,16.09,16,0,8-6.37,11.1-13.78,11.1a32.39,32.39,0,0,1-9.42-1.42l.68-6.63a17.77,17.77,0,0,0,8.32,2.26c2.78,0,6.52-1.42,6.52-4.73,0-7-16.1-4.11-16.1-16.26,0-8.21,6.37-11.21,12.84-11.21a27.7,27.7,0,0,1,8.78,1.32Z"/><path class="cls-2" d="M909,193.17a10.57,10.57,0,0,0-4.79-1c-4.37,0-7.15,3.47-7.15,8.57s2.37,8.84,7.31,8.84a15.07,15.07,0,0,0,5.42-1.26l.32,5.84A23.14,23.14,0,0,1,903,215c-8.89,0-13.36-6-13.36-14.31,0-7.84,4.63-14,13.1-14a23,23,0,0,1,6.84.89Z"/><path class="cls-2" d="M914.94,175.65H922v6.73h-7.05Zm0,11.68H922v27.09h-7.05Z"/><path class="cls-2" d="M951.13,212.89a18.58,18.58,0,0,1-9.31,2.16c-8.94,0-14.15-5.16-14.15-14.05,0-7.83,4.16-14.3,12.57-14.3,10,0,12.89,6.89,12.89,16.36H934.4c.32,4.37,3.37,6.84,7.73,6.84a18.28,18.28,0,0,0,9-2.74Zm-4.73-14.67c-.21-3.42-1.79-6.37-5.73-6.37s-5.94,2.73-6.26,6.37Z"/><path class="cls-2" d="M958.65,187.33h6.68V191h.11c2.2-3.1,5.2-4.31,8.89-4.31,6.42,0,9.21,4.52,9.21,10.63v17.09h-7.05V199.95c0-3.31,0-7.78-4.58-7.78-5.1,0-6.2,5.52-6.2,9v13.25h-7.05Z"/><path class="cls-2" d="M1008.38,193.17a10.57,10.57,0,0,0-4.79-1c-4.37,0-7.15,3.47-7.15,8.57s2.37,8.84,7.31,8.84a15.07,15.07,0,0,0,5.42-1.26l.32,5.84a23.14,23.14,0,0,1-7.05.89c-8.89,0-13.36-6-13.36-14.31,0-7.84,4.63-14,13.1-14a23,23,0,0,1,6.84.89Z"/><path class="cls-2" d="M1035.89,212.89a18.58,18.58,0,0,1-9.31,2.16c-8.94,0-14.15-5.16-14.15-14.05,0-7.83,4.16-14.3,12.57-14.3,10,0,12.89,6.89,12.89,16.36h-18.73c.32,4.37,3.37,6.84,7.73,6.84a18.31,18.31,0,0,0,9-2.74Zm-4.73-14.67c-.21-3.42-1.79-6.37-5.73-6.37s-5.94,2.73-6.26,6.37Z"/><path class="cls-2" d="M242.7,262.64a9.68,9.68,0,0,0,3.53.63c4.78,0,4.78-3.84,4.78-6.47V232.34h7.37v28c0,3.89-2.52,9.37-10.05,9.37a21.1,21.1,0,0,1-5.63-.68Z"/><path class="cls-2" d="M278.05,241.33c8.05,0,14.21,5.42,14.21,14.36,0,7.78-5.21,14-14.21,14s-14.15-6.21-14.15-14C263.9,246.75,270.06,241.33,278.05,241.33Zm0,22.88c5.42,0,6.84-4.84,6.84-9.37,0-4.16-2.21-8-6.84-8s-6.79,4-6.79,8C271.26,259.32,272.68,264.22,278.05,264.22Z"/><path class="cls-2" d="M297.95,230.29H305V237h-7.05Zm0,11.68H305v27.09h-7.05Z"/><path class="cls-2" d="M312.41,242h6.68v3.68h.11c2.2-3.1,5.2-4.31,8.89-4.31,6.42,0,9.21,4.52,9.21,10.63v17.09h-7.05V254.59c0-3.31,0-7.78-4.58-7.78-5.1,0-6.2,5.52-6.2,9v13.25h-7.05Z"/><path class="cls-2" d="M346.88,247.12h-5.2V242h5.2v-5.42l7.05-2.26V242h6.26v5.16h-6.26v12.62c0,2.32.63,4.47,3.31,4.47a6.24,6.24,0,0,0,3.21-.74l.21,5.58a18.49,18.49,0,0,1-5.21.63c-5.52,0-8.57-3.42-8.57-8.79Z"/><path class="cls-2" d="M400,239.07a19,19,0,0,0-7.47-1.58c-2.52,0-5.78,1.11-5.78,5.1,0,6.37,16.09,3.68,16.09,16,0,8-6.37,11.1-13.78,11.1a32.39,32.39,0,0,1-9.42-1.42l.68-6.63a17.77,17.77,0,0,0,8.32,2.26c2.78,0,6.52-1.42,6.52-4.73,0-7-16.1-4.11-16.1-16.26,0-8.21,6.37-11.21,12.84-11.21A27.7,27.7,0,0,1,400.7,233Z"/><path class="cls-2" d="M433.79,269.05h-6.68v-3.68H427a11.31,11.31,0,0,1-8.9,4.32c-6.42,0-9.21-4.53-9.21-10.63V242H416v14.47c0,3.31.06,7.78,4.58,7.78,5.1,0,6.2-5.52,6.2-9V242h7.05Z"/><path class="cls-2" d="M441.06,242h6.73v3.84h.11a9.18,9.18,0,0,1,8.42-4.47c8.31,0,11.37,6.63,11.37,14.1s-3.06,14.26-11.52,14.26a9.26,9.26,0,0,1-7.94-3.74h-.11V280.1h-7.05Zm7.11,13.47c0,3.84,1.52,8.78,6.2,8.78s5.94-5,5.94-8.78-1.26-8.63-5.84-8.63S448.17,251.64,448.17,255.43Z"/><path class="cls-2" d="M473.21,242h6.73v3.84H480a9.18,9.18,0,0,1,8.42-4.47c8.31,0,11.37,6.63,11.37,14.1s-3.06,14.26-11.52,14.26a9.26,9.26,0,0,1-7.94-3.74h-.11V280.1h-7.05Zm7.11,13.47c0,3.84,1.52,8.78,6.2,8.78s5.94-5,5.94-8.78-1.26-8.63-5.84-8.63S480.31,251.64,480.31,255.43Z"/><path class="cls-2" d="M517.77,241.33c8.05,0,14.21,5.42,14.21,14.36,0,7.78-5.21,14-14.21,14s-14.15-6.21-14.15-14C503.63,246.75,509.78,241.33,517.77,241.33Zm0,22.88c5.42,0,6.84-4.84,6.84-9.37,0-4.16-2.21-8-6.84-8s-6.78,4-6.78,8C511,259.32,512.41,264.22,517.77,264.22Z"/><path class="cls-2" d="M537.67,242h6.26v6.15h.1c.32-2.52,3.21-6.78,7.42-6.78a7.67,7.67,0,0,1,2.16.21v7.1a7.22,7.22,0,0,0-3.16-.58c-5.73,0-5.73,7.16-5.73,11v9.94h-7.05Z"/><path class="cls-2" d="M560.29,247.12h-5.2V242h5.2v-5.42l7.05-2.26V242h6.26v5.16h-6.26v12.62c0,2.32.63,4.47,3.31,4.47a6.24,6.24,0,0,0,3.21-.74l.21,5.58a18.49,18.49,0,0,1-5.21.63c-5.52,0-8.57-3.42-8.57-8.79Z"/><path class="cls-2" d="M576.65,257.8V252h13.84v5.79Z"/><path class="cls-2" d="M623.32,268.53a37.14,37.14,0,0,1-8.36,1.16c-11.89,0-20.15-5.94-20.15-18.36,0-12.57,7.68-19.62,20.15-19.62a24.17,24.17,0,0,1,8.31,1.53l-.53,6.2a15.16,15.16,0,0,0-7.94-1.94c-7.57,0-12.31,5.78-12.31,13.3s4.63,13.1,12.47,13.1a20.46,20.46,0,0,0,8-1.53Z"/><path class="cls-2" d="M649.84,267.53a18.58,18.58,0,0,1-9.31,2.16c-8.94,0-14.15-5.16-14.15-14.05,0-7.83,4.16-14.3,12.57-14.3,10,0,12.89,6.89,12.89,16.36H633.11c.32,4.37,3.37,6.84,7.73,6.84a18.31,18.31,0,0,0,9-2.74Zm-4.73-14.67c-.21-3.42-1.79-6.37-5.73-6.37s-5.94,2.73-6.26,6.37Z"/><path class="cls-2" d="M657.37,242h6.68v3.68h.11c2.2-3.1,5.2-4.31,8.89-4.31,6.42,0,9.21,4.52,9.21,10.63v17.09H675.2V254.59c0-3.31,0-7.78-4.58-7.78-5.1,0-6.2,5.52-6.2,9v13.25h-7.05Z"/><path class="cls-2" d="M691.84,247.12h-5.2V242h5.2v-5.42l7.05-2.26V242h6.26v5.16h-6.26v12.62c0,2.32.63,4.47,3.31,4.47a6.24,6.24,0,0,0,3.21-.74l.21,5.58a18.49,18.49,0,0,1-5.21.63c-5.52,0-8.57-3.42-8.57-8.79Z"/><path class="cls-2" d="M731.71,267.53a18.58,18.58,0,0,1-9.31,2.16c-8.94,0-14.15-5.16-14.15-14.05,0-7.83,4.16-14.3,12.57-14.3,10,0,12.89,6.89,12.89,16.36H715c.32,4.37,3.37,6.84,7.73,6.84a18.28,18.28,0,0,0,9-2.74ZM727,252.86c-.21-3.42-1.79-6.37-5.73-6.37s-5.94,2.73-6.26,6.37Z"/><path class="cls-2" d="M739.4,242h6.26v6.15h.1c.32-2.52,3.21-6.78,7.42-6.78a7.67,7.67,0,0,1,2.16.21v7.1a7.22,7.22,0,0,0-3.16-.58c-5.73,0-5.73,7.16-5.73,11v9.94H739.4Z"/><path class="cls-2" d="M776.92,247.12h-5.2V242h5.2v-3.79c0-5.42,3-9.21,8.63-9.21a24.77,24.77,0,0,1,5.16.58l-.58,5.84a5.5,5.5,0,0,0-3-.94c-2.37,0-3.11,2-3.11,4.16V242h6.16v5.16H784v21.93h-7.05Z"/><path class="cls-2" d="M807.22,241.33c8.05,0,14.21,5.42,14.21,14.36,0,7.78-5.21,14-14.21,14s-14.15-6.21-14.15-14C793.07,246.75,799.23,241.33,807.22,241.33Zm0,22.88c5.42,0,6.84-4.84,6.84-9.37,0-4.16-2.21-8-6.84-8s-6.79,4-6.79,8C800.43,259.32,801.85,264.22,807.22,264.22Z"/><path class="cls-2" d="M827.12,242h6.26v6.15h.1c.32-2.52,3.21-6.78,7.42-6.78a7.67,7.67,0,0,1,2.16.21v7.1a7.22,7.22,0,0,0-3.16-.58c-5.73,0-5.73,7.16-5.73,11v9.94h-7.05Z"/><path class="cls-2" d="M862.69,232.34h10.05c11.25,0,21.19,3.79,21.19,18.35s-9.94,18.36-21.19,18.36H862.69Zm7.37,30.93h4.1c6.16,0,12.1-4.57,12.1-12.57s-5.94-12.57-12.1-12.57h-4.1Z"/><path class="cls-2" d="M901.25,243.38a24.29,24.29,0,0,1,9.42-2c8.26,0,11.68,3.42,11.68,11.42v3.47c0,2.73.06,4.78.11,6.78s.15,3.94.32,6h-6.2a31.61,31.61,0,0,1-.32-4h-.11a9.68,9.68,0,0,1-8.37,4.68c-4.78,0-9.47-2.89-9.47-8.05a8,8,0,0,1,4.63-7.73c2.68-1.32,6.16-1.58,9.1-1.58h3.89c0-4.37-1.94-5.84-6.1-5.84a14.17,14.17,0,0,0-8.37,2.94Zm8.26,21.15a6,6,0,0,0,4.94-2.42,9,9,0,0,0,1.47-5.58h-3c-3.16,0-7.84.53-7.84,4.68C905,263.53,907,264.53,909.51,264.53Z"/><path class="cls-2" d="M931.61,247.12h-5.2V242h5.2v-5.42l7.05-2.26V242h6.26v5.16h-6.26v12.62c0,2.32.63,4.47,3.31,4.47a6.24,6.24,0,0,0,3.21-.74l.21,5.58a18.49,18.49,0,0,1-5.21.63c-5.52,0-8.57-3.42-8.57-8.79Z"/><path class="cls-2" d="M951,243.38a24.29,24.29,0,0,1,9.42-2c8.26,0,11.68,3.42,11.68,11.42v3.47c0,2.73.06,4.78.11,6.78s.15,3.94.32,6h-6.2a31.61,31.61,0,0,1-.32-4h-.11a9.68,9.68,0,0,1-8.37,4.68c-4.78,0-9.47-2.89-9.47-8.05a8,8,0,0,1,4.63-7.73c2.68-1.32,6.16-1.58,9.1-1.58h3.89c0-4.37-1.94-5.84-6.1-5.84a14.17,14.17,0,0,0-8.37,2.94Zm8.26,21.15a6,6,0,0,0,4.94-2.42,9,9,0,0,0,1.47-5.58h-3c-3.16,0-7.84.53-7.84,4.68C954.77,263.53,956.71,264.53,959.24,264.53Z"/><path class="cls-2" d="M1014,239.07a19,19,0,0,0-7.47-1.58c-2.52,0-5.78,1.11-5.78,5.1,0,6.37,16.09,3.68,16.09,16,0,8-6.37,11.1-13.78,11.1a32.39,32.39,0,0,1-9.42-1.42l.68-6.63a17.77,17.77,0,0,0,8.31,2.26c2.79,0,6.53-1.42,6.53-4.73,0-7-16.1-4.11-16.1-16.26,0-8.21,6.37-11.21,12.84-11.21a27.7,27.7,0,0,1,8.78,1.32Z"/><path class="cls-2" d="M1040.47,247.81a10.57,10.57,0,0,0-4.79-1c-4.37,0-7.16,3.47-7.16,8.57s2.37,8.84,7.32,8.84a15.07,15.07,0,0,0,5.42-1.26l.32,5.84a23.14,23.14,0,0,1-7.05.89c-8.89,0-13.36-6-13.36-14.31,0-7.84,4.63-14,13.1-14a23,23,0,0,1,6.84.89Z"/><path class="cls-2" d="M1046.42,230.29h7.05V237h-7.05Zm0,11.68h7.05v27.09h-7.05Z"/><path class="cls-2" d="M1082.62,267.53a18.58,18.58,0,0,1-9.31,2.16c-8.94,0-14.15-5.16-14.15-14.05,0-7.83,4.16-14.3,12.57-14.3,10,0,12.89,6.89,12.89,16.36h-18.73c.32,4.37,3.37,6.84,7.73,6.84a18.31,18.31,0,0,0,9-2.74Zm-4.73-14.67c-.21-3.42-1.79-6.37-5.73-6.37s-5.94,2.73-6.26,6.37Z"/><path class="cls-2" d="M1090.15,242h6.68v3.68h.11c2.2-3.1,5.2-4.31,8.89-4.31,6.42,0,9.21,4.52,9.21,10.63v17.09H1108V254.59c0-3.31,0-7.78-4.58-7.78-5.1,0-6.2,5.52-6.2,9v13.25h-7.05Z"/><path class="cls-2" d="M1139.86,247.81a10.57,10.57,0,0,0-4.79-1c-4.37,0-7.16,3.47-7.16,8.57s2.37,8.84,7.32,8.84a15.07,15.07,0,0,0,5.42-1.26l.32,5.84a23.14,23.14,0,0,1-7.05.89c-8.89,0-13.36-6-13.36-14.31,0-7.84,4.63-14,13.1-14a23,23,0,0,1,6.84.89Z"/><path class="cls-2" d="M1167.38,267.53a18.58,18.58,0,0,1-9.31,2.16c-8.94,0-14.15-5.16-14.15-14.05,0-7.83,4.16-14.3,12.57-14.3,10,0,12.89,6.89,12.89,16.36h-18.73c.32,4.37,3.37,6.84,7.73,6.84a18.28,18.28,0,0,0,9-2.74Zm-4.73-14.67c-.21-3.42-1.79-6.37-5.73-6.37s-5.94,2.73-6.26,6.37Z"/><path class="cls-2" d="M1189.54,232.34h7.94c7.89,0,17.3-.27,17.3,9.94a8.39,8.39,0,0,1-7.57,8.52v.11c2,.16,3.16,2.16,3.89,3.79l5.89,14.36h-8.21l-4.42-11.47c-1.06-2.74-2-3.79-5.11-3.79h-2.37v15.26h-7.37Zm7.37,15.67h2.42c3.63,0,7.78-.52,7.78-5.1,0-4.42-4.11-4.79-7.78-4.79h-2.42Z"/><path class="cls-2" d="M1243.42,267.53a18.58,18.58,0,0,1-9.31,2.16c-8.94,0-14.15-5.16-14.15-14.05,0-7.83,4.16-14.3,12.57-14.3,10,0,12.89,6.89,12.89,16.36h-18.73c.32,4.37,3.37,6.84,7.73,6.84a18.28,18.28,0,0,0,9-2.74Zm-4.73-14.67c-.21-3.42-1.79-6.37-5.73-6.37s-5.94,2.73-6.26,6.37Z"/><path class="cls-2" d="M1267,247.64a17.35,17.35,0,0,0-6.31-1.16c-1.89,0-4.16.68-4.16,3,0,4.31,12.25,1.58,12.25,11.36,0,6.31-5.63,8.84-11.37,8.84a31.64,31.64,0,0,1-8-1.16l.42-5.78a15.47,15.47,0,0,0,6.94,1.79c1.79,0,4.63-.68,4.63-3.32,0-5.31-12.25-1.68-12.25-11.47,0-5.84,5.1-8.42,10.63-8.42a32.55,32.55,0,0,1,7.68,1Z"/><path class="cls-2" d="M1296,267.53a18.58,18.58,0,0,1-9.31,2.16c-8.94,0-14.15-5.16-14.15-14.05,0-7.83,4.16-14.3,12.57-14.3,10,0,12.89,6.89,12.89,16.36h-18.73c.32,4.37,3.37,6.84,7.73,6.84a18.31,18.31,0,0,0,9-2.74Zm-4.73-14.67c-.21-3.42-1.79-6.37-5.73-6.37s-5.94,2.73-6.26,6.37Z"/><path class="cls-2" d="M1304.77,243.38a24.26,24.26,0,0,1,9.42-2c8.26,0,11.68,3.42,11.68,11.42v3.47c0,2.73.06,4.78.11,6.78s.15,3.94.32,6h-6.2a31.61,31.61,0,0,1-.32-4h-.11a9.68,9.68,0,0,1-8.37,4.68c-4.78,0-9.47-2.89-9.47-8.05a8,8,0,0,1,4.63-7.73c2.68-1.32,6.16-1.58,9.1-1.58h3.89c0-4.37-1.94-5.84-6.1-5.84a14.17,14.17,0,0,0-8.37,2.94Zm8.26,21.15a6,6,0,0,0,4.94-2.42,9,9,0,0,0,1.47-5.58h-3c-3.16,0-7.84.53-7.84,4.68C1308.56,263.53,1310.5,264.53,1313,264.53Z"/><path class="cls-2" d="M1333,242h6.26v6.15h.1c.32-2.52,3.21-6.78,7.42-6.78a7.67,7.67,0,0,1,2.16.21v7.1a7.22,7.22,0,0,0-3.16-.58c-5.73,0-5.73,7.16-5.73,11v9.94H1333Z"/><path class="cls-2" d="M1369.91,247.81a10.57,10.57,0,0,0-4.79-1c-4.37,0-7.15,3.47-7.15,8.57s2.37,8.84,7.31,8.84a15.07,15.07,0,0,0,5.42-1.26l.32,5.84a23.14,23.14,0,0,1-7.05.89c-8.89,0-13.36-6-13.36-14.31,0-7.84,4.63-14,13.1-14a23,23,0,0,1,6.84.89Z"/><path class="cls-2" d="M1375.7,229.6h7.05v16h.11a10.09,10.09,0,0,1,8.52-4.31c6.42,0,9.21,4.52,9.21,10.63v17.09h-7.05V254.59c0-3.31,0-7.78-4.58-7.78-5.1,0-6.2,5.52-6.2,9v13.25h-7.05Z"/><path class="cls-2" d="M245.17,287h7.94c7.89,0,17.3-.27,17.3,9.94a8.39,8.39,0,0,1-7.57,8.52v.11c2,.16,3.16,2.16,3.89,3.79l5.89,14.36h-8.21L260,312.23c-1.06-2.74-2-3.79-5.11-3.79h-2.37v15.26h-7.37Zm7.37,15.67H255c3.63,0,7.78-.52,7.78-5.1,0-4.42-4.11-4.79-7.78-4.79h-2.42Z"/><path class="cls-2" d="M299,322.17a18.58,18.58,0,0,1-9.31,2.16c-8.94,0-14.15-5.16-14.15-14.05,0-7.83,4.16-14.3,12.57-14.3,10,0,12.89,6.89,12.89,16.36H282.32c.32,4.37,3.37,6.84,7.73,6.84a18.28,18.28,0,0,0,9-2.74Zm-4.73-14.67c-.21-3.42-1.79-6.37-5.73-6.37s-5.94,2.73-6.26,6.37Z"/><path class="cls-2" d="M322.67,302.28a17.38,17.38,0,0,0-6.31-1.16c-1.89,0-4.16.68-4.16,3,0,4.31,12.26,1.58,12.26,11.36,0,6.31-5.63,8.84-11.37,8.84a31.64,31.64,0,0,1-8-1.16l.42-5.78a15.47,15.47,0,0,0,6.94,1.79c1.79,0,4.63-.68,4.63-3.32,0-5.31-12.25-1.68-12.25-11.47,0-5.84,5.1-8.42,10.63-8.42a32.55,32.55,0,0,1,7.68,1Z"/><path class="cls-2" d="M351.66,322.17a18.58,18.58,0,0,1-9.31,2.16c-8.94,0-14.15-5.16-14.15-14.05,0-7.83,4.16-14.3,12.57-14.3,10,0,12.89,6.89,12.89,16.36H334.93c.32,4.37,3.37,6.84,7.73,6.84a18.28,18.28,0,0,0,9-2.74Zm-4.73-14.67c-.21-3.42-1.79-6.37-5.73-6.37s-5.94,2.73-6.26,6.37Z"/><path class="cls-2" d="M360.4,298a24.26,24.26,0,0,1,9.42-2c8.26,0,11.68,3.42,11.68,11.42v3.47c0,2.73.06,4.78.11,6.78s.15,3.94.32,6h-6.2a31.61,31.61,0,0,1-.32-4h-.11a9.68,9.68,0,0,1-8.37,4.68c-4.78,0-9.47-2.89-9.47-8.05a8,8,0,0,1,4.63-7.73c2.68-1.32,6.16-1.58,9.1-1.58h3.89c0-4.37-1.94-5.84-6.1-5.84a14.17,14.17,0,0,0-8.37,2.94Zm8.26,21.15a6,6,0,0,0,4.94-2.42,9,9,0,0,0,1.47-5.58h-3c-3.16,0-7.84.53-7.84,4.68C364.19,318.17,366.13,319.17,368.66,319.17Z"/><path class="cls-2" d="M388.61,296.61h6.26v6.15h.1c.32-2.52,3.21-6.78,7.42-6.78a7.67,7.67,0,0,1,2.16.21v7.1a7.22,7.22,0,0,0-3.16-.58c-5.73,0-5.73,7.16-5.73,11v9.94h-7.05Z"/><path class="cls-2" d="M425.54,302.45a10.57,10.57,0,0,0-4.79-1c-4.37,0-7.15,3.47-7.15,8.57s2.37,8.84,7.31,8.84a15.07,15.07,0,0,0,5.42-1.26l.32,5.84a23.14,23.14,0,0,1-7.05.89c-8.89,0-13.36-6-13.36-14.31,0-7.84,4.63-14,13.1-14a23,23,0,0,1,6.84.89Z"/><path class="cls-2" d="M431.33,284.24h7.05v16h.11A10.09,10.09,0,0,1,447,296c6.42,0,9.21,4.52,9.21,10.63v17.09h-7.05V309.23c0-3.31,0-7.78-4.58-7.78-5.1,0-6.2,5.52-6.2,9v13.25h-7.05Z"/><path class="cls-2" d="M494.93,286.35c11.52,0,18,7.79,18,18.88s-6.37,19.1-18,19.1c-11.78,0-18-7.84-18-19.1S483.26,286.35,494.93,286.35Zm0,32.19c7.52,0,10.31-6.68,10.31-13.31,0-6.47-3-13.09-10.31-13.09s-10.31,6.63-10.31,13.09C484.62,311.86,487.41,318.54,494.93,318.54Z"/><path class="cls-2" d="M519.2,296.61h6.26v6.15h.1c.32-2.52,3.21-6.78,7.42-6.78a7.67,7.67,0,0,1,2.16.21v7.1a7.22,7.22,0,0,0-3.16-.58c-5.73,0-5.73,7.16-5.73,11v9.94H519.2Z"/><path class="cls-2" d="M564.39,296.61v24.46c0,7.36-2.94,14.3-14.3,14.3a23.91,23.91,0,0,1-9.37-1.84l.58-6a20.29,20.29,0,0,0,7.9,2.37c7.78,0,8.15-5.84,8.15-10.52h-.11c-1.31,2.31-4.47,4.31-8.42,4.31-8,0-11-6.42-11-13.68,0-6.52,3.37-14,11.47-14,3.58,0,6.37,1.21,8.31,4.31h.11v-3.68Zm-7.05,13.25c0-4.63-1.79-8.42-5.89-8.42-4.79,0-6.32,4.42-6.32,8.57,0,3.68,2,8.21,6,8.21C555.55,318.22,557.34,314.38,557.34,309.86Z"/><path class="cls-2" d="M572.87,298a24.29,24.29,0,0,1,9.42-2c8.26,0,11.68,3.42,11.68,11.42v3.47c0,2.73.06,4.78.11,6.78s.15,3.94.32,6h-6.2a31.61,31.61,0,0,1-.32-4h-.11a9.68,9.68,0,0,1-8.37,4.68c-4.78,0-9.47-2.89-9.47-8.05a8,8,0,0,1,4.63-7.73c2.68-1.32,6.16-1.58,9.1-1.58h3.89c0-4.37-1.94-5.84-6.1-5.84a14.17,14.17,0,0,0-8.37,2.94Zm8.26,21.15a6,6,0,0,0,4.94-2.42,9,9,0,0,0,1.47-5.58h-3c-3.16,0-7.84.53-7.84,4.68C576.65,318.17,578.6,319.17,581.13,319.17Z"/><path class="cls-2" d="M600.91,296.61h6.68v3.68h.11c2.2-3.1,5.2-4.31,8.89-4.31,6.42,0,9.21,4.52,9.21,10.63v17.09h-7.05V309.23c0-3.31,0-7.78-4.58-7.78-5.1,0-6.2,5.52-6.2,9v13.25h-7.05Z"/><path class="cls-2" d="M633.22,284.93h7.05v6.73h-7.05Zm0,11.68h7.05v27.09h-7.05Z"/><path class="cls-2" d="M646.54,296.61H668v5.78l-13.47,15.83h13.95v5.47H646V318l13.73-15.89H646.54Z"/><path class="cls-2" d="M675.21,298a24.26,24.26,0,0,1,9.42-2c8.26,0,11.68,3.42,11.68,11.42v3.47c0,2.73.06,4.78.11,6.78s.15,3.94.32,6h-6.2a31.61,31.61,0,0,1-.32-4h-.11a9.68,9.68,0,0,1-8.37,4.68c-4.78,0-9.47-2.89-9.47-8.05a8,8,0,0,1,4.63-7.73c2.68-1.32,6.16-1.58,9.1-1.58h3.89c0-4.37-1.94-5.84-6.1-5.84a14.17,14.17,0,0,0-8.37,2.94Zm8.26,21.15a6,6,0,0,0,4.94-2.42,9,9,0,0,0,1.47-5.58h-3c-3.16,0-7.84.53-7.84,4.68C679,318.17,680.94,319.17,683.47,319.17Z"/><path class="cls-2" d="M705.57,301.76h-5.2v-5.16h5.2v-5.42l7.05-2.26v7.68h6.26v5.16h-6.26v12.62c0,2.32.63,4.47,3.31,4.47a6.24,6.24,0,0,0,3.21-.74l.21,5.58a18.49,18.49,0,0,1-5.21.63c-5.52,0-8.57-3.42-8.57-8.79Z"/><path class="cls-2" d="M723.88,284.93h7.05v6.73h-7.05Zm0,11.68h7.05v27.09h-7.05Z"/><path class="cls-2" d="M750.76,296c8.05,0,14.21,5.42,14.21,14.36,0,7.78-5.21,14-14.21,14s-14.15-6.21-14.15-14C736.62,301.39,742.77,296,750.76,296Zm0,22.88c5.42,0,6.84-4.84,6.84-9.37,0-4.16-2.21-8-6.84-8s-6.79,4-6.79,8C744,314,745.4,318.86,750.76,318.86Z"/><path class="cls-2" d="M770.5,296.61h6.68v3.68h.11a10.12,10.12,0,0,1,8.89-4.31c6.42,0,9.21,4.52,9.21,10.63v17.09h-7.05V309.23c0-3.31,0-7.78-4.58-7.78-5.1,0-6.2,5.52-6.2,9v13.25H770.5Z"/><path class="cls-2" d="M829.69,296c8.05,0,14.21,5.42,14.21,14.36,0,7.78-5.21,14-14.21,14s-14.15-6.21-14.15-14C815.54,301.39,821.7,296,829.69,296Zm0,22.88c5.42,0,6.84-4.84,6.84-9.37,0-4.16-2.21-8-6.84-8s-6.79,4-6.79,8C822.9,314,824.32,318.86,829.69,318.86Z"/><path class="cls-2" d="M852,301.76h-5.2v-5.16H852v-3.79c0-5.42,3.06-9.21,8.63-9.21a24.77,24.77,0,0,1,5.16.58l-.58,5.84a5.5,5.5,0,0,0-3-.94c-2.37,0-3.11,2-3.11,4.16v3.37h6.16v5.16h-6.16v21.93H852Z"/><path class="cls-2" d="M884.52,287h7.37v36.72h-7.37Z"/><path class="cls-2" d="M899.15,296.61h6.68v3.68h.11a10.12,10.12,0,0,1,8.89-4.31c6.42,0,9.21,4.52,9.21,10.63v17.09H917V309.23c0-3.31,0-7.78-4.58-7.78-5.1,0-6.2,5.52-6.2,9v13.25h-7.05Z"/><path class="cls-2" d="M933.88,301.76h-5.2v-5.16h5.2v-3.79c0-5.42,3-9.21,8.63-9.21a24.77,24.77,0,0,1,5.16.58l-.58,5.84a5.5,5.5,0,0,0-3-.94c-2.37,0-3.11,2-3.11,4.16v3.37h6.16v5.16h-6.16v21.93h-7.05Z"/><path class="cls-2" d="M964.18,296c8.05,0,14.21,5.42,14.21,14.36,0,7.78-5.21,14-14.21,14s-14.15-6.21-14.15-14C950,301.39,956.19,296,964.18,296Zm0,22.88c5.42,0,6.84-4.84,6.84-9.37,0-4.16-2.21-8-6.84-8s-6.79,4-6.79,8C957.39,314,958.82,318.86,964.18,318.86Z"/><path class="cls-2" d="M984.07,296.61h6.26v6.15h.1c.32-2.52,3.21-6.78,7.42-6.78a7.67,7.67,0,0,1,2.16.21v7.1a7.22,7.22,0,0,0-3.16-.58c-5.73,0-5.73,7.16-5.73,11v9.94h-7.05Z"/><path class="cls-2" d="M1004.28,296.61h6.58v3.78h.11A9.55,9.55,0,0,1,1019,296c3.78,0,6.47,1.42,8,4.79a9.29,9.29,0,0,1,8.47-4.79c6.68,0,8.58,4.58,8.58,10.63v17.09H1037V307.54c0-2.52,0-6.1-4-6.1-4.68,0-5.26,5.57-5.26,9.1v13.15h-7.05V307.54c0-2.52,0-6.1-4-6.1-4.68,0-5.26,5.57-5.26,9.1v13.15h-7.05Z"/><path class="cls-2" d="M1052.37,298a24.29,24.29,0,0,1,9.42-2c8.26,0,11.68,3.42,11.68,11.42v3.47c0,2.73.06,4.78.11,6.78s.15,3.94.32,6h-6.2a31.61,31.61,0,0,1-.32-4h-.11a9.68,9.68,0,0,1-8.37,4.68c-4.78,0-9.47-2.89-9.47-8.05a8,8,0,0,1,4.63-7.73c2.68-1.32,6.16-1.58,9.1-1.58H1067c0-4.37-1.94-5.84-6.1-5.84a14.17,14.17,0,0,0-8.37,2.94Zm8.26,21.15a6,6,0,0,0,4.94-2.42,9,9,0,0,0,1.47-5.58h-3c-3.16,0-7.84.53-7.84,4.68C1056.16,318.17,1058.1,319.17,1060.63,319.17Z"/><path class="cls-2" d="M1082.73,301.76h-5.2v-5.16h5.2v-5.42l7.05-2.26v7.68H1096v5.16h-6.26v12.62c0,2.32.63,4.47,3.31,4.47a6.24,6.24,0,0,0,3.21-.74l.21,5.58a18.49,18.49,0,0,1-5.21.63c-5.52,0-8.57-3.42-8.57-8.79Z"/><path class="cls-2" d="M1101,284.93h7.05v6.73H1101Zm0,11.68h7.05v27.09H1101Z"/><path class="cls-2" d="M1127.93,296c8.05,0,14.21,5.42,14.21,14.36,0,7.78-5.21,14-14.21,14s-14.15-6.21-14.15-14C1113.78,301.39,1119.93,296,1127.93,296Zm0,22.88c5.42,0,6.84-4.84,6.84-9.37,0-4.16-2.21-8-6.84-8s-6.78,4-6.78,8C1121.14,314,1122.56,318.86,1127.93,318.86Z"/><path class="cls-2" d="M1147.66,296.61h6.68v3.68h.11c2.2-3.1,5.2-4.31,8.89-4.31,6.42,0,9.21,4.52,9.21,10.63v17.09h-7.05V309.23c0-3.31,0-7.78-4.58-7.78-5.1,0-6.2,5.52-6.2,9v13.25h-7.05Z"/><path class="cls-2" d="M1195.64,298a24.26,24.26,0,0,1,9.42-2c8.26,0,11.68,3.42,11.68,11.42v3.47c0,2.73.06,4.78.11,6.78s.15,3.94.32,6H1211a31.61,31.61,0,0,1-.32-4h-.11a9.68,9.68,0,0,1-8.37,4.68c-4.78,0-9.47-2.89-9.47-8.05a8,8,0,0,1,4.63-7.73c2.68-1.32,6.16-1.58,9.1-1.58h3.89c0-4.37-1.94-5.84-6.1-5.84a14.17,14.17,0,0,0-8.37,2.94Zm8.26,21.15a6,6,0,0,0,4.94-2.42,9,9,0,0,0,1.47-5.58h-3c-3.16,0-7.84.53-7.84,4.68C1199.43,318.17,1201.38,319.17,1203.91,319.17Z"/><path class="cls-2" d="M1223.69,296.61h6.68v3.68h.11a10.12,10.12,0,0,1,8.89-4.31c6.42,0,9.21,4.52,9.21,10.63v17.09h-7.05V309.23c0-3.31,0-7.78-4.58-7.78-5.1,0-6.2,5.52-6.2,9v13.25h-7.05Z"/><path class="cls-2" d="M1273.89,320.64h-.11a10.07,10.07,0,0,1-8.31,3.68c-8.31,0-11.36-6.84-11.36-14.26s3-14.1,11.36-14.1a9.61,9.61,0,0,1,8.1,3.79h.11V284.24h7.05v39.46h-6.84Zm-6.47-1.79c4.68,0,6.21-4.94,6.21-8.78s-1.79-8.63-6.31-8.63-5.85,5-5.85,8.63S1262.79,318.86,1267.41,318.86Z"/><path class="cls-2" d="M1323,293.71a19,19,0,0,0-7.47-1.58c-2.52,0-5.78,1.11-5.78,5.1,0,6.37,16.09,3.68,16.09,16,0,8-6.37,11.1-13.78,11.1a32.39,32.39,0,0,1-9.42-1.42l.68-6.63a17.77,17.77,0,0,0,8.32,2.26c2.78,0,6.52-1.42,6.52-4.73,0-7-16.1-4.11-16.1-16.26,0-8.21,6.37-11.21,12.84-11.21a27.7,27.7,0,0,1,8.78,1.32Z"/><path class="cls-2" d="M1343.13,316.38h.11l6.52-19.78h7.15l-10.15,26.88c-2.26,6-3.89,11.89-11.25,11.89a18,18,0,0,1-5-.73l.47-5.21a10.38,10.38,0,0,0,3.63.47c2.84,0,4.57-1.94,4.57-4.84l-10.36-28.45h7.79Z"/><path class="cls-2" d="M1377.23,302.28a17.35,17.35,0,0,0-6.31-1.16c-1.89,0-4.16.68-4.16,3,0,4.31,12.25,1.58,12.25,11.36,0,6.31-5.63,8.84-11.37,8.84a31.64,31.64,0,0,1-8-1.16l.42-5.78a15.47,15.47,0,0,0,6.94,1.79c1.79,0,4.63-.68,4.63-3.32,0-5.31-12.25-1.68-12.25-11.47,0-5.84,5.1-8.42,10.63-8.42a32.55,32.55,0,0,1,7.68,1Z"/><path class="cls-2" d="M1386.81,301.76h-5.2v-5.16h5.2v-5.42l7.05-2.26v7.68h6.26v5.16h-6.26v12.62c0,2.32.63,4.47,3.31,4.47a6.24,6.24,0,0,0,3.21-.74l.21,5.58a18.49,18.49,0,0,1-5.21.63c-5.52,0-8.57-3.42-8.57-8.79Z"/><path class="cls-2" d="M1426.68,322.17a18.58,18.58,0,0,1-9.31,2.16c-8.94,0-14.15-5.16-14.15-14.05,0-7.83,4.16-14.3,12.57-14.3,10,0,12.89,6.89,12.89,16.36H1410c.32,4.37,3.37,6.84,7.73,6.84a18.31,18.31,0,0,0,9-2.74ZM1422,307.5c-.21-3.42-1.79-6.37-5.73-6.37s-5.94,2.73-6.26,6.37Z"/><path class="cls-2" d="M1434.11,296.61h6.58v3.78h.11a9.55,9.55,0,0,1,8.05-4.42c3.78,0,6.47,1.42,8,4.79a9.29,9.29,0,0,1,8.47-4.79c6.68,0,8.58,4.58,8.58,10.63v17.09h-7.05V307.54c0-2.52,0-6.1-4-6.1-4.68,0-5.26,5.57-5.26,9.1v13.15h-7.05V307.54c0-2.52,0-6.1-4-6.1-4.68,0-5.26,5.57-5.26,9.1v13.15h-7.05Z"/><path class="cls-2" d="M1497.09,302.28a17.35,17.35,0,0,0-6.31-1.16c-1.89,0-4.16.68-4.16,3,0,4.31,12.25,1.58,12.25,11.36,0,6.31-5.63,8.84-11.37,8.84a31.64,31.64,0,0,1-8-1.16l.42-5.78a15.47,15.47,0,0,0,6.94,1.79c1.79,0,4.63-.68,4.63-3.32,0-5.31-12.25-1.68-12.25-11.47,0-5.84,5.1-8.42,10.63-8.42a32.55,32.55,0,0,1,7.68,1Z"/></g></g></svg>