<?xml version="1.0" encoding="utf-8"?>
<!-- Generator: Adobe Illustrator 23.0.4, SVG Export Plug-In . SVG Version: 6.00 Build 0)  -->
<svg version="1.1" id="レイヤー_1" xmlns="http://www.w3.org/2000/svg" xmlns:xlink="http://www.w3.org/1999/xlink" x="0px"
	 y="0px" viewBox="0 0 12 24" style="enable-background:new 0 0 12 24;" xml:space="preserve">
<style type="text/css">
	.st0{opacity:0.5;}
	.st1{fill:#004098;}
	.st2{opacity:0.5;fill:#004098;}
</style>
<g>
	<g>
		<g class="st0">
			<rect x="7.3" y="4.7" class="st1" width="0.9" height="3.4"/>
			<rect x="9.4" y="5.5" class="st1" width="0.7" height="3.4"/>
			<rect x="8.4" y="5.1" class="st1" width="0.8" height="3.4"/>
			<rect x="6.1" y="4.3" class="st1" width="0.9" height="3.4"/>
			<rect x="1.9" y="2.5" class="st1" width="0.4" height="3.4"/>
			<rect x="10.3" y="5.9" class="st1" width="0.6" height="3.4"/>
			<rect x="1" y="1.8" class="st1" width="0.2" height="3.4"/>
			<rect x="-0.1" y="0.5" class="st1" width="0.1" height="3.4"/>
			<rect x="4.9" y="3.9" class="st1" width="0.9" height="3.4"/>
			<rect x="2.8" y="3" class="st1" width="0.6" height="3.4"/>
			<rect x="3.8" y="3.5" class="st1" width="0.7" height="3.4"/>
			<rect x="11.5" y="6.7" class="st1" width="0.3" height="3.4"/>
			<path class="st1" d="M11.8,7.2c0,0,0,3.5,0,3.4c0-0.1,0.1,0,0.1,0V7.2H11.8z"/>
			<rect x="11" y="6.3" class="st1" width="0.5" height="3.4"/>
		</g>
		<g>
			<g>
				<g>
					<path class="st2" d="M-0.1,10.6c0,0.1,0,0.3,0.1,0.4c0.1,0.1,0.2,0.3,0.4,0.4c0.2,0.1,0.3,0.3,0.5,0.4c0.2,0.1,0.5,0.3,0.7,0.4
						c0.3,0.1,0.6,0.3,0.9,0.4c0.3,0.1,0.7,0.3,1,0.4c0.4,0.1,0.8,0.3,1.1,0.4c0.4,0.2,0.9,0.3,1.2,0.4c0.4,0.1,0.8,0.3,1.2,0.4
						c0.4,0.1,0.7,0.3,1.1,0.4c0.3,0.1,0.7,0.3,1,0.4c0.3,0.1,0.6,0.3,0.9,0.4c0.3,0.1,0.5,0.3,0.7,0.4c0.2,0.1,0.4,0.3,0.6,0.4
						c0.2,0.1,0.3,0.3,0.4,0.4c0.1,0.1,0.1,0.3,0.1,0.4v-3.4c0-0.1,0-0.3-0.1-0.4c-0.1-0.1-0.2-0.3-0.4-0.4
						c-0.2-0.1-0.3-0.3-0.6-0.4c-0.2-0.1-0.5-0.3-0.7-0.4c-0.3-0.1-0.6-0.3-0.9-0.4c-0.3-0.1-0.7-0.3-1-0.4
						c-0.4-0.1-0.8-0.3-1.1-0.4c-0.4-0.2-0.9-0.3-1.2-0.4c-0.4-0.1-0.8-0.3-1.2-0.4C4.4,9.9,4,9.7,3.6,9.6c-0.3-0.1-0.7-0.3-1-0.4
						C2.3,9.1,2,8.9,1.7,8.8C1.4,8.6,1.2,8.5,1,8.4C0.8,8.2,0.6,8.1,0.4,8C0.3,7.8,0.2,7.7,0.1,7.6C0,7.4-0.1,7.3-0.1,7.2V10.6z"/>
					<path class="st1" d="M11.9,17.1c0,0.1,0,0.3-0.1,0.4c-0.1,0.1-0.2,0.3-0.4,0.4c-0.2,0.1-0.3,0.3-0.5,0.4
						c-0.2,0.1-0.5,0.3-0.7,0.4c-0.3,0.1-0.6,0.3-0.9,0.4c-0.3,0.1-0.7,0.3-1,0.4c-0.4,0.1-0.8,0.3-1.1,0.4
						c-0.4,0.2-0.9,0.3-1.2,0.4c-0.4,0.1-0.8,0.3-1.2,0.4C4.4,20.8,4,21,3.6,21.1c-0.3,0.1-0.7,0.3-1,0.4c-0.3,0.1-0.6,0.3-0.9,0.4
						C1.4,22,1.2,22.2,1,22.3c-0.2,0.1-0.4,0.3-0.6,0.4c-0.2,0.1-0.3,0.3-0.4,0.4c-0.1,0.1-0.1,0.3-0.1,0.4v-3.4
						c0-0.1,0-0.3,0.1-0.4c0.1-0.1,0.2-0.3,0.4-0.4C0.6,19.2,0.8,19,1,18.9c0.2-0.1,0.5-0.3,0.7-0.4c0.3-0.1,0.6-0.3,0.9-0.4
						c0.3-0.1,0.7-0.3,1-0.4c0.4-0.1,0.8-0.3,1.1-0.4c0.4-0.2,0.9-0.3,1.2-0.4c0.4-0.1,0.8-0.3,1.2-0.4c0.4-0.1,0.7-0.3,1.1-0.4
						c0.3-0.1,0.7-0.3,1-0.4c0.3-0.1,0.6-0.3,0.9-0.4c0.3-0.1,0.5-0.3,0.7-0.4c0.2-0.1,0.4-0.3,0.5-0.4c0.2-0.1,0.3-0.3,0.4-0.4
						c0.1-0.1,0.1-0.3,0.1-0.4V17.1z"/>
				</g>
			</g>
			<g>
				<g>
					<g>
						<path class="st1" d="M11.9,10.6c0,0.1,0,0.3-0.1,0.4c-0.1,0.1-0.2,0.3-0.4,0.4c-0.2,0.1-0.3,0.3-0.5,0.4
							c-0.2,0.1-0.5,0.3-0.7,0.4c-0.3,0.1-0.6,0.3-0.9,0.4c-0.3,0.1-0.7,0.3-1,0.4c-0.4,0.1-0.8,0.3-1.1,0.4
							c-0.4,0.2-0.9,0.3-1.2,0.4c-0.4,0.1-0.8,0.3-1.2,0.4c-0.4,0.1-0.7,0.3-1.1,0.4c-0.3,0.1-0.7,0.3-1,0.4
							c-0.3,0.1-0.6,0.3-0.9,0.4c-0.3,0.1-0.5,0.3-0.7,0.4c-0.2,0.1-0.4,0.3-0.6,0.4c-0.2,0.1-0.3,0.3-0.4,0.4
							c-0.1,0.1-0.1,0.3-0.1,0.4v-3.4c0-0.1,0-0.3,0.1-0.4c0.1-0.1,0.2-0.3,0.4-0.4c0.2-0.1,0.3-0.3,0.6-0.4
							c0.2-0.1,0.5-0.3,0.7-0.4c0.3-0.1,0.6-0.3,0.9-0.4c0.3-0.1,0.7-0.3,1-0.4c0.4-0.1,0.8-0.3,1.1-0.4c0.4-0.2,0.9-0.3,1.2-0.4
							c0.4-0.1,0.8-0.3,1.2-0.4c0.4-0.1,0.7-0.3,1.1-0.4c0.3-0.1,0.7-0.3,1-0.4c0.3-0.1,0.6-0.3,0.9-0.4c0.3-0.1,0.5-0.3,0.7-0.4
							c0.2-0.1,0.4-0.3,0.5-0.4c0.2-0.1,0.3-0.3,0.4-0.4c0.1-0.1,0.1-0.3,0.1-0.4V10.6z"/>
					</g>
				</g>
			</g>
			<g>
				<rect x="3.7" y="4.7" class="st1" width="0.9" height="3.4"/>
				<rect x="1.8" y="5.5" class="st1" width="0.7" height="3.4"/>
				<rect x="2.7" y="5.1" class="st1" width="0.8" height="3.4"/>
				<rect x="4.9" y="4.3" class="st1" width="0.9" height="3.4"/>
				<rect x="9.6" y="2.5" class="st1" width="0.4" height="3.4"/>
				<rect x="1" y="5.9" class="st1" width="0.6" height="3.4"/>
				<rect x="10.7" y="1.8" class="st1" width="0.2" height="3.4"/>
				<rect x="11.8" y="0.5" class="st1" width="0.1" height="3.4"/>
				<rect x="6.1" y="3.9" class="st1" width="0.9" height="3.4"/>
				<rect x="8.5" y="3" class="st1" width="0.6" height="3.4"/>
				<rect x="7.4" y="3.5" class="st1" width="0.7" height="3.4"/>
				<rect x="0.1" y="6.7" class="st1" width="0.3" height="3.4"/>
				<path class="st1" d="M0.1,7.2c0,0,0,3.5,0,3.4c0-0.1-0.1,0-0.1,0V7.2H0.1z"/>
				<rect x="0.5" y="6.3" class="st1" width="0.5" height="3.4"/>
			</g>
		</g>
	</g>
</g>
</svg>
