<?xml version="1.0" encoding="utf-8"?>
<svg version="1.1" xmlns="http://www.w3.org/2000/svg" xmlns:xlink="http://www.w3.org/1999/xlink" x="0px"
	 y="0px" viewBox="0 0 570 190" style="enable-background:new 0 0 570 190;" xml:space="preserve">
<style type="text/css">
	.st0{fill:#FFFFFF;}
</style>
<title>nbdclogo_web_standard_rgb</title>
<path class="st0" d="M494.6,78c7.6,6,17.7,15.1,16.4,25.8c-0.9,7.9-7.7,13.2-14,17.1c-31.3,20.4-114.6,34.9-212.3,34.9
	s-181-14.6-212.3-34.9c-6.3-3.9-13.1-9.2-14-17.1C57.1,93.1,67.2,84.1,74.8,78C28.4,89.9,0,105.8,0,123.2c0,25,58.3,46.7,144.6,58.2
	c41.4,5.5,89.1,8.6,140.1,8.6s98.7-3.1,140.1-8.6c86.3-11.5,144.6-33.2,144.6-58.2C569.3,105.8,541,89.9,494.6,78z"/>
<path class="st0" d="M117,102V0l69.4,66.8V6.4H201V102l-69.4-66.8V102H117z"/>
<path class="st0" d="M234.1,6.4c12.3,0,20.1,1.6,26.4,7.5c5.2,4.9,7.6,11,7.6,18.9c0.1,4-0.9,7.9-2.9,11.3c-1.6,2.9-4.1,5.2-7.2,6.6
	c4.7,1.1,8.9,3.5,12.3,6.9c5.2,5.4,6.3,12,6.3,17.9c0,6.9-1.7,12.3-6.3,17.2c-7.6,8-19.5,9.3-26.8,9.3h-23.9V6.4H234.1z M234.2,47.6
	h4.4c3.6,0,8.5-0.4,11.9-3.7c3.3-3.2,3.7-7.6,3.7-10.9c0-2.9-0.4-6.3-3.4-9.2c-3.3-3.2-7.5-3.6-11.6-3.6h-5V47.6z M234.2,88.3h8.9
	c4.2,0,10.7-0.7,14.5-3.7c3.1-2.7,4.8-6.5,4.7-10.6c0.1-3.7-1.3-7.3-3.9-10c-4-3.9-9.9-4.3-15-4.3h-9.2L234.2,88.3z"/>
<path class="st0" d="M310.8,6.4c13.3,0,24.9,1.4,35.5,9.3c11.6,8.7,18.3,22.6,18.3,38.6c0,15.9-6.6,29.7-19.2,38.6
	c-11.2,7.9-21.6,9.2-35,9.2h-19.8V6.4H310.8z M305.3,88.3h6.3c7.2,0,17.1-0.6,25.4-6.7c8.4-6.5,13.2-16.6,13-27.2
	c0-12.6-6-22.5-12.9-27.5c-8.3-6-18.5-6.6-25.5-6.6h-6.3V88.3z"/>
<path class="st0" d="M452.3,28.8c-10.6-9.6-20.5-10.6-25.9-10.6c-20.8,0-34.8,15.3-34.8,36.4c0,20.2,14.6,35.8,35,35.8
	c11.5,0,20.4-5.9,25.8-11v17.3c-8,4.7-17,7.1-26.2,7.2c-12.6,0.2-24.7-4.5-33.8-13.2C381.1,80.3,377,68.1,377,54.6
	c0-17.6,7.3-29.8,15.3-37.4c9.9-9.3,21.4-12.5,34.5-12.5c8.7,0,17.2,1.6,25.5,6.9L452.3,28.8z"/>
</svg>
