<?xml version="1.0" encoding="utf-8"?>
<!-- Generator: Adobe Illustrator 21.1.0, SVG Export Plug-In . SVG Version: 6.00 Build 0)  -->
<svg version="1.1" id="レイヤー_1" xmlns="http://www.w3.org/2000/svg" xmlns:xlink="http://www.w3.org/1999/xlink" x="0px"
	 y="0px" viewBox="0 0 81.8 35.5" style="enable-background:new 0 0 81.8 35.5;" xml:space="preserve">
<style type="text/css">
	.st0{fill:#FFFFFF;}
	.st1{font-family:'FrutigerLTStd-Roman';}
	.st2{font-size:19.6px;}
	.st3{font-family:'FrutigerLTStd-Bold';}
	.st4{font-size:5.35px;}
	.st5{opacity:0.5;}
	.st6{opacity:0.5;fill:#FFFFFF;enable-background:new    ;}
</style>
<title>アートボード 83-22</title>
<g id="art">
	<text transform="matrix(1 0 0 1 24.04 20.07)" class="st0 st1 st2">DBCLS</text>
	<text transform="matrix(1 0 0 1 25.64 25.99)" class="st0 st3 st4">Database Center </text>
	<text transform="matrix(1 0 0 1 25.64 31.54)" class="st0 st3 st4">for Life Science</text>
	<g class="st5">
		<rect x="11.4" y="6.5" class="st0" width="1.3" height="5.3"/>
		<rect x="14.6" y="7.7" class="st0" width="1.1" height="5.3"/>
		<rect x="13.1" y="7.1" class="st0" width="1.2" height="5.3"/>
		<rect x="9.5" y="5.9" class="st0" width="1.4" height="5.3"/>
		<rect x="3" y="3.2" class="st0" width="0.6" height="5.3"/>
		<rect x="15.9" y="8.4" class="st0" width="0.9" height="5.3"/>
		<rect x="1.6" y="2.1" class="st0" width="0.3" height="5.3"/>
		<rect class="st0" width="0.2" height="5.3"/>
		<rect x="7.6" y="5.2" class="st0" width="1.4" height="5.3"/>
		<rect x="4.4" y="4" class="st0" width="0.9" height="5.3"/>
		<rect x="5.9" y="4.6" class="st0" width="1.1" height="5.3"/>
		<rect x="17.8" y="9.6" class="st0" width="0.5" height="5.3"/>
		<path class="st0" d="M18.3,10.3v5.3c0-0.1,0.2,0,0.2,0v-5.3H18.3z"/>
		<rect x="17" y="9" class="st0" width="0.7" height="5.3"/>
	</g>
	<path class="st6" d="M0,15.6c0,0.2,0.1,0.4,0.2,0.6c0.2,0.2,0.4,0.5,0.6,0.6c0.3,0.2,0.5,0.4,0.8,0.6s0.7,0.4,1.1,0.6
		s0.9,0.4,1.3,0.6s1,0.4,1.5,0.6s1.2,0.4,1.7,0.6l1.9,0.6L11,21c0.6,0.2,1.1,0.4,1.7,0.6s1.1,0.4,1.6,0.6s0.9,0.4,1.3,0.6
		c0.4,0.2,0.8,0.4,1.1,0.6s0.6,0.4,0.9,0.6c0.2,0.2,0.4,0.4,0.5,0.6s0.2,0.4,0.2,0.6v-5.3c0-0.2-0.1-0.4-0.2-0.6
		c-0.2-0.2-0.3-0.4-0.5-0.6c-0.3-0.2-0.6-0.4-0.9-0.6c-0.4-0.2-0.7-0.4-1.1-0.6c-0.4-0.2-0.9-0.4-1.3-0.6s-1-0.4-1.6-0.6
		s-1.2-0.4-1.7-0.6l-1.9-0.6l-1.9-0.6c-0.6-0.2-1.2-0.4-1.7-0.6s-1-0.4-1.6-0.6S3.2,13,2.7,12.8c-0.4-0.2-0.8-0.4-1.1-0.6
		C1.3,12,1,11.8,0.8,11.6S0.4,11.2,0.2,11C0.1,10.7,0,10.5,0,10.3V15.6z"/>
	<path class="st0" d="M18.5,25.5c0,0.2-0.1,0.4-0.2,0.6c-0.2,0.2-0.4,0.5-0.6,0.6c-0.3,0.2-0.5,0.4-0.8,0.6s-0.7,0.4-1.1,0.6
		s-0.9,0.4-1.3,0.6s-1,0.4-1.6,0.6s-1.2,0.4-1.7,0.6l-1.9,0.6l-1.9,0.6c-0.6,0.2-1.2,0.4-1.7,0.6s-1,0.4-1.6,0.6
		c-0.6,0.2-1,0.7-1.4,0.9s-0.8,0.4-1.1,0.6C1.3,33.8,1,34,0.7,34.3c-0.2,0.2-0.4,0.4-0.6,0.6c0,0.2-0.1,0.4-0.1,0.6v-5.3
		c0-0.2,0.1-0.4,0.2-0.6c0.2-0.2,0.3-0.4,0.6-0.6s0.6-0.4,0.9-0.6c0.3-0.2,0.6-0.4,1-0.6s0.9-0.4,1.3-0.6s1-0.4,1.5-0.6L7.2,26
		l1.9-0.6l1.9-0.6l1.7-0.6c0.5-0.2,1-0.4,1.6-0.6s0.9-0.4,1.3-0.6s0.8-0.4,1.1-0.6s0.6-0.4,0.8-0.6c0.2-0.2,0.4-0.4,0.6-0.6
		c0.1-0.2,0.2-0.4,0.2-0.6L18.5,25.5z"/>
	<path class="st0" d="M18.5,15.6c0,0.2-0.1,0.4-0.2,0.6c-0.2,0.2-0.4,0.5-0.6,0.6c-0.3,0.2-0.5,0.4-0.8,0.6s-0.7,0.4-1.1,0.6
		s-0.9,0.4-1.3,0.6s-1,0.4-1.6,0.6s-1.2,0.4-1.7,0.6l-1.9,0.6L7.4,21c-0.6,0.2-1.2,0.4-1.7,0.6s-1,0.4-1.6,0.6s-1,0.6-1.4,0.8
		s-0.8,0.4-1.1,0.6S1,24,0.7,24.2c-0.2,0.2-0.4,0.4-0.6,0.6c0,0.3-0.1,0.5-0.1,0.7v-5.3c0-0.2,0.1-0.4,0.2-0.6
		c0.2-0.2,0.3-0.5,0.6-0.6c0.3-0.2,0.6-0.4,0.9-0.6c0.4-0.2,0.7-0.4,1.1-0.6s0.9-0.4,1.3-0.6s1-0.4,1.5-0.6s1.2-0.4,1.7-0.6l1.9-0.6
		l1.9-0.6c0.6-0.2,1.1-0.4,1.7-0.6s1-0.4,1.6-0.6s0.9-0.4,1.3-0.6c0.4-0.2,0.8-0.4,1.1-0.6c0.3-0.2,0.6-0.4,0.8-0.6
		c0.2-0.2,0.4-0.4,0.6-0.6c0.1-0.2,0.2-0.4,0.2-0.6L18.5,15.6z"/>
	<rect x="5.8" y="6.5" class="st0" width="1.3" height="5.3"/>
	<rect x="2.8" y="7.7" class="st0" width="1.1" height="5.3"/>
	<rect x="4.2" y="7.1" class="st0" width="1.2" height="5.3"/>
	<rect x="7.6" y="5.9" class="st0" width="1.4" height="5.3"/>
	<rect x="14.9" y="3.2" class="st0" width="0.6" height="5.3"/>
	<rect x="1.7" y="8.4" class="st0" width="0.9" height="5.3"/>
	<rect x="16.5" y="2.1" class="st0" width="0.3" height="5.3"/>
	<rect x="18.3" class="st0" width="0.2" height="5.3"/>
	<rect x="9.5" y="5.2" class="st0" width="1.4" height="5.3"/>
	<rect x="13.2" y="4" class="st0" width="0.9" height="5.3"/>
	<rect x="11.4" y="4.6" class="st0" width="1.1" height="5.3"/>
	<rect x="0.2" y="9.6" class="st0" width="0.5" height="5.3"/>
	<path class="st0" d="M0.2,10.3v5.3c0-0.1-0.2,0-0.2,0v-5.3H0.2z"/>
	<rect x="0.8" y="9" class="st0" width="0.7" height="5.3"/>
</g>
</svg>
