<?xml version="1.0" encoding="UTF-8"?><svg id="_レイヤー_1" xmlns="http://www.w3.org/2000/svg" viewBox="0 0 786 359"><defs><style>.cls-1{fill:#004098;}.cls-2{fill:#f4f1e8;}.cls-3{fill:#fff;}.cls-4{fill:#97bdc0;}.cls-5,.cls-6{fill:#666665;}.cls-7{fill:#274d7a;}.cls-6{isolation:isolate;opacity:.5;}</style></defs><rect class="cls-2" y="0" width="551.87" height="359"/><rect class="cls-2" x="563.02" y="0" width="222.98" height="359"/><circle class="cls-4" cx="402.48" cy="155.53" r="124.87"/><circle class="cls-1" cx="402.48" cy="196.78" r="83.62"/><g><path class="cls-3" d="m433.14,231.68h-62.21c-3.12,0-5.57-2.45-5.57-5.57v-7.14c0-3.12,2.45-5.57,5.57-5.57h62.21c3.12,0,5.57,2.45,5.57,5.57v7.14c0,3.12-2.45,5.57-5.57,5.57Z"/><g><path d="m375.16,217.85h2.01v4.35l3.68-4.35h2.45l-4.13,4.79,4.35,5.35h-2.68l-3.68-4.68h0v4.68h-2.01v-10.15Z"/><path d="m385.08,220.97c.78-.33,1.78-.56,2.56-.56,2.23,0,3.23.89,3.23,3.12v2.9c0,.56,0,1.11.11,1.67h-1.67c-.11-.45-.11-.89-.11-1.11h0c-.45.78-1.45,1.34-2.34,1.34-1.34,0-2.56-.78-2.56-2.23,0-1.11.56-1.78,1.23-2.12.78-.33,1.67-.45,2.45-.45h1.11c0-1.23-.56-1.56-1.67-1.56-.78,0-1.67.33-2.34.78v-1.78Zm2.23,5.8c.56,0,1-.22,1.34-.67.33-.45.45-1,.45-1.56h-.89c-.89,0-2.12.11-2.12,1.34,0,.56.56.89,1.23.89Z"/><path d="m397.24,222.09c-.56-.22-1-.33-1.78-.33-.56,0-1.11.22-1.11.78,0,1.23,3.34.45,3.34,3.12,0,1.78-1.56,2.45-3.12,2.45-.78,0-1.45-.11-2.23-.33l.11-1.56c.56.33,1.23.45,1.9.45.45,0,1.23-.22,1.23-.89,0-1.45-3.34-.45-3.34-3.12,0-1.56,1.45-2.34,2.9-2.34.89,0,1.56.11,2.12.22v1.56Z"/><path d="m399.24,217.07h1.9v4.46h0c.45-.78,1.34-1.23,2.34-1.23,1.78,0,2.56,1.23,2.56,2.9v4.68h-1.9v-4.01c0-.89,0-2.12-1.23-2.12-1.45,0-1.67,1.56-1.67,2.45v3.68h-1.9l-.11-10.81h0Z"/><path d="m408.05,217.3h1.9v1.9h-1.9v-1.9Zm0,3.23h1.9v7.47h-1.9v-7.47Z"/><path d="m411.28,220.53h2.01l1.67,5.57h0l1.56-5.57h2.23l1.67,5.57h0l1.56-5.57h1.9l-2.34,7.47h-2.34l-1.67-5.69h0l-1.56,5.69h-2.23l-2.45-7.47Z"/><path d="m425.33,220.97c.78-.33,1.78-.56,2.56-.56,2.23,0,3.23.89,3.23,3.12v2.9c0,.56,0,1.11.11,1.67h-1.67c-.11-.45-.11-.89-.11-1.11h0c-.45.78-1.45,1.34-2.34,1.34-1.34,0-2.56-.78-2.56-2.23,0-1.11.56-1.78,1.23-2.12s1.67-.45,2.45-.45h1.11c0-1.23-.56-1.56-1.67-1.56-.78,0-1.67.33-2.34.78v-1.78Zm2.23,5.8c.56,0,1-.22,1.34-.67.33-.45.45-1,.45-1.56h-.89c-.89,0-2.12.11-2.12,1.34,0,.56.56.89,1.23.89Z"/></g></g><path class="cls-3" d="m360.56,147.73h5.69c6.35,0,11.93,2.12,11.93,10.26s-5.57,10.26-11.93,10.26h-5.69v-20.51Zm4.13,17.39h2.34c3.9-.11,6.91-3.46,6.8-7.36-.11-3.68-3.12-6.58-6.8-6.8h-2.34v14.16Z"/><path class="cls-3" d="m381.85,147.73h7.25c2.68,0,6.69.78,6.69,5.24,0,2.34-1.78,4.35-4.13,4.57h0c2.79.22,4.68,2.12,4.68,4.68,0,5.24-4.68,6.02-7.25,6.02h-7.25v-20.51Zm4.13,8.36h1.67c1.78,0,3.9-.33,3.9-2.45,0-2.34-2.12-2.56-4.01-2.56h-1.56v5.02Zm0,9.03h2.01c1.9,0,4.24-.45,4.24-2.9,0-2.68-2.23-3.12-4.24-3.12h-2.01v6.02Z"/><path class="cls-3" d="m414.96,168.02c-1.56.45-3.12.56-4.68.67-6.69,0-11.26-3.34-11.26-10.26s4.35-11.04,11.26-11.04c1.56,0,3.12.33,4.68.89l-.33,3.46c-1.34-.78-2.9-1.11-4.46-1.11-4.24,0-6.91,3.23-6.91,7.47s2.56,7.36,7.02,7.36c1.56,0,3.12-.22,4.46-.89l.22,3.46Z"/><path class="cls-3" d="m417.97,147.73h4.13v17.39h8.03v3.23h-12.15v-20.63h0Z"/><path class="cls-3" d="m443.84,151.52c-1.34-.56-2.79-.89-4.24-.89s-3.23.67-3.23,2.9c0,3.57,9.03,2.12,9.03,8.92,0,4.57-3.57,6.24-7.69,6.24-1.78,0-3.57-.22-5.24-.78l.45-3.68c1.45.78,3.01,1.23,4.68,1.23,1.56,0,3.68-.78,3.68-2.68,0-3.9-9.03-2.34-9.03-9.14,0-4.57,3.57-6.24,7.25-6.24,1.67,0,3.34.22,4.91.78l-.56,3.34Z"/><circle class="cls-6" cx="144.94" cy="154.41" r="123.75"/><circle class="cls-5" cx="677.86" cy="191.76" r="86.96"/><circle class="cls-5" cx="677.86" cy="191.76" r="86.96"/><path class="cls-5" d="m254.64,300.13h7.02c2.68,0,4.79,1.23,4.79,3.68.11,1.78-1.11,3.46-2.9,3.79h0c1.23.33,1.34,1.45,2.12,3.23l1.45,4.01h-4.01l-.89-2.68c-.78-2.56-1.34-3.23-2.79-3.23h-.78v5.91h-3.9l-.11-14.72Zm4.01,6.13h1c1.23,0,2.9,0,2.9-1.67,0-1.34-1.34-1.67-2.9-1.67h-1v3.34Z"/><path class="cls-5" d="m275.82,299.91c4.91,0,7.36,2.9,7.36,7.69s-2.56,7.69-7.36,7.69-7.36-2.9-7.36-7.69,2.45-7.69,7.36-7.69Zm0,12.38c2.34,0,3.34-2.34,3.34-4.68s-1-4.68-3.34-4.68-3.34,2.12-3.34,4.68.89,4.68,3.34,4.68h0Z"/><path class="cls-5" d="m285.64,300.13h3.9v14.83h-3.9v-14.83Z"/><path class="cls-5" d="m292.55,311.28c1.23.67,2.68,1,4.01,1,1.23,0,2.45-.22,2.45-1.45,0-2.79-7.02-1-7.02-6.35,0-3.57,3.46-4.57,6.47-4.57,1.34,0,2.56.22,3.79.56l-.22,3.01c-1-.45-2.12-.67-3.34-.67-1,0-2.68.11-2.68,1.34,0,2.34,7.02.78,7.02,6.13,0,3.79-3.23,4.91-6.47,4.91-1.45,0-3.01-.22-4.46-.67l.45-3.23Z"/><path class="cls-5" d="m661.13,311.5c.56.22,1.11.33,1.78.33,1.11,0,2.01-.78,2.01-3.23v-8.47h3.9v9.7c0,3.23-1.34,5.35-5.35,5.35-.78,0-1.67-.22-2.45-.45l.11-3.23Z"/><path class="cls-5" d="m671.61,311.28c1.23.67,2.68,1,4.13,1,1.23,0,2.45-.22,2.45-1.45,0-2.79-7.02-1-7.02-6.35,0-3.57,3.46-4.57,6.47-4.57,1.34,0,2.56.22,3.79.56l-.22,3.01c-1-.45-2.12-.67-3.23-.67-1,0-2.68.11-2.68,1.34,0,2.34,7.02.78,7.02,6.13,0,3.79-3.23,4.91-6.47,4.91-1.45,0-3.01-.22-4.46-.67l.22-3.23Z"/><path class="cls-5" d="m687,303.14h-3.57v-2.9h11.26v2.9h-3.68v11.82h-3.9l-.11-11.82Z"/><rect class="cls-7" x="517.31" y="259.22" width="80.27" height="4.46"/><polygon class="cls-7" points="506.83 261.45 519.76 268.92 519.76 253.98 506.83 261.45"/><polygon class="cls-7" points="604.27 261.45 591.45 253.98 591.45 268.92 604.27 261.45"/><rect class="cls-7" x="235.24" y="259.22" width="80.27" height="4.46"/><polygon class="cls-7" points="224.76 261.45 237.7 268.92 237.7 253.98 224.76 261.45"/><polygon class="cls-7" points="322.2 261.45 309.38 253.98 309.38 268.92 322.2 261.45"/><path class="cls-3" d="m641.84,166.12h5.02l7.8,15.39h0v-15.39h3.9v20.63h-5.02l-7.92-15.39h0v15.39h-3.9l.11-20.63Z"/><path class="cls-3" d="m663.36,166.12h7.25c2.68,0,6.69.78,6.69,5.24,0,2.34-1.78,4.35-4.13,4.57h0c2.79.22,4.68,2.12,4.68,4.68,0,5.24-4.68,6.02-7.25,6.02h-7.25v-20.51Zm4.13,8.36h1.67c1.78,0,3.9-.45,3.9-2.45,0-2.34-2.12-2.56-4.01-2.56h-1.56v5.02Zm0,9.03h2.01c1.9,0,4.24-.45,4.24-2.9,0-2.68-2.23-3.12-4.24-3.12h-2.01v6.02Z"/><path class="cls-3" d="m681.42,166.12h5.57c6.35,0,11.93,2.12,11.93,10.26s-5.57,10.26-11.93,10.26h-5.57v-20.51Zm4.13,17.39h2.34c3.9,0,7.02-3.12,7.02-7.02s-3.12-7.02-7.02-7.02h-2.34v14.05Z"/><path class="cls-3" d="m717.66,186.41c-1.56.45-3.12.67-4.68.67-6.69,0-11.26-3.34-11.26-10.26s4.35-11.04,11.26-11.04c1.56,0,3.12.33,4.68.89l-.33,3.46c-1.34-.78-2.9-1.11-4.46-1.11-4.24,0-6.91,3.23-6.91,7.47s2.56,7.36,7.02,7.36c1.56,0,3.01-.22,4.46-.89l.22,3.46Z"/><circle class="cls-5" cx="146.05" cy="196.78" r="83.62"/><path class="cls-3" d="m113.5,166.12h5.57c6.35,0,11.93,2.12,11.93,10.26s-5.57,10.26-11.93,10.26h-5.57v-20.51Zm4.13,17.39h2.34c3.9,0,7.02-3.12,7.02-7.02s-3.12-7.02-7.02-7.02h-2.34v14.05Z"/><path class="cls-3" d="m134.79,166.12h5.57c6.35,0,11.93,2.12,11.93,10.26s-5.46,10.37-11.82,10.37h-5.57l-.11-20.63Zm4.13,17.39h2.34c3.9,0,7.02-3.12,7.02-7.02s-3.12-7.02-7.02-7.02h-2.34v14.05Z"/><path class="cls-3" d="m156.09,166.12h7.25c2.68,0,6.69.78,6.69,5.24,0,2.34-1.78,4.35-4.13,4.57h0c2.79.22,4.68,2.12,4.68,4.68,0,5.24-4.68,6.02-7.25,6.02h-7.25v-20.51Zm4.13,8.36h1.67c1.78,0,3.9-.45,3.9-2.45,0-2.34-2.12-2.56-4.01-2.56h-1.56v5.02Zm0,9.03h2.01c1.9,0,4.24-.45,4.24-2.9,0-2.68-2.23-3.12-4.24-3.12h-2.01v6.02Z"/><path class="cls-3" d="m172.36,183.07c.67.22,1.34.33,2.01.33,2.68,0,2.68-2.12,2.68-3.68v-13.6h4.13v15.72c0,2.9-2.23,5.24-5.13,5.24h-.56c-1.11,0-2.12-.11-3.12-.45v-3.57Z"/><path class="cls-3" d="m123.98,49.06h5.13l7.92,15.39h0v-15.39h4.01v20.63h-5.02l-7.92-15.39h-.11v15.39h-4.01s0-20.63,0-20.63Z"/><path class="cls-3" d="m145.05,49.06h4.13v20.63h-4.13v-20.63Z"/><path class="cls-3" d="m169.69,53.07c-1.67-.78-3.46-1.11-5.35-1.11-4.79,0-7.47,3.23-7.47,7.47s2.56,7.36,7.02,7.36c.89,0,1.78-.11,2.68-.33v-5.35h-4.35v-3.23h8.36v11.15c-2.12.67-4.46,1-6.69,1.11-6.69,0-11.26-3.34-11.26-10.26s4.35-11.04,11.26-11.04c2.01,0,4.13.22,6.02.89l-.22,3.34Z"/><path class="cls-3" d="m387.09,49.06h5.69c6.35,0,11.93,2.12,11.93,10.26s-5.57,10.37-11.93,10.37h-5.69v-20.63Zm4.13,17.39h2.34c3.9,0,7.02-3.12,7.02-7.02s-3.12-7.02-7.02-7.02h-2.34v14.05Z"/><path class="cls-3" d="m419.53,52.85c-1.34-.56-2.79-.89-4.24-.89s-3.23.67-3.23,2.9c0,3.57,9.03,2.12,9.03,8.92,0,4.57-3.57,6.24-7.69,6.24-1.78,0-3.57-.22-5.24-.78l.33-3.68c1.45.78,3.01,1.23,4.68,1.23,1.56,0,3.68-.78,3.68-2.68,0-3.9-9.03-2.34-9.03-9.14,0-4.57,3.57-6.24,7.25-6.24,1.67,0,3.34.22,4.91.78l-.45,3.34Z"/><g><path class="cls-3" d="m92.42,76.48h2.34l3.57,8.58h0v-8.58h1.78v10.93h-2.34l-3.57-8.47h0v8.47h-1.78v-10.93Z"/><path class="cls-3" d="m102.68,79.72c.56-.22,1.34-.56,2.56-.56,2.45,0,3.12,1.23,3.12,3.23v3.57c0,.56.11,1.11.11,1.45h-1.78c-.11-.33-.11-.67-.11-1.11h0c-.45.67-1.11,1.23-2.23,1.23-1.23,0-2.45-.89-2.45-2.34,0-2.23,1.78-2.79,4.24-2.79h.45v-.33c0-.78-.45-1.56-1.45-1.56s-1.78.45-2.23.78l-.22-1.56Zm3.79,3.68h-.22c-1.67,0-2.68.33-2.68,1.56,0,.78.45,1.23,1.23,1.23,1.11,0,1.56-.89,1.56-2.34l.11-.45h0Z"/><path class="cls-3" d="m110.82,77.6l1.9-.56v2.23h1.56v1.45h-1.56v4.13c0,.89.33,1.11.89,1.11.33,0,.56-.11.78-.22v1.34c-.33.11-.67.22-1.34.22-1.45,0-2.23-.67-2.23-2.34v-4.35h-1.23v-1.45h1.23v-1.56Z"/><path class="cls-3" d="m115.73,75.81h2.01v1.9h-2.01v-1.9Zm0,3.46h1.9v8.03h-1.9v-8.03Z"/><path class="cls-3" d="m122.97,79.16c1.67,0,3.57.89,3.57,4.13s-1.9,4.13-3.57,4.13-3.57-.78-3.57-4.13c0-3.23,1.9-4.13,3.57-4.13Zm0,6.91c1.23,0,1.56-1.45,1.56-2.79s-.33-2.79-1.56-2.79-1.56,1.45-1.56,2.79.33,2.79,1.56,2.79Z"/><path class="cls-3" d="m127.99,80.61c0-.45,0-1-.11-1.34h1.78c0,.45.11.78.11,1.23h0c.33-.45.78-1.34,2.12-1.34,1.78,0,2.34,1.34,2.34,3.01v5.24h-1.9v-4.91c0-1.23-.33-1.78-1.11-1.78-1,0-1.34.89-1.34,1.9v4.68h-1.9s0-6.69,0-6.69Z"/><path class="cls-3" d="m136.46,79.72c.56-.22,1.34-.56,2.56-.56,2.45,0,3.12,1.23,3.12,3.23v3.57c0,.56.11,1.11.11,1.45h-1.78c-.11-.33-.11-.67-.11-1.11h0c-.45.67-1.11,1.23-2.23,1.23-1.23,0-2.45-.89-2.45-2.34,0-2.23,1.78-2.79,4.24-2.79h.45v-.33c0-.78-.45-1.56-1.45-1.56s-1.78.45-2.23.78l-.22-1.56Zm3.9,3.68h-.22c-1.67,0-2.68.33-2.68,1.56,0,.78.45,1.23,1.23,1.23,1.11,0,1.56-.89,1.56-2.34l.11-.45h0Z"/><path class="cls-3" d="m144.16,75.59h1.9v11.71h-1.9v-11.71Z"/><path class="cls-3" d="m152.29,76.48h2.01v10.93h-2.01v-10.93Z"/><path class="cls-3" d="m156.42,80.61c0-.45,0-1-.11-1.34h1.78c0,.45.11.78.11,1.23h0c.33-.45.78-1.34,2.12-1.34,1.78,0,2.34,1.34,2.34,3.01v5.24h-1.9v-4.91c0-1.23-.33-1.78-1.11-1.78-1,0-1.34.89-1.34,1.9v4.68h-1.9v-6.69h0Z"/><path class="cls-3" d="m164.22,85.4c.33.11,1.11.56,2.01.56.67,0,1.23-.22,1.23-.78,0-.33-.11-.56-.89-1l-.78-.45c-.78-.45-1.67-1-1.67-2.23,0-1.11,1.11-2.23,2.79-2.23,1,0,1.78.22,2.01.33l-.11,1.45c-.45-.22-1-.33-1.67-.33-.78,0-1.11.33-1.11.78s.33.67.89,1l1,.56c1,.67,1.45,1.11,1.45,2.01,0,1.45-1.23,2.34-3.01,2.34-1,0-1.78-.22-2.23-.45l.11-1.56Z"/><path class="cls-3" d="m171.58,77.6l1.9-.56v2.23h1.56v1.45h-1.56v4.13c0,.89.33,1.11.89,1.11.33,0,.56-.11.78-.22v1.34c-.33.11-.67.22-1.34.22-1.45,0-2.23-.67-2.23-2.34v-4.35h-1.23v-1.45h1.23v-1.56Z"/><path class="cls-3" d="m176.49,75.81h2.01v1.9h-2.01v-1.9Zm0,3.46h1.9v8.03h-1.9v-8.03Z"/><path class="cls-3" d="m181.06,77.6l1.9-.56v2.23h1.56v1.45h-1.56v4.13c0,.89.33,1.11.89,1.11.33,0,.56-.11.78-.22v1.34c-.33.11-.67.22-1.34.22-1.45,0-2.23-.67-2.23-2.34v-4.35h-1.23v-1.45h1.23v-1.56Z"/><path class="cls-3" d="m192.21,85.96c0,.45,0,1,.11,1.34h-1.78c0-.45-.11-.78-.11-1.23h0c-.33.56-.89,1.34-2.12,1.34-1.78,0-2.34-1.34-2.34-3.01v-5.24h1.9v4.79c0,1.23.33,1.78,1.11,1.78,1,0,1.34-.89,1.34-2.01v-4.57h1.9v6.8h0Z"/><path class="cls-3" d="m194.66,77.6l1.9-.56v2.23h1.56v1.45h-1.56v4.13c0,.89.33,1.11.89,1.11.33,0,.56-.11.78-.22v1.34c-.33.11-.67.22-1.34.22-1.45,0-2.23-.67-2.23-2.34v-4.35h-1.23v-1.45h1.23v-1.56Z"/><path class="cls-3" d="m205.36,86.96c-.45.22-1.23.56-2.45.56-2.56,0-3.68-1.9-3.68-4.01,0-2.45,1.23-4.24,3.34-4.24,1.78,0,3.23,1,3.23,4.35v.33h-4.68c0,1.34.56,2.23,2.01,2.23,1.23,0,1.78-.33,2.12-.67l.11,1.45Zm-1.45-4.35c0-1.45-.45-2.12-1.34-2.12-1,0-1.45,1.11-1.45,2.12h2.79Z"/><path class="cls-3" d="m116.06,94.77c1.67,0,3.57.89,3.57,4.13s-1.9,4.13-3.57,4.13-3.57-.78-3.57-4.13,1.9-4.13,3.57-4.13Zm0,6.91c1.23,0,1.56-1.45,1.56-2.79s-.33-2.79-1.56-2.79-1.56,1.45-1.56,2.79.33,2.79,1.56,2.79Z"/><path class="cls-3" d="m121.75,96.33h-1.34v-1.45h1.34v-1.67c0-1.11.56-2.23,2.34-2.23.56,0,1,.11,1.34.22l-.11,1.45c-.22-.11-.45-.11-.78-.11-.56,0-.89.45-.89,1v1.34h1.45v1.45h-1.45v6.58h-1.9v-6.58Z"/><path class="cls-3" d="m135.01,96.89h3.57v5.69c-.56.33-1.56.56-2.9.56-3.46,0-5.35-2.34-5.35-5.57s1.9-5.57,5.35-5.57c1.23,0,2.23.33,2.68.45l-.11,1.78c-.67-.45-1.56-.67-2.56-.67-2.12,0-3.23,1.78-3.23,4.01,0,2.45,1.11,4.01,3.12,4.01.45,0,.89-.11,1.11-.22v-2.9h-1.67v-1.56Z"/><path class="cls-3" d="m146.39,102.57c-.45.22-1.23.56-2.45.56-2.56,0-3.68-1.9-3.68-4.01,0-2.45,1.23-4.24,3.34-4.24,1.78,0,3.23,1,3.23,4.35v.33h-4.68c0,1.34.56,2.23,2.01,2.23,1.23,0,1.78-.33,2.12-.67l.11,1.45Zm-1.45-4.35c0-1.45-.45-2.12-1.34-2.12-1,0-1.45,1.11-1.45,2.12h2.79Z"/><path class="cls-3" d="m148.28,96.22c0-.45,0-1-.11-1.34h1.78c0,.45.11.78.11,1.23h0c.33-.45.78-1.34,2.12-1.34,1.78,0,2.34,1.34,2.34,3.01v5.24h-1.9v-4.91c0-1.23-.33-1.78-1.11-1.78-1,0-1.34.89-1.34,1.9v4.68h-1.9v-6.69Z"/><path class="cls-3" d="m162.22,102.57c-.45.22-1.23.56-2.45.56-2.56,0-3.68-1.9-3.68-4.01,0-2.45,1.23-4.24,3.34-4.24,1.78,0,3.23,1,3.23,4.35v.33h-4.68c0,1.34.56,2.23,2.01,2.23,1.23,0,1.78-.33,2.12-.67l.11,1.45Zm-1.45-4.35c0-1.45-.45-2.12-1.34-2.12-1,0-1.45,1.11-1.45,2.12h2.79Z"/><path class="cls-3" d="m164.89,93.21l1.9-.56v2.23h1.56v1.45h-1.56v4.13c0,.89.33,1.11.89,1.11.33,0,.56-.11.78-.22v1.34c-.33.11-.67.22-1.34.22-1.45,0-2.23-.67-2.23-2.34v-4.35h-1.23v-1.45h1.23v-1.56Z"/><path class="cls-3" d="m169.8,91.42h2.01v1.9h-2.01v-1.9Zm0,3.46h1.9v8.03h-1.9v-8.03Z"/><path class="cls-3" d="m179.16,102.68c-.45.22-1.11.33-1.9.33-2.68,0-3.79-1.9-3.79-4.13,0-2.34,1.23-4.13,3.9-4.13.56,0,1.34.22,1.67.33l-.11,1.56c-.33-.22-.78-.45-1.34-.45-1.45,0-2.12,1-2.12,2.68,0,1.45.67,2.68,2.23,2.68.45,0,1.11-.22,1.34-.45l.11,1.56Z"/><path class="cls-3" d="m180.17,101.01c.33.11,1.11.56,2.01.56.67,0,1.23-.22,1.23-.78,0-.33-.11-.56-.89-1l-.78-.45c-.78-.45-1.67-1-1.67-2.23,0-1.11,1.11-2.23,2.79-2.23,1,0,1.78.22,2.01.33l-.11,1.45c-.45-.22-1-.33-1.67-.33-.78,0-1.11.33-1.11.78s.33.67.89,1l1,.56c1,.67,1.45,1.11,1.45,2.01,0,1.45-1.23,2.34-3.01,2.34-1,0-1.78-.22-2.23-.45l.11-1.56Z"/></g><g><path class="cls-5" d="m122.64,321.2h3.46c1.9,0,3.23.89,3.23,2.9,0,1.45-.89,2.34-2.12,2.56h0c.45.11.89.22,1.23,1.23l1.45,4.13h-2.12l-1.11-3.57c-.22-.89-.78-1.11-1.56-1.11h-.45v4.68h-2.01v-10.81Zm2.9,4.79c1.11,0,1.78-.56,1.78-1.67,0-1.23-.67-1.56-1.78-1.56h-.78v3.23h.78Z"/><path class="cls-5" d="m137.02,331.68c-.45.22-1.23.56-2.45.56-2.56,0-3.68-1.9-3.68-4.01,0-2.45,1.23-4.24,3.34-4.24,1.78,0,3.23,1,3.23,4.35v.33h-4.68c0,1.34.56,2.23,2.01,2.23,1.23,0,1.78-.33,2.12-.67l.11,1.45Zm-1.45-4.24c0-1.45-.45-2.12-1.34-2.12-1,0-1.45,1.11-1.45,2.12h2.79Z"/><path class="cls-5" d="m138.8,330.24c.33.11,1.11.56,2.01.56.67,0,1.23-.22,1.23-.78,0-.33-.11-.56-.89-1l-.78-.45c-.78-.45-1.67-1-1.67-2.23,0-1.11,1.11-2.23,2.79-2.23,1,0,1.78.22,2.01.33l-.11,1.45c-.45-.22-1-.33-1.67-.33-.78,0-1.11.33-1.11.78s.33.67.89,1l1,.56c1,.67,1.45,1.11,1.45,2.01,0,1.45-1.23,2.34-3.01,2.34-1,0-1.78-.22-2.23-.45l.11-1.56Z"/><path class="cls-5" d="m151.18,331.68c-.45.22-1.23.56-2.45.56-2.56,0-3.68-1.9-3.68-4.01,0-2.45,1.23-4.24,3.34-4.24,1.78,0,3.23,1,3.23,4.35v.33h-4.68c0,1.34.56,2.23,2.01,2.23,1.23,0,1.78-.33,2.12-.67l.11,1.45Zm-1.45-4.24c0-1.45-.45-2.12-1.34-2.12-1,0-1.45,1.11-1.45,2.12h2.79Z"/><path class="cls-5" d="m153.52,324.55c.56-.22,1.34-.56,2.56-.56,2.45,0,3.12,1.23,3.12,3.23v3.57c0,.56.11,1.11.11,1.45h-1.78c-.11-.33-.11-.67-.11-1.11h0c-.45.67-1.11,1.23-2.23,1.23-1.23,0-2.45-.89-2.45-2.34,0-2.23,1.78-2.79,4.24-2.79h.45v-.33c0-.78-.45-1.56-1.45-1.56s-1.78.45-2.23.78l-.22-1.56Zm3.79,3.68h-.11c-1.67,0-2.68.33-2.68,1.56,0,.78.45,1.23,1.23,1.23,1.11,0,1.56-.89,1.56-2.34v-.45Z"/><path class="cls-5" d="m160.99,325.44c0-.45,0-1-.11-1.34h1.78c0,.45.11,1,.11,1.45h0c.22-.67.89-1.56,2.01-1.56h.33v1.78c-.22,0-.33-.11-.56-.11-.78,0-1.67.45-1.67,2.01v4.46h-1.9v-6.69h0Z"/><path class="cls-5" d="m171.69,331.91c-.45.22-1.11.33-1.9.33-2.68,0-3.79-1.9-3.79-4.13,0-2.34,1.23-4.13,3.9-4.13.56,0,1.34.22,1.67.33l-.11,1.56c-.33-.22-.78-.33-1.34-.33-1.45,0-2.12,1-2.12,2.68,0,1.45.67,2.68,2.23,2.68.45,0,1.11-.22,1.34-.45l.11,1.45Z"/><path class="cls-5" d="m172.92,320.42h1.9v4.68h0c.33-.45.78-1.11,2.01-1.11,1.78,0,2.34,1.34,2.34,3.01v5.24h-1.9v-4.79c0-1.23-.33-1.78-1.11-1.78-1,0-1.34.89-1.34,1.9v4.68h-1.9v-11.82h0Z"/><path class="cls-5" d="m189.31,321.09c2.23,0,4.35,1.67,4.35,5.57s-2.12,5.57-4.35,5.57-4.35-1.67-4.35-5.57c0-3.9,2.01-5.57,4.35-5.57Zm0,9.7c1.23,0,2.23-1.11,2.23-4.13s-1-4.13-2.23-4.13-2.23,1.11-2.23,4.13.89,4.13,2.23,4.13Z"/><path class="cls-5" d="m195.22,325.44c0-.45,0-1-.11-1.34h1.78c0,.45.11,1,.11,1.45h0c.22-.67.89-1.56,2.01-1.56h.33v1.78c-.22,0-.33-.11-.56-.11-.78,0-1.67.45-1.67,2.01v4.46h-1.9v-6.69h0Z"/><path class="cls-5" d="m200.79,333.36c.45.22,1.34.67,2.34.67,1.78,0,2.12-1.23,2.12-2.56v-.78h0c-.33.67-.89,1.34-2.12,1.34-1.11,0-2.79-.78-2.79-4.01,0-2.23.78-4.13,2.9-4.13,1.23,0,1.67.67,2.12,1.34h.11c0-.45,0-.78.11-1.23h1.78c0,.45-.11.89-.11,1.23v5.91c0,2.56-.78,4.35-3.68,4.35-1.23,0-2.34-.33-2.79-.45v-1.67Zm2.79-2.68c1.23,0,1.67-.89,1.67-2.68,0-1.67-.67-2.56-1.56-2.56-1,0-1.45,1-1.45,2.56.11,1.9.67,2.68,1.34,2.68Z"/><path class="cls-5" d="m209.27,324.55c.56-.22,1.34-.56,2.56-.56,2.45,0,3.12,1.23,3.12,3.23v3.57c0,.56.11,1.11.11,1.45h-1.78c-.11-.33-.11-.67-.11-1.11h0c-.45.67-1.11,1.23-2.23,1.23-1.23,0-2.45-.89-2.45-2.34,0-2.23,1.78-2.79,4.24-2.79h.45v-.33c0-.78-.45-1.56-1.45-1.56s-1.78.45-2.23.78l-.22-1.56Zm3.9,3.68h-.22c-1.67,0-2.68.33-2.68,1.56,0,.78.45,1.23,1.23,1.23,1.11,0,1.56-.89,1.56-2.34l.11-.45h0Z"/><path class="cls-5" d="m216.74,325.44c0-.45,0-1-.11-1.34h1.78c0,.45.11.78.11,1.23h0c.33-.45.78-1.34,2.12-1.34,1.78,0,2.34,1.34,2.34,3.01v5.24h-1.9v-4.79c0-1.23-.33-1.78-1.11-1.78-1,0-1.34.89-1.34,1.9v4.68h-1.9v-6.8h0Z"/><path class="cls-5" d="m224.99,320.65h2.01v1.9h-2.01v-1.9Zm0,3.46h1.9v8.03h-1.9v-8.03Z"/><path class="cls-5" d="m228.44,330.46l3.46-4.91h-3.34v-1.45h5.24v1.67l-3.34,4.91h3.46v1.45h-5.46v-1.67h0Z"/><path class="cls-5" d="m235.58,324.55c.56-.22,1.34-.56,2.56-.56,2.45,0,3.12,1.23,3.12,3.23v3.57c0,.56.11,1.11.11,1.45h-1.78c-.11-.33-.11-.67-.11-1.11h0c-.45.67-1.11,1.23-2.23,1.23-1.23,0-2.45-.89-2.45-2.34,0-2.23,1.78-2.79,4.24-2.79h.45v-.33c0-.78-.45-1.56-1.45-1.56s-1.78.45-2.23.78l-.22-1.56Zm3.9,3.68h-.22c-1.67,0-2.68.33-2.68,1.56,0,.78.45,1.23,1.23,1.23,1.11,0,1.56-.89,1.56-2.34l.11-.45h0Z"/><path class="cls-5" d="m243.72,322.43l1.9-.56v2.23h1.56v1.45h-1.56v4.13c0,.89.33,1.11.89,1.11.33,0,.56-.11.78-.22v1.34c-.33.11-.67.22-1.34.22-1.45,0-2.23-.67-2.23-2.34v-4.24h-1.23v-1.45h1.23v-1.67Z"/><path class="cls-5" d="m248.73,320.65h2.01v1.9h-2.01v-1.9Zm0,3.46h1.9v8.03h-1.9v-8.03Z"/><path class="cls-5" d="m255.87,323.99c1.67,0,3.57.89,3.57,4.13s-1.9,4.13-3.57,4.13-3.57-.78-3.57-4.13c.11-3.34,2.01-4.13,3.57-4.13Zm0,6.91c1.23,0,1.56-1.45,1.56-2.79s-.33-2.79-1.56-2.79-1.56,1.45-1.56,2.79c.11,1.34.33,2.79,1.56,2.79Z"/><path class="cls-5" d="m261,325.44c0-.45,0-1-.11-1.34h1.78c0,.45.11.78.11,1.23h0c.33-.45.78-1.34,2.12-1.34,1.78,0,2.34,1.34,2.34,3.01v5.24h-1.9v-4.79c0-1.23-.33-1.78-1.11-1.78-1,0-1.34.89-1.34,1.9v4.68h-1.9v-6.8Z"/><path class="cls-5" d="m276.49,323.99c1.67,0,3.57.89,3.57,4.13s-1.9,4.13-3.57,4.13-3.57-.78-3.57-4.13,1.9-4.13,3.57-4.13Zm0,6.91c1.23,0,1.56-1.45,1.56-2.79s-.33-2.79-1.56-2.79-1.56,1.45-1.56,2.79.22,2.79,1.56,2.79Z"/><path class="cls-5" d="m282.18,325.55h-1.34v-1.45h1.34v-1.67c0-1.11.56-2.23,2.34-2.23.56,0,1,.11,1.34.22l-.11,1.45c-.22-.11-.45-.11-.78-.11-.56,0-.89.33-.89,1v1.34h1.45v1.45h-1.45v6.58h-1.9v-6.58Z"/><path class="cls-5" d="m291.1,321.2h2.01v10.93h-2.01v-10.93Z"/><path class="cls-5" d="m295.11,325.44c0-.45,0-1-.11-1.34h1.78c0,.45.11.78.11,1.23h0c.33-.45.78-1.34,2.12-1.34,1.78,0,2.34,1.34,2.34,3.01v5.24h-1.9v-4.79c0-1.23-.33-1.78-1.11-1.78-1,0-1.34.89-1.34,1.9v4.68h-1.9v-6.8h0Z"/><path class="cls-5" d="m303.81,325.55h-1.34v-1.45h1.34v-1.67c0-1.11.56-2.23,2.34-2.23.56,0,1,.11,1.34.22l-.11,1.45c-.22-.11-.45-.11-.78-.11-.56,0-.89.33-.89,1v1.34h1.45v1.45h-1.45v6.58h-1.9v-6.58Z"/><path class="cls-5" d="m311.72,323.99c1.67,0,3.57.89,3.57,4.13s-1.9,4.13-3.57,4.13-3.57-.78-3.57-4.13,1.9-4.13,3.57-4.13Zm0,6.91c1.23,0,1.56-1.45,1.56-2.79s-.33-2.79-1.56-2.79-1.56,1.45-1.56,2.79.33,2.79,1.56,2.79Z"/><path class="cls-5" d="m316.85,325.44c0-.45,0-1-.11-1.34h1.78c0,.45.11,1,.11,1.45h0c.22-.67.89-1.56,2.01-1.56h.33v1.78c-.22,0-.33-.11-.56-.11-.78,0-1.67.45-1.67,2.01v4.46h-1.9v-6.69h0Z"/><path class="cls-5" d="m322.2,325.44c0-.56,0-1-.11-1.34h1.9c0,.45.11.89.11,1.23h0c.33-.67.89-1.34,2.01-1.34,1.34,0,1.78.89,2.01,1.23.45-.56,1-1.23,2.12-1.23,1.78,0,2.34,1.23,2.34,3.23v5.02h-1.9v-5.13c0-1-.33-1.45-1-1.45-.89,0-1.34.78-1.34,1.67v4.91h-1.9v-5.13c0-1-.33-1.45-1-1.45-.89,0-1.34.78-1.34,1.67v4.91h-1.9v-6.8Z"/><path class="cls-5" d="m334.8,324.55c.56-.22,1.34-.56,2.56-.56,2.45,0,3.12,1.23,3.12,3.23v3.57c0,.56.11,1.11.11,1.45h-1.78c-.11-.33-.11-.67-.11-1.11h0c-.45.67-1.11,1.23-2.23,1.23-1.23,0-2.45-.89-2.45-2.34,0-2.23,1.78-2.79,4.24-2.79h.45v-.33c0-.78-.45-1.56-1.45-1.56s-1.78.45-2.23.78l-.22-1.56Zm3.79,3.68h-.22c-1.67,0-2.68.33-2.68,1.56,0,.78.45,1.23,1.23,1.23,1.11,0,1.56-.89,1.56-2.34v-.45h.11Z"/><path class="cls-5" d="m342.94,322.43l1.9-.56v2.23h1.56v1.45h-1.56v4.13c0,.89.33,1.11.89,1.11.33,0,.56-.11.78-.22v1.34c-.33.11-.67.22-1.34.22-1.45,0-2.23-.67-2.23-2.34v-4.24h-1.23v-1.45h1.23v-1.67Z"/><path class="cls-5" d="m347.85,320.65h2.01v1.9h-2.01v-1.9Zm.11,3.46h1.9v8.03h-1.9v-8.03Z"/><path class="cls-5" d="m355.09,323.99c1.67,0,3.57.89,3.57,4.13s-1.9,4.13-3.57,4.13-3.57-.78-3.57-4.13,1.9-4.13,3.57-4.13Zm0,6.91c1.23,0,1.56-1.45,1.56-2.79s-.33-2.79-1.56-2.79-1.56,1.45-1.56,2.79.33,2.79,1.56,2.79Z"/><path class="cls-5" d="m360.11,325.44c0-.45,0-1-.11-1.34h1.78c0,.45.11.78.11,1.23h0c.33-.45.78-1.34,2.12-1.34,1.78,0,2.34,1.34,2.34,3.01v5.24h-1.78v-4.79c0-1.23-.33-1.78-1.11-1.78-1,0-1.34.89-1.34,1.9v4.68h-2.01v-6.8Z"/><path class="cls-5" d="m372.71,324.55c.56-.22,1.34-.56,2.56-.56,2.45,0,3.12,1.23,3.12,3.23v3.57c0,.56.11,1.11.11,1.45h-1.78c-.11-.33-.11-.67-.11-1.11h0c-.45.67-1.11,1.23-2.23,1.23-1.23,0-2.45-.89-2.45-2.34,0-2.23,1.78-2.79,4.24-2.79h.45v-.33c0-.78-.45-1.56-1.45-1.56s-1.78.45-2.23.78l-.22-1.56Zm3.79,3.68h-.22c-1.67,0-2.68.33-2.68,1.56,0,.78.45,1.23,1.23,1.23,1.11,0,1.56-.89,1.56-2.34v-.45h.11Z"/><path class="cls-5" d="m380.07,325.44c0-.45,0-1-.11-1.34h1.78c0,.45.11.78.11,1.23h0c.33-.45.78-1.34,2.12-1.34,1.78,0,2.34,1.34,2.34,3.01v5.24h-1.9v-4.79c0-1.23-.33-1.78-1.11-1.78-1,0-1.34.89-1.34,1.9v4.68h-1.9v-6.8h0Z"/><path class="cls-5" d="m394.78,320.42v10.37c0,.56,0,1.11.11,1.34h-1.78c0-.22-.11-.67-.11-1.23h0c-.33.67-.89,1.34-2.12,1.34-2.01,0-2.79-1.9-2.79-4.13,0-2.68,1-4.13,2.79-4.13,1.11,0,1.78.67,2.12,1.23h0v-4.79h1.78Zm-3.46,10.37c1.11,0,1.56-1.23,1.56-2.79s-.45-2.68-1.45-2.68c-1.11,0-1.45,1-1.45,2.68,0,1.9.22,2.79,1.34,2.79Z"/><path class="cls-5" d="m400.8,330.01c.33.22,1.23.67,2.34.67.89,0,1.67-.45,1.67-1.56,0-.78-.45-1.11-1.45-1.67l-1-.56c-1.11-.56-1.78-1.45-1.78-2.9,0-2.01,1.56-3.01,3.46-3.01,1.11,0,2.01.33,2.23.33l-.11,1.67c-.45-.22-1.11-.45-2.01-.45-1,0-1.56.56-1.56,1.23,0,.78.56,1.11,1.11,1.45l1.23.67c1.23.67,1.9,1.45,1.9,2.9,0,2.23-1.56,3.23-3.68,3.23-1.11,0-1.9-.11-2.45-.45l.11-1.56Z"/><path class="cls-5" d="m411.28,330.12h0l1.56-6.02h1.9l-2.9,9.59c-.33,1.11-1,1.9-2.34,1.9-.56,0-1-.11-1.23-.22l.11-1.45c.22.11.45.11.78.11.56,0,.78-.33,1.11-1.23l.11-.67-2.68-8.14h2.01l1.56,6.13Z"/><path class="cls-5" d="m415.52,330.24c.33.11,1.11.56,2.01.56.67,0,1.23-.22,1.23-.78,0-.33-.11-.56-.89-1l-.78-.45c-.78-.45-1.67-1-1.67-2.23,0-1.11,1.11-2.23,2.79-2.23,1,0,1.78.22,2.01.33l-.11,1.45c-.45-.22-1-.33-1.67-.33-.78,0-1.11.33-1.11.78s.33.67.89,1l1,.56c1,.67,1.45,1.11,1.45,2.01,0,1.45-1.23,2.34-3.01,2.34-1,0-1.78-.22-2.23-.45l.11-1.56Z"/><path class="cls-5" d="m422.77,322.43l1.9-.56v2.23h1.56v1.45h-1.56v4.13c0,.89.33,1.11.89,1.11.33,0,.56-.11.78-.22v1.34c-.33.11-.67.22-1.34.22-1.45,0-2.23-.67-2.23-2.34v-4.24h-1.34v-1.45h1.23v-1.67h.11Z"/><path class="cls-5" d="m433.47,331.68c-.45.22-1.23.56-2.45.56-2.56,0-3.68-1.9-3.68-4.01,0-2.45,1.23-4.24,3.34-4.24,1.78,0,3.23,1,3.23,4.35v.33h-4.68c0,1.34.56,2.23,2.01,2.23,1.23,0,1.78-.33,2.12-.67l.11,1.45Zm-1.45-4.24c0-1.45-.45-2.12-1.34-2.12-1,0-1.45,1.11-1.45,2.12h2.79Z"/><path class="cls-5" d="m435.25,325.44c0-.56,0-1-.11-1.34h1.9c0,.45.11.89.11,1.23h0c.33-.67.89-1.34,2.01-1.34,1.34,0,1.78.89,2.01,1.23.33-.56,1-1.23,2.12-1.23,1.78,0,2.34,1.23,2.34,3.23v5.02h-1.9v-5.13c0-1-.33-1.45-1-1.45-.89,0-1.34.78-1.34,1.67v4.91h-1.9v-5.13c0-1-.33-1.45-1-1.45-.89,0-1.34.78-1.34,1.67v4.91h-1.9v-6.8h0Z"/><path class="cls-5" d="m447.3,330.24c.33.11,1.11.56,2.01.56.67,0,1.23-.22,1.23-.78,0-.33-.11-.56-.89-1l-.78-.45c-.78-.45-1.67-1-1.67-2.23,0-1.11,1.11-2.23,2.79-2.23,1,0,1.78.22,2.01.33l-.11,1.45c-.45-.22-1-.33-1.67-.33-.78,0-1.11.33-1.11.78s.33.67.89,1l1,.56c1,.67,1.45,1.11,1.45,2.01,0,1.45-1.23,2.34-3.01,2.34-1,0-1.78-.22-2.23-.45l.11-1.56Z"/></g><g><path class="cls-7" d="m240.82,283.19c-.45.22-1.34.45-2.34.45-3.34,0-5.02-2.45-5.02-5.57s1.67-5.57,4.91-5.57c1.11,0,2.01.33,2.45.45l-.11,1.78c-.45-.22-1-.56-2.01-.56-1.67,0-3.12,1.11-3.12,3.9s1.45,3.9,3.12,3.9c1,0,1.56-.22,2.01-.56l.11,1.78Z"/><path class="cls-7" d="m245.61,275.27c1.67,0,3.57.89,3.57,4.13s-1.9,4.13-3.57,4.13-3.57-.78-3.57-4.13,1.9-4.13,3.57-4.13Zm0,6.91c1.23,0,1.56-1.45,1.56-2.79s-.33-2.79-1.56-2.79-1.56,1.45-1.56,2.79c0,1.34.33,2.79,1.56,2.79Z"/><path class="cls-7" d="m253.97,275.27c1.67,0,3.57.89,3.57,4.13s-1.9,4.13-3.57,4.13-3.57-.78-3.57-4.13c.11-3.23,2.01-4.13,3.57-4.13Zm0,6.91c1.23,0,1.56-1.45,1.56-2.79s-.33-2.79-1.56-2.79-1.56,1.45-1.56,2.79c0,1.34.33,2.79,1.56,2.79Z"/><path class="cls-7" d="m259.1,276.83c0-.56,0-1.11-.11-1.34h1.78c0,.22.11.67.11,1.23h0c.33-.67.89-1.34,2.12-1.34,2.01,0,2.79,1.9,2.79,4.13,0,2.68-1,4.13-2.79,4.13-1.11,0-1.78-.67-2.12-1.23h0v4.57h-1.9l.11-10.15h0Zm3.46,5.35c1.11,0,1.45-1,1.45-2.68,0-1.9-.33-2.79-1.45-2.79s-1.56,1.23-1.56,2.79.45,2.68,1.56,2.68Z"/><path class="cls-7" d="m273.37,283.07c-.45.22-1.23.56-2.45.56-2.56,0-3.68-1.9-3.68-4.01,0-2.45,1.23-4.24,3.34-4.24,1.78,0,3.23,1,3.23,4.35v.33h-4.68c0,1.34.56,2.23,2.01,2.23,1.23,0,1.78-.33,2.12-.67l.11,1.45Zm-1.45-4.35c0-1.45-.45-2.12-1.34-2.12-1,0-1.45,1.11-1.45,2.12h2.79Z"/><path class="cls-7" d="m275.27,276.72c0-.45,0-1-.11-1.34h1.78c0,.45.11,1,.11,1.45h0c.22-.67.89-1.56,2.01-1.56h.33v1.78c-.22,0-.33-.11-.56-.11-.78,0-1.67.45-1.67,2.01v4.46h-1.9v-6.69h0Z"/><path class="cls-7" d="m280.95,275.94c.56-.22,1.34-.56,2.56-.56,2.45,0,3.12,1.23,3.12,3.23v3.57c0,.56.11,1.11.11,1.45h-1.78c-.11-.33-.11-.67-.11-1.11h0c-.45.67-1.11,1.23-2.23,1.23-1.23,0-2.45-.89-2.45-2.34,0-2.23,1.78-2.79,4.24-2.79h.45v-.33c0-.78-.45-1.56-1.45-1.56s-1.78.45-2.23.78l-.22-1.56Zm3.79,3.57h-.22c-1.67,0-2.68.33-2.68,1.56,0,.78.45,1.23,1.23,1.23,1.11,0,1.56-.89,1.56-2.34l.11-.45h0Z"/><path class="cls-7" d="m289.09,273.82l1.9-.56v2.23h1.56v1.45h-1.56v4.13c0,.89.33,1.11.89,1.11.33,0,.56-.11.78-.22v1.34c-.33.11-.67.22-1.34.22-1.45,0-2.23-.67-2.23-2.34v-4.35h-1.23v-1.45h1.23v-1.56Z"/><path class="cls-7" d="m294,272.04h2.01v1.9h-2.01v-1.9Zm.11,3.34h1.9v8.03h-1.9v-8.03Z"/><path class="cls-7" d="m301.24,275.27c1.67,0,3.57.89,3.57,4.13s-1.9,4.13-3.57,4.13-3.57-.78-3.57-4.13,2.01-4.13,3.57-4.13Zm0,6.91c1.23,0,1.56-1.45,1.56-2.79s-.33-2.79-1.56-2.79-1.56,1.45-1.56,2.79c0,1.34.33,2.79,1.56,2.79Z"/><path class="cls-7" d="m306.37,276.72c0-.45,0-1-.11-1.34h1.78c0,.45.11.78.11,1.23h0c.33-.45.78-1.34,2.12-1.34,1.78,0,2.34,1.34,2.34,3.01v5.24h-1.9v-4.79c0-1.23-.33-1.78-1.11-1.78-1,0-1.34.89-1.34,1.9v4.68h-1.9v-6.8h0Z"/></g><g><path class="cls-7" d="m490.33,283.19c-.45.22-1.34.45-2.34.45-3.34,0-5.02-2.45-5.02-5.57s1.67-5.57,4.91-5.57c1.11,0,2.01.33,2.45.45l-.11,1.78c-.45-.22-1-.56-2.01-.56-1.67,0-3.12,1.11-3.12,3.9s1.45,3.9,3.12,3.9c1,0,1.56-.22,2.01-.56l.11,1.78Z"/><path class="cls-7" d="m495.12,275.27c1.67,0,3.57.89,3.57,4.13s-1.9,4.13-3.57,4.13-3.57-.78-3.57-4.13,2.01-4.13,3.57-4.13Zm0,6.91c1.23,0,1.56-1.45,1.56-2.79s-.33-2.79-1.56-2.79-1.56,1.45-1.56,2.79.33,2.79,1.56,2.79Z"/><path class="cls-7" d="m500.36,271.7h1.9v11.71h-1.9v-11.71Z"/><path class="cls-7" d="m504.49,271.7h1.9v11.71h-1.9v-11.71Z"/><path class="cls-7" d="m508.73,275.94c.56-.22,1.34-.56,2.56-.56,2.45,0,3.12,1.23,3.12,3.23v3.57c0,.56.11,1.11.11,1.45h-1.78c-.11-.33-.11-.67-.11-1.11h0c-.45.67-1.11,1.23-2.23,1.23-1.23,0-2.45-.89-2.45-2.34,0-2.23,1.78-2.79,4.24-2.79h.33v-.33c0-.78-.33-1.56-1.45-1.56-1,0-1.78.45-2.23.78l-.11-1.56Zm3.79,3.57h-.22c-1.67,0-2.68.33-2.68,1.56,0,.78.45,1.23,1.23,1.23,1.11,0,1.56-.89,1.56-2.34v-.45h.11Z"/><path class="cls-7" d="m518.09,271.7v4.79h0c.33-.67.89-1.23,2.12-1.23,1.78,0,2.79,1.56,2.79,4.13,0,2.23-.78,4.13-2.79,4.13-1.23,0-1.78-.67-2.12-1.34h0c0,.56,0,1-.11,1.23h-1.78c0-.33.11-.78.11-1.34v-10.37h1.78Zm1.56,10.48c1.11,0,1.45-.89,1.45-2.79,0-1.56-.33-2.68-1.45-2.68s-1.45,1.11-1.45,2.68c-.11,1.56.33,2.79,1.45,2.79Z"/><path class="cls-7" d="m527.79,275.27c1.67,0,3.57.89,3.57,4.13s-1.9,4.13-3.57,4.13-3.57-.78-3.57-4.13c.11-3.23,2.01-4.13,3.57-4.13Zm0,6.91c1.23,0,1.56-1.45,1.56-2.79s-.33-2.79-1.56-2.79-1.56,1.45-1.56,2.79c.11,1.34.33,2.79,1.56,2.79Z"/><path class="cls-7" d="m532.92,276.72c0-.45,0-1-.11-1.34h1.78c0,.45.11,1,.11,1.45h0c.22-.67.89-1.56,2.01-1.56h.33v1.78c-.22,0-.33-.11-.56-.11-.78,0-1.67.45-1.67,2.01v4.46h-1.9v-6.69Z"/><path class="cls-7" d="m538.61,275.94c.56-.22,1.34-.56,2.56-.56,2.45,0,3.12,1.23,3.12,3.23v3.57c0,.56.11,1.11.11,1.45h-1.78c-.11-.33-.11-.67-.11-1.11h0c-.45.67-1.11,1.23-2.23,1.23-1.23,0-2.45-.89-2.45-2.34,0-2.23,1.78-2.79,4.24-2.79h.45v-.33c0-.78-.45-1.56-1.45-1.56s-1.78.45-2.23.78l-.22-1.56Zm3.79,3.57h-.22c-1.67,0-2.68.33-2.68,1.56,0,.78.45,1.23,1.23,1.23,1.11,0,1.56-.89,1.56-2.34v-.45h.11Z"/><path class="cls-7" d="m546.74,273.82l1.9-.56v2.23h1.56v1.45h-1.56v4.13c0,.89.33,1.11.89,1.11.33,0,.56-.11.78-.22v1.34c-.33.11-.67.22-1.34.22-1.45,0-2.23-.67-2.23-2.34v-4.35h-1.23v-1.45h1.23v-1.56Z"/><path class="cls-7" d="m551.65,272.04h2.01v1.9h-2.01v-1.9Zm.11,3.34h1.9v8.03h-1.9v-8.03Z"/><path class="cls-7" d="m554.88,275.38h2.01l1.67,6.24h0l1.67-6.24h1.9l-2.45,8.03h-2.23l-2.56-8.03Z"/><path class="cls-7" d="m569.04,283.07c-.45.22-1.23.56-2.45.56-2.56,0-3.68-1.9-3.68-4.01,0-2.45,1.23-4.24,3.34-4.24,1.78,0,3.23,1,3.23,4.35v.33h-4.68c0,1.34.56,2.23,2.01,2.23,1.23,0,1.78-.33,2.12-.67l.11,1.45Zm-1.56-4.35c0-1.45-.45-2.12-1.34-2.12-1,0-1.45,1.11-1.45,2.12h2.79Z"/><path class="cls-7" d="m575.17,272.59h3.46c1.9,0,3.23.89,3.23,2.9,0,1.45-.89,2.34-2.12,2.56h0c.45.11.89.22,1.23,1.23l1.45,4.13h-2.12l-1.11-3.57c-.22-.89-.78-1.11-1.56-1.11h-.45v4.68h-2.01v-10.81h0Zm2.79,4.68c1.11,0,1.78-.56,1.78-1.67,0-1.23-.67-1.56-1.78-1.56h-.78v3.23h.78Z"/><path class="cls-7" d="m589.56,283.07c-.45.22-1.23.56-2.45.56-2.56,0-3.68-1.9-3.68-4.01,0-2.45,1.23-4.24,3.34-4.24,1.78,0,3.23,1,3.23,4.35v.33h-4.68c0,1.34.56,2.23,2.01,2.23,1.23,0,1.78-.33,2.12-.67l.11,1.45Zm-1.45-4.35c0-1.45-.45-2.12-1.34-2.12-1,0-1.45,1.11-1.45,2.12h2.79Z"/><path class="cls-7" d="m591.23,281.63c.33.11,1.11.56,2.01.56.67,0,1.23-.22,1.23-.78,0-.33-.11-.56-.89-1l-.78-.45c-.78-.45-1.67-1-1.67-2.23,0-1.11,1.11-2.23,2.79-2.23,1,0,1.78.22,2.01.33l-.11,1.45c-.45-.22-1-.33-1.67-.33-.78,0-1.11.33-1.11.78s.33.67.89,1l1,.56c1,.67,1.45,1.11,1.45,2.01,0,1.45-1.23,2.34-3.01,2.34-1,0-1.78-.22-2.23-.45l.11-1.56Z"/><path class="cls-7" d="m603.71,283.07c-.45.22-1.23.56-2.45.56-2.56,0-3.68-1.9-3.68-4.01,0-2.45,1.23-4.24,3.34-4.24,1.78,0,3.23,1,3.23,4.35v.33h-4.68c0,1.34.56,2.23,2.01,2.23,1.23,0,1.78-.33,2.12-.67l.11,1.45Zm-1.45-4.35c0-1.45-.45-2.12-1.34-2.12-1,0-1.45,1.11-1.45,2.12h2.79Z"/><path class="cls-7" d="m605.94,275.94c.56-.22,1.34-.56,2.56-.56,2.45,0,3.12,1.23,3.12,3.23v3.57c0,.56.11,1.11.11,1.45h-1.78c-.11-.33-.11-.67-.11-1.11h0c-.45.67-1.11,1.23-2.23,1.23-1.23,0-2.45-.89-2.45-2.34,0-2.23,1.78-2.79,4.24-2.79h.33v-.33c0-.78-.33-1.56-1.45-1.56-1,0-1.78.45-2.23.78l-.11-1.56Zm3.9,3.57h-.22c-1.67,0-2.68.33-2.68,1.56,0,.78.45,1.23,1.23,1.23,1.11,0,1.56-.89,1.56-2.34v-.45h.11Z"/><path class="cls-7" d="m613.41,276.72c0-.45,0-1-.11-1.34h1.78c0,.45.11,1,.11,1.45h0c.22-.67.89-1.56,2.01-1.56h.33v1.78c-.22,0-.33-.11-.56-.11-.78,0-1.67.45-1.67,2.01v4.46h-1.9v-6.69h0Z"/><path class="cls-7" d="m624.23,283.3c-.45.22-1.11.33-1.9.33-2.68,0-3.79-1.9-3.79-4.13,0-2.34,1.23-4.13,3.9-4.13.56,0,1.34.22,1.67.33l-.11,1.56c-.33-.22-.78-.33-1.34-.33-1.45,0-2.12,1-2.12,2.68,0,1.45.67,2.68,2.23,2.68.45,0,1.11-.22,1.34-.45l.11,1.45Z"/><path class="cls-7" d="m625.34,271.7h1.9v4.68h0c.33-.45.78-1.11,2.01-1.11,1.78,0,2.34,1.34,2.34,3.01v5.24h-1.9v-4.79c0-1.23-.33-1.78-1.11-1.78-1,0-1.34.89-1.34,1.9v4.68h-1.9v-11.82h0Z"/></g><g><path class="cls-5" d="m626.68,321.2v7.69c0,2.34-1.23,3.34-2.68,3.34-.45,0-1.11-.11-1.45-.22v-1.67c.22.11.45.22.89.22,1,0,1.23-.67,1.23-1.56v-7.69h2.01v-.11h0Z"/><path class="cls-5" d="m628.58,324.55c.56-.22,1.34-.56,2.56-.56,2.45,0,3.12,1.23,3.12,3.23v3.57c0,.56.11,1.11.11,1.45h-1.78c-.11-.33-.11-.67-.11-1.11h0c-.45.67-1.11,1.23-2.23,1.23-1.23,0-2.45-.89-2.45-2.34,0-2.23,1.78-2.79,4.24-2.79h.45v-.33c0-.78-.45-1.56-1.45-1.56s-1.78.45-2.23.78l-.22-1.56Zm3.79,3.68h-.22c-1.67,0-2.68.33-2.68,1.56,0,.78.45,1.23,1.23,1.23,1.11,0,1.56-.89,1.56-2.34v-.45h.11Z"/><path class="cls-5" d="m636.05,325.44c0-.56,0-1.11-.11-1.34h1.78c0,.22.11.67.11,1.23h0c.33-.67.89-1.34,2.12-1.34,2.01,0,2.79,1.9,2.79,4.13,0,2.68-1,4.13-2.79,4.13-1.11,0-1.78-.67-2.12-1.23h0v4.57h-1.9v-10.15h.11Zm3.34,5.35c1.11,0,1.45-1,1.45-2.68,0-1.9-.33-2.79-1.45-2.79s-1.56,1.23-1.56,2.79c.11,1.56.56,2.68,1.56,2.68Z"/><path class="cls-5" d="m644.74,324.55c.56-.22,1.34-.56,2.56-.56,2.45,0,3.12,1.23,3.12,3.23v3.57c0,.56.11,1.11.11,1.45h-1.78c-.11-.33-.11-.67-.11-1.11h0c-.45.67-1.11,1.23-2.23,1.23-1.23,0-2.45-.89-2.45-2.34,0-2.23,1.78-2.79,4.24-2.79h.45v-.33c0-.78-.45-1.56-1.45-1.56s-1.78.45-2.23.78l-.22-1.56Zm3.79,3.68h-.22c-1.67,0-2.68.33-2.68,1.56,0,.78.45,1.23,1.23,1.23,1.11,0,1.56-.89,1.56-2.34v-.45h.11Z"/><path class="cls-5" d="m652.1,325.44c0-.45,0-1-.11-1.34h1.78c0,.45.11.78.11,1.23h0c.33-.45.78-1.34,2.12-1.34,1.78,0,2.34,1.34,2.34,3.01v5.24h-1.9v-4.79c0-1.23-.33-1.78-1.11-1.78-1,0-1.34.89-1.34,1.9v4.68h-1.9v-6.8h0Z"/><path class="cls-5" d="m664.48,330.01c.45.22,1.23.67,2.34.67.89,0,1.67-.45,1.67-1.56,0-.78-.45-1.11-1.45-1.67l-1-.56c-1.11-.56-1.78-1.45-1.78-2.9,0-2.01,1.56-3.01,3.46-3.01,1.11,0,2.01.33,2.23.45l-.11,1.67c-.45-.22-1.11-.45-2.01-.45-1,0-1.56.56-1.56,1.23,0,.78.56,1.11,1.11,1.45l1.23.67c1.23.67,1.9,1.45,1.9,2.9,0,2.23-1.56,3.23-3.68,3.23-1.11,0-1.9-.11-2.45-.45l.11-1.67Z"/><path class="cls-5" d="m677.63,331.91c-.45.22-1.11.33-1.9.33-2.68,0-3.79-1.9-3.79-4.13,0-2.34,1.23-4.13,3.9-4.13.56,0,1.34.22,1.67.33l-.11,1.56c-.33-.22-.78-.45-1.34-.45-1.45,0-2.12,1-2.12,2.68,0,1.45.67,2.68,2.23,2.68.45,0,1.11-.22,1.34-.33l.11,1.45Z"/><path class="cls-5" d="m678.97,320.65h2.01v1.9h-2.01v-1.9Zm0,3.46h1.9v8.03h-1.9v-8.03Z"/><path class="cls-5" d="m688.67,331.68c-.45.22-1.23.56-2.45.56-2.56,0-3.68-1.9-3.68-4.01,0-2.45,1.23-4.24,3.34-4.24,1.78,0,3.23,1,3.23,4.35v.33h-4.68c0,1.34.56,2.23,2.01,2.23,1.23,0,1.78-.33,2.12-.67l.11,1.45Zm-1.45-4.24c0-1.45-.45-2.12-1.34-2.12-1,0-1.45,1.11-1.45,2.12h2.79Z"/><path class="cls-5" d="m690.68,325.44c0-.45,0-1-.11-1.34h1.78c0,.45.11.78.11,1.23h0c.33-.45.78-1.34,2.12-1.34,1.78,0,2.34,1.34,2.34,3.01v5.24h-1.9v-4.79c0-1.23-.33-1.78-1.11-1.78-1,0-1.34.89-1.34,1.9v4.68h-1.9v-6.8h0Z"/><path class="cls-5" d="m704.17,331.91c-.45.22-1.11.33-1.9.33-2.68,0-3.79-1.9-3.79-4.13,0-2.34,1.23-4.13,3.9-4.13.56,0,1.34.22,1.67.33l-.11,1.56c-.33-.22-.78-.45-1.34-.45-1.45,0-2.12,1-2.12,2.68,0,1.45.67,2.68,2.23,2.68.45,0,1.11-.22,1.34-.33l.11,1.45Z"/><path class="cls-5" d="m711.3,331.68c-.45.22-1.23.56-2.45.56-2.56,0-3.68-1.9-3.68-4.01,0-2.45,1.23-4.24,3.34-4.24,1.78,0,3.23,1,3.23,4.35v.33h-4.68c0,1.34.56,2.23,2.01,2.23,1.23,0,1.78-.33,2.12-.67l.11,1.45Zm-1.45-4.24c0-1.45-.45-2.12-1.34-2.12-1,0-1.45,1.11-1.45,2.12h2.79Z"/><path class="cls-5" d="m717.66,324.55c.56-.22,1.34-.56,2.56-.56,2.45,0,3.12,1.23,3.12,3.23v3.57c0,.56.11,1.11.11,1.45h-1.78c-.11-.33-.11-.67-.11-1.11h0c-.45.67-1.11,1.23-2.23,1.23-1.23,0-2.45-.89-2.45-2.34,0-2.23,1.78-2.79,4.24-2.79h.33v-.33c0-.78-.33-1.56-1.45-1.56-1,0-1.78.45-2.23.78l-.11-1.56Zm3.79,3.68h-.22c-1.67,0-2.68.33-2.68,1.56,0,.78.45,1.23,1.23,1.23,1.11,0,1.56-.89,1.56-2.34v-.45h.11Z"/><path class="cls-5" d="m725.02,325.44c0-.45,0-1-.11-1.34h1.78c0,.45.11.78.11,1.23h0c.33-.45.78-1.34,2.12-1.34,1.78,0,2.34,1.34,2.34,3.01v5.24h-1.9v-4.79c0-1.23-.33-1.78-1.11-1.78-1,0-1.34.89-1.34,1.9v4.68h-1.9v-6.8h0Z"/><path class="cls-5" d="m739.73,320.42v10.37c0,.56,0,1.11.11,1.34h-1.78c0-.22-.11-.67-.11-1.23h0c-.33.67-.89,1.34-2.12,1.34-2.01,0-2.79-1.9-2.79-4.13,0-2.68,1-4.13,2.79-4.13,1.11,0,1.78.67,2.12,1.23h0v-4.79h1.78Zm-3.46,10.37c1.11,0,1.56-1.23,1.56-2.79s-.45-2.68-1.45-2.68c-1.11,0-1.45,1-1.45,2.68-.11,1.9.22,2.79,1.34,2.79Z"/><path class="cls-5" d="m624.12,338.49h-2.45v-1.56h6.8v1.56h-2.45v9.25h-2.01v-9.25h.11Z"/><path class="cls-5" d="m634.37,347.29c-.45.22-1.23.56-2.45.56-2.56,0-3.68-1.9-3.68-4.01,0-2.45,1.23-4.24,3.34-4.24,1.78,0,3.23,1,3.23,4.35v.33h-4.68c0,1.34.56,2.23,2.01,2.23,1.23,0,1.78-.33,2.12-.67l.11,1.45Zm-1.56-4.24c0-1.45-.45-2.12-1.34-2.12-1,0-1.45,1.11-1.45,2.12h2.79Z"/><path class="cls-5" d="m641.73,347.52c-.45.22-1.11.33-1.9.33-2.68,0-3.79-1.9-3.79-4.13,0-2.34,1.23-4.13,3.9-4.13.56,0,1.34.22,1.67.33l-.11,1.56c-.33-.22-.78-.45-1.34-.45-1.45,0-2.12,1-2.12,2.68,0,1.45.67,2.68,2.23,2.68.45,0,1.11-.22,1.34-.33l.11,1.45Z"/><path class="cls-5" d="m642.85,336.03h1.9v4.68h0c.33-.45.78-1.11,2.01-1.11,1.78,0,2.34,1.34,2.34,3.01v5.24h-1.9v-4.79c0-1.23-.33-1.78-1.11-1.78-1,0-1.34.89-1.34,1.9v4.68h-1.9v-11.82h0Z"/><path class="cls-5" d="m650.99,341.05c0-.45,0-1-.11-1.34h1.78c0,.45.11.78.11,1.23h0c.33-.45.78-1.34,2.12-1.34,1.78,0,2.34,1.34,2.34,3.01v5.24h-1.9v-4.79c0-1.23-.33-1.78-1.11-1.78-1,0-1.34.89-1.34,1.9v4.68h-1.9v-6.8h0Z"/><path class="cls-5" d="m662.36,339.6c1.67,0,3.57.89,3.57,4.13s-1.9,4.13-3.57,4.13-3.57-.78-3.57-4.13c.11-3.34,2.01-4.13,3.57-4.13Zm0,6.91c1.23,0,1.56-1.45,1.56-2.79s-.33-2.79-1.56-2.79-1.56,1.45-1.56,2.79.33,2.79,1.56,2.79Z"/><path class="cls-5" d="m667.6,336.03h1.9v11.71h-1.9v-11.71Z"/><path class="cls-5" d="m674.85,339.6c1.67,0,3.57.89,3.57,4.13s-1.9,4.13-3.57,4.13-3.57-.78-3.57-4.13,1.9-4.13,3.57-4.13Zm0,6.91c1.23,0,1.56-1.45,1.56-2.79s-.33-2.79-1.56-2.79-1.56,1.45-1.56,2.79.33,2.79,1.56,2.79Z"/><path class="cls-5" d="m680.2,348.97c.45.22,1.34.67,2.34.67,1.78,0,2.12-1.23,2.12-2.56v-.78h0c-.33.67-.89,1.34-2.12,1.34-1.11,0-2.79-.78-2.79-4.01,0-2.23.78-4.13,2.9-4.13,1.11,0,1.67.67,2.12,1.34h.11c0-.45,0-.78.11-1.23h1.78c0,.45-.11.89-.11,1.23v5.91c0,2.56-.78,4.35-3.68,4.35-1.23,0-2.34-.33-2.79-.45v-1.67Zm2.79-2.68c1.23,0,1.67-.89,1.67-2.68,0-1.67-.67-2.56-1.56-2.56-1,0-1.45,1-1.45,2.56,0,1.9.67,2.68,1.34,2.68Z"/><path class="cls-5" d="m691.12,345.73h0l1.56-6.02h1.9l-2.9,9.59c-.33,1.11-1,1.9-2.34,1.9-.56,0-1-.11-1.23-.22l.11-1.45c.22.11.45.11.78.11.56,0,.78-.33,1.11-1.11l.11-.67-2.68-8.14h2.01l1.56,6.02Z"/><path class="cls-5" d="m704.5,345.06h-3.79l-.78,2.68h-2.01l3.68-10.93h2.23l3.57,10.93h-2.01l-.89-2.68Zm-.45-1.45l-1.34-5.13h0l-1.45,5.13h2.79Z"/><path class="cls-5" d="m708.51,348.97c.45.22,1.34.67,2.34.67,1.78,0,2.12-1.23,2.12-2.56v-.78h0c-.33.67-.89,1.34-2.12,1.34-1.11,0-2.79-.78-2.79-4.01,0-2.23.78-4.13,2.9-4.13,1.11,0,1.67.67,2.12,1.34h.11c0-.45,0-.78.11-1.23h1.78c0,.45-.11.89-.11,1.23v5.91c0,2.56-.78,4.35-3.68,4.35-1.23,0-2.34-.33-2.79-.45v-1.67Zm2.79-2.68c1.23,0,1.67-.89,1.67-2.68,0-1.67-.67-2.56-1.56-2.56-1,0-1.45,1-1.45,2.56,0,1.9.67,2.68,1.34,2.68Z"/><path class="cls-5" d="m722.56,347.29c-.45.22-1.23.56-2.45.56-2.56,0-3.68-1.9-3.68-4.01,0-2.45,1.23-4.24,3.34-4.24,1.78,0,3.23,1,3.23,4.35v.33h-4.68c0,1.34.56,2.23,2.01,2.23,1.23,0,1.78-.33,2.12-.67l.11,1.45Zm-1.56-4.24c0-1.45-.45-2.12-1.34-2.12-1,0-1.45,1.11-1.45,2.12h2.79Z"/><path class="cls-5" d="m724.46,341.05c0-.45,0-1-.11-1.34h1.78c0,.45.11.78.11,1.23h0c.33-.45.78-1.34,2.12-1.34,1.78,0,2.34,1.34,2.34,3.01v5.24h-1.9v-4.79c0-1.23-.33-1.78-1.11-1.78-1,0-1.34.89-1.34,1.9v4.68h-1.9v-6.8h0Z"/><path class="cls-5" d="m737.95,347.52c-.45.22-1.11.33-1.9.33-2.68,0-3.79-1.9-3.79-4.13,0-2.34,1.23-4.13,3.9-4.13.56,0,1.34.22,1.67.33l-.11,1.56c-.33-.22-.78-.45-1.34-.45-1.45,0-2.12,1-2.12,2.68,0,1.45.67,2.68,2.23,2.68.45,0,1.11-.22,1.34-.33l.11,1.45Z"/><path class="cls-5" d="m741.96,345.73h0l1.56-6.02h1.9l-2.9,9.59c-.33,1.11-1,1.9-2.34,1.9-.56,0-1-.11-1.23-.22l.11-1.45c.22.11.45.11.78.11.56,0,.78-.33,1.11-1.11l.11-.67-2.68-8.14h2.01l1.56,6.02Z"/></g><path class="cls-3" d="m339.26,76.48v7.69c0,2.34-1.23,3.34-2.68,3.34-.45,0-1.11-.11-1.45-.22v-1.67c.22.11.45.22.89.22,1,0,1.23-.67,1.23-1.56v-7.69l2.01-.11h0Z"/><path class="cls-3" d="m344.17,79.16c1.67,0,3.57.89,3.57,4.13s-1.9,4.13-3.57,4.13-3.57-.78-3.57-4.13,2.01-4.13,3.57-4.13Zm0,6.91c1.23,0,1.56-1.45,1.56-2.79s-.33-2.79-1.56-2.79-1.56,1.45-1.56,2.79c0,1.34.33,2.79,1.56,2.79Z"/><path class="cls-3" d="m349.41,75.81h2.01v1.9h-2.01v-1.9Zm0,3.46h1.9v8.03h-1.9v-8.03Z"/><path class="cls-3" d="m353.31,80.61c0-.45,0-1-.11-1.34h1.78c0,.45.11.78.11,1.23h0c.33-.45.78-1.34,2.12-1.34,1.78,0,2.34,1.34,2.34,3.01v5.24h-1.9v-4.91c0-1.23-.33-1.78-1.11-1.78-1,0-1.34.89-1.34,1.9v4.68h-1.9v-6.69h0Z"/><path class="cls-3" d="m362.12,77.6l1.9-.56v2.23h1.56v1.45h-1.56v4.13c0,.89.33,1.11.89,1.11.33,0,.56-.11.78-.22v1.34c-.33.11-.67.22-1.34.22-1.45,0-2.23-.67-2.23-2.34v-4.35h-1.23v-1.45h1.23v-1.56Z"/><path class="cls-3" d="m371.15,85.18c.45.22,1.23.67,2.34.67.89,0,1.67-.45,1.67-1.56,0-.78-.45-1.11-1.45-1.67l-1-.56c-1.11-.56-1.78-1.45-1.78-2.9,0-2.01,1.56-3.01,3.46-3.01,1.11,0,2.01.33,2.23.45l-.11,1.67c-.45-.22-1.11-.45-2.01-.45-1,0-1.56.56-1.56,1.23,0,.78.56,1.11,1.11,1.45l1.23.67c1.23.67,1.9,1.45,1.9,2.9,0,2.23-1.56,3.23-3.68,3.23-1.11,0-1.9-.11-2.45-.45l.11-1.67Z"/><path class="cls-3" d="m385.08,85.96c0,.45,0,1,.11,1.34h-1.78c0-.45-.11-.78-.11-1.23h0c-.33.56-.89,1.34-2.12,1.34-1.78,0-2.34-1.34-2.34-3.01v-5.24h1.9v4.79c0,1.23.33,1.78,1.11,1.78,1,0,1.34-.89,1.34-2.01v-4.57h1.9v6.8h0Z"/><path class="cls-3" d="m386.87,80.61c0-.56,0-1.11-.11-1.34h1.78c0,.22.11.67.11,1.23h0c.33-.67.89-1.34,2.12-1.34,2.01,0,2.79,1.9,2.79,4.13,0,2.68-1,4.13-2.79,4.13-1.11,0-1.78-.67-2.12-1.23h0v4.57h-1.78v-10.15Zm3.46,5.46c1.11,0,1.45-1,1.45-2.68,0-1.9-.33-2.79-1.45-2.79s-1.56,1.23-1.56,2.79c.11,1.45.56,2.68,1.56,2.68Z"/><path class="cls-3" d="m395.23,80.61c0-.56,0-1.11-.11-1.34h1.78c0,.22.11.67.11,1.23h0c.33-.67.89-1.34,2.12-1.34,2.01,0,2.79,1.9,2.79,4.13,0,2.68-1,4.13-2.79,4.13-1.11,0-1.78-.67-2.12-1.23h0v4.57h-1.9v-10.15h.11Zm3.46,5.46c1.11,0,1.45-1,1.45-2.68,0-1.9-.33-2.79-1.45-2.79s-1.56,1.23-1.56,2.79c.11,1.45.56,2.68,1.56,2.68Z"/><path class="cls-3" d="m406.94,79.16c1.67,0,3.57.89,3.57,4.13s-1.9,4.13-3.57,4.13-3.57-.78-3.57-4.13,2.01-4.13,3.57-4.13Zm0,6.91c1.23,0,1.56-1.45,1.56-2.79s-.33-2.79-1.56-2.79-1.56,1.45-1.56,2.79.33,2.79,1.56,2.79Z"/><path class="cls-3" d="m412.06,80.61c0-.45,0-1-.11-1.34h1.78c0,.45.11,1,.11,1.45h0c.22-.67.89-1.56,2.01-1.56h.33v1.78c-.22,0-.33-.11-.56-.11-.78,0-1.67.45-1.67,2.01v4.46h-1.9v-6.69h0Z"/><path class="cls-3" d="m418.2,77.6l1.9-.56v2.23h1.56v1.45h-1.56v4.13c0,.89.33,1.11.89,1.11.33,0,.56-.11.78-.22v1.34c-.33.11-.67.22-1.34.22-1.45,0-2.23-.67-2.23-2.34v-4.35h-1.23v-1.45h1.23v-1.56Z"/><path class="cls-3" d="m440.94,87.07c-.45.22-1.34.45-2.34.45-3.34,0-5.02-2.45-5.02-5.57s1.67-5.57,4.91-5.57c1.11,0,2.01.33,2.45.45l-.11,1.78c-.45-.22-1-.56-2.01-.56-1.67,0-3.12,1.11-3.12,3.9s1.45,3.9,3.12,3.9c1,0,1.56-.22,2.01-.56l.11,1.78Z"/><path class="cls-3" d="m448.3,86.96c-.45.22-1.23.56-2.45.56-2.56,0-3.68-1.9-3.68-4.01,0-2.45,1.23-4.24,3.34-4.24,1.78,0,3.23,1,3.23,4.35v.33h-4.68c0,1.34.56,2.23,2.01,2.23,1.23,0,1.78-.33,2.12-.67l.11,1.45Zm-1.45-4.35c0-1.45-.45-2.12-1.34-2.12-1,0-1.45,1.11-1.45,2.12h2.79Z"/><path class="cls-3" d="m450.19,80.61c0-.45,0-1-.11-1.34h1.78c0,.45.11.78.11,1.23h0c.33-.45.78-1.34,2.12-1.34,1.78,0,2.34,1.34,2.34,3.01v5.24h-1.9v-4.91c0-1.23-.33-1.78-1.11-1.78-1,0-1.34.89-1.34,1.9v4.68h-1.9v-6.69h0Z"/><path class="cls-3" d="m459,77.6l1.9-.56v2.23h1.56v1.45h-1.56v4.13c0,.89.33,1.11.89,1.11.33,0,.56-.11.78-.22v1.34c-.33.11-.67.22-1.34.22-1.45,0-2.23-.67-2.23-2.34v-4.35h-1.23v-1.45h1.23v-1.56Z"/><path class="cls-3" d="m469.7,86.96c-.45.22-1.23.56-2.45.56-2.56,0-3.68-1.9-3.68-4.01,0-2.45,1.23-4.24,3.34-4.24,1.78,0,3.23,1,3.23,4.35v.33h-4.68c0,1.34.56,2.23,2.01,2.23,1.23,0,1.78-.33,2.12-.67l.11,1.45Zm-1.45-4.35c0-1.45-.45-2.12-1.34-2.12-1,0-1.45,1.11-1.45,2.12h2.79Z"/><path class="cls-3" d="m471.71,80.61c0-.45,0-1-.11-1.34h1.78c0,.45.11,1,.11,1.45h0c.22-.67.89-1.56,2.01-1.56h.33v1.78c-.22,0-.33-.11-.56-.11-.78,0-1.67.45-1.67,2.01v4.46h-1.9v-6.69h0Z"/><path class="cls-3" d="m322.2,96.33h-1.34v-1.45h1.34v-1.67c0-1.11.56-2.23,2.34-2.23.56,0,1,.11,1.34.22l-.11,1.45c-.22-.11-.45-.11-.78-.11-.56,0-.89.45-.89,1v1.34h1.45v1.45h-1.45v6.58h-1.9v-6.58Z"/><path class="cls-3" d="m330.12,94.77c1.67,0,3.57.89,3.57,4.13s-1.9,4.13-3.57,4.13-3.57-.78-3.57-4.13,1.9-4.13,3.57-4.13Zm0,6.91c1.23,0,1.56-1.45,1.56-2.79s-.33-2.79-1.56-2.79-1.56,1.45-1.56,2.79.33,2.79,1.56,2.79Z"/><path class="cls-3" d="m335.25,96.22c0-.45,0-1-.11-1.34h1.78c0,.45.11,1,.11,1.45h0c.22-.67.89-1.56,2.01-1.56h.33v1.78c-.22,0-.33-.11-.56-.11-.78,0-1.67.45-1.67,2.01v4.46h-1.9v-6.69h0Z"/><path class="cls-3" d="m344.95,92.09h2.79c3.46,0,5.24,1.9,5.24,5.46s-2.23,5.46-5.24,5.46h-2.79v-10.93Zm2.01,9.37h.67c2.23,0,3.23-1.56,3.23-3.9s-1-3.9-3.23-3.9h-.67v7.8Z"/><path class="cls-3" d="m354.98,95.32c.56-.22,1.34-.56,2.56-.56,2.45,0,3.12,1.23,3.12,3.23v3.57c0,.56.11,1.11.11,1.45h-1.78c-.11-.33-.11-.67-.11-1.11h0c-.45.67-1.11,1.23-2.23,1.23-1.23,0-2.45-.89-2.45-2.34,0-2.23,1.78-2.79,4.24-2.79h.45v-.33c0-.78-.45-1.56-1.45-1.56s-1.78.45-2.23.78l-.22-1.56Zm3.79,3.68h-.22c-1.67,0-2.68.33-2.68,1.56,0,.78.45,1.23,1.23,1.23,1.11,0,1.56-.89,1.56-2.34v-.45h.11Z"/><path class="cls-3" d="m363.12,93.21l1.9-.56v2.23h1.56v1.45h-1.56v4.13c0,.89.33,1.11.89,1.11.33,0,.56-.11.78-.22v1.34c-.33.11-.67.22-1.34.22-1.45,0-2.23-.67-2.23-2.34v-4.35h-1.23v-1.45h1.23v-1.56Z"/><path class="cls-3" d="m368.25,95.32c.56-.22,1.34-.56,2.56-.56,2.45,0,3.12,1.23,3.12,3.23v3.57c0,.56.11,1.11.11,1.45h-1.78c-.11-.33-.11-.67-.11-1.11h0c-.45.67-1.11,1.23-2.23,1.23-1.23,0-2.45-.89-2.45-2.34,0-2.23,1.78-2.79,4.24-2.79h.45v-.33c0-.78-.45-1.56-1.45-1.56s-1.78.45-2.23.78l-.22-1.56Zm3.79,3.68h-.22c-1.67,0-2.68.33-2.68,1.56,0,.78.45,1.23,1.23,1.23,1.11,0,1.56-.89,1.56-2.34v-.45h.11Z"/><path class="cls-3" d="m379.84,100.79c.45.22,1.23.67,2.34.67.89,0,1.67-.45,1.67-1.56,0-.78-.45-1.11-1.45-1.67l-1-.56c-1.11-.56-1.78-1.45-1.78-2.9,0-2.01,1.56-3.01,3.46-3.01,1.11,0,2.01.33,2.23.45l-.11,1.67c-.45-.22-1.11-.45-2.01-.45-1,0-1.56.56-1.56,1.23,0,.78.56,1.11,1.11,1.45l1.23.67c1.23.67,1.9,1.45,1.9,2.9,0,2.23-1.56,3.23-3.68,3.23-1.11,0-1.9-.11-2.45-.45l.11-1.67Z"/><path class="cls-3" d="m393,102.68c-.45.22-1.11.33-1.9.33-2.68,0-3.79-1.9-3.79-4.13,0-2.34,1.23-4.13,3.9-4.13.56,0,1.34.22,1.67.33l-.11,1.56c-.33-.22-.78-.45-1.34-.45-1.45,0-2.12,1-2.12,2.68,0,1.45.67,2.68,2.23,2.68.45,0,1.11-.22,1.34-.45l.11,1.56Z"/><path class="cls-3" d="m394.34,91.42h2.01v1.9h-2.01v-1.9Zm0,3.46h1.9v8.03h-1.9v-8.03Z"/><path class="cls-3" d="m404.15,102.57c-.45.22-1.23.56-2.45.56-2.56,0-3.68-1.9-3.68-4.01,0-2.45,1.23-4.24,3.34-4.24,1.78,0,3.23,1,3.23,4.35v.33h-4.68c0,1.34.56,2.23,2.01,2.23,1.23,0,1.78-.33,2.12-.67l.11,1.45Zm-1.45-4.35c0-1.45-.45-2.12-1.34-2.12-1,0-1.45,1.11-1.45,2.12h2.79Z"/><path class="cls-3" d="m406.04,96.22c0-.45,0-1-.11-1.34h1.78c0,.45.11.78.11,1.23h0c.33-.45.78-1.34,2.12-1.34,1.78,0,2.34,1.34,2.34,3.01v5.24h-1.9v-4.91c0-1.23-.33-1.78-1.11-1.78-1,0-1.34.89-1.34,1.9v4.68h-1.9v-6.69h0Z"/><path class="cls-3" d="m419.65,102.68c-.45.22-1.11.33-1.9.33-2.68,0-3.79-1.9-3.79-4.13,0-2.34,1.23-4.13,3.9-4.13.56,0,1.34.22,1.67.33l-.11,1.56c-.33-.22-.78-.45-1.34-.45-1.45,0-2.12,1-2.12,2.68,0,1.45.67,2.68,2.23,2.68.45,0,1.11-.22,1.34-.45l.11,1.56Z"/><path class="cls-3" d="m426.67,102.57c-.45.22-1.23.56-2.45.56-2.56,0-3.68-1.9-3.68-4.01,0-2.45,1.23-4.24,3.34-4.24,1.78,0,3.23,1,3.23,4.35v.33h-4.68c0,1.34.56,2.23,2.01,2.23,1.23,0,1.78-.33,2.12-.67l.11,1.45Zm-1.45-4.35c0-1.45-.45-2.12-1.34-2.12-1,0-1.45,1.11-1.45,2.12h2.79Z"/><path class="cls-3" d="m432.8,92.09h3.46c1.9,0,3.23.89,3.23,2.9,0,1.45-.89,2.34-2.12,2.56h0c.45.11.89.22,1.23,1.23l1.45,4.13h-2.12l-1.11-3.57c-.22-.89-.78-1.11-1.56-1.11h-.45v4.68h-2.01v-10.81Zm2.9,4.68c1.11,0,1.78-.56,1.78-1.67,0-1.23-.67-1.56-1.78-1.56h-.89v3.23h.89Z"/><path class="cls-3" d="m447.18,102.57c-.45.22-1.23.56-2.45.56-2.56,0-3.68-1.9-3.68-4.01,0-2.45,1.23-4.24,3.34-4.24,1.78,0,3.23,1,3.23,4.35v.33h-4.68c0,1.34.56,2.23,2.01,2.23,1.23,0,1.78-.33,2.12-.67l.11,1.45Zm-1.45-4.35c0-1.45-.45-2.12-1.34-2.12-1,0-1.45,1.11-1.45,2.12h2.79Z"/><path class="cls-3" d="m448.97,101.01c.33.11,1.11.56,2.01.56.67,0,1.23-.22,1.23-.78,0-.33-.11-.56-.89-1l-.78-.45c-.78-.45-1.67-1-1.67-2.23,0-1.11,1.11-2.23,2.79-2.23,1,0,1.78.22,2.01.33l-.11,1.45c-.45-.22-1-.33-1.67-.33-.78,0-1.11.33-1.11.78s.33.67.89,1l1,.56c1,.67,1.45,1.11,1.45,2.01,0,1.45-1.23,2.34-3.01,2.34-1,0-1.78-.22-2.23-.45l.11-1.56Z"/><path class="cls-3" d="m461.34,102.57c-.45.22-1.23.56-2.45.56-2.56,0-3.68-1.9-3.68-4.01,0-2.45,1.23-4.24,3.34-4.24,1.78,0,3.23,1,3.23,4.35v.33h-4.68c0,1.34.56,2.23,2.01,2.23,1.23,0,1.78-.33,2.12-.67l.11,1.45Zm-1.45-4.35c0-1.45-.45-2.12-1.34-2.12-1,0-1.45,1.11-1.45,2.12h2.79Z"/><path class="cls-3" d="m463.68,95.32c.56-.22,1.34-.56,2.56-.56,2.45,0,3.12,1.23,3.12,3.23v3.57c0,.56.11,1.11.11,1.45h-1.78c-.11-.33-.11-.67-.11-1.11h0c-.45.67-1.11,1.23-2.23,1.23-1.23,0-2.45-.89-2.45-2.34,0-2.23,1.78-2.79,4.24-2.79h.33v-.33c0-.78-.33-1.56-1.45-1.56-1,0-1.78.45-2.23.78l-.11-1.56Zm3.79,3.68h-.22c-1.67,0-2.68.33-2.68,1.56,0,.78.45,1.23,1.23,1.23,1.11,0,1.56-.89,1.56-2.34v-.45h.11Z"/><path class="cls-3" d="m471.15,96.22c0-.45,0-1-.11-1.34h1.78c0,.45.11,1,.11,1.45h0c.22-.67.89-1.56,2.01-1.56h.33v1.78c-.22,0-.33-.11-.56-.11-.78,0-1.67.45-1.67,2.01v4.46h-1.9v-6.69h0Z"/><path class="cls-3" d="m481.86,102.68c-.45.22-1.11.33-1.9.33-2.68,0-3.79-1.9-3.79-4.13,0-2.34,1.23-4.13,3.9-4.13.56,0,1.34.22,1.67.33l-.11,1.56c-.33-.22-.78-.45-1.34-.45-1.45,0-2.12,1-2.12,2.68,0,1.45.67,2.68,2.23,2.68.45,0,1.11-.22,1.34-.45l.11,1.56Z"/><path class="cls-3" d="m483.08,91.2h1.9v4.68h0c.33-.45.78-1.11,2.01-1.11,1.78,0,2.34,1.34,2.34,3.01v5.24h-1.9v-4.91c0-1.23-.33-1.78-1.11-1.78-1,0-1.34.89-1.34,1.9v4.68h-1.9v-11.71h0Z"/><g><path class="cls-3" d="m360.67,179.05c.56-.22,1.34-.56,2.56-.56,2.45,0,3.12,1.23,3.12,3.23v3.57c0,.56.11,1.11.11,1.45h-1.78c-.11-.33-.11-.67-.11-1.11h0c-.45.67-1.11,1.23-2.23,1.23-1.23,0-2.45-.89-2.45-2.34,0-2.23,1.78-2.79,4.24-2.79h.45v-.33c0-.78-.45-1.56-1.45-1.56s-1.78.45-2.23.78l-.22-1.56Zm3.79,3.68h-.22c-1.67,0-2.68.33-2.68,1.56,0,.78.45,1.23,1.23,1.23,1.11,0,1.56-.89,1.56-2.34v-.45h.11Z"/><path class="cls-3" d="m368.81,176.94l1.9-.56v2.23h1.56v1.45h-1.56v4.13c0,.89.33,1.11.89,1.11.33,0,.56-.11.78-.22v1.34c-.33.11-.67.22-1.34.22-1.45,0-2.23-.67-2.23-2.34v-4.35h-1.23v-1.45h1.23v-1.56Z"/><path class="cls-3" d="m373.94,179.05c.56-.22,1.34-.56,2.56-.56,2.45,0,3.12,1.23,3.12,3.23v3.57c0,.56.11,1.11.11,1.45h-1.78c-.11-.33-.11-.67-.11-1.11h0c-.45.67-1.11,1.23-2.23,1.23-1.23,0-2.45-.89-2.45-2.34,0-2.23,1.78-2.79,4.24-2.79h.45v-.33c0-.78-.45-1.56-1.45-1.56s-1.78.45-2.23.78l-.22-1.56Zm3.9,3.68h-.22c-1.67,0-2.68.33-2.68,1.56,0,.78.45,1.23,1.23,1.23,1.11,0,1.56-.89,1.56-2.34v-.45h.11Z"/><path class="cls-3" d="m383.41,174.93v4.79h0c.33-.67.89-1.23,2.12-1.23,1.78,0,2.79,1.56,2.79,4.13,0,2.23-.78,4.13-2.79,4.13-1.23,0-1.78-.67-2.12-1.34h0c0,.56,0,1-.11,1.23h-1.78c0-.33.11-.78.11-1.34v-10.37h1.78Zm1.45,10.48c1.11,0,1.45-.89,1.45-2.79,0-1.56-.33-2.68-1.45-2.68s-1.45,1.11-1.45,2.68c0,1.56.33,2.79,1.45,2.79Z"/><path class="cls-3" d="m390.21,179.05c.56-.22,1.34-.56,2.56-.56,2.45,0,3.12,1.23,3.12,3.23v3.57c0,.56.11,1.11.11,1.45h-1.78c-.11-.33-.11-.67-.11-1.11h0c-.45.67-1.11,1.23-2.23,1.23-1.23,0-2.45-.89-2.45-2.34,0-2.23,1.78-2.79,4.24-2.79h.33v-.33c0-.78-.33-1.56-1.45-1.56-1,0-1.78.45-2.23.78l-.11-1.56Zm3.79,3.68h-.22c-1.67,0-2.68.33-2.68,1.56,0,.78.45,1.23,1.23,1.23,1.11,0,1.56-.89,1.56-2.34v-.45h.11Z"/><path class="cls-3" d="m397.35,184.74c.33.11,1.11.56,2.01.56.67,0,1.23-.22,1.23-.78,0-.33-.11-.56-.89-1l-.78-.45c-.78-.45-1.67-1-1.67-2.23,0-1.11,1.11-2.23,2.79-2.23,1,0,1.78.22,2.01.33l-.11,1.45c-.45-.22-1-.33-1.67-.33-.78,0-1.11.33-1.11.78s.33.67.89,1l1,.56c1,.67,1.45,1.11,1.45,2.01,0,1.45-1.23,2.34-3.01,2.34-1,0-1.78-.22-2.23-.45l.11-1.56Z"/><path class="cls-3" d="m409.83,186.3c-.45.22-1.23.56-2.45.56-2.56,0-3.68-1.9-3.68-4.01,0-2.45,1.23-4.24,3.34-4.24,1.78,0,3.23,1,3.23,4.35v.33h-4.68c0,1.34.56,2.23,2.01,2.23,1.23,0,1.78-.33,2.12-.67l.11,1.45Zm-1.45-4.35c0-1.45-.45-2.12-1.34-2.12-1,0-1.45,1.11-1.45,2.12h2.79Z"/><path class="cls-3" d="m422.99,186.41c-.45.22-1.34.45-2.34.45-3.34,0-5.02-2.45-5.02-5.57s1.67-5.57,4.91-5.57c1.11,0,2.01.33,2.45.45l-.11,1.78c-.45-.22-1-.56-2.01-.56-1.67,0-3.12,1.11-3.12,3.9s1.45,3.9,3.12,3.9c1,0,1.56-.22,2.01-.56l.11,1.78Z"/><path class="cls-3" d="m430.35,186.3c-.45.22-1.23.56-2.45.56-2.56,0-3.68-1.9-3.68-4.01,0-2.45,1.23-4.24,3.34-4.24,1.78,0,3.23,1,3.23,4.35v.33h-4.68c0,1.34.56,2.23,2.01,2.23,1.23,0,1.78-.33,2.12-.67l.11,1.45Zm-1.45-4.35c0-1.45-.45-2.12-1.34-2.12-1,0-1.45,1.11-1.45,2.12h2.79Z"/><path class="cls-3" d="m432.24,179.95c0-.45,0-1-.11-1.34h1.78c0,.45.11.78.11,1.23h0c.33-.45.78-1.34,2.12-1.34,1.78,0,2.34,1.34,2.34,3.01v5.24h-1.9v-4.79c0-1.23-.33-1.78-1.11-1.78-1,0-1.34.89-1.34,1.9v4.68h-1.9v-6.8h0Z"/><path class="cls-3" d="m441.05,176.94l1.9-.56v2.23h1.56v1.45h-1.56v4.13c0,.89.33,1.11.89,1.11.33,0,.56-.11.78-.22v1.34c-.33.11-.67.22-1.34.22-1.45,0-2.23-.67-2.23-2.34v-4.35h-1.23v-1.45h1.23v-1.56Z"/><path class="cls-3" d="m451.75,186.3c-.45.22-1.23.56-2.45.56-2.56,0-3.68-1.9-3.68-4.01,0-2.45,1.23-4.24,3.34-4.24,1.78,0,3.23,1,3.23,4.35v.33h-4.68c0,1.34.56,2.23,2.01,2.23,1.23,0,1.78-.33,2.12-.67l.11,1.45Zm-1.45-4.35c0-1.45-.45-2.12-1.34-2.12-1,0-1.45,1.11-1.45,2.12h2.79Z"/><path class="cls-3" d="m453.76,179.95c0-.45,0-1-.11-1.34h1.78c0,.45.11,1,.11,1.45h0c.22-.67.89-1.56,2.01-1.56h.33v1.78c-.22,0-.33-.11-.56-.11-.78,0-1.67.45-1.67,2.01v4.46h-1.9v-6.69Z"/><path class="cls-3" d="m355.43,195.67h-1.34v-1.45h1.34v-1.67c0-1.11.56-2.23,2.34-2.23.56,0,1,.11,1.34.22l-.11,1.45c-.22-.11-.45-.11-.78-.11-.56,0-.89.33-.89,1v1.34h1.45v1.45h-1.45v6.58h-1.9v-6.58Z"/><path class="cls-3" d="m363.34,194.11c1.67,0,3.57.89,3.57,4.13s-1.9,4.13-3.57,4.13-3.57-.78-3.57-4.13c0-3.23,1.9-4.13,3.57-4.13Zm0,6.91c1.23,0,1.56-1.45,1.56-2.79s-.33-2.79-1.56-2.79-1.56,1.45-1.56,2.79.33,2.79,1.56,2.79Z"/><path class="cls-3" d="m368.47,195.55c0-.45,0-1-.11-1.34h1.78c0,.45.11,1,.11,1.45h0c.22-.67.89-1.56,2.01-1.56h.33v1.78c-.22,0-.33-.11-.56-.11-.78,0-1.67.45-1.67,2.01v4.46h-1.9v-6.69h0Z"/><path class="cls-3" d="m378.06,191.43h2.01v9.25h3.57v1.56h-5.57v-10.81Z"/><path class="cls-3" d="m384.97,190.76h2.01v1.9h-2.01v-1.9Zm.11,3.46h1.9v8.03h-1.9v-8.03Z"/><path class="cls-3" d="m389.54,195.67h-1.34v-1.45h1.34v-1.67c0-1.11.56-2.23,2.34-2.23.56,0,1,.11,1.34.22l-.11,1.45c-.22-.11-.45-.11-.78-.11-.56,0-.89.33-.89,1v1.34h1.45v1.45h-1.45v6.58h-1.9v-6.58Z"/><path class="cls-3" d="m400.02,201.91c-.45.22-1.23.56-2.45.56-2.56,0-3.68-1.9-3.68-4.01,0-2.45,1.23-4.24,3.34-4.24,1.78,0,3.23,1,3.23,4.35v.33h-4.68c0,1.34.56,2.23,2.01,2.23,1.23,0,1.78-.33,2.12-.67l.11,1.45Zm-1.45-4.35c0-1.45-.45-2.12-1.34-2.12-1,0-1.45,1.11-1.45,2.12h2.79Z"/><path class="cls-3" d="m406.16,200.13c.33.22,1.23.67,2.34.67.89,0,1.67-.45,1.67-1.56,0-.78-.45-1.11-1.45-1.67l-1-.56c-1.11-.56-1.78-1.45-1.78-2.9,0-2.01,1.56-3.01,3.46-3.01,1.11,0,2.01.33,2.23.33l-.11,1.67c-.45-.22-1.11-.45-2.01-.45-1,0-1.56.56-1.56,1.23,0,.78.56,1.11,1.11,1.45l1.23.67c1.23.67,1.9,1.45,1.9,2.9,0,2.23-1.56,3.23-3.68,3.23-1.11,0-1.9-.11-2.45-.45l.11-1.56Z"/><path class="cls-3" d="m419.2,202.02c-.45.22-1.11.33-1.9.33-2.68,0-3.79-1.9-3.79-4.13,0-2.34,1.23-4.13,3.9-4.13.56,0,1.34.22,1.67.33l-.11,1.56c-.33-.22-.78-.33-1.34-.33-1.45,0-2.12,1-2.12,2.68,0,1.45.67,2.68,2.23,2.68.45,0,1.11-.22,1.34-.45l.11,1.45Z"/><path class="cls-3" d="m420.54,190.76h2.01v1.9h-2.01v-1.9Zm.11,3.46h1.9v8.03h-1.9v-8.03Z"/><path class="cls-3" d="m430.35,201.91c-.45.22-1.23.56-2.45.56-2.56,0-3.68-1.9-3.68-4.01,0-2.45,1.23-4.24,3.34-4.24,1.78,0,3.23,1,3.23,4.35v.33h-4.68c0,1.34.56,2.23,2.01,2.23,1.23,0,1.78-.33,2.12-.67l.11,1.45Zm-1.45-4.35c0-1.45-.45-2.12-1.34-2.12-1,0-1.45,1.11-1.45,2.12h2.79Z"/><path class="cls-3" d="m432.24,195.55c0-.45,0-1-.11-1.34h1.78c0,.45.11.78.11,1.23h0c.33-.45.78-1.34,2.12-1.34,1.78,0,2.34,1.34,2.34,3.01v5.24h-1.9v-4.79c0-1.23-.33-1.78-1.11-1.78-1,0-1.34.89-1.34,1.9v4.68h-1.9v-6.8h0Z"/><path class="cls-3" d="m445.85,202.02c-.45.22-1.11.33-1.9.33-2.68,0-3.79-1.9-3.79-4.13,0-2.34,1.23-4.13,3.9-4.13.56,0,1.34.22,1.67.33l-.11,1.56c-.33-.22-.78-.33-1.34-.33-1.45,0-2.12,1-2.12,2.68,0,1.45.67,2.68,2.23,2.68.45,0,1.11-.22,1.34-.45l.11,1.45Z"/><g><path class="cls-3" d="m350.63,175.82h2.79c3.46,0,5.24,1.9,5.24,5.46s-2.23,5.46-5.24,5.46h-2.79v-10.93Zm2.01,9.37h.67c2.23,0,3.23-1.56,3.23-3.9s-1-3.9-3.23-3.9h-.67v7.8Z"/><path class="cls-3" d="m452.98,201.91c-.45.22-1.23.56-2.45.56-2.56,0-3.68-1.9-3.68-4.01,0-2.45,1.23-4.24,3.34-4.24,1.78,0,3.23,1,3.23,4.35v.33h-4.68c0,1.34.56,2.23,2.01,2.23,1.23,0,1.78-.33,2.12-.67l.11,1.45Zm-1.56-4.35c0-1.45-.45-2.12-1.34-2.12-1,0-1.45,1.11-1.45,2.12h2.79Z"/></g></g><g><path class="cls-3" d="m433.02,253.08h-62.21c-3.12,0-5.57-2.45-5.57-5.57v-7.14c0-3.12,2.45-5.57,5.57-5.57h62.21c3.12,0,5.57,2.45,5.57,5.57v7.14c0,3.01-2.45,5.57-5.57,5.57Z"/><g><path d="m374.49,239.04h3.23l2.45,7.69h0l2.45-7.69h3.23v10.15h-1.9v-8.36h0l-2.68,8.36h-1.9l-2.68-8.36h0v8.36h-2.23v-10.15Z"/><path d="m388.09,238.48h1.9v1.9h-1.9v-1.9Zm0,3.23h1.9v7.47h-1.9v-7.47Z"/><path d="m396.57,243.27c-.56-.22-1-.33-1.78-.33-.56,0-1.11.22-1.11.78,0,1.23,3.34.45,3.34,3.12,0,1.78-1.56,2.45-3.12,2.45-.78,0-1.45-.11-2.23-.33l.11-1.56c.56.33,1.23.45,1.9.45.45,0,1.23-.22,1.23-.89,0-1.45-3.34-.45-3.34-3.12,0-1.56,1.45-2.34,2.9-2.34.89,0,1.56.11,2.12.22v1.56Z"/><path d="m398.57,238.26h1.9v4.46h0c.45-.67,1.34-1.23,2.34-1.23,1.78,0,2.56,1.23,2.56,2.9v4.68h-1.9v-4.01c0-.89,0-2.12-1.23-2.12-1.45,0-1.67,1.56-1.67,2.45v3.68h-1.9l-.11-10.81h0Z"/><path d="m407.38,238.48h1.9v1.9h-1.9v-1.9Zm0,3.23h1.9v7.47h-1.9v-7.47Z"/><path d="m411.4,241.71h1.78v1h0c.56-.89,1.45-1.23,2.23-1.23,1,0,1.78.45,2.23,1.34.45-.89,1.45-1.34,2.34-1.34,1.9,0,2.34,1.23,2.34,2.9v4.68h-1.9v-4.46c0-.67,0-1.67-1.11-1.67-1.34,0-1.45,1.56-1.45,2.45v3.57h-1.9v-4.46c0-.67,0-1.67-1.11-1.67-1.34,0-1.45,1.56-1.45,2.45v3.57h-1.9v-7.14h-.11Z"/><path d="m424.66,242.05c.78-.33,1.78-.56,2.56-.56,2.23,0,3.23.89,3.23,3.12v2.9c0,.56,0,1.11.11,1.67h-1.67c-.11-.45-.11-.89-.11-1.11h0c-.45.78-1.45,1.34-2.34,1.34-1.34,0-2.56-.78-2.56-2.23,0-1.11.56-1.78,1.23-2.12.78-.33,1.67-.45,2.45-.45h1.11c0-1.23-.56-1.56-1.67-1.56-.78,0-1.67.33-2.34.78v-1.78Zm2.23,5.8c.56,0,1-.22,1.34-.67.33-.45.45-1,.45-1.56h-.89c-.89,0-2.12.11-2.12,1.34,0,.67.56.89,1.23.89Z"/></g></g><path class="cls-3" d="m425.55,81.61h4.35v1.56h-4.35v-1.56Z"/><g><path class="cls-3" d="m631.92,193.66h2.68c3.01,0,4.91,1.56,4.91,4.91s-1.9,5.02-4.79,5.02h-2.79v-9.92h0Zm2.56,8.36c1.9,0,3.01-1,3.01-3.34s-1.11-3.34-3.01-3.34h-.67v6.69h.67Z"/><path class="cls-3" d="m640.84,199.9c0-2.45,1.67-3.9,3.46-3.9,2.01,0,3.12,1.56,3.12,3.57,0,.33,0,.67-.11.89h-4.57c.11,1.23,1,1.9,2.12,1.9.67,0,1.11-.22,1.67-.56l.67,1.23c-.78.56-1.67.78-2.68.78-2.01,0-3.68-1.45-3.68-3.9Zm4.91-.78c0-1-.45-1.67-1.45-1.67-.78,0-1.45.56-1.67,1.67h3.12Z"/><path class="cls-3" d="m649.09,196.11h1.56l.11.78h0c.67-.56,1.45-1,2.23-1,1.9,0,2.9,1.56,2.9,3.79,0,2.56-1.56,4.01-3.23,4.01-.67,0-1.34-.33-1.9-.78v3.46h-2.01v-10.26h.33Zm4.91,3.68c0-1.45-.45-2.23-1.45-2.23-.56,0-1,.22-1.45.78v3.34c.45.45,1,.56,1.34.56.89-.11,1.56-.89,1.56-2.45Z"/><path class="cls-3" d="m657.12,201.58c0-1.56,1.34-2.45,4.35-2.79,0-.78-.33-1.34-1.23-1.34-.67,0-1.34.33-2.01.67l-.67-1.34c.89-.56,2.01-1,3.12-1,1.9,0,2.9,1.11,2.9,3.34v4.35h-1.56l-.11-.78h0c-.67.56-1.45,1-2.23,1-1.67.11-2.56-.89-2.56-2.12Zm4.35-.11v-1.56c-1.78.22-2.45.78-2.45,1.45,0,.56.45.89,1,.89.56,0,1-.33,1.45-.78Z"/><path class="cls-3" d="m665.37,196.11h1.56l.11,1.34h0c.56-1,1.34-1.56,2.12-1.56.45,0,.67.11.89.11l-.33,1.67c-.22-.11-.45-.11-.78-.11-.56,0-1.34.33-1.67,1.45v4.46h-2.01l.11-7.36h0Z"/><path class="cls-3" d="m671.5,200.91v-3.34h-1v-1.34l1.11-.11.22-2.01h1.67v2.01h1.9v1.56h-1.9v3.34c0,.89.33,1.23,1,1.23.22,0,.56-.11.78-.11l.33,1.45c-.45.11-.89.33-1.56.33-1.9-.11-2.56-1.23-2.56-3.01Z"/><path class="cls-3" d="m676.85,196.11h1.56l.11,1h0c.67-.67,1.34-1.23,2.34-1.23,1.11,0,1.67.45,2.01,1.34.67-.67,1.45-1.34,2.34-1.34,1.56,0,2.34,1.11,2.34,3.01v4.68h-2.01v-4.46c0-1.11-.33-1.56-1-1.56-.45,0-.89.33-1.45.89v5.13h-2.01v-4.46c0-1.11-.33-1.56-1-1.56-.45,0-.89.33-1.45.89v5.13h-2.01v-7.47h.22Z"/><path class="cls-3" d="m689.34,199.9c0-2.45,1.67-3.9,3.46-3.9,2.01,0,3.12,1.56,3.12,3.57,0,.33,0,.67-.11.89h-4.57c.11,1.23,1,1.9,2.12,1.9.67,0,1.11-.22,1.67-.56l.67,1.23c-.78.56-1.67.78-2.68.78-2.12,0-3.68-1.45-3.68-3.9Zm4.91-.78c0-1-.45-1.67-1.45-1.67-.78,0-1.45.56-1.67,1.67h3.12Z"/><path class="cls-3" d="m697.59,196.11h1.56l.11,1h0c.67-.67,1.45-1.23,2.45-1.23,1.67,0,2.34,1.11,2.34,3.01v4.68h-2.01v-4.46c0-1.11-.33-1.56-1-1.56s-1,.33-1.56.89v5.13h-2.01v-7.47h.11Z"/><path class="cls-3" d="m706.4,200.91v-3.34h-1v-1.34l1.11-.11.22-2.01h1.67v2.01h1.9v1.56h-1.9v3.34c0,.89.33,1.23,1,1.23.22,0,.56-.11.78-.11l.33,1.45c-.45.11-.89.33-1.56.33-1.9-.11-2.56-1.23-2.56-3.01Z"/><path class="cls-3" d="m714.31,199.9c0-2.45,1.67-3.9,3.57-3.9s3.57,1.45,3.57,3.9-1.67,3.9-3.57,3.9-3.57-1.45-3.57-3.9Zm5.13,0c0-1.45-.56-2.34-1.56-2.34s-1.56.89-1.56,2.34.56,2.34,1.56,2.34,1.56-1,1.56-2.34Z"/><path class="cls-3" d="m727.02,194.44c-.22-.11-.56-.11-.78-.11-.56,0-.89.33-.89,1.23v.67h1.45v1.56h-1.45v5.91h-2.01v-5.91h-.89v-1.56l1-.11v-.67c0-1.56.67-2.79,2.56-2.79.56,0,1.11.11,1.45.22l-.45,1.56Z"/><path class="cls-3" d="m631.92,208.15h2.01l2.9,5.24,1,2.12h.11c-.11-1-.22-2.34-.22-3.46v-3.9h1.9v9.92h-2.01l-2.9-5.24-1-2.12h-.11c.11,1.11.22,2.34.22,3.46v4.01h-1.9v-10.03Z"/><path class="cls-3" d="m641.96,208.15h3.23c2.01,0,3.57.56,3.57,2.45,0,.89-.56,1.9-1.34,2.12v.11c1.11.22,1.9,1,1.9,2.34,0,2.01-1.67,2.9-3.79,2.9h-3.57v-9.92Zm3.12,4.01c1.23,0,1.78-.56,1.78-1.34,0-.89-.56-1.23-1.78-1.23h-1.23v2.56h1.23Zm.22,4.35c1.34,0,2.12-.45,2.12-1.56,0-1-.67-1.34-2.12-1.34h-1.34v2.9h1.34Z"/><path class="cls-3" d="m651.1,208.15h2.68c3.01,0,4.91,1.56,4.91,4.91s-1.9,5.02-4.79,5.02h-2.79v-9.92Zm2.56,8.36c1.9,0,3.01-1,3.01-3.34s-1.11-3.34-3.01-3.34h-.67v6.69h.67Z"/><path class="cls-3" d="m660.13,213.17c0-3.23,2.12-5.13,4.57-5.13,1.23,0,2.23.56,2.9,1.23l-1,1.23c-.45-.45-1.11-.78-1.78-.78-1.45,0-2.68,1.34-2.68,3.46s1,3.46,2.56,3.46c.89,0,1.56-.45,2.01-1l1,1.23c-.78,1-1.9,1.45-3.12,1.45-2.45,0-4.46-1.78-4.46-5.13Z"/><path class="cls-3" d="m672.39,208.15h3.23c2.23,0,3.9.78,3.9,3.12s-1.67,3.23-3.79,3.23h-1.34v3.57h-2.01v-9.92Zm3.23,4.79c1.34,0,2.01-.56,2.01-1.67s-.67-1.56-2.12-1.56h-1.11v3.23h1.23Z"/><path class="cls-3" d="m681.2,210.61h1.56l.11,1.34h0c.56-1,1.34-1.56,2.12-1.56.45,0,.67.11.89.11l-.33,1.67c-.22-.11-.45-.11-.78-.11-.56,0-1.34.33-1.67,1.45v4.46h-1.9v-7.36Z"/><path class="cls-3" d="m686.44,214.4c0-2.45,1.67-3.9,3.57-3.9s3.57,1.45,3.57,3.9-1.67,3.9-3.57,3.9-3.57-1.45-3.57-3.9Zm5.13,0c0-1.45-.56-2.34-1.56-2.34s-1.56.89-1.56,2.34.56,2.34,1.56,2.34,1.56-1,1.56-2.34Z"/><path class="cls-3" d="m694.69,219.41c0-.67.33-1.11,1.11-1.56v-.11c-.33-.22-.67-.67-.67-1.23s.33-1.11.78-1.45h0c-.56-.33-1-1.11-1-2.01,0-1.78,1.45-2.68,3.01-2.68.45,0,.78.11,1.11.22h2.68v1.45h-1.34c.22.22.33.67.33,1.11,0,1.67-1.34,2.56-2.9,2.56-.33,0-.67-.11-1-.22-.22.22-.33.33-.33.67,0,.45.33.67,1.23.67h1.23c1.78,0,2.79.56,2.79,1.9,0,1.56-1.56,2.68-4.01,2.68-1.56-.11-3.01-.67-3.01-2.01Zm5.35-.45c0-.56-.45-.67-1.23-.67h-.89c-.45,0-.78,0-1-.11-.33.22-.45.56-.45.89,0,.67.67,1,1.78,1,1,0,1.78-.45,1.78-1.11Zm-.89-5.8c0-.89-.45-1.34-1.11-1.34s-1.23.45-1.23,1.34.56,1.34,1.23,1.34,1.11-.56,1.11-1.34Z"/><path class="cls-3" d="m703.27,210.61h1.56l.11,1.34h0c.56-1,1.34-1.56,2.12-1.56.45,0,.67.11.89.11l-.33,1.67c-.22-.11-.45-.11-.78-.11-.56,0-1.34.33-1.67,1.45v4.46h-2.01l.11-7.36h0Z"/><path class="cls-3" d="m708.29,216.07c0-1.56,1.34-2.45,4.35-2.79,0-.78-.33-1.34-1.23-1.34-.67,0-1.34.33-2.01.67l-.67-1.34c.89-.56,2.01-1,3.12-1,1.9,0,2.9,1.11,2.9,3.34v4.35h-1.56l-.11-.78h0c-.67.56-1.45,1-2.23,1-1.67.11-2.56-.89-2.56-2.12Zm4.24-.11v-1.56c-1.78.22-2.45.78-2.45,1.45,0,.56.45.89,1,.89.56,0,1-.33,1.45-.78Z"/><path class="cls-3" d="m716.54,210.61h1.56l.11,1h0c.67-.67,1.34-1.23,2.34-1.23,1.11,0,1.67.45,2.01,1.34.67-.67,1.45-1.34,2.34-1.34,1.56,0,2.34,1.11,2.34,3.01v4.68h-2.01v-4.46c0-1.11-.33-1.56-1-1.56-.45,0-.89.33-1.45.89v5.13h-2.01v-4.46c0-1.11-.33-1.56-1-1.56-.45,0-.89.33-1.45.89v5.13h-2.01v-7.47h.22Z"/></g><g><path class="cls-3" d="m166.23,217.85c-.45.22-1.23.45-2.23.45-3.23,0-4.79-2.34-4.79-5.35s1.56-5.35,4.68-5.35c1.11,0,1.9.33,2.34.45l-.11,1.67c-.45-.22-1-.56-1.9-.56-1.56,0-3.01,1-3.01,3.68s1.34,3.68,3.01,3.68c1,0,1.45-.22,1.9-.56l.11,1.9Z"/><g><path class="cls-3" d="m97,193.66h3.34c2.01,0,3.57.56,3.57,2.45,0,.89-.56,1.9-1.34,2.12v.11c1.11.22,1.9,1,1.9,2.34,0,2.01-1.67,2.9-3.79,2.9h-3.68v-9.92Zm3.23,4.01c1.23,0,1.78-.56,1.78-1.34,0-.89-.56-1.23-1.78-1.23h-1.23v2.56h1.23Zm.22,4.35c1.34,0,2.12-.45,2.12-1.56,0-1-.67-1.34-2.12-1.34h-1.34v2.9h1.34Z"/><path class="cls-3" d="m105.8,193.77c0-.67.45-1.11,1.23-1.11.67,0,1.11.45,1.11,1.11s-.45,1.11-1.11,1.11-1.23-.45-1.23-1.11Zm.22,2.34h2.01v7.47h-2.01v-7.47Z"/><path class="cls-3" d="m109.59,199.9c0-2.45,1.67-3.9,3.57-3.9s3.57,1.45,3.57,3.9-1.67,3.9-3.57,3.9-3.57-1.45-3.57-3.9Zm5.24,0c0-1.45-.56-2.34-1.56-2.34s-1.56.89-1.56,2.34.56,2.34,1.56,2.34,1.56-1,1.56-2.34Z"/><path class="cls-3" d="m118.29,193.77c0-.67.45-1.11,1.23-1.11.67,0,1.11.45,1.11,1.11s-.45,1.11-1.11,1.11c-.78,0-1.23-.45-1.23-1.11Zm.11,2.34h2.01v7.47h-2.01v-7.47Z"/><path class="cls-3" d="m122.53,196.11h1.56l.11,1h0c.67-.67,1.45-1.23,2.45-1.23,1.67,0,2.34,1.11,2.34,3.01v4.68h-1.9v-4.46c0-1.11-.33-1.56-1-1.56s-1,.33-1.56.89v5.13h-2.01s0-7.47,0-7.47Z"/><path class="cls-3" d="m135.13,194.44c-.22-.11-.56-.11-.78-.11-.56,0-.89.33-.89,1.23v.67h1.45v1.56h-1.45v5.91h-2.01v-5.91h-1v-1.56l1-.11v-.67c0-1.56.67-2.79,2.56-2.79.56,0,1.11.11,1.45.22l-.33,1.56Z"/><path class="cls-3" d="m135.46,199.9c0-2.45,1.67-3.9,3.57-3.9s3.57,1.45,3.57,3.9-1.67,3.9-3.57,3.9-3.57-1.45-3.57-3.9Zm5.13,0c0-1.45-.56-2.34-1.56-2.34s-1.56.89-1.56,2.34.56,2.34,1.56,2.34,1.56-1,1.56-2.34Z"/><path class="cls-3" d="m144.27,196.11h1.56l.11,1.34h0c.56-1,1.34-1.56,2.12-1.56.45,0,.67.11.89.11l-.33,1.67c-.22-.11-.45-.11-.78-.11-.56,0-1.34.33-1.67,1.45v4.46h-2.01v-7.36h.11Z"/><path class="cls-3" d="m150.06,196.11h1.56l.11,1h0c.67-.67,1.34-1.23,2.34-1.23,1.11,0,1.67.45,2.01,1.34.67-.67,1.45-1.34,2.34-1.34,1.56,0,2.34,1.11,2.34,3.01v4.68h-2.01v-4.46c0-1.11-.33-1.56-1-1.56-.45,0-.89.33-1.45.89v5.13h-2.01v-4.46c0-1.11-.33-1.56-1-1.56-.45,0-.89.33-1.45.89v5.13h-2.01v-7.47h.22Z"/><path class="cls-3" d="m162.66,201.58c0-1.56,1.34-2.45,4.35-2.79,0-.78-.33-1.34-1.23-1.34-.67,0-1.34.33-2.01.67l-.67-1.34c.89-.56,2.01-1,3.12-1,1.9,0,2.9,1.11,2.9,3.34v4.35h-1.56l-.11-.78h0c-.67.56-1.45,1-2.23,1-1.67.11-2.56-.89-2.56-2.12Zm4.24-.11v-1.56c-1.78.22-2.45.78-2.45,1.45,0,.56.45.89,1,.89.56,0,1-.33,1.45-.78Z"/><path class="cls-3" d="m170.91,200.91v-3.34h-1v-1.34l1.11-.11.22-2.01h1.67v2.01h1.9v1.56h-1.9v3.34c0,.89.33,1.23,1,1.23.22,0,.56-.11.78-.11l.33,1.45c-.45.11-.89.33-1.56.33-1.9-.11-2.56-1.23-2.56-3.01Z"/><path class="cls-3" d="m176.04,193.77c0-.67.45-1.11,1.23-1.11.67,0,1.11.45,1.11,1.11s-.45,1.11-1.11,1.11-1.23-.45-1.23-1.11Zm.22,2.34h2.01v7.47h-2.01v-7.47Z"/><path class="cls-3" d="m179.83,199.9c0-2.45,1.67-3.9,3.57-3.9s3.57,1.45,3.57,3.9-1.67,3.9-3.57,3.9-3.57-1.45-3.57-3.9Zm5.24,0c0-1.45-.56-2.34-1.56-2.34s-1.56.89-1.56,2.34.56,2.34,1.56,2.34,1.56-1,1.56-2.34Z"/><path class="cls-3" d="m188.75,196.11h1.56l.11,1h0c.67-.67,1.45-1.23,2.45-1.23,1.67,0,2.34,1.11,2.34,3.01v4.68h-2.01v-4.46c0-1.11-.33-1.56-1-1.56s-1,.33-1.56.89v5.13h-2.01l.11-7.47h0Z"/><path class="cls-3" d="m93.87,216.07c0-1.56,1.34-2.45,4.35-2.79,0-.78-.33-1.34-1.23-1.34-.67,0-1.34.33-2.01.67l-.67-1.34c.89-.56,2.01-1,3.12-1,1.9,0,2.9,1.11,2.9,3.34v4.35h-1.56l-.11-.78h0c-.67.56-1.45,1-2.23,1-1.67.11-2.56-.89-2.56-2.12Zm4.35-.11v-1.56c-1.78.22-2.45.78-2.45,1.45,0,.56.45.89,1,.89.56,0,1-.33,1.45-.78Z"/><path class="cls-3" d="m102.24,210.61h1.56l.11,1h0c.67-.67,1.45-1.23,2.45-1.23,1.67,0,2.34,1.11,2.34,3.01v4.68h-2.01v-4.46c0-1.11-.33-1.56-1-1.56s-1,.33-1.56.89v5.13h-2.01v-7.47h.11Z"/><path class="cls-3" d="m110.37,214.4c0-2.45,1.56-3.9,3.12-3.9.89,0,1.34.33,1.9.78l-.11-1.23v-2.68h2.01v10.7h-1.56l-.11-.78h0c-.56.56-1.34,1-2.12,1-2.01,0-3.12-1.56-3.12-3.9Zm4.91,1.45v-3.34c-.45-.45-.89-.56-1.34-.56-.89,0-1.56.78-1.56,2.34s.56,2.34,1.56,2.34c.45,0,.89-.22,1.34-.78Z"/><path class="cls-3" d="m122.53,208.15h2.68c3.01,0,4.91,1.56,4.91,4.91s-1.9,5.02-4.79,5.02h-2.79v-9.92Zm2.68,8.36c1.9,0,3.01-1,3.01-3.34s-1.11-3.34-3.01-3.34h-.67v6.69h.67Z"/><path class="cls-3" d="m131.45,208.15h2.68c3.01,0,4.91,1.56,4.91,4.91s-1.9,5.02-4.79,5.02h-2.79v-9.92Zm2.56,8.36c1.9,0,3.01-1,3.01-3.34s-1.11-3.34-3.01-3.34h-.67v6.69h.67Z"/><path class="cls-3" d="m140.48,208.15h3.23c2.01,0,3.57.56,3.57,2.45,0,.89-.56,1.9-1.34,2.12v.11c1.11.22,1.9,1,1.9,2.34,0,2.01-1.67,2.9-3.79,2.9h-3.57v-9.92Zm3.12,4.01c1.23,0,1.78-.56,1.78-1.34,0-.89-.56-1.23-1.78-1.23h-1.23v2.56h1.23Zm.22,4.35c1.34,0,2.12-.45,2.12-1.56,0-1-.67-1.34-2.12-1.34h-1.34v2.9h1.34Z"/><path class="cls-3" d="m148.95,216.51l1.34-1c.33.67.89,1,1.45,1,.89,0,1.34-.45,1.34-1.78v-6.58h2.01v6.69c0,1.9-.89,3.34-3.01,3.34-1.56.11-2.45-.56-3.12-1.67Z"/><path class="cls-3" d="m167.12,214.4c0-2.45,1.67-3.9,3.46-3.9,2.01,0,3.12,1.56,3.12,3.57,0,.33,0,.67-.11.89h-4.57c.11,1.23,1,1.9,2.12,1.9.67,0,1.11-.22,1.67-.56l.67,1.23c-.78.56-1.67.78-2.68.78-2.01,0-3.68-1.45-3.68-3.9Zm5.02-.78c0-1-.45-1.67-1.45-1.67-.78,0-1.45.56-1.67,1.67h3.12Z"/><path class="cls-3" d="m175.37,210.61h1.56l.11,1h0c.67-.67,1.45-1.23,2.45-1.23,1.67,0,2.34,1.11,2.34,3.01v4.68h-2.01v-4.46c0-1.11-.33-1.56-1-1.56s-1,.33-1.56.89v5.13h-2.01l.11-7.47h0Z"/><path class="cls-3" d="m184.29,215.4v-3.34h-1v-1.34l1.11-.11.22-2.01h1.67v2.01h1.9v1.56h-2.01v3.34c0,.89.33,1.23,1,1.23.22,0,.56-.11.78-.11l.33,1.45c-.45.11-.89.33-1.56.33-1.78-.11-2.45-1.23-2.45-3.01Z"/><path class="cls-3" d="m188.86,214.4c0-2.45,1.67-3.9,3.46-3.9,2.01,0,3.12,1.56,3.12,3.57,0,.33,0,.67-.11.89h-4.57c.11,1.23,1,1.9,2.12,1.9.67,0,1.11-.22,1.67-.56l.67,1.23c-.78.56-1.67.78-2.68.78-2.01,0-3.68-1.45-3.68-3.9Zm4.91-.78c0-1-.45-1.67-1.45-1.67-.78,0-1.45.56-1.67,1.67h3.12Z"/><path class="cls-3" d="m197.11,210.61h1.56l.11,1.34h0c.56-1,1.34-1.56,2.12-1.56.45,0,.67.11.89.11l-.33,1.67c-.22-.11-.45-.11-.78-.11-.56,0-1.34.33-1.67,1.45v4.46h-2.01v-7.36h.11Z"/></g></g></svg>