<?xml version="1.0" encoding="UTF-8"?><svg id="_レイヤー_1" xmlns="http://www.w3.org/2000/svg" viewBox="0 0 786 359"><defs><style>.cls-1{fill:#004098;}.cls-2{fill:#f4f1e8;}.cls-3{fill:#fff;}.cls-4{fill:#97bdc0;}.cls-5,.cls-6{fill:#666665;}.cls-7{fill:#274d7a;}.cls-6{opacity:.5;}.cls-6,.cls-8{isolation:isolate;}</style></defs><rect class="cls-2" y="0" width="551.87" height="359"/><rect class="cls-2" x="563.02" y="0" width="222.98" height="359"/><circle class="cls-4" cx="402.48" cy="159.43" r="124.87"/><circle class="cls-1" cx="402.48" cy="197.34" r="86.96"/><path class="cls-3" d="m360.56,151.63h5.69c6.35,0,11.93,2.12,11.93,10.26s-5.57,10.26-11.93,10.26h-5.69v-20.51Zm4.13,17.39h2.34c3.9-.11,6.91-3.46,6.8-7.36-.11-3.68-3.12-6.58-6.8-6.8h-2.34v14.16Z"/><path class="cls-3" d="m381.85,151.63h7.25c2.68,0,6.69.78,6.69,5.24,0,2.34-1.78,4.35-4.13,4.57h0c2.79.22,4.68,2.12,4.68,4.68,0,5.24-4.68,6.02-7.25,6.02h-7.25v-20.51Zm4.13,8.36h1.67c1.78,0,3.9-.33,3.9-2.45,0-2.34-2.12-2.56-4.01-2.56h-1.56v5.02Zm0,9.03h2.01c1.9,0,4.24-.45,4.24-2.9,0-2.68-2.23-3.12-4.24-3.12h-2.01v6.02Z"/><path class="cls-3" d="m414.96,171.92c-1.56.45-3.12.56-4.68.67-6.69,0-11.26-3.34-11.26-10.26s4.35-11.04,11.26-11.04c1.56,0,3.12.33,4.68.89l-.33,3.46c-1.34-.78-2.9-1.11-4.46-1.11-4.24,0-6.91,3.23-6.91,7.47s2.56,7.36,7.02,7.36c1.56,0,3.12-.22,4.46-.89l.22,3.46Z"/><path class="cls-3" d="m417.97,151.63h4.13v17.39h8.03v3.23h-12.15v-20.63h0Z"/><path class="cls-3" d="m443.84,155.42c-1.34-.56-2.79-.89-4.24-.89s-3.23.67-3.23,2.9c0,3.57,9.03,2.12,9.03,8.92,0,4.57-3.57,6.24-7.69,6.24-1.78,0-3.57-.22-5.24-.78l.45-3.68c1.45.78,3.01,1.23,4.68,1.23,1.56,0,3.68-.78,3.68-2.68,0-3.9-9.03-2.34-9.03-9.14,0-4.57,3.57-6.24,7.25-6.24,1.67,0,3.34.22,4.91.78l-.56,3.34Z"/><path class="cls-3" d="m417.42,214.73h19.62c2.45,0,4.46,2.01,4.46,4.46v17.17c0,2.45-2.01,4.46-4.46,4.46h-19.62c-2.45,0-4.46-2.01-4.46-4.46v-17.17c0-2.45,2.01-4.46,4.46-4.46Z"/><path class="cls-3" d="m369.81,214.73h33.78c2.45,0,4.46,2.01,4.46,4.46v17.17c0,2.45-2.01,4.46-4.46,4.46h-33.78c-2.45,0-4.46-2.01-4.46-4.46v-17.17c0-2.45,2.01-4.46,4.46-4.46Z"/><circle class="cls-6" cx="144.94" cy="158.32" r="123.75"/><circle class="cls-5" cx="677.86" cy="197.34" r="86.96"/><circle class="cls-5" cx="677.86" cy="197.34" r="86.96"/><path class="cls-3" d="m92.42,81.05c0-.56,0-1.11-.11-1.56.56,0,1,.11,1.56.11h8.47c.67,0,1.11,0,1.56-.11-.11.56-.11,1.11-.11,1.56v8.58c0,.56,0,1.23.11,1.78h-1.56v-.78h-8.58v.78h-1.56c.11-.56.11-1.11.11-1.78l.11-8.58h0Zm1.45,8.25h8.58v-8.47h-8.58v8.47Zm2.01-6.35c-.45,0-.78,0-1.23.11v-1.34c.45.11.78.11,1.23.11h4.46c.45,0,.78,0,1.23-.11v1.34c-.45-.11-.78-.11-1.23-.11h-1.67v1.34h1.34c.33,0,.78,0,1.11-.11v1.34c-.33,0-.56-.11-.89-.11.33.45.67.78.89,1.34l-.78.45c.45,0,.89,0,1.34-.11v1.34c-.45-.11-.78-.11-1.23-.11h-4.79c-.45,0-.89,0-1.23.11v-1.45c.45.11.89.11,1.23.11h1.56v-1.67h-1.11c-.33,0-.78,0-1.11.11v-1.34c.33.11.78.11,1.11.11h1.11v-1.34h-1.34Zm2.9,4.24h1.45c-.22-.45-.56-.89-.89-1.34l.67-.33h-1.34l.11,1.67Z"/><path class="cls-3" d="m111.94,89.3c.89-2.01,1.56-4.24,2.01-6.47l1.67.45c-.22.45-.33.89-.45,1.34-.45,1.56-1,3.12-1.67,4.68h2.45c.67,0,1.23,0,1.67-.11v1.56c-.56-.11-1.11-.11-1.67-.11h-8.7c-.56,0-1.11,0-1.78.11v-1.56c.45,0,1,.11,1.78.11h4.68Zm-1.34-9.14c0-.33,0-.67-.11-1h1.67c-.11.33-.11.67-.11,1v.89h3.23c.56,0,1.11,0,1.78-.11v1.56c-.56-.11-1.11-.11-1.78-.11h-7.8c-.56,0-1.11,0-1.67.11v-1.56c.56.11,1.11.11,1.67.11h3.01l.11-.89Zm-1.67,2.79c.67,1.67,1.11,3.46,1.56,5.24l-1.45.56c-.33-1.78-.78-3.57-1.45-5.24l1.34-.56Z"/><path class="cls-3" d="m121.75,88.52c.33.56.89,1,1.56,1.11-.22-.33-.45-.56-.78-.89.78-.11,1.45-.33,2.12-.78h-1.9v-4.46h7.36v4.68h-1.67c.78.33,1.56.56,2.34.67-.22.33-.45.56-.67.89l1.23-.11c-.22.45-.33,1-.45,1.45-1.34,0-3.12.11-4.79.11-2.34,0-3.01-.11-3.9-.56-.45-.22-.78-.56-1.11-1-.56.56-1.23,1.11-1.9,1.56l-.67-1.56c.67-.33,1.34-.78,1.9-1.34v-2.9h-.67c-.33,0-.56,0-.89.11v-1.45c.33.11.78.11,1.11.11h2.01c0,.45-.11,1-.11,1.45l-.11,2.9Zm-1.78-9.37c.78.67,1.56,1.56,2.23,2.45l-1.11,1c-.56-.89-1.34-1.78-2.12-2.45l1-1Zm9.25.45h1.11v2.34h-3.23v.33h2.79c.45,0,.78,0,1.23-.11v1.11c-.45-.11-.78-.11-1.23-.11h-6.91c-.45,0-.78,0-1.23.11v-1.11c.45.11.78.11,1.23.11h2.68v-.33h-3.12v-1.45c0-.22,0-.56-.11-.78h3.23v-.67h1.45v.67l2.12-.11Zm-5.35.89v.45h1.78v-.45h-1.78Zm2.23,8.14c-.67.45-1.45.89-2.23,1.11.56.11,1.11.11,1.67.11,1.11,0,2.79,0,3.79-.11-.89-.22-1.67-.67-2.45-1.11l.67-.56h-2.34l.89.56Zm-1.9-3.79h4.68v-.45h-4.68v.45Zm0,1.11h4.68v-.33h-4.68v.33Zm0,1.23h4.68v-.45h-4.68v.45Zm2.9-6.24h1.9v-.45h-1.9v.45Z"/><path class="cls-3" d="m135.01,89.86c0,.56,0,1,.11,1.56h-1.56c.11-.56.11-1.11.11-1.56v-5.35c-.33.56-.67,1.11-1.11,1.56-.22-.56-.45-1.11-.78-1.56.89-1,1.67-2.12,2.23-3.46.33-.67.45-1.34.67-2.12l1.56.45c-.11.22-.22.56-.33.78-.11.22-.33.89-.45,1.11l-.45,1v7.58Zm2.34-4.91c-.56,0-1.11,0-1.67.11v-1.45c.56.11,1.11.11,1.56.11h5.46c.56,0,1.11,0,1.67-.11v1.45c-.56-.11-1.11-.11-1.67-.11h-2.9c-.45,1.45-.89,2.9-1.56,4.35q2.79-.33,3.79-.45c-.45-.78-.89-1.67-1.34-2.45l1.34-.45c1,1.45,1.9,3.01,2.56,4.68l-1.34.67c-.22-.67-.33-.89-.56-1.23-1.67.33-2.34.45-5.24.78l-.67.11-.45.11c-.11,0-.33,0-.45.11l-.33-1.56h1.23c.67-1.45,1.11-2.9,1.56-4.46l-1-.22Zm-.67-5.02c.56,0,1.11.11,1.56.11h3.68c.56,0,1.11,0,1.67-.11v1.45c-.56-.11-1.11-.11-1.67-.11h-3.68c-.56,0-1.11,0-1.67.11l.11-1.45Z"/><path class="cls-3" d="m147.28,87.74c-.56,0-1.11,0-1.67.11v-1.45c.56.11,1.11.11,1.56.11h3.68v-.89h.56c.56-.33,1.11-.67,1.56-1.11h-4.91v-1.34c.45,0,.89.11,1.34.11h5.46l.78.78-.45.45c-.78.78-1.78,1.34-2.68,2.01h3.46c.56,0,1.11,0,1.67-.11v1.45c-.56-.11-1.11-.11-1.67-.11h-3.57v2.34c0,.33,0,.56-.11.89-.22.33-.67.45-1.9.45h-1.34c-.11-.45-.22-1-.45-1.45.56.11,1.11.11,1.67.11s.67,0,.67-.33v-2.01h-3.68Zm.78-6.58c-.22-.56-.56-1-1-1.45l1.34-.45c.45.56.89,1.23,1.23,1.9h1.45c-.22-.56-.45-1.11-.78-1.67l1.34-.33c.33.67.67,1.34.89,2.12h1.11c.45-.67.78-1.34,1.11-2.01l1.45.45c-.33.56-.67,1.11-1,1.56h.56c.56,0,1.11,0,1.67-.11,0,.33-.11.78-.11,1.11v1.23c0,.33,0,.67.11,1h-1.45v-2.12h-8.7v2.12h-1.45c0-.33.11-.67.11-1v-2.34c.56,0,1,.11,1.56.11l.56-.11h0Z"/><path class="cls-3" d="m160.21,80.83c-.33,0-.78,0-1.11.11v-1.45c.45.11.89.11,1.34.11h2.34c.45,0,.89,0,1.23-.11v1.45h-1.78c-.11,1-.45,2.01-.89,2.9h2.34v6.58h-1.34v-.67h-1.11v1.34h-1.45c.11-.45.11-.89.11-1.34v-3.79c-.22.45-.45.89-.89,1.23-.11-.56-.22-1.11-.56-1.67.78-.78,1.34-1.78,1.67-2.9.22-.56.33-1.23.45-1.78,0,0-.33,0-.33,0Zm1,7.69h1.23v-3.46h-1.11l-.11,3.46Zm4.24-7.69c-.33,0-.78,0-1.11.11v-1.45c.45.11,1,.11,1.45.11h3.9c.45,0,1,0,1.45-.11v1.45c-.45-.11-.89-.11-1.34-.11v3.12h.11c.45,0,.89,0,1.34-.11v1.45c-.45,0-.89-.11-1.34-.11h-.11v4.35c0,.56,0,1.11.11,1.67h-1.56v-6.02h-1.56c0,.89-.11,1.78-.33,2.68-.22,1.23-.78,2.45-1.67,3.46-.33-.45-.78-.78-1.23-.89.78-.89,1.34-1.9,1.56-3.12.11-.67.22-1.45.22-2.12-.45,0-.89,0-1.34.11v-1.45c.45.11.89.11,1.34.11l.11-3.12Zm2.9,3.12v-3.12h-1.56v3.12h1.56Z"/><path class="cls-3" d="m179.94,85.62h1.45v3.9c0,.33.11.45.56.45,1,0,1.11,0,1.23-.33.11-.67.22-1.34.22-2.12.45.22.89.33,1.45.45-.22,3.12-.33,3.23-2.79,3.23-1.67,0-2.01-.22-2.01-1.23v-3.01h-2.01c-.22,1-.78,2.01-1.56,2.68-1,.78-2.12,1.45-3.23,1.78-.22-.45-.56-.89-.89-1.34,1.11-.22,2.12-.78,3.12-1.45.56-.45.89-1,1.11-1.67h-1.9c-.45,0-1,0-1.45.11v-1.45c.45.11,1,.11,1.45.11h2.12c0-.33.11-.56.11-.78s0-.56-.11-.78h1.56c-.11.33-.11.78-.11,1.11v.45l1.67-.11Zm-2.45-5.57c0-.33,0-.56-.11-.89h1.67c0,.33-.11.56-.11.89v.22h3.79c.45,0,1,0,1.45-.11v2.9h-.89c-.11.78-.22,1-.67,1.23-.78.22-1.45.22-2.23.22-1.34,0-1.78-.22-1.78-1v-2.01h-1.11c-.11.67-.33,1.23-.67,1.78-.67.89-1.34,1.23-3.34,1.78-.22-.45-.45-.89-.78-1.23,1,0,1.9-.33,2.68-.89.45-.33.67-.78.78-1.34h-2.23v1.56h-1.45c0-.33.11-.67.11-1v-1.9c.45,0,1,.11,1.45.11h3.57l-.11-.33Zm5.35,1.56h-2.68v1.45c0,.33.11.33.89.33s.89-.11,1-.22c.11-.22.11-.56.11-.78.22.11.45.11.67.22v-1h0Z"/><path class="cls-3" d="m191.32,85.51v1.11h-3.57c0,1.67-.33,3.34-1.23,4.79-.33-.45-.78-.78-1.23-1,.78-1.45,1-2.79,1-6.35,0-.67,0-1.23-.11-1.9h4.91v1.23l.22,2.12Zm-5.35-5.91c.45.11,1,.11,1.45.11h2.9c.45,0,1,0,1.45-.11v1.45c-.45-.11-.89-.11-1.34-.11h-3.12c-.45,0-.89,0-1.34.11v-1.45Zm4.01,5.69v-2.01h-2.12v2.01h2.12Zm3.68-.78c0,1.23-.22,2.45-.56,3.68-.22.78-.67,1.56-1.11,2.12-.22.33-.56.67-.89,1-.33-.45-.67-.78-1.11-1.11.89-.78,1.56-1.78,1.78-3.01.33-1.67.56-3.23.45-4.91v-2.12c1.67,0,3.46-.45,5.02-1.11l.78,1.34c-.22,0-.33.11-.67.22-1.23.33-2.45.67-3.68.78v1.67h3.01c.45,0,.89,0,1.34-.11v1.56c-.45,0-.78-.11-1.23-.11h-.22v5.35c0,.45,0,1,.11,1.45h-1.56c.11-.45.11-1,.11-1.45v-5.35l-1.56.11h0Z"/><path class="cls-3" d="m356.65,84.84c0,1.23-.33,2.45-.89,3.57-.78,1.23-2.01,2.23-3.46,2.68-.22-.56-.67-1.11-1.11-1.45,1.34-.33,2.45-1.11,3.12-2.23.33-.78.56-1.67.56-2.56h-3.23c-.56,0-1.11,0-1.67.11v-1.56c.56.11,1.11.11,1.67.11h7.8c.56,0,1.11,0,1.67-.11v1.56c-.56-.11-1.11-.11-1.67-.11,0,0-2.79,0-2.79,0Zm3.12-4.46c.45.56.67,1.23.89,1.9l-1,.45c-.22-.67-.45-1.23-.89-1.9v.67c-.56-.11-1.11-.11-1.67-.11h-4.01c-.56,0-1.11,0-1.67.11v-1.67c.56.11,1.11.11,1.67.11h4.01c.56,0,1.11,0,1.67-.11v.78l1-.22Zm1.34,1.78c-.22-.67-.56-1.23-.89-1.9l1-.33c.45.56.67,1.11.89,1.78l-1,.45Z"/><path class="cls-3" d="m363.34,84.29c.67.11,1.45.11,2.12.11h7.14c.67,0,1.45,0,2.12-.11v1.9c-.78-.11-1.45-.11-2.23-.11h-7.14c-.78,0-1.45,0-2.23.11l.22-1.9Z"/><path class="cls-3" d="m387.43,81.61c-.22.22-.33.56-.45.89-.45,1.23-1,2.45-1.67,3.68-1.45,2.34-3.57,4.13-6.13,5.13-.22-.56-.67-1-1.11-1.34.89-.33,1.78-.78,2.56-1.34.78-.56,1.56-1.11,2.23-1.9-.89-.78-1.78-1.34-2.79-1.9l1-1.23c1,.56,1.9,1.11,2.68,1.78.67-1,1.11-2.01,1.45-3.12h-4.13c-.78,1.34-1.9,2.56-3.12,3.57-.33-.45-.78-.89-1.34-1.11,1.34-1,2.56-2.34,3.34-3.79.33-.56.56-1.23.78-1.9l1.78.33q-.11.22-.45.78c-.11.22-.22.45-.33.67h3.46c.45,0,.78,0,1.23-.11l1,.89Z"/><path class="cls-3" d="m397.46,82.06v-1c0-.45,0-1-.11-1.45h1.67c0,.33-.11.56,0,.89v1.56h.89c.56,0,1.11,0,1.78-.11v1.67c-.56-.11-1.11-.11-1.67-.11h-.89c0,.78,0,1.45-.11,2.23-.11,1.45-.78,2.9-1.9,3.79-.78.67-1.67,1.11-2.56,1.45-.22-.56-.56-1-1-1.45.89-.22,1.78-.67,2.56-1.23.89-.78,1.45-2.01,1.45-3.23v-1.56h-3.46v3.12h-1.78v-3.12h-.78c-.56,0-1.11,0-1.67.11v-1.67c.56.11,1.11.11,1.67.11h1v-1.34c0-.45,0-.78-.11-1.23h1.78v2.45l3.23.11Z"/><path class="cls-3" d="m414.18,80.5c-.22.11-.33.33-.45.45-1,1-2.01,1.9-3.12,2.79v5.69c0,.45,0,1,.11,1.45h-1.9c.11-.45.11-1,.11-1.45v-4.68c-1.45.89-3.12,1.67-4.79,2.12-.22-.56-.56-1.11-.89-1.56,2.56-.67,4.91-1.9,7.02-3.46,1-.67,1.78-1.56,2.45-2.45l1.45,1.11Z"/><path class="cls-3" d="m423.33,87.97h3.23c.56,0,1.11,0,1.78-.11v1.67c-.56-.11-1.11-.11-1.67-.11h-8.03c-.56,0-1.11,0-1.67.11v-1.67c.56.11,1.11.11,1.78.11h3.01v-5.46h-2.01c-.56,0-1.11,0-1.67.11v-1.67c.56.11,1.11.11,1.78.11h5.91c.56,0,1.11,0,1.78-.11v1.56c-.56-.11-1.11-.11-1.67-.11h-2.23l-.33,5.57Z"/><path class="cls-3" d="m430.79,88.75c1.34-.11,2.68-.45,3.9-1,1.56-.67,3.01-1.78,4.01-3.23.56-.78,1-1.67,1.34-2.68.45.56.89,1,1.45,1.34-.89,2.12-2.34,3.9-4.24,5.24-1.56,1-3.23,1.67-5.13,2.01-.33,0-.56.11-.89.22l-.45-1.9Zm1.11-8.36c1.23.78,2.45,1.56,3.46,2.56l-1.11,1.45c-1-1.11-2.12-2.01-3.46-2.68l1.11-1.34Z"/><path class="cls-3" d="m453.76,90.75c-1.23-1.45-2.56-2.79-4.13-4.01-1.45,1.67-3.12,2.9-5.13,3.9-.33-.56-.67-1-1.11-1.45,1-.33,1.9-.89,2.68-1.45,2.01-1.34,3.46-3.23,4.46-5.46l.11-.33-4.46.11c-.45,0-1,0-1.45.11v-1.67c.45.11.78.11,1.23.11h.33l4.68-.11c.45,0,.78,0,1.23-.11l.89.89c-.22.22-.33.45-.45.78-.56,1.34-1.23,2.56-2.12,3.68.89.56,1.67,1.23,2.45,1.9q.33.33,2.01,1.9l-1.23,1.23Z"/><path class="cls-3" d="m352.64,95.1c0-.45,0-.89-.11-1.34h1.67c-.11.45-.11.89-.11,1.34v.89h3.01v-.89c0-.45,0-.89-.11-1.34h1.67c-.11.45-.11.89-.11,1.45v.89h1.11c.56,0,1,0,1.56-.11v1.56c-.56,0-1-.11-1.56-.11h-1.11v2.9h1.34c.56,0,1.11,0,1.78-.11v1.67c-.56-.11-1.11-.11-1.67-.11h-8.7c-.56,0-1.11,0-1.67.11v-1.67c.56.11,1.11.11,1.67.11h1.34v-2.79h-1c-.45,0-1,0-1.45.11v-1.56c.45.11,1,.11,1.45.11h1v-1.11h0Zm2.01,7.69c-.56.78-1.23,1.45-2.01,2.01-.56.45-1.23.78-2.01,1.11-.33-.45-.67-.89-1-1.23.78-.22,1.56-.67,2.23-1.11.56-.45,1.11-.89,1.56-1.45l1.23.67Zm2.45-2.45v-2.9h-3.01v2.9h3.01Zm.78,1.67c.56.67,1.11,1.23,1.78,1.56.67.45,1.34.78,2.12,1-.45.33-.78.78-1,1.34-.89-.33-1.67-.89-2.34-1.45-.67-.45-1.23-1-1.78-1.67l1.23-.78Z"/><path class="cls-3" d="m363.46,95.32v-1.34c.22,0,.89.11,1.56.11h8.36c.67,0,1.11,0,1.45-.11,0,.45-.11,1,0,1.45v8.92c0,1.11-.45,1.34-2.23,1.34h-1.45c0-.45-.22-1-.33-1.45.67.11,1.23.11,1.9.11.56,0,.67,0,.67-.33v-8.7h-8.14v8.92c0,.56,0,1,.11,1.56h-1.67c.11-.56.11-1.11.11-1.56l-.33-8.92Zm2.12,1c.45.11.78.11,1.23.11h4.57c.45,0,.78,0,1.23-.11v1.45h-7.02v-1.45Zm6.24,6.13v.89h-4.13v1h-1.45c0-.45.11-.78,0-1.23v-4.35h5.57v3.68Zm-4.13-.45h2.68v-1.9h-2.68v1.9Z"/><path class="cls-3" d="m378.95,95.77c-.89.22-1.11.22-2.01.33-.11-.45-.33-.89-.56-1.34,1.78-.11,3.57-.56,5.13-1.34l.89,1.23c-1,.33-1.56.56-2.12.67v1.67h1.11c.33,0,.78,0,1.11-.11v1.45c-.33,0-.78-.11-1.11-.11h-1c.56,1,1.23,1.78,2.12,2.45-.33.45-.56.89-.67,1.34-.67-.67-1.23-1.34-1.56-2.12,0,.45.11,1,.11,1.67v2.34c0,.56,0,1.11.11,1.67h-1.56c.11-.56.11-1.11.11-1.67v-2.23c0-.56,0-1.11.11-1.56-.22.67-.56,1.34-.89,1.9s-.67,1-1.11,1.45c-.22-.45-.45-1-.78-1.45.56-.56,1.11-1.11,1.45-1.78s.78-1.34,1-2.01h-1c-.45,0-.78,0-1.23.11v-1.45c.45.11.89.11,1.23.11h1.23l-.11-1.23Zm5.91-1.23c-.11.56-.11,1.11-.11,1.56v5.02c0,.56,0,1,.11,1.56h-1.56c.11-.56.11-1,.11-1.56v-5.13c0-.56,0-1.11-.11-1.56l1.56.11h0Zm3.23-.78c-.11.56-.11,1.23-.11,1.78v8.58c0,.67-.11,1.11-.56,1.34-.56.22-1.23.33-1.9.22h-1c-.11-.56-.22-1-.45-1.45.56.11,1.23.11,1.78.11s.67,0,.67-.45v-8.36c0-.67,0-1.23-.11-1.78h1.67Z"/><path class="cls-3" d="m392.11,101.68c-.11,1.45-.56,2.9-1.34,4.24-.45-.45-.78-.78-1.34-1.11.45-.67.78-1.45,1-2.23.11-.67.22-1.34.22-2.01.11-1.11.11-3.01.11-4.57,0-.67,0-1.34-.11-1.9h10.59c0,.56-.11,1,0,1.56v8.81c0,1.11-.45,1.34-1.9,1.34h-1.45c-.11-.45-.22-1-.33-1.34.67.11,1.23.11,1.67.11s.67-.11.67-.33v-2.34h-3.23v2.23c0,.56,0,1.11.11,1.56h-1.56c.11-.56.11-1,.11-1.56v-2.23l-3.23-.22Zm3.12-3.12h-2.9v1.9h3.01l-.11-1.9Zm0-3.12h-2.9v1.67h2.9v-1.67Zm4.57,1.78v-1.78h-3.23v1.78h3.23Zm0,3.12v-1.78h-3.23v1.78h3.23Z"/><path class="cls-3" d="m405.6,94.66c0-.33,0-.67-.11-1h1.56c0,.33-.11.67-.11,1h4.24c0-.33,0-.67-.11-1h1.56c0,.33-.11.67-.11,1h.89c.45,0,1,0,1.45-.11v1.34c-.45,0-1-.11-1.45-.11h-.89v3.79h1.11c.45,0,1,0,1.45-.11v1.34c-.45-.11-1-.11-1.45-.11h-1.45c.89.78,2.01,1.23,3.23,1.45-.22.45-.45.89-.67,1.45-.89-.33-1.67-.67-2.45-1.23v.89h-2.79v.89h3.23c.45,0,1,0,1.45-.11v1.45c-.56-.11-1-.11-1.56-.11h-7.47c-.56,0-1.11,0-1.56.11v-1.45c.56,0,1,.11,1.56.11h3.01v-.89h-2.56v-.89c-.78.56-1.56,1-2.34,1.34-.11-.45-.33-1-.67-1.34,1.11-.22,2.23-.78,3.12-1.56h-1.34c-.45,0-1,0-1.45.11v-1.34c.45.11,1,.11,1.45.11h1.11v-3.79h-.78c-.56,0-1,0-1.45.11v-1.45c.45.11,1,.11,1.45.11,0,0,.89,0,.89,0Zm2.01,6.13c-.33.45-.78.89-1.23,1.23h2.01c0-.33,0-.67-.11-.89h1.56c0,.33-.11.67-.11.89h2.23c-.56-.33-1-.78-1.34-1.23h-3.01Zm3.68-4.46v-.45h-4.24v.56l4.24-.11Zm0,1.56v-.56h-4.24v.56h4.24Zm0,1.67v-.56h-4.24v.56h4.24Z"/><path class="cls-3" d="m428.23,97.89l-.11.11c0,.11-.11.11-.11.22-.45.56-1,1.11-1.67,1.56.78.33,1.56.56,2.34.56-.22.33-.45.78-.56,1.23-1-.22-2.01-.56-2.9-1.11-.78.45-1.56.67-2.45.89-.22-.33-.45-.67-.78-1,0,.22-.11.45-.33.67-.33.22-.78.33-1.23.22h-.78c0-.33-.11-.67-.22-1,.33,0,.67.11,1,.11.11,0,.22,0,.22-.11v-2.01l-.56.11v1.67h-1.11c.11-.22.11-.56.11-.78v-.78l-.67.11c-.11,1.23-.45,2.34-1.11,3.23-.33-.33-.67-.67-1-.89.56-.67.89-1.45.89-2.23l-.78.11-.11-1.34h1.11v-1.78c0-.45,0-.78-.11-1.23.45,0,.89.11,1.34.11h.11c.11-.33.33-.67.33-1l1.45.22q-.22.56-.45.78h.45c.56,0,1.11,0,1.34-.11v2.56l.45-.11v1.11l-.45.11v2.23c.67-.11,1.45-.33,2.12-.56-.33-.33-.67-.56-1-.89l1.11-.45h-1.45v-1.11h.45c-.22-.33-.56-.67-.89-.89.33-.11.56-.33.78-.56.22-.45.33-.89.33-1.34v-.56h3.34v1.78q0,.22.33.22c.33,0,.45,0,.45-.22v-.89c.33.22.67.33,1.11.33,0,.89-.11,1.23-.33,1.45s-.67.33-1.34.33c-1.23,0-1.45-.11-1.45-.78v-1.11h-1.11c0,.67-.22,1.23-.67,1.67-.22.22-.33.33-.56.45h4.24l.89.67Zm-10.37,4.68v-1.11h9.48v2.79h1.45v1.34c-.45,0-1-.11-1.56-.11h-9.14c-.56,0-1.11,0-1.56.11v-1.34h1.45l-.11-1.67Zm.78-7.14v1.9c1.11-.11,1.67-.11,2.23-.22v-1.78l-2.23.11Zm1.11,1.67c-.22-.45-.56-.78-.89-1.11l.78-.45c.33.33.67.67.89,1.11l-.78.45Zm-.56,7.25h1.34v-1.56h-1.34v1.56Zm2.68,0h1.45v-1.56h-1.45v1.56Zm2.34-6.02c.22.33.56.56,1,.78.33-.22.67-.45,1-.78h-2.01Zm.22,6.02h1.45v-1.56h-1.45v1.56Z"/><path class="cls-3" d="m436.7,100.34v3.46c0,.22,0,.33.22.45.33.11.78.11,1.23.11,1.9,0,2.23,0,2.34-.22s.22-.45.22-1.45c.45.22.89.33,1.34.45-.11,1.23-.33,1.78-.67,2.12s-.89.33-3.01.33c-2.34,0-2.9-.22-2.9-1.34v-3.68c-.11,0-.33.11-.45.22l-.33-1.34h.11c.22,0,.45-.11.67-.11v-1.23l-.33.45c-.22-.45-.67-.78-1-1,.22-.22.45-.45.56-.67h-2.34v1.45h2.23v1.23c0,.89,0,2.56-.11,3.34,0,.89-.11,1.78-.56,2.56-.33.33-.78.45-1.23.33h-.78c0-.45-.11-1-.22-1.45h.22c.22,0,.45.11.78.11s.45-.11.56-.89c.11-1.34.22-2.68.22-4.01h-1.11c-.11,1.11-.22,2.23-.45,3.34-.22,1.11-.78,2.12-1.34,3.01-.22-.45-.56-.89-1-1.23.78-1.11,1.23-2.45,1.34-3.79.22-1.34.22-2.68.22-4.13h-.11c-.33,0-.78,0-1.11.11v-1.45c.45.11.78.11,1.23.11h.78v-.78c0-.33,0-.78-.11-1.11h1.56c0,.33-.11.78-.11,1.11v.67h.56c.45,0,.78,0,1.23-.11v1c.56-.89,1-1.9,1.34-2.9l1.56.33c-.11.11-.22.33-.22.45l-.33.78h3.46c.45,0,.89,0,1.34-.11v1.45h-5.35c-.22.45-.45.78-.78,1.23h1c-.11.33-.11.67-.11,1v.33l1.11-.22v-1.9h1.34c-.11.33-.11.67-.11,1v.45l1.34-.33.45-.11.33-.11c.11,0,.33-.11.45-.11-.11,3.23-.11,4.13-.33,4.57s-.45.56-1.23.56h-.56c0-.45-.11-.89-.33-1.23.22,0,.45.11.67.11s.33-.11.33-.67v-1.45l-1.23.33v3.46h-1.34c0-.33.11-.78,0-1.11v-2.12l-1.12.33Z"/><path class="cls-3" d="m443.28,95.77c.33.11.78.11,1.11.11h3.79v1.34h-4.91v-1.45Zm11.59,4.13c-.11.22-.22.33-.22.56-.45,1-1,2.01-1.78,2.79.89.56,1.9,1,3.01,1.23-.33.45-.56.89-.67,1.45-1.23-.33-2.34-.89-3.34-1.67-1,.78-2.12,1.34-3.23,1.78-.22-.45-.45-.78-.67-1.11v1h-1.34v-.45h-1.56v.45h-1.34c.11-.45.11-.89.11-1.34v-2.01c0-.33,0-.67-.11-1h4.24v3.01c1-.22,2.01-.67,2.79-1.34-.78-.78-1.34-1.78-1.67-2.79h-.56v-1.34c.33,0,.56.11.89.11h4.79l.67.67Zm-11.15-6.02c.33,0,.78.11,1.11.11h1.9c.33,0,.78,0,1.11-.11v1.34h-4.13v-1.34Zm0,3.9h4.13v1.23h-4.13v-1.23Zm0,1.9h4.13v1.23h-4.13v-1.23Zm1.23,4.46h1.56v-1.34h-1.56v1.34Zm5.69-8.81c0,.89-.11,1.78-.56,2.56-.22.45-.56.89-1,1.23-.33-.33-.67-.67-1.11-.89,1.11-.78,1.34-1.56,1.34-3.34,0-.33,0-.56-.11-.89h4.24c0,.33-.11.78,0,1.11v1.9c0,.22.11.22.45.22q.56,0,.67-1.56c.33.22.78.33,1.23.45-.11,2.23-.33,2.34-2.01,2.34-1.34,0-1.56-.11-1.56-.89v-2.34l-1.56.11Zm-.33,5.13c.33.78.78,1.34,1.34,1.9.56-.56,1-1.23,1.34-1.9h-2.68Z"/><path class="cls-5" d="m254.64,310.72h7.02c2.68,0,4.79,1.23,4.79,3.68.11,1.78-1.11,3.46-2.9,3.79h0c1.23.33,1.34,1.45,2.12,3.23l1.45,4.01h-4.01l-.89-2.68c-.78-2.56-1.34-3.23-2.79-3.23h-.78v5.91h-3.9l-.11-14.72Zm4.01,6.13h1c1.23,0,2.9,0,2.9-1.67,0-1.34-1.34-1.67-2.9-1.67h-1v3.34Z"/><path class="cls-5" d="m275.82,310.5c4.91,0,7.36,2.9,7.36,7.69s-2.56,7.69-7.36,7.69-7.36-2.9-7.36-7.69,2.45-7.69,7.36-7.69Zm0,12.38c2.34,0,3.34-2.34,3.34-4.68s-1-4.68-3.34-4.68-3.34,2.12-3.34,4.68.89,4.68,3.34,4.68h0Z"/><path class="cls-5" d="m285.64,310.72h3.9v14.83h-3.9v-14.83Z"/><path class="cls-5" d="m292.55,321.87c1.23.67,2.68,1,4.01,1,1.23,0,2.45-.22,2.45-1.45,0-2.79-7.02-1-7.02-6.35,0-3.57,3.46-4.57,6.47-4.57,1.34,0,2.56.22,3.79.56l-.22,3.01c-1-.45-2.12-.67-3.34-.67-1,0-2.68.11-2.68,1.34,0,2.34,7.02.78,7.02,6.13,0,3.79-3.23,4.91-6.47,4.91-1.45,0-3.01-.22-4.46-.67l.45-3.23Z"/><path class="cls-5" d="m205.47,337.15c.33-1.11.45-2.34.45-3.57l1,.22c0,1.23-.11,2.56-.45,3.79l-1-.45Zm3.12,4.57c0,.67,0,1.11.11,1.67h-1.56c.11-.56.11-1.11.11-1.67v-9.25c0-.45,0-1-.11-1.45h1.56c-.11.45-.11,1-.11,1.45v1.11l.78-.33c.33.56.56,1.11.67,1.78l-.33.11h3.12v-.56h-2.68v-1.23c.33,0,.78.11,1.11,0h1.56v-.45h-1.78c-.45,0-.89,0-1.34.11v-1.23c.45.11.89.11,1.34.11h1.67c0-.33,0-.67-.11-.89h1.56c-.11.33-.11.56-.11.89h2.01c.45,0,.89,0,1.34-.11v1.23c-.45-.11-.89-.11-1.34-.11h-2.12v.45h3.01v1.23c-.33,0-.78-.11-1.11,0h-1.9v.56h2.34c.45,0,.89,0,1.34-.11v1.34c-.45-.11-.89-.11-1.34-.11h-5.69c-.45,0-.89,0-1.34.11v-1.23l-.45.22c-.11-.56-.22-1-.45-1.45l.22,7.8Zm2.9.11c0,.56,0,1,.11,1.56h-1.56c.11-.56.11-1,.11-1.56v-5.02h7.02c0,.45-.11.89-.11,1.34v3.79c0,1-.33,1.23-1.67,1.23h-1.23c0-.45-.11-.89-.33-1.23.45.11.89.11,1.34.11s.45,0,.45-.33v-.45h-4.13v.56Zm4.13-3.34v-.56h-4.13v.56h4.13Zm0,1.67v-.56h-4.13v.56h4.13Z"/><path class="cls-5" d="m223.87,334.58c.33,0,.78,0,1.11-.11v1.45c-.22,0-.45-.11-.78,0-.11.56-.22,1-.45,1.45h.11c.33,0,.67,0,1-.11v1.45c-.33,0-.78-.11-1.11,0h-1v1.11h2.01v1.45c-.33,0-.78-.11-1.11,0h-.89v1c0,.45,0,.89.11,1.34h-1.45c.11-.45.11-.89.11-1.34v-1h-2.12v-1.45c.33,0,.78.11,1.11,0h1v-1.11h-2.45v-1.45c.33.11.78.11,1.23.11h.11c-.11-.56-.22-1-.33-1.45h-1v-1.45c.33,0,.78.11,1.23.11h1.23v-1h-2.01v-1.34h2.01v-.22c0-.33,0-.67-.11-1h1.45v1.23h1.9v1.34c-.33,0-.78-.11-1.11,0h-.78v1h1Zm-1.23,2.79c.22-.45.33-1,.45-1.45h-1.56c.11.45.22,1,.33,1.45h.78Zm8.47-.89c-.11.22-.11.33-.11.56-.22,1.11-.56,2.23-1.11,3.34.56.67,1.11,1.11,1.78,1.56-.33.45-.56.89-.78,1.45-.67-.56-1.34-1.11-1.78-1.78-.45.67-1,1.23-1.56,1.67-.22-.33-.45-.78-.78-1.11,0,.45,0,.78.11,1.23h-1.67c.11-.56.11-1,.11-1.56v-8.92c0-.45,0-1-.11-1.34.45,0,.89.11,1.23.11h3.34c.45,0,.78,0,1.23-.11,0,.45,0,.56-.11.89-.11,2.45-.33,2.79-1.78,2.79-.45,0-.78,0-1.23-.11,0-.45-.11-.89-.33-1.23.45.11.89.11,1.34.11s.45-.11.56-1.11h-2.9v2.9h3.68l.89.67Zm-4.46,5.46c.56-.45,1.11-1,1.45-1.56-.67-1-1-2.12-1.23-3.34h-.22v4.91Zm1.45-4.91c.11.78.45,1.45.78,2.12.33-.67.56-1.45.67-2.12h-1.45Z"/><path class="cls-5" d="m240.15,337.15c0,.89-.78,1.56-1.56,1.56-.89,0-1.56-.78-1.56-1.56,0-.89.78-1.56,1.56-1.56.89,0,1.56.67,1.56,1.56h0Z"/><path class="cls-5" d="m247.62,334.92c1.23.45,2.45,1.11,3.57,1.78l-.89,1.56c-1.11-.78-2.34-1.45-3.57-2.01l.89-1.34Zm-.56,6.02c1.34-.11,2.68-.33,3.9-.89,1.56-.56,2.9-1.56,3.9-2.9.67-.89,1.23-1.9,1.56-2.9.45.45.89.89,1.34,1.23-.45,1.23-1.11,2.34-2.01,3.34-1.9,2.12-4.46,3.46-7.25,3.79-.45.11-.67.11-.89.22l-.56-1.9Zm1.67-9.25c1.23.45,2.45,1,3.57,1.67l-.89,1.45c-1.11-.78-2.34-1.34-3.57-1.78l.89-1.34Z"/><path class="cls-5" d="m269.8,342.72c-1.23-1.45-2.56-2.79-4.13-4.01-1.45,1.67-3.12,2.9-5.13,3.9-.33-.56-.67-1-1.11-1.45,1-.33,1.9-.89,2.68-1.45,2.01-1.34,3.46-3.23,4.46-5.46l.11-.33-4.46.11c-.45,0-1,0-1.45.11v-1.67c.45.11.78.11,1.23.11h.33l4.68-.11c.45,0,.78,0,1.23-.11l.89.89c-.22.22-.33.45-.45.67-.56,1.34-1.23,2.56-2.12,3.68.89.56,1.67,1.23,2.45,1.9q.33.33,2.01,1.9l-1.23,1.34Z"/><path class="cls-5" d="m279.84,336.81c0,1.23-.33,2.45-.89,3.57-.78,1.23-2.12,2.23-3.57,2.68-.22-.56-.67-1.11-1.11-1.45,1.34-.33,2.45-1.11,3.23-2.23.33-.78.56-1.67.56-2.56h-3.23c-.56,0-1.11,0-1.67.11v-1.56c.56.11,1.11.11,1.67.11h7.8c.56,0,1.11,0,1.78-.11v1.56c-.56-.11-1.11-.11-1.67-.11h-2.9Zm-5.35-4.91c.56.11,1.11.11,1.67.11h5.13c.56,0,1.11,0,1.78-.11v1.67c-.56-.11-1.11-.11-1.67-.11h-5.13c-.56,0-1.11,0-1.67.11v-1.67h-.11Z"/><path class="cls-5" d="m292.55,331.8c-.11.33-.22.67-.33,1-1,3.34-1.78,5.57-2.68,7.58,1.9-.11,3.68-.33,5.57-.67-.11-.33-.33-.56-.67-1.23-.33-.78-.78-1.45-1.34-2.12l1.56-.56c1.34,1.9,2.34,4.01,3.23,6.13l-1.67.89c-.22-.56-.33-1.11-.67-1.67l-.45.11c-1.34.22-3.57.56-7.58,1-.45,0-.78.11-1.23.11l-.22-1.78h1.45c.78-1.78,1.34-3.57,1.9-5.35.45-1.23.78-2.45,1-3.68l2.12.22Z"/><path class="cls-5" d="m300.69,332.8c-.33,0-.78,0-1.11.11v-1.45c.45.11.89.11,1.34.11h2.34c.45,0,.89,0,1.23-.11v1.45h-1.78c-.11,1-.45,2.01-.89,2.9h2.45v6.58h-1.34v-.67h-1.11v1.34h-1.45c.11-.45.11-.89.11-1.34v-3.79c-.22.45-.45.89-.89,1.23-.11-.56-.22-1.11-.56-1.67.78-.78,1.34-1.78,1.67-2.9.22-.56.33-1.23.45-1.78h-.45Zm1,7.69h1.11v-3.46h-1.11v3.46Zm4.24-7.69c-.33,0-.78,0-1.11.11v-1.45c.45.11,1,.11,1.45.11h3.9c.45,0,1,0,1.45-.11v1.45c-.45-.11-.89-.11-1.34-.11v3.12h.11c.45,0,.89,0,1.34-.11v1.45c-.45,0-.89-.11-1.34-.11h-.11v4.35c0,.56,0,1.11.11,1.67h-1.56c0-.56.11-1.11.11-1.67v-4.35h-1.56c0,.89-.11,1.78-.33,2.68-.22,1.23-.78,2.45-1.67,3.46-.33-.45-.78-.78-1.23-1,.78-.89,1.34-1.9,1.56-3.12.11-.67.22-1.45.22-2.12-.45,0-.89,0-1.34.11v-1.45c.45.11.89.11,1.34.11v-3.01Zm2.9,3.23v-3.12h-1.56v3.12h1.56Z"/><path class="cls-5" d="m320.42,337.59h1.45v3.9c0,.33.11.45.56.45,1,0,1.11,0,1.23-.33.11-.67.22-1.34.22-2.12.45.22.89.33,1.45.45-.22,3.12-.33,3.23-2.79,3.23-1.67,0-2.01-.22-2.01-1.23v-3.01h-2.01c-.22,1-.78,2.01-1.56,2.68-.89.78-2.01,1.45-3.23,1.78-.22-.45-.56-.89-.89-1.34,1.11-.22,2.12-.78,3.12-1.45.56-.45.89-1,1.11-1.67h-1.9c-.45,0-1,0-1.45.11v-1.45c.45.11,1,.11,1.45.11h2.12v-1.56h1.56c-.11.33-.11.78-.11,1.11v.56l1.67-.22Zm-2.45-5.57c0-.33,0-.56-.11-.89h1.67c0,.33-.11.56-.11.89v.22h3.79c.45,0,1,0,1.45-.11,0,.33-.11.67,0,1v2.01h-.89c-.11.78-.22,1-.67,1.23-.78.22-1.45.22-2.23.22-1.34,0-1.78-.22-1.78-1v-2.01h-1.11c-.11.67-.33,1.23-.67,1.67-.56.89-1.34,1.23-3.34,1.78-.22-.45-.45-.89-.78-1.23,1,0,1.9-.33,2.68-.89.33-.33.67-.78.67-1.34h-2.23v1.56h-1.45c0-.33.11-.67.11-1v-1.9c.45,0,1,.11,1.45.11h3.57v-.33Zm5.35,1.56h-2.68v1.45c0,.33.11.33.89.33s.89-.11,1-.22c.11-.22.11-.56.11-.78.22.11.45.11.67.22v-1Z"/><path class="cls-5" d="m337.26,331.68c-.33.56-.67,1.11-1.11,1.67.11.22.22.22.33.45.22-.45.45-.56.78-1.34l1,.67q-.22.33-.89,1.23c-.33.45-.67.78-1.11,1.23l1-.11c-.11-.22-.11-.33-.22-.56l.89-.33c.33.67.56,1.34.78,2.12l-.89.33-.11-.67-1,.11c.22.11.45.33.67.56l-.56.45h.33c.45,0,.89,0,1.45-.11v1.45c-.45-.11-.89-.11-1.45-.11h-.45l1,.67c-.45.56-.89,1.11-1.45,1.56.45.56.78.78.89.78s.33-.33.56-1.67c.33.33.67.56,1,.78,0,.67-.22,1.34-.56,1.9-.22.33-.56.45-.89.45-.67,0-1.23-.45-2.01-1.45-.89.67-1.9,1.11-2.9,1.56-.22-.45-.45-.89-.78-1.23,1.11-.22,2.12-.67,3.12-1.34-.33-.67-.56-1.34-.67-2.12h-1.78v.45c.45.45.89.89,1.45,1.11-.11.22-.22.33-.33.56l-.33.56c-.45-.22-.78-.56-1.11-.89-.33,1-.89,2.01-1.67,2.79-.33-.33-.67-.67-1.11-1,1.11-.89,1.78-2.12,1.78-3.57h-1v-1.34h3.9c0-.45-.11-.56-.11-.78l-.78.22v-.45l-.89.11c-1,.11-1.67.22-1.9.22v-.45c-.11.33-.33.56-.45.89-.22-.45-.45-.78-.67-1.23v5.57c0,.56,0,1.11.11,1.67h-1.45c.11-.56.11-1.11.11-1.67v-2.34c0-.56,0-1.11.11-2.23-.22,1-.67,2.01-1.11,3.01-.11-.56-.33-1-.67-1.45.45-.67.78-1.34,1-2.12.22-.56.45-1.23.56-1.78h-1.23v-1.45c.33.11.56.11.89.11h.45v-1.11c0-.45,0-.89-.11-1.45h1.45v2.45h.89l-.33-.22.78-.89.33.22c.33-.45.67-1,.89-1.56l1.11.56c-.33.67-.67,1.23-1.11,1.9l.33.45c.33-.33.56-.78.67-1.23l1,.67v-.67c0-.56,0-1-.11-1.56h1.45c-.11.33-.11.56-.11.89v.89l.45-.56.33.33c.33-.45.56-.89.78-1.45l.78.89Zm-7.36,3.23h-1c.22.45.45.89.78,1.34v-.33h.45c.33-.33.56-.67.89-1-.33-.45-.67-.89-1.11-1.23v1.23Zm3.12-.11c.22.45.22.56.33.89-.11-1.11-.11-1.67-.11-2.34l-.33.45c-.45.67-1,1.34-1.56,2.01.33,0,.67,0,1-.11-.11-.22-.11-.33-.22-.56l.89-.33Zm1.56-1.34q0,1.23.11,2.23h.22c.33-.33.56-.67.89-1-.45-.45-.78-.89-1.23-1.23Zm1.34,3.12h-.22l-.56.11h-.33q0,.33.11.89h1.45c-.22-.22-.56-.45-.89-.56l.45-.45Zm-.78,2.23c.11.45.22.89.45,1.23.45-.33.78-.78,1-1.23h-1.45Z"/><path class="cls-5" d="m343.94,338.04v-1c-.33.22-.56.56-.67.89-.33-.45-.56-.89-.78-1.45,0,.45.11,1,.11,1.9v3.34c0,.56,0,1.11.11,1.67h-1.56c.11-.56.11-1.11.11-1.67v-2.56c0-.56,0-1.23.11-1.78-.33.89-.67,1.78-1.23,2.68-.22-.45-.56-.78-.89-1.11.78-1.23,1.45-2.68,1.78-4.13h-1.34v-1.45c.33,0,.56.11.89,0h.67v-1.11c0-.45,0-.89-.11-1.34h1.45c-.11.45-.11.89-.11,1.34v1.11h1.11v1.45h-1c.22.56.45,1,.78,1.45v-1.11c.33,0,.78.11,1.11.11h.67v-.56h-1.34v-1.11c.33,0,.67.11,1,0h.33v-.56h-1.67v-1.11c.33.11.78.11,1.11.11h.56c0-.33,0-.67-.11-1h1.45c-.11.33-.11.67-.11,1h1.67c0-.33,0-.67-.11-1h1.45c-.11.33-.11.67-.11,1h.89c.33,0,.78,0,1.11-.11v1.11c-.33-.11-.78-.11-1.11-.11h-.89v.56h1.56v1.11c-.33,0-.67-.11-1,0h-.56v.56h1c.45,0,.78,0,1.23-.11v1.23c-.45,0-.78-.11-1.23-.11h-2.56v.56h3.01c0,.45-.11.89,0,1.34v2.01c.33,0,.56,0,.89-.11v1.23h-.89v.78c0,1.11-.22,1.23-1.67,1.23h-1c0-.45-.11-.78-.22-1.23.33,0,.78.11,1.11.11.45,0,.56,0,.56-.33v-.56h-4.35v2.23h-1.45c.11-.56.11-1.11.11-1.67v-.56h-.78v-1.11c.22,0,.56.11.78,0l.11-2.01Zm1.11-1.23h1.67v-.56h-3.23c.11.11.22.33.45.45.33.11.56.11,1.11.11Zm1.67,1.67v-.56h-1.56v.56h1.56Zm0,1.67v-.56h-1.56v.56h1.56Zm1.56-6.58v-.56h-1.67v.56h1.67Zm0,1.56v-.56h-1.67v.56h1.67Zm1.34,3.34v-.56h-1.67v.56h1.67Zm0,1.67v-.56h-1.67v.56h1.67Z"/><path class="cls-5" d="m661.13,322.1c.56.22,1.11.33,1.78.33,1.11,0,2.01-.78,2.01-3.23v-8.47h3.9v9.7c0,3.23-1.34,5.35-5.35,5.35-.78,0-1.67-.22-2.45-.45l.11-3.23Z"/><path class="cls-5" d="m671.61,321.87c1.23.67,2.68,1,4.13,1,1.23,0,2.45-.22,2.45-1.45,0-2.79-7.02-1-7.02-6.35,0-3.57,3.46-4.57,6.47-4.57,1.34,0,2.56.22,3.79.56l-.22,3.01c-1-.45-2.12-.67-3.23-.67-1,0-2.68.11-2.68,1.34,0,2.34,7.02.78,7.02,6.13,0,3.79-3.23,4.91-6.47,4.91-1.45,0-3.01-.22-4.46-.67l.22-3.23Z"/><path class="cls-5" d="m687,313.73h-3.57v-2.9h11.26v2.9h-3.68v11.82h-3.9l-.11-11.82Z"/><path class="cls-5" d="m627.13,333.25c-.56.11-.78.11-1.56.22-.11-.45-.22-.89-.56-1.23,1.56,0,3.12-.45,4.57-1.11l.78,1.23-.22.11c-.33.11-1,.33-1.67.56v1.67h.78c.33,0,.67,0,1-.11v1.45c-.33,0-.67-.11-1-.11h-.67c.45.78,1.11,1.56,1.9,2.12-.33.45-.56.89-.67,1.34-.56-.56-1-1.11-1.23-1.78,0,.33,0,.89.11,1.78v2.68c0,.56,0,1.11.11,1.67h-1.56c0-.45.11-1,.11-1.67v-2.23c0-.33,0-.67.11-1.67-.33,1.11-.89,2.12-1.67,3.01-.22-.56-.45-1-.78-1.34.67-.67,1.11-1.34,1.56-2.12.22-.45.45-1,.67-1.56h-.67c-.45,0-.78,0-1.23.11v-1.78c.45.11.78.11,1.23.11h.89v-1.34h-.33Zm7.25-.56v-1.56h1.67c-.11.56-.11,1-.11,1.56v5.8c.45-.11.89-.22,1.23-.33l.11,1.56c-.45,0-.89.11-1.23.22h-.11v2.01c0,.56,0,1,.11,1.56h-1.67c.11-.56.11-1.11.11-1.56v-1.67l-3.01.67c-.56.11-1,.22-1.34.33l-.22-1.56h0c.45,0,.78-.11,1.23-.22l3.23-.67v-6.13Zm-3.23,2.45c.89.67,1.78,1.34,2.56,2.12l-.89,1.23c-.78-.89-1.56-1.56-2.56-2.23l.89-1.11Zm.45-3.34c1,.56,1.78,1.34,2.56,2.12l-.89,1.23c-.67-.89-1.56-1.67-2.56-2.23l.89-1.11Z"/><path class="cls-5" d="m640.06,339.71c-.56,0-1.11,0-1.67.11v-1.45c.56.11,1.11.11,1.67.11h3.68v-.89h.56c.56-.33,1.11-.67,1.56-1.11h-5.02v-1.34c.45,0,.89.11,1.34.11h5.46l.78.78-.45.45c-.78.78-1.78,1.34-2.68,2.01h3.46c.56,0,1.11,0,1.67-.11v1.45c-.56-.11-1.11-.11-1.67-.11h-3.57v2.34c0,.33,0,.56-.22.89s-.67.45-1.9.45h-1.34c-.11-.45-.22-1-.45-1.45.56.11,1.11.11,1.67.11s.67,0,.67-.33v-2.01h-3.57Zm.78-6.58c-.22-.56-.56-1-1-1.56l1.34-.45c.45.56.89,1.23,1.23,1.9h1.45c-.22-.56-.45-1.11-.78-1.67l1.34-.45c.33.67.67,1.34.89,2.12h1.11c.45-.67.78-1.34,1.11-2.01l1.45.45c-.33.56-.67,1.11-1,1.56h2.23v2.34c0,.33,0,.67.11,1h-1.45v-2.12h-8.7v2.12h-1.45c0-.33.11-.67.11-1v-2.34c.56,0,1,.11,1.56,0l.45.11Z"/><path class="cls-5" d="m652.88,334.81c-.33,0-.67,0-1,.11v-1.45c.33.11.67.11,1,.11h.56v-1.11c0-.45,0-.89-.11-1.34h1.56c-.11.45-.11.89-.11,1.34v1.11h1v1.45c-.22,0-.56-.11-.78,0h-.22v2.01l1.11-.45v1.34l-1.11.45v3.79c0,1.11-.33,1.34-1.78,1.34h-.89c0-.45-.11-1-.33-1.34.33.11.78.11,1.11.11.45,0,.56,0,.56-.45v-2.9l-.33.11c-.11.11-.33.11-.45.11l-.56.22-.33-1.45c.56-.11,1.11-.22,1.67-.45v-2.56l-.56-.11Zm6.02-.67h-1.23c-.56,0-1,0-1.56.11v-1.45c.56,0,1,.11,1.56.11h1.23v-1.78h1.56c0,.45-.11.89-.11,1.34v.45h1.78c.56,0,1,0,1.56-.11v1.45c-.56-.11-1-.11-1.56-.11h-1.9v1.67h2.23l.67.78q-.11.22-.45.78c-.56,1.11-1.23,2.12-2.12,2.9,1,.78,2.12,1.34,3.34,1.67-.33.45-.67.89-.78,1.34-1.34-.56-2.56-1.23-3.57-2.12-1.11.89-2.45,1.67-3.9,2.12-.22-.45-.45-1-.78-1.34,1.34-.33,2.56-.89,3.57-1.67-.78-.89-1.45-2.01-1.9-3.12h-.56v-1.45c.45.11.89.11,1.34.11h1.23l.33-1.67Zm-.56,3.01c.33.78.78,1.56,1.45,2.23.67-.67,1.23-1.34,1.67-2.23h-3.12Z"/><path class="cls-5" d="m670.39,332.58c0-.45,0-1-.11-1.45h1.45c-.11.45-.11,1-.11,1.45v1.11h.56c.45,0,.78,0,1.23-.11v1.11h2.68c.33,0,.78,0,1.11-.11v1.45h-1.11v5.69c0,.67-.22,1.11-.67,1.23-.45.11-.89.11-1.34.11h-1.11c0-.45-.11-1-.33-1.45.56.11,1,.11,1.56.11.33,0,.45-.11.45-.33v-5.46h-1.45v-1.11h-1.56v6.69c0,.56,0,1.11.11,1.56h-1.45c.11-.56.11-1.11.11-1.56v-6.69h-2.12c-.33.56-.67,1-.89,1.34v5.35c0,.56,0,1,.11,1.56h-1.45c.11-.56.11-1,.11-1.56v-3.9c-.22.33-.56.67-.89.89-.11-.56-.22-1-.56-1.45.78-.56,1.45-1.34,2.01-2.12.22-.33.45-.78.67-1.23l1,.56v-.89c.45.11.78.11,1.23.11h.89l-.11-.89Zm-1.78-.89c0,.11-.33.33-.67.89-.67.78-1.45,1.56-2.34,2.12-.11-.45-.33-.89-.67-1.23,1-.56,1.78-1.45,2.45-2.45l1.23.67Zm1.34,4.35c0,2.01-.33,4.01-.89,5.91-.33-.22-.67-.33-1.23-.67.33-.67.56-1.45.67-2.23.11-1.11.22-2.12.22-3.23l1.23.22Zm3.01-2.56c-.33-.56-.67-1.23-1.11-1.67l1-.56c.33.45.67.89,1,1.34v-.78c.33,0,.67.11,1,.11h1.23c.33,0,.67,0,1-.11v1.45c-.33,0-.67-.11-1-.11h-1.23c-.33,0-.67,0-1,.11v-.33l-.89.56Zm.22,2.34c.45,1.56.78,3.12,1,4.68l-1.23.45c-.11-1.67-.45-3.23-.89-4.79l1.11-.33Z"/><path class="cls-5" d="m679.42,334.92c-.33,0-.67,0-.89.11v-1.45c.33,0,.67.11.89.11h.45v-1.11c0-.45,0-.89-.11-1.34h1.56c0,.45-.11.89-.11,1.34v1.11h1.11v1.34h-1.12v2.01c.33-.11.56-.22,1-.45v1.34c-.56.22-.67.33-1,.56v3.79c0,1-.33,1.34-1.56,1.34h-1c0-.45-.11-.89-.33-1.34.33,0,.78.11,1.11.11s.33-.11.33-.33v-3.12l-1.11.45-.22.11-.22-1.45c.56-.11,1-.22,1.56-.45v-2.56l-.33-.11Zm8.58,2.23c.11.56.22,1.11.33,1.67.56-.33,1-.78,1.34-1.23l.89.89-1.11.89c-.22.22-.45.33-.78.56.45.89,1.11,1.56,1.9,2.12-.33.33-.67.78-.89,1.23-.89-.78-1.56-1.67-2.12-2.79-.56-1-.78-2.23-.89-3.34h-.78v4.13c.56-.11.89-.22,1.67-.45v1.34c-1.11.33-2.34.67-3.46,1l-.56.11-.33-1.45c.45,0,1-.11,1.45-.11v-4.46h-.78c0,1.23-.22,2.45-.45,3.57-.22.89-.56,1.67-1,2.56-.33-.45-.67-.78-1.11-1.11,1.11-1.9,1.34-3.34,1.34-8.92v-1.67c.45,0,1,.11,1.56.11h4.68c.45,0,1,0,1.45-.11v1.45h-6.35v3.01h5.35c.33,0,.78,0,1.11-.11v1.34h-1l-1.45-.22Zm1.9-2.12c-.33,0-.67-.11-1,0h-4.35v-1.23c.33,0,.56.11.89,0h4.57l-.11,1.23Z"/><path class="cls-5" d="m701.94,339.38v-1.56h-1.11v-1.23h1.11v-1.23h-1.23v-1.23h1.23v-1.23h-1.23v-1.34c.33,0,.56.11.89.11h1.78c0,.33-.11.67-.11,1.34l-.22,6.24h.78v1.34c-.56-.11-1-.11-1.56-.11h-9.03c-.56,0-1,0-1.56.11v-1.34c.33,0,.67.11.89.11l-.22-5.69c0-.45,0-1-.11-1.45.89-.11,1.67-.56,2.34-1l.56.78v-.56c.33,0,.78.11,1.11,0h4.13v7.8l1.56.11Zm-5.13,2.12c-1.23,1-2.68,1.67-4.13,2.01-.22-.45-.45-.78-.78-1.23.67-.11,1.45-.33,2.12-.56.67-.22,1.23-.56,1.78-1l1,.78Zm-1.45-8.92c-.45.22-1,.45-1.45.56v1.11h1.11v1.23h-1.11v1.23h1.11v1.23h-1.11v1.45h1.34l.11-6.8Zm4.01,6.8v-6.69h-2.9v6.69h2.9Zm-.22-4.91h-2.45v-1.11h2.45v1.11Zm-1.67,4.13h-.67v-3.34h2.34v3.57h-.67l-1-.22Zm.22-1.11h.67v-1.34h-.67v1.34Zm2.23,3.12c1.23.89,2.68,1.34,4.13,1.45-.33.33-.56.78-.67,1.23-.78-.11-1.56-.45-2.23-.67-.78-.33-1.56-.67-2.23-1.23l1-.78Z"/><path class="cls-5" d="m716.32,331.68c-.33.56-.67,1.11-1.11,1.67l.33.45c.22-.45.45-.56.78-1.34l1,.67q-.22.33-.89,1.23c-.33.45-.67.78-1.11,1.23l1-.11c-.11-.22-.11-.33-.22-.56l.89-.33c.33.67.56,1.34.78,2.12l-.89.33-.11-.67-1,.11c.22.11.45.33.67.56l-.56.45h.33c.45,0,.89,0,1.45-.11v1.45c-.45-.11-.89-.11-1.45-.11h-.45l1,.67c-.45.56-.89,1.11-1.45,1.56.33.56.78.78.89.78s.33-.33.56-1.67c.33.33.67.56,1,.78,0,.67-.22,1.34-.56,1.9-.22.33-.56.45-.89.45-.67,0-1.34-.45-2.01-1.45-.89.67-1.9,1.11-2.9,1.56-.22-.45-.45-.89-.78-1.23,1.11-.22,2.12-.67,3.12-1.34-.33-.67-.56-1.34-.67-2.12h-1.78v.45c.45.45.89.89,1.45,1.11-.11.22-.22.33-.33.56l-.33.56c-.45-.22-.78-.56-1.11-.89-.33,1-.89,2.01-1.67,2.79-.33-.33-.67-.67-1.11-1,1.11-.89,1.78-2.12,1.78-3.57h-1v-1.34h3.9c0-.45-.11-.56-.11-.78l-.78.22v-.45l-.89.11c-1,.11-1.67.22-1.9.22v-.45c-.11.33-.33.56-.33.89-.22-.45-.45-.78-.67-1.23v5.57c0,.56,0,1.11.11,1.67h-1.45c.11-.56.11-1.11.11-1.67v-2.34c0-.56,0-1.11.11-2.23-.22,1-.67,2.01-1.11,3.01-.11-.56-.33-1-.67-1.45.45-.67.78-1.34,1-2.12.22-.56.45-1.23.56-1.78h-1.23v-1.45c.33.11.56.11.89.11h.45v-1.11c0-.45,0-.89-.11-1.45h1.56v2.45h.89l-.33-.22.78-.89.33.22c.33-.45.67-1,.89-1.56l1.11.56c-.33.67-.67,1.23-1.11,1.9l.33.45c.22-.33.56-.78.67-1.23l.89.67v-.67c0-.56,0-1-.11-1.56h1.45c-.11.33-.11.56-.11.89v.89l.45-.56.33.33c.33-.45.67-.89.78-1.45l.67.89Zm-7.36,3.23h-1c.22.45.45.89.78,1.34v-.33h.45c.45-.56.56-.67.89-1-.33-.45-.67-.89-1.11-1.23v1.23Zm3.12-.11c.22.45.22.56.33.89-.11-1.11-.11-1.67-.11-2.34l-.33.45c-.45.67-1,1.34-1.56,2.01.33,0,.67,0,1-.11-.11-.22-.11-.33-.22-.56l.89-.33Zm1.56-1.34q0,1.23.11,2.23h.22c.33-.33.56-.67.89-1-.45-.45-.78-.89-1.23-1.23h0Zm1.34,3.12h-.22l-.56.11h-.33q0,.33.11.89h1.45c-.22-.22-.56-.45-.89-.56l.45-.45Zm-.78,2.23c.11.45.22.89.45,1.23.45-.33.78-.78,1-1.23h-1.45Z"/><path class="cls-5" d="m723.01,338.04v-1c-.33.22-.56.56-.67.89-.33-.45-.56-.89-.78-1.45,0,.45.11,1,.11,1.9v3.34c0,.56,0,1.11.11,1.67h-1.56c.11-.56.11-1.11.11-1.67v-2.56c0-.56,0-1.23.11-1.78-.33.89-.67,1.78-1.23,2.68-.22-.45-.56-.78-.89-1.11.78-1.23,1.45-2.68,1.78-4.13h-1.34v-1.45c.33,0,.56.11.89,0h.67v-1.11c0-.45,0-.89-.11-1.34h1.45c-.11.45-.11.89-.11,1.34v1.11h1.11v1.45h-1c.22.56.45,1,.78,1.45v-1.11c.33,0,.78.11,1.11.11h.78v-.56h-1.34v-1.11c.33,0,.67.11,1,0h.33v-.56h-1.67v-1.11c.33.11.78.11,1.11.11h.56c0-.33,0-.67-.11-1h1.45c-.11.33-.11.67-.11,1h1.67c0-.33,0-.67-.11-1h1.45c-.11.33-.11.67-.11,1h.89c.33,0,.78,0,1.11-.11v1.11c-.33-.11-.78-.11-1.11-.11h-.89v.56h1.56v1.11c-.33,0-.67-.11-1,0h-.56v.56h.89c.45,0,.78,0,1.23-.11v1.23c-.45,0-.78-.11-1.23-.11h-2.56v.56h3.01v3.34c.33,0,.56,0,.89-.11v1.23h-.89v.78c0,1.11-.22,1.23-1.67,1.23h-1c0-.45-.11-.78-.22-1.23.33,0,.78.11,1.11.11.45,0,.56,0,.56-.33v-.56h-4.35v2.23h-1.45c.11-.56.11-1.11.11-1.67v-.56h-.78v-1.11c.22,0,.56.11.78,0l.11-2.01Zm1.11-1.23h1.67v-.56h-3.23c.11.11.22.33.45.45.33.11.56.11,1.11.11h0Zm1.67,1.67v-.56h-1.45v.56h1.45Zm0,1.67v-.56h-1.45v.56h1.45Zm1.56-6.58v-.56h-1.67v.56h1.67Zm0,1.56v-.56h-1.67v.56h1.67Zm1.34,3.34v-.56h-1.67v.56h1.67Zm0,1.67v-.56h-1.67v.56h1.67Z"/><path class="cls-7" d="m532.47,277.95c0-.45,0-.89-.11-1.34h1.56c-.11.45-.11.89-.11,1.34v.89h3.01v-.89c0-.45,0-.89-.11-1.34h1.67c-.11.45-.11.89-.11,1.45v.89h1.11c.56,0,1,0,1.56-.11v1.56c-.45,0-1-.11-1.56-.11h-1.11v2.9h1.34c.56,0,1.11,0,1.78-.11v1.67c-.56-.11-1.11-.11-1.67-.11h-8.7c-.56,0-1.11,0-1.67.11v-1.67c.56.11,1.11.11,1.67.11h1.34v-2.79h-1c-.45,0-1,0-1.45.11v-1.56c.45.11,1,.11,1.45.11h1l.11-1.11Zm2.01,7.69c-.56.78-1.23,1.45-2.01,2.01-.56.45-1.23.78-2.01,1.11-.33-.45-.67-.89-1-1.23.78-.22,1.56-.67,2.23-1.11.56-.45,1.11-.89,1.56-1.45l1.23.67Zm2.56-2.56v-2.79h-3.01v2.9l3.01-.11Zm.67,1.78c.56.67,1.11,1.23,1.9,1.67.67.45,1.34.78,2.01,1-.45.33-.78.78-1,1.34-.89-.33-1.67-.89-2.34-1.45-.67-.45-1.23-1-1.78-1.67l1.23-.89Z"/><path class="cls-7" d="m543.29,278.17v-1.34c.22,0,.89.11,1.56.11h8.36c.56,0,1.11,0,1.45-.11,0,.45-.11,1,0,1.45v8.92c0,1.11-.45,1.34-2.23,1.34h-1.45c0-.45-.22-1-.33-1.45.67.11,1.23.11,1.9.11.56,0,.67,0,.67-.33v-8.7h-8.14v8.92c0,.56,0,1,.11,1.56h-1.67c.11-.56.11-1.11.11-1.56l-.33-8.92Zm2.12,1c.45.11.78.11,1.23.11h4.57c.45,0,.78,0,1.23-.11v1.45h-6.91l-.11-1.45Zm6.24,6.13v.89h-4.13v1h-1.45v-5.57h5.69v.89l-.11,2.79Zm-4.13-.45h2.68v-1.9h-2.68v1.9Z"/><path class="cls-7" d="m557.45,278.17c-.33,0-.78,0-1.11.11v-1.45c.45.11.89.11,1.34.11h2.34c.45,0,.89,0,1.23-.11v1.45c-.33,0-.78,0-1.11-.11h-.67c-.11,1-.45,2.01-.89,2.9h2.45v6.58h-1.34v-.67h-1.11v1.34h-1.45c.11-.45.11-.89.11-1.34v-3.79c-.22.45-.56.89-.89,1.23-.11-.56-.22-1.11-.56-1.67.78-.78,1.34-1.78,1.67-2.9.22-.56.33-1.23.45-1.78l-.45.11Zm1,7.69h1.11v-3.46h-1.11v3.46Zm4.24-7.69c-.33,0-.78,0-1.11.11v-1.45c.45.11,1,.11,1.45.11h3.9c.45,0,1,0,1.45-.11v1.45c-.45-.11-.89-.11-1.34-.11v3.12h.11c.45,0,.89,0,1.34-.11v1.45c-.45,0-.89-.11-1.34-.11h-.11v4.35c0,.56,0,1.11.11,1.67h-1.56c0-.56.11-1,.11-1.67v-4.35h-1.56c0,.89-.11,1.78-.33,2.68-.22,1.23-.78,2.45-1.67,3.46-.33-.45-.78-.78-1.23-1,.78-.89,1.34-1.9,1.56-3.12.11-.67.22-1.45.22-2.12-.45,0-.89,0-1.34.11v-1.45c.45.11.89.11,1.34.11v-3.01Zm3.01,3.12v-3.12h-1.56v3.12h1.56Z"/><path class="cls-7" d="m577.29,282.96c.67,0,1,0,1.45-.11v3.9c0,.33.11.45.56.45,1,0,1.11,0,1.23-.33.11-.67.22-1.34.22-2.12.45.22.89.33,1.45.45-.22,3.12-.33,3.23-2.79,3.23-1.67,0-2.01-.22-2.01-1.23v-2.9h-2.12c-.22,1-.78,2.01-1.56,2.68-.89.78-2.01,1.45-3.23,1.78-.22-.45-.56-.89-.89-1.34,1.11-.22,2.12-.78,3.12-1.45.56-.45.89-1,1.11-1.67h-1.9c-.56,0-1,0-1.56.11v-1.45c.45.11,1,.11,1.45.11h2.12v-1.56h1.56c-.11.33-.11.78-.11,1.11v.45l1.9-.11Zm-2.45-5.57c0-.33,0-.56-.11-.89h1.67c0,.33-.11.56-.11.89v.22h3.79c.45,0,1,0,1.45-.11,0,.33-.11.67,0,1v2.01h-.89c-.11.78-.22,1-.67,1.23-.78.22-1.45.22-2.23.22-1.34,0-1.78-.22-1.78-1v-2.01h-1.11c-.11.67-.33,1.23-.67,1.78-.56.89-1.34,1.23-3.34,1.78-.22-.45-.45-.89-.78-1.23,1,0,1.9-.33,2.68-.89.45-.33.67-.78.67-1.34h-2.23v1.56h-1.45c0-.33.11-.67.11-1v-1.9c.45,0,1,.11,1.45.11h3.57v-.45Zm5.24,1.56h-2.68v1.45c0,.33.11.33.89.33s.89-.11,1-.22c.11-.22.11-.56.11-.78.22.11.45.11.78.22l-.11-1h0Z"/><rect class="cls-7" x="517.31" y="263.12" width="80.27" height="4.46"/><polygon class="cls-7" points="506.83 265.35 519.76 272.82 519.76 257.88 506.83 265.35"/><polygon class="cls-7" points="604.27 265.35 591.45 257.88 591.45 272.82 604.27 265.35"/><path class="cls-7" d="m241.82,277.72c0-.45,0-.89-.11-1.34h1.56c-.11.45-.11.89-.11,1.34v2.01h1v1.45h-1v6.02c0,.56,0,1.11.11,1.67h-1.56c.11-.56.11-1.11.11-1.67v-6.13h-.11c-.45,0-.78,0-1.23.11v-1.56c.45.11.78.11,1.23.11h.11v-2.01Zm3.34,3.9c-.22-.33-.45-.67-.78-1,1-.33,1.9-1,2.45-1.9h-1c-.45,0-.89,0-1.23.11v-1.45c.33,0,.78.11,1.34.11h1.34c0-.33.11-.67.11-.89v-.22l1.56.11c0,.11,0,.22-.11.67q0,.22-.11.45h2.23c.45,0,.78,0,1.23-.11,0,.22,0,.45-.11.89-.11,1.67-.22,2.34-.67,2.68s-.67.33-1.67.33h-1.11c0-.45-.11-.89-.33-1.34.56.11,1.11.11,1.67.11s.67-.11.67-1.34h-2.23c-.56,1.23-1.56,2.34-2.79,2.9h.78c0,.22-.11.45-.11.67v.22h1.9v.89c0,1.45-.11,2.79-.45,4.13,1-1,1.45-2.34,1.56-3.68h-.78v-1.34h.89v-1h1.45c0,.22-.11.56-.11.78v.22h2.23v.78c.11,1.45-.11,3.01-.56,4.46-.22.45-.67.67-1.56.67h-.56c0-.45-.11-1-.22-1.45.33.11.67.11.89.11s.33-.11.45-.22c.22-1,.33-2.01.22-3.01h-.89c-.11,1-.33,2.01-.67,2.9-.22.67-.67,1.34-1.11,1.9-.22-.45-.56-.78-1-1-.11.33-.22.56-.56.67s-.67.11-1,.11h-.56c0-.45-.11-.89-.22-1.34-.22.56-.56,1.11-1,1.56-.22-.45-.56-.78-1-1.23.45-.45.78-.89,1-1.45.33-.67.45-1.45.56-2.12h-1v-1.34h1.11v-.22c-.11-.33-.11-.56-.11-.78h0Zm.89,2.34c-.11,1.11-.33,2.12-.78,3.12.33.11.56.11.89.11.22,0,.33-.11.45-.33.11-1,.22-1.9.22-2.9h-.78Z"/><path class="cls-7" d="m263.67,279.06c.56,0,1.11,0,1.67-.11q0,.56-.11,2.01c0,1.78-.11,4.13-.33,5.02-.22,1.23-.33,1.67-.78,2.01s-1,.45-1.56.33c-.67,0-1.34,0-2.01-.11,0-.56-.22-1.11-.33-1.67.78.11,1.56.22,2.34.22.67,0,.89-.22,1-1.11.22-1.78.33-3.46.33-5.24h-3.57c-.11,1.56-.56,3.12-1.23,4.46-.89,1.56-2.23,2.79-3.79,3.57-.22-.56-.67-1-1.11-1.34,1.67-.67,3.01-1.78,3.79-3.34.45-1,.78-2.23.89-3.34h-2.34c-.56,0-1.11,0-1.67.11v-1.56c.56.11,1.11.11,1.67.11h2.34v-1.34c0-.45,0-.89-.11-1.34h1.78c-.11.89-.11,1.78-.11,2.68h3.23Z"/><path class="cls-7" d="m275.16,282.52c0,.89-.67,1.56-1.56,1.56s-1.56-.67-1.56-1.56.67-1.56,1.56-1.56h0c.78,0,1.56.78,1.56,1.56Z"/><path class="cls-7" d="m280.84,281.51c.33.11.78.11,1.11.11h1c.33,0,.67,0,1-.11,0,.45-.11,1-.11,1.45v2.9c.11.22.33.56.67.67,1,.45,2.01.67,3.12.56,1.9,0,3.79,0,5.69-.22-.22.56-.33,1-.45,1.56-1.11,0-3.01.11-4.68.11-2.34,0-3.12-.11-3.9-.56-.45-.22-.89-.56-1.23-1-.45.45-1,.89-1.56,1.34l-.45.33-.67-1.56c.67-.33,1.34-.78,1.9-1.34v-2.9h-.78c-.33,0-.56,0-.89.11l.22-1.45Zm1.11-5.02c.89.78,1.67,1.56,2.34,2.45l-1.11,1.11c-.67-.89-1.34-1.78-2.23-2.45l1-1.11Zm3.46,2.12c-.33,0-.78,0-1.11.11v-1.34c.45.11,1,.11,1.56.11h2.01c0-.33,0-.67-.11-1h1.56c0,.33-.11.67-.11,1h2.23c.56,0,1,0,1.56-.11v1.34c-.45-.11-.89-.11-1.34-.11h-2.34v.67h2.12c.33,0,.78,0,1.11-.11,0,.33-.11.67,0,1v3.79h-3.23v.67h2.45c.45,0,.89,0,1.34-.11v1.34c-.45,0-.89-.11-1.34-.11h-2.45c0,.33,0,.78.11,1.11h-1.56c.11-.33.11-.78.11-1.11h-3.46v-1.23c.45,0,.89.11,1.34.11h2.12v-.67h-3.01c0-.33.11-.67.11-1v-2.79c0-.33,0-.67-.11-1,.33,0,.78.11,1.11.11h1.9v-.67h-2.56Zm.78,1.67v.78h1.67v-.78h-1.67Zm0,1.78v.78h1.67v-.78h-1.67Zm2.9-1h1.78v-.78h-1.78v.78Zm0,1.78h1.78v-.78h-1.78v.78Z"/><path class="cls-7" d="m303.47,282.29h1.67c.45,0,.78,0,1.23-.11v1.23c-.45,0-.78-.11-1.23-.11h-6.24v-3.12c-.22.33-.45.56-.67.78-.11-.33-.33-.67-.56-.89h-.56v2.12c.45-.11.56-.22,1.34-.45v1.34c-.67.22-.78.33-1.34.45v4.13c1.34-.22,2.45-1.23,2.68-2.45h-.89c-.33,0-.67,0-1,.11v-1.34c.33.11.78.11,1.11.11h5.46q-.11.22-.22.67c0,.11-.11.45-.22.67h1.11c.33,0,.67,0,1-.11q-.11.45-.11.78c-.11.78-.33,1.56-.67,2.23-.33.45-.67.56-1.56.56-.45,0-1,0-1.56-.11,0-.45-.11-.89-.33-1.34.56.11,1.11.11,1.56.11s.56,0,.67-.22.22-.56.33-.89h-2.12c.22-.45.33-.78.45-1.23h-1.56c-.11.89-.56,1.67-1.11,2.34-.67.67-1.45,1.11-2.34,1.45-.22-.45-.45-.78-.67-1.11-.11.56-.22.67-.67.78s-.89.22-1.23.11h-.67c0-.45-.11-1-.33-1.45.33.11.78.11,1.11.11s.45-.11.45-.45v-3.01c-.33.11-.45.11-.67.22-.22.11-.45.11-.67.22l-.22-1.56c.56,0,1.11-.22,1.67-.33v-2.45h-.56c-.33,0-.67,0-1,.11v-1.45c.33.11.67.11,1,.11h.45v-1c0-.45,0-.89-.11-1.34h1.56c-.11.45-.11.89-.11,1.34v1h.22c.22,0,.45,0,.78-.11v.56c.78-.89,1.34-1.9,1.67-3.01l1.45.33c-.11.45-.33.78-.56,1.11h1.67c.22-.45.45-.78.67-1.23l1.45.22c-.22.33-.33.67-.56,1h2.56v1.23c-.33,0-.67-.11-1-.11h-1.67v.56h1.11c.45,0,.78,0,1.23-.11v1h-2.34v.56h2.34v1h-2.34l-.33.45Zm-1.23-3.46h-2.01v.56h2.01v-.56Zm0,1.45h-2.01v.56h2.01v-.56Zm-2.01,1.56v.56h2.01v-.56h-2.01Z"/><rect class="cls-7" x="235.24" y="263.12" width="80.27" height="4.46"/><polygon class="cls-7" points="224.76 265.35 237.7 272.82 237.7 257.88 224.76 265.35"/><polygon class="cls-7" points="322.2 265.35 309.38 257.88 309.38 272.82 322.2 265.35"/><path class="cls-3" d="m641.84,170.02h5.02l7.8,15.39h0v-15.39h3.9v20.63h-5.02l-7.92-15.39h0v15.39h-3.9l.11-20.63Z"/><path class="cls-3" d="m663.36,170.02h7.25c2.68,0,6.69.78,6.69,5.24,0,2.34-1.78,4.35-4.13,4.57h0c2.79.22,4.68,2.12,4.68,4.68,0,5.24-4.68,6.02-7.25,6.02h-7.25v-20.51Zm4.13,8.36h1.67c1.78,0,3.9-.45,3.9-2.45,0-2.34-2.12-2.56-4.01-2.56h-1.56v5.02Zm0,9.03h2.01c1.9,0,4.24-.45,4.24-2.9,0-2.68-2.23-3.12-4.24-3.12h-2.01v6.02Z"/><path class="cls-3" d="m681.42,170.02h5.57c6.35,0,11.93,2.12,11.93,10.26s-5.57,10.26-11.93,10.26h-5.57v-20.51Zm4.13,17.39h2.34c3.9,0,7.02-3.12,7.02-7.02s-3.12-7.02-7.02-7.02h-2.34v14.05Z"/><path class="cls-3" d="m717.66,190.31c-1.56.45-3.12.67-4.68.67-6.69,0-11.26-3.34-11.26-10.26s4.35-11.04,11.26-11.04c1.56,0,3.12.33,4.68.89l-.33,3.46c-1.34-.78-2.9-1.11-4.46-1.11-4.24,0-6.91,3.23-6.91,7.47s2.56,7.36,7.02,7.36c1.56,0,3.01-.22,4.46-.89l.22,3.46Z"/><circle class="cls-5" cx="146.05" cy="197.34" r="86.96"/><circle class="cls-5" cx="146.05" cy="197.34" r="86.96"/><path class="cls-3" d="m127.77,203.02c0-.56,0-1.11-.11-1.78h4.13c1.34-.11,2.68.33,3.57,1.23,1,1.11,1.56,2.56,1.45,4.01.11,1.56-.45,3.12-1.56,4.24-1,.78-2.23,1.23-3.46,1.11h-4.13c.11-.56.11-1.23.11-1.78v-7.02Zm3.9,7.36c.89.11,1.78-.22,2.34-.89.67-.78,1-1.9,1-3.01.11-1-.22-2.12-.89-2.9-.67-.56-1.56-.89-2.45-.78h-2.12v7.47l2.12.11Z"/><path class="cls-3" d="m138.25,203.02c0-.56,0-1.11-.11-1.78h4.13c1.34-.11,2.68.33,3.57,1.23,1,1.11,1.56,2.56,1.45,4.01.11,1.56-.45,3.12-1.56,4.24-1,.78-2.23,1.23-3.46,1.11h-4.13c.11-.56.11-1.23.11-1.78v-7.02h0Zm3.9,7.36c.89.11,1.78-.22,2.34-.89.67-.78,1-1.9,1-3.01.11-1-.22-2.12-.89-2.9-.67-.56-1.56-.89-2.45-.78h-2.12v7.47l2.12.11Z"/><path class="cls-3" d="m150.29,211.94h-1.67c.11-.56.11-1.23.11-1.78v-7.25c0-.56,0-1.11-.11-1.67h4.79c2.12,0,3.23.89,3.23,2.56,0,.67-.22,1.45-.78,1.9-.33.33-.67.45-1.11.56.56.11,1,.22,1.34.67.56.56.89,1.23.89,2.01,0,1.9-1.23,2.9-3.46,2.9l-3.23.11Zm3.01-6.24c.78.11,1.56-.33,1.67-1.11v-.33c0-.33-.11-.67-.33-1-.33-.33-.78-.45-1.34-.45h-2.79v2.9h2.79Zm-2.79,4.79h2.9c1.23,0,1.9-.56,1.9-1.67,0-.45-.11-.78-.45-1.11-.45-.33-.89-.45-1.45-.45h-2.9v3.23Z"/><path class="cls-3" d="m165.56,201.35c-.11.56-.11,1.11-.11,1.67v6.02c.11.78-.22,1.56-.78,2.23-.67.67-1.67,1-2.56.89-1,.11-2.01-.33-2.68-1-.33-.33-.56-.78-.78-1.23l1.78-.67c.11.45.33.89.78,1.11.33.22.67.22,1,.22.45,0,.78-.11,1.11-.45.22-.33.33-.67.33-1.11v-6.02c0-.56,0-1.11-.11-1.67h2.01Z"/><path class="cls-3" d="m179.72,204.14c-.11.22-.22.45-.33.67-.78,1.56-1.9,2.9-3.23,3.9-.33-.45-.78-.78-1.34-1.11.89-.45,1.67-1.11,2.23-1.9.22-.22.33-.56.45-.78-.11,0-.33.11-.45.11-1.34.11-2.68.33-4.13.56v3.01c0,.33,0,.78.11,1.11.11.56.56.67,1.9.67s2.79-.11,4.13-.56l.11,1.78h-.78c-1.11.11-2.23.22-3.34.22-.78,0-1.56,0-2.34-.22-.56-.22-1-.67-1.11-1.23s-.22-1.11-.11-1.67v-3.12l-1.23.11c-.56.11-1.11.22-1.56.45l-.11-1.67h.33c.33,0,.78,0,1.11-.11l1.45-.11v-1.9c0-.45,0-.89-.11-1.23h1.9c-.11.45-.11.78-.11,1.23v1.67l4.91-.56c.33,0,.67-.11,1-.22l.67.89Z"/><path class="cls-3" d="m182.06,210.27c1.34-.11,2.68-.45,4.01-1,1.67-.67,3.01-1.78,4.01-3.23.56-.78,1-1.67,1.34-2.68.45.56.89,1,1.45,1.34-.89,2.12-2.34,3.9-4.24,5.24-1.56,1-3.23,1.67-5.13,2.01-.33,0-.56.11-.89.22l-.56-1.9Zm1.11-8.36c1.23.78,2.45,1.56,3.46,2.56l-1.11,1.45c-1-1.11-2.12-2.01-3.46-2.68l1.11-1.34Z"/><path class="cls-3" d="m205.36,203.14c-.22.22-.33.56-.45.89-.45,1.23-1,2.45-1.67,3.68-1.45,2.34-3.57,4.13-6.13,5.13-.22-.56-.67-1-1.11-1.34.89-.33,1.78-.78,2.56-1.34s1.56-1.11,2.23-1.9c-.89-.78-1.78-1.34-2.79-1.9l1-1.23c1,.56,1.9,1.11,2.68,1.78.67-1,1.11-2.01,1.45-3.12h-4.13c-.78,1.34-1.9,2.56-3.12,3.57-.33-.45-.78-.78-1.34-1.11,1.34-1,2.56-2.34,3.34-3.79.33-.56.56-1.23.78-1.9l1.78.33q-.11.22-.45.78c-.11.22-.22.45-.33.67q.22,0,3.46-.11c.45,0,.78,0,1.23-.11l1,1Z"/><path class="cls-3" d="m207.59,205.81c.67.11,1.45.11,2.12.11h7.14c.67,0,1.45,0,2.12-.11v1.9c-.67-.11-1.45-.11-2.12-.11h-7.14c-.78,0-1.45,0-2.23.11l.11-1.9Z"/><path class="cls-3" d="m363.9,183.07c-.11.22-.22.56-.33.89-.56,1.78-1.67,3.34-3.12,4.57-1,.78-2.23,1.45-3.46,1.78-.22-.56-.56-1.11-1-1.56,1.34-.33,2.68-.89,3.68-1.78,1-.78,1.78-1.9,2.12-3.12h-6.47c-.56,0-1.11,0-1.67.11v-1.67c.56.11,1.11.11,1.78.11h6.35c.56,0,1,0,1.56-.11l.56.78Zm-9.25-4.01c.56.11,1,.11,1.56.11h4.68c.56,0,1,0,1.56-.11v1.67c-.56-.11-1-.11-1.56-.11h-4.68c-.56,0-1,0-1.56.11v-1.67Z"/><path class="cls-3" d="m376.5,179.72c-.22.11-.33.33-.45.45-1,1-2.01,1.9-3.12,2.79v5.69c0,.45,0,1,.11,1.45h-1.9c.11-.45.11-1,.11-1.45v-4.68c-1.45.89-3.12,1.67-4.79,2.12-.22-.56-.56-1.11-.89-1.56,2.56-.67,4.91-1.9,7.02-3.46,1-.67,1.78-1.56,2.45-2.45l1.45,1.11Z"/><path class="cls-3" d="m389.54,180.5c-.11.22-.22.33-.22.56-.45,2.01-1.34,4.01-2.79,5.57-1.34,1.56-3.12,2.68-5.02,3.46-.22-.56-.67-1.11-1.11-1.56,1-.33,2.01-.78,2.9-1.34,2.12-1.34,3.57-3.46,4.01-5.8h-6.35c-.56,0-1.11,0-1.67.11v-1.78c.56.11,1.11.11,1.67.11h6.13c.45,0,1,0,1.45-.11l1,.78Z"/><path class="cls-3" d="m398.91,181.28v-1c0-.45,0-1-.11-1.45h1.67v2.45h.78c.56,0,1.11,0,1.78-.11v1.67c-.56-.11-1.11-.11-1.67-.11h-.89c0,.78,0,1.45-.11,2.23-.11,1.45-.78,2.9-1.9,3.79-.78.67-1.67,1.11-2.56,1.45-.22-.56-.56-1-1-1.45.89-.22,1.78-.67,2.56-1.23.89-.78,1.45-2.01,1.45-3.23v-1.56h-3.46v3.12h-1.67v-3.01h-.78c-.56,0-1.11,0-1.67.11v-1.67c.56.11,1.11.11,1.67.11h.78v-1.34c0-.45,0-.78-.11-1.23h1.78v2.45h3.46Z"/><path class="cls-3" d="m415.07,179.72c-.22.11-.33.33-.45.45-1,1-2.01,1.9-3.12,2.79v5.69c0,.45,0,1,.11,1.45h-1.9c.11-.45.11-1,.11-1.45v-4.68c-1.45.89-3.12,1.67-4.79,2.12-.22-.56-.56-1.11-.89-1.56,2.56-.67,4.91-1.9,7.02-3.46,1-.67,1.78-1.56,2.45-2.45l1.45,1.11Z"/><path class="cls-3" d="m423.66,187.19h3.23c.56,0,1.11,0,1.78-.11v1.67c-.56-.11-1.11-.11-1.67-.11h-8.03c-.56,0-1.11,0-1.67.11v-1.67c.56.11,1.11.11,1.78.11h3.01v-5.46h-3.79v-1.67c.56.11,1.11.11,1.78.11h5.91c.56,0,1.11,0,1.78-.11v1.67h-3.9v5.46h-.22Z"/><path class="cls-3" d="m430.57,187.97c1.34-.11,2.68-.45,3.9-1,1.56-.67,3.01-1.78,4.01-3.23.56-.78,1-1.67,1.34-2.68.45.56.89,1,1.45,1.34-.89,2.12-2.34,3.9-4.24,5.24-1.56,1-3.23,1.67-5.13,2.01-.33,0-.56.11-.89.22l-.45-1.9Zm1.11-8.36c1.23.78,2.45,1.56,3.46,2.56l-1.11,1.45c-1-1.11-2.12-2.01-3.46-2.68l1.11-1.34Z"/><path class="cls-3" d="m453.09,189.98c-1.23-1.45-2.56-2.79-4.13-4.01-1.45,1.67-3.12,2.9-5.13,3.9-.33-.56-.67-1-1.11-1.45,1-.33,1.9-.89,2.68-1.45,2.01-1.34,3.46-3.23,4.46-5.46l.11-.33-4.46.11c-.45,0-1,0-1.45.11v-1.67c.45.11.78.11,1.23.11h.33l4.68-.11c.45.11.89,0,1.23-.11l.89.89c-.22.22-.33.45-.45.67-.56,1.34-1.23,2.56-2.12,3.68.89.56,1.67,1.23,2.45,1.9q.33.33,2.01,1.9l-1.23,1.34Z"/><path d="m385.08,233.35c-.56-.11-1.23-.11-1.78-.11h-8.14c-.67,0-1.34,0-1.9.11v-1.67c.67.11,1.23.11,1.9.11h8.14c.67,0,1.23,0,1.9-.11v1.67h-.11Zm-10.93-10.81c.56.11,1.11.11,1.67.11h6.58c.56,0,1.23,0,1.78-.11v1.67c-.56-.11-1.23-.11-1.78-.11h-6.47c-.56,0-1.11,0-1.67.11l-.11-1.67Zm.89,4.35c.56.11,1,.11,1.56.11h5.13c.56,0,1,0,1.56-.11v1.67c-.56,0-1-.11-1.56-.11h-5.13c-.56,0-1,0-1.56.11v-1.67Z"/><path d="m389.99,230.56h-2.23v-6.47c0-.45,0-.78-.11-1.23h2.79c.22-.33.33-.78.56-1.23l1.56.11c-.22.33-.33.78-.56,1h4.13v4.35h-6.91v.67h7.8c.45,0,.89,0,1.23-.11v1.23c-.45,0-.89-.11-1.34-.11h-7.8v.67h8.81v.45q0,.11-.11.78c-.11.78-.22,1.56-.45,2.34-.11.33-.45.67-.78.78-.45.11-.89.22-1.23.11h-.56c0-.22-.11-.56-.11-.78h-6.35v.56h-1.45c.11-.33.11-.78.11-1.11v-.67c0-.22,0-.56-.11-.78h1.45v.89h1.78l-.11-1.45Zm4.68-6.13v-.56h-5.46v.56h5.46Zm-5.46,1.56h5.46v-.56h-5.46v.56Zm4.01,5.91v-1.11h1.45v1.78c.33,0,.67.11,1,.11s.56-.11.56-.45c.11-.56.22-1.23.22-1.78h-5.13v1.34h1.9v.11Z"/><path d="m423.21,225.55c.45.89,1,1.78,1.67,2.56-.33.33-.56.78-.78,1.23-.45-.67-.89-1.34-1.11-2.01.11,1.11.11,1.23.11,1.78v3.46c0,.56,0,1.11.11,1.67h-1.56c.11-.56.11-1.11.11-1.67v-2.79c0-.89,0-1.56.11-1.78-.22.67-.45,1.34-.67,1.9-.22.45-.45.89-.78,1.23-.22-.45-.45-1-.78-1.34.89-1.23,1.56-2.68,1.9-4.24h-.67c-.33,0-.67,0-1,.11v-1.56h1.9v-1c0-.45,0-.89-.11-1.34h1.56c0,.45-.11.89-.11,1.34v1h1.45v1.45h-1.34Zm3.79-1.78c.33-.67.45-1.45.56-2.12l1.56.33c-.33.89-.56,1.56-.67,1.78h3.01c0,.45-.11.89,0,1.34v7.47c0,.56,0,1.11.11,1.56h-1.56v-.67h-3.68v.67h-1.56c0-.33.11-.89.11-1.56v-8.7h1.45l.67-.11Zm-.67,4.01h3.68v-2.56h-3.68v2.56Zm0,4.13h3.68v-2.9h-3.68v2.9Z"/><path class="cls-3" d="m113.5,170.02h5.57c6.35,0,11.93,2.12,11.93,10.26s-5.57,10.26-11.93,10.26h-5.57v-20.51Zm4.13,17.39h2.34c3.9,0,7.02-3.12,7.02-7.02s-3.12-7.02-7.02-7.02h-2.34v14.05Z"/><path class="cls-3" d="m134.79,170.02h5.57c6.35,0,11.93,2.12,11.93,10.26s-5.46,10.37-11.82,10.37h-5.57l-.11-20.63Zm4.13,17.39h2.34c3.9,0,7.02-3.12,7.02-7.02s-3.12-7.02-7.02-7.02h-2.34v14.05Z"/><path class="cls-3" d="m156.09,170.02h7.25c2.68,0,6.69.78,6.69,5.24,0,2.34-1.78,4.35-4.13,4.57h0c2.79.22,4.68,2.12,4.68,4.68,0,5.24-4.68,6.02-7.25,6.02h-7.25v-20.51Zm4.13,8.36h1.67c1.78,0,3.9-.45,3.9-2.45,0-2.34-2.12-2.56-4.01-2.56h-1.56v5.02Zm0,9.03h2.01c1.9,0,4.24-.45,4.24-2.9,0-2.68-2.23-3.12-4.24-3.12h-2.01v6.02Z"/><path class="cls-3" d="m172.36,187.08c.67.22,1.34.33,2.01.33,2.68,0,2.68-2.12,2.68-3.68v-13.71h4.13v15.72c0,2.9-2.23,5.24-5.13,5.24h-.56c-1.11,0-2.12-.11-3.12-.45v-3.46Z"/><path class="cls-3" d="m123.98,52.96h5.13l7.92,15.39h0v-15.39h4.01v20.63h-5.02l-7.92-15.39h-.11v15.39h-4.01s0-20.63,0-20.63Z"/><path class="cls-3" d="m145.05,52.96h4.13v20.63h-4.13v-20.63Z"/><path class="cls-3" d="m169.69,56.97c-1.67-.78-3.46-1.11-5.35-1.11-4.79,0-7.47,3.23-7.47,7.47s2.56,7.36,7.02,7.36c.89,0,1.78-.11,2.68-.33v-5.35h-4.35v-3.23h8.36v11.15c-2.12.67-4.46,1-6.69,1.11-6.69,0-11.26-3.34-11.26-10.26s4.35-11.04,11.26-11.04c2.01,0,4.13.22,6.02.89l-.22,3.34Z"/><path class="cls-3" d="m387.09,52.96h5.69c6.35,0,11.93,2.12,11.93,10.26s-5.57,10.37-11.93,10.37h-5.69v-20.63Zm4.13,17.39h2.34c3.9,0,7.02-3.12,7.02-7.02s-3.12-7.02-7.02-7.02h-2.34v14.05Z"/><path class="cls-3" d="m419.53,56.75c-1.34-.56-2.79-.89-4.24-.89s-3.23.67-3.23,2.9c0,3.57,9.03,2.12,9.03,8.92,0,4.57-3.57,6.24-7.69,6.24-1.78,0-3.57-.22-5.24-.78l.33-3.68c1.45.78,3.01,1.23,4.68,1.23,1.56,0,3.68-.78,3.68-2.68,0-3.9-9.03-2.34-9.03-9.14,0-4.57,3.57-6.24,7.25-6.24,1.67,0,3.34.22,4.91.78l-.45,3.34Z"/><path class="cls-3" d="m328.34,200.79c0,1.78-.22,2.79-.56,4.13l-1.11-.56c.33-1.11.45-2.01.56-3.68l1.11.11Zm-1.67-1.9h1q.33-.56.67-.89c-.45-.67-1-1.34-1.67-2.01l.67-1.11c.22.22.33.33.45.56.56-.89.89-1.67,1-2.34l1.34.56c-.11.22-.22.45-.45.89-.45.89-.67,1.23-1,1.78.22.22.33.33.45.67.67-1.11,1-1.78,1.23-2.34l1,.56v-.45c.33,0,.78.11,1.45.11h1.45v-.33c0-.45,0-.67-.11-1h1.56c0,.33-.11.56-.11,1v.33h1.9c.56,0,1,0,1.45-.11v1.45c-.45,0-.78-.11-1.34-.11h-2.68c-.33.67-.67,1.34-.89,1.9.89,0,1.78-.11,2.45-.22-.22-.33-.33-.45-.78-.89l1.11-.67c.89,1,1.56,1.78,2.23,2.9l-1.11.78c-.22-.56-.33-.67-.56-1-1.45.22-1.56.22-4.46.33-.45,0-.67,0-1,.11l-.11-1.34h.78c.45-.67.78-1.23,1-1.9h-.78c-.56,0-.89,0-1.34.11v-.56q-.11.11-.22.33c-.67,1.11-1.56,2.34-2.12,3.12.33,0,.78,0,1.45-.11-.11-.33-.22-.56-.45-1l.89-.45c.45.78.67,1.34,1,2.56l-1,.45q-.11-.33-.11-.56-.33,0-.78.11v4.24c0,.67,0,1,.11,1.45h-1.45c0-.45.11-.78.11-1.45v-4.13c-1.11.11-1.78.11-1.9.22l-.33-1.56Zm4.79,1.67c.22.89.33,1.45.45,2.68l-1.11.33c0-1-.22-1.9-.33-2.68l1-.33Zm2.9-1v1c0,1.34-.22,2.23-.67,3.01-.33.78-.78,1.23-1.9,2.01-.33-.45-.56-.78-1-1.11.56-.33.78-.45,1.11-.67.78-.67,1.11-1.67,1.11-3.34v-.78l1.34-.11h0Zm2.34-.11v4.24c0,.22,0,.33.45.33.22,0,.33,0,.45-.11s.11-.78.11-1.45v-.78c.45.22.78.45,1.34.56,0,1.23-.11,2.23-.33,2.56-.22.45-.67.67-1.67.67-1.34,0-1.67-.22-1.67-1.11v-4.79h1.34v-.11h0Z"/><path class="cls-3" d="m342.94,197.67c-.89.56-1.23.67-2.12,1.11-.22-.56-.33-.89-.78-1.34,1.23-.45,2.34-1.11,3.46-1.9.89-.78,1.56-1.45,2.12-2.23h1.56c.56.89,1.23,1.45,2.23,2.23s2.01,1.34,3.46,1.78c-.33.56-.45.78-.78,1.45-1-.45-1.34-.67-2.23-1.23v.89h-6.91v-.78h0Zm-1,7.8c0-.45.11-.78.11-1.45v-3.12c0-.56,0-.89-.11-1.34h8.92c0,.33-.11.78-.11,1.34v3.12c0,.67,0,1,.11,1.45h-1.56v-.67h-5.8v.67h-1.56Zm1.56-2.01h5.8v-2.56h-5.8v2.56Zm5.24-6.35h.45c-1.23-.89-1.9-1.56-2.79-2.56-.78,1.11-1.34,1.67-2.68,2.56h5.02Z"/><path class="cls-3" d="m360.67,199.01c-.11,3.34-1.45,5.02-4.46,6.24-.33-.67-.56-1-1.11-1.45,2.68-.78,3.68-2.12,3.79-4.79h-3.23c-1,0-1.23,0-1.67.11v-1.56c.45.11.78.11,1.67.11h7.8c1,0,1.23,0,1.67-.11v1.56c-.45,0-.67-.11-1.67-.11h-2.79Zm2.01-3.23c-.45,0-.56-.11-1.67-.11h-4.01c-1.11,0-1.23,0-1.67.11v-1.67c.45.11.67.11,1.67.11h3.9c1,0,1.34,0,1.67-.11v1.67h.11Zm.78-2.45c.56.67.78,1.23,1.23,2.12l-1,.33c-.33-.89-.67-1.45-1.23-2.12l1-.33Zm1.9,1.9c-.33-.78-.67-1.45-1.11-2.12l1-.33c.56.67.89,1.23,1.23,2.01l-1.11.45Z"/><path class="cls-3" d="m367.58,198.34c.56.11.89.11,2.12.11h7.14c1.34,0,1.56,0,2.12-.11v1.9c-.56-.11-.67-.11-2.23-.11h-7.14c-1.45,0-1.67,0-2.23.11v-1.9h.22Z"/><path class="cls-3" d="m391.44,195.78c-.22.22-.22.33-.45.89-.45,1.23-1.11,2.79-1.67,3.68-1.34,2.23-3.23,3.79-6.13,5.13-.45-.67-.56-1-1.11-1.34,1.11-.45,1.78-.78,2.56-1.34,1-.67,1.56-1.11,2.23-1.9-.89-.78-1.78-1.34-2.79-1.9l1-1.23c1.11.67,1.67,1,2.68,1.78.67-1,1.11-1.9,1.45-3.12h-4.13c-.78,1.34-1.78,2.45-3.12,3.57-.45-.45-.67-.67-1.34-1.11,1.45-1.11,2.56-2.34,3.34-3.79.33-.67.67-1.34.78-1.9l1.78.33q-.11.22-.45.78c-.11.33-.22.56-.33.67h3.46c.56,0,.78,0,1.23-.11l1,.89Z"/><path class="cls-3" d="m392.44,200.24c.33-.22,1.11-1,2.9-3.23.45-.56.78-.89,1-1,.33-.22.56-.22.89-.22.67,0,1,.22,2.01,1.34,1.56,1.78,2.79,3.01,4.35,4.24.78.67,1,.78,1.23,1l-.89,1.78c-2.45-2.23-3.23-3.01-5.69-5.69q-.89-.89-1.11-.89t-.78.78c-.56.78-1.67,2.12-2.34,3.01-.22.22-.22.33-.45.56l-1.11-1.67Zm9.03-5.13c.56.67,1,1.11,1.45,2.01l-.89.45c-.45-.78-.78-1.34-1.45-2.01l.89-.45Zm2.12,1.56c-.45-.78-.89-1.34-1.34-1.9l.89-.45c.67.67,1,1.11,1.34,1.9l-.89.45Z"/><path class="cls-3" d="m406.04,198.34c.56.11.89.11,2.12.11h7.14c1.34,0,1.56,0,2.12-.11v1.9c-.56-.11-.67-.11-2.23-.11h-7.14c-1.45,0-1.67,0-2.23.11v-1.9h.22Z"/><path class="cls-3" d="m428.12,204.92c-1.11-1.34-2.68-2.9-4.13-4.01-1.56,1.67-3.01,2.9-5.13,3.9-.33-.67-.56-.89-1.11-1.45,1-.45,1.67-.78,2.68-1.45,2.01-1.45,3.68-3.34,4.46-5.46l.11-.33q-.22,0-4.46.11c-.67,0-1,0-1.45.11v-1.67c.33.11.67.11,1.23.11h.33l4.68-.11c.78,0,.89,0,1.23-.11l.89.89c-.22.22-.33.33-.45.67-.67,1.45-1.23,2.56-2.12,3.68.89.56,1.56,1.11,2.45,1.9q.33.33,2.01,1.9l-1.23,1.34Z"/><path class="cls-3" d="m441.39,196.78c-.11.22-.22.22-.33.67-.78,1.67-1.67,2.79-3.23,3.9-.56-.56-.67-.67-1.34-1.11.89-.56,1.67-1.11,2.23-1.9.22-.22.22-.33.56-.78-.22,0-.33,0-.56.11-1.34.11-2.68.33-4.13.56v4.13c.11.56.56.67,1.9.67,1.56,0,3.01-.22,4.13-.56l.11,1.78h-.78c-1.45.11-2.45.22-3.34.22-1.11,0-1.9-.11-2.34-.22-.56-.11-1-.67-1.11-1.23-.11-.45-.11-.67-.11-1.67v-2.9l-1.23.11q-1,.11-1.45.22l-.22-1.67h.33c.22,0,.78,0,1.23-.11l1.45-.22v-1.67c0-.67,0-.78-.11-1.23h1.9c-.11.33-.11.67-.11,1.23v1.67l4.91-.56q.67-.11,1-.22l.67.78Z"/><path class="cls-3" d="m443.17,202.8c1.11-.11,2.79-.45,3.9-1,1.67-.67,2.9-1.78,4.01-3.23.56-.89,1-1.56,1.34-2.68.56.67.78.78,1.45,1.34-1.11,2.45-2.45,4.01-4.24,5.24-1.34.89-3.01,1.56-5.13,2.01q-.56.11-.89.22l-.45-1.9Zm1.11-8.25c1.56,1,2.45,1.56,3.46,2.56l-1.11,1.45c-1.11-1.11-2.12-2.01-3.46-2.68l1.11-1.34Z"/><path class="cls-3" d="m465.91,195.78c-.22.22-.22.33-.45.89-.45,1.23-1.11,2.79-1.67,3.68-1.34,2.23-3.23,3.79-6.13,5.13-.45-.67-.56-1-1.11-1.34,1.11-.45,1.78-.78,2.56-1.34,1-.67,1.56-1.11,2.23-1.9-.89-.78-1.78-1.34-2.79-1.9l1-1.23c1.11.67,1.67,1,2.68,1.78.67-1,1.11-1.9,1.45-3.12h-4.13c-.78,1.34-1.78,2.45-3.12,3.57-.45-.45-.67-.67-1.34-1.11,1.45-1.11,2.56-2.34,3.34-3.79.33-.67.67-1.34.78-1.9l1.78.33q-.11.22-.45.78c-.11.33-.22.56-.33.67h3.46c.56,0,.78,0,1.23-.11l1,.89Z"/><path class="cls-3" d="m468.03,198.34c.56.11.89.11,2.12.11h7.14c1.34,0,1.56,0,2.12-.11v1.9c-.56-.11-.67-.11-2.23-.11h-7.14c-1.45,0-1.67,0-2.23.11v-1.9h.22Z"/><g><path class="cls-3" d="m82.95,210.83v1.45h-11.04v-1.45h4.68v-2.45h-3.34v-1.45h3.34v-2.12h-2.56c-.33.67-.78,1.34-1.11,1.78-.33-.22-.89-.67-1.34-.89,1-1,1.78-2.68,2.12-4.35l1.56.33c-.22.56-.33,1.11-.56,1.78h1.9v-2.23h1.56v2.23h4.13v1.45h-4.13v2.12h3.68v1.45h-3.68v2.45h4.79v-.11Z"/><path class="cls-3" d="m90.31,201.13c1.34,1.67,3.34,3.01,5.35,3.68-.33.33-.67.89-1,1.34-.78-.45-1.78-.89-2.56-1.45v.89h-4.91v-.89c-.78.56-1.67,1.11-2.56,1.56-.22-.33-.56-.89-.89-1.23,2.12-.89,4.13-2.45,5.02-3.79l1.56-.11h0Zm-1.23,9.59h-2.68v1h-1.34v-5.35h4.01v4.35Zm-2.79-3.12v1.9h1.45v-1.9h-1.45Zm5.24-3.34c-.78-.56-1.45-1.23-1.9-1.78-.45.56-1.11,1.23-1.9,1.78h3.79Zm2.79,5.69c0,.67-.11,1-.56,1.23-.45.22-1,.22-1.78.22,0-.45-.22-1-.45-1.34h1.11c.11,0,.22,0,.22-.22v-2.34h-1.67v5.02h-1.34v-6.35h4.46v3.79Z"/><path class="cls-3" d="m95.99,206.7c.22-.78.45-2.23.56-3.23l1,.11c0,1-.22,2.45-.45,3.46l-1.11-.33Zm11.59-1.67v1h-8.03v-1h3.23v-.56h-2.56v.11l-1,.45c-.11-.33-.22-.89-.45-1.34v8.92h-1.34v-11.48h1.34v2.01l.67-.33c.22.56.56,1.23.67,1.67v-1h2.56v-.45h-2.9v-1h2.9v-.78h1.45v.78h3.01v1h-3.01v.45h2.68v1h-2.68v.56h3.46Zm-.78,6.13c0,.67-.11,1-.56,1.23-.45.22-1,.22-1.9.22,0-.33-.22-.89-.45-1.23h1.23q.22,0,.22-.22v-.45h-3.68v1.78h-1.34v-6.13h6.35v4.79h.11Zm-5.13-3.57v.56h3.68v-.56h-3.68Zm3.68,2.12v-.56h-3.68v.56h3.68Z"/><path class="cls-3" d="m111.94,204.25h2.01v1.23h-1l.45.11c-.22.45-.45.89-.56,1.34h.89v1.23h-1.9v.89h1.78v1.23h-1.78v2.23h-1.34v-2.23h-1.78v-1.23h1.78v-.89h-1.9v-1.23h.89c-.11-.45-.22-.89-.45-1.34l.45-.11h-1.23v-1.23h2.23v-.89h-1.78v-1.23h1.78v-1.11h1.34v1.11h1.56v1.23h-1.56l.11.89h0Zm-.11,2.56c.11-.33.33-.89.45-1.34h-1.9c.22.45.33,1,.45,1.34l-.45.11h1.78l-.33-.11Zm7.8-.67c-.22,1.45-.67,2.9-1.34,4.01.56.56,1.11,1,1.67,1.34-.33.22-.78.78-.89,1.11-.56-.33-1.11-.78-1.56-1.34-.45.56-.78.89-1.34,1.34-.11-.22-.45-.56-.67-.78v.67h-1.34v-10.93h5.13v2.34c0,.67-.11,1-.56,1.23-.45.22-1.11.22-2.01.22-.11-.45-.22-.89-.45-1.23h1.45q.22,0,.22-.22v-1h-2.45v2.9h3.01l.22-.11.89.45Zm-4.13,5.24c.45-.33.78-.78,1.23-1.23-.45-.78-.89-1.67-1.23-2.68v3.9Zm1.11-4.35c.22.67.56,1.34.89,1.9.33-.56.56-1.23.67-1.9h-1.56Z"/><path class="cls-3" d="m123.31,205.25c.89,0,1.56.67,1.56,1.56s-.67,1.56-1.56,1.56-1.56-.67-1.56-1.56.78-1.56,1.56-1.56Z"/></g><g class="cls-8"><path class="cls-3" d="m627.8,201.8h2.01l2.9,5.24,1,2.12h.11c-.11-1-.22-2.34-.22-3.46v-3.9h1.9v9.92h-2.01l-2.9-5.24-1-2.12h-.11c.11,1.11.22,2.34.22,3.46v4.01h-1.9v-10.03Z"/><path class="cls-3" d="m637.83,201.8h3.23c2.01,0,3.57.56,3.57,2.45,0,.89-.56,1.9-1.34,2.12v.11c1.11.22,1.9,1,1.9,2.34,0,2.01-1.67,2.9-3.79,2.9h-3.57v-9.92Zm3.12,4.01c1.23,0,1.78-.56,1.78-1.34,0-.89-.56-1.23-1.78-1.23h-1.23v2.56h1.23Zm.22,4.35c1.34,0,2.12-.45,2.12-1.56,0-1-.67-1.34-2.12-1.34h-1.34v2.9h1.34Z"/><path class="cls-3" d="m646.97,201.8h2.68c3.01,0,4.91,1.56,4.91,4.91s-1.9,5.02-4.79,5.02h-2.79v-9.92h0Zm2.56,8.36c1.9,0,3.01-1,3.01-3.34s-1.11-3.34-3.01-3.34h-.67v6.69h.67Z"/><path class="cls-3" d="m656,206.82c0-3.23,2.12-5.13,4.57-5.13,1.23,0,2.23.56,2.9,1.23l-1,1.23c-.45-.45-1.11-.78-1.78-.78-1.45,0-2.68,1.34-2.68,3.46s1,3.46,2.56,3.46c.89,0,1.56-.45,2.01-1l1,1.23c-.78,1-1.9,1.45-3.12,1.45-2.45,0-4.46-1.78-4.46-5.13Z"/><path class="cls-3" d="m676.96,209.16h-1.34v2.34h-1.67v-.56h-2.45v.45c0,.78-.22,1.11-.67,1.34-.56.22-1.23.22-2.34.22-.11-.33-.33-.89-.56-1.23h1.67c.22,0,.33-.11.33-.33v-.45h-4.01v-1.11h4.01v-.67h-5.24v-1.23h5.24v-.56h-3.9v-1.11h3.9v-.56h-3.68v-2.68h3.68v-.56h-5.02v-1.23h5.02v-.89h1.67v.89h5.13v1.23h-5.13v.56h3.79v2.68h-3.79v.56h4.01v1.67h1.34v1.23Zm-7.02-4.46v-.67h-2.12v.67h2.12Zm1.56-.67v.67h2.12v-.67h-2.12Zm0,3.9h2.45v-.56h-2.45v.56Zm2.45,1.23h-2.45v.67h2.45v-.67Z"/><path class="cls-3" d="m686.22,209.83c1.11.67,2.68,1.23,4.24,1.45-.33.33-.78,1-1.11,1.45-1.67-.45-3.23-1.23-4.46-2.23v2.45h-1.56v-2.34c-1.23,1-2.9,1.78-4.46,2.12-.22-.33-.67-1-1-1.34,1.45-.33,3.12-.89,4.24-1.56h-3.79v-1.34h5.13v-.56h-3.9v-1.11h3.9v-.56h-4.57v-1.23h2.56c-.11-.33-.33-.78-.45-1h.11-2.79v-1.34h1.78c-.22-.56-.56-1.11-.78-1.67l1.34-.45c.33.56.78,1.34,1,1.9l-.67.22h1.23v-2.23h1.45v2.23h1v-2.23h1.45v2.23h1.23l-.45-.11c.33-.56.67-1.34.89-1.9l1.67.45c-.33.67-.78,1.23-1,1.67h1.78v1.34h-2.56c-.22.33-.45.78-.67,1.11h2.68v1.23h-4.68v.56h4.01v1.11h-4.01v.56h5.24v1.34h-4.01v-.22Zm-3.57-5.91c.22.33.33.78.45,1h-.22,2.45c.11-.33.33-.67.45-1.11h-3.12v.11Z"/><path class="cls-3" d="m695.69,207.6c-.33.11-.78.22-1.23.33v3.23c0,.78-.11,1.23-.56,1.45s-1.11.33-2.01.33c0-.45-.22-1.11-.45-1.56h1.23c.11,0,.22,0,.22-.22v-2.79l-1.45.45-.33-1.56c.56-.11,1.11-.22,1.78-.45v-2.45h-1.56v-1.45h1.56v-2.56h1.56v2.56h1v1.45h-1v2.01l1-.22.22,1.45Zm8.03,4.57h-5.69v.67h-1.56v-7.02c-.22.22-.33.45-.56.67-.22-.33-.67-1.11-1-1.45,1.11-1.11,2.01-2.9,2.45-4.68l1.56.33c-.22.67-.45,1.45-.78,2.12h1.45c.33-.78.67-1.67.78-2.45l1.67.33c-.33.67-.56,1.45-.89,2.01h2.23v1.45h-2.45v1.23h2.12v1.34h-2.12v1.34h2.12v1.34h-2.12v1.34h2.68v1.45h.11Zm-4.13-7.92h-1.56v1.23h1.56v-1.23Zm0,2.56h-1.56v1.34h1.56v-1.34Zm-1.56,3.9h1.56v-1.34h-1.56v1.34Z"/><path class="cls-3" d="m707.85,209.83c.56.89,1.45,1.23,2.79,1.34,1.56.11,4.79,0,6.58-.11-.22.33-.45,1.11-.45,1.56-1.67.11-4.46.11-6.13,0-1.56-.11-2.68-.45-3.46-1.45-.56.56-1.11,1-1.78,1.56l-.78-1.56c.56-.33,1.11-.78,1.67-1.23v-2.9h-1.45v-1.45h3.01v4.24h0Zm-1-6.02c-.33-.67-1.23-1.56-2.01-2.23l1.23-.89c.78.56,1.67,1.45,2.12,2.12l-1.34,1Zm2.34,1.23c-.22.22-.45.45-.67.67-.22-.33-.78-1-1.11-1.23,1.23-.89,2.34-2.45,3.01-4.01l1.56.45c-.22.45-.45,1-.67,1.45h1.56c.22-.56.45-1.23.56-1.78l1.78.33c-.22.45-.45,1-.67,1.45h2.34v1.34h-2.68v.89h2.34v1.34h-2.34v.89h2.23v1.34h-2.23v.89h2.9v1.34h-7.69v-5.35h-.22Zm3.34-1.34h-1.78v.89h1.78v-.89Zm0,2.12h-1.78v.89h1.78v-.89Zm0,2.12h-1.78v.89h1.78v-.89Z"/><path class="cls-3" d="m724.23,203.47c-.33.78-.56,1.45-.78,2.01h1.56v1.45h-6.91v-1.45h1.56c0-.56-.22-1.34-.45-2.01l1.34-.22c.33.56.45,1.45.56,2.01l-1.23.33h3.57l-1.11-.33c.22-.56.45-1.45.56-2.01l1.34.22Zm.56-.45h-6.47v-1.34h2.45v-1.23h1.56v1.23h2.45v1.34h0Zm-5.91,4.68h5.57v5.13h-1.56v-.67h-2.45v.67h-1.45v-5.13h-.11Zm1.45,1.34v1.78h2.45v-1.78h-2.45Zm10.26-7.25c-.45,1.34-1,2.79-1.56,4.01,1.11,1.23,1.34,2.23,1.34,3.12,0,1-.22,1.67-.67,2.01-.22.22-.56.33-.89.33h-1.11c0-.45-.11-1.11-.33-1.56h.78c.22,0,.33,0,.45-.11.22-.11.33-.45.33-.89,0-.67-.33-1.67-1.34-2.68.33-1,.78-2.34,1.11-3.34h-1.78v10.26h-1.56v-11.71h3.79l.22-.11,1.23.67Z"/></g></svg>