<?xml version="1.0" encoding="utf-8"?>
<!-- Generator: Adobe Illustrator 27.6.1, SVG Export Plug-In . SVG Version: 6.00 Build 0)  -->
<svg version="1.1" id="_レイヤー_1" xmlns="http://www.w3.org/2000/svg" xmlns:xlink="http://www.w3.org/1999/xlink" x="0px"
	 y="0px" viewBox="0 0 786 359" style="enable-background:new 0 0 786 359;" xml:space="preserve">
<style type="text/css">
	.st0{fill:#F4F1E8;}
	.st1{fill:#97BDC0;}
	.st2{fill:#004098;}
	.st3{fill:#FFFFFF;}
	.st4{opacity:0.5;fill:#666665;enable-background:new    ;}
	.st5{fill:#666665;}
	.st6{fill:#274D7A;}
	.st7{font-family:'HiraKakuStdN-W8-83pv-RKSJ-H';}
	.st8{font-size:13px;}
</style>
<rect y="0" class="st0" width="551.9" height="359"/>
<rect x="563" y="0" class="st0" width="223" height="359"/>
<circle class="st1" cx="402.5" cy="159.4" r="124.9"/>
<circle class="st2" cx="402.5" cy="197.3" r="87"/>
<path class="st3" d="M360.6,151.6h5.7c6.4,0,11.9,2.1,11.9,10.3s-5.6,10.3-11.9,10.3h-5.7V151.6L360.6,151.6z M364.7,169h2.3
	c3.9-0.1,6.9-3.5,6.8-7.4c-0.1-3.7-3.1-6.6-6.8-6.8h-2.3V169z"/>
<path class="st3" d="M381.9,151.6h7.2c2.7,0,6.7,0.8,6.7,5.2c0,2.3-1.8,4.4-4.1,4.6l0,0c2.8,0.2,4.7,2.1,4.7,4.7c0,5.2-4.7,6-7.2,6
	h-7.2L381.9,151.6L381.9,151.6z M386,160h1.7c1.8,0,3.9-0.3,3.9-2.4c0-2.3-2.1-2.6-4-2.6H386V160L386,160z M386,169h2
	c1.9,0,4.2-0.4,4.2-2.9c0-2.7-2.2-3.1-4.2-3.1h-2V169L386,169z"/>
<path class="st3" d="M415,171.9c-1.6,0.4-3.1,0.6-4.7,0.7c-6.7,0-11.3-3.3-11.3-10.3s4.4-11,11.3-11c1.6,0,3.1,0.3,4.7,0.9l-0.3,3.5
	c-1.3-0.8-2.9-1.1-4.5-1.1c-4.2,0-6.9,3.2-6.9,7.5s2.6,7.4,7,7.4c1.6,0,3.1-0.2,4.5-0.9L415,171.9L415,171.9z"/>
<path class="st3" d="M418,151.6h4.1V169h8v3.2H418L418,151.6L418,151.6L418,151.6z"/>
<path class="st3" d="M443.8,155.4c-1.3-0.6-2.8-0.9-4.2-0.9s-3.2,0.7-3.2,2.9c0,3.6,9,2.1,9,8.9c0,4.6-3.6,6.2-7.7,6.2
	c-1.8,0-3.6-0.2-5.2-0.8l0.5-3.7c1.5,0.8,3,1.2,4.7,1.2c1.6,0,3.7-0.8,3.7-2.7c0-3.9-9-2.3-9-9.1c0-4.6,3.6-6.2,7.2-6.2
	c1.7,0,3.3,0.2,4.9,0.8L443.8,155.4L443.8,155.4z"/>
<path class="st3" d="M417.4,214.7H437c2.5,0,4.5,2,4.5,4.5v17.2c0,2.4-2,4.5-4.5,4.5h-19.6c-2.5,0-4.5-2-4.5-4.5v-17.2
	C413,216.7,415,214.7,417.4,214.7z"/>
<path class="st3" d="M369.8,214.7h33.8c2.5,0,4.5,2,4.5,4.5v17.2c0,2.4-2,4.5-4.5,4.5h-33.8c-2.5,0-4.5-2-4.5-4.5v-17.2
	C365.4,216.7,367.4,214.7,369.8,214.7z"/>
<circle class="st4" cx="144.9" cy="158.3" r="123.8"/>
<circle class="st5" cx="677.9" cy="197.3" r="87"/>
<circle class="st5" cx="677.9" cy="197.3" r="87"/>
<path class="st3" d="M92.4,81c0-0.6,0-1.1-0.1-1.6c0.6,0,1,0.1,1.6,0.1h8.5c0.7,0,1.1,0,1.6-0.1c-0.1,0.6-0.1,1.1-0.1,1.6v8.6
	c0,0.6,0,1.2,0.1,1.8h-1.6v-0.8h-8.6v0.8h-1.6c0.1-0.6,0.1-1.1,0.1-1.8L92.4,81L92.4,81z M93.9,89.3h8.6v-8.5h-8.6V89.3z M95.9,82.9
	c-0.4,0-0.8,0-1.2,0.1v-1.3c0.4,0.1,0.8,0.1,1.2,0.1h4.5c0.4,0,0.8,0,1.2-0.1v1.3c-0.4-0.1-0.8-0.1-1.2-0.1h-1.7v1.3h1.3
	c0.3,0,0.8,0,1.1-0.1v1.3c-0.3,0-0.6-0.1-0.9-0.1c0.3,0.4,0.7,0.8,0.9,1.3l-0.8,0.4c0.4,0,0.9,0,1.3-0.1v1.3
	c-0.4-0.1-0.8-0.1-1.2-0.1h-4.8c-0.4,0-0.9,0-1.2,0.1V87c0.4,0.1,0.9,0.1,1.2,0.1h1.6v-1.7h-1.1c-0.3,0-0.8,0-1.1,0.1v-1.3
	c0.3,0.1,0.8,0.1,1.1,0.1h1.1V83L95.9,82.9L95.9,82.9z M98.8,87.2h1.4c-0.2-0.4-0.6-0.9-0.9-1.3l0.7-0.3h-1.3L98.8,87.2z"/>
<path class="st3" d="M111.9,89.3c0.9-2,1.6-4.2,2-6.5l1.7,0.4c-0.2,0.4-0.3,0.9-0.4,1.3c-0.4,1.6-1,3.1-1.7,4.7h2.4
	c0.7,0,1.2,0,1.7-0.1v1.6c-0.6-0.1-1.1-0.1-1.7-0.1h-8.7c-0.6,0-1.1,0-1.8,0.1v-1.6c0.4,0,1,0.1,1.8,0.1L111.9,89.3L111.9,89.3z
	 M110.6,80.2c0-0.3,0-0.7-0.1-1h1.7c-0.1,0.3-0.1,0.7-0.1,1V81h3.2c0.6,0,1.1,0,1.8-0.1v1.6c-0.6-0.1-1.1-0.1-1.8-0.1h-7.8
	c-0.6,0-1.1,0-1.7,0.1v-1.6c0.6,0.1,1.1,0.1,1.7,0.1h3L110.6,80.2z M108.9,82.9c0.7,1.7,1.1,3.5,1.6,5.2l-1.4,0.6
	c-0.3-1.8-0.8-3.6-1.4-5.2L108.9,82.9z"/>
<path class="st3" d="M121.8,88.5c0.3,0.6,0.9,1,1.6,1.1c-0.2-0.3-0.4-0.6-0.8-0.9c0.8-0.1,1.4-0.3,2.1-0.8h-1.9v-4.5h7.4v4.7h-1.7
	c0.8,0.3,1.6,0.6,2.3,0.7c-0.2,0.3-0.4,0.6-0.7,0.9l1.2-0.1c-0.2,0.4-0.3,1-0.4,1.4c-1.3,0-3.1,0.1-4.8,0.1c-2.3,0-3-0.1-3.9-0.6
	c-0.4-0.2-0.8-0.6-1.1-1c-0.6,0.6-1.2,1.1-1.9,1.6l-0.7-1.6c0.7-0.3,1.3-0.8,1.9-1.3v-2.9h-0.7c-0.3,0-0.6,0-0.9,0.1V84
	c0.3,0.1,0.8,0.1,1.1,0.1h2c0,0.4-0.1,1-0.1,1.4L121.8,88.5L121.8,88.5z M120,79.1c0.8,0.7,1.6,1.6,2.2,2.4l-1.1,1
	c-0.6-0.9-1.3-1.8-2.1-2.4L120,79.1z M129.2,79.6h1.1v2.3h-3.2v0.3h2.8c0.4,0,0.8,0,1.2-0.1v1.1c-0.4-0.1-0.8-0.1-1.2-0.1H123
	c-0.4,0-0.8,0-1.2,0.1v-1.1c0.4,0.1,0.8,0.1,1.2,0.1h2.7v-0.3h-3.1v-1.4c0-0.2,0-0.6-0.1-0.8h3.2V79h1.4v0.7L129.2,79.6L129.2,79.6z
	 M123.9,80.5v0.4h1.8v-0.4H123.9z M126.1,88.6c-0.7,0.4-1.4,0.9-2.2,1.1c0.6,0.1,1.1,0.1,1.7,0.1c1.1,0,2.8,0,3.8-0.1
	c-0.9-0.2-1.7-0.7-2.4-1.1l0.7-0.6h-2.3L126.1,88.6z M124.2,84.8h4.7v-0.4h-4.7V84.8z M124.2,85.9h4.7v-0.3h-4.7V85.9z M124.2,87.2
	h4.7v-0.4h-4.7V87.2z M127.1,80.9h1.9v-0.4h-1.9C127.1,80.5,127.1,80.9,127.1,80.9z"/>
<path class="st3" d="M135,89.9c0,0.6,0,1,0.1,1.6h-1.6c0.1-0.6,0.1-1.1,0.1-1.6v-5.3c-0.3,0.6-0.7,1.1-1.1,1.6
	c-0.2-0.6-0.4-1.1-0.8-1.6c0.9-1,1.7-2.1,2.2-3.5c0.3-0.7,0.4-1.3,0.7-2.1l1.6,0.4c-0.1,0.2-0.2,0.6-0.3,0.8s-0.3,0.9-0.4,1.1
	l-0.4,1V89.9L135,89.9z M137.3,84.9c-0.6,0-1.1,0-1.7,0.1v-1.4c0.6,0.1,1.1,0.1,1.6,0.1h5.5c0.6,0,1.1,0,1.7-0.1v1.4
	c-0.6-0.1-1.1-0.1-1.7-0.1h-2.9c-0.4,1.4-0.9,2.9-1.6,4.3c1.9-0.2,3.1-0.4,3.8-0.4c-0.4-0.8-0.9-1.7-1.3-2.4l1.3-0.4
	c1,1.4,1.9,3,2.6,4.7l-1.3,0.7c-0.2-0.7-0.3-0.9-0.6-1.2c-1.7,0.3-2.3,0.4-5.2,0.8l-0.7,0.1l-0.4,0.1c-0.1,0-0.3,0-0.4,0.1l-0.3-1.6
	h1.2c0.7-1.4,1.1-2.9,1.6-4.5L137.3,84.9L137.3,84.9z M136.7,79.9c0.6,0,1.1,0.1,1.6,0.1h3.7c0.6,0,1.1,0,1.7-0.1v1.4
	c-0.6-0.1-1.1-0.1-1.7-0.1h-3.7c-0.6,0-1.1,0-1.7,0.1L136.7,79.9z"/>
<path class="st3" d="M147.3,87.7c-0.6,0-1.1,0-1.7,0.1v-1.4c0.6,0.1,1.1,0.1,1.6,0.1h3.7v-0.9h0.6c0.6-0.3,1.1-0.7,1.6-1.1h-4.9
	v-1.3c0.4,0,0.9,0.1,1.3,0.1h5.5l0.8,0.8l-0.4,0.4c-0.8,0.8-1.8,1.3-2.7,2h3.5c0.6,0,1.1,0,1.7-0.1v1.4c-0.6-0.1-1.1-0.1-1.7-0.1
	h-3.6v2.3c0,0.3,0,0.6-0.1,0.9c-0.2,0.3-0.7,0.4-1.9,0.4h-1.3c-0.1-0.4-0.2-1-0.4-1.4c0.6,0.1,1.1,0.1,1.7,0.1s0.7,0,0.7-0.3v-2
	L147.3,87.7L147.3,87.7z M148.1,81.2c-0.2-0.6-0.6-1-1-1.4l1.3-0.4c0.4,0.6,0.9,1.2,1.2,1.9h1.4c-0.2-0.6-0.4-1.1-0.8-1.7l1.3-0.3
	c0.3,0.7,0.7,1.3,0.9,2.1h1.1c0.4-0.7,0.8-1.3,1.1-2l1.4,0.4c-0.3,0.6-0.7,1.1-1,1.6h0.6c0.6,0,1.1,0,1.7-0.1c0,0.3-0.1,0.8-0.1,1.1
	v1.2c0,0.3,0,0.7,0.1,1H156v-2.1h-8.7v2.1h-1.4c0-0.3,0.1-0.7,0.1-1v-2.3c0.6,0,1,0.1,1.6,0.1L148.1,81.2L148.1,81.2L148.1,81.2z"/>
<path class="st3" d="M160.2,80.8c-0.3,0-0.8,0-1.1,0.1v-1.4c0.4,0.1,0.9,0.1,1.3,0.1h2.3c0.4,0,0.9,0,1.2-0.1v1.4h-1.8
	c-0.1,1-0.4,2-0.9,2.9h2.3v6.6h-1.3v-0.7h-1.1v1.3h-1.4c0.1-0.4,0.1-0.9,0.1-1.3V86c-0.2,0.4-0.4,0.9-0.9,1.2
	c-0.1-0.6-0.2-1.1-0.6-1.7c0.8-0.8,1.3-1.8,1.7-2.9c0.2-0.6,0.3-1.2,0.4-1.8L160.2,80.8L160.2,80.8z M161.2,88.5h1.2v-3.5h-1.1
	L161.2,88.5L161.2,88.5z M165.5,80.8c-0.3,0-0.8,0-1.1,0.1v-1.4c0.4,0.1,1,0.1,1.4,0.1h3.9c0.4,0,1,0,1.4-0.1v1.4
	c-0.4-0.1-0.9-0.1-1.3-0.1v3.1h0.1c0.4,0,0.9,0,1.3-0.1v1.4c-0.4,0-0.9-0.1-1.3-0.1h-0.1v4.3c0,0.6,0,1.1,0.1,1.7h-1.6v-6h-1.6
	c0,0.9-0.1,1.8-0.3,2.7c-0.2,1.2-0.8,2.4-1.7,3.5c-0.3-0.4-0.8-0.8-1.2-0.9c0.8-0.9,1.3-1.9,1.6-3.1c0.1-0.7,0.2-1.4,0.2-2.1
	c-0.4,0-0.9,0-1.3,0.1v-1.4c0.4,0.1,0.9,0.1,1.3,0.1L165.5,80.8L165.5,80.8z M168.4,83.9v-3.1h-1.6v3.1H168.4z"/>
<path class="st3" d="M179.9,85.6h1.4v3.9c0,0.3,0.1,0.4,0.6,0.4c1,0,1.1,0,1.2-0.3c0.1-0.7,0.2-1.3,0.2-2.1c0.4,0.2,0.9,0.3,1.4,0.4
	c-0.2,3.1-0.3,3.2-2.8,3.2c-1.7,0-2-0.2-2-1.2v-3h-2c-0.2,1-0.8,2-1.6,2.7c-1,0.8-2.1,1.4-3.2,1.8c-0.2-0.4-0.6-0.9-0.9-1.3
	c1.1-0.2,2.1-0.8,3.1-1.4c0.6-0.4,0.9-1,1.1-1.7h-1.9c-0.4,0-1,0-1.4,0.1v-1.4c0.4,0.1,1,0.1,1.4,0.1h2.1c0-0.3,0.1-0.6,0.1-0.8
	s0-0.6-0.1-0.8h1.6c-0.1,0.3-0.1,0.8-0.1,1.1v0.4L179.9,85.6L179.9,85.6z M177.5,80c0-0.3,0-0.6-0.1-0.9h1.7c0,0.3-0.1,0.6-0.1,0.9
	v0.2h3.8c0.4,0,1,0,1.4-0.1v2.9h-0.9c-0.1,0.8-0.2,1-0.7,1.2c-0.8,0.2-1.4,0.2-2.2,0.2c-1.3,0-1.8-0.2-1.8-1v-2h-1.1
	c-0.1,0.7-0.3,1.2-0.7,1.8c-0.7,0.9-1.3,1.2-3.3,1.8c-0.2-0.4-0.4-0.9-0.8-1.2c1,0,1.9-0.3,2.7-0.9c0.4-0.3,0.7-0.8,0.8-1.3h-2.2
	v1.6h-1.4c0-0.3,0.1-0.7,0.1-1v-1.9c0.4,0,1,0.1,1.4,0.1h3.6L177.5,80L177.5,80z M182.8,81.6h-2.7v1.4c0,0.3,0.1,0.3,0.9,0.3
	s0.9-0.1,1-0.2c0.1-0.2,0.1-0.6,0.1-0.8c0.2,0.1,0.4,0.1,0.7,0.2L182.8,81.6L182.8,81.6L182.8,81.6z"/>
<path class="st3" d="M191.3,85.5v1.1h-3.6c0,1.7-0.3,3.3-1.2,4.8c-0.3-0.4-0.8-0.8-1.2-1c0.8-1.4,1-2.8,1-6.3c0-0.7,0-1.2-0.1-1.9
	h4.9v1.2L191.3,85.5L191.3,85.5z M186,79.6c0.4,0.1,1,0.1,1.4,0.1h2.9c0.4,0,1,0,1.4-0.1V81c-0.4-0.1-0.9-0.1-1.3-0.1h-3.1
	c-0.4,0-0.9,0-1.3,0.1V79.6z M190,85.3v-2h-2.1v2H190z M193.7,84.5c0,1.2-0.2,2.4-0.6,3.7c-0.2,0.8-0.7,1.6-1.1,2.1
	c-0.2,0.3-0.6,0.7-0.9,1c-0.3-0.4-0.7-0.8-1.1-1.1c0.9-0.8,1.6-1.8,1.8-3c0.3-1.7,0.6-3.2,0.4-4.9v-2.1c1.7,0,3.5-0.4,5-1.1l0.8,1.3
	c-0.2,0-0.3,0.1-0.7,0.2c-1.2,0.3-2.4,0.7-3.7,0.8v1.7h3c0.4,0,0.9,0,1.3-0.1v1.6c-0.4,0-0.8-0.1-1.2-0.1h-0.2v5.3
	c0,0.4,0,1,0.1,1.4h-1.6c0.1-0.4,0.1-1,0.1-1.4v-5.3L193.7,84.5L193.7,84.5L193.7,84.5z"/>
<path class="st3" d="M356.6,84.8c0,1.2-0.3,2.4-0.9,3.6c-0.8,1.2-2,2.2-3.5,2.7c-0.2-0.6-0.7-1.1-1.1-1.4c1.3-0.3,2.5-1.1,3.1-2.2
	c0.3-0.8,0.6-1.7,0.6-2.6h-3.2c-0.6,0-1.1,0-1.7,0.1v-1.6c0.6,0.1,1.1,0.1,1.7,0.1h7.8c0.6,0,1.1,0,1.7-0.1V85
	c-0.6-0.1-1.1-0.1-1.7-0.1L356.6,84.8L356.6,84.8z M359.8,80.4c0.5,0.6,0.7,1.2,0.9,1.9l-1,0.4c-0.2-0.7-0.5-1.2-0.9-1.9v0.7
	c-0.6-0.1-1.1-0.1-1.7-0.1h-4c-0.6,0-1.1,0-1.7,0.1v-1.7c0.6,0.1,1.1,0.1,1.7,0.1h4c0.6,0,1.1,0,1.7-0.1v0.8L359.8,80.4L359.8,80.4z
	 M361.1,82.2c-0.2-0.7-0.6-1.2-0.9-1.9l1-0.3c0.5,0.6,0.7,1.1,0.9,1.8C362.1,81.7,361.1,82.2,361.1,82.2z"/>
<path class="st3" d="M363.3,84.3c0.7,0.1,1.5,0.1,2.1,0.1h7.1c0.7,0,1.5,0,2.1-0.1v1.9c-0.8-0.1-1.5-0.1-2.2-0.1h-7.1
	c-0.8,0-1.5,0-2.2,0.1L363.3,84.3L363.3,84.3z"/>
<path class="st3" d="M387.4,81.6c-0.2,0.2-0.3,0.6-0.5,0.9c-0.5,1.2-1,2.4-1.7,3.7c-1.5,2.3-3.6,4.1-6.1,5.1c-0.2-0.6-0.7-1-1.1-1.3
	c0.9-0.3,1.8-0.8,2.6-1.3s1.6-1.1,2.2-1.9c-0.9-0.8-1.8-1.3-2.8-1.9l1-1.2c1,0.6,1.9,1.1,2.7,1.8c0.7-1,1.1-2,1.5-3.1h-4.1
	c-0.8,1.3-1.9,2.6-3.1,3.6c-0.3-0.4-0.8-0.9-1.3-1.1c1.3-1,2.6-2.3,3.3-3.8c0.3-0.6,0.6-1.2,0.8-1.9l1.8,0.3
	c-0.1,0.1-0.2,0.4-0.5,0.8c-0.1,0.2-0.2,0.4-0.3,0.7h3.5c0.5,0,0.8,0,1.2-0.1L387.4,81.6L387.4,81.6z"/>
<path class="st3" d="M397.5,82.1v-1c0-0.4,0-1-0.1-1.4h1.7c0,0.3-0.1,0.6,0,0.9v1.6h0.9c0.6,0,1.1,0,1.8-0.1v1.7
	c-0.6-0.1-1.1-0.1-1.7-0.1h-0.9c0,0.8,0,1.4-0.1,2.2c-0.1,1.4-0.8,2.9-1.9,3.8c-0.8,0.7-1.7,1.1-2.6,1.4c-0.2-0.6-0.6-1-1-1.4
	c0.9-0.2,1.8-0.7,2.6-1.2c0.9-0.8,1.5-2,1.5-3.2v-1.6h-3.5v3.1h-1.8v-3.1h-0.8c-0.6,0-1.1,0-1.7,0.1v-1.7c0.6,0.1,1.1,0.1,1.7,0.1h1
	v-1.3c0-0.4,0-0.8-0.1-1.2h1.8v2.4L397.5,82.1L397.5,82.1z"/>
<path class="st3" d="M414.2,80.5c-0.2,0.1-0.3,0.3-0.5,0.4c-1,1-2,1.9-3.1,2.8v5.7c0,0.4,0,1,0.1,1.4h-1.9c0.1-0.4,0.1-1,0.1-1.4
	v-4.7c-1.5,0.9-3.1,1.7-4.8,2.1c-0.2-0.6-0.6-1.1-0.9-1.6c2.6-0.7,4.9-1.9,7-3.5c1-0.7,1.8-1.6,2.5-2.4L414.2,80.5L414.2,80.5z"/>
<path class="st3" d="M423.3,88h3.2c0.6,0,1.1,0,1.8-0.1v1.7c-0.6-0.1-1.1-0.1-1.7-0.1h-8c-0.6,0-1.1,0-1.7,0.1v-1.7
	c0.6,0.1,1.1,0.1,1.8,0.1h3v-5.5h-2c-0.6,0-1.1,0-1.7,0.1v-1.7c0.6,0.1,1.1,0.1,1.8,0.1h5.9c0.6,0,1.1,0,1.8-0.1v1.6
	c-0.6-0.1-1.1-0.1-1.7-0.1h-2.2L423.3,88L423.3,88z"/>
<path class="st3" d="M430.8,88.7c1.3-0.1,2.7-0.4,3.9-1c1.6-0.7,3-1.8,4-3.2c0.6-0.8,1-1.7,1.3-2.7c0.5,0.6,0.9,1,1.5,1.3
	c-0.9,2.1-2.3,3.9-4.2,5.2c-1.6,1-3.2,1.7-5.1,2c-0.3,0-0.6,0.1-0.9,0.2L430.8,88.7L430.8,88.7z M431.9,80.4
	c1.2,0.8,2.5,1.6,3.5,2.6l-1.1,1.4c-1-1.1-2.1-2-3.5-2.7L431.9,80.4L431.9,80.4z"/>
<path class="st3" d="M453.8,90.7c-1.2-1.4-2.6-2.8-4.1-4c-1.5,1.7-3.1,2.9-5.1,3.9c-0.3-0.6-0.7-1-1.1-1.4c1-0.3,1.9-0.9,2.7-1.4
	c2-1.3,3.5-3.2,4.5-5.5l0.1-0.3l-4.5,0.1c-0.5,0-1,0-1.5,0.1v-1.7c0.5,0.1,0.8,0.1,1.2,0.1h0.3l4.7-0.1c0.5,0,0.8,0,1.2-0.1l0.9,0.9
	c-0.2,0.2-0.3,0.4-0.5,0.8c-0.6,1.3-1.2,2.6-2.1,3.7c0.9,0.6,1.7,1.2,2.5,1.9c0.2,0.2,0.9,0.9,2,1.9L453.8,90.7L453.8,90.7z"/>
<path class="st3" d="M352.6,95.1c0-0.4,0-0.9-0.1-1.3h1.7c-0.1,0.4-0.1,0.9-0.1,1.3V96h3v-0.9c0-0.4,0-0.9-0.1-1.3h1.7
	c-0.1,0.4-0.1,0.9-0.1,1.4v0.9h1.1c0.6,0,1,0,1.6-0.1v1.6c-0.6,0-1-0.1-1.6-0.1h-1.1v2.9h1.3c0.6,0,1.1,0,1.8-0.1v1.7
	c-0.6-0.1-1.1-0.1-1.7-0.1h-8.7c-0.6,0-1.1,0-1.7,0.1v-1.7c0.6,0.1,1.1,0.1,1.7,0.1h1.3v-2.8h-1c-0.5,0-1,0-1.5,0.1v-1.6
	c0.5,0.1,1,0.1,1.5,0.1h1L352.6,95.1L352.6,95.1L352.6,95.1z M354.7,102.8c-0.6,0.8-1.2,1.4-2,2c-0.6,0.4-1.2,0.8-2,1.1
	c-0.3-0.4-0.7-0.9-1-1.2c0.8-0.2,1.6-0.7,2.2-1.1c0.6-0.4,1.1-0.9,1.6-1.4L354.7,102.8z M357.1,100.3v-2.9h-3v2.9H357.1z M357.9,102
	c0.6,0.7,1.1,1.2,1.8,1.6c0.7,0.4,1.3,0.8,2.1,1c-0.5,0.3-0.8,0.8-1,1.3c-0.9-0.3-1.7-0.9-2.3-1.4c-0.7-0.4-1.2-1-1.8-1.7L357.9,102
	L357.9,102z"/>
<path class="st3" d="M363.5,95.3V94c0.2,0,0.9,0.1,1.6,0.1h8.4c0.7,0,1.1,0,1.5-0.1c0,0.4-0.1,1,0,1.4v8.9c0,1.1-0.5,1.3-2.2,1.3
	h-1.5c0-0.4-0.2-1-0.3-1.4c0.7,0.1,1.2,0.1,1.9,0.1c0.6,0,0.7,0,0.7-0.3v-8.7h-8.1v8.9c0,0.6,0,1,0.1,1.6h-1.7
	c0.1-0.6,0.1-1.1,0.1-1.6L363.5,95.3L363.5,95.3z M365.6,96.3c0.5,0.1,0.8,0.1,1.2,0.1h4.6c0.5,0,0.8,0,1.2-0.1v1.4h-7L365.6,96.3
	L365.6,96.3z M371.8,102.4v0.9h-4.1v1h-1.5c0-0.4,0.1-0.8,0-1.2v-4.3h5.6L371.8,102.4L371.8,102.4z M367.7,102h2.7v-1.9h-2.7V102z"
	/>
<path class="st3" d="M379,95.8c-0.9,0.2-1.1,0.2-2,0.3c-0.1-0.4-0.3-0.9-0.6-1.3c1.8-0.1,3.6-0.6,5.1-1.3l0.9,1.2
	c-1,0.3-1.6,0.6-2.1,0.7V97h1.1c0.3,0,0.8,0,1.1-0.1v1.4c-0.3,0-0.8-0.1-1.1-0.1h-1c0.6,1,1.2,1.8,2.1,2.4c-0.3,0.4-0.6,0.9-0.7,1.3
	c-0.7-0.7-1.2-1.3-1.6-2.1c0,0.4,0.1,1,0.1,1.7v2.3c0,0.6,0,1.1,0.1,1.7h-1.6c0.1-0.6,0.1-1.1,0.1-1.7v-2.2c0-0.6,0-1.1,0.1-1.6
	c-0.2,0.7-0.6,1.3-0.9,1.9s-0.7,1-1.1,1.4c-0.2-0.4-0.5-1-0.8-1.4c0.6-0.6,1.1-1.1,1.5-1.8s0.8-1.3,1-2h-1c-0.5,0-0.8,0-1.2,0.1
	v-1.4c0.5,0.1,0.9,0.1,1.2,0.1h1.2L379,95.8L379,95.8z M384.9,94.5c-0.1,0.6-0.1,1.1-0.1,1.6v5c0,0.6,0,1,0.1,1.6h-1.6
	c0.1-0.6,0.1-1,0.1-1.6V96c0-0.6,0-1.1-0.1-1.6L384.9,94.5L384.9,94.5z M388.1,93.8c-0.1,0.6-0.1,1.2-0.1,1.8v8.6
	c0,0.7-0.1,1.1-0.6,1.3c-0.6,0.2-1.2,0.3-1.9,0.2h-1c-0.1-0.6-0.2-1-0.5-1.4c0.6,0.1,1.2,0.1,1.8,0.1s0.7,0,0.7-0.4v-8.4
	c0-0.7,0-1.2-0.1-1.8L388.1,93.8L388.1,93.8z"/>
<path class="st3" d="M392.1,101.7c-0.1,1.4-0.6,2.9-1.3,4.2c-0.5-0.4-0.8-0.8-1.3-1.1c0.5-0.7,0.8-1.4,1-2.2c0.1-0.7,0.2-1.3,0.2-2
	c0.1-1.1,0.1-3,0.1-4.6c0-0.7,0-1.3-0.1-1.9h10.6c0,0.6-0.1,1,0,1.6v8.8c0,1.1-0.5,1.3-1.9,1.3h-1.5c-0.1-0.4-0.2-1-0.3-1.3
	c0.7,0.1,1.2,0.1,1.7,0.1s0.7-0.1,0.7-0.3v-2.3h-3.2v2.2c0,0.6,0,1.1,0.1,1.6h-1.6c0.1-0.6,0.1-1,0.1-1.6v-2.2L392.1,101.7
	L392.1,101.7z M395.2,98.6h-2.9v1.9h3L395.2,98.6L395.2,98.6z M395.2,95.4h-2.9v1.7h2.9V95.4z M399.8,97.2v-1.8h-3.2v1.8H399.8z
	 M399.8,100.3v-1.8h-3.2v1.8H399.8z"/>
<path class="st3" d="M405.6,94.7c0-0.3,0-0.7-0.1-1h1.6c0,0.3-0.1,0.7-0.1,1h4.2c0-0.3,0-0.7-0.1-1h1.6c0,0.3-0.1,0.7-0.1,1h0.9
	c0.5,0,1,0,1.5-0.1v1.3c-0.5,0-1-0.1-1.5-0.1h-0.9v3.8h1.1c0.5,0,1,0,1.5-0.1v1.3c-0.5-0.1-1-0.1-1.5-0.1h-1.5
	c0.9,0.8,2,1.2,3.2,1.4c-0.2,0.4-0.5,0.9-0.7,1.4c-0.9-0.3-1.7-0.7-2.5-1.2v0.9h-2.8v0.9h3.2c0.5,0,1,0,1.5-0.1v1.4
	c-0.6-0.1-1-0.1-1.6-0.1h-7.5c-0.6,0-1.1,0-1.6,0.1V104c0.6,0,1,0.1,1.6,0.1h3v-0.9h-2.6v-0.9c-0.8,0.6-1.6,1-2.3,1.3
	c-0.1-0.4-0.3-1-0.7-1.3c1.1-0.2,2.2-0.8,3.1-1.6h-1.3c-0.5,0-1,0-1.5,0.1v-1.3c0.5,0.1,1,0.1,1.5,0.1h1.1v-3.8h-0.8
	c-0.6,0-1,0-1.5,0.1v-1.4c0.5,0.1,1,0.1,1.5,0.1L405.6,94.7L405.6,94.7z M407.6,100.8c-0.3,0.4-0.8,0.9-1.2,1.2h2
	c0-0.3,0-0.7-0.1-0.9h1.6c0,0.3-0.1,0.7-0.1,0.9h2.2c-0.6-0.3-1-0.8-1.3-1.2H407.6L407.6,100.8z M411.3,96.3v-0.4h-4.2v0.6
	L411.3,96.3z M411.3,97.9v-0.6h-4.2v0.6H411.3z M411.3,99.6V99h-4.2v0.6H411.3z"/>
<path class="st3" d="M428.2,97.9l-0.1,0.1c0,0.1-0.1,0.1-0.1,0.2c-0.5,0.6-1,1.1-1.7,1.6c0.8,0.3,1.6,0.6,2.3,0.6
	c-0.2,0.3-0.5,0.8-0.6,1.2c-1-0.2-2-0.6-2.9-1.1c-0.8,0.4-1.6,0.7-2.5,0.9c-0.2-0.3-0.5-0.7-0.8-1c0,0.2-0.1,0.4-0.3,0.7
	c-0.3,0.2-0.8,0.3-1.2,0.2h-0.8c0-0.3-0.1-0.7-0.2-1c0.3,0,0.7,0.1,1,0.1c0.1,0,0.2,0,0.2-0.1v-2l-0.6,0.1v1.7H419
	c0.1-0.2,0.1-0.6,0.1-0.8v-0.8l-0.7,0.1c-0.1,1.2-0.5,2.3-1.1,3.2c-0.3-0.3-0.7-0.7-1-0.9c0.6-0.7,0.9-1.4,0.9-2.2l-0.8,0.1
	l-0.1-1.3h1.1v-1.8c0-0.4,0-0.8-0.1-1.2c0.5,0,0.9,0.1,1.3,0.1h0.1c0.1-0.3,0.3-0.7,0.3-1l1.5,0.2c-0.1,0.4-0.3,0.6-0.5,0.8h0.5
	c0.6,0,1.1,0,1.3-0.1V97l0.5-0.1V98l-0.5,0.1v2.2c0.7-0.1,1.5-0.3,2.1-0.6c-0.3-0.3-0.7-0.6-1-0.9l1.1-0.4h-1.5v-1.1h0.5
	c-0.2-0.3-0.6-0.7-0.9-0.9c0.3-0.1,0.6-0.3,0.8-0.6c0.2-0.4,0.3-0.9,0.3-1.3V94h3.3v1.8c0,0.1,0.1,0.2,0.3,0.2c0.3,0,0.5,0,0.5-0.2
	v-0.9c0.3,0.2,0.7,0.3,1.1,0.3c0,0.9-0.1,1.2-0.3,1.4s-0.7,0.3-1.3,0.3c-1.2,0-1.5-0.1-1.5-0.8v-1.1h-1.1c0,0.7-0.2,1.2-0.7,1.7
	c-0.2,0.2-0.3,0.3-0.6,0.4h4.2L428.2,97.9L428.2,97.9z M417.9,102.6v-1.1h9.5v2.8h1.5v1.3c-0.5,0-1-0.1-1.6-0.1h-9.1
	c-0.6,0-1.1,0-1.6,0.1v-1.3h1.5L417.9,102.6L417.9,102.6z M418.6,95.4v1.9c1.1-0.1,1.7-0.1,2.2-0.2v-1.8L418.6,95.4L418.6,95.4z
	 M419.8,97.1c-0.2-0.4-0.6-0.8-0.9-1.1l0.8-0.4c0.3,0.3,0.7,0.7,0.9,1.1L419.8,97.1z M419.2,104.3h1.3v-1.6h-1.3V104.3z
	 M421.9,104.3h1.5v-1.6h-1.5V104.3z M424.2,98.3c0.2,0.3,0.6,0.6,1,0.8c0.3-0.2,0.7-0.4,1-0.8H424.2L424.2,98.3z M424.4,104.3h1.5
	v-1.6h-1.5V104.3z"/>
<path class="st3" d="M436.7,100.3v3.5c0,0.2,0,0.3,0.2,0.4c0.3,0.1,0.8,0.1,1.2,0.1c1.9,0,2.2,0,2.3-0.2s0.2-0.4,0.2-1.4
	c0.5,0.2,0.9,0.3,1.3,0.4c-0.1,1.2-0.3,1.8-0.7,2.1s-0.9,0.3-3,0.3c-2.3,0-2.9-0.2-2.9-1.3v-3.7c-0.1,0-0.3,0.1-0.5,0.2l-0.3-1.3
	h0.1c0.2,0,0.5-0.1,0.7-0.1v-1.2l-0.3,0.4c-0.2-0.4-0.7-0.8-1-1c0.2-0.2,0.5-0.4,0.6-0.7h-2.3v1.4h2.2v1.2c0,0.9,0,2.6-0.1,3.3
	c0,0.9-0.1,1.8-0.6,2.6c-0.3,0.3-0.8,0.4-1.2,0.3h-0.8c0-0.4-0.1-1-0.2-1.4h0.2c0.2,0,0.5,0.1,0.8,0.1s0.5-0.1,0.6-0.9
	c0.1-1.3,0.2-2.7,0.2-4h-1.1c-0.1,1.1-0.2,2.2-0.5,3.3c-0.2,1.1-0.8,2.1-1.3,3c-0.2-0.4-0.6-0.9-1-1.2c0.8-1.1,1.2-2.4,1.3-3.8
	c0.2-1.3,0.2-2.7,0.2-4.1H431c-0.3,0-0.8,0-1.1,0.1v-1.4c0.5,0.1,0.8,0.1,1.2,0.1h0.8v-0.8c0-0.3,0-0.8-0.1-1.1h1.6
	c0,0.3-0.1,0.8-0.1,1.1v0.7h0.6c0.5,0,0.8,0,1.2-0.1v1c0.6-0.9,1-1.9,1.3-2.9l1.6,0.3c-0.1,0.1-0.2,0.3-0.2,0.4l-0.3,0.8h3.5
	c0.5,0,0.9,0,1.3-0.1v1.4h-5.4c-0.2,0.4-0.5,0.8-0.8,1.2h1c-0.1,0.3-0.1,0.7-0.1,1v0.3l1.1-0.2v-1.9h1.3c-0.1,0.3-0.1,0.7-0.1,1v0.4
	l1.3-0.3l0.5-0.1l0.3-0.1c0.1,0,0.3-0.1,0.5-0.1c-0.1,3.2-0.1,4.1-0.3,4.6s-0.5,0.6-1.2,0.6h-0.6c0-0.4-0.1-0.9-0.3-1.2
	c0.2,0,0.5,0.1,0.7,0.1s0.3-0.1,0.3-0.7v-1.4l-1.2,0.3v3.5h-1.3c0-0.3,0.1-0.8,0-1.1V100L436.7,100.3L436.7,100.3z"/>
<path class="st3" d="M443.3,95.8c0.3,0.1,0.8,0.1,1.1,0.1h3.8v1.3h-4.9L443.3,95.8L443.3,95.8z M454.9,99.9
	c-0.1,0.2-0.2,0.3-0.2,0.6c-0.5,1-1,2-1.8,2.8c0.9,0.6,1.9,1,3,1.2c-0.3,0.4-0.6,0.9-0.7,1.4c-1.2-0.3-2.3-0.9-3.3-1.7
	c-1,0.8-2.1,1.3-3.2,1.8c-0.2-0.4-0.5-0.8-0.7-1.1v1h-1.3v-0.4h-1.6v0.4h-1.3c0.1-0.4,0.1-0.9,0.1-1.3v-2c0-0.3,0-0.7-0.1-1h4.2v3
	c1-0.2,2-0.7,2.8-1.3c-0.8-0.8-1.3-1.8-1.7-2.8h-0.6v-1.3c0.3,0,0.6,0.1,0.9,0.1h4.8L454.9,99.9L454.9,99.9z M443.7,93.9
	c0.3,0,0.8,0.1,1.1,0.1h1.9c0.3,0,0.8,0,1.1-0.1v1.3h-4.1L443.7,93.9L443.7,93.9z M443.7,97.8h4.1V99h-4.1V97.8z M443.7,99.7h4.1
	v1.2h-4.1V99.7z M445,104.1h1.6v-1.3H445V104.1z M450.6,95.3c0,0.9-0.1,1.8-0.6,2.6c-0.2,0.4-0.6,0.9-1,1.2
	c-0.3-0.3-0.7-0.7-1.1-0.9c1.1-0.8,1.3-1.6,1.3-3.3c0-0.3,0-0.6-0.1-0.9h4.2c0,0.3-0.1,0.8,0,1.1V97c0,0.2,0.1,0.2,0.5,0.2
	c0.4,0,0.6-0.5,0.7-1.6c0.3,0.2,0.8,0.3,1.2,0.4c-0.1,2.2-0.3,2.3-2,2.3c-1.3,0-1.6-0.1-1.6-0.9v-2.3L450.6,95.3L450.6,95.3z
	 M450.3,100.5c0.3,0.8,0.8,1.3,1.3,1.9c0.6-0.6,1-1.2,1.3-1.9H450.3z"/>
<path class="st5" d="M254.6,310.7h7c2.7,0,4.8,1.2,4.8,3.7c0.1,1.8-1.1,3.5-2.9,3.8l0,0c1.2,0.3,1.3,1.5,2.1,3.2l1.5,4h-4l-0.9-2.7
	c-0.8-2.6-1.3-3.2-2.8-3.2h-0.8v5.9h-3.9L254.6,310.7L254.6,310.7z M258.6,316.9h1c1.2,0,2.9,0,2.9-1.7c0-1.3-1.3-1.7-2.9-1.7h-1
	V316.9L258.6,316.9z"/>
<path class="st5" d="M275.8,310.5c4.9,0,7.4,2.9,7.4,7.7s-2.6,7.7-7.4,7.7s-7.4-2.9-7.4-7.7S270.9,310.5,275.8,310.5z M275.8,322.9
	c2.3,0,3.3-2.3,3.3-4.7s-1-4.7-3.3-4.7s-3.3,2.1-3.3,4.7S273.4,322.9,275.8,322.9L275.8,322.9z"/>
<path class="st5" d="M285.6,310.7h3.9v14.8h-3.9V310.7z"/>
<path class="st5" d="M292.5,321.9c1.2,0.7,2.7,1,4,1c1.2,0,2.5-0.2,2.5-1.5c0-2.8-7-1-7-6.4c0-3.6,3.5-4.6,6.5-4.6
	c1.3,0,2.6,0.2,3.8,0.6l-0.2,3c-1-0.5-2.1-0.7-3.3-0.7c-1,0-2.7,0.1-2.7,1.3c0,2.3,7,0.8,7,6.1c0,3.8-3.2,4.9-6.5,4.9
	c-1.5,0-3-0.2-4.5-0.7L292.5,321.9L292.5,321.9z"/>
<path class="st5" d="M205.5,337.1c0.3-1.1,0.4-2.3,0.4-3.6l1,0.2c0,1.2-0.1,2.6-0.4,3.8L205.5,337.1L205.5,337.1z M208.6,341.7
	c0,0.7,0,1.1,0.1,1.7h-1.6c0.1-0.6,0.1-1.1,0.1-1.7v-9.2c0-0.5,0-1-0.1-1.5h1.6c-0.1,0.5-0.1,1-0.1,1.5v1.1l0.8-0.3
	c0.3,0.6,0.6,1.1,0.7,1.8l-0.3,0.1h3.1v-0.6h-2.7v-1.2c0.3,0,0.8,0.1,1.1,0h1.6v-0.5H211c-0.4,0-0.9,0-1.3,0.1v-1.2
	c0.4,0.1,0.9,0.1,1.3,0.1h1.7c0-0.3,0-0.7-0.1-0.9h1.6c-0.1,0.3-0.1,0.6-0.1,0.9h2c0.4,0,0.9,0,1.3-0.1v1.2
	c-0.4-0.1-0.9-0.1-1.3-0.1h-2.1v0.5h3v1.2c-0.3,0-0.8-0.1-1.1,0h-1.9v0.6h2.3c0.4,0,0.9,0,1.3-0.1v1.3c-0.4-0.1-0.9-0.1-1.3-0.1
	h-5.7c-0.4,0-0.9,0-1.3,0.1v-1.2l-0.4,0.2c-0.1-0.6-0.2-1-0.4-1.5L208.6,341.7L208.6,341.7z M211.5,341.8c0,0.6,0,1,0.1,1.6H210
	c0.1-0.6,0.1-1,0.1-1.6v-5h7c0,0.5-0.1,0.9-0.1,1.3v3.8c0,1-0.3,1.2-1.7,1.2h-1.2c0-0.5-0.1-0.9-0.3-1.2c0.4,0.1,0.9,0.1,1.3,0.1
	s0.4,0,0.4-0.3v-0.5h-4.1V341.8z M215.6,338.5v-0.6h-4.1v0.6H215.6z M215.6,340.2v-0.6h-4.1v0.6H215.6z"/>
<path class="st5" d="M223.9,334.6c0.3,0,0.8,0,1.1-0.1v1.5c-0.2,0-0.4-0.1-0.8,0c-0.1,0.6-0.2,1-0.4,1.5h0.1c0.3,0,0.7,0,1-0.1v1.5
	c-0.3,0-0.8-0.1-1.1,0h-1v1.1h2v1.5c-0.3,0-0.8-0.1-1.1,0h-0.9v1c0,0.5,0,0.9,0.1,1.3h-1.4c0.1-0.5,0.1-0.9,0.1-1.3v-1h-2.1v-1.5
	c0.3,0,0.8,0.1,1.1,0h1v-1.1h-2.4v-1.5c0.3,0.1,0.8,0.1,1.2,0.1h0.1c-0.1-0.6-0.2-1-0.3-1.5h-1v-1.5c0.3,0,0.8,0.1,1.2,0.1h1.2v-1
	h-2v-1.3h2V332c0-0.3,0-0.7-0.1-1h1.4v1.2h1.9v1.3c-0.3,0-0.8-0.1-1.1,0h-0.8v1L223.9,334.6L223.9,334.6z M222.6,337.4
	c0.2-0.5,0.3-1,0.4-1.5h-1.6c0.1,0.5,0.2,1,0.3,1.5H222.6z M231.1,336.5c-0.1,0.2-0.1,0.3-0.1,0.6c-0.2,1.1-0.6,2.2-1.1,3.3
	c0.6,0.7,1.1,1.1,1.8,1.6c-0.3,0.5-0.6,0.9-0.8,1.5c-0.7-0.6-1.3-1.1-1.8-1.8c-0.4,0.7-1,1.2-1.6,1.7c-0.2-0.3-0.4-0.8-0.8-1.1
	c0,0.5,0,0.8,0.1,1.2h-1.7c0.1-0.6,0.1-1,0.1-1.6v-8.9c0-0.5,0-1-0.1-1.3c0.4,0,0.9,0.1,1.2,0.1h3.3c0.4,0,0.8,0,1.2-0.1
	c0,0.5,0,0.6-0.1,0.9c-0.1,2.5-0.3,2.8-1.8,2.8c-0.4,0-0.8,0-1.2-0.1c0-0.5-0.1-0.9-0.3-1.2c0.4,0.1,0.9,0.1,1.3,0.1
	s0.4-0.1,0.6-1.1h-2.9v2.9h3.7L231.1,336.5L231.1,336.5z M226.6,341.9c0.6-0.5,1.1-1,1.4-1.6c-0.7-1-1-2.1-1.2-3.3h-0.2V341.9
	L226.6,341.9z M228.1,337c0.1,0.8,0.4,1.5,0.8,2.1c0.3-0.7,0.6-1.5,0.7-2.1H228.1z"/>
<path class="st5" d="M240.1,337.1c0,0.9-0.8,1.6-1.6,1.6c-0.9,0-1.6-0.8-1.6-1.6c0-0.9,0.8-1.6,1.6-1.6
	C239.5,335.6,240.1,336.3,240.1,337.1L240.1,337.1z"/>
<path class="st5" d="M247.6,334.9c1.2,0.5,2.4,1.1,3.6,1.8l-0.9,1.6c-1.1-0.8-2.3-1.5-3.6-2L247.6,334.9L247.6,334.9z M247.1,340.9
	c1.3-0.1,2.7-0.3,3.9-0.9c1.6-0.6,2.9-1.6,3.9-2.9c0.7-0.9,1.2-1.9,1.6-2.9c0.5,0.5,0.9,0.9,1.3,1.2c-0.5,1.2-1.1,2.3-2,3.3
	c-1.9,2.1-4.5,3.5-7.2,3.8c-0.4,0.1-0.7,0.1-0.9,0.2L247.1,340.9L247.1,340.9z M248.7,331.7c1.2,0.5,2.4,1,3.6,1.7l-0.9,1.5
	c-1.1-0.8-2.3-1.3-3.6-1.8L248.7,331.7L248.7,331.7z"/>
<path class="st5" d="M269.8,342.7c-1.2-1.5-2.6-2.8-4.1-4c-1.5,1.7-3.1,2.9-5.1,3.9c-0.3-0.6-0.7-1-1.1-1.5c1-0.3,1.9-0.9,2.7-1.5
	c2-1.3,3.5-3.2,4.5-5.5l0.1-0.3l-4.5,0.1c-0.5,0-1,0-1.5,0.1v-1.7c0.5,0.1,0.8,0.1,1.2,0.1h0.3l4.7-0.1c0.5,0,0.8,0,1.2-0.1l0.9,0.9
	c-0.2,0.2-0.3,0.5-0.5,0.7c-0.6,1.3-1.2,2.6-2.1,3.7c0.9,0.6,1.7,1.2,2.5,1.9c0.2,0.2,0.9,0.9,2,1.9L269.8,342.7L269.8,342.7z"/>
<path class="st5" d="M279.8,336.8c0,1.2-0.3,2.5-0.9,3.6c-0.8,1.2-2.1,2.2-3.6,2.7c-0.2-0.6-0.7-1.1-1.1-1.5
	c1.3-0.3,2.5-1.1,3.2-2.2c0.3-0.8,0.6-1.7,0.6-2.6h-3.2c-0.6,0-1.1,0-1.7,0.1v-1.6c0.6,0.1,1.1,0.1,1.7,0.1h7.8c0.6,0,1.1,0,1.8-0.1
	v1.6c-0.6-0.1-1.1-0.1-1.7-0.1L279.8,336.8L279.8,336.8z M274.5,331.9c0.6,0.1,1.1,0.1,1.7,0.1h5.1c0.6,0,1.1,0,1.8-0.1v1.7
	c-0.6-0.1-1.1-0.1-1.7-0.1h-5.1c-0.6,0-1.1,0-1.7,0.1v-1.7H274.5z"/>
<path class="st5" d="M292.5,331.8c-0.1,0.3-0.2,0.7-0.3,1c-1,3.3-1.8,5.6-2.7,7.6c1.9-0.1,3.7-0.3,5.6-0.7c-0.1-0.3-0.3-0.6-0.7-1.2
	c-0.3-0.8-0.8-1.5-1.3-2.1l1.6-0.6c1.3,1.9,2.3,4,3.2,6.1l-1.7,0.9c-0.2-0.6-0.3-1.1-0.7-1.7l-0.5,0.1c-1.3,0.2-3.6,0.6-7.6,1
	c-0.5,0-0.8,0.1-1.2,0.1l-0.2-1.8h1.5c0.8-1.8,1.3-3.6,1.9-5.4c0.5-1.2,0.8-2.5,1-3.7L292.5,331.8L292.5,331.8z"/>
<path class="st5" d="M300.7,332.8c-0.3,0-0.8,0-1.1,0.1v-1.5c0.5,0.1,0.9,0.1,1.3,0.1h2.3c0.5,0,0.9,0,1.2-0.1v1.5h-1.8
	c-0.1,1-0.5,2-0.9,2.9h2.5v6.6h-1.3v-0.7h-1.1v1.3h-1.5c0.1-0.5,0.1-0.9,0.1-1.3v-3.8c-0.2,0.5-0.5,0.9-0.9,1.2
	c-0.1-0.6-0.2-1.1-0.6-1.7c0.8-0.8,1.3-1.8,1.7-2.9c0.2-0.6,0.3-1.2,0.5-1.8L300.7,332.8L300.7,332.8z M301.7,340.5h1.1V337h-1.1
	V340.5z M305.9,332.8c-0.3,0-0.8,0-1.1,0.1v-1.5c0.5,0.1,1,0.1,1.5,0.1h3.9c0.5,0,1,0,1.5-0.1v1.5c-0.5-0.1-0.9-0.1-1.3-0.1v3.1h0.1
	c0.5,0,0.9,0,1.3-0.1v1.5c-0.5,0-0.9-0.1-1.3-0.1h-0.1v4.4c0,0.6,0,1.1,0.1,1.7h-1.6c0-0.6,0.1-1.1,0.1-1.7v-4.4h-1.6
	c0,0.9-0.1,1.8-0.3,2.7c-0.2,1.2-0.8,2.5-1.7,3.5c-0.3-0.5-0.8-0.8-1.2-1c0.8-0.9,1.3-1.9,1.6-3.1c0.1-0.7,0.2-1.5,0.2-2.1
	c-0.5,0-0.9,0-1.3,0.1v-1.5c0.5,0.1,0.9,0.1,1.3,0.1V332.8L305.9,332.8z M308.8,336v-3.1h-1.6v3.1H308.8z"/>
<path class="st5" d="M320.4,337.6h1.5v3.9c0,0.3,0.1,0.5,0.6,0.5c1,0,1.1,0,1.2-0.3c0.1-0.7,0.2-1.3,0.2-2.1
	c0.5,0.2,0.9,0.3,1.5,0.5c-0.2,3.1-0.3,3.2-2.8,3.2c-1.7,0-2-0.2-2-1.2v-3h-2c-0.2,1-0.8,2-1.6,2.7c-0.9,0.8-2,1.5-3.2,1.8
	c-0.2-0.5-0.6-0.9-0.9-1.3c1.1-0.2,2.1-0.8,3.1-1.5c0.6-0.5,0.9-1,1.1-1.7h-1.9c-0.5,0-1,0-1.5,0.1v-1.5c0.5,0.1,1,0.1,1.5,0.1h2.1
	v-1.6h1.6c-0.1,0.3-0.1,0.8-0.1,1.1v0.6L320.4,337.6L320.4,337.6z M318,332c0-0.3,0-0.6-0.1-0.9h1.7c0,0.3-0.1,0.6-0.1,0.9v0.2h3.8
	c0.5,0,1,0,1.5-0.1c0,0.3-0.1,0.7,0,1v2h-0.9c-0.1,0.8-0.2,1-0.7,1.2c-0.8,0.2-1.5,0.2-2.2,0.2c-1.3,0-1.8-0.2-1.8-1v-2H318
	c-0.1,0.7-0.3,1.2-0.7,1.7c-0.6,0.9-1.3,1.2-3.3,1.8c-0.2-0.5-0.5-0.9-0.8-1.2c1,0,1.9-0.3,2.7-0.9c0.3-0.3,0.7-0.8,0.7-1.3h-2.2
	v1.6h-1.5c0-0.3,0.1-0.7,0.1-1v-1.9c0.5,0,1,0.1,1.5,0.1h3.6L318,332L318,332z M323.3,333.6h-2.7v1.5c0,0.3,0.1,0.3,0.9,0.3
	s0.9-0.1,1-0.2c0.1-0.2,0.1-0.6,0.1-0.8c0.2,0.1,0.5,0.1,0.7,0.2L323.3,333.6L323.3,333.6z"/>
<path class="st5" d="M337.3,331.7c-0.3,0.6-0.7,1.1-1.1,1.7c0.1,0.2,0.2,0.2,0.3,0.5c0.2-0.5,0.5-0.6,0.8-1.3l1,0.7
	c-0.1,0.2-0.4,0.6-0.9,1.2c-0.3,0.5-0.7,0.8-1.1,1.2l1-0.1c-0.1-0.2-0.1-0.3-0.2-0.6l0.9-0.3c0.3,0.7,0.6,1.3,0.8,2.1l-0.9,0.3
	l-0.1-0.7l-1,0.1c0.2,0.1,0.5,0.3,0.7,0.6l-0.6,0.5h0.3c0.5,0,0.9,0,1.5-0.1v1.5c-0.5-0.1-0.9-0.1-1.5-0.1h-0.5l1,0.7
	c-0.5,0.6-0.9,1.1-1.5,1.6c0.5,0.6,0.8,0.8,0.9,0.8s0.3-0.3,0.6-1.7c0.3,0.3,0.7,0.6,1,0.8c0,0.7-0.2,1.3-0.6,1.9
	c-0.2,0.3-0.6,0.5-0.9,0.5c-0.7,0-1.2-0.5-2-1.5c-0.9,0.7-1.9,1.1-2.9,1.6c-0.2-0.5-0.5-0.9-0.8-1.2c1.1-0.2,2.1-0.7,3.1-1.3
	c-0.3-0.7-0.6-1.3-0.7-2.1h-1.8v0.5c0.5,0.5,0.9,0.9,1.5,1.1c-0.1,0.2-0.2,0.3-0.3,0.6l-0.3,0.6c-0.5-0.2-0.8-0.6-1.1-0.9
	c-0.3,1-0.9,2-1.7,2.8c-0.3-0.3-0.7-0.7-1.1-1c1.1-0.9,1.8-2.1,1.8-3.6h-1v-1.3h3.9c0-0.5-0.1-0.6-0.1-0.8l-0.8,0.2v-0.5l-0.9,0.1
	c-1,0.1-1.7,0.2-1.9,0.2v-0.5c-0.1,0.3-0.3,0.6-0.5,0.9c-0.2-0.5-0.5-0.8-0.7-1.2v5.6c0,0.6,0,1.1,0.1,1.7h-1.5
	c0.1-0.6,0.1-1.1,0.1-1.7V339c0-0.6,0-1.1,0.1-2.2c-0.2,1-0.7,2-1.1,3c-0.1-0.6-0.3-1-0.7-1.5c0.5-0.7,0.8-1.3,1-2.1
	c0.2-0.6,0.5-1.2,0.6-1.8h-1.2V333c0.3,0.1,0.6,0.1,0.9,0.1h0.5V332c0-0.5,0-0.9-0.1-1.5h1.5v2.5h0.9l-0.3-0.2l0.8-0.9l0.3,0.2
	c0.3-0.5,0.7-1,0.9-1.6l1.1,0.6c-0.3,0.7-0.7,1.2-1.1,1.9l0.3,0.5c0.3-0.3,0.6-0.8,0.7-1.2l1,0.7v-0.7c0-0.6,0-1-0.1-1.6h1.5
	c-0.1,0.3-0.1,0.6-0.1,0.9v0.9l0.5-0.6l0.3,0.3c0.3-0.5,0.6-0.9,0.8-1.5L337.3,331.7L337.3,331.7z M329.9,334.9h-1
	c0.2,0.5,0.5,0.9,0.8,1.3v-0.3h0.5c0.3-0.3,0.6-0.7,0.9-1c-0.3-0.5-0.7-0.9-1.1-1.2L329.9,334.9L329.9,334.9z M333,334.8
	c0.2,0.5,0.2,0.6,0.3,0.9c-0.1-1.1-0.1-1.7-0.1-2.3l-0.3,0.5c-0.5,0.7-1,1.3-1.6,2c0.3,0,0.7,0,1-0.1c-0.1-0.2-0.1-0.3-0.2-0.6
	L333,334.8L333,334.8z M334.6,333.5c0,0.8,0,1.6,0.1,2.2h0.2c0.3-0.3,0.6-0.7,0.9-1C335.4,334.2,335,333.8,334.6,333.5L334.6,333.5z
	 M335.9,336.6h-0.2l-0.6,0.1h-0.3c0,0.2,0,0.5,0.1,0.9h1.5c-0.2-0.2-0.6-0.5-0.9-0.6L335.9,336.6L335.9,336.6z M335.1,338.8
	c0.1,0.5,0.2,0.9,0.5,1.2c0.5-0.3,0.8-0.8,1-1.2H335.1z"/>
<path class="st5" d="M343.9,338v-1c-0.3,0.2-0.6,0.6-0.7,0.9c-0.3-0.5-0.6-0.9-0.8-1.5c0,0.5,0.1,1,0.1,1.9v3.3c0,0.6,0,1.1,0.1,1.7
	h-1.6c0.1-0.6,0.1-1.1,0.1-1.7v-2.6c0-0.6,0-1.2,0.1-1.8c-0.3,0.9-0.7,1.8-1.2,2.7c-0.2-0.5-0.6-0.8-0.9-1.1
	c0.8-1.2,1.5-2.7,1.8-4.1h-1.3v-1.5c0.3,0,0.6,0.1,0.9,0h0.7v-1.1c0-0.5,0-0.9-0.1-1.3h1.5c-0.1,0.5-0.1,0.9-0.1,1.3v1.1h1.1v1.5h-1
	c0.2,0.6,0.5,1,0.8,1.5v-1.1c0.3,0,0.8,0.1,1.1,0.1h0.7v-0.6h-1.3v-1.1c0.3,0,0.7,0.1,1,0h0.3V333h-1.7v-1.1
	c0.3,0.1,0.8,0.1,1.1,0.1h0.6c0-0.3,0-0.7-0.1-1h1.5c-0.1,0.3-0.1,0.7-0.1,1h1.7c0-0.3,0-0.7-0.1-1h1.5c-0.1,0.3-0.1,0.7-0.1,1h0.9
	c0.3,0,0.8,0,1.1-0.1v1.1c-0.3-0.1-0.8-0.1-1.1-0.1h-0.9v0.6h1.6v1.1c-0.3,0-0.7-0.1-1,0h-0.6v0.6h1c0.5,0,0.8,0,1.2-0.1v1.2
	c-0.5,0-0.8-0.1-1.2-0.1h-2.6v0.6h3c0,0.5-0.1,0.9,0,1.3v2c0.3,0,0.6,0,0.9-0.1v1.2h-0.9v0.8c0,1.1-0.2,1.2-1.7,1.2h-1
	c0-0.5-0.1-0.8-0.2-1.2c0.3,0,0.8,0.1,1.1,0.1c0.5,0,0.6,0,0.6-0.3v-0.6h-4.4v2.2h-1.5c0.1-0.6,0.1-1.1,0.1-1.7v-0.6H343v-1.1
	c0.2,0,0.6,0.1,0.8,0L343.9,338L343.9,338z M345,336.8h1.7v-0.6h-3.2c0.1,0.1,0.2,0.3,0.5,0.5C344.3,336.8,344.5,336.8,345,336.8z
	 M346.7,338.5v-0.6h-1.6v0.6H346.7z M346.7,340.2v-0.6h-1.6v0.6H346.7z M348.3,333.6V333h-1.7v0.6H348.3z M348.3,335.1v-0.6h-1.7
	v0.6H348.3z M349.6,338.5v-0.6h-1.7v0.6H349.6z M349.6,340.1v-0.6h-1.7v0.6H349.6z"/>
<path class="st5" d="M661.1,322.1c0.6,0.2,1.1,0.3,1.8,0.3c1.1,0,2-0.8,2-3.2v-8.5h3.9v9.7c0,3.2-1.3,5.4-5.3,5.4
	c-0.8,0-1.7-0.2-2.5-0.5L661.1,322.1L661.1,322.1z"/>
<path class="st5" d="M671.6,321.9c1.2,0.7,2.7,1,4.1,1c1.2,0,2.5-0.2,2.5-1.5c0-2.8-7-1-7-6.4c0-3.6,3.5-4.6,6.5-4.6
	c1.3,0,2.6,0.2,3.8,0.6l-0.2,3c-1-0.5-2.1-0.7-3.2-0.7c-1,0-2.7,0.1-2.7,1.3c0,2.3,7,0.8,7,6.1c0,3.8-3.2,4.9-6.5,4.9
	c-1.5,0-3-0.2-4.5-0.7L671.6,321.9L671.6,321.9z"/>
<path class="st5" d="M687,313.7h-3.6v-2.9h11.3v2.9H691v11.8h-3.9L687,313.7z"/>
<path class="st5" d="M627.1,333.2c-0.6,0.1-0.8,0.1-1.6,0.2c-0.1-0.5-0.2-0.9-0.6-1.2c1.6,0,3.1-0.5,4.6-1.1l0.8,1.2l-0.2,0.1
	c-0.3,0.1-1,0.3-1.7,0.6v1.7h0.8c0.3,0,0.7,0,1-0.1v1.5c-0.3,0-0.7-0.1-1-0.1h-0.7c0.5,0.8,1.1,1.6,1.9,2.1
	c-0.3,0.5-0.6,0.9-0.7,1.3c-0.6-0.6-1-1.1-1.2-1.8c0,0.3,0,0.9,0.1,1.8v2.7c0,0.6,0,1.1,0.1,1.7h-1.6c0-0.5,0.1-1,0.1-1.7v-2.2
	c0-0.3,0-0.7,0.1-1.7c-0.3,1.1-0.9,2.1-1.7,3c-0.2-0.6-0.5-1-0.8-1.3c0.7-0.7,1.1-1.3,1.6-2.1c0.2-0.5,0.5-1,0.7-1.6h-0.7
	c-0.5,0-0.8,0-1.2,0.1v-1.8c0.5,0.1,0.8,0.1,1.2,0.1h0.9v-1.3L627.1,333.2L627.1,333.2z M634.4,332.7v-1.6h1.7
	c-0.1,0.6-0.1,1-0.1,1.6v5.8c0.5-0.1,0.9-0.2,1.2-0.3l0.1,1.6c-0.5,0-0.9,0.1-1.2,0.2h-0.1v2c0,0.6,0,1,0.1,1.6h-1.7
	c0.1-0.6,0.1-1.1,0.1-1.6v-1.7l-3,0.7c-0.6,0.1-1,0.2-1.3,0.3l-0.2-1.6l0,0c0.5,0,0.8-0.1,1.2-0.2l3.2-0.7L634.4,332.7L634.4,332.7z
	 M631.2,335.1c0.9,0.7,1.8,1.3,2.6,2.1l-0.9,1.2c-0.8-0.9-1.6-1.6-2.6-2.2L631.2,335.1L631.2,335.1z M631.6,331.8
	c1,0.6,1.8,1.3,2.6,2.1l-0.9,1.2c-0.7-0.9-1.6-1.7-2.6-2.2L631.6,331.8L631.6,331.8z"/>
<path class="st5" d="M640.1,339.7c-0.6,0-1.1,0-1.7,0.1v-1.5c0.6,0.1,1.1,0.1,1.7,0.1h3.7v-0.9h0.6c0.6-0.3,1.1-0.7,1.6-1.1h-5v-1.3
	c0.5,0,0.9,0.1,1.3,0.1h5.5l0.8,0.8l-0.5,0.5c-0.8,0.8-1.8,1.3-2.7,2h3.5c0.6,0,1.1,0,1.7-0.1v1.5c-0.6-0.1-1.1-0.1-1.7-0.1h-3.6
	v2.3c0,0.3,0,0.6-0.2,0.9s-0.7,0.5-1.9,0.5h-1.3c-0.1-0.5-0.2-1-0.5-1.5c0.6,0.1,1.1,0.1,1.7,0.1s0.7,0,0.7-0.3v-2L640.1,339.7
	L640.1,339.7z M640.8,333.1c-0.2-0.6-0.6-1-1-1.6l1.3-0.5c0.5,0.6,0.9,1.2,1.2,1.9h1.5c-0.2-0.6-0.5-1.1-0.8-1.7l1.3-0.5
	c0.3,0.7,0.7,1.3,0.9,2.1h1.1c0.5-0.7,0.8-1.3,1.1-2l1.5,0.5c-0.3,0.6-0.7,1.1-1,1.6h2.2v2.3c0,0.3,0,0.7,0.1,1h-1.5v-2.1h-8.7v2.1
	h-1.5c0-0.3,0.1-0.7,0.1-1V333c0.6,0,1,0.1,1.6,0L640.8,333.1L640.8,333.1z"/>
<path class="st5" d="M652.9,334.8c-0.3,0-0.7,0-1,0.1v-1.5c0.3,0.1,0.7,0.1,1,0.1h0.6v-1.1c0-0.5,0-0.9-0.1-1.3h1.6
	c-0.1,0.5-0.1,0.9-0.1,1.3v1.1h1v1.5c-0.2,0-0.6-0.1-0.8,0h-0.2v2l1.1-0.5v1.3l-1.1,0.5v3.8c0,1.1-0.3,1.3-1.8,1.3h-0.9
	c0-0.5-0.1-1-0.3-1.3c0.3,0.1,0.8,0.1,1.1,0.1c0.5,0,0.6,0,0.6-0.5v-2.9l-0.3,0.1c-0.1,0.1-0.3,0.1-0.5,0.1l-0.6,0.2l-0.3-1.5
	c0.6-0.1,1.1-0.2,1.7-0.5v-2.6L652.9,334.8L652.9,334.8z M658.9,334.1h-1.2c-0.6,0-1,0-1.6,0.1v-1.5c0.6,0,1,0.1,1.6,0.1h1.2v-1.8
	h1.6c0,0.5-0.1,0.9-0.1,1.3v0.5h1.8c0.6,0,1,0,1.6-0.1v1.5c-0.6-0.1-1-0.1-1.6-0.1h-1.9v1.7h2.2l0.7,0.8c-0.1,0.1-0.2,0.4-0.5,0.8
	c-0.6,1.1-1.2,2.1-2.1,2.9c1,0.8,2.1,1.3,3.3,1.7c-0.3,0.5-0.7,0.9-0.8,1.3c-1.3-0.6-2.6-1.2-3.6-2.1c-1.1,0.9-2.5,1.7-3.9,2.1
	c-0.2-0.5-0.5-1-0.8-1.3c1.3-0.3,2.6-0.9,3.6-1.7c-0.8-0.9-1.5-2-1.9-3.1H656v-1.5c0.5,0.1,0.9,0.1,1.3,0.1h1.2L658.9,334.1
	L658.9,334.1z M658.3,337.1c0.3,0.8,0.8,1.6,1.5,2.2c0.7-0.7,1.2-1.3,1.7-2.2H658.3z"/>
<path class="st5" d="M670.4,332.6c0-0.5,0-1-0.1-1.5h1.5c-0.1,0.5-0.1,1-0.1,1.5v1.1h0.6c0.5,0,0.8,0,1.2-0.1v1.1h2.7
	c0.3,0,0.8,0,1.1-0.1v1.5h-1.1v5.7c0,0.7-0.2,1.1-0.7,1.2c-0.5,0.1-0.9,0.1-1.3,0.1H673c0-0.5-0.1-1-0.3-1.5c0.6,0.1,1,0.1,1.6,0.1
	c0.3,0,0.5-0.1,0.5-0.3v-5.5h-1.5v-1.1h-1.6v6.7c0,0.6,0,1.1,0.1,1.6h-1.5c0.1-0.6,0.1-1.1,0.1-1.6v-6.7h-2.1
	c-0.3,0.6-0.7,1-0.9,1.3v5.4c0,0.6,0,1,0.1,1.6h-1.5c0.1-0.6,0.1-1,0.1-1.6v-3.9c-0.2,0.3-0.6,0.7-0.9,0.9c-0.1-0.6-0.2-1-0.6-1.5
	c0.8-0.6,1.5-1.3,2-2.1c0.2-0.3,0.5-0.8,0.7-1.2l1,0.6v-0.9c0.5,0.1,0.8,0.1,1.2,0.1h0.9L670.4,332.6L670.4,332.6z M668.6,331.7
	c0,0.1-0.3,0.3-0.7,0.9c-0.7,0.8-1.5,1.6-2.3,2.1c-0.1-0.5-0.3-0.9-0.7-1.2c1-0.6,1.8-1.5,2.5-2.5L668.6,331.7z M670,336
	c0,2-0.3,4-0.9,5.9c-0.3-0.2-0.7-0.3-1.2-0.7c0.3-0.7,0.6-1.5,0.7-2.2c0.1-1.1,0.2-2.1,0.2-3.2L670,336L670,336z M673,333.5
	c-0.3-0.6-0.7-1.2-1.1-1.7l1-0.6c0.3,0.5,0.7,0.9,1,1.3v-0.8c0.3,0,0.7,0.1,1,0.1h1.2c0.3,0,0.7,0,1-0.1v1.5c-0.3,0-0.7-0.1-1-0.1
	h-1.2c-0.3,0-0.7,0-1,0.1v-0.3L673,333.5L673,333.5z M673.2,335.8c0.5,1.6,0.8,3.1,1,4.7l-1.2,0.5c-0.1-1.7-0.5-3.2-0.9-4.8
	L673.2,335.8L673.2,335.8z"/>
<path class="st5" d="M679.4,334.9c-0.3,0-0.7,0-0.9,0.1v-1.5c0.3,0,0.7,0.1,0.9,0.1h0.5v-1.1c0-0.5,0-0.9-0.1-1.3h1.6
	c0,0.5-0.1,0.9-0.1,1.3v1.1h1.1v1.3h-1.1v2c0.3-0.1,0.6-0.2,1-0.5v1.3c-0.6,0.2-0.7,0.3-1,0.6v3.8c0,1-0.3,1.3-1.6,1.3h-1
	c0-0.5-0.1-0.9-0.3-1.3c0.3,0,0.8,0.1,1.1,0.1s0.3-0.1,0.3-0.3v-3.1l-1.1,0.5l-0.2,0.1l-0.2-1.5c0.6-0.1,1-0.2,1.6-0.5V335
	L679.4,334.9L679.4,334.9z M688,337.2c0.1,0.6,0.2,1.1,0.3,1.7c0.6-0.3,1-0.8,1.3-1.2l0.9,0.9l-1.1,0.9c-0.2,0.2-0.5,0.3-0.8,0.6
	c0.5,0.9,1.1,1.6,1.9,2.1c-0.3,0.3-0.7,0.8-0.9,1.2c-0.9-0.8-1.6-1.7-2.1-2.8c-0.6-1-0.8-2.2-0.9-3.3h-0.8v4.1
	c0.6-0.1,0.9-0.2,1.7-0.5v1.3c-1.1,0.3-2.3,0.7-3.5,1l-0.6,0.1l-0.3-1.5c0.5,0,1-0.1,1.5-0.1v-4.5h-0.8c0,1.2-0.2,2.5-0.5,3.6
	c-0.2,0.9-0.6,1.7-1,2.6c-0.3-0.5-0.7-0.8-1.1-1.1c1.1-1.9,1.3-3.3,1.3-8.9v-1.7c0.5,0,1,0.1,1.6,0.1h4.7c0.5,0,1,0,1.5-0.1v1.5H684
	v3h5.3c0.3,0,0.8,0,1.1-0.1v1.3h-1L688,337.2L688,337.2z M689.9,335c-0.3,0-0.7-0.1-1,0h-4.3v-1.2c0.3,0,0.6,0.1,0.9,0h4.6
	L689.9,335L689.9,335z"/>
<path class="st5" d="M701.9,339.4v-1.6h-1.1v-1.2h1.1v-1.2h-1.2v-1.2h1.2v-1.2h-1.2v-1.3c0.3,0,0.6,0.1,0.9,0.1h1.8
	c0,0.3-0.1,0.7-0.1,1.3l-0.2,6.2h0.8v1.3c-0.6-0.1-1-0.1-1.6-0.1h-9c-0.6,0-1,0-1.6,0.1v-1.3c0.3,0,0.7,0.1,0.9,0.1l-0.2-5.7
	c0-0.5,0-1-0.1-1.5c0.9-0.1,1.7-0.6,2.3-1l0.6,0.8v-0.6c0.3,0,0.8,0.1,1.1,0h4.1v7.8L701.9,339.4L701.9,339.4z M696.8,341.5
	c-1.2,1-2.7,1.7-4.1,2c-0.2-0.5-0.5-0.8-0.8-1.2c0.7-0.1,1.5-0.3,2.1-0.6c0.7-0.2,1.2-0.6,1.8-1L696.8,341.5L696.8,341.5z
	 M695.4,332.6c-0.5,0.2-1,0.5-1.5,0.6v1.1h1.1v1.2h-1.1v1.2h1.1v1.2h-1.1v1.5h1.3L695.4,332.6L695.4,332.6z M699.4,339.4v-6.7h-2.9
	v6.7H699.4z M699.2,334.5h-2.5v-1.1h2.5V334.5z M697.5,338.6h-0.7v-3.3h2.3v3.6h-0.7L697.5,338.6L697.5,338.6z M697.7,337.5h0.7
	v-1.3h-0.7V337.5z M699.9,340.6c1.2,0.9,2.7,1.3,4.1,1.5c-0.3,0.3-0.6,0.8-0.7,1.2c-0.8-0.1-1.6-0.5-2.2-0.7
	c-0.8-0.3-1.6-0.7-2.2-1.2L699.9,340.6L699.9,340.6z"/>
<path class="st5" d="M716.3,331.7c-0.3,0.6-0.7,1.1-1.1,1.7l0.3,0.5c0.2-0.5,0.5-0.6,0.8-1.3l1,0.7c-0.1,0.2-0.4,0.6-0.9,1.2
	c-0.3,0.5-0.7,0.8-1.1,1.2l1-0.1c-0.1-0.2-0.1-0.3-0.2-0.6l0.9-0.3c0.3,0.7,0.6,1.3,0.8,2.1l-0.9,0.3l-0.1-0.7l-1,0.1
	c0.2,0.1,0.5,0.3,0.7,0.6l-0.6,0.5h0.3c0.5,0,0.9,0,1.5-0.1v1.5c-0.5-0.1-0.9-0.1-1.5-0.1h-0.5l1,0.7c-0.5,0.6-0.9,1.1-1.5,1.6
	c0.3,0.6,0.8,0.8,0.9,0.8s0.3-0.3,0.6-1.7c0.3,0.3,0.7,0.6,1,0.8c0,0.7-0.2,1.3-0.6,1.9c-0.2,0.3-0.6,0.5-0.9,0.5
	c-0.7,0-1.3-0.5-2-1.5c-0.9,0.7-1.9,1.1-2.9,1.6c-0.2-0.5-0.5-0.9-0.8-1.2c1.1-0.2,2.1-0.7,3.1-1.3c-0.3-0.7-0.6-1.3-0.7-2.1h-1.8
	v0.5c0.5,0.5,0.9,0.9,1.5,1.1c-0.1,0.2-0.2,0.3-0.3,0.6l-0.3,0.6c-0.5-0.2-0.8-0.6-1.1-0.9c-0.3,1-0.9,2-1.7,2.8
	c-0.3-0.3-0.7-0.7-1.1-1c1.1-0.9,1.8-2.1,1.8-3.6h-1v-1.3h3.9c0-0.5-0.1-0.6-0.1-0.8l-0.8,0.2v-0.5l-0.9,0.1c-1,0.1-1.7,0.2-1.9,0.2
	v-0.5c-0.1,0.3-0.3,0.6-0.3,0.9c-0.2-0.5-0.5-0.8-0.7-1.2v5.6c0,0.6,0,1.1,0.1,1.7h-1.5c0.1-0.6,0.1-1.1,0.1-1.7V339
	c0-0.6,0-1.1,0.1-2.2c-0.2,1-0.7,2-1.1,3c-0.1-0.6-0.3-1-0.7-1.5c0.5-0.7,0.8-1.3,1-2.1c0.2-0.6,0.5-1.2,0.6-1.8h-1.2V333
	c0.3,0.1,0.6,0.1,0.9,0.1h0.5V332c0-0.5,0-0.9-0.1-1.5h1.6v2.5h0.9l-0.3-0.2l0.8-0.9l0.3,0.2c0.3-0.5,0.7-1,0.9-1.6l1.1,0.6
	c-0.3,0.7-0.7,1.2-1.1,1.9l0.3,0.5c0.2-0.3,0.6-0.8,0.7-1.2l0.9,0.7v-0.7c0-0.6,0-1-0.1-1.6h1.5c-0.1,0.3-0.1,0.6-0.1,0.9v0.9
	l0.5-0.6l0.3,0.3c0.3-0.5,0.7-0.9,0.8-1.5L716.3,331.7L716.3,331.7z M709,334.9h-1c0.2,0.5,0.5,0.9,0.8,1.3v-0.3h0.5
	c0.5-0.6,0.6-0.7,0.9-1c-0.3-0.5-0.7-0.9-1.1-1.2L709,334.9L709,334.9z M712.1,334.8c0.2,0.5,0.2,0.6,0.3,0.9
	c-0.1-1.1-0.1-1.7-0.1-2.3l-0.3,0.5c-0.5,0.7-1,1.3-1.6,2c0.3,0,0.7,0,1-0.1c-0.1-0.2-0.1-0.3-0.2-0.6L712.1,334.8L712.1,334.8z
	 M713.6,333.5c0,0.8,0,1.6,0.1,2.2h0.2c0.3-0.3,0.6-0.7,0.9-1C714.4,334.2,714.1,333.8,713.6,333.5L713.6,333.5L713.6,333.5z
	 M715,336.6h-0.2l-0.6,0.1h-0.3c0,0.2,0,0.5,0.1,0.9h1.5c-0.2-0.2-0.6-0.5-0.9-0.6L715,336.6L715,336.6z M714.2,338.8
	c0.1,0.5,0.2,0.9,0.5,1.2c0.5-0.3,0.8-0.8,1-1.2H714.2z"/>
<path class="st5" d="M723,338v-1c-0.3,0.2-0.6,0.6-0.7,0.9c-0.3-0.5-0.6-0.9-0.8-1.5c0,0.5,0.1,1,0.1,1.9v3.3c0,0.6,0,1.1,0.1,1.7
	h-1.6c0.1-0.6,0.1-1.1,0.1-1.7v-2.6c0-0.6,0-1.2,0.1-1.8c-0.3,0.9-0.7,1.8-1.2,2.7c-0.2-0.5-0.6-0.8-0.9-1.1
	c0.8-1.2,1.5-2.7,1.8-4.1h-1.3v-1.5c0.3,0,0.6,0.1,0.9,0h0.7v-1.1c0-0.5,0-0.9-0.1-1.3h1.5c-0.1,0.5-0.1,0.9-0.1,1.3v1.1h1.1v1.5h-1
	c0.2,0.6,0.5,1,0.8,1.5v-1.1c0.3,0,0.8,0.1,1.1,0.1h0.8v-0.6H723v-1.1c0.3,0,0.7,0.1,1,0h0.3V333h-1.7v-1.1c0.3,0.1,0.8,0.1,1.1,0.1
	h0.6c0-0.3,0-0.7-0.1-1h1.5c-0.1,0.3-0.1,0.7-0.1,1h1.7c0-0.3,0-0.7-0.1-1h1.5c-0.1,0.3-0.1,0.7-0.1,1h0.9c0.3,0,0.8,0,1.1-0.1v1.1
	c-0.3-0.1-0.8-0.1-1.1-0.1h-0.9v0.6h1.6v1.1c-0.3,0-0.7-0.1-1,0h-0.6v0.6h0.9c0.5,0,0.8,0,1.2-0.1v1.2c-0.5,0-0.8-0.1-1.2-0.1h-2.6
	v0.6h3v3.3c0.3,0,0.6,0,0.9-0.1v1.2h-0.9v0.8c0,1.1-0.2,1.2-1.7,1.2h-1c0-0.5-0.1-0.8-0.2-1.2c0.3,0,0.8,0.1,1.1,0.1
	c0.5,0,0.6,0,0.6-0.3v-0.6h-4.3v2.2h-1.5c0.1-0.6,0.1-1.1,0.1-1.7v-0.6h-0.8v-1.1c0.2,0,0.6,0.1,0.8,0L723,338L723,338z
	 M724.1,336.8h1.7v-0.6h-3.2c0.1,0.1,0.2,0.3,0.5,0.5C723.3,336.8,723.6,336.8,724.1,336.8L724.1,336.8z M725.8,338.5v-0.6h-1.5v0.6
	H725.8z M725.8,340.2v-0.6h-1.5v0.6H725.8z M727.3,333.6V333h-1.7v0.6H727.3z M727.3,335.1v-0.6h-1.7v0.6H727.3z M728.7,338.5v-0.6
	H727v0.6H728.7z M728.7,340.1v-0.6H727v0.6H728.7z"/>
<path class="st6" d="M557.5,278.2c-0.3,0-0.8,0-1.1,0.1v-1.5c0.5,0.1,0.9,0.1,1.3,0.1h2.3c0.5,0,0.9,0,1.2-0.1v1.5
	c-0.3,0-0.8,0-1.1-0.1h-0.7c-0.1,1-0.5,2-0.9,2.9h2.5v6.6h-1.3V287h-1.1v1.3h-1.5c0.1-0.5,0.1-0.9,0.1-1.3v-3.8
	c-0.2,0.5-0.6,0.9-0.9,1.2c-0.1-0.6-0.2-1.1-0.6-1.7c0.8-0.8,1.3-1.8,1.7-2.9c0.2-0.6,0.3-1.2,0.5-1.8L557.5,278.2L557.5,278.2z
	 M558.5,285.9h1.1v-3.5h-1.1V285.9z M562.7,278.2c-0.3,0-0.8,0-1.1,0.1v-1.5c0.5,0.1,1,0.1,1.5,0.1h3.9c0.5,0,1,0,1.5-0.1v1.5
	c-0.5-0.1-0.9-0.1-1.3-0.1v3.1h0.1c0.5,0,0.9,0,1.3-0.1v1.5c-0.5,0-0.9-0.1-1.3-0.1H567v4.4c0,0.6,0,1.1,0.1,1.7h-1.6
	c0-0.6,0.1-1,0.1-1.7v-4.4h-1.6c0,0.9-0.1,1.8-0.3,2.7c-0.2,1.2-0.8,2.5-1.7,3.5c-0.3-0.5-0.8-0.8-1.2-1c0.8-0.9,1.3-1.9,1.6-3.1
	c0.1-0.7,0.2-1.5,0.2-2.1c-0.5,0-0.9,0-1.3,0.1v-1.5c0.5,0.1,0.9,0.1,1.3,0.1V278.2L562.7,278.2z M565.7,281.3v-3.1h-1.6v3.1H565.7z
	"/>
<path class="st6" d="M577.3,283c0.7,0,1,0,1.5-0.1v3.9c0,0.3,0.1,0.5,0.6,0.5c1,0,1.1,0,1.2-0.3c0.1-0.7,0.2-1.3,0.2-2.1
	c0.5,0.2,0.9,0.3,1.5,0.5c-0.2,3.1-0.3,3.2-2.8,3.2c-1.7,0-2-0.2-2-1.2v-2.9h-2.1c-0.2,1-0.8,2-1.6,2.7c-0.9,0.8-2,1.5-3.2,1.8
	c-0.2-0.5-0.6-0.9-0.9-1.3c1.1-0.2,2.1-0.8,3.1-1.5c0.6-0.5,0.9-1,1.1-1.7h-1.9c-0.6,0-1,0-1.6,0.1V283c0.5,0.1,1,0.1,1.5,0.1h2.1
	v-1.6h1.6c-0.1,0.3-0.1,0.8-0.1,1.1v0.5L577.3,283z M574.8,277.4c0-0.3,0-0.6-0.1-0.9h1.7c0,0.3-0.1,0.6-0.1,0.9v0.2h3.8
	c0.5,0,1,0,1.5-0.1c0,0.3-0.1,0.7,0,1v2h-0.9c-0.1,0.8-0.2,1-0.7,1.2c-0.8,0.2-1.5,0.2-2.2,0.2c-1.3,0-1.8-0.2-1.8-1v-2h-1.1
	c-0.1,0.7-0.3,1.2-0.7,1.8c-0.6,0.9-1.3,1.2-3.3,1.8c-0.2-0.5-0.5-0.9-0.8-1.2c1,0,1.9-0.3,2.7-0.9c0.5-0.3,0.7-0.8,0.7-1.3h-2.2
	v1.6h-1.5c0-0.3,0.1-0.7,0.1-1v-1.9c0.5,0,1,0.1,1.5,0.1h3.6L574.8,277.4L574.8,277.4z M580.1,278.9h-2.7v1.5c0,0.3,0.1,0.3,0.9,0.3
	s0.9-0.1,1-0.2c0.1-0.2,0.1-0.6,0.1-0.8c0.2,0.1,0.5,0.1,0.8,0.2L580.1,278.9L580.1,278.9L580.1,278.9z"/>
<rect x="517.3" y="263.1" class="st6" width="80.3" height="4.5"/>
<polygon class="st6" points="506.8,265.4 519.8,272.8 519.8,257.9 "/>
<path class="st6" d="M241.8,277.7c0-0.5,0-0.9-0.1-1.3h1.6c-0.1,0.5-0.1,0.9-0.1,1.3v2h1v1.5h-1v6c0,0.6,0,1.1,0.1,1.7h-1.6
	c0.1-0.6,0.1-1.1,0.1-1.7v-6.1h-0.1c-0.4,0-0.8,0-1.2,0.1v-1.6c0.4,0.1,0.8,0.1,1.2,0.1h0.1V277.7L241.8,277.7z M245.2,281.6
	c-0.2-0.3-0.4-0.7-0.8-1c1-0.3,1.9-1,2.4-1.9h-1c-0.4,0-0.9,0-1.2,0.1v-1.5c0.3,0,0.8,0.1,1.3,0.1h1.3c0-0.3,0.1-0.7,0.1-0.9v-0.2
	l1.6,0.1c0,0.1,0,0.2-0.1,0.7c0,0.1,0,0.3-0.1,0.5h2.2c0.4,0,0.8,0,1.2-0.1c0,0.2,0,0.5-0.1,0.9c-0.1,1.7-0.2,2.3-0.7,2.7
	s-0.7,0.3-1.7,0.3h-1.1c0-0.5-0.1-0.9-0.3-1.3c0.6,0.1,1.1,0.1,1.7,0.1s0.7-0.1,0.7-1.3h-2.2c-0.6,1.2-1.6,2.3-2.8,2.9h0.8
	c0,0.2-0.1,0.5-0.1,0.7v0.2h1.9v0.9c0,1.5-0.1,2.8-0.4,4.1c1-1,1.4-2.3,1.6-3.7h-0.8v-1.3h0.9v-1h1.4c0,0.2-0.1,0.6-0.1,0.8v0.2h2.2
	v0.8c0.1,1.5-0.1,3-0.6,4.5c-0.2,0.5-0.7,0.7-1.6,0.7h-0.6c0-0.5-0.1-1-0.2-1.5c0.3,0.1,0.7,0.1,0.9,0.1s0.3-0.1,0.4-0.2
	c0.2-1,0.3-2,0.2-3h-0.9c-0.1,1-0.3,2-0.7,2.9c-0.2,0.7-0.7,1.3-1.1,1.9c-0.2-0.5-0.6-0.8-1-1c-0.1,0.3-0.2,0.6-0.6,0.7
	s-0.7,0.1-1,0.1h-0.6c0-0.5-0.1-0.9-0.2-1.3c-0.2,0.6-0.6,1.1-1,1.6c-0.2-0.5-0.6-0.8-1-1.2c0.4-0.5,0.8-0.9,1-1.5
	c0.3-0.7,0.4-1.5,0.6-2.1h-1v-1.3h1.1v-0.2C245.2,282.1,245.2,281.8,245.2,281.6L245.2,281.6L245.2,281.6z M246.1,284
	c-0.1,1.1-0.3,2.1-0.8,3.1c0.3,0.1,0.6,0.1,0.9,0.1c0.2,0,0.3-0.1,0.4-0.3c0.1-1,0.2-1.9,0.2-2.9H246.1z"/>
<path class="st6" d="M263.7,279.1c0.6,0,1.1,0,1.7-0.1c0,0.4,0,1-0.1,2c0,1.8-0.1,4.1-0.3,5c-0.2,1.2-0.3,1.7-0.8,2s-1,0.5-1.6,0.3
	c-0.7,0-1.3,0-2-0.1c0-0.6-0.2-1.1-0.3-1.7c0.8,0.1,1.6,0.2,2.3,0.2c0.7,0,0.9-0.2,1-1.1c0.2-1.8,0.3-3.5,0.3-5.2h-3.6
	c-0.1,1.6-0.6,3.1-1.2,4.5c-0.9,1.6-2.2,2.8-3.8,3.6c-0.2-0.6-0.7-1-1.1-1.3c1.7-0.7,3-1.8,3.8-3.3c0.5-1,0.8-2.2,0.9-3.3h-2.3
	c-0.6,0-1.1,0-1.7,0.1V279c0.6,0.1,1.1,0.1,1.7,0.1h2.3v-1.3c0-0.5,0-0.9-0.1-1.3h1.8c-0.1,0.9-0.1,1.8-0.1,2.7L263.7,279.1
	L263.7,279.1z"/>
<path class="st6" d="M275.2,282.5c0,0.9-0.7,1.6-1.6,1.6s-1.6-0.7-1.6-1.6s0.7-1.6,1.6-1.6l0,0C274.4,281,275.2,281.7,275.2,282.5z"
	/>
<path class="st6" d="M280.8,281.5c0.3,0.1,0.8,0.1,1.1,0.1h1c0.3,0,0.7,0,1-0.1c0,0.5-0.1,1-0.1,1.5v2.9c0.1,0.2,0.3,0.6,0.7,0.7
	c1,0.5,2,0.7,3.1,0.6c1.9,0,3.8,0,5.7-0.2c-0.2,0.6-0.3,1-0.5,1.6c-1.1,0-3,0.1-4.7,0.1c-2.3,0-3.1-0.1-3.9-0.6
	c-0.5-0.2-0.9-0.6-1.2-1c-0.5,0.5-1,0.9-1.6,1.3l-0.5,0.3l-0.7-1.6c0.7-0.3,1.3-0.8,1.9-1.3v-2.9h-0.8c-0.3,0-0.6,0-0.9,0.1
	L280.8,281.5L280.8,281.5z M281.9,276.5c0.9,0.8,1.7,1.6,2.3,2.5l-1.1,1.1c-0.7-0.9-1.3-1.8-2.2-2.5L281.9,276.5z M285.4,278.6
	c-0.3,0-0.8,0-1.1,0.1v-1.3c0.5,0.1,1,0.1,1.6,0.1h2c0-0.3,0-0.7-0.1-1h1.6c0,0.3-0.1,0.7-0.1,1h2.2c0.6,0,1,0,1.6-0.1v1.3
	c-0.5-0.1-0.9-0.1-1.3-0.1h-2.3v0.7h2.1c0.3,0,0.8,0,1.1-0.1c0,0.3-0.1,0.7,0,1v3.8h-3.2v0.7h2.5c0.5,0,0.9,0,1.3-0.1v1.3
	c-0.5,0-0.9-0.1-1.3-0.1h-2.5c0,0.3,0,0.8,0.1,1.1h-1.6c0.1-0.3,0.1-0.8,0.1-1.1h-3.5v-1.2c0.5,0,0.9,0.1,1.3,0.1h2.1V284h-3
	c0-0.3,0.1-0.7,0.1-1v-2.8c0-0.3,0-0.7-0.1-1c0.3,0,0.8,0.1,1.1,0.1h1.9v-0.7H285.4L285.4,278.6z M286.2,280.3v0.8h1.7v-0.8H286.2z
	 M286.2,282.1v0.8h1.7v-0.8H286.2z M289.1,281.1h1.8v-0.8h-1.8V281.1z M289.1,282.8h1.8v-0.8h-1.8V282.8z"/>
<path class="st6" d="M303.5,282.3h1.7c0.5,0,0.8,0,1.2-0.1v1.2c-0.5,0-0.8-0.1-1.2-0.1h-6.2v-3.1c-0.2,0.3-0.5,0.6-0.7,0.8
	c-0.1-0.3-0.3-0.7-0.6-0.9h-0.6v2.1c0.5-0.1,0.6-0.2,1.3-0.5v1.3c-0.7,0.2-0.8,0.3-1.3,0.5v4.1c1.3-0.2,2.5-1.2,2.7-2.5h-0.9
	c-0.3,0-0.7,0-1,0.1V284c0.3,0.1,0.8,0.1,1.1,0.1h5.5c-0.1,0.1-0.1,0.4-0.2,0.7c0,0.1-0.1,0.5-0.2,0.7h1.1c0.3,0,0.7,0,1-0.1
	c-0.1,0.3-0.1,0.6-0.1,0.8c-0.1,0.8-0.3,1.6-0.7,2.2c-0.3,0.5-0.7,0.6-1.6,0.6c-0.5,0-1,0-1.6-0.1c0-0.5-0.1-0.9-0.3-1.3
	c0.6,0.1,1.1,0.1,1.6,0.1s0.6,0,0.7-0.2s0.2-0.6,0.3-0.9h-2.1c0.2-0.5,0.3-0.8,0.5-1.2h-1.6c-0.1,0.9-0.6,1.7-1.1,2.3
	c-0.7,0.7-1.5,1.1-2.3,1.5c-0.2-0.5-0.5-0.8-0.7-1.1c-0.1,0.6-0.2,0.7-0.7,0.8s-0.9,0.2-1.2,0.1h-0.7c0-0.5-0.1-1-0.3-1.5
	c0.3,0.1,0.8,0.1,1.1,0.1s0.5-0.1,0.5-0.5v-3c-0.3,0.1-0.5,0.1-0.7,0.2c-0.2,0.1-0.5,0.1-0.7,0.2l-0.2-1.6c0.6,0,1.1-0.2,1.7-0.3
	v-2.5h-0.6c-0.3,0-0.7,0-1,0.1v-1.5c0.3,0.1,0.7,0.1,1,0.1h0.5v-1c0-0.5,0-0.9-0.1-1.3h1.6c-0.1,0.5-0.1,0.9-0.1,1.3v1h0.2
	c0.2,0,0.5,0,0.8-0.1v0.6c0.8-0.9,1.3-1.9,1.7-3l1.5,0.3c-0.1,0.5-0.3,0.8-0.6,1.1h1.7c0.2-0.5,0.5-0.8,0.7-1.2l1.5,0.2
	c-0.2,0.3-0.3,0.7-0.6,1h2.6v1.2c-0.3,0-0.7-0.1-1-0.1h-1.7v0.6h1.1c0.5,0,0.8,0,1.2-0.1v1h-2.3v0.6h2.3v1h-2.3L303.5,282.3
	L303.5,282.3z M302.2,278.8h-2v0.6h2V278.8z M302.2,280.3h-2v0.6h2V280.3z M300.2,281.8v0.6h2v-0.6H300.2z"/>
<rect x="235.2" y="263.1" class="st6" width="80.3" height="4.5"/>
<polygon class="st6" points="224.8,265.4 237.7,272.8 237.7,257.9 "/>
<polygon class="st6" points="322.2,265.4 309.4,257.9 309.4,272.8 "/>
<path class="st3" d="M641.8,170h5l7.8,15.4l0,0V170h3.9v20.6h-5l-7.9-15.4l0,0v15.4h-3.9L641.8,170L641.8,170z"/>
<path class="st3" d="M663.4,170h7.2c2.7,0,6.7,0.8,6.7,5.2c0,2.3-1.8,4.4-4.1,4.6l0,0c2.8,0.2,4.7,2.1,4.7,4.7c0,5.2-4.7,6-7.2,6
	h-7.2L663.4,170L663.4,170z M667.5,178.4h1.7c1.8,0,3.9-0.4,3.9-2.4c0-2.3-2.1-2.6-4-2.6h-1.6V178.4L667.5,178.4z M667.5,187.4h2
	c1.9,0,4.2-0.4,4.2-2.9c0-2.7-2.2-3.1-4.2-3.1h-2V187.4L667.5,187.4z"/>
<path class="st3" d="M681.4,170h5.6c6.3,0,11.9,2.1,11.9,10.3s-5.6,10.3-11.9,10.3h-5.6V170L681.4,170z M685.5,187.4h2.3
	c3.9,0,7-3.1,7-7s-3.1-7-7-7h-2.3V187.4L685.5,187.4z"/>
<path class="st3" d="M717.7,190.3c-1.6,0.4-3.1,0.7-4.7,0.7c-6.7,0-11.3-3.3-11.3-10.3s4.3-11,11.3-11c1.6,0,3.1,0.3,4.7,0.9
	l-0.3,3.5c-1.3-0.8-2.9-1.1-4.5-1.1c-4.2,0-6.9,3.2-6.9,7.5s2.6,7.4,7,7.4c1.6,0,3-0.2,4.5-0.9L717.7,190.3L717.7,190.3z"/>
<circle class="st5" cx="146.1" cy="197.3" r="87"/>
<circle class="st5" cx="146.1" cy="197.3" r="87"/>
<path class="st3" d="M127.8,203c0-0.6,0-1.1-0.1-1.8h4.1c1.3-0.1,2.7,0.3,3.6,1.2c1,1.1,1.6,2.6,1.4,4c0.1,1.6-0.4,3.1-1.6,4.2
	c-1,0.8-2.2,1.2-3.5,1.1h-4.1c0.1-0.6,0.1-1.2,0.1-1.8V203L127.8,203z M131.7,210.4c0.9,0.1,1.8-0.2,2.3-0.9c0.7-0.8,1-1.9,1-3
	c0.1-1-0.2-2.1-0.9-2.9c-0.7-0.6-1.6-0.9-2.4-0.8h-2.1v7.5L131.7,210.4L131.7,210.4z"/>
<path class="st3" d="M138.2,203c0-0.6,0-1.1-0.1-1.8h4.1c1.3-0.1,2.7,0.3,3.6,1.2c1,1.1,1.6,2.6,1.4,4c0.1,1.6-0.4,3.1-1.6,4.2
	c-1,0.8-2.2,1.2-3.5,1.1h-4.1c0.1-0.6,0.1-1.2,0.1-1.8V203L138.2,203L138.2,203z M142.1,210.4c0.9,0.1,1.8-0.2,2.3-0.9
	c0.7-0.8,1-1.9,1-3c0.1-1-0.2-2.1-0.9-2.9c-0.7-0.6-1.6-0.9-2.4-0.8H140v7.5L142.1,210.4L142.1,210.4z"/>
<path class="st3" d="M150.3,211.9h-1.7c0.1-0.6,0.1-1.2,0.1-1.8v-7.2c0-0.6,0-1.1-0.1-1.7h4.8c2.1,0,3.2,0.9,3.2,2.6
	c0,0.7-0.2,1.4-0.8,1.9c-0.3,0.3-0.7,0.4-1.1,0.6c0.6,0.1,1,0.2,1.3,0.7c0.6,0.6,0.9,1.2,0.9,2c0,1.9-1.2,2.9-3.5,2.9L150.3,211.9
	L150.3,211.9z M153.3,205.7c0.8,0.1,1.6-0.3,1.7-1.1v-0.3c0-0.3-0.1-0.7-0.3-1c-0.3-0.3-0.8-0.4-1.3-0.4h-2.8v2.9L153.3,205.7
	L153.3,205.7z M150.5,210.5h2.9c1.2,0,1.9-0.6,1.9-1.7c0-0.4-0.1-0.8-0.4-1.1c-0.4-0.3-0.9-0.4-1.4-0.4h-2.9V210.5z"/>
<path class="st3" d="M165.6,201.4c-0.1,0.6-0.1,1.1-0.1,1.7v6c0.1,0.8-0.2,1.6-0.8,2.2c-0.7,0.7-1.7,1-2.6,0.9c-1,0.1-2-0.3-2.7-1
	c-0.3-0.3-0.6-0.8-0.8-1.2l1.8-0.7c0.1,0.4,0.3,0.9,0.8,1.1c0.3,0.2,0.7,0.2,1,0.2c0.4,0,0.8-0.1,1.1-0.4c0.2-0.3,0.3-0.7,0.3-1.1
	v-6c0-0.6,0-1.1-0.1-1.7L165.6,201.4L165.6,201.4z"/>
<path class="st3" d="M179.7,204.1c-0.1,0.2-0.2,0.4-0.3,0.7c-0.8,1.6-1.9,2.9-3.2,3.9c-0.3-0.4-0.8-0.8-1.3-1.1
	c0.9-0.4,1.7-1.1,2.2-1.9c0.2-0.2,0.3-0.6,0.4-0.8c-0.1,0-0.3,0.1-0.4,0.1c-1.3,0.1-2.7,0.3-4.1,0.6v3c0,0.3,0,0.8,0.1,1.1
	c0.1,0.6,0.6,0.7,1.9,0.7s2.8-0.1,4.1-0.6l0.1,1.8h-0.8c-1.1,0.1-2.2,0.2-3.3,0.2c-0.8,0-1.6,0-2.3-0.2c-0.6-0.2-1-0.7-1.1-1.2
	s-0.2-1.1-0.1-1.7v-3.1l-1.2,0.1c-0.6,0.1-1.1,0.2-1.6,0.4l-0.1-1.7h0.3c0.3,0,0.8,0,1.1-0.1l1.4-0.1v-1.9c0-0.4,0-0.9-0.1-1.2h1.9
	c-0.1,0.4-0.1,0.8-0.1,1.2v1.7l4.9-0.6c0.3,0,0.7-0.1,1-0.2L179.7,204.1L179.7,204.1z"/>
<path class="st3" d="M182.1,210.3c1.3-0.1,2.7-0.4,4-1c1.7-0.7,3-1.8,4-3.2c0.6-0.8,1-1.7,1.3-2.7c0.4,0.6,0.9,1,1.4,1.3
	c-0.9,2.1-2.3,3.9-4.2,5.2c-1.6,1-3.2,1.7-5.1,2c-0.3,0-0.6,0.1-0.9,0.2L182.1,210.3L182.1,210.3z M183.2,201.9
	c1.2,0.8,2.4,1.6,3.5,2.6l-1.1,1.4c-1-1.1-2.1-2-3.5-2.7L183.2,201.9L183.2,201.9z"/>
<path class="st3" d="M205.4,203.1c-0.2,0.2-0.3,0.6-0.4,0.9c-0.4,1.2-1,2.4-1.7,3.7c-1.4,2.3-3.6,4.1-6.1,5.1
	c-0.2-0.6-0.7-1-1.1-1.3c0.9-0.3,1.8-0.8,2.6-1.3s1.6-1.1,2.2-1.9c-0.9-0.8-1.8-1.3-2.8-1.9l1-1.2c1,0.6,1.9,1.1,2.7,1.8
	c0.7-1,1.1-2,1.4-3.1H199c-0.8,1.3-1.9,2.6-3.1,3.6c-0.3-0.4-0.8-0.8-1.3-1.1c1.3-1,2.6-2.3,3.3-3.8c0.3-0.6,0.6-1.2,0.8-1.9
	l1.8,0.3c-0.1,0.1-0.2,0.4-0.4,0.8c-0.1,0.2-0.2,0.4-0.3,0.7c0.1,0,1.3,0,3.5-0.1c0.4,0,0.8,0,1.2-0.1L205.4,203.1L205.4,203.1z"/>
<path class="st3" d="M207.6,205.8c0.7,0.1,1.4,0.1,2.1,0.1h7.1c0.7,0,1.4,0,2.1-0.1v1.9c-0.7-0.1-1.4-0.1-2.1-0.1h-7.1
	c-0.8,0-1.4,0-2.2,0.1L207.6,205.8z"/>
<path class="st3" d="M363.9,183.1c-0.1,0.2-0.2,0.6-0.3,0.9c-0.6,1.8-1.7,3.3-3.1,4.6c-1,0.8-2.2,1.4-3.5,1.8
	c-0.2-0.6-0.6-1.1-1-1.6c1.3-0.3,2.7-0.9,3.7-1.8c1-0.8,1.8-1.9,2.1-3.1h-6.5c-0.6,0-1.1,0-1.7,0.1v-1.7c0.6,0.1,1.1,0.1,1.8,0.1
	h6.4c0.6,0,1,0,1.6-0.1L363.9,183.1L363.9,183.1z M354.6,179.1c0.6,0.1,1,0.1,1.6,0.1h4.7c0.6,0,1,0,1.6-0.1v1.7
	c-0.6-0.1-1-0.1-1.6-0.1h-4.7c-0.6,0-1,0-1.6,0.1V179.1z"/>
<path class="st3" d="M376.5,179.7c-0.2,0.1-0.3,0.3-0.5,0.4c-1,1-2,1.9-3.1,2.8v5.7c0,0.4,0,1,0.1,1.4h-1.9c0.1-0.4,0.1-1,0.1-1.4
	V184c-1.5,0.9-3.1,1.7-4.8,2.1c-0.2-0.6-0.6-1.1-0.9-1.6c2.6-0.7,4.9-1.9,7-3.5c1-0.7,1.8-1.6,2.5-2.4L376.5,179.7L376.5,179.7z"/>
<path class="st3" d="M389.5,180.5c-0.1,0.2-0.2,0.3-0.2,0.6c-0.5,2-1.3,4-2.8,5.6c-1.3,1.6-3.1,2.7-5,3.5c-0.2-0.6-0.7-1.1-1.1-1.6
	c1-0.3,2-0.8,2.9-1.3c2.1-1.3,3.6-3.5,4-5.8H381c-0.6,0-1.1,0-1.7,0.1v-1.8c0.6,0.1,1.1,0.1,1.7,0.1h6.1c0.5,0,1,0,1.5-0.1
	L389.5,180.5L389.5,180.5z"/>
<path class="st3" d="M398.9,181.3v-1c0-0.4,0-1-0.1-1.4h1.7v2.4h0.8c0.6,0,1.1,0,1.8-0.1v1.7c-0.6-0.1-1.1-0.1-1.7-0.1h-0.9
	c0,0.8,0,1.4-0.1,2.2c-0.1,1.4-0.8,2.9-1.9,3.8c-0.8,0.7-1.7,1.1-2.6,1.4c-0.2-0.6-0.6-1-1-1.4c0.9-0.2,1.8-0.7,2.6-1.2
	c0.9-0.8,1.5-2,1.5-3.2v-1.6h-3.5v3.1h-1.7v-3H393c-0.6,0-1.1,0-1.7,0.1v-1.7c0.6,0.1,1.1,0.1,1.7,0.1h0.8v-1.3c0-0.4,0-0.8-0.1-1.2
	h1.8v2.4L398.9,181.3L398.9,181.3z"/>
<path class="st3" d="M415.1,179.7c-0.2,0.1-0.3,0.3-0.5,0.4c-1,1-2,1.9-3.1,2.8v5.7c0,0.4,0,1,0.1,1.4h-1.9c0.1-0.4,0.1-1,0.1-1.4
	V184c-1.5,0.9-3.1,1.7-4.8,2.1c-0.2-0.6-0.6-1.1-0.9-1.6c2.6-0.7,4.9-1.9,7-3.5c1-0.7,1.8-1.6,2.5-2.4L415.1,179.7L415.1,179.7z"/>
<path class="st3" d="M423.7,187.2h3.2c0.6,0,1.1,0,1.8-0.1v1.7c-0.6-0.1-1.1-0.1-1.7-0.1h-8c-0.6,0-1.1,0-1.7,0.1v-1.7
	c0.6,0.1,1.1,0.1,1.8,0.1h3v-5.5h-3.8v-1.7c0.6,0.1,1.1,0.1,1.8,0.1h5.9c0.6,0,1.1,0,1.8-0.1v1.7h-3.9v5.5H423.7L423.7,187.2z"/>
<path class="st3" d="M430.6,188c1.3-0.1,2.7-0.4,3.9-1c1.6-0.7,3-1.8,4-3.2c0.6-0.8,1-1.7,1.3-2.7c0.5,0.6,0.9,1,1.5,1.3
	c-0.9,2.1-2.3,3.9-4.2,5.2c-1.6,1-3.2,1.7-5.1,2c-0.3,0-0.6,0.1-0.9,0.2L430.6,188L430.6,188z M431.7,179.6c1.2,0.8,2.5,1.6,3.5,2.6
	l-1.1,1.4c-1-1.1-2.1-2-3.5-2.7L431.7,179.6L431.7,179.6z"/>
<path class="st3" d="M453.1,190c-1.2-1.4-2.6-2.8-4.1-4c-1.5,1.7-3.1,2.9-5.1,3.9c-0.3-0.6-0.7-1-1.1-1.4c1-0.3,1.9-0.9,2.7-1.4
	c2-1.3,3.5-3.2,4.5-5.5l0.1-0.3l-4.5,0.1c-0.5,0-1,0-1.5,0.1v-1.7c0.5,0.1,0.8,0.1,1.2,0.1h0.3l4.7-0.1c0.5,0.1,0.9,0,1.2-0.1
	l0.9,0.9c-0.2,0.2-0.3,0.4-0.5,0.7c-0.6,1.3-1.2,2.6-2.1,3.7c0.9,0.6,1.7,1.2,2.5,1.9c0.2,0.2,0.9,0.9,2,1.9L453.1,190L453.1,190z"
	/>
<path d="M385.1,233.4c-0.6-0.1-1.2-0.1-1.8-0.1h-8.1c-0.7,0-1.3,0-1.9,0.1v-1.7c0.7,0.1,1.2,0.1,1.9,0.1h8.1c0.7,0,1.2,0,1.9-0.1
	v1.7H385.1L385.1,233.4z M374.1,222.5c0.6,0.1,1.1,0.1,1.7,0.1h6.6c0.6,0,1.2,0,1.8-0.1v1.7c-0.6-0.1-1.2-0.1-1.8-0.1h-6.5
	c-0.6,0-1.1,0-1.7,0.1L374.1,222.5z M375,226.9c0.6,0.1,1,0.1,1.6,0.1h5.1c0.6,0,1,0,1.6-0.1v1.7c-0.6,0-1-0.1-1.6-0.1h-5.1
	c-0.6,0-1,0-1.6,0.1V226.9z"/>
<path d="M390,230.6h-2.2v-6.5c0-0.4,0-0.8-0.1-1.2h2.8c0.2-0.3,0.3-0.8,0.6-1.2l1.6,0.1c-0.2,0.3-0.3,0.8-0.6,1h4.1v4.4h-6.9v0.7
	h7.8c0.5,0,0.9,0,1.2-0.1v1.2c-0.5,0-0.9-0.1-1.3-0.1h-7.8v0.7h8.8v0.4c0,0.1,0,0.3-0.1,0.8c-0.1,0.8-0.2,1.6-0.5,2.3
	c-0.1,0.3-0.5,0.7-0.8,0.8c-0.5,0.1-0.9,0.2-1.2,0.1h-0.6c0-0.2-0.1-0.6-0.1-0.8h-6.4v0.6h-1.5c0.1-0.3,0.1-0.8,0.1-1.1v-0.7
	c0-0.2,0-0.6-0.1-0.8h1.5v0.9h1.8L390,230.6L390,230.6z M394.7,224.4v-0.6h-5.5v0.6H394.7z M389.2,226h5.5v-0.6h-5.5V226z
	 M393.2,231.9v-1.1h1.5v1.8c0.3,0,0.7,0.1,1,0.1s0.6-0.1,0.6-0.4c0.1-0.6,0.2-1.2,0.2-1.8h-5.1v1.3h1.9V231.9z"/>
<path d="M423.2,225.6c0.5,0.9,1,1.8,1.7,2.6c-0.3,0.3-0.6,0.8-0.8,1.2c-0.5-0.7-0.9-1.3-1.1-2c0.1,1.1,0.1,1.2,0.1,1.8v3.5
	c0,0.6,0,1.1,0.1,1.7h-1.6c0.1-0.6,0.1-1.1,0.1-1.7v-2.8c0-0.9,0-1.6,0.1-1.8c-0.2,0.7-0.5,1.3-0.7,1.9c-0.2,0.4-0.5,0.9-0.8,1.2
	c-0.2-0.4-0.5-1-0.8-1.3c0.9-1.2,1.6-2.7,1.9-4.2h-0.7c-0.3,0-0.7,0-1,0.1v-1.6h1.9v-1c0-0.4,0-0.9-0.1-1.3h1.6
	c0,0.4-0.1,0.9-0.1,1.3v1h1.5v1.4H423.2L423.2,225.6z M427,223.8c0.3-0.7,0.5-1.4,0.6-2.1l1.6,0.3c-0.3,0.9-0.6,1.6-0.7,1.8h3
	c0,0.4-0.1,0.9,0,1.3v7.5c0,0.6,0,1.1,0.1,1.6H430v-0.7h-3.7v0.7h-1.6c0-0.3,0.1-0.9,0.1-1.6v-8.7h1.5L427,223.8L427,223.8z
	 M426.3,227.8h3.7v-2.6h-3.7V227.8z M426.3,231.9h3.7V229h-3.7V231.9z"/>
<path class="st3" d="M113.5,170h5.6c6.3,0,11.9,2.1,11.9,10.3s-5.6,10.3-11.9,10.3h-5.6V170L113.5,170z M117.6,187.4h2.3
	c3.9,0,7-3.1,7-7s-3.1-7-7-7h-2.3V187.4L117.6,187.4z"/>
<path class="st3" d="M134.8,170h5.6c6.4,0,11.9,2.1,11.9,10.3s-5.5,10.4-11.8,10.4h-5.6L134.8,170L134.8,170z M138.9,187.4h2.3
	c3.9,0,7-3.1,7-7s-3.1-7-7-7h-2.3V187.4L138.9,187.4z"/>
<path class="st3" d="M156.1,170h7.2c2.7,0,6.7,0.8,6.7,5.2c0,2.3-1.8,4.4-4.1,4.6l0,0c2.8,0.2,4.7,2.1,4.7,4.7c0,5.2-4.7,6-7.2,6
	h-7.2L156.1,170L156.1,170z M160.2,178.4h1.7c1.8,0,3.9-0.4,3.9-2.4c0-2.3-2.1-2.6-4-2.6h-1.6V178.4L160.2,178.4z M160.2,187.4h2
	c1.9,0,4.2-0.4,4.2-2.9c0-2.7-2.2-3.1-4.2-3.1h-2V187.4L160.2,187.4z"/>
<path class="st3" d="M172.4,187.1c0.7,0.2,1.3,0.3,2,0.3c2.7,0,2.7-2.1,2.7-3.7V170h4.1v15.7c0,2.9-2.2,5.2-5.1,5.2h-0.6
	c-1.1,0-2.1-0.1-3.1-0.4L172.4,187.1L172.4,187.1z"/>
<path class="st3" d="M124,53h5.1l7.9,15.4l0,0V53h4v20.6h-5l-7.9-15.4H128v15.4h-4L124,53L124,53z"/>
<path class="st3" d="M145.1,53h4.1v20.6h-4.1V53z"/>
<path class="st3" d="M169.7,57c-1.7-0.8-3.5-1.1-5.4-1.1c-4.8,0-7.5,3.2-7.5,7.5s2.6,7.4,7,7.4c0.9,0,1.8-0.1,2.7-0.3V65h-4.4v-3.2
	h8.4v11.1c-2.1,0.7-4.5,1-6.7,1.1c-6.7,0-11.3-3.3-11.3-10.3s4.4-11,11.3-11c2,0,4.1,0.2,6,0.9L169.7,57L169.7,57z"/>
<path class="st3" d="M387.1,53h5.7c6.4,0,11.9,2.1,11.9,10.3s-5.6,10.4-11.9,10.4h-5.7C387.1,73.6,387.1,53,387.1,53z M391.2,70.3
	h2.3c3.9,0,7-3.1,7-7s-3.1-7-7-7h-2.3V70.3L391.2,70.3z"/>
<path class="st3" d="M419.5,56.7c-1.3-0.6-2.8-0.9-4.2-0.9s-3.2,0.7-3.2,2.9c0,3.6,9,2.1,9,8.9c0,4.6-3.6,6.2-7.7,6.2
	c-1.8,0-3.6-0.2-5.2-0.8l0.3-3.7c1.5,0.8,3,1.2,4.7,1.2c1.6,0,3.7-0.8,3.7-2.7c0-3.9-9-2.3-9-9.1c0-4.6,3.6-6.2,7.2-6.2
	c1.7,0,3.3,0.2,4.9,0.8L419.5,56.7L419.5,56.7z"/>
<path class="st3" d="M328.3,200.8c0,1.8-0.2,2.8-0.6,4.1l-1.1-0.6c0.3-1.1,0.5-2,0.6-3.7L328.3,200.8L328.3,200.8z M326.7,198.9h1
	c0.2-0.4,0.4-0.7,0.7-0.9c-0.5-0.7-1-1.3-1.7-2l0.7-1.1c0.2,0.2,0.3,0.3,0.5,0.6c0.6-0.9,0.9-1.7,1-2.3l1.3,0.6
	c-0.1,0.2-0.2,0.4-0.5,0.9c-0.5,0.9-0.7,1.2-1,1.8c0.2,0.2,0.3,0.3,0.5,0.7c0.7-1.1,1-1.8,1.2-2.3l1,0.6v-0.4c0.3,0,0.8,0.1,1.5,0.1
	h1.5v-0.3c0-0.4,0-0.7-0.1-1h1.6c0,0.3-0.1,0.6-0.1,1v0.3h1.9c0.6,0,1,0,1.5-0.1v1.4c-0.5,0-0.8-0.1-1.3-0.1h-2.7
	c-0.3,0.7-0.7,1.3-0.9,1.9c0.9,0,1.8-0.1,2.5-0.2c-0.2-0.3-0.3-0.4-0.8-0.9l1.1-0.7c0.9,1,1.6,1.8,2.2,2.9l-1.1,0.8
	c-0.2-0.6-0.3-0.7-0.6-1c-1.5,0.2-1.6,0.2-4.5,0.3c-0.5,0-0.7,0-1,0.1l-0.1-1.3h0.8c0.5-0.7,0.8-1.2,1-1.9h-0.8
	c-0.6,0-0.9,0-1.3,0.1v-0.6c-0.1,0.1-0.1,0.2-0.2,0.3c-0.7,1.1-1.6,2.3-2.1,3.1c0.3,0,0.8,0,1.5-0.1c-0.1-0.3-0.2-0.6-0.5-1l0.9-0.4
	c0.5,0.8,0.7,1.3,1,2.6l-1,0.4c-0.1-0.2-0.1-0.4-0.1-0.6c-0.2,0-0.5,0-0.8,0.1v4.2c0,0.7,0,1,0.1,1.4h-1.5c0-0.4,0.1-0.8,0.1-1.4
	v-4.1c-1.1,0.1-1.8,0.1-1.9,0.2L326.7,198.9L326.7,198.9z M331.5,200.6c0.2,0.9,0.3,1.4,0.5,2.7l-1.1,0.3c0-1-0.2-1.9-0.3-2.7
	L331.5,200.6L331.5,200.6z M334.4,199.6v1c0,1.3-0.2,2.2-0.7,3c-0.3,0.8-0.8,1.2-1.9,2c-0.3-0.4-0.6-0.8-1-1.1
	c0.6-0.3,0.8-0.4,1.1-0.7c0.8-0.7,1.1-1.7,1.1-3.3v-0.8L334.4,199.6L334.4,199.6L334.4,199.6z M336.7,199.4v4.2c0,0.2,0,0.3,0.5,0.3
	c0.2,0,0.3,0,0.5-0.1s0.1-0.8,0.1-1.4v-0.8c0.5,0.2,0.8,0.4,1.3,0.6c0,1.2-0.1,2.2-0.3,2.6c-0.2,0.4-0.7,0.7-1.7,0.7
	c-1.3,0-1.7-0.2-1.7-1.1v-4.8h1.3L336.7,199.4L336.7,199.4L336.7,199.4z"/>
<path class="st3" d="M342.9,197.7c-0.9,0.6-1.2,0.7-2.1,1.1c-0.2-0.6-0.3-0.9-0.8-1.3c1.2-0.4,2.3-1.1,3.5-1.9
	c0.9-0.8,1.6-1.4,2.1-2.2h1.6c0.6,0.9,1.2,1.4,2.2,2.2s2,1.3,3.5,1.8c-0.3,0.6-0.5,0.8-0.8,1.4c-1-0.4-1.3-0.7-2.2-1.2v0.9h-6.9
	L342.9,197.7L342.9,197.7L342.9,197.7z M341.9,205.5c0-0.4,0.1-0.8,0.1-1.4v-3.1c0-0.6,0-0.9-0.1-1.3h8.9c0,0.3-0.1,0.8-0.1,1.3v3.1
	c0,0.7,0,1,0.1,1.4h-1.6v-0.7h-5.8v0.7H341.9L341.9,205.5z M343.5,203.5h5.8v-2.6h-5.8V203.5z M348.7,197.1h0.5
	c-1.2-0.9-1.9-1.6-2.8-2.6c-0.8,1.1-1.3,1.7-2.7,2.6H348.7z"/>
<path class="st3" d="M360.7,199c-0.1,3.3-1.5,5-4.5,6.2c-0.3-0.7-0.6-1-1.1-1.4c2.7-0.8,3.7-2.1,3.8-4.8h-3.2c-1,0-1.2,0-1.7,0.1
	v-1.6c0.5,0.1,0.8,0.1,1.7,0.1h7.8c1,0,1.2,0,1.7-0.1v1.6c-0.5,0-0.7-0.1-1.7-0.1L360.7,199L360.7,199z M362.7,195.8
	c-0.5,0-0.6-0.1-1.7-0.1h-4c-1.1,0-1.2,0-1.7,0.1v-1.7c0.5,0.1,0.7,0.1,1.7,0.1h3.9c1,0,1.3,0,1.7-0.1v1.7H362.7L362.7,195.8z
	 M363.5,193.3c0.6,0.7,0.8,1.2,1.2,2.1l-1,0.3c-0.3-0.9-0.7-1.4-1.2-2.1L363.5,193.3z M365.4,195.2c-0.3-0.8-0.7-1.4-1.1-2.1l1-0.3
	c0.6,0.7,0.9,1.2,1.2,2L365.4,195.2L365.4,195.2z"/>
<path class="st3" d="M367.6,198.3c0.6,0.1,0.9,0.1,2.1,0.1h7.1c1.3,0,1.6,0,2.1-0.1v1.9c-0.6-0.1-0.7-0.1-2.2-0.1h-7.1
	c-1.5,0-1.7,0-2.2,0.1v-1.9H367.6L367.6,198.3z"/>
<path class="st3" d="M391.4,195.8c-0.2,0.2-0.2,0.3-0.5,0.9c-0.5,1.2-1.1,2.8-1.7,3.7c-1.3,2.2-3.2,3.8-6.1,5.1
	c-0.5-0.7-0.6-1-1.1-1.3c1.1-0.4,1.8-0.8,2.6-1.3c1-0.7,1.6-1.1,2.2-1.9c-0.9-0.8-1.8-1.3-2.8-1.9l1-1.2c1.1,0.7,1.7,1,2.7,1.8
	c0.7-1,1.1-1.9,1.5-3.1h-4.1c-0.8,1.3-1.8,2.4-3.1,3.6c-0.5-0.4-0.7-0.7-1.3-1.1c1.5-1.1,2.6-2.3,3.3-3.8c0.3-0.7,0.7-1.3,0.8-1.9
	l1.8,0.3c-0.1,0.1-0.2,0.4-0.5,0.8c-0.1,0.3-0.2,0.6-0.3,0.7h3.5c0.6,0,0.8,0,1.2-0.1L391.4,195.8L391.4,195.8z"/>
<path class="st3" d="M392.4,200.2c0.3-0.2,1.1-1,2.9-3.2c0.5-0.6,0.8-0.9,1-1c0.3-0.2,0.6-0.2,0.9-0.2c0.7,0,1,0.2,2,1.3
	c1.6,1.8,2.8,3,4.4,4.2c0.8,0.7,1,0.8,1.2,1l-0.9,1.8c-2.5-2.2-3.2-3-5.7-5.7c-0.6-0.6-1-0.9-1.1-0.9c-0.1,0-0.4,0.3-0.8,0.8
	c-0.6,0.8-1.7,2.1-2.3,3c-0.2,0.2-0.2,0.3-0.5,0.6L392.4,200.2L392.4,200.2z M401.5,195.1c0.6,0.7,1,1.1,1.5,2l-0.9,0.4
	c-0.5-0.8-0.8-1.3-1.5-2L401.5,195.1z M403.6,196.7c-0.5-0.8-0.9-1.3-1.3-1.9l0.9-0.4c0.7,0.7,1,1.1,1.3,1.9L403.6,196.7z"/>
<path class="st3" d="M406,198.3c0.6,0.1,0.9,0.1,2.1,0.1h7.1c1.3,0,1.6,0,2.1-0.1v1.9c-0.6-0.1-0.7-0.1-2.2-0.1H408
	c-1.5,0-1.7,0-2.2,0.1v-1.9H406L406,198.3z"/>
<path class="st3" d="M428.1,204.9c-1.1-1.3-2.7-2.9-4.1-4c-1.6,1.7-3,2.9-5.1,3.9c-0.3-0.7-0.6-0.9-1.1-1.4c1-0.4,1.7-0.8,2.7-1.4
	c2-1.4,3.7-3.3,4.5-5.5l0.1-0.3c-0.1,0-1.6,0-4.5,0.1c-0.7,0-1,0-1.5,0.1v-1.7c0.3,0.1,0.7,0.1,1.2,0.1h0.3l4.7-0.1
	c0.8,0,0.9,0,1.2-0.1l0.9,0.9c-0.2,0.2-0.3,0.3-0.5,0.7c-0.7,1.4-1.2,2.6-2.1,3.7c0.9,0.6,1.6,1.1,2.5,1.9c0.2,0.2,0.9,0.9,2,1.9
	L428.1,204.9L428.1,204.9z"/>
<path class="st3" d="M441.4,196.8c-0.1,0.2-0.2,0.2-0.3,0.7c-0.8,1.7-1.7,2.8-3.2,3.9c-0.6-0.6-0.7-0.7-1.3-1.1
	c0.9-0.6,1.7-1.1,2.2-1.9c0.2-0.2,0.2-0.3,0.6-0.8c-0.2,0-0.3,0-0.6,0.1c-1.3,0.1-2.7,0.3-4.1,0.6v4.1c0.1,0.6,0.6,0.7,1.9,0.7
	c1.6,0,3-0.2,4.1-0.6l0.1,1.8H440c-1.5,0.1-2.5,0.2-3.3,0.2c-1.1,0-1.9-0.1-2.3-0.2c-0.6-0.1-1-0.7-1.1-1.2
	c-0.1-0.4-0.1-0.7-0.1-1.7v-2.9l-1.2,0.1c-0.7,0.1-1.1,0.1-1.5,0.2l-0.2-1.7h0.3c0.2,0,0.8,0,1.2-0.1l1.5-0.2v-1.7
	c0-0.7,0-0.8-0.1-1.2h1.9c-0.1,0.3-0.1,0.7-0.1,1.2v1.7l4.9-0.6c0.4-0.1,0.8-0.1,1-0.2L441.4,196.8L441.4,196.8z"/>
<path class="st3" d="M443.2,202.8c1.1-0.1,2.8-0.4,3.9-1c1.7-0.7,2.9-1.8,4-3.2c0.6-0.9,1-1.6,1.3-2.7c0.6,0.7,0.8,0.8,1.5,1.3
	c-1.1,2.4-2.5,4-4.2,5.2c-1.3,0.9-3,1.6-5.1,2c-0.4,0.1-0.7,0.1-0.9,0.2L443.2,202.8L443.2,202.8z M444.3,194.6
	c1.6,1,2.5,1.6,3.5,2.6l-1.1,1.4c-1.1-1.1-2.1-2-3.5-2.7L444.3,194.6L444.3,194.6z"/>
<path class="st3" d="M465.9,195.8c-0.2,0.2-0.2,0.3-0.5,0.9c-0.5,1.2-1.1,2.8-1.7,3.7c-1.3,2.2-3.2,3.8-6.1,5.1
	c-0.5-0.7-0.6-1-1.1-1.3c1.1-0.4,1.8-0.8,2.6-1.3c1-0.7,1.6-1.1,2.2-1.9c-0.9-0.8-1.8-1.3-2.8-1.9l1-1.2c1.1,0.7,1.7,1,2.7,1.8
	c0.7-1,1.1-1.9,1.5-3.1h-4.1c-0.8,1.3-1.8,2.4-3.1,3.6c-0.5-0.4-0.7-0.7-1.3-1.1c1.5-1.1,2.6-2.3,3.3-3.8c0.3-0.7,0.7-1.3,0.8-1.9
	l1.8,0.3c-0.1,0.1-0.2,0.4-0.5,0.8c-0.1,0.3-0.2,0.6-0.3,0.7h3.5c0.6,0,0.8,0,1.2-0.1L465.9,195.8L465.9,195.8z"/>
<path class="st3" d="M468,198.3c0.6,0.1,0.9,0.1,2.1,0.1h7.1c1.3,0,1.6,0,2.1-0.1v1.9c-0.6-0.1-0.7-0.1-2.2-0.1H470
	c-1.5,0-1.7,0-2.2,0.1v-1.9H468L468,198.3z"/>
<g>
	<path class="st3" d="M82.9,210.8v1.4h-11v-1.4h4.7v-2.4h-3.3v-1.4h3.3v-2.1H74c-0.3,0.7-0.8,1.3-1.1,1.8c-0.3-0.2-0.9-0.7-1.3-0.9
		c1-1,1.8-2.7,2.1-4.4l1.6,0.3c-0.2,0.6-0.3,1.1-0.6,1.8h1.9v-2.2h1.6v2.2h4.1v1.4h-4.1v2.1h3.7v1.4h-3.7v2.4L82.9,210.8L82.9,210.8
		L82.9,210.8z"/>
	<path class="st3" d="M90.3,201.1c1.3,1.7,3.3,3,5.3,3.7c-0.3,0.3-0.7,0.9-1,1.3c-0.8-0.4-1.8-0.9-2.6-1.4v0.9h-4.9v-0.9
		c-0.8,0.6-1.7,1.1-2.6,1.6c-0.2-0.3-0.6-0.9-0.9-1.2c2.1-0.9,4.1-2.4,5-3.8L90.3,201.1L90.3,201.1L90.3,201.1z M89.1,210.7h-2.7v1
		h-1.3v-5.4h4L89.1,210.7L89.1,210.7z M86.3,207.6v1.9h1.4v-1.9H86.3z M91.5,204.3c-0.8-0.6-1.4-1.2-1.9-1.8
		c-0.4,0.6-1.1,1.2-1.9,1.8H91.5L91.5,204.3z M94.3,210c0,0.7-0.1,1-0.6,1.2c-0.4,0.2-1,0.2-1.8,0.2c0-0.4-0.2-1-0.4-1.3h1.1
		c0.1,0,0.2,0,0.2-0.2v-2.3h-1.7v5h-1.3v-6.4h4.5L94.3,210L94.3,210z"/>
	<path class="st3" d="M96,206.7c0.2-0.8,0.4-2.2,0.6-3.2l1,0.1c0,1-0.2,2.4-0.4,3.5L96,206.7L96,206.7z M107.6,205v1h-8v-1h3.2v-0.6
		h-2.6v0.1l-1,0.4c-0.1-0.3-0.2-0.9-0.4-1.3v8.9h-1.3v-11.5h1.3v2l0.7-0.3c0.2,0.6,0.6,1.2,0.7,1.7v-1h2.6V203h-2.9v-1h2.9v-0.8h1.4
		v0.8h3v1h-3v0.4h2.7v1h-2.7v0.6L107.6,205L107.6,205z M106.8,211.2c0,0.7-0.1,1-0.6,1.2c-0.4,0.2-1,0.2-1.9,0.2
		c0-0.3-0.2-0.9-0.4-1.2h1.2c0.1,0,0.2-0.1,0.2-0.2v-0.4h-3.7v1.8h-1.3v-6.1h6.3v4.8L106.8,211.2L106.8,211.2z M101.7,207.6v0.6h3.7
		v-0.6H101.7z M105.4,209.7v-0.6h-3.7v0.6H105.4z"/>
	<path class="st3" d="M111.9,204.2h2v1.2h-1l0.4,0.1c-0.2,0.4-0.4,0.9-0.6,1.3h0.9v1.2h-1.9v0.9h1.8v1.2h-1.8v2.2h-1.3v-2.2h-1.8
		V209h1.8v-0.9h-1.9v-1.2h0.9c-0.1-0.4-0.2-0.9-0.4-1.3l0.4-0.1h-1.2v-1.2h2.2v-0.9h-1.8v-1.2h1.8V201h1.3v1.1h1.6v1.2h-1.6
		L111.9,204.2L111.9,204.2L111.9,204.2z M111.8,206.8c0.1-0.3,0.3-0.9,0.4-1.3h-1.9c0.2,0.4,0.3,1,0.4,1.3l-0.4,0.1h1.8
		C112.2,206.9,111.8,206.8,111.8,206.8z M119.6,206.1c-0.2,1.4-0.7,2.9-1.3,4c0.6,0.6,1.1,1,1.7,1.3c-0.3,0.2-0.8,0.8-0.9,1.1
		c-0.6-0.3-1.1-0.8-1.6-1.3c-0.4,0.6-0.8,0.9-1.3,1.3c-0.1-0.2-0.4-0.6-0.7-0.8v0.7h-1.3v-10.9h5.1v2.3c0,0.7-0.1,1-0.6,1.2
		c-0.4,0.2-1.1,0.2-2,0.2c-0.1-0.4-0.2-0.9-0.4-1.2h1.4c0.1,0,0.2-0.1,0.2-0.2v-1h-2.4v2.9h3l0.2-0.1L119.6,206.1L119.6,206.1z
		 M115.5,211.4c0.4-0.3,0.8-0.8,1.2-1.2c-0.4-0.8-0.9-1.7-1.2-2.7V211.4L115.5,211.4z M116.6,207c0.2,0.7,0.6,1.3,0.9,1.9
		c0.3-0.6,0.6-1.2,0.7-1.9H116.6z"/>
	<path class="st3" d="M123.3,205.2c0.9,0,1.6,0.7,1.6,1.6s-0.7,1.6-1.6,1.6s-1.6-0.7-1.6-1.6S122.5,205.2,123.3,205.2z"/>
</g>
<g>
	<path class="st3" d="M627.8,201.8h2l2.9,5.2l1,2.1h0.1c-0.1-1-0.2-2.3-0.2-3.5v-3.9h1.9v9.9h-2l-2.9-5.2l-1-2.1h-0.1
		c0.1,1.1,0.2,2.3,0.2,3.5v4h-1.9V201.8z"/>
	<path class="st3" d="M637.8,201.8h3.2c2,0,3.6,0.6,3.6,2.4c0,0.9-0.6,1.9-1.3,2.1v0.1c1.1,0.2,1.9,1,1.9,2.3c0,2-1.7,2.9-3.8,2.9
		h-3.6V201.8L637.8,201.8z M641,205.8c1.2,0,1.8-0.6,1.8-1.3c0-0.9-0.6-1.2-1.8-1.2h-1.2v2.6L641,205.8L641,205.8z M641.2,210.2
		c1.3,0,2.1-0.4,2.1-1.6c0-1-0.7-1.3-2.1-1.3h-1.3v2.9H641.2z"/>
	<path class="st3" d="M647,201.8h2.7c3,0,4.9,1.6,4.9,4.9s-1.9,5-4.8,5H647L647,201.8L647,201.8L647,201.8z M649.5,210.2
		c1.9,0,3-1,3-3.3s-1.1-3.3-3-3.3h-0.7v6.7L649.5,210.2L649.5,210.2z"/>
	<path class="st3" d="M656,206.8c0-3.2,2.1-5.1,4.6-5.1c1.2,0,2.2,0.6,2.9,1.2l-1,1.2c-0.5-0.4-1.1-0.8-1.8-0.8
		c-1.5,0-2.7,1.3-2.7,3.5s1,3.5,2.6,3.5c0.9,0,1.6-0.4,2-1l1,1.2c-0.8,1-1.9,1.4-3.1,1.4C658,212,656,210.2,656,206.8L656,206.8z"/>
	<path class="st3" d="M677,209.2h-1.3v2.3H674v-0.6h-2.5v0.4c0,0.8-0.2,1.1-0.7,1.3c-0.6,0.2-1.2,0.2-2.3,0.2
		c-0.1-0.3-0.3-0.9-0.6-1.2h1.7c0.2,0,0.3-0.1,0.3-0.3v-0.4h-4v-1.1h4v-0.7h-5.2v-1.2h5.2v-0.6H666v-1.1h3.9v-0.6h-3.7V203h3.7v-0.6
		h-5v-1.2h5v-0.9h1.7v0.9h5.1v1.2h-5.1v0.6h3.8v2.7h-3.8v0.6h4v1.7h1.3L677,209.2L677,209.2z M669.9,204.7V204h-2.1v0.7H669.9z
		 M671.5,204v0.7h2.1V204H671.5z M671.5,207.9h2.5v-0.6h-2.5V207.9z M674,209.2h-2.5v0.7h2.5V209.2z"/>
	<path class="st3" d="M686.2,209.8c1.1,0.7,2.7,1.2,4.2,1.4c-0.3,0.3-0.8,1-1.1,1.4c-1.7-0.4-3.2-1.2-4.5-2.2v2.4h-1.6v-2.3
		c-1.2,1-2.9,1.8-4.5,2.1c-0.2-0.3-0.7-1-1-1.3c1.5-0.3,3.1-0.9,4.2-1.6h-3.8v-1.3h5.1v-0.6h-3.9v-1.1h3.9v-0.6h-4.6V205h2.6
		c-0.1-0.3-0.3-0.8-0.5-1h0.1h-2.8v-1.3h1.8c-0.2-0.6-0.6-1.1-0.8-1.7l1.3-0.4c0.3,0.6,0.8,1.3,1,1.9l-0.7,0.2h1.2v-2.2h1.5v2.2h1
		v-2.2h1.5v2.2h1.2l-0.5-0.1c0.3-0.6,0.7-1.3,0.9-1.9l1.7,0.4c-0.3,0.7-0.8,1.2-1,1.7h1.8v1.3h-2.6c-0.2,0.3-0.5,0.8-0.7,1.1h2.7
		v1.2H685v0.6h4v1.1h-4v0.6h5.2v1.3h-4L686.2,209.8L686.2,209.8z M682.6,203.9c0.2,0.3,0.3,0.8,0.5,1h-0.2h2.5
		c0.1-0.3,0.3-0.7,0.5-1.1h-3.1L682.6,203.9L682.6,203.9z"/>
	<path class="st3" d="M695.7,207.6c-0.3,0.1-0.8,0.2-1.2,0.3v3.2c0,0.8-0.1,1.2-0.6,1.4s-1.1,0.3-2,0.3c0-0.4-0.2-1.1-0.5-1.6h1.2
		c0.1,0,0.2,0,0.2-0.2v-2.8l-1.5,0.4l-0.3-1.6c0.6-0.1,1.1-0.2,1.8-0.4v-2.4h-1.6v-1.4h1.6v-2.6h1.6v2.6h1v1.4h-1v2l1-0.2
		L695.7,207.6L695.7,207.6z M703.7,212.2H698v0.7h-1.6v-7c-0.2,0.2-0.3,0.4-0.6,0.7c-0.2-0.3-0.7-1.1-1-1.4c1.1-1.1,2-2.9,2.5-4.7
		l1.6,0.3c-0.2,0.7-0.5,1.4-0.8,2.1h1.5c0.3-0.8,0.7-1.7,0.8-2.4l1.7,0.3c-0.3,0.7-0.6,1.4-0.9,2h2.2v1.4h-2.5v1.2h2.1v1.3h-2.1v1.3
		h2.1v1.3h-2.1v1.3h2.7v1.4L703.7,212.2L703.7,212.2z M699.6,204.3H698v1.2h1.6V204.3z M699.6,206.8H698v1.3h1.6V206.8z M698,210.7
		h1.6v-1.3H698V210.7z"/>
	<path class="st3" d="M707.8,209.8c0.6,0.9,1.5,1.2,2.8,1.3c1.6,0.1,4.8,0,6.6-0.1c-0.2,0.3-0.5,1.1-0.5,1.6c-1.7,0.1-4.5,0.1-6.1,0
		c-1.6-0.1-2.7-0.4-3.5-1.4c-0.6,0.6-1.1,1-1.8,1.6l-0.8-1.6c0.6-0.3,1.1-0.8,1.7-1.2V207h-1.5v-1.4h3L707.8,209.8L707.8,209.8
		L707.8,209.8z M706.8,203.8c-0.3-0.7-1.2-1.6-2-2.2l1.2-0.9c0.8,0.6,1.7,1.4,2.1,2.1L706.8,203.8L706.8,203.8z M709.2,205
		c-0.2,0.2-0.5,0.4-0.7,0.7c-0.2-0.3-0.8-1-1.1-1.2c1.2-0.9,2.3-2.4,3-4l1.6,0.4c-0.2,0.4-0.5,1-0.7,1.4h1.6
		c0.2-0.6,0.5-1.2,0.6-1.8l1.8,0.3c-0.2,0.4-0.5,1-0.7,1.4h2.3v1.3h-2.7v0.9h2.3v1.3h-2.3v0.9h2.2v1.3h-2.2v0.9h2.9v1.3h-7.7V205
		L709.2,205L709.2,205z M712.5,203.7h-1.8v0.9h1.8V203.7z M712.5,205.8h-1.8v0.9h1.8V205.8z M712.5,207.9h-1.8v0.9h1.8V207.9z"/>
	<path class="st3" d="M724.2,203.5c-0.3,0.8-0.6,1.4-0.8,2h1.6v1.4h-6.9v-1.4h1.6c0-0.6-0.2-1.3-0.5-2l1.3-0.2
		c0.3,0.6,0.5,1.4,0.6,2l-1.2,0.3h3.6l-1.1-0.3c0.2-0.6,0.5-1.4,0.6-2L724.2,203.5L724.2,203.5z M724.8,203h-6.5v-1.3h2.5v-1.2h1.6
		v1.2h2.5L724.8,203L724.8,203L724.8,203z M718.9,207.7h5.6v5.1h-1.6v-0.7h-2.5v0.7H719v-5.1H718.9z M720.3,209v1.8h2.5V209H720.3z
		 M730.6,201.8c-0.5,1.3-1,2.8-1.6,4c1.1,1.2,1.3,2.2,1.3,3.1c0,1-0.2,1.7-0.7,2c-0.2,0.2-0.6,0.3-0.9,0.3h-1.1
		c0-0.4-0.1-1.1-0.3-1.6h0.8c0.2,0,0.3,0,0.5-0.1c0.2-0.1,0.3-0.4,0.3-0.9c0-0.7-0.3-1.7-1.3-2.7c0.3-1,0.8-2.3,1.1-3.3h-1.8v10.3
		h-1.6v-11.7h3.8l0.2-0.1L730.6,201.8L730.6,201.8z"/>
</g>
<text transform="matrix(1 0 0 1 529.4194 288.0481)" class="st6 st7 st8">委託</text>
</svg>
