<?xml version="1.0" encoding="utf-8"?>
<!-- Generator: Adobe Illustrator 24.1.1, SVG Export Plug-In . SVG Version: 6.00 Build 0)  -->
<svg version="1.1" id="レイヤー_1" xmlns="http://www.w3.org/2000/svg" xmlns:xlink="http://www.w3.org/1999/xlink" x="0px"
	 y="0px" viewBox="0 0 705 322" style="enable-background:new 0 0 705 322;" xml:space="preserve">
<style type="text/css">
	.st0{fill:#F4E9C3;}
	.st1{fill:#97BDC0;}
	.st2{fill:#004098;}
	.st3{fill:#FFFFFF;}
	.st4{opacity:0.5;}
	.st5{opacity:0.5;fill:#7E8060;enable-background:new    ;}
	.st6{fill:#807360;}
	.st7{fill:#938878;}
	.st8{fill:#274D7A;}
</style>
<rect y="0" class="st0" width="495" height="322"/>
<rect x="505" y="0" class="st0" width="200" height="322"/>
<circle class="st1" cx="361" cy="139.5" r="112"/>
<circle class="st2" cx="361" cy="176.5" r="75"/>
<g>
	<path class="st3" d="M388.5,207.8h-55.8c-2.8,0-5-2.2-5-5v-6.4c0-2.8,2.2-5,5-5h55.8c2.8,0,5,2.2,5,5v6.4
		C393.5,205.6,391.3,207.8,388.5,207.8z"/>
	<g>
		<path d="M336.5,195.4h1.8v3.9l3.3-3.9h2.2l-3.7,4.3l3.9,4.8h-2.4l-3.3-4.2l0,0v4.2h-1.8V195.4z"/>
		<path d="M345.4,198.2c0.7-0.3,1.6-0.5,2.3-0.5c2,0,2.9,0.8,2.9,2.8v0.9c0,0.7,0,1.2,0,1.7s0,1,0.1,1.5h-1.5
			c-0.1-0.4-0.1-0.8-0.1-1l0,0c-0.4,0.7-1.3,1.2-2.1,1.2c-1.2,0-2.3-0.7-2.3-2c0-1,0.5-1.6,1.1-1.9c0.7-0.3,1.5-0.4,2.2-0.4h1
			c0-1.1-0.5-1.4-1.5-1.4c-0.7,0-1.5,0.3-2.1,0.7V198.2z M347.4,203.4c0.5,0,0.9-0.2,1.2-0.6c0.3-0.4,0.4-0.9,0.4-1.4h-0.8
			c-0.8,0-1.9,0.1-1.9,1.2C346.3,203.1,346.8,203.4,347.4,203.4z"/>
		<path d="M356.3,199.2c-0.5-0.2-0.9-0.3-1.6-0.3c-0.5,0-1,0.2-1,0.7c0,1.1,3,0.4,3,2.8c0,1.6-1.4,2.2-2.8,2.2c-0.7,0-1.3-0.1-2-0.3
			l0.1-1.4c0.5,0.3,1.1,0.4,1.7,0.4c0.4,0,1.1-0.2,1.1-0.8c0-1.3-3-0.4-3-2.8c0-1.4,1.3-2.1,2.6-2.1c0.8,0,1.4,0.1,1.9,0.2
			L356.3,199.2z"/>
		<path d="M358.1,194.7h1.7v4l0,0c0.4-0.7,1.2-1.1,2.1-1.1c1.6,0,2.3,1.1,2.3,2.6v4.2h-1.7v-3.6c0-0.8,0-1.9-1.1-1.9
			c-1.3,0-1.5,1.4-1.5,2.2v3.3h-1.7L358.1,194.7L358.1,194.7z"/>
		<path d="M366,194.9h1.7v1.7H366V194.9z M366,197.8h1.7v6.7H366V197.8z"/>
		<path d="M368.9,197.8h1.8l1.5,5l0,0l1.4-5h2l1.5,5l0,0l1.4-5h1.7l-2.1,6.7H376l-1.5-5.1l0,0l-1.4,5.1h-2L368.9,197.8z"/>
		<path d="M381.5,198.2c0.7-0.3,1.6-0.5,2.3-0.5c2,0,2.9,0.8,2.9,2.8v0.9c0,0.7,0,1.2,0,1.7s0,1,0.1,1.5h-1.5
			c-0.1-0.4-0.1-0.8-0.1-1l0,0c-0.4,0.7-1.3,1.2-2.1,1.2c-1.2,0-2.3-0.7-2.3-2c0-1,0.5-1.6,1.1-1.9s1.5-0.4,2.2-0.4h1
			c0-1.1-0.5-1.4-1.5-1.4c-0.7,0-1.5,0.3-2.1,0.7V198.2z M383.5,203.4c0.5,0,0.9-0.2,1.2-0.6c0.3-0.4,0.4-0.9,0.4-1.4h-0.8
			c-0.8,0-1.9,0.1-1.9,1.2C382.4,203.1,382.9,203.4,383.5,203.4z"/>
	</g>
</g>
<path class="st3" d="M323.4,132.5h5.1c5.7,0,10.7,1.9,10.7,9.2s-5,9.2-10.7,9.2h-5.1V132.5z M327.1,148.1h2.1
	c3.5-0.1,6.2-3.1,6.1-6.6c-0.1-3.3-2.8-5.9-6.1-6.1h-2.1V148.1z"/>
<path class="st3" d="M342.5,132.5h6.5c2.4,0,6,0.7,6,4.7c0,2.1-1.6,3.9-3.7,4.1l0,0c2.5,0.2,4.2,1.9,4.2,4.2c0,4.7-4.2,5.4-6.5,5.4
	h-6.5V132.5z M346.2,140h1.5c1.6,0,3.5-0.3,3.5-2.2c0-2.1-1.9-2.3-3.6-2.3h-1.4V140z M346.2,148.1h1.8c1.7,0,3.8-0.4,3.8-2.6
	c0-2.4-2-2.8-3.8-2.8h-1.8V148.1z"/>
<path class="st3" d="M372.2,150.7c-1.4,0.4-2.8,0.5-4.2,0.6c-6,0-10.1-3-10.1-9.2s3.9-9.9,10.1-9.9c1.4,0,2.8,0.3,4.2,0.8l-0.3,3.1
	c-1.2-0.7-2.6-1-4-1c-3.8,0-6.2,2.9-6.2,6.7s2.3,6.6,6.3,6.6c1.4,0,2.8-0.2,4-0.8L372.2,150.7z"/>
<path class="st3" d="M374.9,132.5h3.7v15.6h7.2v2.9h-10.9L374.9,132.5L374.9,132.5z"/>
<path class="st3" d="M398.1,135.9c-1.2-0.5-2.5-0.8-3.8-0.8s-2.9,0.6-2.9,2.6c0,3.2,8.1,1.9,8.1,8c0,4.1-3.2,5.6-6.9,5.6
	c-1.6,0-3.2-0.2-4.7-0.7l0.4-3.3c1.3,0.7,2.7,1.1,4.2,1.1c1.4,0,3.3-0.7,3.3-2.4c0-3.5-8.1-2.1-8.1-8.2c0-4.1,3.2-5.6,6.5-5.6
	c1.5,0,3,0.2,4.4,0.7L398.1,135.9z"/>
<g class="st4">
	<circle class="st5" cx="130" cy="138.5" r="111"/>
	<circle class="st6" cx="130" cy="138.5" r="111"/>
</g>
<circle class="st6" cx="608" cy="172" r="78"/>
<circle class="st7" cx="608" cy="172" r="78"/>
<path class="st6" d="M228.4,269.2h6.3c2.4,0,4.3,1.1,4.3,3.3c0.1,1.6-1,3.1-2.6,3.4l0,0c1.1,0.3,1.2,1.3,1.9,2.9l1.3,3.6H236
	l-0.8-2.4c-0.7-2.3-1.2-2.9-2.5-2.9H232v5.3h-3.5L228.4,269.2z M232,274.7h0.9c1.1,0,2.6,0,2.6-1.5c0-1.2-1.2-1.5-2.6-1.5H232V274.7
	z"/>
<path class="st6" d="M247.4,269c4.4,0,6.6,2.6,6.6,6.9s-2.3,6.9-6.6,6.9s-6.6-2.6-6.6-6.9S243,269,247.4,269z M247.4,280.1
	c2.1,0,3-2.1,3-4.2s-0.9-4.2-3-4.2s-3,1.9-3,4.2S245.2,280.1,247.4,280.1L247.4,280.1z"/>
<path class="st6" d="M256.2,269.2h3.5v13.3h-3.5V269.2z"/>
<path class="st6" d="M262.4,279.2c1.1,0.6,2.4,0.9,3.6,0.9c1.1,0,2.2-0.2,2.2-1.3c0-2.5-6.3-0.9-6.3-5.7c0-3.2,3.1-4.1,5.8-4.1
	c1.2,0,2.3,0.2,3.4,0.5l-0.2,2.7c-0.9-0.4-1.9-0.6-3-0.6c-0.9,0-2.4,0.1-2.4,1.2c0,2.1,6.3,0.7,6.3,5.5c0,3.4-2.9,4.4-5.8,4.4
	c-1.3,0-2.7-0.2-4-0.6L262.4,279.2z"/>
<path class="st6" d="M593,279.4c0.5,0.2,1,0.3,1.6,0.3c1,0,1.8-0.7,1.8-2.9v-7.6h3.5v8.7c0,2.9-1.2,4.8-4.8,4.8
	c-0.7,0-1.5-0.2-2.2-0.4L593,279.4z"/>
<path class="st6" d="M602.4,279.2c1.1,0.6,2.4,0.9,3.7,0.9c1.1,0,2.2-0.2,2.2-1.3c0-2.5-6.3-0.9-6.3-5.7c0-3.2,3.1-4.1,5.8-4.1
	c1.2,0,2.3,0.2,3.4,0.5l-0.2,2.7c-0.9-0.4-1.9-0.6-2.9-0.6c-0.9,0-2.4,0.1-2.4,1.2c0,2.1,6.3,0.7,6.3,5.5c0,3.4-2.9,4.4-5.8,4.4
	c-1.3,0-2.7-0.2-4-0.6L602.4,279.2z"/>
<path class="st6" d="M616.2,271.9H613v-2.6h10.1v2.6h-3.3v10.6h-3.5L616.2,271.9z"/>
<rect x="464" y="232.5" class="st8" width="72" height="4"/>
<polygon class="st8" points="454.6,234.5 466.2,241.2 466.2,227.8 "/>
<polygon class="st8" points="542,234.5 530.5,227.8 530.5,241.2 "/>
<rect x="211" y="232.5" class="st8" width="72" height="4"/>
<polygon class="st8" points="201.6,234.5 213.2,241.2 213.2,227.8 "/>
<polygon class="st8" points="289,234.5 277.5,227.8 277.5,241.2 "/>
<path class="st3" d="M575.7,149h4.5l7,13.8l0,0V149h3.5v18.5h-4.5l-7.1-13.8l0,0v13.8h-3.5L575.7,149z"/>
<path class="st3" d="M595,149h6.5c2.4,0,6,0.7,6,4.7c0,2.1-1.6,3.9-3.7,4.1l0,0c2.5,0.2,4.2,1.9,4.2,4.2c0,4.7-4.2,5.4-6.5,5.4H595
	V149z M598.7,156.5h1.5c1.6,0,3.5-0.4,3.5-2.2c0-2.1-1.9-2.3-3.6-2.3h-1.4V156.5z M598.7,164.6h1.8c1.7,0,3.8-0.4,3.8-2.6
	c0-2.4-2-2.8-3.8-2.8h-1.8V164.6z"/>
<path class="st3" d="M611.2,149h5c5.7,0,10.7,1.9,10.7,9.2s-5,9.2-10.7,9.2h-5V149z M614.9,164.6h2.1c3.5,0,6.3-2.8,6.3-6.3
	s-2.8-6.3-6.3-6.3h-2.1V164.6z"/>
<path class="st3" d="M643.7,167.2c-1.4,0.4-2.8,0.6-4.2,0.6c-6,0-10.1-3-10.1-9.2s3.9-9.9,10.1-9.9c1.4,0,2.8,0.3,4.2,0.8l-0.3,3.1
	c-1.2-0.7-2.6-1-4-1c-3.8,0-6.2,2.9-6.2,6.7s2.3,6.6,6.3,6.6c1.4,0,2.7-0.2,4-0.8L643.7,167.2z"/>
<circle class="st7" cx="131" cy="176.5" r="75"/>
<path class="st3" d="M101.8,149h5c5.7,0,10.7,1.9,10.7,9.2s-5,9.2-10.7,9.2h-5V149z M105.5,164.6h2.1c3.5,0,6.3-2.8,6.3-6.3
	s-2.8-6.3-6.3-6.3h-2.1V164.6z"/>
<path class="st3" d="M120.9,149h5c5.7,0,10.7,1.9,10.7,9.2s-4.9,9.3-10.6,9.3h-5L120.9,149z M124.6,164.6h2.1c3.5,0,6.3-2.8,6.3-6.3
	s-2.8-6.3-6.3-6.3h-2.1V164.6z"/>
<path class="st3" d="M140,149h6.5c2.4,0,6,0.7,6,4.7c0,2.1-1.6,3.9-3.7,4.1l0,0c2.5,0.2,4.2,1.9,4.2,4.2c0,4.7-4.2,5.4-6.5,5.4H140
	V149z M143.7,156.5h1.5c1.6,0,3.5-0.4,3.5-2.2c0-2.1-1.9-2.3-3.6-2.3h-1.4V156.5z M143.7,164.6h1.8c1.7,0,3.8-0.4,3.8-2.6
	c0-2.4-2-2.8-3.8-2.8h-1.8V164.6z"/>
<path class="st3" d="M154.6,164.2c0.6,0.2,1.2,0.3,1.8,0.3c2.4,0,2.4-1.9,2.4-3.3V149h3.7v14.1c0,2.6-2,4.7-4.6,4.7
	c-0.2,0-0.3,0-0.5,0c-1,0-1.9-0.1-2.8-0.4L154.6,164.2z"/>
<path class="st3" d="M111.2,44h4.6l7.1,13.8l0,0V44h3.6v18.5H122l-7.1-13.8h-0.1v13.8h-3.6C111.2,62.5,111.2,44,111.2,44z"/>
<path class="st3" d="M130.1,44h3.7v18.5h-3.7V44z"/>
<path class="st3" d="M152.2,47.6c-1.5-0.7-3.1-1-4.8-1c-4.3,0-6.7,2.9-6.7,6.7s2.3,6.6,6.3,6.6c0.8,0,1.6-0.1,2.4-0.3v-4.8h-3.9
	v-2.9h7.5v10c-1.9,0.6-4,0.9-6,1c-6,0-10.1-3-10.1-9.2s3.9-9.9,10.1-9.9c1.8,0,3.7,0.2,5.4,0.8L152.2,47.6z"/>
<path class="st3" d="M347.2,44h5.1c5.7,0,10.7,1.9,10.7,9.2s-5,9.3-10.7,9.3h-5.1V44z M350.9,59.6h2.1c3.5,0,6.3-2.8,6.3-6.3
	S356.5,47,353,47h-2.1V59.6z"/>
<path class="st3" d="M376.3,47.4c-1.2-0.5-2.5-0.8-3.8-0.8s-2.9,0.6-2.9,2.6c0,3.2,8.1,1.9,8.1,8c0,4.1-3.2,5.6-6.9,5.6
	c-1.6,0-3.2-0.2-4.7-0.7l0.3-3.3c1.3,0.7,2.7,1.1,4.2,1.1c1.4,0,3.3-0.7,3.3-2.4c0-3.5-8.1-2.1-8.1-8.2c0-4.1,3.2-5.6,6.5-5.6
	c1.5,0,3,0.2,4.4,0.7L376.3,47.4z"/>
<g>
	<path class="st3" d="M82.9,68.6H85l3.2,7.7l0,0v-7.7h1.6v9.8h-2.1l-3.2-7.6l0,0v7.6h-1.6V68.6z"/>
	<path class="st3" d="M92.1,71.5c0.5-0.2,1.2-0.5,2.3-0.5c2.2,0,2.8,1.1,2.8,2.9v3.2c0,0.5,0.1,1,0.1,1.3h-1.6
		c-0.1-0.3-0.1-0.6-0.1-1l0,0c-0.4,0.6-1,1.1-2,1.1c-1.1,0-2.2-0.8-2.2-2.1c0-2,1.6-2.5,3.8-2.5h0.4v-0.3c0-0.7-0.4-1.4-1.3-1.4
		s-1.6,0.4-2,0.7L92.1,71.5z M95.5,74.8h-0.2c-1.5,0-2.4,0.3-2.4,1.4c0,0.7,0.4,1.1,1.1,1.1c1,0,1.4-0.8,1.4-2.1L95.5,74.8
		L95.5,74.8z"/>
	<path class="st3" d="M99.4,69.6l1.7-0.5v2h1.4v1.3h-1.4v3.7c0,0.8,0.3,1,0.8,1c0.3,0,0.5-0.1,0.7-0.2v1.2c-0.3,0.1-0.6,0.2-1.2,0.2
		c-1.3,0-2-0.6-2-2.1v-3.9h-1.1V71h1.1V69.6z"/>
	<path class="st3" d="M103.8,68h1.8v1.7h-1.8V68z M103.8,71.1h1.7v7.2h-1.7V71.1z"/>
	<path class="st3" d="M110.3,71c1.5,0,3.2,0.8,3.2,3.7c0,3-1.7,3.7-3.2,3.7s-3.2-0.7-3.2-3.7C107.1,71.8,108.8,71,110.3,71z
		 M110.3,77.2c1.1,0,1.4-1.3,1.4-2.5s-0.3-2.5-1.4-2.5s-1.4,1.3-1.4,2.5C108.9,75.9,109.2,77.2,110.3,77.2z"/>
	<path class="st3" d="M114.8,72.3c0-0.4,0-0.9-0.1-1.2h1.6c0,0.4,0.1,0.7,0.1,1.1l0,0c0.3-0.4,0.7-1.2,1.9-1.2
		c1.6,0,2.1,1.2,2.1,2.7v4.7h-1.7V74c0-1.1-0.3-1.6-1-1.6c-0.9,0-1.2,0.8-1.2,1.7v4.2h-1.7C114.8,78.3,114.8,72.3,114.8,72.3z"/>
	<path class="st3" d="M122.4,71.5c0.5-0.2,1.2-0.5,2.3-0.5c2.2,0,2.8,1.1,2.8,2.9v3.2c0,0.5,0.1,1,0.1,1.3H126
		c-0.1-0.3-0.1-0.6-0.1-1l0,0c-0.4,0.6-1,1.1-2,1.1c-1.1,0-2.2-0.8-2.2-2.1c0-2,1.6-2.5,3.8-2.5h0.4v-0.3c0-0.7-0.4-1.4-1.3-1.4
		s-1.6,0.4-2,0.7L122.4,71.5z M125.9,74.8h-0.2c-1.5,0-2.4,0.3-2.4,1.4c0,0.7,0.4,1.1,1.1,1.1c1,0,1.4-0.8,1.4-2.1L125.9,74.8
		L125.9,74.8z"/>
	<path class="st3" d="M129.3,67.8h1.7v10.5h-1.7V67.8z"/>
	<path class="st3" d="M136.6,68.6h1.8v9.8h-1.8V68.6z"/>
	<path class="st3" d="M140.3,72.3c0-0.4,0-0.9-0.1-1.2h1.6c0,0.4,0.1,0.7,0.1,1.1l0,0c0.3-0.4,0.7-1.2,1.9-1.2
		c1.6,0,2.1,1.2,2.1,2.7v4.7h-1.7V74c0-1.1-0.3-1.6-1-1.6c-0.9,0-1.2,0.8-1.2,1.7v4.2h-1.7L140.3,72.3L140.3,72.3z"/>
	<path class="st3" d="M147.3,76.6c0.3,0.1,1,0.5,1.8,0.5c0.6,0,1.1-0.2,1.1-0.7c0-0.3-0.1-0.5-0.8-0.9l-0.7-0.4
		c-0.7-0.4-1.5-0.9-1.5-2c0-1,1-2,2.5-2c0.9,0,1.6,0.2,1.8,0.3l-0.1,1.3c-0.4-0.2-0.9-0.3-1.5-0.3c-0.7,0-1,0.3-1,0.7
		c0,0.4,0.3,0.6,0.8,0.9l0.9,0.5c0.9,0.6,1.3,1,1.3,1.8c0,1.3-1.1,2.1-2.7,2.1c-0.9,0-1.6-0.2-2-0.4L147.3,76.6z"/>
	<path class="st3" d="M153.9,69.6l1.7-0.5v2h1.4v1.3h-1.4v3.7c0,0.8,0.3,1,0.8,1c0.3,0,0.5-0.1,0.7-0.2v1.2
		c-0.3,0.1-0.6,0.2-1.2,0.2c-1.3,0-2-0.6-2-2.1v-3.9h-1.1V71h1.1V69.6z"/>
	<path class="st3" d="M158.3,68h1.8v1.7h-1.8V68z M158.3,71.1h1.7v7.2h-1.7V71.1z"/>
	<path class="st3" d="M162.4,69.6l1.7-0.5v2h1.4v1.3h-1.4v3.7c0,0.8,0.3,1,0.8,1c0.3,0,0.5-0.1,0.7-0.2v1.2
		c-0.3,0.1-0.6,0.2-1.2,0.2c-1.3,0-2-0.6-2-2.1v-3.9h-1.1V71h1.1V69.6z"/>
	<path class="st3" d="M172.4,77.1c0,0.4,0,0.9,0.1,1.2h-1.6c0-0.4-0.1-0.7-0.1-1.1l0,0l0,0c-0.3,0.5-0.8,1.2-1.9,1.2
		c-1.6,0-2.1-1.2-2.1-2.7V71h1.7v4.3c0,1.1,0.3,1.6,1,1.6c0.9,0,1.2-0.8,1.2-1.8V71h1.7L172.4,77.1L172.4,77.1z"/>
	<path class="st3" d="M174.6,69.6l1.7-0.5v2h1.4v1.3h-1.4v3.7c0,0.8,0.3,1,0.8,1c0.3,0,0.5-0.1,0.7-0.2v1.2
		c-0.3,0.1-0.6,0.2-1.2,0.2c-1.3,0-2-0.6-2-2.1v-3.9h-1.1V71h1.1V69.6z"/>
	<path class="st3" d="M184.2,78c-0.4,0.2-1.1,0.5-2.2,0.5c-2.3,0-3.3-1.7-3.3-3.6c0-2.2,1.1-3.8,3-3.8c1.6,0,2.9,0.9,2.9,3.9v0.3
		h-4.2c0,1.2,0.5,2,1.8,2c1.1,0,1.6-0.3,1.9-0.6L184.2,78z M182.9,74.1c0-1.3-0.4-1.9-1.2-1.9c-0.9,0-1.3,1-1.3,1.9H182.9z"/>
	<path class="st3" d="M104.1,85c1.5,0,3.2,0.8,3.2,3.7c0,3-1.7,3.7-3.2,3.7s-3.2-0.7-3.2-3.7C100.9,85.8,102.6,85,104.1,85z
		 M104.1,91.2c1.1,0,1.4-1.3,1.4-2.5s-0.3-2.5-1.4-2.5s-1.4,1.3-1.4,2.5C102.7,89.9,103,91.2,104.1,91.2z"/>
	<path class="st3" d="M109.2,86.4H108v-1.3h1.2v-1.5c0-1,0.5-2,2.1-2c0.5,0,0.9,0.1,1.2,0.2l-0.1,1.3c-0.2-0.1-0.4-0.1-0.7-0.1
		c-0.5,0-0.8,0.4-0.8,0.9v1.2h1.3v1.3h-1.3v5.9h-1.7V86.4z"/>
	<path class="st3" d="M121.1,86.9h3.2V92c-0.5,0.3-1.4,0.5-2.6,0.5c-3.1,0-4.8-2.1-4.8-5s1.7-5,4.8-5c1.1,0,2,0.3,2.4,0.4l-0.1,1.6
		c-0.6-0.4-1.4-0.6-2.3-0.6c-1.9,0-2.9,1.6-2.9,3.6c0,2.2,1,3.6,2.8,3.6c0.4,0,0.8-0.1,1-0.2v-2.6h-1.5V86.9z"/>
	<path class="st3" d="M131.3,92c-0.4,0.2-1.1,0.5-2.2,0.5c-2.3,0-3.3-1.7-3.3-3.6c0-2.2,1.1-3.8,3-3.8c1.6,0,2.9,0.9,2.9,3.9v0.3
		h-4.2c0,1.2,0.5,2,1.8,2c1.1,0,1.6-0.3,1.9-0.6L131.3,92z M130,88.1c0-1.3-0.4-1.9-1.2-1.9c-0.9,0-1.3,1-1.3,1.9H130z"/>
	<path class="st3" d="M133,86.3c0-0.4,0-0.9-0.1-1.2h1.6c0,0.4,0.1,0.7,0.1,1.1l0,0c0.3-0.4,0.7-1.2,1.9-1.2c1.6,0,2.1,1.2,2.1,2.7
		v4.7h-1.7V88c0-1.1-0.3-1.6-1-1.6c-0.9,0-1.2,0.8-1.2,1.7v4.2H133V86.3z"/>
	<path class="st3" d="M145.5,92c-0.4,0.2-1.1,0.5-2.2,0.5c-2.3,0-3.3-1.7-3.3-3.6c0-2.2,1.1-3.8,3-3.8c1.6,0,2.9,0.9,2.9,3.9v0.3
		h-4.2c0,1.2,0.5,2,1.8,2c1.1,0,1.6-0.3,1.9-0.6L145.5,92z M144.2,88.1c0-1.3-0.4-1.9-1.2-1.9c-0.9,0-1.3,1-1.3,1.9H144.2z"/>
	<path class="st3" d="M147.9,83.6l1.7-0.5v2h1.4v1.3h-1.4v3.7c0,0.8,0.3,1,0.8,1c0.3,0,0.5-0.1,0.7-0.2v1.2
		c-0.3,0.1-0.6,0.2-1.2,0.2c-1.3,0-2-0.6-2-2.1v-3.9h-1.1V85h1.1V83.6z"/>
	<path class="st3" d="M152.3,82h1.8v1.7h-1.8V82z M152.3,85.1h1.7v7.2h-1.7V85.1z"/>
	<path class="st3" d="M160.7,92.1c-0.4,0.2-1,0.3-1.7,0.3c-2.4,0-3.4-1.7-3.4-3.7c0-2.1,1.1-3.7,3.5-3.7c0.5,0,1.2,0.2,1.5,0.3
		l-0.1,1.4c-0.3-0.2-0.7-0.4-1.2-0.4c-1.3,0-1.9,0.9-1.9,2.4c0,1.3,0.6,2.4,2,2.4c0.4,0,1-0.2,1.2-0.4L160.7,92.1z"/>
	<path class="st3" d="M161.6,90.6c0.3,0.1,1,0.5,1.8,0.5c0.6,0,1.1-0.2,1.1-0.7c0-0.3-0.1-0.5-0.8-0.9l-0.7-0.4
		c-0.7-0.4-1.5-0.9-1.5-2c0-1,1-2,2.5-2c0.9,0,1.6,0.2,1.8,0.3l-0.1,1.3c-0.4-0.2-0.9-0.3-1.5-0.3c-0.7,0-1,0.3-1,0.7
		c0,0.4,0.3,0.6,0.8,0.9l0.9,0.5c0.9,0.6,1.3,1,1.3,1.8c0,1.3-1.1,2.1-2.7,2.1c-0.9,0-1.6-0.2-2-0.4L161.6,90.6z"/>
</g>
<g>
	<path class="st6" d="M110,288.1h3.1c1.7,0,2.9,0.8,2.9,2.6c0,1.3-0.8,2.1-1.9,2.3l0,0c0.4,0.1,0.8,0.2,1.1,1.1l1.3,3.7h-1.9l-1-3.2
		c-0.2-0.8-0.7-1-1.4-1h-0.4v4.2H110V288.1z M112.6,292.4c1,0,1.6-0.5,1.6-1.5c0-1.1-0.6-1.4-1.6-1.4h-0.7v2.9H112.6z"/>
	<path class="st6" d="M122.9,297.5c-0.4,0.2-1.1,0.5-2.2,0.5c-2.3,0-3.3-1.7-3.3-3.6c0-2.2,1.1-3.8,3-3.8c1.6,0,2.9,0.9,2.9,3.9v0.3
		h-4.2c0,1.2,0.5,2,1.8,2c1.1,0,1.6-0.3,1.9-0.6L122.9,297.5z M121.6,293.7c0-1.3-0.4-1.9-1.2-1.9c-0.9,0-1.3,1-1.3,1.9H121.6z"/>
	<path class="st6" d="M124.5,296.2c0.3,0.1,1,0.5,1.8,0.5c0.6,0,1.1-0.2,1.1-0.7c0-0.3-0.1-0.5-0.8-0.9l-0.7-0.4
		c-0.7-0.4-1.5-0.9-1.5-2c0-1,1-2,2.5-2c0.9,0,1.6,0.2,1.8,0.3l-0.1,1.3c-0.4-0.2-0.9-0.3-1.5-0.3c-0.7,0-1,0.3-1,0.7
		c0,0.4,0.3,0.6,0.8,0.9l0.9,0.5c0.9,0.6,1.3,1,1.3,1.8c0,1.3-1.1,2.1-2.7,2.1c-0.9,0-1.6-0.2-2-0.4L124.5,296.2z"/>
	<path class="st6" d="M135.6,297.5c-0.4,0.2-1.1,0.5-2.2,0.5c-2.3,0-3.3-1.7-3.3-3.6c0-2.2,1.1-3.8,3-3.8c1.6,0,2.9,0.9,2.9,3.9v0.3
		h-4.2c0,1.2,0.5,2,1.8,2c1.1,0,1.6-0.3,1.9-0.6L135.6,297.5z M134.3,293.7c0-1.3-0.4-1.9-1.2-1.9c-0.9,0-1.3,1-1.3,1.9H134.3z"/>
	<path class="st6" d="M137.7,291.1c0.5-0.2,1.2-0.5,2.3-0.5c2.2,0,2.8,1.1,2.8,2.9v3.2c0,0.5,0.1,1,0.1,1.3h-1.6
		c-0.1-0.3-0.1-0.6-0.1-1l0,0c-0.4,0.6-1,1.1-2,1.1c-1.1,0-2.2-0.8-2.2-2.1c0-2,1.6-2.5,3.8-2.5h0.4v-0.3c0-0.7-0.4-1.4-1.3-1.4
		c-0.9,0-1.6,0.4-2,0.7L137.7,291.1z M141.1,294.4H141c-1.5,0-2.4,0.3-2.4,1.4c0,0.7,0.4,1.1,1.1,1.1c1,0,1.4-0.8,1.4-2.1V294.4z"/>
	<path class="st6" d="M144.4,291.9c0-0.4,0-0.9-0.1-1.2h1.6c0,0.4,0.1,0.9,0.1,1.3l0,0c0.2-0.6,0.8-1.4,1.8-1.4c0.1,0,0.2,0,0.3,0
		v1.6c-0.2,0-0.3-0.1-0.5-0.1c-0.7,0-1.5,0.4-1.5,1.8v4h-1.7L144.4,291.9L144.4,291.9z"/>
	<path class="st6" d="M154,297.7c-0.4,0.2-1,0.3-1.7,0.3c-2.4,0-3.4-1.7-3.4-3.7c0-2.1,1.1-3.7,3.5-3.7c0.5,0,1.2,0.2,1.5,0.3
		l-0.1,1.4c-0.3-0.2-0.7-0.3-1.2-0.3c-1.3,0-1.9,0.9-1.9,2.4c0,1.3,0.6,2.4,2,2.4c0.4,0,1-0.2,1.2-0.4L154,297.7z"/>
	<path class="st6" d="M155.1,287.4h1.7v4.2l0,0c0.3-0.4,0.7-1,1.8-1c1.6,0,2.1,1.2,2.1,2.7v4.7H159v-4.3c0-1.1-0.3-1.6-1-1.6
		c-0.9,0-1.2,0.8-1.2,1.7v4.2h-1.7V287.4L155.1,287.4z"/>
	<path class="st6" d="M169.8,288c2,0,3.9,1.5,3.9,5s-1.9,5-3.9,5s-3.9-1.5-3.9-5C165.9,289.5,167.7,288,169.8,288z M169.8,296.7
		c1.1,0,2-1,2-3.7s-0.9-3.7-2-3.7s-2,1-2,3.7S168.6,296.7,169.8,296.7z"/>
	<path class="st6" d="M175.1,291.9c0-0.4,0-0.9-0.1-1.2h1.6c0,0.4,0.1,0.9,0.1,1.3l0,0c0.2-0.6,0.8-1.4,1.8-1.4c0.1,0,0.2,0,0.3,0
		v1.6c-0.2,0-0.3-0.1-0.5-0.1c-0.7,0-1.5,0.4-1.5,1.8v4h-1.7L175.1,291.9L175.1,291.9z"/>
	<path class="st6" d="M180.1,299c0.4,0.2,1.2,0.6,2.1,0.6c1.6,0,1.9-1.1,1.9-2.3v-0.7l0,0c-0.3,0.6-0.8,1.2-1.9,1.2
		c-1,0-2.5-0.7-2.5-3.6c0-2,0.7-3.7,2.6-3.7c1.1,0,1.5,0.6,1.9,1.2h0.1c0-0.4,0-0.7,0.1-1.1h1.6c0,0.4-0.1,0.8-0.1,1.1v5.3
		c0,2.3-0.7,3.9-3.3,3.9c-1.1,0-2.1-0.3-2.5-0.4L180.1,299z M182.6,296.6c1.1,0,1.5-0.8,1.5-2.4c0-1.5-0.6-2.3-1.4-2.3
		c-0.9,0-1.3,0.9-1.3,2.3C181.5,295.9,182,296.6,182.6,296.6z"/>
	<path class="st6" d="M187.7,291.1c0.5-0.2,1.2-0.5,2.3-0.5c2.2,0,2.8,1.1,2.8,2.9v3.2c0,0.5,0.1,1,0.1,1.3h-1.6
		c-0.1-0.3-0.1-0.6-0.1-1l0,0c-0.4,0.6-1,1.1-2,1.1c-1.1,0-2.2-0.8-2.2-2.1c0-2,1.6-2.5,3.8-2.5h0.4v-0.3c0-0.7-0.4-1.4-1.3-1.4
		c-0.9,0-1.6,0.4-2,0.7L187.7,291.1z M191.2,294.4H191c-1.5,0-2.4,0.3-2.4,1.4c0,0.7,0.4,1.1,1.1,1.1c1,0,1.4-0.8,1.4-2.1
		L191.2,294.4L191.2,294.4z"/>
	<path class="st6" d="M194.4,291.9c0-0.4,0-0.9-0.1-1.2h1.6c0,0.4,0.1,0.7,0.1,1.1l0,0c0.3-0.4,0.7-1.2,1.9-1.2
		c1.6,0,2.1,1.2,2.1,2.7v4.7h-1.7v-4.3c0-1.1-0.3-1.6-1-1.6c-0.9,0-1.2,0.8-1.2,1.7v4.2h-1.7L194.4,291.9L194.4,291.9z"/>
	<path class="st6" d="M201.8,287.6h1.8v1.7h-1.8V287.6z M201.8,290.7h1.7v7.2h-1.7V290.7z"/>
	<path class="st6" d="M204.9,296.4l3.1-4.4h-3v-1.3h4.7v1.5l-3,4.4h3.1v1.3h-4.9L204.9,296.4L204.9,296.4z"/>
	<path class="st6" d="M211.3,291.1c0.5-0.2,1.2-0.5,2.3-0.5c2.2,0,2.8,1.1,2.8,2.9v3.2c0,0.5,0.1,1,0.1,1.3h-1.6
		c-0.1-0.3-0.1-0.6-0.1-1l0,0c-0.4,0.6-1,1.1-2,1.1c-1.1,0-2.2-0.8-2.2-2.1c0-2,1.6-2.5,3.8-2.5h0.4v-0.3c0-0.7-0.4-1.4-1.3-1.4
		c-0.9,0-1.6,0.4-2,0.7L211.3,291.1z M214.8,294.4h-0.2c-1.5,0-2.4,0.3-2.4,1.4c0,0.7,0.4,1.1,1.1,1.1c1,0,1.4-0.8,1.4-2.1
		L214.8,294.4L214.8,294.4z"/>
	<path class="st6" d="M218.6,289.2l1.7-0.5v2h1.4v1.3h-1.4v3.7c0,0.8,0.3,1,0.8,1c0.3,0,0.5-0.1,0.7-0.2v1.2
		c-0.3,0.1-0.6,0.2-1.2,0.2c-1.3,0-2-0.6-2-2.1V292h-1.1v-1.3h1.1V289.2z"/>
	<path class="st6" d="M223.1,287.6h1.8v1.7h-1.8V287.6z M223.1,290.7h1.7v7.2h-1.7V290.7z"/>
	<path class="st6" d="M229.5,290.6c1.5,0,3.2,0.8,3.2,3.7c0,3-1.7,3.7-3.2,3.7s-3.2-0.7-3.2-3.7
		C226.4,291.3,228.1,290.6,229.5,290.6z M229.5,296.8c1.1,0,1.4-1.3,1.4-2.5s-0.3-2.5-1.4-2.5s-1.4,1.3-1.4,2.5
		C228.2,295.5,228.4,296.8,229.5,296.8z"/>
	<path class="st6" d="M234.1,291.9c0-0.4,0-0.9-0.1-1.2h1.6c0,0.4,0.1,0.7,0.1,1.1l0,0c0.3-0.4,0.7-1.2,1.9-1.2
		c1.6,0,2.1,1.2,2.1,2.7v4.7H238v-4.3c0-1.1-0.3-1.6-1-1.6c-0.9,0-1.2,0.8-1.2,1.7v4.2h-1.7V291.9z"/>
	<path class="st6" d="M248,290.6c1.5,0,3.2,0.8,3.2,3.7c0,3-1.7,3.7-3.2,3.7s-3.2-0.7-3.2-3.7C244.8,291.3,246.5,290.6,248,290.6z
		 M248,296.8c1.1,0,1.4-1.3,1.4-2.5s-0.3-2.5-1.4-2.5s-1.4,1.3-1.4,2.5S246.8,296.8,248,296.8z"/>
	<path class="st6" d="M253.1,292h-1.2v-1.3h1.2v-1.5c0-1,0.5-2,2.1-2c0.5,0,0.9,0.1,1.2,0.2l-0.1,1.3c-0.2-0.1-0.4-0.1-0.7-0.1
		c-0.5,0-0.8,0.3-0.8,0.9v1.2h1.3v1.3h-1.3v5.9h-1.7V292z"/>
	<path class="st6" d="M261.1,288.1h1.8v9.8h-1.8V288.1z"/>
	<path class="st6" d="M264.7,291.9c0-0.4,0-0.9-0.1-1.2h1.6c0,0.4,0.1,0.7,0.1,1.1l0,0c0.3-0.4,0.7-1.2,1.9-1.2
		c1.6,0,2.1,1.2,2.1,2.7v4.7h-1.7v-4.3c0-1.1-0.3-1.6-1-1.6c-0.9,0-1.2,0.8-1.2,1.7v4.2h-1.7L264.7,291.9L264.7,291.9z"/>
	<path class="st6" d="M272.5,292h-1.2v-1.3h1.2v-1.5c0-1,0.5-2,2.1-2c0.5,0,0.9,0.1,1.2,0.2l-0.1,1.3c-0.2-0.1-0.4-0.1-0.7-0.1
		c-0.5,0-0.8,0.3-0.8,0.9v1.2h1.3v1.3h-1.3v5.9h-1.7V292z"/>
	<path class="st6" d="M279.6,290.6c1.5,0,3.2,0.8,3.2,3.7c0,3-1.7,3.7-3.2,3.7s-3.2-0.7-3.2-3.7
		C276.4,291.3,278.1,290.6,279.6,290.6z M279.6,296.8c1.1,0,1.4-1.3,1.4-2.5s-0.3-2.5-1.4-2.5s-1.4,1.3-1.4,2.5
		S278.5,296.8,279.6,296.8z"/>
	<path class="st6" d="M284.2,291.9c0-0.4,0-0.9-0.1-1.2h1.6c0,0.4,0.1,0.9,0.1,1.3l0,0c0.2-0.6,0.8-1.4,1.8-1.4c0.1,0,0.2,0,0.3,0
		v1.6c-0.2,0-0.3-0.1-0.5-0.1c-0.7,0-1.5,0.4-1.5,1.8v4h-1.7L284.2,291.9L284.2,291.9z"/>
	<path class="st6" d="M289,291.9c0-0.5,0-0.9-0.1-1.2h1.7c0,0.4,0.1,0.8,0.1,1.1l0,0c0.3-0.6,0.8-1.2,1.8-1.2c1.2,0,1.6,0.8,1.8,1.1
		c0.4-0.5,0.9-1.1,1.9-1.1c1.6,0,2.1,1.1,2.1,2.9v4.5h-1.7v-4.6c0-0.9-0.3-1.3-0.9-1.3c-0.8,0-1.2,0.7-1.2,1.5v4.4h-1.7v-4.6
		c0-0.9-0.3-1.3-0.9-1.3c-0.8,0-1.2,0.7-1.2,1.5v4.4H289V291.9z"/>
	<path class="st6" d="M300.3,291.1c0.5-0.2,1.2-0.5,2.3-0.5c2.2,0,2.8,1.1,2.8,2.9v3.2c0,0.5,0.1,1,0.1,1.3h-1.6
		c-0.1-0.3-0.1-0.6-0.1-1l0,0c-0.4,0.6-1,1.1-2,1.1c-1.1,0-2.2-0.8-2.2-2.1c0-2,1.6-2.5,3.8-2.5h0.4v-0.3c0-0.7-0.4-1.4-1.3-1.4
		s-1.6,0.4-2,0.7L300.3,291.1z M303.7,294.4h-0.2c-1.5,0-2.4,0.3-2.4,1.4c0,0.7,0.4,1.1,1.1,1.1c1,0,1.4-0.8,1.4-2.1v-0.4H303.7z"/>
	<path class="st6" d="M307.6,289.2l1.7-0.5v2h1.4v1.3h-1.4v3.7c0,0.8,0.3,1,0.8,1c0.3,0,0.5-0.1,0.7-0.2v1.2
		c-0.3,0.1-0.6,0.2-1.2,0.2c-1.3,0-2-0.6-2-2.1V292h-1.1v-1.3h1.1V289.2z"/>
	<path class="st6" d="M312,287.6h1.8v1.7H312V287.6z M312.1,290.7h1.7v7.2h-1.7V290.7z"/>
	<path class="st6" d="M318.5,290.6c1.5,0,3.2,0.8,3.2,3.7c0,3-1.7,3.7-3.2,3.7s-3.2-0.7-3.2-3.7C315.3,291.3,317,290.6,318.5,290.6z
		 M318.5,296.8c1.1,0,1.4-1.3,1.4-2.5s-0.3-2.5-1.4-2.5s-1.4,1.3-1.4,2.5S317.4,296.8,318.5,296.8z"/>
	<path class="st6" d="M323,291.9c0-0.4,0-0.9-0.1-1.2h1.6c0,0.4,0.1,0.7,0.1,1.1l0,0c0.3-0.4,0.7-1.2,1.9-1.2c1.6,0,2.1,1.2,2.1,2.7
		v4.7H327v-4.3c0-1.1-0.3-1.6-1-1.6c-0.9,0-1.2,0.8-1.2,1.7v4.2H323V291.9z"/>
	<path class="st6" d="M334.3,291.1c0.5-0.2,1.2-0.5,2.3-0.5c2.2,0,2.8,1.1,2.8,2.9v3.2c0,0.5,0.1,1,0.1,1.3h-1.6
		c-0.1-0.3-0.1-0.6-0.1-1l0,0c-0.4,0.6-1,1.1-2,1.1c-1.1,0-2.2-0.8-2.2-2.1c0-2,1.6-2.5,3.8-2.5h0.4v-0.3c0-0.7-0.4-1.4-1.3-1.4
		s-1.6,0.4-2,0.7L334.3,291.1z M337.7,294.4h-0.2c-1.5,0-2.4,0.3-2.4,1.4c0,0.7,0.4,1.1,1.1,1.1c1,0,1.4-0.8,1.4-2.1v-0.4H337.7z"/>
	<path class="st6" d="M340.9,291.9c0-0.4,0-0.9-0.1-1.2h1.6c0,0.4,0.1,0.7,0.1,1.1l0,0c0.3-0.4,0.7-1.2,1.9-1.2
		c1.6,0,2.1,1.2,2.1,2.7v4.7h-1.7v-4.3c0-1.1-0.3-1.6-1-1.6c-0.9,0-1.2,0.8-1.2,1.7v4.2h-1.7L340.9,291.9L340.9,291.9z"/>
	<path class="st6" d="M354.1,287.4v9.3c0,0.5,0,1,0.1,1.2h-1.6c0-0.2-0.1-0.6-0.1-1.1l0,0c-0.3,0.6-0.8,1.2-1.9,1.2
		c-1.8,0-2.5-1.7-2.5-3.7c0-2.4,0.9-3.7,2.5-3.7c1,0,1.6,0.6,1.9,1.1l0,0v-4.3H354.1z M351,296.7c1,0,1.4-1.1,1.4-2.5
		s-0.4-2.4-1.3-2.4c-1,0-1.3,0.9-1.3,2.4C349.8,295.9,350,296.7,351,296.7z"/>
	<path class="st6" d="M359.5,296c0.3,0.2,1.1,0.6,2.1,0.6c0.8,0,1.5-0.4,1.5-1.4c0-0.7-0.4-1-1.3-1.5l-0.9-0.5
		c-1-0.5-1.6-1.3-1.6-2.6c0-1.8,1.4-2.7,3.1-2.7c1,0,1.8,0.3,2,0.3l-0.1,1.5c-0.4-0.2-1-0.4-1.8-0.4c-0.9,0-1.4,0.5-1.4,1.1
		c0,0.7,0.5,1,1,1.3l1.1,0.6c1.1,0.6,1.7,1.3,1.7,2.6c0,2-1.4,2.9-3.3,2.9c-1,0-1.7-0.1-2.2-0.4L359.5,296z"/>
	<path class="st6" d="M368.9,296.1L368.9,296.1l1.4-5.4h1.7l-2.6,8.6c-0.3,1-0.9,1.7-2.1,1.7c-0.5,0-0.9-0.1-1.1-0.2l0.1-1.3
		c0.2,0.1,0.4,0.1,0.7,0.1c0.5,0,0.7-0.3,1-1.1l0.1-0.6l-2.4-7.3h1.8L368.9,296.1z"/>
	<path class="st6" d="M372.7,296.2c0.3,0.1,1,0.5,1.8,0.5c0.6,0,1.1-0.2,1.1-0.7c0-0.3-0.1-0.5-0.8-0.9l-0.7-0.4
		c-0.7-0.4-1.5-0.9-1.5-2c0-1,1-2,2.5-2c0.9,0,1.6,0.2,1.8,0.3l-0.1,1.3c-0.4-0.2-0.9-0.3-1.5-0.3c-0.7,0-1,0.3-1,0.7
		c0,0.4,0.3,0.6,0.8,0.9l0.9,0.5c0.9,0.6,1.3,1,1.3,1.8c0,1.3-1.1,2.1-2.7,2.1c-0.9,0-1.6-0.2-2-0.4L372.7,296.2z"/>
	<path class="st6" d="M379.2,289.2l1.7-0.5v2h1.4v1.3h-1.4v3.7c0,0.8,0.3,1,0.8,1c0.3,0,0.5-0.1,0.7-0.2v1.2
		c-0.3,0.1-0.6,0.2-1.2,0.2c-1.3,0-2-0.6-2-2.1V292H378v-1.3h1.1v-1.5H379.2z"/>
	<path class="st6" d="M388.8,297.5c-0.4,0.2-1.1,0.5-2.2,0.5c-2.3,0-3.3-1.7-3.3-3.6c0-2.2,1.1-3.8,3-3.8c1.6,0,2.9,0.9,2.9,3.9v0.3
		H385c0,1.2,0.5,2,1.8,2c1.1,0,1.6-0.3,1.9-0.6L388.8,297.5z M387.5,293.7c0-1.3-0.4-1.9-1.2-1.9c-0.9,0-1.3,1-1.3,1.9H387.5z"/>
	<path class="st6" d="M390.4,291.9c0-0.5,0-0.9-0.1-1.2h1.7c0,0.4,0.1,0.8,0.1,1.1l0,0c0.3-0.6,0.8-1.2,1.8-1.2
		c1.2,0,1.6,0.8,1.8,1.1c0.3-0.5,0.9-1.1,1.9-1.1c1.6,0,2.1,1.1,2.1,2.9v4.5H398v-4.6c0-0.9-0.3-1.3-0.9-1.3c-0.8,0-1.2,0.7-1.2,1.5
		v4.4h-1.7v-4.6c0-0.9-0.3-1.3-0.9-1.3c-0.8,0-1.2,0.7-1.2,1.5v4.4h-1.7L390.4,291.9L390.4,291.9z"/>
	<path class="st6" d="M401.2,296.2c0.3,0.1,1,0.5,1.8,0.5c0.6,0,1.1-0.2,1.1-0.7c0-0.3-0.1-0.5-0.8-0.9l-0.7-0.4
		c-0.7-0.4-1.5-0.9-1.5-2c0-1,1-2,2.5-2c0.9,0,1.6,0.2,1.8,0.3l-0.1,1.3c-0.4-0.2-0.9-0.3-1.5-0.3c-0.7,0-1,0.3-1,0.7
		c0,0.4,0.3,0.6,0.8,0.9l0.9,0.5c0.9,0.6,1.3,1,1.3,1.8c0,1.3-1.1,2.1-2.7,2.1c-0.9,0-1.6-0.2-2-0.4L401.2,296.2z"/>
</g>
<g>
	<path class="st8" d="M216,254c-0.4,0.2-1.2,0.4-2.1,0.4c-3,0-4.5-2.2-4.5-5s1.5-5,4.4-5c1,0,1.8,0.3,2.2,0.4l-0.1,1.6
		c-0.4-0.2-0.9-0.5-1.8-0.5c-1.5,0-2.8,1-2.8,3.5s1.3,3.5,2.8,3.5c0.9,0,1.4-0.2,1.8-0.5L216,254z"/>
	<path class="st8" d="M220.3,246.9c1.5,0,3.2,0.8,3.2,3.7c0,3-1.7,3.7-3.2,3.7s-3.2-0.7-3.2-3.7
		C217.1,247.7,218.8,246.9,220.3,246.9z M220.3,253.1c1.1,0,1.4-1.3,1.4-2.5s-0.3-2.5-1.4-2.5s-1.4,1.3-1.4,2.5
		C218.9,251.8,219.2,253.1,220.3,253.1z"/>
	<path class="st8" d="M227.8,246.9c1.5,0,3.2,0.8,3.2,3.7c0,3-1.7,3.7-3.2,3.7s-3.2-0.7-3.2-3.7
		C224.7,247.7,226.4,246.9,227.8,246.9z M227.8,253.1c1.1,0,1.4-1.3,1.4-2.5s-0.3-2.5-1.4-2.5s-1.4,1.3-1.4,2.5
		C226.4,251.8,226.7,253.1,227.8,253.1z"/>
	<path class="st8" d="M232.4,248.3c0-0.5,0-1-0.1-1.2h1.6c0,0.2,0.1,0.6,0.1,1.1l0,0c0.3-0.6,0.8-1.2,1.9-1.2c1.8,0,2.5,1.7,2.5,3.7
		c0,2.4-0.9,3.7-2.5,3.7c-1,0-1.6-0.6-1.9-1.1l0,0v4.1h-1.7L232.4,248.3L232.4,248.3z M235.5,253.1c1,0,1.3-0.9,1.3-2.4
		c0-1.7-0.3-2.5-1.3-2.5s-1.4,1.1-1.4,2.5S234.5,253.1,235.5,253.1z"/>
	<path class="st8" d="M245.2,253.9c-0.4,0.2-1.1,0.5-2.2,0.5c-2.3,0-3.3-1.7-3.3-3.6c0-2.2,1.1-3.8,3-3.8c1.6,0,2.9,0.9,2.9,3.9v0.3
		h-4.2c0,1.2,0.5,2,1.8,2c1.1,0,1.6-0.3,1.9-0.6L245.2,253.9z M243.9,250c0-1.3-0.4-1.9-1.2-1.9c-0.9,0-1.3,1-1.3,1.9H243.9z"/>
	<path class="st8" d="M246.9,248.2c0-0.4,0-0.9-0.1-1.2h1.6c0,0.4,0.1,0.9,0.1,1.3l0,0c0.2-0.6,0.8-1.4,1.8-1.4c0.1,0,0.2,0,0.3,0
		v1.6c-0.2,0-0.3-0.1-0.5-0.1c-0.7,0-1.5,0.4-1.5,1.8v4h-1.7L246.9,248.2L246.9,248.2z"/>
	<path class="st8" d="M252,247.5c0.5-0.2,1.2-0.5,2.3-0.5c2.2,0,2.8,1.1,2.8,2.9v3.2c0,0.5,0.1,1,0.1,1.3h-1.6
		c-0.1-0.3-0.1-0.6-0.1-1l0,0c-0.4,0.6-1,1.1-2,1.1c-1.1,0-2.2-0.8-2.2-2.1c0-2,1.6-2.5,3.8-2.5h0.4v-0.3c0-0.7-0.4-1.4-1.3-1.4
		c-0.9,0-1.6,0.4-2,0.7L252,247.5z M255.4,250.7h-0.2c-1.5,0-2.4,0.3-2.4,1.4c0,0.7,0.4,1.1,1.1,1.1c1,0,1.4-0.8,1.4-2.1
		L255.4,250.7L255.4,250.7z"/>
	<path class="st8" d="M259.3,245.6l1.7-0.5v2h1.4v1.3H261v3.7c0,0.8,0.3,1,0.8,1c0.3,0,0.5-0.1,0.7-0.2v1.2
		c-0.3,0.1-0.6,0.2-1.2,0.2c-1.3,0-2-0.6-2-2.1v-3.9h-1.1V247h1.1V245.6z"/>
	<path class="st8" d="M263.7,244h1.8v1.7h-1.8V244z M263.8,247h1.7v7.2h-1.7V247z"/>
	<path class="st8" d="M270.2,246.9c1.5,0,3.2,0.8,3.2,3.7c0,3-1.7,3.7-3.2,3.7s-3.2-0.7-3.2-3.7C267,247.7,268.8,246.9,270.2,246.9z
		 M270.2,253.1c1.1,0,1.4-1.3,1.4-2.5s-0.3-2.5-1.4-2.5s-1.4,1.3-1.4,2.5C268.8,251.8,269.1,253.1,270.2,253.1z"/>
	<path class="st8" d="M274.8,248.2c0-0.4,0-0.9-0.1-1.2h1.6c0,0.4,0.1,0.7,0.1,1.1l0,0c0.3-0.4,0.7-1.2,1.9-1.2
		c1.6,0,2.1,1.2,2.1,2.7v4.7h-1.7V250c0-1.1-0.3-1.6-1-1.6c-0.9,0-1.2,0.8-1.2,1.7v4.2h-1.7L274.8,248.2L274.8,248.2z"/>
</g>
<g>
	<path class="st8" d="M439.8,254c-0.4,0.2-1.2,0.4-2.1,0.4c-3,0-4.5-2.2-4.5-5s1.5-5,4.4-5c1,0,1.8,0.3,2.2,0.4l-0.1,1.6
		c-0.4-0.2-0.9-0.5-1.8-0.5c-1.5,0-2.8,1-2.8,3.5s1.3,3.5,2.8,3.5c0.9,0,1.4-0.2,1.8-0.5L439.8,254z"/>
	<path class="st8" d="M444.1,246.9c1.5,0,3.2,0.8,3.2,3.7c0,3-1.7,3.7-3.2,3.7s-3.2-0.7-3.2-3.7
		C440.9,247.7,442.7,246.9,444.1,246.9z M444.1,253.1c1.1,0,1.4-1.3,1.4-2.5s-0.3-2.5-1.4-2.5s-1.4,1.3-1.4,2.5
		S443,253.1,444.1,253.1z"/>
	<path class="st8" d="M448.8,243.7h1.7v10.5h-1.7V243.7z"/>
	<path class="st8" d="M452.5,243.7h1.7v10.5h-1.7V243.7z"/>
	<path class="st8" d="M456.3,247.5c0.5-0.2,1.2-0.5,2.3-0.5c2.2,0,2.8,1.1,2.8,2.9v3.2c0,0.5,0.1,1,0.1,1.3h-1.6
		c-0.1-0.3-0.1-0.6-0.1-1l0,0c-0.4,0.6-1,1.1-2,1.1c-1.1,0-2.2-0.8-2.2-2.1c0-2,1.6-2.5,3.8-2.5h0.3v-0.3c0-0.7-0.3-1.4-1.3-1.4
		c-0.9,0-1.6,0.4-2,0.7L456.3,247.5z M459.7,250.7h-0.2c-1.5,0-2.4,0.3-2.4,1.4c0,0.7,0.4,1.1,1.1,1.1c1,0,1.4-0.8,1.4-2.1v-0.4
		H459.7z"/>
	<path class="st8" d="M464.7,243.7v4.3l0,0c0.3-0.6,0.8-1.1,1.9-1.1c1.6,0,2.5,1.4,2.5,3.7c0,2-0.7,3.7-2.5,3.7
		c-1.1,0-1.6-0.6-1.9-1.2l0,0c0,0.5,0,0.9-0.1,1.1H463c0-0.3,0.1-0.7,0.1-1.2v-9.3H464.7z M466.1,253.1c1,0,1.3-0.8,1.3-2.5
		c0-1.4-0.3-2.4-1.3-2.4s-1.3,1-1.3,2.4C464.7,252,465.1,253.1,466.1,253.1z"/>
	<path class="st8" d="M473.4,246.9c1.5,0,3.2,0.8,3.2,3.7c0,3-1.7,3.7-3.2,3.7s-3.2-0.7-3.2-3.7C470.3,247.7,472,246.9,473.4,246.9z
		 M473.4,253.1c1.1,0,1.4-1.3,1.4-2.5s-0.3-2.5-1.4-2.5s-1.4,1.3-1.4,2.5C472.1,251.8,472.3,253.1,473.4,253.1z"/>
	<path class="st8" d="M478,248.2c0-0.4,0-0.9-0.1-1.2h1.6c0,0.4,0.1,0.9,0.1,1.3l0,0c0.2-0.6,0.8-1.4,1.8-1.4c0.1,0,0.2,0,0.3,0v1.6
		c-0.2,0-0.3-0.1-0.5-0.1c-0.7,0-1.5,0.4-1.5,1.8v4H478V248.2z"/>
	<path class="st8" d="M483.1,247.5c0.5-0.2,1.2-0.5,2.3-0.5c2.2,0,2.8,1.1,2.8,2.9v3.2c0,0.5,0.1,1,0.1,1.3h-1.6
		c-0.1-0.3-0.1-0.6-0.1-1l0,0c-0.4,0.6-1,1.1-2,1.1c-1.1,0-2.2-0.8-2.2-2.1c0-2,1.6-2.5,3.8-2.5h0.4v-0.3c0-0.7-0.4-1.4-1.3-1.4
		s-1.6,0.4-2,0.7L483.1,247.5z M486.5,250.7h-0.2c-1.5,0-2.4,0.3-2.4,1.4c0,0.7,0.4,1.1,1.1,1.1c1,0,1.4-0.8,1.4-2.1v-0.4H486.5z"/>
	<path class="st8" d="M490.4,245.6l1.7-0.5v2h1.4v1.3h-1.4v3.7c0,0.8,0.3,1,0.8,1c0.3,0,0.5-0.1,0.7-0.2v1.2
		c-0.3,0.1-0.6,0.2-1.2,0.2c-1.3,0-2-0.6-2-2.1v-3.9h-1.1V247h1.1V245.6z"/>
	<path class="st8" d="M494.8,244h1.8v1.7h-1.8V244z M494.9,247h1.7v7.2h-1.7V247z"/>
	<path class="st8" d="M497.7,247h1.8l1.5,5.6l0,0l1.5-5.6h1.7l-2.2,7.2h-2L497.7,247z"/>
	<path class="st8" d="M510.4,253.9c-0.4,0.2-1.1,0.5-2.2,0.5c-2.3,0-3.3-1.7-3.3-3.6c0-2.2,1.1-3.8,3-3.8c1.6,0,2.9,0.9,2.9,3.9v0.3
		h-4.2c0,1.2,0.5,2,1.8,2c1.1,0,1.6-0.3,1.9-0.6L510.4,253.9z M509,250c0-1.3-0.4-1.9-1.2-1.9c-0.9,0-1.3,1-1.3,1.9H509z"/>
	<path class="st8" d="M515.9,244.5h3.1c1.7,0,2.9,0.8,2.9,2.6c0,1.3-0.8,2.1-1.9,2.3l0,0c0.4,0.1,0.8,0.2,1.1,1.1l1.3,3.7h-1.9
		l-1-3.2c-0.2-0.8-0.7-1-1.4-1h-0.4v4.2h-1.8L515.9,244.5L515.9,244.5z M518.4,248.7c1,0,1.6-0.5,1.6-1.5c0-1.1-0.6-1.4-1.6-1.4
		h-0.7v2.9H518.4z"/>
	<path class="st8" d="M528.8,253.9c-0.4,0.2-1.1,0.5-2.2,0.5c-2.3,0-3.3-1.7-3.3-3.6c0-2.2,1.1-3.8,3-3.8c1.6,0,2.9,0.9,2.9,3.9v0.3
		H525c0,1.2,0.5,2,1.8,2c1.1,0,1.6-0.3,1.9-0.6L528.8,253.9z M527.5,250c0-1.3-0.4-1.9-1.2-1.9c-0.9,0-1.3,1-1.3,1.9H527.5z"/>
	<path class="st8" d="M530.3,252.6c0.3,0.1,1,0.5,1.8,0.5c0.6,0,1.1-0.2,1.1-0.7c0-0.3-0.1-0.5-0.8-0.9l-0.7-0.4
		c-0.7-0.4-1.5-0.9-1.5-2c0-1,1-2,2.5-2c0.9,0,1.6,0.2,1.8,0.3l-0.1,1.3c-0.4-0.2-0.9-0.3-1.5-0.3c-0.7,0-1,0.3-1,0.7
		s0.3,0.6,0.8,0.9l0.9,0.5c0.9,0.6,1.3,1,1.3,1.8c0,1.3-1.1,2.1-2.7,2.1c-0.9,0-1.6-0.2-2-0.4L530.3,252.6z"/>
	<path class="st8" d="M541.5,253.9c-0.4,0.2-1.1,0.5-2.2,0.5c-2.3,0-3.3-1.7-3.3-3.6c0-2.2,1.1-3.8,3-3.8c1.6,0,2.9,0.9,2.9,3.9v0.3
		h-4.2c0,1.2,0.5,2,1.8,2c1.1,0,1.6-0.3,1.9-0.6L541.5,253.9z M540.2,250c0-1.3-0.4-1.9-1.2-1.9c-0.9,0-1.3,1-1.3,1.9H540.2z"/>
	<path class="st8" d="M543.5,247.5c0.5-0.2,1.2-0.5,2.3-0.5c2.2,0,2.8,1.1,2.8,2.9v3.2c0,0.5,0.1,1,0.1,1.3h-1.6
		c-0.1-0.3-0.1-0.6-0.1-1l0,0c-0.4,0.6-1,1.1-2,1.1c-1.1,0-2.2-0.8-2.2-2.1c0-2,1.6-2.5,3.8-2.5h0.3v-0.3c0-0.7-0.3-1.4-1.3-1.4
		c-0.9,0-1.6,0.4-2,0.7L543.5,247.5z M547,250.7h-0.2c-1.5,0-2.4,0.3-2.4,1.4c0,0.7,0.4,1.1,1.1,1.1c1,0,1.4-0.8,1.4-2.1v-0.4H547z"
		/>
	<path class="st8" d="M550.2,248.2c0-0.4,0-0.9-0.1-1.2h1.6c0,0.4,0.1,0.9,0.1,1.3l0,0c0.2-0.6,0.8-1.4,1.8-1.4c0.1,0,0.2,0,0.3,0
		v1.6c-0.2,0-0.3-0.1-0.5-0.1c-0.7,0-1.5,0.4-1.5,1.8v4h-1.7L550.2,248.2L550.2,248.2z"/>
	<path class="st8" d="M559.9,254.1c-0.4,0.2-1,0.3-1.7,0.3c-2.4,0-3.4-1.7-3.4-3.7c0-2.1,1.1-3.7,3.5-3.7c0.5,0,1.2,0.2,1.5,0.3
		l-0.1,1.4c-0.3-0.2-0.7-0.3-1.2-0.3c-1.3,0-1.9,0.9-1.9,2.4c0,1.3,0.6,2.4,2,2.4c0.4,0,1-0.2,1.2-0.4L559.9,254.1z"/>
	<path class="st8" d="M560.9,243.7h1.7v4.2l0,0c0.3-0.4,0.7-1,1.8-1c1.6,0,2.1,1.2,2.1,2.7v4.7h-1.7V250c0-1.1-0.3-1.6-1-1.6
		c-0.9,0-1.2,0.8-1.2,1.7v4.2h-1.7L560.9,243.7L560.9,243.7z"/>
</g>
<g>
	<path class="st6" d="M562.1,288.1v6.9c0,2.1-1.1,3-2.4,3c-0.4,0-1-0.1-1.3-0.2v-1.5c0.2,0.1,0.4,0.2,0.8,0.2c0.9,0,1.1-0.6,1.1-1.4
		v-6.9h1.8L562.1,288.1L562.1,288.1z"/>
	<path class="st6" d="M563.8,291.1c0.5-0.2,1.2-0.5,2.3-0.5c2.2,0,2.8,1.1,2.8,2.9v3.2c0,0.5,0.1,1,0.1,1.3h-1.6
		c-0.1-0.3-0.1-0.6-0.1-1l0,0c-0.4,0.6-1,1.1-2,1.1c-1.1,0-2.2-0.8-2.2-2.1c0-2,1.6-2.5,3.8-2.5h0.4v-0.3c0-0.7-0.4-1.4-1.3-1.4
		c-0.9,0-1.6,0.4-2,0.7L563.8,291.1z M567.2,294.4H567c-1.5,0-2.4,0.3-2.4,1.4c0,0.7,0.4,1.1,1.1,1.1c1,0,1.4-0.8,1.4-2.1v-0.4
		H567.2z"/>
	<path class="st6" d="M570.5,291.9c0-0.5,0-1-0.1-1.2h1.6c0,0.2,0.1,0.6,0.1,1.1l0,0c0.3-0.6,0.8-1.2,1.9-1.2c1.8,0,2.5,1.7,2.5,3.7
		c0,2.4-0.9,3.7-2.5,3.7c-1,0-1.6-0.6-1.9-1.1l0,0v4.1h-1.7v-9.1H570.5z M573.5,296.7c1,0,1.3-0.9,1.3-2.4c0-1.7-0.3-2.5-1.3-2.5
		s-1.4,1.1-1.4,2.5C572.2,295.7,572.6,296.7,573.5,296.7z"/>
	<path class="st6" d="M578.3,291.1c0.5-0.2,1.2-0.5,2.3-0.5c2.2,0,2.8,1.1,2.8,2.9v3.2c0,0.5,0.1,1,0.1,1.3h-1.6
		c-0.1-0.3-0.1-0.6-0.1-1l0,0c-0.4,0.6-1,1.1-2,1.1c-1.1,0-2.2-0.8-2.2-2.1c0-2,1.6-2.5,3.8-2.5h0.4v-0.3c0-0.7-0.4-1.4-1.3-1.4
		c-0.9,0-1.6,0.4-2,0.7L578.3,291.1z M581.7,294.4h-0.2c-1.5,0-2.4,0.3-2.4,1.4c0,0.7,0.4,1.1,1.1,1.1c1,0,1.4-0.8,1.4-2.1v-0.4
		H581.7z"/>
	<path class="st6" d="M584.9,291.9c0-0.4,0-0.9-0.1-1.2h1.6c0,0.4,0.1,0.7,0.1,1.1l0,0c0.3-0.4,0.7-1.2,1.9-1.2
		c1.6,0,2.1,1.2,2.1,2.7v4.7h-1.7v-4.3c0-1.1-0.3-1.6-1-1.6c-0.9,0-1.2,0.8-1.2,1.7v4.2h-1.7L584.9,291.9L584.9,291.9z"/>
	<path class="st6" d="M596,296c0.4,0.2,1.1,0.6,2.1,0.6c0.8,0,1.5-0.4,1.5-1.4c0-0.7-0.4-1-1.3-1.5l-0.9-0.5c-1-0.5-1.6-1.3-1.6-2.6
		c0-1.8,1.4-2.7,3.1-2.7c1,0,1.8,0.3,2,0.4l-0.1,1.5c-0.4-0.2-1-0.4-1.8-0.4c-0.9,0-1.4,0.5-1.4,1.1c0,0.7,0.5,1,1,1.3l1.1,0.6
		c1.1,0.6,1.7,1.3,1.7,2.6c0,2-1.4,2.9-3.3,2.9c-1,0-1.7-0.1-2.2-0.4L596,296z"/>
	<path class="st6" d="M607.8,297.7c-0.4,0.2-1,0.3-1.7,0.3c-2.4,0-3.4-1.7-3.4-3.7c0-2.1,1.1-3.7,3.5-3.7c0.5,0,1.2,0.2,1.5,0.3
		l-0.1,1.4c-0.3-0.2-0.7-0.4-1.2-0.4c-1.3,0-1.9,0.9-1.9,2.4c0,1.3,0.6,2.4,2,2.4c0.4,0,1-0.2,1.2-0.3L607.8,297.7z"/>
	<path class="st6" d="M609,287.6h1.8v1.7H609V287.6z M609,290.7h1.7v7.2H609V290.7z"/>
	<path class="st6" d="M617.7,297.5c-0.4,0.2-1.1,0.5-2.2,0.5c-2.3,0-3.3-1.7-3.3-3.6c0-2.2,1.1-3.8,3-3.8c1.6,0,2.9,0.9,2.9,3.9v0.3
		h-4.2c0,1.2,0.5,2,1.8,2c1.1,0,1.6-0.3,1.9-0.6L617.7,297.5z M616.4,293.7c0-1.3-0.4-1.9-1.2-1.9c-0.9,0-1.3,1-1.3,1.9H616.4z"/>
	<path class="st6" d="M619.5,291.9c0-0.4,0-0.9-0.1-1.2h1.6c0,0.4,0.1,0.7,0.1,1.1l0,0c0.3-0.4,0.7-1.2,1.9-1.2
		c1.6,0,2.1,1.2,2.1,2.7v4.7h-1.7v-4.3c0-1.1-0.3-1.6-1-1.6c-0.9,0-1.2,0.8-1.2,1.7v4.2h-1.7L619.5,291.9L619.5,291.9z"/>
	<path class="st6" d="M631.6,297.7c-0.4,0.2-1,0.3-1.7,0.3c-2.4,0-3.4-1.7-3.4-3.7c0-2.1,1.1-3.7,3.5-3.7c0.5,0,1.2,0.2,1.5,0.3
		l-0.1,1.4c-0.3-0.2-0.7-0.4-1.2-0.4c-1.3,0-1.9,0.9-1.9,2.4c0,1.3,0.6,2.4,2,2.4c0.4,0,1-0.2,1.2-0.3L631.6,297.7z"/>
	<path class="st6" d="M638,297.5c-0.4,0.2-1.1,0.5-2.2,0.5c-2.3,0-3.3-1.7-3.3-3.6c0-2.2,1.1-3.8,3-3.8c1.6,0,2.9,0.9,2.9,3.9v0.3
		h-4.2c0,1.2,0.5,2,1.8,2c1.1,0,1.6-0.3,1.9-0.6L638,297.5z M636.7,293.7c0-1.3-0.4-1.9-1.2-1.9c-0.9,0-1.3,1-1.3,1.9H636.7z"/>
	<path class="st6" d="M643.7,291.1c0.5-0.2,1.2-0.5,2.3-0.5c2.2,0,2.8,1.1,2.8,2.9v3.2c0,0.5,0.1,1,0.1,1.3h-1.6
		c-0.1-0.3-0.1-0.6-0.1-1l0,0c-0.4,0.6-1,1.1-2,1.1c-1.1,0-2.2-0.8-2.2-2.1c0-2,1.6-2.5,3.8-2.5h0.3v-0.3c0-0.7-0.3-1.4-1.3-1.4
		c-0.9,0-1.6,0.4-2,0.7L643.7,291.1z M647.1,294.4h-0.2c-1.5,0-2.4,0.3-2.4,1.4c0,0.7,0.4,1.1,1.1,1.1c1,0,1.4-0.8,1.4-2.1v-0.4
		H647.1z"/>
	<path class="st6" d="M650.3,291.9c0-0.4,0-0.9-0.1-1.2h1.6c0,0.4,0.1,0.7,0.1,1.1l0,0c0.3-0.4,0.7-1.2,1.9-1.2
		c1.6,0,2.1,1.2,2.1,2.7v4.7h-1.7v-4.3c0-1.1-0.3-1.6-1-1.6c-0.9,0-1.2,0.8-1.2,1.7v4.2h-1.7L650.3,291.9L650.3,291.9z"/>
	<path class="st6" d="M663.5,287.4v9.3c0,0.5,0,1,0.1,1.2H662c0-0.2-0.1-0.6-0.1-1.1l0,0c-0.3,0.6-0.8,1.2-1.9,1.2
		c-1.8,0-2.5-1.7-2.5-3.7c0-2.4,0.9-3.7,2.5-3.7c1,0,1.6,0.6,1.9,1.1l0,0v-4.3H663.5z M660.4,296.7c1,0,1.4-1.1,1.4-2.5
		s-0.4-2.4-1.3-2.4c-1,0-1.3,0.9-1.3,2.4C659.1,295.9,659.4,296.7,660.4,296.7z"/>
	<path class="st6" d="M559.8,303.6h-2.2v-1.4h6.1v1.4h-2.2v8.3h-1.8v-8.3H559.8z"/>
	<path class="st6" d="M569,311.5c-0.4,0.2-1.1,0.5-2.2,0.5c-2.3,0-3.3-1.7-3.3-3.6c0-2.2,1.1-3.8,3-3.8c1.6,0,2.9,0.9,2.9,3.9v0.3
		h-4.2c0,1.2,0.5,2,1.8,2c1.1,0,1.6-0.3,1.9-0.6L569,311.5z M567.6,307.7c0-1.3-0.4-1.9-1.2-1.9c-0.9,0-1.3,1-1.3,1.9H567.6z"/>
	<path class="st6" d="M575.6,311.7c-0.4,0.2-1,0.3-1.7,0.3c-2.4,0-3.4-1.7-3.4-3.7c0-2.1,1.1-3.7,3.5-3.7c0.5,0,1.2,0.2,1.5,0.3
		l-0.1,1.4c-0.3-0.2-0.7-0.4-1.2-0.4c-1.3,0-1.9,0.9-1.9,2.4c0,1.3,0.6,2.4,2,2.4c0.4,0,1-0.2,1.2-0.3L575.6,311.7z"/>
	<path class="st6" d="M576.6,301.4h1.7v4.2l0,0c0.3-0.4,0.7-1,1.8-1c1.6,0,2.1,1.2,2.1,2.7v4.7h-1.7v-4.3c0-1.1-0.3-1.6-1-1.6
		c-0.9,0-1.2,0.8-1.2,1.7v4.2h-1.7L576.6,301.4L576.6,301.4z"/>
	<path class="st6" d="M583.9,305.9c0-0.4,0-0.9-0.1-1.2h1.6c0,0.4,0.1,0.7,0.1,1.1l0,0c0.3-0.4,0.7-1.2,1.9-1.2
		c1.6,0,2.1,1.2,2.1,2.7v4.7h-1.7v-4.3c0-1.1-0.3-1.6-1-1.6c-0.9,0-1.2,0.8-1.2,1.7v4.2h-1.7L583.9,305.9L583.9,305.9z"/>
	<path class="st6" d="M594.1,304.6c1.5,0,3.2,0.8,3.2,3.7c0,3-1.7,3.7-3.2,3.7s-3.2-0.7-3.2-3.7C591,305.3,592.7,304.6,594.1,304.6z
		 M594.1,310.8c1.1,0,1.4-1.3,1.4-2.5s-0.3-2.5-1.4-2.5c-1.1,0-1.4,1.3-1.4,2.5S593,310.8,594.1,310.8z"/>
	<path class="st6" d="M598.8,301.4h1.7v10.5h-1.7V301.4z"/>
	<path class="st6" d="M605.3,304.6c1.5,0,3.2,0.8,3.2,3.7c0,3-1.7,3.7-3.2,3.7s-3.2-0.7-3.2-3.7
		C602.1,305.3,603.8,304.6,605.3,304.6z M605.3,310.8c1.1,0,1.4-1.3,1.4-2.5s-0.3-2.5-1.4-2.5c-1.1,0-1.4,1.3-1.4,2.5
		S604.2,310.8,605.3,310.8z"/>
	<path class="st6" d="M610.1,313c0.4,0.2,1.2,0.6,2.1,0.6c1.6,0,1.9-1.1,1.9-2.3v-0.7l0,0c-0.3,0.6-0.8,1.2-1.9,1.2
		c-1,0-2.5-0.7-2.5-3.6c0-2,0.7-3.7,2.6-3.7c1,0,1.5,0.6,1.9,1.2h0.1c0-0.4,0-0.7,0.1-1.1h1.6c0,0.4-0.1,0.8-0.1,1.1v5.3
		c0,2.3-0.7,3.9-3.3,3.9c-1.1,0-2.1-0.3-2.5-0.4L610.1,313z M612.6,310.6c1.1,0,1.5-0.8,1.5-2.4c0-1.5-0.6-2.3-1.4-2.3
		c-0.9,0-1.3,0.9-1.3,2.3C611.4,309.9,612,310.6,612.6,310.6z"/>
	<path class="st6" d="M619.9,310.1L619.9,310.1l1.4-5.4h1.7l-2.6,8.6c-0.3,1-0.9,1.7-2.1,1.7c-0.5,0-0.9-0.1-1.1-0.2l0.1-1.3
		c0.2,0.1,0.4,0.1,0.7,0.1c0.5,0,0.7-0.3,1-1l0.1-0.6l-2.4-7.3h1.8L619.9,310.1z"/>
	<path class="st6" d="M631.9,309.5h-3.4l-0.7,2.4H626l3.3-9.8h2l3.2,9.8h-1.8L631.9,309.5z M631.5,308.2l-1.2-4.6l0,0l-1.3,4.6
		H631.5z"/>
	<path class="st6" d="M635.5,313c0.4,0.2,1.2,0.6,2.1,0.6c1.6,0,1.9-1.1,1.9-2.3v-0.7l0,0c-0.3,0.6-0.8,1.2-1.9,1.2
		c-1,0-2.5-0.7-2.5-3.6c0-2,0.7-3.7,2.6-3.7c1,0,1.5,0.6,1.9,1.2h0.1c0-0.4,0-0.7,0.1-1.1h1.6c0,0.4-0.1,0.8-0.1,1.1v5.3
		c0,2.3-0.7,3.9-3.3,3.9c-1.1,0-2.1-0.3-2.5-0.4L635.5,313z M638,310.6c1.1,0,1.5-0.8,1.5-2.4c0-1.5-0.6-2.3-1.4-2.3
		c-0.9,0-1.3,0.9-1.3,2.3C636.8,309.9,637.4,310.6,638,310.6z"/>
	<path class="st6" d="M648.1,311.5c-0.4,0.2-1.1,0.5-2.2,0.5c-2.3,0-3.3-1.7-3.3-3.6c0-2.2,1.1-3.8,3-3.8c1.6,0,2.9,0.9,2.9,3.9v0.3
		h-4.2c0,1.2,0.5,2,1.8,2c1.1,0,1.6-0.3,1.9-0.6L648.1,311.5z M646.7,307.7c0-1.3-0.4-1.9-1.2-1.9c-0.9,0-1.3,1-1.3,1.9H646.7z"/>
	<path class="st6" d="M649.8,305.9c0-0.4,0-0.9-0.1-1.2h1.6c0,0.4,0.1,0.7,0.1,1.1l0,0c0.3-0.4,0.7-1.2,1.9-1.2
		c1.6,0,2.1,1.2,2.1,2.7v4.7h-1.7v-4.3c0-1.1-0.3-1.6-1-1.6c-0.9,0-1.2,0.8-1.2,1.7v4.2h-1.7L649.8,305.9L649.8,305.9z"/>
	<path class="st6" d="M661.9,311.7c-0.4,0.2-1,0.3-1.7,0.3c-2.4,0-3.4-1.7-3.4-3.7c0-2.1,1.1-3.7,3.5-3.7c0.5,0,1.2,0.2,1.5,0.3
		l-0.1,1.4c-0.3-0.2-0.7-0.4-1.2-0.4c-1.3,0-1.9,0.9-1.9,2.4c0,1.3,0.6,2.4,2,2.4c0.4,0,1-0.2,1.2-0.3L661.9,311.7z"/>
	<path class="st6" d="M665.5,310.1L665.5,310.1l1.4-5.4h1.7l-2.6,8.6c-0.3,1-0.9,1.7-2.1,1.7c-0.5,0-0.9-0.1-1.1-0.2l0.1-1.3
		c0.2,0.1,0.4,0.1,0.7,0.1c0.5,0,0.7-0.3,1-1l0.1-0.6l-2.4-7.3h1.8L665.5,310.1z"/>
</g>
<path class="st3" d="M304.3,68.6v6.9c0,2.1-1.1,3-2.4,3c-0.4,0-1-0.1-1.3-0.2v-1.5c0.2,0.1,0.4,0.2,0.8,0.2c0.9,0,1.1-0.6,1.1-1.4
	v-6.9L304.3,68.6L304.3,68.6z"/>
<path class="st3" d="M308.7,71c1.5,0,3.2,0.8,3.2,3.7c0,3-1.7,3.7-3.2,3.7s-3.2-0.7-3.2-3.7C305.5,71.8,307.3,71,308.7,71z
	 M308.7,77.2c1.1,0,1.4-1.3,1.4-2.5s-0.3-2.5-1.4-2.5s-1.4,1.3-1.4,2.5C307.3,75.9,307.6,77.2,308.7,77.2z"/>
<path class="st3" d="M313.4,68h1.8v1.7h-1.8V68z M313.4,71.1h1.7v7.2h-1.7V71.1z"/>
<path class="st3" d="M316.9,72.3c0-0.4,0-0.9-0.1-1.2h1.6c0,0.4,0.1,0.7,0.1,1.1l0,0c0.3-0.4,0.7-1.2,1.9-1.2c1.6,0,2.1,1.2,2.1,2.7
	v4.7h-1.7V74c0-1.1-0.3-1.6-1-1.6c-0.9,0-1.2,0.8-1.2,1.7v4.2h-1.7L316.9,72.3L316.9,72.3z"/>
<path class="st3" d="M324.8,69.6l1.7-0.5v2h1.4v1.3h-1.4v3.7c0,0.8,0.3,1,0.8,1c0.3,0,0.5-0.1,0.7-0.2v1.2c-0.3,0.1-0.6,0.2-1.2,0.2
	c-1.3,0-2-0.6-2-2.1v-3.9h-1.1V71h1.1V69.6z"/>
<path class="st3" d="M332.9,76.4c0.4,0.2,1.1,0.6,2.1,0.6c0.8,0,1.5-0.4,1.5-1.4c0-0.7-0.4-1-1.3-1.5l-0.9-0.5
	c-1-0.5-1.6-1.3-1.6-2.6c0-1.8,1.4-2.7,3.1-2.7c1,0,1.8,0.3,2,0.4l-0.1,1.5c-0.4-0.2-1-0.4-1.8-0.4c-0.9,0-1.4,0.5-1.4,1.1
	c0,0.7,0.5,1,1,1.3l1.1,0.6c1.1,0.6,1.7,1.3,1.7,2.6c0,2-1.4,2.9-3.3,2.9c-1,0-1.7-0.1-2.2-0.4L332.9,76.4z"/>
<path class="st3" d="M345.4,77.1c0,0.4,0,0.9,0.1,1.2h-1.6c0-0.4-0.1-0.7-0.1-1.1l0,0l0,0c-0.3,0.5-0.8,1.2-1.9,1.2
	c-1.6,0-2.1-1.2-2.1-2.7V71h1.7v4.3c0,1.1,0.3,1.6,1,1.6c0.9,0,1.2-0.8,1.2-1.8V71h1.7L345.4,77.1L345.4,77.1z"/>
<path class="st3" d="M347,72.3c0-0.5,0-1-0.1-1.2h1.6c0,0.2,0.1,0.6,0.1,1.1l0,0c0.3-0.6,0.8-1.2,1.9-1.2c1.8,0,2.5,1.7,2.5,3.7
	c0,2.4-0.9,3.7-2.5,3.7c-1,0-1.6-0.6-1.9-1.1l0,0v4.1H347V72.3z M350.1,77.2c1,0,1.3-0.9,1.3-2.4c0-1.7-0.3-2.5-1.3-2.5
	s-1.4,1.1-1.4,2.5C348.8,76.1,349.2,77.2,350.1,77.2z"/>
<path class="st3" d="M354.5,72.3c0-0.5,0-1-0.1-1.2h1.6c0,0.2,0.1,0.6,0.1,1.1l0,0c0.3-0.6,0.8-1.2,1.9-1.2c1.8,0,2.5,1.7,2.5,3.7
	c0,2.4-0.9,3.7-2.5,3.7c-1,0-1.6-0.6-1.9-1.1l0,0v4.1h-1.7v-9.1H354.5z M357.6,77.2c1,0,1.3-0.9,1.3-2.4c0-1.7-0.3-2.5-1.3-2.5
	s-1.4,1.1-1.4,2.5C356.3,76.1,356.7,77.2,357.6,77.2z"/>
<path class="st3" d="M365,71c1.5,0,3.2,0.8,3.2,3.7c0,3-1.7,3.7-3.2,3.7s-3.2-0.7-3.2-3.7C361.8,71.8,363.6,71,365,71z M365,77.2
	c1.1,0,1.4-1.3,1.4-2.5s-0.3-2.5-1.4-2.5s-1.4,1.3-1.4,2.5C363.6,75.9,363.9,77.2,365,77.2z"/>
<path class="st3" d="M369.6,72.3c0-0.4,0-0.9-0.1-1.2h1.6c0,0.4,0.1,0.9,0.1,1.3l0,0c0.2-0.6,0.8-1.4,1.8-1.4c0.1,0,0.2,0,0.3,0v1.6
	c-0.2,0-0.3-0.1-0.5-0.1c-0.7,0-1.5,0.4-1.5,1.8v4h-1.7L369.6,72.3L369.6,72.3z"/>
<path class="st3" d="M375.1,69.6l1.7-0.5v2h1.4v1.3h-1.4v3.7c0,0.8,0.3,1,0.8,1c0.3,0,0.5-0.1,0.7-0.2v1.2c-0.3,0.1-0.6,0.2-1.2,0.2
	c-1.3,0-2-0.6-2-2.1v-3.9H374V71h1.1V69.6z"/>
<path class="st3" d="M395.5,78.1c-0.4,0.2-1.2,0.4-2.1,0.4c-3,0-4.5-2.2-4.5-5s1.5-5,4.4-5c1,0,1.8,0.3,2.2,0.4l-0.1,1.6
	c-0.4-0.2-0.9-0.5-1.8-0.5c-1.5,0-2.8,1-2.8,3.5s1.3,3.5,2.8,3.5c0.9,0,1.4-0.2,1.8-0.5L395.5,78.1z"/>
<path class="st3" d="M402.1,78c-0.4,0.2-1.1,0.5-2.2,0.5c-2.3,0-3.3-1.7-3.3-3.6c0-2.2,1.1-3.8,3-3.8c1.6,0,2.9,0.9,2.9,3.9v0.3
	h-4.2c0,1.2,0.5,2,1.8,2c1.1,0,1.6-0.3,1.9-0.6L402.1,78z M400.8,74.1c0-1.3-0.4-1.9-1.2-1.9c-0.9,0-1.3,1-1.3,1.9H400.8z"/>
<path class="st3" d="M403.8,72.3c0-0.4,0-0.9-0.1-1.2h1.6c0,0.4,0.1,0.7,0.1,1.1l0,0c0.3-0.4,0.7-1.2,1.9-1.2c1.6,0,2.1,1.2,2.1,2.7
	v4.7h-1.7V74c0-1.1-0.3-1.6-1-1.6c-0.9,0-1.2,0.8-1.2,1.7v4.2h-1.7L403.8,72.3L403.8,72.3z"/>
<path class="st3" d="M411.7,69.6l1.7-0.5v2h1.4v1.3h-1.4v3.7c0,0.8,0.3,1,0.8,1c0.3,0,0.5-0.1,0.7-0.2v1.2c-0.3,0.1-0.6,0.2-1.2,0.2
	c-1.3,0-2-0.6-2-2.1v-3.9h-1.1V71h1.1V69.6z"/>
<path class="st3" d="M421.3,78c-0.4,0.2-1.1,0.5-2.2,0.5c-2.3,0-3.3-1.7-3.3-3.6c0-2.2,1.1-3.8,3-3.8c1.6,0,2.9,0.9,2.9,3.9v0.3
	h-4.2c0,1.2,0.5,2,1.8,2c1.1,0,1.6-0.3,1.9-0.6L421.3,78z M420,74.1c0-1.3-0.4-1.9-1.2-1.9c-0.9,0-1.3,1-1.3,1.9H420z"/>
<path class="st3" d="M423.1,72.3c0-0.4,0-0.9-0.1-1.2h1.6c0,0.4,0.1,0.9,0.1,1.3l0,0c0.2-0.6,0.8-1.4,1.8-1.4c0.1,0,0.2,0,0.3,0v1.6
	c-0.2,0-0.3-0.1-0.5-0.1c-0.7,0-1.5,0.4-1.5,1.8v4h-1.7L423.1,72.3L423.1,72.3z"/>
<path class="st3" d="M289,86.4h-1.2v-1.3h1.2v-1.5c0-1,0.5-2,2.1-2c0.5,0,0.9,0.1,1.2,0.2l-0.1,1.3c-0.2-0.1-0.4-0.1-0.7-0.1
	c-0.5,0-0.8,0.4-0.8,0.9v1.2h1.3v1.3h-1.3v5.9H289V86.4z"/>
<path class="st3" d="M296.1,85c1.5,0,3.2,0.8,3.2,3.7c0,3-1.7,3.7-3.2,3.7s-3.2-0.7-3.2-3.7C292.9,85.8,294.6,85,296.1,85z
	 M296.1,91.2c1.1,0,1.4-1.3,1.4-2.5s-0.3-2.5-1.4-2.5s-1.4,1.3-1.4,2.5C294.7,89.9,295,91.2,296.1,91.2z"/>
<path class="st3" d="M300.7,86.3c0-0.4,0-0.9-0.1-1.2h1.6c0,0.4,0.1,0.9,0.1,1.3l0,0c0.2-0.6,0.8-1.4,1.8-1.4c0.1,0,0.2,0,0.3,0v1.6
	c-0.2,0-0.3-0.1-0.5-0.1c-0.7,0-1.5,0.4-1.5,1.8v4h-1.7L300.7,86.3L300.7,86.3z"/>
<path class="st3" d="M309.4,82.6h2.5c3.1,0,4.7,1.7,4.7,4.9c0,3.3-2,4.9-4.7,4.9h-2.5V82.6z M311.2,91h0.6c2,0,2.9-1.4,2.9-3.5
	s-0.9-3.5-2.9-3.5h-0.6V91z"/>
<path class="st3" d="M318.4,85.5c0.5-0.2,1.2-0.5,2.3-0.5c2.2,0,2.8,1.1,2.8,2.9v3.2c0,0.5,0.1,1,0.1,1.3H322
	c-0.1-0.3-0.1-0.6-0.1-1l0,0c-0.4,0.6-1,1.1-2,1.1c-1.1,0-2.2-0.8-2.2-2.1c0-2,1.6-2.5,3.8-2.5h0.4v-0.3c0-0.7-0.4-1.4-1.3-1.4
	s-1.6,0.4-2,0.7L318.4,85.5z M321.8,88.8h-0.2c-1.5,0-2.4,0.3-2.4,1.4c0,0.7,0.4,1.1,1.1,1.1c1,0,1.4-0.8,1.4-2.1v-0.4H321.8z"/>
<path class="st3" d="M325.7,83.6l1.7-0.5v2h1.4v1.3h-1.4v3.7c0,0.8,0.3,1,0.8,1c0.3,0,0.5-0.1,0.7-0.2v1.2c-0.3,0.1-0.6,0.2-1.2,0.2
	c-1.3,0-2-0.6-2-2.1v-3.9h-1.1V85h1.1V83.6z"/>
<path class="st3" d="M330.3,85.5c0.5-0.2,1.2-0.5,2.3-0.5c2.2,0,2.8,1.1,2.8,2.9v3.2c0,0.5,0.1,1,0.1,1.3h-1.6
	c-0.1-0.3-0.1-0.6-0.1-1l0,0c-0.4,0.6-1,1.1-2,1.1c-1.1,0-2.2-0.8-2.2-2.1c0-2,1.6-2.5,3.8-2.5h0.4v-0.3c0-0.7-0.4-1.4-1.3-1.4
	s-1.6,0.4-2,0.7L330.3,85.5z M333.7,88.8h-0.2c-1.5,0-2.4,0.3-2.4,1.4c0,0.7,0.4,1.1,1.1,1.1c1,0,1.4-0.8,1.4-2.1v-0.4H333.7z"/>
<path class="st3" d="M340.7,90.4c0.4,0.2,1.1,0.6,2.1,0.6c0.8,0,1.5-0.4,1.5-1.4c0-0.7-0.4-1-1.3-1.5l-0.9-0.5
	c-1-0.5-1.6-1.3-1.6-2.6c0-1.8,1.4-2.7,3.1-2.7c1,0,1.8,0.3,2,0.4l-0.1,1.5c-0.4-0.2-1-0.4-1.8-0.4c-0.9,0-1.4,0.5-1.4,1.1
	c0,0.7,0.5,1,1,1.3l1.1,0.6c1.1,0.6,1.7,1.3,1.7,2.6c0,2-1.4,2.9-3.3,2.9c-1,0-1.7-0.1-2.2-0.4L340.7,90.4z"/>
<path class="st3" d="M352.5,92.1c-0.4,0.2-1,0.3-1.7,0.3c-2.4,0-3.4-1.7-3.4-3.7c0-2.1,1.1-3.7,3.5-3.7c0.5,0,1.2,0.2,1.5,0.3
	l-0.1,1.4c-0.3-0.2-0.7-0.4-1.2-0.4c-1.3,0-1.9,0.9-1.9,2.4c0,1.3,0.6,2.4,2,2.4c0.4,0,1-0.2,1.2-0.4L352.5,92.1z"/>
<path class="st3" d="M353.7,82h1.8v1.7h-1.8V82z M353.7,85.1h1.7v7.2h-1.7V85.1z"/>
<path class="st3" d="M362.5,92c-0.4,0.2-1.1,0.5-2.2,0.5c-2.3,0-3.3-1.7-3.3-3.6c0-2.2,1.1-3.8,3-3.8c1.6,0,2.9,0.9,2.9,3.9v0.3
	h-4.2c0,1.2,0.5,2,1.8,2c1.1,0,1.6-0.3,1.9-0.6L362.5,92z M361.2,88.1c0-1.3-0.4-1.9-1.2-1.9c-0.9,0-1.3,1-1.3,1.9H361.2z"/>
<path class="st3" d="M364.2,86.3c0-0.4,0-0.9-0.1-1.2h1.6c0,0.4,0.1,0.7,0.1,1.1l0,0c0.3-0.4,0.7-1.2,1.9-1.2c1.6,0,2.1,1.2,2.1,2.7
	v4.7h-1.7V88c0-1.1-0.3-1.6-1-1.6c-0.9,0-1.2,0.8-1.2,1.7v4.2h-1.7L364.2,86.3L364.2,86.3z"/>
<path class="st3" d="M376.4,92.1c-0.4,0.2-1,0.3-1.7,0.3c-2.4,0-3.4-1.7-3.4-3.7c0-2.1,1.1-3.7,3.5-3.7c0.5,0,1.2,0.2,1.5,0.3
	l-0.1,1.4c-0.3-0.2-0.7-0.4-1.2-0.4c-1.3,0-1.9,0.9-1.9,2.4c0,1.3,0.6,2.4,2,2.4c0.4,0,1-0.2,1.2-0.4L376.4,92.1z"/>
<path class="st3" d="M382.7,92c-0.4,0.2-1.1,0.5-2.2,0.5c-2.3,0-3.3-1.7-3.3-3.6c0-2.2,1.1-3.8,3-3.8c1.6,0,2.9,0.9,2.9,3.9v0.3
	h-4.2c0,1.2,0.5,2,1.8,2c1.1,0,1.6-0.3,1.9-0.6L382.7,92z M381.4,88.1c0-1.3-0.4-1.9-1.2-1.9c-0.9,0-1.3,1-1.3,1.9H381.4z"/>
<path class="st3" d="M388.2,82.6h3.1c1.7,0,2.9,0.8,2.9,2.6c0,1.3-0.8,2.1-1.9,2.3l0,0c0.4,0.1,0.8,0.2,1.1,1.1l1.3,3.7h-1.9l-1-3.2
	c-0.2-0.8-0.7-1-1.4-1H390v4.2h-1.8V82.6z M390.8,86.8c1,0,1.6-0.5,1.6-1.5c0-1.1-0.6-1.4-1.6-1.4H390v2.9H390.8z"/>
<path class="st3" d="M401.1,92c-0.4,0.2-1.1,0.5-2.2,0.5c-2.3,0-3.3-1.7-3.3-3.6c0-2.2,1.1-3.8,3-3.8c1.6,0,2.9,0.9,2.9,3.9v0.3
	h-4.2c0,1.2,0.5,2,1.8,2c1.1,0,1.6-0.3,1.9-0.6L401.1,92z M399.8,88.1c0-1.3-0.4-1.9-1.2-1.9c-0.9,0-1.3,1-1.3,1.9H399.8z"/>
<path class="st3" d="M402.7,90.6c0.3,0.1,1,0.5,1.8,0.5c0.6,0,1.1-0.2,1.1-0.7c0-0.3-0.1-0.5-0.8-0.9l-0.7-0.4
	c-0.7-0.4-1.5-0.9-1.5-2c0-1,1-2,2.5-2c0.9,0,1.6,0.2,1.8,0.3l-0.1,1.3c-0.4-0.2-0.9-0.3-1.5-0.3c-0.7,0-1,0.3-1,0.7
	c0,0.4,0.3,0.6,0.8,0.9l0.9,0.5c0.9,0.6,1.3,1,1.3,1.8c0,1.3-1.1,2.1-2.7,2.1c-0.9,0-1.6-0.2-2-0.4L402.7,90.6z"/>
<path class="st3" d="M413.8,92c-0.4,0.2-1.1,0.5-2.2,0.5c-2.3,0-3.3-1.7-3.3-3.6c0-2.2,1.1-3.8,3-3.8c1.6,0,2.9,0.9,2.9,3.9v0.3H410
	c0,1.2,0.5,2,1.8,2c1.1,0,1.6-0.3,1.9-0.6L413.8,92z M412.5,88.1c0-1.3-0.4-1.9-1.2-1.9c-0.9,0-1.3,1-1.3,1.9H412.5z"/>
<path class="st3" d="M415.9,85.5c0.5-0.2,1.2-0.5,2.3-0.5c2.2,0,2.8,1.1,2.8,2.9v3.2c0,0.5,0.1,1,0.1,1.3h-1.6
	c-0.1-0.3-0.1-0.6-0.1-1l0,0c-0.4,0.6-1,1.1-2,1.1c-1.1,0-2.2-0.8-2.2-2.1c0-2,1.6-2.5,3.8-2.5h0.3v-0.3c0-0.7-0.3-1.4-1.3-1.4
	c-0.9,0-1.6,0.4-2,0.7L415.9,85.5z M419.3,88.8h-0.2c-1.5,0-2.4,0.3-2.4,1.4c0,0.7,0.4,1.1,1.1,1.1c1,0,1.4-0.8,1.4-2.1v-0.4H419.3z
	"/>
<path class="st3" d="M422.6,86.3c0-0.4,0-0.9-0.1-1.2h1.6c0,0.4,0.1,0.9,0.1,1.3l0,0c0.2-0.6,0.8-1.4,1.8-1.4c0.1,0,0.2,0,0.3,0v1.6
	c-0.2,0-0.3-0.1-0.5-0.1c-0.7,0-1.5,0.4-1.5,1.8v4h-1.7L422.6,86.3L422.6,86.3z"/>
<path class="st3" d="M432.2,92.1c-0.4,0.2-1,0.3-1.7,0.3c-2.4,0-3.4-1.7-3.4-3.7c0-2.1,1.1-3.7,3.5-3.7c0.5,0,1.2,0.2,1.5,0.3
	l-0.1,1.4c-0.3-0.2-0.7-0.4-1.2-0.4c-1.3,0-1.9,0.9-1.9,2.4c0,1.3,0.6,2.4,2,2.4c0.4,0,1-0.2,1.2-0.4L432.2,92.1z"/>
<path class="st3" d="M433.3,81.8h1.7V86l0,0c0.3-0.4,0.7-1,1.8-1c1.6,0,2.1,1.2,2.1,2.7v4.7h-1.7V88c0-1.1-0.3-1.6-1-1.6
	c-0.9,0-1.2,0.8-1.2,1.7v4.2h-1.7L433.3,81.8L433.3,81.8z"/>
<g>
	<path class="st3" d="M314.5,157.7h2.5c3.1,0,4.7,1.7,4.7,4.9c0,3.3-2,4.9-4.7,4.9h-2.5V157.7z M316.3,166.1h0.6
		c2,0,2.9-1.4,2.9-3.5s-0.9-3.5-2.9-3.5h-0.6V166.1z"/>
	<path class="st3" d="M323.5,160.6c0.5-0.2,1.2-0.5,2.3-0.5c2.2,0,2.8,1.1,2.8,2.9v3.2c0,0.5,0.1,1,0.1,1.3h-1.6
		c-0.1-0.3-0.1-0.6-0.1-1l0,0c-0.4,0.6-1,1.1-2,1.1c-1.1,0-2.2-0.8-2.2-2.1c0-2,1.6-2.5,3.8-2.5h0.4v-0.3c0-0.7-0.4-1.4-1.3-1.4
		s-1.6,0.4-2,0.7L323.5,160.6z M326.9,163.9h-0.2c-1.5,0-2.4,0.3-2.4,1.4c0,0.7,0.4,1.1,1.1,1.1c1,0,1.4-0.8,1.4-2.1v-0.4H326.9z"/>
	<path class="st3" d="M330.8,158.7l1.7-0.5v2h1.4v1.3h-1.4v3.7c0,0.8,0.3,1,0.8,1c0.3,0,0.5-0.1,0.7-0.2v1.2
		c-0.3,0.1-0.6,0.2-1.2,0.2c-1.3,0-2-0.6-2-2.1v-3.9h-1.1v-1.3h1.1V158.7z"/>
	<path class="st3" d="M335.4,160.6c0.5-0.2,1.2-0.5,2.3-0.5c2.2,0,2.8,1.1,2.8,2.9v3.2c0,0.5,0.1,1,0.1,1.3H339
		c-0.1-0.3-0.1-0.6-0.1-1l0,0c-0.4,0.6-1,1.1-2,1.1c-1.1,0-2.2-0.8-2.2-2.1c0-2,1.6-2.5,3.8-2.5h0.4v-0.3c0-0.7-0.4-1.4-1.3-1.4
		s-1.6,0.4-2,0.7L335.4,160.6z M338.9,163.9h-0.2c-1.5,0-2.4,0.3-2.4,1.4c0,0.7,0.4,1.1,1.1,1.1c1,0,1.4-0.8,1.4-2.1v-0.4H338.9z"/>
	<path class="st3" d="M343.9,156.9v4.3l0,0c0.3-0.6,0.8-1.1,1.9-1.1c1.6,0,2.5,1.4,2.5,3.7c0,2-0.7,3.7-2.5,3.7
		c-1.1,0-1.6-0.6-1.9-1.2l0,0c0,0.5,0,0.9-0.1,1.1h-1.6c0-0.3,0.1-0.7,0.1-1.2v-9.3H343.9z M345.2,166.3c1,0,1.3-0.8,1.3-2.5
		c0-1.4-0.3-2.4-1.3-2.4s-1.3,1-1.3,2.4C343.9,165.2,344.2,166.3,345.2,166.3z"/>
	<path class="st3" d="M350,160.6c0.5-0.2,1.2-0.5,2.3-0.5c2.2,0,2.8,1.1,2.8,2.9v3.2c0,0.5,0.1,1,0.1,1.3h-1.6
		c-0.1-0.3-0.1-0.6-0.1-1l0,0c-0.4,0.6-1,1.1-2,1.1c-1.1,0-2.2-0.8-2.2-2.1c0-2,1.6-2.5,3.8-2.5h0.3v-0.3c0-0.7-0.3-1.4-1.3-1.4
		c-0.9,0-1.6,0.4-2,0.7L350,160.6z M353.4,163.9h-0.2c-1.5,0-2.4,0.3-2.4,1.4c0,0.7,0.4,1.1,1.1,1.1c1,0,1.4-0.8,1.4-2.1v-0.4H353.4
		z"/>
	<path class="st3" d="M356.4,165.7c0.3,0.1,1,0.5,1.8,0.5c0.6,0,1.1-0.2,1.1-0.7c0-0.3-0.1-0.5-0.8-0.9l-0.7-0.4
		c-0.7-0.4-1.5-0.9-1.5-2c0-1,1-2,2.5-2c0.9,0,1.6,0.2,1.8,0.3l-0.1,1.3c-0.4-0.2-0.9-0.3-1.5-0.3c-0.7,0-1,0.3-1,0.7
		s0.3,0.6,0.8,0.9l0.9,0.5c0.9,0.6,1.3,1,1.3,1.8c0,1.3-1.1,2.1-2.7,2.1c-0.9,0-1.6-0.2-2-0.4L356.4,165.7z"/>
	<path class="st3" d="M367.6,167.1c-0.4,0.2-1.1,0.5-2.2,0.5c-2.3,0-3.3-1.7-3.3-3.6c0-2.2,1.1-3.8,3-3.8c1.6,0,2.9,0.9,2.9,3.9v0.3
		h-4.2c0,1.2,0.5,2,1.8,2c1.1,0,1.6-0.3,1.9-0.6L367.6,167.1z M366.3,163.2c0-1.3-0.4-1.9-1.2-1.9c-0.9,0-1.3,1-1.3,1.9H366.3z"/>
	<path class="st3" d="M379.4,167.2c-0.4,0.2-1.2,0.4-2.1,0.4c-3,0-4.5-2.2-4.5-5s1.5-5,4.4-5c1,0,1.8,0.3,2.2,0.4l-0.1,1.6
		c-0.4-0.2-0.9-0.5-1.8-0.5c-1.5,0-2.8,1-2.8,3.5s1.3,3.5,2.8,3.5c0.9,0,1.4-0.2,1.8-0.5L379.4,167.2z"/>
	<path class="st3" d="M386,167.1c-0.4,0.2-1.1,0.5-2.2,0.5c-2.3,0-3.3-1.7-3.3-3.6c0-2.2,1.1-3.8,3-3.8c1.6,0,2.9,0.9,2.9,3.9v0.3
		h-4.2c0,1.2,0.5,2,1.8,2c1.1,0,1.6-0.3,1.9-0.6L386,167.1z M384.7,163.2c0-1.3-0.4-1.9-1.2-1.9c-0.9,0-1.3,1-1.3,1.9H384.7z"/>
	<path class="st3" d="M387.7,161.4c0-0.4,0-0.9-0.1-1.2h1.6c0,0.4,0.1,0.7,0.1,1.1l0,0c0.3-0.4,0.7-1.2,1.9-1.2
		c1.6,0,2.1,1.2,2.1,2.7v4.7h-1.7v-4.3c0-1.1-0.3-1.6-1-1.6c-0.9,0-1.2,0.8-1.2,1.7v4.2h-1.7L387.7,161.4L387.7,161.4z"/>
	<path class="st3" d="M395.6,158.7l1.7-0.5v2h1.4v1.3h-1.4v3.7c0,0.8,0.3,1,0.8,1c0.3,0,0.5-0.1,0.7-0.2v1.2
		c-0.3,0.1-0.6,0.2-1.2,0.2c-1.3,0-2-0.6-2-2.1v-3.9h-1.1v-1.3h1.1V158.7z"/>
	<path class="st3" d="M405.2,167.1c-0.4,0.2-1.1,0.5-2.2,0.5c-2.3,0-3.3-1.7-3.3-3.6c0-2.2,1.1-3.8,3-3.8c1.6,0,2.9,0.9,2.9,3.9v0.3
		h-4.2c0,1.2,0.5,2,1.8,2c1.1,0,1.6-0.3,1.9-0.6L405.2,167.1z M403.9,163.2c0-1.3-0.4-1.9-1.2-1.9c-0.9,0-1.3,1-1.3,1.9H403.9z"/>
	<path class="st3" d="M407,161.4c0-0.4,0-0.9-0.1-1.2h1.6c0,0.4,0.1,0.9,0.1,1.3l0,0c0.2-0.6,0.8-1.4,1.8-1.4c0.1,0,0.2,0,0.3,0v1.6
		c-0.2,0-0.3-0.1-0.5-0.1c-0.7,0-1.5,0.4-1.5,1.8v4H407V161.4z"/>
	<path class="st3" d="M318.8,175.5h-1.2v-1.3h1.2v-1.5c0-1,0.5-2,2.1-2c0.5,0,0.9,0.1,1.2,0.2l-0.1,1.3c-0.2-0.1-0.4-0.1-0.7-0.1
		c-0.5,0-0.8,0.3-0.8,0.9v1.2h1.3v1.3h-1.3v5.9h-1.7V175.5z"/>
	<path class="st3" d="M325.9,174.1c1.5,0,3.2,0.8,3.2,3.7c0,3-1.7,3.7-3.2,3.7s-3.2-0.7-3.2-3.7
		C322.7,174.9,324.4,174.1,325.9,174.1z M325.9,180.3c1.1,0,1.4-1.3,1.4-2.5s-0.3-2.5-1.4-2.5s-1.4,1.3-1.4,2.5
		S324.8,180.3,325.9,180.3z"/>
	<path class="st3" d="M330.5,175.4c0-0.4,0-0.9-0.1-1.2h1.6c0,0.4,0.1,0.9,0.1,1.3l0,0c0.2-0.6,0.8-1.4,1.8-1.4c0.1,0,0.2,0,0.3,0
		v1.6c-0.2,0-0.3-0.1-0.5-0.1c-0.7,0-1.5,0.4-1.5,1.8v4h-1.7L330.5,175.4L330.5,175.4z"/>
	<path class="st3" d="M339.1,171.7h1.8v8.3h3.2v1.4h-5V171.7z"/>
	<path class="st3" d="M345.3,171.1h1.8v1.7h-1.8V171.1z M345.4,174.2h1.7v7.2h-1.7V174.2z"/>
	<path class="st3" d="M349.4,175.5h-1.2v-1.3h1.2v-1.5c0-1,0.5-2,2.1-2c0.5,0,0.9,0.1,1.2,0.2l-0.1,1.3c-0.2-0.1-0.4-0.1-0.7-0.1
		c-0.5,0-0.8,0.3-0.8,0.9v1.2h1.3v1.3h-1.3v5.9h-1.7V175.5z"/>
	<path class="st3" d="M358.8,181.1c-0.4,0.2-1.1,0.5-2.2,0.5c-2.3,0-3.3-1.7-3.3-3.6c0-2.2,1.1-3.8,3-3.8c1.6,0,2.9,0.9,2.9,3.9v0.3
		H355c0,1.2,0.5,2,1.8,2c1.1,0,1.6-0.3,1.9-0.6L358.8,181.1z M357.5,177.2c0-1.3-0.4-1.9-1.2-1.9c-0.9,0-1.3,1-1.3,1.9H357.5z"/>
	<path class="st3" d="M364.3,179.5c0.3,0.2,1.1,0.6,2.1,0.6c0.8,0,1.5-0.4,1.5-1.4c0-0.7-0.4-1-1.3-1.5l-0.9-0.5
		c-1-0.5-1.6-1.3-1.6-2.6c0-1.8,1.4-2.7,3.1-2.7c1,0,1.8,0.3,2,0.3l-0.1,1.5c-0.4-0.2-1-0.4-1.8-0.4c-0.9,0-1.4,0.5-1.4,1.1
		c0,0.7,0.5,1,1,1.3l1.1,0.6c1.1,0.6,1.7,1.3,1.7,2.6c0,2-1.4,2.9-3.3,2.9c-1,0-1.7-0.1-2.2-0.4L364.3,179.5z"/>
	<path class="st3" d="M376,181.2c-0.4,0.2-1,0.3-1.7,0.3c-2.4,0-3.4-1.7-3.4-3.7c0-2.1,1.1-3.7,3.5-3.7c0.5,0,1.2,0.2,1.5,0.3
		l-0.1,1.4c-0.3-0.2-0.7-0.3-1.2-0.3c-1.3,0-1.9,0.9-1.9,2.4c0,1.3,0.6,2.4,2,2.4c0.4,0,1-0.2,1.2-0.4L376,181.2z"/>
	<path class="st3" d="M377.2,171.1h1.8v1.7h-1.8V171.1z M377.3,174.2h1.7v7.2h-1.7V174.2z"/>
	<path class="st3" d="M386,181.1c-0.4,0.2-1.1,0.5-2.2,0.5c-2.3,0-3.3-1.7-3.3-3.6c0-2.2,1.1-3.8,3-3.8c1.6,0,2.9,0.9,2.9,3.9v0.3
		h-4.2c0,1.2,0.5,2,1.8,2c1.1,0,1.6-0.3,1.9-0.6L386,181.1z M384.7,177.2c0-1.3-0.4-1.9-1.2-1.9c-0.9,0-1.3,1-1.3,1.9H384.7z"/>
	<path class="st3" d="M387.7,175.4c0-0.4,0-0.9-0.1-1.2h1.6c0,0.4,0.1,0.7,0.1,1.1l0,0c0.3-0.4,0.7-1.2,1.9-1.2
		c1.6,0,2.1,1.2,2.1,2.7v4.7h-1.7v-4.3c0-1.1-0.3-1.6-1-1.6c-0.9,0-1.2,0.8-1.2,1.7v4.2h-1.7L387.7,175.4L387.7,175.4z"/>
	<path class="st3" d="M399.9,181.2c-0.4,0.2-1,0.3-1.7,0.3c-2.4,0-3.4-1.7-3.4-3.7c0-2.1,1.1-3.7,3.5-3.7c0.5,0,1.2,0.2,1.5,0.3
		l-0.1,1.4c-0.3-0.2-0.7-0.3-1.2-0.3c-1.3,0-1.9,0.9-1.9,2.4c0,1.3,0.6,2.4,2,2.4c0.4,0,1-0.2,1.2-0.4L399.9,181.2z"/>
	<path class="st3" d="M406.3,181.1c-0.4,0.2-1.1,0.5-2.2,0.5c-2.3,0-3.3-1.7-3.3-3.6c0-2.2,1.1-3.8,3-3.8c1.6,0,2.9,0.9,2.9,3.9v0.3
		h-4.2c0,1.2,0.5,2,1.8,2c1.1,0,1.6-0.3,1.9-0.6L406.3,181.1z M404.9,177.2c0-1.3-0.4-1.9-1.2-1.9c-0.9,0-1.3,1-1.3,1.9H404.9z"/>
</g>
<g>
	<path class="st3" d="M388.4,227h-55.8c-2.8,0-5-2.2-5-5v-6.4c0-2.8,2.2-5,5-5h55.8c2.8,0,5,2.2,5,5v6.4
		C393.4,224.7,391.2,227,388.4,227z"/>
	<g>
		<path d="M335.9,214.4h2.9l2.2,6.9l0,0l2.2-6.9h2.9v9.1h-1.7V216l0,0l-2.4,7.5h-1.7l-2.4-7.5l0,0v7.5h-2V214.4z"/>
		<path d="M348.1,213.9h1.7v1.7h-1.7V213.9z M348.1,216.8h1.7v6.7h-1.7V216.8z"/>
		<path d="M355.7,218.2c-0.5-0.2-0.9-0.3-1.6-0.3c-0.5,0-1,0.2-1,0.7c0,1.1,3,0.4,3,2.8c0,1.6-1.4,2.2-2.8,2.2c-0.7,0-1.3-0.1-2-0.3
			l0.1-1.4c0.5,0.3,1.1,0.4,1.7,0.4c0.4,0,1.1-0.2,1.1-0.8c0-1.3-3-0.4-3-2.8c0-1.4,1.3-2.1,2.6-2.1c0.8,0,1.4,0.1,1.9,0.2
			L355.7,218.2z"/>
		<path d="M357.5,213.7h1.7v4l0,0c0.4-0.6,1.2-1.1,2.1-1.1c1.6,0,2.3,1.1,2.3,2.6v4.2h-1.7v-3.6c0-0.8,0-1.9-1.1-1.9
			c-1.3,0-1.5,1.4-1.5,2.2v3.3h-1.7L357.5,213.7L357.5,213.7z"/>
		<path d="M365.4,213.9h1.7v1.7h-1.7V213.9z M365.4,216.8h1.7v6.7h-1.7V216.8z"/>
		<path d="M369,216.8h1.6v0.9l0,0c0.5-0.8,1.3-1.1,2-1.1c0.9,0,1.6,0.4,2,1.2c0.4-0.8,1.3-1.2,2.1-1.2c1.7,0,2.1,1.1,2.1,2.6v4.2
			h-1.7v-4c0-0.6,0-1.5-1-1.5c-1.2,0-1.3,1.4-1.3,2.2v3.2h-1.7v-4c0-0.6,0-1.5-1-1.5c-1.2,0-1.3,1.4-1.3,2.2v3.2h-1.7v-6.4
			L369,216.8L369,216.8z"/>
		<path d="M380.9,217.1c0.7-0.3,1.6-0.5,2.3-0.5c2,0,2.9,0.8,2.9,2.8v0.9c0,0.7,0,1.2,0,1.7s0,1,0.1,1.5h-1.5
			c-0.1-0.4-0.1-0.8-0.1-1l0,0c-0.4,0.7-1.3,1.2-2.1,1.2c-1.2,0-2.3-0.7-2.3-2c0-1,0.5-1.6,1.1-1.9c0.7-0.3,1.5-0.4,2.2-0.4h1
			c0-1.1-0.5-1.4-1.5-1.4c-0.7,0-1.5,0.3-2.1,0.7V217.1z M382.9,222.3c0.5,0,0.9-0.2,1.2-0.6c0.3-0.4,0.4-0.9,0.4-1.4h-0.8
			c-0.8,0-1.9,0.1-1.9,1.2C381.8,222.1,382.3,222.3,382.9,222.3z"/>
	</g>
</g>
<g>
	<path class="st3" d="M381.7,73.2h3.9v1.4h-3.9V73.2z"/>
</g>
<g>
	<path class="st3" d="M566.8,173.7h2.4c2.7,0,4.4,1.4,4.4,4.4s-1.7,4.5-4.3,4.5h-2.5L566.8,173.7L566.8,173.7z M569.1,181.2
		c1.7,0,2.7-0.9,2.7-3c0-2.2-1-3-2.7-3h-0.6v6H569.1z"/>
	<path class="st3" d="M574.8,179.3c0-2.2,1.5-3.5,3.1-3.5c1.8,0,2.8,1.4,2.8,3.2c0,0.3,0,0.6-0.1,0.8h-4.1c0.1,1.1,0.9,1.7,1.9,1.7
		c0.6,0,1-0.2,1.5-0.5l0.6,1.1c-0.7,0.5-1.5,0.7-2.4,0.7C576.3,182.8,574.8,181.5,574.8,179.3z M579.2,178.6c0-0.9-0.4-1.5-1.3-1.5
		c-0.7,0-1.3,0.5-1.5,1.5H579.2z"/>
	<path class="st3" d="M582.2,175.9h1.4l0.1,0.7l0,0c0.6-0.5,1.3-0.9,2-0.9c1.7,0,2.6,1.4,2.6,3.4c0,2.3-1.4,3.6-2.9,3.6
		c-0.6,0-1.2-0.3-1.7-0.7v1.1v2h-1.8v-9.2H582.2z M586.6,179.2c0-1.3-0.4-2-1.3-2c-0.5,0-0.9,0.2-1.3,0.7v3c0.4,0.4,0.9,0.5,1.2,0.5
		C586,181.3,586.6,180.6,586.6,179.2z"/>
	<path class="st3" d="M589.4,180.8c0-1.4,1.2-2.2,3.9-2.5c0-0.7-0.3-1.2-1.1-1.2c-0.6,0-1.2,0.3-1.8,0.6l-0.6-1.2
		c0.8-0.5,1.8-0.9,2.8-0.9c1.7,0,2.6,1,2.6,3v3.9h-1.4l-0.1-0.7l0,0c-0.6,0.5-1.3,0.9-2,0.9C590.2,182.8,589.4,181.9,589.4,180.8z
		 M593.3,180.7v-1.4c-1.6,0.2-2.2,0.7-2.2,1.3c0,0.5,0.4,0.8,0.9,0.8C592.5,181.4,592.9,181.1,593.3,180.7z"/>
	<path class="st3" d="M596.8,175.9h1.4l0.1,1.2l0,0c0.5-0.9,1.2-1.4,1.9-1.4c0.4,0,0.6,0.1,0.8,0.1l-0.3,1.5
		c-0.2-0.1-0.4-0.1-0.7-0.1c-0.5,0-1.2,0.3-1.5,1.3v4h-1.8L596.8,175.9L596.8,175.9z"/>
	<path class="st3" d="M602.3,180.2v-3h-0.9V176l1-0.1l0.2-1.8h1.5v1.8h1.7v1.4h-1.7v3c0,0.8,0.3,1.1,0.9,1.1c0.2,0,0.5-0.1,0.7-0.1
		l0.3,1.3c-0.4,0.1-0.8,0.3-1.4,0.3C602.9,182.8,602.3,181.8,602.3,180.2z"/>
	<path class="st3" d="M607.1,175.9h1.4l0.1,0.9l0,0c0.6-0.6,1.2-1.1,2.1-1.1c1,0,1.5,0.4,1.8,1.2c0.6-0.6,1.3-1.2,2.1-1.2
		c1.4,0,2.1,1,2.1,2.7v4.2h-1.8v-4c0-1-0.3-1.4-0.9-1.4c-0.4,0-0.8,0.3-1.3,0.8v4.6h-1.8v-4c0-1-0.3-1.4-0.9-1.4
		c-0.4,0-0.8,0.3-1.3,0.8v4.6h-1.8v-6.7H607.1z"/>
	<path class="st3" d="M618.3,179.3c0-2.2,1.5-3.5,3.1-3.5c1.8,0,2.8,1.4,2.8,3.2c0,0.3,0,0.6-0.1,0.8H620c0.1,1.1,0.9,1.7,1.9,1.7
		c0.6,0,1-0.2,1.5-0.5l0.6,1.1c-0.7,0.5-1.5,0.7-2.4,0.7C619.7,182.8,618.3,181.5,618.3,179.3z M622.7,178.6c0-0.9-0.4-1.5-1.3-1.5
		c-0.7,0-1.3,0.5-1.5,1.5H622.7z"/>
	<path class="st3" d="M625.7,175.9h1.4l0.1,0.9l0,0c0.6-0.6,1.3-1.1,2.2-1.1c1.5,0,2.1,1,2.1,2.7v4.2h-1.8v-4c0-1-0.3-1.4-0.9-1.4
		c-0.6,0-0.9,0.3-1.4,0.8v4.6h-1.8v-6.7H625.7z"/>
	<path class="st3" d="M633.6,180.2v-3h-0.9V176l1-0.1l0.2-1.8h1.5v1.8h1.7v1.4h-1.7v3c0,0.8,0.3,1.1,0.9,1.1c0.2,0,0.5-0.1,0.7-0.1
		l0.3,1.3c-0.4,0.1-0.8,0.3-1.4,0.3C634.2,182.8,633.6,181.8,633.6,180.2z"/>
	<path class="st3" d="M640.7,179.3c0-2.2,1.5-3.5,3.2-3.5s3.2,1.3,3.2,3.5s-1.5,3.5-3.2,3.5S640.7,181.5,640.7,179.3z M645.3,179.3
		c0-1.3-0.5-2.1-1.4-2.1s-1.4,0.8-1.4,2.1s0.5,2.1,1.4,2.1S645.3,180.5,645.3,179.3z"/>
	<path class="st3" d="M652.1,174.4c-0.2-0.1-0.5-0.1-0.7-0.1c-0.5,0-0.8,0.3-0.8,1.1v0.6h1.3v1.4h-1.3v5.3h-1.8v-5.3H648V176
		l0.9-0.1v-0.6c0-1.4,0.6-2.5,2.3-2.5c0.5,0,1,0.1,1.3,0.2L652.1,174.4z"/>
	<path class="st3" d="M566.8,186.7h1.8l2.6,4.7l0.9,1.9h0.1c-0.1-0.9-0.2-2.1-0.2-3.1v-3.5h1.7v8.9h-1.8l-2.6-4.7l-0.9-1.9h-0.1
		c0.1,1,0.2,2.1,0.2,3.1v3.6h-1.7V186.7z"/>
	<path class="st3" d="M575.8,186.7h2.9c1.8,0,3.2,0.5,3.2,2.2c0,0.8-0.5,1.7-1.2,1.9v0.1c1,0.2,1.7,0.9,1.7,2.1
		c0,1.8-1.5,2.6-3.4,2.6h-3.2V186.7z M578.6,190.3c1.1,0,1.6-0.5,1.6-1.2c0-0.8-0.5-1.1-1.6-1.1h-1.1v2.3H578.6z M578.8,194.2
		c1.2,0,1.9-0.4,1.9-1.4c0-0.9-0.6-1.2-1.9-1.2h-1.2v2.6L578.8,194.2L578.8,194.2z"/>
	<path class="st3" d="M584,186.7h2.4c2.7,0,4.4,1.4,4.4,4.4s-1.7,4.5-4.3,4.5H584V186.7z M586.3,194.2c1.7,0,2.7-0.9,2.7-3
		c0-2.2-1-3-2.7-3h-0.6v6H586.3z"/>
	<path class="st3" d="M592.1,191.2c0-2.9,1.9-4.6,4.1-4.6c1.1,0,2,0.5,2.6,1.1l-0.9,1.1c-0.4-0.4-1-0.7-1.6-0.7
		c-1.3,0-2.4,1.2-2.4,3.1c0,1.9,0.9,3.1,2.3,3.1c0.8,0,1.4-0.4,1.8-0.9l0.9,1.1c-0.7,0.9-1.7,1.3-2.8,1.3
		C593.9,195.8,592.1,194.2,592.1,191.2z"/>
	<path class="st3" d="M603.1,186.7h2.9c2,0,3.5,0.7,3.5,2.8c0,2-1.5,2.9-3.4,2.9h-1.2v3.2h-1.8V186.7z M606,191
		c1.2,0,1.8-0.5,1.8-1.5s-0.6-1.4-1.9-1.4h-1v2.9H606z"/>
	<path class="st3" d="M611,188.9h1.4l0.1,1.2l0,0c0.5-0.9,1.2-1.4,1.9-1.4c0.4,0,0.6,0.1,0.8,0.1l-0.3,1.5c-0.2-0.1-0.4-0.1-0.7-0.1
		c-0.5,0-1.2,0.3-1.5,1.3v4H611V188.9z"/>
	<path class="st3" d="M615.7,192.3c0-2.2,1.5-3.5,3.2-3.5s3.2,1.3,3.2,3.5s-1.5,3.5-3.2,3.5S615.7,194.5,615.7,192.3z M620.3,192.3
		c0-1.3-0.5-2.1-1.4-2.1s-1.4,0.8-1.4,2.1s0.5,2.1,1.4,2.1S620.3,193.5,620.3,192.3z"/>
	<path class="st3" d="M623.1,196.8c0-0.6,0.3-1,1-1.4v-0.1c-0.3-0.2-0.6-0.6-0.6-1.1s0.3-1,0.7-1.3l0,0c-0.5-0.3-0.9-1-0.9-1.8
		c0-1.6,1.3-2.4,2.7-2.4c0.4,0,0.7,0.1,1,0.2h2.4v1.3h-1.2c0.2,0.2,0.3,0.6,0.3,1c0,1.5-1.2,2.3-2.6,2.3c-0.3,0-0.6-0.1-0.9-0.2
		c-0.2,0.2-0.3,0.3-0.3,0.6c0,0.4,0.3,0.6,1.1,0.6h1.1c1.6,0,2.5,0.5,2.5,1.7c0,1.4-1.4,2.4-3.6,2.4
		C624.4,198.5,623.1,198,623.1,196.8z M627.9,196.4c0-0.5-0.4-0.6-1.1-0.6H626c-0.4,0-0.7,0-0.9-0.1c-0.3,0.2-0.4,0.5-0.4,0.8
		c0,0.6,0.6,0.9,1.6,0.9C627.2,197.4,627.9,197,627.9,196.4z M627.1,191.2c0-0.8-0.4-1.2-1-1.2s-1.1,0.4-1.1,1.2s0.5,1.2,1.1,1.2
		S627.1,191.9,627.1,191.2z"/>
	<path class="st3" d="M630.8,188.9h1.4l0.1,1.2l0,0c0.5-0.9,1.2-1.4,1.9-1.4c0.4,0,0.6,0.1,0.8,0.1l-0.3,1.5
		c-0.2-0.1-0.4-0.1-0.7-0.1c-0.5,0-1.2,0.3-1.5,1.3v4h-1.8L630.8,188.9L630.8,188.9z"/>
	<path class="st3" d="M635.3,193.8c0-1.4,1.2-2.2,3.9-2.5c0-0.7-0.3-1.2-1.1-1.2c-0.6,0-1.2,0.3-1.8,0.6l-0.6-1.2
		c0.8-0.5,1.8-0.9,2.8-0.9c1.7,0,2.6,1,2.6,3v3.9h-1.4l-0.1-0.7l0,0c-0.6,0.5-1.3,0.9-2,0.9C636.1,195.8,635.3,194.9,635.3,193.8z
		 M639.1,193.7v-1.4c-1.6,0.2-2.2,0.7-2.2,1.3c0,0.5,0.4,0.8,0.9,0.8C638.3,194.4,638.7,194.1,639.1,193.7z"/>
	<path class="st3" d="M642.7,188.9h1.4l0.1,0.9l0,0c0.6-0.6,1.2-1.1,2.1-1.1c1,0,1.5,0.4,1.8,1.2c0.6-0.6,1.3-1.2,2.1-1.2
		c1.4,0,2.1,1,2.1,2.7v4.2h-1.8v-4c0-1-0.3-1.4-0.9-1.4c-0.4,0-0.8,0.3-1.3,0.8v4.6h-1.8v-4c0-1-0.3-1.4-0.9-1.4
		c-0.4,0-0.8,0.3-1.3,0.8v4.6h-1.8v-6.7H642.7z"/>
</g>
<g>
	<path class="st3" d="M87,173.7h3c1.8,0,3.2,0.5,3.2,2.2c0,0.8-0.5,1.7-1.2,1.9v0.1c1,0.2,1.7,0.9,1.7,2.1c0,1.8-1.5,2.6-3.4,2.6H87
		V173.7z M89.9,177.3c1.1,0,1.6-0.5,1.6-1.2c0-0.8-0.5-1.1-1.6-1.1h-1.1v2.3H89.9z M90.1,181.2c1.2,0,1.9-0.4,1.9-1.4
		c0-0.9-0.6-1.2-1.9-1.2h-1.2v2.6L90.1,181.2L90.1,181.2z"/>
	<path class="st3" d="M94.9,173.8c0-0.6,0.4-1,1.1-1c0.6,0,1,0.4,1,1s-0.4,1-1,1S94.9,174.4,94.9,173.8z M95.1,175.9h1.8v6.7h-1.8
		V175.9z"/>
	<path class="st3" d="M98.3,179.3c0-2.2,1.5-3.5,3.2-3.5s3.2,1.3,3.2,3.5s-1.5,3.5-3.2,3.5S98.3,181.5,98.3,179.3z M103,179.3
		c0-1.3-0.5-2.1-1.4-2.1s-1.4,0.8-1.4,2.1s0.5,2.1,1.4,2.1S103,180.5,103,179.3z"/>
	<path class="st3" d="M106.1,173.8c0-0.6,0.4-1,1.1-1c0.6,0,1,0.4,1,1s-0.4,1-1,1C106.5,174.8,106.1,174.4,106.1,173.8z
		 M106.2,175.9h1.8v6.7h-1.8V175.9z"/>
	<path class="st3" d="M109.9,175.9h1.4l0.1,0.9l0,0c0.6-0.6,1.3-1.1,2.2-1.1c1.5,0,2.1,1,2.1,2.7v4.2H114v-4c0-1-0.3-1.4-0.9-1.4
		s-0.9,0.3-1.4,0.8v4.6h-1.8C109.9,182.6,109.9,175.9,109.9,175.9z"/>
	<path class="st3" d="M121.2,174.4c-0.2-0.1-0.5-0.1-0.7-0.1c-0.5,0-0.8,0.3-0.8,1.1v0.6h1.3v1.4h-1.3v5.3h-1.8v-5.3H117V176
		l0.9-0.1v-0.6c0-1.4,0.6-2.5,2.3-2.5c0.5,0,1,0.1,1.3,0.2L121.2,174.4z"/>
	<path class="st3" d="M121.5,179.3c0-2.2,1.5-3.5,3.2-3.5s3.2,1.3,3.2,3.5s-1.5,3.5-3.2,3.5S121.5,181.5,121.5,179.3z M126.1,179.3
		c0-1.3-0.5-2.1-1.4-2.1s-1.4,0.8-1.4,2.1s0.5,2.1,1.4,2.1S126.1,180.5,126.1,179.3z"/>
	<path class="st3" d="M129.4,175.9h1.4l0.1,1.2l0,0c0.5-0.9,1.2-1.4,1.9-1.4c0.4,0,0.6,0.1,0.8,0.1l-0.3,1.5
		c-0.2-0.1-0.4-0.1-0.7-0.1c-0.5,0-1.2,0.3-1.5,1.3v4h-1.8v-6.6H129.4z"/>
	<path class="st3" d="M134.6,175.9h1.4l0.1,0.9l0,0c0.6-0.6,1.2-1.1,2.1-1.1c1,0,1.5,0.4,1.8,1.2c0.6-0.6,1.3-1.2,2.1-1.2
		c1.4,0,2.1,1,2.1,2.7v4.2h-1.8v-4c0-1-0.3-1.4-0.9-1.4c-0.4,0-0.8,0.3-1.3,0.8v4.6h-1.8v-4c0-1-0.3-1.4-0.9-1.4
		c-0.4,0-0.8,0.3-1.3,0.8v4.6h-1.8v-6.7H134.6z"/>
	<path class="st3" d="M145.9,180.8c0-1.4,1.2-2.2,3.9-2.5c0-0.7-0.3-1.2-1.1-1.2c-0.6,0-1.2,0.3-1.8,0.6l-0.6-1.2
		c0.8-0.5,1.8-0.9,2.8-0.9c1.7,0,2.6,1,2.6,3v3.9h-1.4l-0.1-0.7l0,0c-0.6,0.5-1.3,0.9-2,0.9C146.7,182.8,145.9,181.9,145.9,180.8z
		 M149.7,180.7v-1.4c-1.6,0.2-2.2,0.7-2.2,1.3c0,0.5,0.4,0.8,0.9,0.8C148.9,181.4,149.3,181.1,149.7,180.7z"/>
	<path class="st3" d="M153.3,180.2v-3h-0.9V176l1-0.1l0.2-1.8h1.5v1.8h1.7v1.4h-1.7v3c0,0.8,0.3,1.1,0.9,1.1c0.2,0,0.5-0.1,0.7-0.1
		l0.3,1.3c-0.4,0.1-0.8,0.3-1.4,0.3C153.9,182.8,153.3,181.8,153.3,180.2z"/>
	<path class="st3" d="M157.9,173.8c0-0.6,0.4-1,1.1-1c0.6,0,1,0.4,1,1s-0.4,1-1,1S157.9,174.4,157.9,173.8z M158.1,175.9h1.8v6.7
		h-1.8V175.9z"/>
	<path class="st3" d="M161.3,179.3c0-2.2,1.5-3.5,3.2-3.5s3.2,1.3,3.2,3.5s-1.5,3.5-3.2,3.5S161.3,181.5,161.3,179.3z M166,179.3
		c0-1.3-0.5-2.1-1.4-2.1s-1.4,0.8-1.4,2.1s0.5,2.1,1.4,2.1S166,180.5,166,179.3z"/>
	<path class="st3" d="M169.3,175.9h1.4l0.1,0.9l0,0c0.6-0.6,1.3-1.1,2.2-1.1c1.5,0,2.1,1,2.1,2.7v4.2h-1.8v-4c0-1-0.3-1.4-0.9-1.4
		c-0.6,0-0.9,0.3-1.4,0.8v4.6h-1.8L169.3,175.9L169.3,175.9z"/>
	<path class="st3" d="M84.2,193.8c0-1.4,1.2-2.2,3.9-2.5c0-0.7-0.3-1.2-1.1-1.2c-0.6,0-1.2,0.3-1.8,0.6l-0.6-1.2
		c0.8-0.5,1.8-0.9,2.8-0.9c1.7,0,2.6,1,2.6,3v3.9h-1.4l-0.1-0.7l0,0c-0.6,0.5-1.3,0.9-2,0.9C85,195.8,84.2,194.9,84.2,193.8z
		 M88.1,193.7v-1.4c-1.6,0.2-2.2,0.7-2.2,1.3c0,0.5,0.4,0.8,0.9,0.8C87.3,194.4,87.7,194.1,88.1,193.7z"/>
	<path class="st3" d="M91.7,188.9h1.4l0.1,0.9l0,0c0.6-0.6,1.3-1.1,2.2-1.1c1.5,0,2.1,1,2.1,2.7v4.2h-1.8v-4c0-1-0.3-1.4-0.9-1.4
		s-0.9,0.3-1.4,0.8v4.6h-1.8v-6.7H91.7z"/>
	<path class="st3" d="M99,192.3c0-2.2,1.4-3.5,2.8-3.5c0.8,0,1.2,0.3,1.7,0.7l-0.1-1.1V186h1.8v9.6h-1.4l-0.1-0.7l0,0
		c-0.5,0.5-1.2,0.9-1.9,0.9C100,195.8,99,194.4,99,192.3z M103.4,193.6v-3c-0.4-0.4-0.8-0.5-1.2-0.5c-0.8,0-1.4,0.7-1.4,2.1
		c0,1.4,0.5,2.1,1.4,2.1C102.6,194.3,103,194.1,103.4,193.6z"/>
	<path class="st3" d="M109.9,186.7h2.4c2.7,0,4.4,1.4,4.4,4.4s-1.7,4.5-4.3,4.5h-2.5V186.7z M112.3,194.2c1.7,0,2.7-0.9,2.7-3
		c0-2.2-1-3-2.7-3h-0.6v6H112.3z"/>
	<path class="st3" d="M118.5,186.7h2.4c2.7,0,4.4,1.4,4.4,4.4s-1.7,4.5-4.3,4.5h-2.5V186.7z M120.8,194.2c1.7,0,2.7-0.9,2.7-3
		c0-2.2-1-3-2.7-3h-0.6v6H120.8z"/>
	<path class="st3" d="M127.1,186.7h2.9c1.8,0,3.2,0.5,3.2,2.2c0,0.8-0.5,1.7-1.2,1.9v0.1c1,0.2,1.7,0.9,1.7,2.1
		c0,1.8-1.5,2.6-3.4,2.6h-3.2C127.1,195.6,127.1,186.7,127.1,186.7z M129.9,190.3c1.1,0,1.6-0.5,1.6-1.2c0-0.8-0.5-1.1-1.6-1.1h-1.1
		v2.3H129.9z M130.1,194.2c1.2,0,1.9-0.4,1.9-1.4c0-0.9-0.6-1.2-1.9-1.2h-1.2v2.6L130.1,194.2L130.1,194.2z"/>
	<path class="st3" d="M134.2,194.2l1.2-0.9c0.3,0.6,0.8,0.9,1.3,0.9c0.8,0,1.2-0.4,1.2-1.6v-5.9h1.8v6c0,1.7-0.8,3-2.7,3
		C135.6,195.8,134.8,195.2,134.2,194.2z"/>
	<path class="st3" d="M144,192.3c0-2.2,1.6-3.5,3.4-3.5c0.8,0,1.5,0.3,2,0.7l-0.8,1.1c-0.3-0.3-0.6-0.4-1-0.4c-1,0-1.7,0.8-1.7,2.1
		s0.7,2.1,1.7,2.1c0.5,0,0.9-0.2,1.3-0.5l0.7,1.2c-0.6,0.6-1.5,0.8-2.2,0.8C145.4,195.8,144,194.5,144,192.3z"/>
	<path class="st3" d="M149.9,192.3c0-2.2,1.5-3.5,3.1-3.5c1.8,0,2.8,1.4,2.8,3.2c0,0.3,0,0.6-0.1,0.8h-4.1c0.1,1.1,0.9,1.7,1.9,1.7
		c0.6,0,1-0.2,1.5-0.5l0.6,1.1c-0.7,0.5-1.5,0.7-2.4,0.7C151.4,195.8,149.9,194.5,149.9,192.3z M154.4,191.6c0-0.9-0.4-1.5-1.3-1.5
		c-0.7,0-1.3,0.5-1.5,1.5H154.4z"/>
	<path class="st3" d="M157.3,188.9h1.4l0.1,0.9l0,0c0.6-0.6,1.3-1.1,2.2-1.1c1.5,0,2.1,1,2.1,2.7v4.2h-1.8v-4c0-1-0.3-1.4-0.9-1.4
		c-0.6,0-0.9,0.3-1.4,0.8v4.6h-1.8L157.3,188.9L157.3,188.9z"/>
	<path class="st3" d="M165.3,193.2v-3h-0.9V189l1-0.1l0.2-1.8h1.5v1.8h1.7v1.4H167v3c0,0.8,0.3,1.1,0.9,1.1c0.2,0,0.5-0.1,0.7-0.1
		l0.3,1.3c-0.4,0.1-0.8,0.3-1.4,0.3C165.9,195.8,165.3,194.8,165.3,193.2z"/>
	<path class="st3" d="M169.4,192.3c0-2.2,1.5-3.5,3.1-3.5c1.8,0,2.8,1.4,2.8,3.2c0,0.3,0,0.6-0.1,0.8h-4.1c0.1,1.1,0.9,1.7,1.9,1.7
		c0.6,0,1-0.2,1.5-0.5l0.6,1.1c-0.7,0.5-1.5,0.7-2.4,0.7C170.9,195.8,169.4,194.5,169.4,192.3z M173.8,191.6c0-0.9-0.4-1.5-1.3-1.5
		c-0.7,0-1.3,0.5-1.5,1.5H173.8z"/>
	<path class="st3" d="M176.8,188.9h1.4l0.1,1.2l0,0c0.5-0.9,1.2-1.4,1.9-1.4c0.4,0,0.6,0.1,0.8,0.1l-0.3,1.5
		c-0.2-0.1-0.4-0.1-0.7-0.1c-0.5,0-1.2,0.3-1.5,1.3v4h-1.8v-6.6H176.8z"/>
</g>
</svg>
