<?xml version="1.0" encoding="utf-8"?>
<!-- Generator: Adobe Illustrator 21.1.0, SVG Export Plug-In . SVG Version: 6.00 Build 0)  -->
<svg version="1.1" id="レイヤー_1" xmlns="http://www.w3.org/2000/svg" xmlns:xlink="http://www.w3.org/1999/xlink" x="0px"
	 y="0px" viewBox="0 0 502 502" style="enable-background:new 0 0 502 502;" xml:space="preserve">
<style type="text/css">
	.st0{fill:#004098;}
	.st1{fill:#97BDC0;}
</style>
<g>
	<g>
		<path class="st0" d="M51.4,398.6h25.3c36.5,0,50.9,21,50.9,50.8c0,36.9-24.7,51.1-58.4,51.1H51.4V398.6z M61.4,491.7h8.3
			c28.9,0,47.7-11.7,47.7-42.9c0-31.1-18.5-41.5-41.3-41.5H61.4V491.7z"/>
		<path class="st0" d="M148.7,398.6H173c16.6,0,32.3,5.5,32.3,25.1c0,13-6,20.7-18.5,23.2v0.3c12.8,2.3,21.6,10.8,21.6,24.2
			c0,22.2-18.1,29-39.3,29h-20.3L148.7,398.6L148.7,398.6z M158.8,491.7h10.5c13.6,0,28.9-3.6,28.9-19.9c0-18.1-15.6-20-30.5-20
			h-8.9L158.8,491.7L158.8,491.7z M159.1,443.1h11.2c10.7,0,24.8-2.8,24.8-19c0-14.7-13.6-16.8-22.2-16.8h-13.9L159.1,443.1
			L159.1,443.1z"/>
		<path class="st0" d="M300.7,410c-6.4-3.4-15.6-4.4-22.8-4.4c-26.4,0-41.3,18.7-41.3,43.9c0,25.7,14.5,43.9,41.3,43.9
			c6.7,0,16.9-0.9,22.8-4.4l0.6,8.8c-5.5,3.4-16.9,4.4-23.4,4.4c-32.1,0-51.4-21.2-51.4-52.7c0-30.9,19.9-52.7,51.4-52.7
			c6,0,18.1,1,23.4,3.8L300.7,410z"/>
		<path class="st0" d="M327.2,398.6h10.1v93.1h40.9v8.8h-50.9L327.2,398.6L327.2,398.6z"/>
		<path class="st0" d="M390.2,487.5c6,3.8,13,6,22.5,6c12.6,0,22.9-6.4,22.9-20.9c0-20-46.7-22.5-46.7-49.2
			c0-16.3,14.3-26.6,32.3-26.6c5,0,13,0.7,20,3.4l-1.6,9.2c-4.5-2.5-11.7-3.8-18.5-3.8c-10.5,0-22,4.4-22,17.5
			c0,20.4,46.7,20.6,46.7,50.4c0,20.6-17.7,28.8-33.4,28.8c-9.9,0-17.7-2-23.1-4.4L390.2,487.5z"/>
	</g>
	<g>
		<g>
			<rect x="264" y="67.7" class="st1" width="13.4" height="53.1"/>
			<rect x="296.5" y="80.4" class="st1" width="10.8" height="53.1"/>
			<rect x="281.1" y="74.1" class="st1" width="12.2" height="53.1"/>
			<polygon class="st1" points="245.2,61.4 245.2,114.6 259.6,114.6 259.6,61.4 			"/>
			<rect x="179.4" y="34.4" class="st1" width="6.4" height="53.1"/>
			<rect x="309.8" y="86.7" class="st1" width="9.1" height="53.2"/>
			<rect x="165.7" y="23.3" class="st1" width="3.4" height="53.1"/>
			<rect x="149.5" y="2.3" class="st1" width="1.9" height="53.2"/>
			<rect x="226.5" y="55.1" class="st1" width="13.7" height="53.2"/>
			<polygon class="st1" points="194,42.1 194,95.3 203,95.3 203,42.1 			"/>
			<polygon class="st1" points="209.3,48.6 209.3,101.8 220.8,101.8 220.8,48.6 			"/>
			<rect x="329" y="99.4" class="st1" width="4.6" height="53.1"/>
			<path class="st1" d="M334.3,106.1c0,0,0,54,0,53.1c0-0.8,1.7,0,1.7,0v-53.1H334.3z"/>
			<rect x="320.7" y="93" class="st1" width="7" height="53.1"/>
		</g>
		<g>
			<g>
				<g>
					<path class="st1" d="M149.5,159.3c0,2.1,0.7,4.2,2,6.3c1.3,2.2,3.3,4.4,5.8,6.5c2.4,2,5.2,4.1,8.4,6.1
						c3.4,2.1,7.2,4.2,11.2,6.3c4.3,2.1,8.8,4.2,13.6,6.3c5.1,2.2,10.4,4.3,15.7,6.3c5.9,2.2,11.8,4.3,17.5,6.3
						c6.9,2.4,13.4,4.5,19.1,6.3c5.6,1.8,12.1,3.9,19.1,6.3c5.7,1.9,11.6,4,17.5,6.3c5.3,2,10.6,4.1,15.7,6.3
						c4.7,2,9.3,4.1,13.6,6.3c4.1,2,7.9,4.1,11.3,6.3c3.3,2.1,6.2,4.2,8.6,6.3c2.4,2.1,4.3,4.2,5.6,6.3c1.3,2.1,2,4.2,2,6.3v-53.1
						c0-2.1-0.7-4.2-2-6.3c-1.3-2.1-3.2-4.2-5.6-6.3c-2.4-2.1-5.3-4.2-8.6-6.3c-3.4-2.1-7.2-4.2-11.3-6.3c-4.3-2.2-8.8-4.3-13.6-6.3
						c-5.1-2.2-10.4-4.3-15.7-6.3c-5.9-2.2-11.8-4.3-17.5-6.3c-6.9-2.4-13.4-4.5-19.1-6.3c-5.6-1.8-12.2-3.9-19.1-6.3
						c-5.7-1.9-11.6-4-17.5-6.3c-5.3-2-10.6-4.1-15.7-6.3c-4.7-2-9.3-4.1-13.6-6.3c-4.1-2-7.9-4.2-11.2-6.3c-3.2-2-6-4-8.4-6.1
						c-2.5-2.2-4.5-4.3-5.8-6.5c-1.3-2.1-2-4.2-2-6.3L149.5,159.3L149.5,159.3z"/>
					<path class="st0" d="M336,259.8c0,2.1-0.7,4.2-2,6.3c-1.4,2.2-3.4,4.3-5.8,6.5c-2.4,2-5.2,4.1-8.4,6.1
						c-3.4,2.1-7.2,4.2-11.3,6.3c-4.3,2.1-8.8,4.2-13.6,6.3c-5.1,2.2-10.4,4.3-15.6,6.3c-5.9,2.2-11.9,4.3-17.5,6.3
						c-6.9,2.4-13.4,4.5-19.1,6.3c-5.6,1.8-12.2,3.9-19.1,6.3c-5.6,1.9-11.6,4-17.5,6.3c-5.3,2-10.6,4.1-15.7,6.3
						c-4.7,2-9.3,4.1-13.6,6.3c-4.1,2.1-7.9,4.2-11.3,6.3c-3.3,2.1-6.2,4.2-8.6,6.3c-2.4,2.1-4.3,4.2-5.6,6.3c-1.3,2.1-2,4.2-2,6.3
						v-53.1c0-2.1,0.7-4.2,2-6.3c1.3-2.1,3.2-4.2,5.6-6.3c2.4-2.1,5.3-4.2,8.6-6.3c3.4-2.1,7.2-4.2,11.3-6.3
						c4.3-2.1,8.8-4.2,13.6-6.3c5.1-2.2,10.4-4.3,15.7-6.3c5.9-2.2,11.8-4.3,17.5-6.3c6.9-2.4,13.4-4.5,19.1-6.3
						c5.6-1.8,12.1-3.9,19.1-6.3c5.6-1.9,11.6-4,17.5-6.3c5.3-2,10.5-4.1,15.6-6.3c4.7-2,9.3-4.1,13.6-6.3c4.1-2,7.9-4.1,11.3-6.3
						c3.2-2,6-4,8.4-6.1c2.5-2.2,4.5-4.3,5.8-6.5c1.3-2.1,2-4.2,2-6.3L336,259.8L336,259.8z"/>
				</g>
			</g>
			<g>
				<g>
					<g>
						<path class="st0" d="M336,159.3c0,2.1-0.7,4.2-2,6.3c-1.4,2.2-3.4,4.4-5.8,6.5c-2.4,2-5.2,4.1-8.4,6.1
							c-3.4,2.1-7.2,4.2-11.3,6.3c-4.3,2.1-8.8,4.2-13.6,6.3c-5.1,2.2-10.4,4.3-15.6,6.3c-5.9,2.2-11.9,4.3-17.5,6.3
							c-6.9,2.4-13.4,4.5-19.1,6.3c-5.6,1.8-12.2,3.9-19.1,6.3c-5.6,1.9-11.6,4-17.5,6.3c-5.3,2-10.6,4.1-15.7,6.3
							c-4.7,2-9.3,4.1-13.6,6.3c-4.1,2-7.9,4.1-11.3,6.3c-3.3,2.1-6.2,4.2-8.6,6.3c-2.4,2.1-4.3,4.2-5.6,6.3c-1.3,2.1-2,4.2-2,6.3
							v-53.1c0-2.1,0.7-4.2,2-6.3c1.3-2.1,3.2-4.2,5.6-6.3c2.4-2.1,5.3-4.2,8.6-6.3c3.4-2.1,7.2-4.2,11.3-6.3
							c4.3-2.2,8.8-4.3,13.6-6.3c5.1-2.2,10.4-4.3,15.7-6.3c5.9-2.2,11.8-4.3,17.5-6.3c6.9-2.4,13.4-4.5,19.1-6.3
							c5.6-1.8,12.1-3.9,19.1-6.3c5.6-1.9,11.6-4,17.5-6.3c5.3-2,10.5-4.1,15.6-6.3c4.7-2,9.3-4.1,13.6-6.3c4.1-2,7.9-4.2,11.3-6.3
							c3.2-2,6-4,8.4-6.1c2.5-2.2,4.5-4.3,5.8-6.5c1.3-2.1,2-4.2,2-6.3L336,159.3L336,159.3z"/>
					</g>
				</g>
			</g>
			<g>
				<rect x="208" y="67.7" class="st0" width="13.4" height="53.1"/>
				<rect x="178.2" y="80.4" class="st0" width="10.8" height="53.1"/>
				<rect x="192.1" y="74.1" class="st0" width="12.2" height="53.1"/>
				<polygon class="st0" points="240.2,61.4 240.2,114.6 225.8,114.6 225.8,61.4 				"/>
				<rect x="299.6" y="34.4" class="st0" width="6.4" height="53.1"/>
				<rect x="166.6" y="86.7" class="st0" width="9.1" height="53.2"/>
				<rect x="316.3" y="23.3" class="st0" width="3.4" height="53.1"/>
				<rect x="334.1" y="2.3" class="st0" width="1.9" height="53.2"/>
				<rect x="245.2" y="55.1" class="st0" width="13.7" height="53.2"/>
				<polygon class="st0" points="291.5,42.1 291.5,95.3 282.4,95.3 282.4,42.1 				"/>
				<polygon class="st0" points="276.1,48.6 276.1,101.8 264.6,101.8 264.6,48.6 				"/>
				<rect x="151.8" y="99.4" class="st0" width="4.6" height="53.1"/>
				<path class="st0" d="M151.2,106.1c0,0,0,54,0,53.1c0-0.8-1.7,0-1.7,0v-53.1H151.2z"/>
				<rect x="157.7" y="93" class="st0" width="7" height="53.1"/>
			</g>
		</g>
	</g>
</g>
</svg>
